<svg width="123" height="123" viewBox="0 0 123 123" fill="none" xmlns="http://www.w3.org/2000/svg">
<path d="M106.634 13.7766L75.7422 44.7474L78.2419 47.2408L109.134 16.2699L106.634 13.7766Z" fill="#242424"/>
<path d="M52.2778 29.7998L49.7812 32.2963L64.7448 47.2599L67.2413 44.7634L52.2778 29.7998Z" fill="#242424"/>
<path d="M38.7638 29.797L13.8184 54.7424L16.3149 57.2389L41.2603 32.2935L38.7638 29.797Z" fill="#242424"/>
<path d="M104.289 36.3604C102.632 36.3604 101.289 37.7035 101.289 39.3604V120C101.289 121.657 102.632 123 104.289 123H120C121.657 123 123 121.657 123 120V39.3604C123 37.7035 121.657 36.3604 120 36.3604H104.289ZM107.82 119.469C106.163 119.469 104.82 118.126 104.82 116.469L104.82 42.891C104.82 41.2341 106.163 39.891 107.82 39.891H116.469C118.126 39.891 119.469 41.2341 119.469 42.891V116.469C119.469 118.126 118.126 119.469 116.469 119.469H107.82Z" fill="#333399"/>
<path d="M107.82 119.469C106.163 119.469 104.82 118.126 104.82 116.469L104.82 42.891C104.82 41.2341 106.163 39.891 107.82 39.891H116.469C118.126 39.891 119.469 41.2341 119.469 42.891V116.469C119.469 118.126 118.126 119.469 116.469 119.469H107.82Z" fill="#333399"/>
<path d="M70.5264 72.7203C68.8695 72.7203 67.5264 74.0635 67.5264 75.7203V120C67.5264 121.657 68.8695 123 70.5264 123H86.2371C87.894 123 89.2372 121.657 89.2372 120V75.7203C89.2372 74.0635 87.894 72.7203 86.2372 72.7203H70.5264ZM85.7069 116.469C85.7069 118.126 84.3637 119.469 82.7069 119.469H74.0573C72.4005 119.469 71.0573 118.126 71.0573 116.469V79.2513C71.0573 77.5944 72.4005 76.2513 74.0573 76.2513H82.7069C84.3637 76.2513 85.7069 77.5944 85.7069 79.2513V116.469Z" fill="#4C4CAE"/>
<path d="M85.7069 116.469C85.7069 118.126 84.3637 119.469 82.7069 119.469H74.0573C72.4005 119.469 71.0573 118.126 71.0573 116.469V79.2513C71.0573 77.5944 72.4005 76.2513 74.0573 76.2513H82.7069C84.3637 76.2513 85.7069 77.5944 85.7069 79.2513V116.469Z" fill="#4C4CAE"/>
<path d="M36.7627 70.1233C35.1058 70.1233 33.7627 71.4664 33.7627 73.1233V120C33.7627 121.657 35.1058 123 36.7627 123H52.4735C54.1303 123 55.4735 121.657 55.4735 120V73.1233C55.4735 71.4664 54.1303 70.1233 52.4735 70.1233H36.7627ZM51.9432 116.469C51.9432 118.126 50.6001 119.469 48.9432 119.469H40.2937C38.6368 119.469 37.2937 118.126 37.2937 116.469V76.6543C37.2937 74.9974 38.6368 73.6543 40.2937 73.6543H48.9432C50.6001 73.6543 51.9432 74.9974 51.9432 76.6543V116.469Z" fill="#6262C0"/>
<path d="M51.9432 116.469C51.9432 118.126 50.6001 119.469 48.9432 119.469H40.2937C38.6368 119.469 37.2937 118.126 37.2937 116.469V76.6543C37.2937 74.9974 38.6368 73.6543 40.2937 73.6543H48.9432C50.6001 73.6543 51.9432 74.9974 51.9432 76.6543V116.469Z" fill="#6262C0"/>
<path d="M3 83.1091C1.34315 83.1091 0 84.4522 0 86.1091V120C0 121.657 1.34315 123 3 123H18.7108C20.3676 123 21.7108 121.657 21.7108 120L21.7111 86.1091C21.7111 84.4522 20.368 83.1091 18.7111 83.1091H3ZM18.1802 116.471C18.1802 118.128 16.837 119.469 15.1802 119.469H6.53062C4.87377 119.469 3.53062 118.126 3.53062 116.469V89.6394C3.53062 87.9825 4.87377 86.6394 6.53062 86.6394H15.1802C16.837 86.6394 18.1802 87.9805 18.1802 89.6373C18.1802 95.8829 18.1802 110.225 18.1802 116.471Z" fill="#7575CD"/>
<path d="M18.1802 116.471C18.1802 118.128 16.837 119.469 15.1802 119.469H6.53062C4.87377 119.469 3.53062 118.126 3.53062 116.469V89.6394C3.53062 87.9825 4.87377 86.6394 6.53062 86.6394H15.1802C16.837 86.6394 18.1802 87.9805 18.1802 89.6373C18.1802 95.8829 18.1802 110.225 18.1802 116.471Z" fill="#7575CD"/>
<path d="M120.256 2.85508C118.466 1.03533 116.074 0.0215053 113.521 0.000341354L113.441 0C108.216 0 103.929 4.2519 103.886 9.47803C103.865 12.0307 104.839 14.4389 106.63 16.2587C108.42 18.0784 110.811 19.0923 113.364 19.1134L113.444 19.1138C118.67 19.1138 122.956 14.8619 122.999 9.63573C123.02 7.08309 122.046 4.67484 120.256 2.85508ZM113.444 15.5831L113.393 15.5828C111.784 15.5695 110.276 14.9301 109.147 13.7828C108.018 12.6352 107.404 11.1169 107.417 9.50738C107.444 6.21196 110.146 3.53096 113.441 3.53096L113.492 3.5313C115.102 3.54462 116.61 4.18397 117.738 5.33126C118.867 6.47889 119.481 7.99724 119.468 9.60672C119.441 12.9021 116.739 15.5831 113.444 15.5831Z" fill="#333399"/>
<path d="M113.444 15.5831L113.393 15.5828C111.784 15.5695 110.276 14.9301 109.147 13.7828C108.018 12.6352 107.404 11.1169 107.417 9.50738C107.444 6.21196 110.146 3.53096 113.441 3.53096L113.492 3.5313C115.102 3.54462 116.61 4.18397 117.738 5.33126C118.867 6.47889 119.481 7.99724 119.468 9.60672C119.441 12.9021 116.739 15.5831 113.444 15.5831Z" fill="#333399"/>
<path d="M9.63572 51.9435L9.5555 51.9431C4.32972 51.9431 0.0433392 56.195 0.000328611 61.4215C-0.0430233 66.6906 4.20854 71.0132 9.47801 71.0569H9.55789C14.7837 71.0569 19.0704 66.805 19.1134 61.5788C19.1568 56.3094 14.9052 51.9868 9.63572 51.9435ZM9.55789 67.5259L9.50703 67.5256C6.18429 67.4983 3.5033 64.7729 3.53061 61.4502C3.55792 58.1547 6.26041 55.4737 9.55516 55.4737H9.60602C12.9288 55.501 15.6098 58.2268 15.5824 61.5495C15.5555 64.8449 12.853 67.5259 9.55789 67.5259Z" fill="#7575CD"/>
<path d="M9.55789 67.5259L9.50703 67.5256C6.18429 67.4983 3.5033 64.7729 3.53061 61.4502C3.55792 58.1547 6.26041 55.4737 9.55516 55.4737H9.60602C12.9288 55.501 15.6098 58.2268 15.5824 61.5495C15.5555 64.8449 12.853 67.5259 9.55789 67.5259Z" fill="#7575CD"/>
<path d="M45.5996 15.9795L45.5194 15.9791C40.2936 15.9791 36.0069 20.231 35.9642 25.4572C35.9208 30.7266 40.1724 35.0492 45.4419 35.0926L45.5221 35.0929C50.7475 35.0929 55.0343 30.841 55.0773 25.6149C55.1206 20.345 50.8691 16.0225 45.5996 15.9795ZM45.5218 31.5623L45.4709 31.5619C42.1482 31.5346 39.4672 28.8089 39.4945 25.4865C39.5218 22.1911 42.2243 19.5101 45.519 19.5101L45.5699 19.5104C48.8926 19.5377 51.5736 22.2635 51.5463 25.5858C51.5193 28.8813 48.8168 31.5623 45.5218 31.5623Z" fill="#6262C0"/>
<path d="M45.5218 31.5623L45.4709 31.5619C42.1482 31.5346 39.4672 28.8089 39.4945 25.4865C39.5218 22.1911 42.2243 19.5101 45.519 19.5101L45.5699 19.5104C48.8926 19.5377 51.5736 22.2635 51.5463 25.5858C51.5193 28.8813 48.8168 31.5623 45.5218 31.5623Z" fill="#6262C0"/>
<path d="M71.5713 41.951L71.491 41.9507C66.2653 41.9507 61.9789 46.2026 61.9359 51.4287C61.8925 56.6982 66.1444 61.0208 71.4139 61.0641L71.4938 61.0644C76.7192 61.0644 81.0059 56.8125 81.0489 51.5864C81.0923 46.3166 76.8404 41.9944 71.5713 41.951ZM71.4934 57.5338L71.4426 57.5335C68.1198 57.5062 65.4388 54.7805 65.4662 51.4581C65.4931 48.1626 68.1956 45.4816 71.4904 45.4816L71.5412 45.482C74.864 45.5093 77.5446 48.235 77.5173 51.5574C77.4907 54.8528 74.7882 57.5338 71.4934 57.5338Z" fill="#4C4CAE"/>
<path d="M71.4934 57.5338L71.4426 57.5335C68.1198 57.5062 65.4388 54.7805 65.4662 51.4581C65.4931 48.1626 68.1956 45.4816 71.4904 45.4816L71.5412 45.482C74.864 45.5093 77.5446 48.235 77.5173 51.5574C77.4907 54.8528 74.7882 57.5338 71.4934 57.5338Z" fill="#4C4CAE"/>
</svg>
