<svg width="223" height="122" viewBox="0 0 223 122" fill="none" xmlns="http://www.w3.org/2000/svg">
<path d="M194.347 95.6561H162.955C159.454 95.6561 156.059 94.4553 153.338 92.2536L150.162 89.6852L118.387 15.2516L188.249 24.6759L194.347 35.7624L207.413 46.1597V90.2236L194.347 95.6561Z" fill="#E0BFA6"/>
<path d="M167.794 60.0166L110.421 2.6429C108.729 0.950799 106.433 0 104.04 0H79.7199C77.4908 0 75.3405 0.825361 73.6836 2.31624L61.8842 12.9357C60.2274 14.4271 58.0771 15.252 55.848 15.252H28.6533L19.9424 21.945V73.178L28.6533 79.6193H53.1154L75.2904 74.8622L94.1635 94.5411L113.717 114.095C117.388 117.766 123.34 117.766 127.011 114.095L127.025 114.081C130.696 110.409 130.696 104.458 127.025 100.786C130.696 104.458 136.648 104.458 140.319 100.786C143.99 97.1152 143.99 91.1634 140.319 87.4922C143.99 91.1634 149.942 91.1634 153.613 87.4922L153.744 87.362C157.415 83.6908 157.415 77.7386 153.744 74.0678C157.415 77.739 163.367 77.739 167.038 74.0678L167.795 73.3108C171.466 69.6396 171.466 63.6874 167.794 60.0166Z" fill="#F0DED0"/>
<path d="M167.794 60.0166L162.21 54.432C165.104 58.1207 164.858 63.4709 161.46 66.8695L160.703 67.6265C157.032 71.2977 151.08 71.2977 147.409 67.6265C151.08 71.2977 151.08 77.2494 147.409 80.9207L147.278 81.0509C143.607 84.7221 137.655 84.7221 133.984 81.0509C137.655 84.7221 137.655 90.6739 133.984 94.3451C130.313 98.0163 124.361 98.0163 120.69 94.3451C124.361 98.0163 124.361 103.968 120.69 107.639L120.676 107.653C117.005 111.324 111.053 111.324 107.382 107.653L91.6699 91.9417L94.163 94.5411L113.716 114.095C117.388 117.766 123.339 117.766 127.011 114.095L127.025 114.081C130.696 110.409 130.696 104.458 127.025 100.786C130.696 104.458 136.648 104.458 140.319 100.786C143.99 97.1152 143.99 91.1634 140.319 87.4922C143.99 91.1634 149.942 91.1634 153.613 87.4922L153.743 87.362C157.414 83.6907 157.414 77.7385 153.743 74.0678C157.414 77.739 163.366 77.739 167.037 74.0678L167.794 73.3108C171.466 69.6396 171.466 63.6874 167.794 60.0166Z" fill="#E4CEBC"/>
<path d="M140.319 90.8572C139.458 90.8572 138.596 90.5284 137.939 89.8716L119.645 71.5777C118.331 70.2633 118.331 68.133 119.645 66.8181C120.959 65.5045 123.089 65.5045 124.404 66.8181L142.699 85.1119C144.013 86.4264 144.013 88.5567 142.699 89.8716C142.041 90.5284 141.179 90.8572 140.319 90.8572Z" fill="#E4CEBC"/>
<path d="M127.024 104.151C126.163 104.151 125.301 103.823 124.644 103.166L110.54 89.0619C109.226 87.7475 109.226 85.6172 110.54 84.3023C111.855 82.9887 113.985 82.9887 115.3 84.3023L129.404 98.4062C130.718 99.7206 130.718 101.851 129.404 103.166C128.747 103.823 127.885 104.151 127.024 104.151Z" fill="#E4CEBC"/>
<path d="M194.348 15.8282H170.286C168.735 15.8282 167.223 15.3439 165.96 14.4427L153.955 1.3859C152.693 0.484755 151.181 0.000427246 149.63 0.000427246H110.563C108.767 0.000427246 107.032 0.649392 105.677 1.82798L88.9483 16.3783C85.7597 19.1519 85.5036 24.0156 88.3839 27.1084C90.9179 29.8293 95.0665 30.2731 98.1188 28.1503L107.747 21.4528C109.624 20.1475 111.907 19.5608 114.18 19.7995L129.149 21.3718L184.12 29.4883L194.348 49.3535L204.865 24.6772L194.348 15.8282Z" fill="#E0BFA6"/>
<path d="M153.743 77.4328C152.882 77.4328 152.02 77.104 151.363 76.4472L131.235 56.3188C129.921 55.0044 129.921 52.8741 131.235 51.5592C132.549 50.2456 134.679 50.2456 135.994 51.5592L156.123 71.6875C157.437 73.002 157.437 75.1323 156.123 76.4472C155.465 77.104 154.603 77.4328 153.743 77.4328Z" fill="#E4CEBC"/>
<path d="M57.7126 92.4174C54.3223 89.8938 53.6198 85.1002 56.1433 81.7099L66.3717 67.968C68.8952 64.5777 73.6889 63.8751 77.0792 66.3987C80.4695 68.9222 81.172 73.7159 78.6484 77.1062L68.4201 90.8481C65.8965 94.238 61.1024 94.9405 57.7126 92.4174Z" fill="#E0BFA6"/>
<path opacity="0.1" d="M77.0786 66.3987C76.0381 65.6238 74.8647 65.1561 73.6657 64.974C74.9388 67.4827 74.7833 70.5982 72.9893 73.0085L62.7609 86.7505C61.0122 89.0998 58.1733 90.1556 55.4668 89.7444C55.9847 90.7649 56.7325 91.6874 57.7125 92.4169C61.1028 94.9405 65.8964 94.238 68.42 90.8477L78.6483 77.1057C81.1715 73.7159 80.4689 68.9222 77.0786 66.3987Z" fill="black"/>
<path d="M69.9841 101.552C66.5938 99.0281 65.8912 94.2345 68.4148 90.8442L78.6432 77.1022C81.1667 73.7119 85.9604 73.0094 89.3507 75.533C92.741 78.0565 93.4435 82.8501 90.9199 86.2404L80.6916 99.9824C78.168 103.372 73.3744 104.075 69.9841 101.552Z" fill="#E0BFA6"/>
<path opacity="0.1" d="M89.3509 75.533C88.3291 74.7726 87.1792 74.31 86.0028 74.121C87.3086 76.6397 87.1649 79.7853 85.3573 82.2139L75.129 95.9558C73.3663 98.3243 70.4961 99.3757 67.7695 98.9371C68.2865 99.9341 69.0235 100.836 69.9847 101.551C73.375 104.074 78.1686 103.372 80.6922 99.9816L90.9206 86.2396C93.4437 82.8502 92.7407 78.0561 89.3509 75.533Z" fill="black"/>
<path d="M82.2585 110.687C78.8682 108.163 78.1657 103.37 80.6892 99.9793L88.6297 89.3115C91.1532 85.9212 95.9469 85.2186 99.3371 87.7422C102.727 90.2657 103.43 95.0594 100.906 98.4497L92.966 109.118C90.4424 112.508 85.6483 113.21 82.2585 110.687Z" fill="#E0BFA6"/>
<path opacity="0.1" d="M99.3363 87.7422C98.3432 87.0031 97.2287 86.5483 96.0871 86.3493C97.2648 88.8267 97.071 91.8551 95.3192 94.2088L87.3788 104.877C85.5948 107.273 82.6762 108.319 79.9209 107.839C80.4396 108.93 81.2219 109.915 82.258 110.686C85.6483 113.209 90.442 112.507 92.9655 109.117L100.906 98.4492C103.429 95.0594 102.727 90.2657 99.3363 87.7422Z" fill="black"/>
<path d="M94.3796 120.049C90.9893 117.526 90.2867 112.732 92.8103 109.342L98.8021 101.292C101.326 97.9013 106.119 97.1988 109.51 99.7224C112.9 102.246 113.602 107.04 111.079 110.43L105.087 118.48C102.564 121.87 97.7699 122.573 94.3796 120.049Z" fill="#E0BFA6"/>
<path opacity="0.1" d="M109.509 99.7228C108.542 99.0029 107.46 98.5542 106.35 98.3474C107.645 100.863 107.498 103.999 105.695 106.423L99.7029 114.473C97.8993 116.896 94.9371 117.937 92.1553 117.418C92.6723 118.422 93.4127 119.33 94.3796 120.05C97.7699 122.573 102.564 121.871 105.087 118.481L111.079 110.431C113.602 107.04 112.899 102.246 109.509 99.7228Z" fill="black"/>
<path d="M218.469 107.68H198.879C196.376 107.68 194.348 105.651 194.348 103.149V9.01799C194.348 6.51534 196.376 4.487 198.879 4.487H218.469C220.972 4.487 223 6.51577 223 9.01799V103.149C223 105.651 220.971 107.68 218.469 107.68Z" fill="#333399"/>
<path d="M24.1219 98.7062H4.53099C2.02878 98.7062 0 96.6775 0 94.1752V4.53099C0 2.02834 2.02878 0 4.53099 0H24.1215C26.6241 0 28.6524 2.02878 28.6524 4.53099V94.1752C28.6529 96.6775 26.6241 98.7062 24.1219 98.7062Z" fill="#333399"/>
</svg>
