<svg width="598" height="154" viewBox="0 0 598 154" fill="none" xmlns="http://www.w3.org/2000/svg">
<path d="M157.7 0.5C157.7 0.5 17.8999 0.5 12.5999 0.5C7.29994 0.5 0.199951 1.8 0.199951 12.5C0.199951 24.9 0.199951 116.5 0.199951 116.5H31.8999V89.3H51.5999L64.9999 76.7L51.7999 64.1H31.8999V29.6H134.9L157.7 0.5Z" fill="#8D9091"/>
<path d="M154.6 116.5H113.8L97.5999 97.2L81.2998 116.5H40.5999L76.8998 76.7L40.5999 36.9H81.2998L97.5999 57.1L113.8 36.9H154.6L118.2 76.7L154.6 116.5Z" fill="#BDBFBE"/>
<path d="M146.3 29.6L167.8 0.499999C183.9 0.499999 190.7 -1.60001 190.7 9.79999C190.7 16 191.1 116.5 191.1 116.5H165.8V29.4L146.3 29.6Z" fill="#115F9B"/>
<path d="M179.1 153.7H12.2999C5.59993 153.7 0.199951 148.3 0.199951 141.6V124.4H191.1V141.6C191.1 148.3 185.7 153.7 179.1 153.7Z" fill="#BEBFC0"/>
<path d="M387.3 20.4V133" stroke="#9B9B9C" stroke-width="2" stroke-miterlimit="10"/>
<path d="M288.4 57.7H260.1V73.9H284.7V80.1H260.1V103.8H253.2V51.6H288.4V57.7V57.7Z" fill="black"/>
<path d="M353.3 103.7H344.8L329.3 81.6L313.8 103.7H305.3L325.4 76.2L307.3 51.5H315.7L329.2 70.8L342.8 51.5H351.2L333.1 76.2L353.3 103.7Z" fill="black"/>
<path d="M447.1 50.6C454.4 50.6 460.4 53.1 465.1 58C469.8 62.9 472.1 69.5 472.1 77.6C472.1 85.7 469.8 92.3 465.1 97.2C460.4 102.1 454.5 104.6 447.1 104.6C439.8 104.6 433.7 102.1 429.1 97.2C424.4 92.2 422.1 85.7 422.1 77.6C422.1 69.5 424.4 62.9 429.1 58C433.8 53.1 439.8 50.6 447.1 50.6ZM447.1 98.7C452.3 98.7 456.6 96.8 459.9 93.1C463.2 89.4 464.9 84.2 464.9 77.6C464.9 71 463.2 65.8 459.9 62.1C456.6 58.4 452.3 56.5 447.2 56.5C441.9 56.5 437.6 58.4 434.3 62.1C430.9 65.8 429.3 71 429.3 77.6C429.3 84.2 431 89.4 434.3 93.1C437.6 96.8 441.9 98.7 447.1 98.7Z" fill="black"/>
<path d="M534 103.7H526.9L499.5 62.5V103.7H493V51.5H500.1L527.5 92.7V51.5H534.1V103.7H534Z" fill="black"/>
<path d="M597.7 103.7H558.8V51.5H596.5V57.7H565.7V73.7H594.5V79.9H565.7V97.6H597.7V103.7V103.7Z" fill="black"/>
</svg>
