<svg width="370" height="276" viewBox="0 0 370 276" fill="none" xmlns="http://www.w3.org/2000/svg">
<path d="M349.293 259.125C349.293 271.55 344.844 275.997 332.423 275.997H16.8707C4.44868 275.997 0 271.55 0 259.125V58.5477C0 46.1269 4.44868 39.8031 16.8707 39.8031H332.423C344.844 39.8031 349.293 46.1269 349.293 58.5477V259.125Z" fill="#242424"/>
<path d="M338.917 251.202C338.917 262.658 334.734 266.756 323.057 266.756H26.4289C14.7508 266.756 10.5688 262.658 10.5688 251.202V66.2952C10.5688 54.8427 14.7508 49.0137 26.4289 49.0137H323.057C334.734 49.0137 338.917 54.8427 338.917 66.2952V251.202Z" fill="#4C4A58"/>
<path d="M334.581 248.6C334.581 259.734 330.511 263.72 319.138 263.72H30.3483C18.978 263.72 14.9072 259.734 14.9072 248.6V68.8495C14.9072 57.7153 18.978 52.05 30.3483 52.05H319.138C330.511 52.05 334.581 57.7153 334.581 68.8495V248.6Z" fill="#E5E4FF"/>
<path d="M18.9717 261.117C36.4438 258.856 53.9039 253.524 70.6594 249.821C93.1815 244.84 116.143 239.716 137.248 230.948C173.784 215.772 208.577 196.833 238.507 172.677C278.867 140.101 307.732 100.797 332.846 59.2029C330.735 54.4629 326.445 52.05 319.054 52.05H30.344C18.9768 52.05 14.9072 57.7226 14.9072 68.871V248.852C14.9072 254.858 16.106 258.77 18.9717 261.117Z" fill="#EEEDFE"/>
<path d="M370 58.2967C370 90.4938 343.9 116.596 311.703 116.596C279.506 116.596 253.404 90.4938 253.404 58.2967C253.404 26.0999 279.506 0 311.703 0C343.9 0 370 26.0999 370 58.2967Z" fill="#333399"/>
<path d="M361.948 58.2968C361.948 86.0489 339.454 108.544 311.704 108.544C283.953 108.544 261.457 86.0489 261.457 58.2968C261.457 30.5467 283.953 8.05219 311.704 8.05219C339.454 8.05219 361.948 30.5467 361.948 58.2968Z" fill="#E5E4FF"/>
<path d="M232.339 127.106C233.499 132.656 238.139 136.588 243.938 136.588C250.433 136.588 255.768 131.269 255.768 124.794C255.768 118.319 250.433 113 243.938 113C238.139 113 233.267 117.162 232.339 122.481H216.102C215.406 122.481 214.942 122.712 214.478 123.175L205.431 132.194C196.617 124.562 185.482 120.4 173.884 120.4C162.286 120.4 151.151 124.562 142.337 132.194L133.29 123.175C132.826 122.712 132.362 122.481 131.666 122.481H115.429C114.269 116.931 109.629 113 103.83 113C97.3352 113 92 118.319 92 124.794C92 131.269 97.3352 136.588 103.83 136.588C109.629 136.588 114.501 132.425 115.429 127.106H130.738L139.089 135.431C130.97 143.756 126.563 154.625 125.867 166.187H115.429C114.269 160.637 109.397 156.706 103.83 156.706C97.3352 156.706 92 162.025 92 168.5C92 174.975 97.3352 180.294 103.83 180.294C109.629 180.294 114.501 176.131 115.429 170.812H125.867C126.331 181.681 130.506 191.856 137.697 199.95L127.723 209.894H115.429C114.269 204.344 109.629 200.413 103.83 200.413C97.3352 200.413 92 205.731 92 212.206C92 218.681 97.3352 224 103.83 224C109.629 224 114.501 219.838 115.429 214.519H128.651C129.347 214.519 129.81 214.288 130.274 213.825L140.713 203.188C149.76 211.744 161.358 216.369 173.884 216.369C186.41 216.369 198.008 211.744 207.055 203.188L217.726 213.825C218.19 214.288 218.653 214.519 219.349 214.519H232.571C233.731 220.069 238.371 224 244.17 224C250.665 224 256 218.681 256 212.206C256 205.731 250.665 200.413 244.17 200.413C238.371 200.413 233.499 204.575 232.571 209.894H220.277L210.303 199.95C217.494 191.856 221.437 181.681 222.133 170.812H232.571C233.731 176.362 238.371 180.294 244.17 180.294C250.665 180.294 256 174.975 256 168.5C256 162.025 250.665 156.706 244.17 156.706C238.371 156.706 233.499 160.869 232.571 166.187H222.133C221.669 154.625 217.03 143.988 208.911 135.431L217.262 127.106H232.339ZM199.864 168.963L194.065 170.119C193.137 170.35 192.441 171.044 192.209 171.737C191.745 173.819 191.05 175.438 189.89 177.288C189.426 177.981 189.426 179.138 189.89 179.831L193.137 184.688L190.354 187.694L185.482 184.456C184.786 183.994 183.627 183.994 182.931 184.456C181.307 185.381 179.451 186.306 177.364 186.769C176.436 187 175.74 187.694 175.74 188.619L174.58 194.4H170.405L169.245 188.619C169.013 187.694 168.317 187 167.621 186.769C165.533 186.306 163.678 185.613 162.054 184.456C161.358 183.994 160.198 183.994 159.502 184.456L154.399 187.694L151.383 184.688L154.631 179.831C155.095 179.138 155.095 178.213 154.631 177.288C153.471 175.438 152.775 173.587 152.311 171.737C152.079 170.812 151.383 170.119 150.455 170.119L144.656 168.963V164.8L150.455 163.644C151.383 163.412 152.079 162.719 152.311 162.025C152.775 160.175 153.471 158.325 154.631 156.475C155.095 155.781 155.095 154.856 154.631 153.931L151.383 149.075L154.399 146.069L159.27 149.306C159.966 149.769 161.126 149.769 161.822 149.306C163.446 148.381 165.301 147.456 167.389 146.994C168.317 146.763 169.013 146.069 169.013 145.144L170.173 139.362H174.348L175.508 145.144C175.74 146.069 176.436 146.763 177.132 146.994C178.987 147.456 180.843 148.15 182.699 149.306C183.395 149.769 184.554 149.769 185.25 149.306L190.122 146.069L193.137 149.075L189.89 153.931C189.426 154.625 189.426 155.55 189.89 156.475C190.818 158.094 191.745 159.944 192.209 162.025C192.441 162.95 193.137 163.644 194.065 163.644L199.864 164.8V168.963Z" fill="#242424"/>
<path d="M104 137C110.627 137 116 131.627 116 125C116 118.373 110.627 113 104 113C97.3726 113 92 118.373 92 125C92 131.627 97.3726 137 104 137Z" fill="#333399"/>
<path d="M104 180C110.627 180 116 174.627 116 168C116 161.373 110.627 156 104 156C97.3726 156 92 161.373 92 168C92 174.627 97.3726 180 104 180Z" fill="#333399"/>
<path d="M104 224C110.627 224 116 218.627 116 212C116 205.373 110.627 200 104 200C97.3726 200 92 205.373 92 212C92 218.627 97.3726 224 104 224Z" fill="#333399"/>
<path d="M244 224C250.627 224 256 218.627 256 212C256 205.373 250.627 200 244 200C237.373 200 232 205.373 232 212C232 218.627 237.373 224 244 224Z" fill="#333399"/>
<path d="M244 180C250.627 180 256 174.627 256 168C256 161.373 250.627 156 244 156C237.373 156 232 161.373 232 168C232 174.627 237.373 180 244 180Z" fill="#333399"/>
<path d="M244 137C250.627 137 256 131.627 256 125C256 118.373 250.627 113 244 113C237.373 113 232 118.373 232 125C232 131.627 237.373 137 244 137Z" fill="#333399"/>
<path fill-rule="evenodd" clip-rule="evenodd" d="M341.261 77.9595C337.074 78.9285 329.189 79.3381 315.545 79.0109C298.859 78.6107 288.131 78.9325 283.548 78.0957C283.435 78.0985 283.322 78.0999 283.208 78.0999C275.913 78.0999 270 72.1865 270 64.8918C270 57.5971 275.913 51.6836 283.208 51.6836C283.361 51.6836 283.512 51.6862 283.664 51.6913C283.664 51.6888 283.664 51.6862 283.664 51.6836C283.664 44.6405 289.373 38.9309 296.416 38.9309C298.203 38.9309 299.904 39.2984 301.448 39.9619C304.284 32.9482 311.159 28 319.189 28C329.754 28 338.318 36.5644 338.318 47.1291C338.318 47.7551 338.288 48.3741 338.229 48.9846C338.56 48.9623 338.893 48.9509 339.229 48.9509C347.278 48.9509 353.804 55.4761 353.804 63.5254C353.804 70.8853 348.348 76.971 341.261 77.9595Z" fill="#242424"/>
<path d="M304.792 60.3H298.942L297.826 63H294.838L300.454 50.4H303.334L308.968 63H305.908L304.792 60.3ZM303.874 58.086L301.876 53.262L299.878 58.086H303.874ZM315.729 50.4C316.845 50.4 317.811 50.586 318.627 50.958C319.455 51.33 320.091 51.858 320.535 52.542C320.979 53.226 321.201 54.036 321.201 54.972C321.201 55.896 320.979 56.706 320.535 57.402C320.091 58.086 319.455 58.614 318.627 58.986C317.811 59.346 316.845 59.526 315.729 59.526H313.191V63H310.275V50.4H315.729ZM315.567 57.15C316.443 57.15 317.109 56.964 317.565 56.592C318.021 56.208 318.249 55.668 318.249 54.972C318.249 54.264 318.021 53.724 317.565 53.352C317.109 52.968 316.443 52.776 315.567 52.776H313.191V57.15H315.567ZM323.283 50.4H326.199V63H323.283V50.4Z" fill="#E5E4FF"/>
</svg>
