<svg width="150" height="150" viewBox="0 0 150 150" fill="none" xmlns="http://www.w3.org/2000/svg">
<path d="M135.195 108.483C142.826 103.831 147.935 95.4245 147.935 85.867C147.935 76.3757 142.927 68.0371 135.399 63.3684V12.8391C135.399 10.1665 133.234 8 130.561 8H4.8209C2.16651 8 0 10.1665 0 12.8391V95.0524C0 97.7249 2.16651 99.8914 4.8209 99.8914H58.0244L44.1521 113.762C41.1422 116.774 42.156 119.228 46.4195 119.228H88.9824C93.2277 119.228 94.2597 116.775 91.2316 113.762L77.3593 99.8914H99.1302C103.799 107.334 112.088 112.29 121.51 112.29C121.748 112.29 121.983 112.29 122.204 112.274L128.902 135.126C129.766 138.088 132.473 140 135.4 140C136.025 140 136.669 139.914 137.296 139.729C140.883 138.664 142.947 134.908 141.896 131.321L135.195 108.483ZM95.0883 85.8687C95.0883 87.3406 95.2074 88.7959 95.4439 90.2149L9.65833 90.3853V17.8485L125.724 17.6765V59.7647C124.353 59.5447 122.949 59.4257 121.511 59.4257C106.93 59.4257 95.0883 71.2852 95.0883 85.8687ZM129.157 102.124C127.516 102.903 125.74 103.427 123.88 103.68C123.101 103.783 122.307 103.833 121.511 103.833C117.283 103.833 113.375 102.361 110.313 99.8914C107.269 97.4884 105.053 94.1047 104.072 90.2133C103.734 88.8274 103.548 87.372 103.548 85.867C103.548 75.9523 111.6 67.8833 121.513 67.8833C122.968 67.8833 124.373 68.0537 125.725 68.3927C129.599 69.3238 132.964 71.5052 135.402 74.4837C137.957 77.5962 139.479 81.5538 139.479 85.8687C139.479 90.8583 137.431 95.3748 134.133 98.6411C132.693 100.06 131.019 101.244 129.157 102.124Z" fill="#242424"/>
<path d="M32.7952 77.9814C30.5113 77.9814 28.6606 76.1308 28.6606 73.8468V56.4817C28.6606 54.1977 30.5113 52.3471 32.7952 52.3471C35.0791 52.3471 36.9298 54.1977 36.9298 56.4817V73.8468C36.9298 76.1308 35.0791 77.9814 32.7952 77.9814Z" fill="#7575CD"/>
<path d="M43.8216 77.9814C41.5376 77.9814 39.687 76.1308 39.687 73.8469V49.0395C39.687 46.7556 41.5376 44.9049 43.8216 44.9049C46.1055 44.9049 47.9561 46.7556 47.9561 49.0395V73.8469C47.9561 76.1308 46.1055 77.9814 43.8216 77.9814Z" fill="#7575CD"/>
<path d="M88.0613 77.9814C85.7774 77.9814 83.9268 76.1308 83.9268 73.8469V65.5777C83.9268 63.2938 85.7774 61.4432 88.0613 61.4432C90.3452 61.4432 92.1959 63.2938 92.1959 65.5777V73.8469C92.1959 76.1308 90.3452 77.9814 88.0613 77.9814Z" fill="#FFCD6B"/>
<path d="M54.846 77.9814C52.5621 77.9814 50.7114 76.1308 50.7114 73.8469V32.5013C50.7114 30.2173 52.5621 28.3667 54.846 28.3667C57.1299 28.3667 58.9806 30.2173 58.9806 32.5013V73.8469C58.9806 76.1308 57.1299 77.9814 54.846 77.9814Z" fill="#7575CD"/>
<path d="M65.8719 77.9814C63.5879 77.9814 61.7373 76.1308 61.7373 73.8469V49.0395C61.7373 46.7556 63.5879 44.9049 65.8719 44.9049C68.1558 44.9049 70.0064 46.7556 70.0064 49.0395V73.8469C70.0064 76.1308 68.1558 77.9814 65.8719 77.9814Z" fill="#FFCD6B"/>
<path d="M76.8977 77.9818C74.6138 77.9818 72.7632 76.1312 72.7632 73.8472V40.7707C72.7632 38.4868 74.6138 36.6362 76.8977 36.6362C79.1817 36.6362 81.0323 38.4868 81.0323 40.7707V73.8472C81.0323 76.1312 79.1817 77.9818 76.8977 77.9818Z" fill="#FFCD6B"/>
<path d="M103.014 35.6547L103.363 35.8114C104.961 36.5275 106.239 37.8059 106.956 39.4035L107.112 39.7532C107.536 40.6984 108.878 40.6984 109.302 39.7532L109.458 39.4035C110.174 37.8057 111.453 36.5273 113.05 35.8112L113.4 35.6546C114.345 35.2308 114.345 33.889 113.4 33.4653L113.05 33.3086C111.453 32.5927 110.174 31.3141 109.458 29.7163L109.302 29.3667C108.878 28.4214 107.536 28.4214 107.112 29.3667L106.956 29.7163C106.24 31.3139 104.961 32.5925 103.363 33.3084L103.014 33.4651C102.068 33.8891 102.068 35.231 103.014 35.6547Z" fill="#7575CD"/>
<path d="M23.334 35.6547L23.6836 35.8114C25.2812 36.5275 26.5597 37.8059 27.2759 39.4035L27.4327 39.7532C27.8562 40.6984 29.1981 40.6984 29.6219 39.7532L29.7785 39.4035C30.4945 37.8057 31.7731 36.5273 33.3708 35.8112L33.7204 35.6546C34.6657 35.2308 34.6657 33.889 33.7204 33.4653L33.3708 33.3086C31.7731 32.5927 30.4945 31.3141 29.7785 29.7163L29.6219 29.3667C29.1983 28.4214 27.8562 28.4214 27.4327 29.3667L27.2759 29.7163C26.5599 31.3139 25.2812 32.5925 23.6836 33.3084L23.334 33.4651C22.3887 33.8891 22.3887 35.231 23.334 35.6547Z" fill="#7575CD"/>
<circle cx="122" cy="86" r="27" fill="#4C4A58"/>
<ellipse cx="121.5" cy="86" rx="21.5" ry="22" fill="white"/>
<path d="M121.759 110.619L134.632 106.784L141.986 131.472C143.045 135.027 141.022 138.767 137.467 139.826C133.912 140.885 130.172 138.862 129.113 135.307L121.759 110.619Z" fill="#4C4A58"/>
<path d="M135.443 94.5542C135.137 94.5542 134.83 94.4715 134.552 94.2995C133.758 93.8067 133.515 92.7631 134.008 91.9709C135.032 90.3221 135.572 88.4218 135.572 86.4703C135.572 82.5474 133.404 78.9933 129.916 77.194C129.086 76.7656 128.76 75.7452 129.189 74.915C129.617 74.0848 130.636 73.7606 131.468 74.189C136.087 76.5705 138.956 81.2773 138.956 86.4719C138.956 89.0552 138.238 91.574 136.881 93.7587C136.561 94.2714 136.009 94.5542 135.443 94.5542Z" fill="#C0C0C0"/>
<path d="M108.414 92.0816L108.618 92.173C109.549 92.5907 110.295 93.3365 110.713 94.2684L110.804 94.4723C111.052 95.0237 111.834 95.0237 112.082 94.4723L112.173 94.2684C112.591 93.3364 113.336 92.5906 114.268 92.1729L114.472 92.0815C115.024 91.8343 115.024 91.0516 114.472 90.8044L114.268 90.713C113.336 90.2954 112.591 89.5495 112.173 88.6175L112.082 88.4136C111.834 87.8621 111.052 87.8621 110.804 88.4136L110.713 88.6175C110.295 89.5494 109.549 90.2953 108.618 90.7129L108.414 90.8043C107.862 91.0517 107.862 91.8344 108.414 92.0816Z" fill="#7575CD"/>
</svg>
