<svg width="150" height="150" viewBox="0 0 150 150" fill="none" xmlns="http://www.w3.org/2000/svg">
<path d="M83.2562 44.6054L127.834 23.082L129.865 27.2375C131.255 30.1144 135.317 30.0079 136.6 27.131L141.945 14.771C142.801 12.7465 141.732 10.4024 139.487 9.76308L126.445 6.14033C123.344 5.28792 120.779 8.48446 122.169 11.2548L124.2 15.4103L79.8353 36.9337C77.9111 37.8927 76.8421 40.0237 77.3766 42.0482C78.1249 44.4989 81.0112 45.6709 83.2562 44.6054Z" fill="#242424"/>
<path d="M145.08 50.917H120.909C119.171 50.917 117.749 52.3388 117.749 54.0766V140.177C117.749 141.915 119.171 143.336 120.909 143.336H145.08C146.818 143.336 148.24 141.915 148.24 140.177V54.2346C148.24 52.4968 146.818 50.917 145.08 50.917Z" fill="#333399"/>
<path d="M106.058 67.663H81.8867C80.1489 67.663 78.7271 69.0848 78.7271 70.8226V140.177C78.7271 141.915 80.1489 143.336 81.8867 143.336H106.058C107.796 143.336 109.218 141.915 109.218 140.177V70.9806C109.376 69.0848 107.796 67.663 106.058 67.663Z" fill="#333399"/>
<path d="M67.1942 84.409H43.0229C41.2851 84.409 39.8633 85.8308 39.8633 87.5686V140.177C39.8633 141.914 41.2851 143.336 43.0229 143.336H67.1942C68.932 143.336 70.3538 141.914 70.3538 140.177V87.5686C70.3538 85.8308 68.932 84.409 67.1942 84.409Z" fill="#333399"/>
<path d="M28.1729 101.155H4.15964C2.42184 101.155 1 102.577 1 104.315V140.335C1 142.072 2.42184 143.494 4.15964 143.494H28.3309C30.0687 143.494 31.4905 142.072 31.4905 140.335V104.315C31.4905 102.577 30.0687 101.155 28.1729 101.155Z" fill="#333399"/>
<path d="M51.2393 104.664C51.2393 103.193 52.432 102 53.9033 102H56.5752C58.0465 102 59.2393 103.193 59.2393 104.664V124.336C59.2393 125.807 58.0465 127 56.5752 127H53.9033C52.432 127 51.2393 125.807 51.2393 124.336V104.664Z" fill="white"/>
<path d="M90 94.6641C90 93.1927 91.1927 92 92.6641 92H95.3359C96.8073 92 98 93.1927 98 94.6641V116.336C98 117.807 96.8073 119 95.3359 119H92.6641C91.1927 119 90 117.807 90 116.336V94.6641Z" fill="white"/>
<path d="M129.239 84.6641C129.239 83.1927 130.432 82 131.903 82H134.575C136.047 82 137.239 83.1927 137.239 84.6641V110.336C137.239 111.807 136.047 113 134.575 113H131.903C130.432 113 129.239 111.807 129.239 110.336V84.6641Z" fill="white"/>
<path d="M13.2393 115.664C13.2393 114.193 14.432 113 15.9033 113H16.5752C18.0465 113 19.2393 114.193 19.2393 115.664V130.336C19.2393 131.807 18.0465 133 16.5752 133H15.9033C14.432 133 13.2393 131.807 13.2393 130.336V115.664Z" fill="white"/>
<path d="M54.2393 93C54.2393 92.4477 54.687 92 55.2393 92C55.7915 92 56.2393 92.4477 56.2393 93V106C56.2393 106.552 55.7915 107 55.2393 107C54.687 107 54.2393 106.552 54.2393 106V93Z" fill="white"/>
<path d="M93 82C93 81.4477 93.4477 81 94 81C94.5523 81 95 81.4477 95 82V96C95 96.5523 94.5523 97 94 97C93.4477 97 93 96.5523 93 96V82Z" fill="white"/>
<path d="M132.239 71C132.239 70.4477 132.687 70 133.239 70C133.792 70 134.239 70.4477 134.239 71V87C134.239 87.5523 133.792 88 133.239 88C132.687 88 132.239 87.5523 132.239 87V71Z" fill="white"/>
<path d="M15.2393 107C15.2393 106.448 15.687 106 16.2393 106C16.7915 106 17.2393 106.448 17.2393 107V116C17.2393 116.552 16.7915 117 16.2393 117C15.687 117 15.2393 116.552 15.2393 116V107Z" fill="white"/>
<path d="M54.2393 124C54.2393 123.448 54.687 123 55.2393 123C55.7915 123 56.2393 123.448 56.2393 124V135C56.2393 135.552 55.7915 136 55.2393 136C54.687 136 54.2393 135.552 54.2393 135V124Z" fill="white"/>
<path d="M93 116C93 115.448 93.4477 115 94 115C94.5523 115 95 115.448 95 116V128C95 128.552 94.5523 129 94 129C93.4477 129 93 128.552 93 128V116Z" fill="white"/>
<path d="M132.239 109C132.239 108.448 132.687 108 133.239 108C133.792 108 134.239 108.448 134.239 109V123C134.239 123.552 133.792 124 133.239 124C132.687 124 132.239 123.552 132.239 123V109Z" fill="white"/>
<path d="M15.2393 130C15.2393 129.448 15.687 129 16.2393 129C16.7915 129 17.2393 129.448 17.2393 130V138C17.2393 138.552 16.7915 139 16.2393 139C15.687 139 15.2393 138.552 15.2393 138V130Z" fill="white"/>
<path d="M40.138 41.8116C39.1476 41.1017 37.4639 40.4195 35.1089 39.776V54.6505C38.3334 54.4965 40.5557 53.3192 41.7885 51.113C42.4266 49.98 42.7456 48.6708 42.7456 47.18C42.7456 44.8319 41.8816 43.0387 40.138 41.8116Z" fill="#FFCD6B"/>
<path d="M27.1099 22.9319C26.0532 24.3453 25.5312 25.8259 25.5312 27.3711C25.5312 29.2361 26.1472 30.6937 27.3966 31.7502C28.6562 32.8012 30.3234 33.5434 32.4257 33.9564V20.6658C29.9435 20.77 28.1721 21.5131 27.1099 22.9319Z" fill="#FFCD6B"/>
<path d="M33.7393 6C15.7806 6 1.23926 20.55 1.23926 38.5C1.23926 56.45 15.7917 71 33.7393 71C51.6868 71 66.2393 56.45 66.2393 38.5C66.2393 20.55 51.6979 6 33.7393 6ZM42.939 56.4943C41.1344 57.6605 38.5268 58.4359 35.1095 58.8102V64.2948H32.4244V58.8102C26.9499 58.4525 23.2191 56.5109 21.2606 52.9845C20.1873 51.0752 19.6599 48.5067 19.6599 45.2661H24.6502C24.7987 47.8512 25.2173 49.7328 25.883 50.9212C27.0661 53.05 29.2339 54.2439 32.4253 54.5075V39.1002C28.3432 38.3248 25.3169 37.0369 23.3694 35.2216C21.422 33.4118 20.4482 30.9033 20.4482 27.7014C20.4482 24.8351 21.4994 22.2555 23.5953 19.9562C25.7023 17.6569 28.6466 16.4907 32.4262 16.452V12.6895H35.1113V16.392C38.8744 16.6557 41.7412 17.7565 43.7384 19.7036C45.7523 21.6507 46.809 24.2202 46.8966 27.4165H41.956C41.8242 25.9866 41.4387 24.754 40.7951 23.714C39.601 21.8102 37.7089 20.809 35.1113 20.7214V34.4905C39.4913 35.7121 42.4512 36.8617 44.0187 37.9339C46.5665 39.705 47.8316 42.3297 47.8316 45.7953C47.8463 50.8115 46.2068 54.3766 42.939 56.4943Z" fill="#FFCD6B"/>
</svg>
