<svg width="150" height="150" viewBox="0 0 150 150" fill="none" xmlns="http://www.w3.org/2000/svg">
<rect y="11" width="150" height="101.087" rx="6" fill="#242424"/>
<rect x="9.78271" y="21.8696" width="130.435" height="81.5217" fill="white"/>
<path d="M73.6067 104.744C74.3827 103.991 75.6172 103.991 76.3932 104.744L102.526 130.119C103.815 131.371 102.929 133.554 101.133 133.554H48.8667C47.0707 133.554 46.1849 131.371 47.4734 130.119L73.6067 104.744Z" fill="#242424"/>
<path d="M63.5132 58.9926C63.4332 59.1526 63.3532 59.2326 63.1932 59.2326L58.7944 59.7124C58.0746 59.7924 57.5947 60.3523 57.5947 61.0721V64.8311C57.5947 65.5509 58.1546 66.1107 58.7944 66.1907L63.1133 66.6706C63.2732 66.6706 63.4332 66.8305 63.4332 66.9105C63.5931 67.3904 63.8331 67.8703 63.993 68.3501C64.073 68.5101 64.073 68.6701 63.9131 68.75L61.1938 72.1092C60.7139 72.669 60.7939 73.4688 61.2738 73.9487L63.9131 76.588C64.3929 77.0678 65.1927 77.1478 65.7526 76.6679L69.1117 73.9487C69.2716 73.8687 69.4316 73.8687 69.5116 73.8687C69.9914 74.1086 70.4713 74.2686 70.9512 74.4285C71.1112 74.5085 71.1911 74.5885 71.1911 74.7485L71.671 79.0673C71.751 79.7871 72.3108 80.267 73.0306 80.267H76.7897C77.5095 80.267 78.0693 79.7071 78.1493 79.0673L78.6292 74.7485C78.6292 74.5885 78.7891 74.4285 78.8691 74.4285C79.349 74.2686 79.8288 74.0286 80.3087 73.8687C80.4687 73.7887 80.6286 73.7887 80.7086 73.9487L84.0677 76.6679C84.6276 77.1478 85.4274 77.0678 85.9072 76.588L88.5465 73.9487C89.0264 73.4688 89.1064 72.669 88.6265 72.1092L85.9072 68.75C85.8273 68.5901 85.8273 68.4301 85.8273 68.3501C86.0672 67.8703 86.2272 67.3904 86.3871 66.9105C86.4671 66.7506 86.5471 66.6706 86.707 66.6706L91.0259 66.1907C91.7457 66.1107 92.2256 65.5509 92.2256 64.8311V61.0721C92.2256 60.3523 91.6657 59.7924 91.0259 59.7124L86.707 59.2326C86.5471 59.2326 86.3871 59.0726 86.3871 58.9926C86.2272 58.5127 85.9872 58.0329 85.8273 57.553C85.7473 57.393 85.7473 57.2331 85.9072 57.1531L88.6265 53.794C89.1064 53.2341 89.0264 52.4344 88.5465 51.9545L85.9072 49.3152C85.4274 48.8353 84.6276 48.7553 84.0677 49.2352L80.7086 51.9545C80.5487 52.0345 80.3887 52.0345 80.3087 52.0345C79.8288 51.7945 79.349 51.6346 78.8691 51.4746C78.7091 51.3946 78.6292 51.3147 78.6292 51.1547L78.2293 46.6759C78.1493 45.9561 77.5894 45.4762 76.8696 45.4762H73.1106C72.3908 45.4762 71.831 46.036 71.751 46.6759L71.2711 50.9947C71.2711 51.1547 71.1112 51.3147 71.0312 51.3147C70.5513 51.4746 70.0714 51.7145 69.5916 51.8745C69.4316 51.9545 69.2716 51.9545 69.1917 51.7945L65.8325 49.0752C65.2727 48.5954 64.4729 48.6753 63.993 49.1552L61.3537 51.7945C60.8739 52.2744 60.7939 53.0742 61.2738 53.634L63.993 56.9931C64.073 57.1531 64.073 57.3131 64.073 57.393C63.8331 58.0329 63.6731 58.5127 63.5132 58.9926ZM75.0301 56.1134C78.7891 56.1134 81.8283 59.1526 81.8283 62.9116C81.8283 66.6706 78.7891 69.7098 75.0301 69.7098C71.2711 69.7098 68.2319 66.6706 68.2319 62.9116C68.2319 59.1526 71.2711 56.1134 75.0301 56.1134Z" fill="#7575CD"/>
<path d="M112.762 59.8321C111.962 59.0323 110.682 59.0323 109.883 59.8321L107.802 62V61.5C107.802 43.9047 93.007 29 75.4117 29C65.2544 29 55.3002 33.7622 49.3018 42C48.6619 42.8798 49.0987 45.276 50.0584 45.9958C50.9382 46.6356 53.0819 45.9597 53.8018 45C59.0004 37.8019 66.614 34 75.4117 34C90.7676 34 102.802 45.6441 102.802 61V62L100.605 59.8321C99.8052 59.0323 98.5256 59.0323 97.7258 59.8321C96.926 60.6319 96.926 61.9116 97.7258 62.7114L103.804 68.7897C104.204 69.1896 104.684 69.3496 105.244 69.3496C105.804 69.3496 106.284 69.1896 106.683 68.7897L112.762 62.7114C113.482 61.9116 113.482 60.6319 112.762 59.8321Z" fill="#FFCD6B"/>
<path d="M38.5399 65.5175C39.3397 66.3173 40.6194 66.3173 41.4192 65.5175L43.5 63.3496V63.8496C43.5 81.445 58.2947 96.3496 75.8901 96.3496C86.0474 96.3496 96.0016 91.5874 102 83.3496C102.64 82.4698 102.203 80.0737 101.243 79.3538C100.364 78.714 98.2198 79.3899 97.5 80.3496C92.3014 87.5477 84.6877 91.3496 75.8901 91.3496C60.5341 91.3496 48.5 79.7056 48.5 64.3496V63.3496L50.6967 65.5175C51.4965 66.3173 52.7762 66.3173 53.576 65.5175C54.3758 64.7177 54.3758 63.438 53.576 62.6383L47.4976 56.5599C47.0977 56.16 46.6178 56 46.0579 56C45.4981 56 45.0182 56.16 44.6183 56.5599L38.5399 62.6383C37.8201 63.438 37.8201 64.7177 38.5399 65.5175Z" fill="#FFCD6B"/>
<path d="M26.7207 40.113L27.0762 40.2722C28.7003 41.0002 29.9999 42.2998 30.7279 43.9239L30.8874 44.2793C31.3179 45.2402 32.6821 45.2402 33.1128 44.2793L33.2721 43.9239C33.9999 42.2996 35.2997 41 36.9238 40.272L37.2793 40.1128C38.2402 39.682 38.2402 38.3179 37.2793 37.8872L36.9238 37.728C35.2997 37.0001 33.9999 35.7004 33.2721 34.0761L33.1128 33.7207C32.6822 32.7598 31.3179 32.7598 30.8874 33.7207L30.7279 34.0761C30.0001 35.7002 28.7003 37 27.0762 37.7278L26.7207 37.887C25.7598 38.3181 25.7598 39.6822 26.7207 40.113Z" fill="#7575CD"/>
<path d="M115.42 37.1492L115.628 37.2421C116.575 37.6668 117.333 38.4249 117.758 39.3723L117.851 39.5796C118.102 40.1401 118.898 40.1401 119.149 39.5796L119.242 39.3723C119.667 38.4248 120.425 37.6667 121.372 37.242L121.58 37.1491C122.14 36.8979 122.14 36.1021 121.58 35.8509L121.372 35.758C120.425 35.3334 119.667 34.5752 119.242 33.6277L119.149 33.4204C118.898 32.8599 118.102 32.8599 117.851 33.4204L117.758 33.6277C117.333 34.5751 116.575 35.3333 115.628 35.7579L115.42 35.8508C114.86 36.1022 114.86 36.898 115.42 37.1492Z" fill="#7575CD"/>
<path d="M26.4204 93.1492L26.6278 93.2421C27.5752 93.6668 28.3333 94.4249 28.758 95.3723L28.851 95.5796C29.1021 96.1401 29.8979 96.1401 30.1491 95.5796L30.242 95.3723C30.6666 94.4248 31.4248 93.6667 32.3722 93.242L32.5796 93.1491C33.1401 92.8979 33.1401 92.1021 32.5796 91.8509L32.3722 91.758C31.4248 91.3334 30.6666 90.5752 30.242 89.6277L30.1491 89.4204C29.898 88.8599 29.1021 88.8599 28.851 89.4204L28.758 89.6277C28.3334 90.5751 27.5752 91.3333 26.6278 91.7579L26.4204 91.8508C25.8599 92.1022 25.8599 92.898 26.4204 93.1492Z" fill="#7575CD"/>
</svg>
