<svg width="150" height="150" viewBox="0 0 150 150" fill="none" xmlns="http://www.w3.org/2000/svg">
<g clip-path="url(#clip0)">
<rect y="33" width="143.213" height="96.5132" rx="6" fill="#242424"/>
<rect x="9.33984" y="43.3778" width="124.533" height="77.8332" fill="white"/>
<path d="M70.2132 122.564C70.9892 121.81 72.2237 121.81 72.9997 122.564L97.7275 146.574C99.016 147.826 98.1302 150.009 96.3342 150.009H46.8788C45.0827 150.009 44.197 147.826 45.4855 146.574L70.2132 122.564Z" fill="#242424"/>
<path d="M60.2485 78.3084L51.9042 70.054C50.8598 69.0244 49.2986 68.7185 47.9376 69.2728C46.5803 69.8308 45.6923 71.1447 45.6923 72.5991V92.7078L40.987 88.0532C39.5642 86.6457 37.2643 86.6457 35.8414 88.0532L29 94.8209C29.9243 97.1573 31.2417 99.2956 32.8829 101.16L38.4142 95.6885L46.7586 103.943C47.7993 104.973 49.3641 105.286 50.7251 104.724C52.0825 104.17 52.9704 102.852 52.9704 101.398V81.2891L57.6757 85.9437C59.0986 87.3513 61.3985 87.3513 62.8213 85.9437L86.4752 62.5447L93 68.9992V51H74.8047L81.3296 57.4545L60.2485 78.3084Z" fill="#333399"/>
<rect x="81" y="19" width="63" height="70" fill="white"/>
<path d="M85.3637 0H139.997C142.713 0 145.319 1.07751 147.24 2.9955C149.161 4.91349 150.24 7.51484 150.24 10.2273V98.8637C150.24 101.576 149.161 104.177 147.24 106.095C145.319 108.013 142.713 109.091 139.997 109.091H85.3637C82.6469 109.091 80.0414 108.013 78.1203 106.095C76.1993 104.177 75.12 101.576 75.12 98.8637V10.2273C75.12 7.51484 76.1993 4.91349 78.1203 2.9955C80.0414 1.07751 82.6469 0 85.3637 0ZM143.411 88.6364V20.0796H81.9491V88.6364H143.411Z" fill="#4C4A58"/>
<path d="M109.48 99.742L109.717 99.8481C110.8 100.333 111.667 101.2 112.152 102.283L112.258 102.52C112.545 103.16 113.455 103.16 113.742 102.52L113.848 102.283C114.333 101.2 115.2 100.333 116.283 99.848L116.52 99.7419C117.16 99.4547 117.16 98.5453 116.52 98.2581L116.283 98.152C115.2 97.6668 114.333 96.8002 113.848 95.7174L113.742 95.4805C113.455 94.8398 112.545 94.8398 112.258 95.4805L112.152 95.7174C111.667 96.8001 110.8 97.6666 109.717 98.1519L109.48 98.258C108.84 98.5454 108.84 99.4548 109.48 99.742Z" fill="#C0C0C0"/>
<path d="M61.4805 109.742L61.7174 109.848C62.8002 110.333 63.6666 111.2 64.1519 112.283L64.2582 112.52C64.5453 113.16 65.4547 113.16 65.7419 112.52L65.8481 112.283C66.3333 111.2 67.1998 110.333 68.2826 109.848L68.5195 109.742C69.1602 109.455 69.1602 108.545 68.5195 108.258L68.2826 108.152C67.1998 107.667 66.3333 106.8 65.8481 105.717L65.7419 105.48C65.4548 104.84 64.5453 104.84 64.2582 105.48L64.1519 105.717C63.6667 106.8 62.8002 107.667 61.7174 108.152L61.4805 108.258C60.8398 108.545 60.8398 109.455 61.4805 109.742Z" fill="#333399"/>
<path d="M23.7207 66.113L24.0762 66.2722C25.7003 67.0002 26.9999 68.2998 27.7279 69.9239L27.8874 70.2793C28.3179 71.2402 29.6821 71.2402 30.1128 70.2793L30.2721 69.9239C30.9999 68.2996 32.2997 67 33.9238 66.272L34.2793 66.1128C35.2402 65.682 35.2402 64.3179 34.2793 63.8872L33.9238 63.728C32.2997 63.0001 30.9999 61.7004 30.2721 60.0761L30.1128 59.7207C29.6822 58.7598 28.3179 58.7598 27.8874 59.7207L27.7279 60.0761C27.0001 61.7002 25.7003 63 24.0762 63.7278L23.7207 63.887C22.7598 64.3181 22.7598 65.6822 23.7207 66.113Z" fill="#333399"/>
<path d="M102.521 67.3475C102.279 67.1737 101.867 67.0067 101.291 66.8492V70.4899C102.08 70.4522 102.624 70.1641 102.925 69.6241C103.082 69.3468 103.16 69.0263 103.16 68.6615C103.16 68.0867 102.948 67.6478 102.521 67.3475Z" fill="#FFCD6B"/>
<path d="M99.3327 62.7266C99.074 63.0725 98.9463 63.4349 98.9463 63.8131C98.9463 64.2696 99.0971 64.6264 99.4029 64.885C99.7112 65.1422 100.119 65.3238 100.634 65.4249V62.1719C100.026 62.1974 99.5927 62.3793 99.3327 62.7266Z" fill="#FFCD6B"/>
<path d="M100.955 58.582C96.5596 58.582 93.0005 62.1433 93.0005 66.5367C93.0005 70.9302 96.5623 74.4914 100.955 74.4914C105.348 74.4914 108.91 70.9302 108.91 66.5367C108.91 62.1433 105.351 58.582 100.955 58.582ZM103.207 70.941C102.765 71.2265 102.127 71.4162 101.291 71.5079V72.8503H100.633V71.5079C99.2934 71.4203 98.3803 70.9451 97.9009 70.082C97.6382 69.6146 97.5091 68.986 97.5091 68.1928H98.7306C98.7669 68.8255 98.8694 69.2861 99.0323 69.5769C99.3219 70.098 99.8525 70.3902 100.634 70.4547V66.6836C99.6344 66.4939 98.8937 66.1786 98.4171 65.7343C97.9404 65.2914 97.7021 64.6774 97.7021 63.8937C97.7021 63.1921 97.9594 62.5607 98.4724 61.998C98.9881 61.4352 99.7087 61.1497 100.634 61.1403V60.2194H101.291V61.1256C102.212 61.1901 102.914 61.4596 103.403 61.9361C103.895 62.4127 104.154 63.0416 104.176 63.8239H102.966C102.934 63.4739 102.84 63.1723 102.682 62.9177C102.39 62.4517 101.927 62.2067 101.291 62.1852V65.5554C102.363 65.8544 103.088 66.1357 103.471 66.3982C104.095 66.8317 104.404 67.4741 104.404 68.3223C104.408 69.5501 104.007 70.4227 103.207 70.941Z" fill="#FFCD6B"/>
<path fill-rule="evenodd" clip-rule="evenodd" d="M116.635 37.4266C116.289 37.31 115.939 37.2041 115.585 37.1092C115.768 37.4577 115.945 37.8263 116.114 38.2123C116.275 37.9413 116.449 37.6791 116.635 37.4266ZM124.137 52.273C125.744 52.273 127.256 51.8663 128.575 51.1503C128.792 52.2498 128.91 53.3836 128.91 54.5459C128.91 56.2451 128.657 57.9924 128.214 59.5515H118.845C119.022 57.8609 119.116 56.0882 119.116 54.5459C119.116 53.3222 119.057 52.0221 118.944 50.6928C120.428 51.6907 122.215 52.273 124.137 52.273ZM110.955 36.482C109.584 36.482 107.788 40.8269 106.796 46.3845H115.114C114.122 40.8269 112.326 36.482 110.955 36.482ZM103.065 49.649H93.696C93.2529 51.2082 93 52.8467 93 54.5459C93 56.2451 93.2529 57.9924 93.696 59.5515H96.9239C98.1439 58.9652 99.5113 58.6367 100.955 58.6367C101.657 58.6367 102.341 58.7142 102.998 58.8612C102.864 57.3852 102.794 55.8795 102.794 54.5459C102.794 53.0035 102.888 51.3396 103.065 49.649ZM110.955 72.6097C110.528 72.6097 110.061 72.1998 109.589 71.4676C110.031 70.3836 110.274 69.1977 110.274 67.955C110.274 66.0558 109.706 64.2892 108.73 62.8161H115.114C114.122 68.3736 112.326 72.6097 110.955 72.6097ZM115.579 49.649H106.33C106.158 51.2448 106.058 52.8953 106.058 54.5459C106.058 56.1964 106.158 57.9557 106.33 59.5515H115.579C115.752 57.9557 115.852 56.1964 115.852 54.5459C115.852 52.8953 115.752 51.2448 115.579 49.649ZM118.393 62.8161C117.806 66.2542 116.863 69.5526 115.585 71.9825C120.53 70.6591 124.635 67.2837 126.928 62.8161H118.393ZM103.517 46.3845H94.982C97.2744 41.9168 101.379 38.4327 106.325 37.1092C105.046 39.5391 104.104 42.9463 103.517 46.3845Z" fill="#333399"/>
<path d="M124.046 35C119.651 35 116.092 38.5612 116.092 42.9547C116.092 47.3481 119.654 50.9094 124.046 50.9094C128.439 50.9094 132.001 47.3468 132.001 42.9547C132.001 38.5612 128.439 35 124.046 35ZM127.186 47.1638C126.481 48.0727 125.529 48.5263 124.332 48.5263C123.3 48.5263 122.436 48.1546 121.73 47.4089C121.069 46.7073 120.641 45.7298 120.456 44.4763H118.641L118.943 43.4543H120.355C120.344 43.2577 120.339 43.0558 120.339 42.8484C120.339 42.6706 120.344 42.493 120.355 42.3152H118.642L118.945 41.2919H120.471C120.637 40.4141 120.942 39.6532 121.387 39.0096C122.139 37.9231 123.172 37.3804 124.495 37.3804C125.621 37.3804 126.489 37.7331 127.112 38.4401C127.737 39.1457 128.08 39.9481 128.15 40.8462H126.974C126.843 40.165 126.58 39.6236 126.18 39.2251C125.783 38.8266 125.226 38.6274 124.51 38.6274C123.632 38.6274 122.921 38.9949 122.385 39.7301C122.086 40.134 121.874 40.6551 121.742 41.2934H125.761L125.458 42.3168H121.597C121.579 42.5618 121.574 42.8218 121.574 43.0951C121.574 43.2189 121.577 43.3401 121.579 43.4559H125.759L125.456 44.4779H121.687C121.803 45.1079 122.008 45.6533 122.301 46.1138C122.783 46.8813 123.509 47.2665 124.475 47.2665C125.364 47.2665 126.042 46.8612 126.508 46.0493C126.756 45.6212 126.934 45.0596 127.055 44.3634H128.231C128.123 45.4752 127.777 46.4097 127.186 47.1638Z" fill="#FFCD6B"/>
</g>
<defs>
<clipPath id="clip0">
<rect width="150" height="150" fill="white"/>
</clipPath>
</defs>
</svg>
