<svg width="370" height="276" viewBox="0 0 370 276" fill="none" xmlns="http://www.w3.org/2000/svg">
<path d="M349.293 259.125C349.293 271.55 344.844 275.997 332.423 275.997H16.8707C4.44868 275.997 0 271.55 0 259.125V58.5477C0 46.1269 4.44868 39.8031 16.8707 39.8031H332.423C344.844 39.8031 349.293 46.1269 349.293 58.5477V259.125Z" fill="#242424"/>
<path d="M338.917 251.202C338.917 262.658 334.734 266.756 323.057 266.756H26.4289C14.7508 266.756 10.5688 262.658 10.5688 251.202V66.2952C10.5688 54.8427 14.7508 49.0137 26.4289 49.0137H323.057C334.734 49.0137 338.917 54.8427 338.917 66.2952V251.202Z" fill="#4C4A58"/>
<path d="M334.581 248.6C334.581 259.734 330.511 263.72 319.138 263.72H30.3483C18.978 263.72 14.9072 259.734 14.9072 248.6V68.8495C14.9072 57.7153 18.978 52.05 30.3483 52.05H319.138C330.511 52.05 334.581 57.7153 334.581 68.8495V248.6Z" fill="#E5E4FF"/>
<path d="M18.9717 261.117C36.4438 258.856 53.9039 253.524 70.6594 249.821C93.1815 244.841 116.143 239.716 137.248 230.948C173.784 215.772 208.577 196.833 238.507 172.677C278.867 140.101 307.732 100.797 332.846 59.2029C330.735 54.4629 326.445 52.05 319.054 52.05H30.344C18.9768 52.05 14.9072 57.7226 14.9072 68.871V248.852C14.9072 254.858 16.106 258.77 18.9717 261.117Z" fill="#EEEDFE"/>
<path d="M370 58.2967C370 90.4938 343.9 116.596 311.703 116.596C279.506 116.596 253.404 90.4938 253.404 58.2967C253.404 26.0999 279.506 0 311.703 0C343.9 0 370 26.0999 370 58.2967Z" fill="#333399"/>
<path d="M361.948 58.2968C361.948 86.0489 339.454 108.544 311.704 108.544C283.953 108.544 261.457 86.0489 261.457 58.2968C261.457 30.5467 283.953 8.05219 311.704 8.05219C339.454 8.05219 361.948 30.5467 361.948 58.2968Z" fill="#E5E4FF"/>
<path d="M279.677 65.5964C278.86 65.6006 278.069 65.3081 277.452 64.7731C276.834 64.2381 276.432 63.4969 276.319 62.6873C275.094 53.5685 277.426 44.3279 282.832 36.8843C288.352 29.293 296.606 24.1476 305.85 22.5365C315.094 20.9254 324.601 22.975 332.362 28.2518L333.881 26.1501C333.996 25.99 334.152 25.864 334.333 25.7856C334.513 25.7071 334.712 25.679 334.907 25.7044C335.102 25.7298 335.287 25.8076 335.442 25.9296C335.596 26.0516 335.715 26.2132 335.785 26.3973L339.798 36.8189C339.857 36.9867 339.875 37.1665 339.849 37.3427C339.823 37.5188 339.754 37.6859 339.649 37.8293C339.543 37.9728 339.404 38.0883 339.244 38.1657C339.084 38.2431 338.907 38.2801 338.729 38.2734L327.586 37.728C327.39 37.7183 327.2 37.6558 327.036 37.5469C326.872 37.4381 326.741 37.287 326.656 37.1096C326.571 36.9323 326.536 36.7353 326.554 36.5394C326.572 36.3436 326.642 36.1562 326.758 35.9971L328.262 33.9753C322.02 29.7738 314.392 28.1568 306.983 29.4642C299.574 30.7716 292.96 34.9015 288.531 40.9861C287.717 42.1265 286.989 43.3248 286.35 44.5714H295.436C295.552 44.5703 295.667 44.5998 295.768 44.6571C295.869 44.7144 295.954 44.7973 296.013 44.8976C296.072 44.998 296.103 45.1121 296.104 45.2284C296.105 45.3448 296.075 45.4593 296.017 45.5605C295.348 46.7562 295.181 48.1686 295.552 49.4877C295.785 50.1268 296.157 50.7062 296.641 51.1842C297.125 51.6621 297.709 52.0265 298.351 52.2512C299.506 52.6788 300.74 52.8521 301.968 52.7592C303.196 52.6664 304.389 52.3095 305.467 51.7131L312.3 47.8877C312.396 47.8331 312.509 47.8141 312.618 47.8341C312.726 47.854 312.825 47.9116 312.896 47.9968L327.179 65.4509L328.945 67.5818C329.219 67.8985 329.422 68.2707 329.539 68.6729C329.655 69.075 329.684 69.4977 329.623 69.9121C329.561 70.3264 329.411 70.7225 329.183 71.0734C328.954 71.4244 328.653 71.7217 328.299 71.9453C327.736 72.2787 327.08 72.4161 326.431 72.3358C325.782 72.2555 325.179 71.9621 324.715 71.5017L324.475 71.2689C324.465 71.2621 324.453 71.2583 324.441 71.2579C324.429 71.2574 324.417 71.2604 324.406 71.2665C324.396 71.2725 324.387 71.2814 324.381 71.2921C324.375 71.3028 324.373 71.315 324.373 71.3271C324.48 71.8899 324.418 72.4717 324.196 72.9996C323.974 73.5274 323.6 73.9778 323.123 74.2943C322.552 74.6511 321.876 74.8036 321.207 74.727C320.538 74.6504 319.914 74.3492 319.438 73.8725L319.22 73.6616C319.21 73.6548 319.198 73.651 319.186 73.6505C319.173 73.6501 319.161 73.6531 319.151 73.6591C319.14 73.6652 319.132 73.6741 319.126 73.6848C319.12 73.6955 319.117 73.7076 319.118 73.7198C319.225 74.2826 319.163 74.8644 318.941 75.3923C318.718 75.9201 318.345 76.3705 317.868 76.687C317.298 77.0437 316.625 77.1976 315.958 77.1237C315.29 77.0498 314.667 76.7524 314.19 76.2797L313.972 76.0688C313.961 76.062 313.95 76.0582 313.937 76.0578C313.925 76.0573 313.913 76.0603 313.903 76.0663C313.892 76.0724 313.883 76.0813 313.878 76.092C313.872 76.1027 313.869 76.1148 313.87 76.127C313.97 76.6914 313.902 77.273 313.673 77.7986C313.444 78.3242 313.065 78.7704 312.584 79.0812C312.102 79.392 311.539 79.5535 310.966 79.5455C310.394 79.5375 309.836 79.3602 309.363 79.036L309.639 78.5488C310.228 77.5602 310.475 76.4055 310.344 75.2624C310.213 74.1192 309.71 73.0509 308.912 72.2216C308.154 71.4739 307.18 70.983 306.128 70.818C305.478 69.703 304.424 68.8804 303.185 68.5199C302.946 67.684 302.495 66.9241 301.876 66.3137C301.257 65.7034 300.491 65.2634 299.652 65.0364C299.337 63.8901 298.627 62.8927 297.646 62.2219C296.554 61.5456 295.255 61.2865 293.987 61.4923C292.72 61.6981 291.569 62.3549 290.748 63.3419L288.901 65.6036H279.677V65.5964ZM296.068 64.2728C295.542 63.9796 294.929 63.8837 294.339 64.0024C293.749 64.121 293.22 64.4464 292.848 64.92L290.929 67.2763C290.724 67.5269 290.571 67.8159 290.479 68.1265C290.388 68.4371 290.359 68.7629 290.395 69.0847C290.431 69.4066 290.53 69.718 290.688 70.0007C290.846 70.2834 291.059 70.5316 291.315 70.7308L291.605 70.9635C291.987 71.2635 292.451 71.4419 292.936 71.4757C293.42 71.5094 293.904 71.3968 294.324 71.1526C294.343 71.1407 294.366 71.1348 294.388 71.1355C294.411 71.1363 294.433 71.1437 294.452 71.1569C294.47 71.17 294.485 71.1883 294.493 71.2096C294.501 71.2308 294.503 71.254 294.498 71.2762C294.412 71.717 294.449 72.173 294.606 72.594C294.762 73.0149 295.032 73.3844 295.385 73.6616L295.625 73.8507C295.992 74.1398 296.435 74.3175 296.9 74.3626C297.365 74.4077 297.833 74.3184 298.249 74.1052C298.269 74.0944 298.292 74.0892 298.314 74.0904C298.337 74.0915 298.359 74.0988 298.378 74.1116C298.396 74.1244 298.411 74.1421 298.421 74.1628C298.43 74.1834 298.434 74.2063 298.431 74.2289C298.388 74.641 298.45 75.0572 298.611 75.4388C298.773 75.8203 299.028 76.1547 299.354 76.4106L299.521 76.5415C299.893 76.8329 300.341 77.0111 300.811 77.0549C301.282 77.0988 301.755 77.0064 302.174 76.7888C302.194 76.7763 302.217 76.7691 302.24 76.7678C302.263 76.7665 302.287 76.7712 302.308 76.7813C302.329 76.7915 302.347 76.8069 302.36 76.826C302.374 76.8451 302.382 76.8674 302.385 76.8906C302.48 77.5021 302.802 78.0552 303.286 78.4397L303.388 78.5197C303.669 78.7399 303.995 78.897 304.342 78.9802C304.689 79.0634 305.05 79.0707 305.401 79.0017C305.751 78.9327 306.083 78.7889 306.372 78.5803C306.662 78.3716 306.904 78.1029 307.081 77.7924L307.437 77.1597C307.738 76.6592 307.86 76.0707 307.782 75.4916C307.704 74.9124 307.431 74.3771 307.008 73.9743C306.65 73.6483 306.205 73.4345 305.727 73.3595C305.248 73.2845 304.759 73.3517 304.319 73.5525C304.307 73.5576 304.294 73.5596 304.282 73.5583C304.269 73.557 304.257 73.5525 304.247 73.5452C304.237 73.5378 304.228 73.5279 304.223 73.5165C304.218 73.505 304.216 73.4924 304.217 73.4798C304.241 73.0699 304.161 72.6607 303.985 72.2898C303.809 71.9189 303.542 71.5983 303.21 71.3577C302.877 71.1171 302.49 70.9642 302.083 70.9131C301.675 70.862 301.262 70.9143 300.88 71.0653C300.517 71.1308 300.597 70.8108 300.597 70.8108C300.789 70.3429 300.832 69.8268 300.718 69.3337C300.605 68.8407 300.341 68.395 299.964 68.0582C299.587 67.7214 299.114 67.5101 298.612 67.4534C298.109 67.3967 297.601 67.4975 297.159 67.7418C296.882 67.7781 296.919 67.5309 296.919 67.5309C297.225 66.9831 297.308 66.3378 297.149 65.7304C296.991 65.123 296.603 64.6006 296.068 64.2728ZM346.485 47.6404L346.253 46.9132C346.026 46.2388 345.593 45.6527 345.015 45.2378C344.437 44.8228 343.744 44.5999 343.032 44.6005H335.037C333.988 44.5998 332.949 44.4076 331.969 44.0333L316.93 38.2661C315.439 37.6971 313.827 37.518 312.247 37.7458C310.668 37.9736 309.172 38.6007 307.902 39.5679L298.453 46.7459C298.232 46.9465 298.065 47.1988 297.967 47.4801C297.868 47.7614 297.841 48.0628 297.888 48.3572C297.935 48.6516 298.054 48.9296 298.235 49.1663C298.416 49.4031 298.653 49.591 298.925 49.7131C299.762 50.0775 300.672 50.2434 301.583 50.198C302.495 50.1526 303.384 49.8971 304.18 49.4513L312.22 44.9496C312.515 44.7887 312.856 44.7348 313.186 44.7971C313.516 44.8594 313.814 45.0341 314.03 45.2914L331.555 66.6C331.592 66.6454 331.637 66.6832 331.688 66.7112C331.74 66.7391 331.796 66.7566 331.854 66.7627C331.912 66.7687 331.971 66.7633 332.027 66.7466C332.083 66.7299 332.135 66.7023 332.18 66.6654L332.907 66.0618C333.273 65.7649 333.73 65.6031 334.201 65.6036H339.892C338.645 70.1771 336.296 74.3746 333.049 77.8279C329.803 81.2812 325.76 83.8848 321.274 85.4104C316.787 86.936 311.996 87.3369 307.318 86.578C302.641 85.8192 298.222 83.9237 294.447 81.0578L296.054 79.0651C296.178 78.913 296.259 78.7302 296.288 78.5359C296.317 78.3416 296.293 78.1432 296.218 77.9614C296.144 77.7797 296.022 77.6215 295.865 77.5034C295.708 77.3853 295.522 77.3118 295.327 77.2906L284.227 76.1561C284.043 76.1352 283.856 76.1616 283.685 76.2329C283.514 76.3043 283.364 76.4182 283.249 76.5638C283.134 76.7094 283.058 76.882 283.028 77.0651C282.998 77.2483 283.016 77.4361 283.079 77.6106L286.503 88.2358C286.571 88.4175 286.686 88.5776 286.837 88.6997C286.988 88.8218 287.169 88.9014 287.361 88.9303C287.553 88.9592 287.749 88.9364 287.929 88.8642C288.109 88.7919 288.266 88.6729 288.385 88.5194L290.013 86.5049C296.048 91.1601 303.403 93.7797 311.02 93.9867C318.637 94.1937 326.123 91.9774 332.401 87.6568C338.679 83.3362 343.425 77.1341 345.956 69.9432C348.487 62.7523 348.672 54.9434 346.485 47.6404Z" fill="#242424"/>
<path d="M178.848 184.431C178.239 183.995 177.205 183.576 175.758 183.181V192.32C177.739 192.226 179.105 191.502 179.862 190.147C180.254 189.45 180.45 188.646 180.45 187.73C180.45 186.287 179.919 185.185 178.848 184.431Z" fill="#242424"/>
<path d="M170.843 172.831C170.194 173.699 169.873 174.609 169.873 175.558C169.873 176.704 170.252 177.6 171.019 178.249C171.793 178.895 172.818 179.351 174.109 179.605V171.438C172.584 171.502 171.496 171.959 170.843 172.831Z" fill="#242424"/>
<path d="M174.916 162.427C163.882 162.427 154.947 171.367 154.947 182.396C154.947 193.426 163.889 202.366 174.916 202.366C185.944 202.366 194.886 193.426 194.886 182.396C194.886 171.367 185.951 162.427 174.916 162.427ZM180.569 193.453C179.46 194.17 177.858 194.646 175.758 194.876V198.246H174.109V194.876C170.745 194.656 168.452 193.463 167.249 191.296C166.589 190.123 166.265 188.545 166.265 186.554H169.332C169.423 188.142 169.68 189.298 170.089 190.029C170.816 191.337 172.148 192.07 174.109 192.232V182.765C171.601 182.289 169.741 181.497 168.545 180.382C167.348 179.27 166.75 177.729 166.75 175.761C166.75 174 167.396 172.415 168.684 171.002C169.978 169.589 171.787 168.873 174.11 168.849V166.537H175.76V168.812C178.072 168.974 179.833 169.651 181.06 170.847C182.298 172.043 182.947 173.622 183.001 175.586H179.965C179.884 174.708 179.647 173.95 179.252 173.311C178.518 172.141 177.356 171.526 175.76 171.472V179.933C178.451 180.683 180.27 181.39 181.233 182.049C182.798 183.137 183.576 184.75 183.576 186.879C183.585 189.961 182.577 192.152 180.569 193.453Z" fill="#242424"/>
<path d="M229.501 207.358L214.357 186.057C214.024 185.558 213.525 185.392 213.026 185.392H199.047C198.048 185.392 197.383 186.057 197.383 187.056C197.383 188.054 198.048 188.72 199.047 188.72H212.027L224.841 206.693H124.826L137.64 188.72H150.787C151.785 188.72 152.451 188.054 152.451 187.056C152.451 186.057 151.785 185.392 150.787 185.392H136.808C136.309 185.392 135.809 185.725 135.477 186.057L120.333 207.358C120.166 207.525 120 208.024 120 208.357V222.336C120 223.334 120.666 224 121.664 224H228.169C229.168 224 229.833 223.334 229.833 222.336V208.19C229.833 208.024 229.667 207.525 229.501 207.358ZM226.505 220.672H123.328V209.855H226.505V220.672Z" fill="#242424"/>
<path d="M121.664 151.443H136.808L153.283 168.417C153.949 169.083 154.947 169.083 155.613 168.417C156.278 167.752 156.278 166.753 155.613 166.088L141.301 151.443H153.283C154.281 151.443 154.947 150.777 154.947 149.779V144.787C154.947 138.296 149.622 132.971 143.298 132.971H143.132C146.127 131.141 147.958 127.812 147.958 124.318C147.958 118.66 143.298 114.166 137.64 114.166C137.473 114.166 137.307 114.166 137.141 114.166C131.649 114.333 127.322 118.826 127.322 124.318C127.322 127.979 129.319 131.141 132.148 132.971H131.649C125.159 132.971 120 138.296 120 144.787V149.779C120 150.777 120.666 151.443 121.664 151.443ZM137.473 117.495C137.64 117.495 137.64 117.495 137.64 117.495C141.467 117.495 144.629 120.656 144.629 124.484C144.629 126.98 143.132 129.476 140.968 130.641C139.97 131.141 138.971 131.473 137.806 131.473C133.979 131.473 130.817 128.312 130.817 124.65C130.651 120.656 133.646 117.661 137.473 117.495ZM123.328 144.787C123.328 140.127 127.156 136.299 131.649 136.299H143.298C147.958 136.299 151.619 140.127 151.619 144.787V148.115H123.328V144.787Z" fill="#333399"/>
<path d="M159.108 151.443H173.419V158.765C173.419 159.764 174.085 160.43 175.083 160.43C176.082 160.43 176.747 159.764 176.747 158.765V151.443H190.726C191.725 151.443 192.39 150.778 192.39 149.779V144.787C192.39 138.296 187.065 132.971 180.741 132.971H180.575C183.404 131.141 185.401 127.979 185.401 124.318C185.401 118.66 180.741 114 175.083 114C169.425 114 164.766 118.66 164.766 124.318C164.766 127.979 166.763 131.141 169.592 132.971H169.092C162.602 132.971 157.443 138.296 157.443 144.787V149.779C157.443 150.778 158.109 151.443 159.108 151.443ZM175.083 117.495C178.911 117.495 182.073 120.657 182.073 124.484C182.073 128.312 178.911 131.307 175.083 131.307C171.256 131.307 168.094 128.145 168.094 124.484C168.094 120.49 171.256 117.495 175.083 117.495ZM160.772 144.787C160.772 140.127 164.599 136.3 169.092 136.3H180.741C185.401 136.3 189.062 140.127 189.062 144.787V148.115H160.772V144.787Z" fill="#333399"/>
<path d="M196.384 151.443H208.865L195.219 167.752C194.554 168.417 194.72 169.582 195.386 170.082C196.051 170.747 197.216 170.581 197.715 169.915L213.192 151.443H228.169C229.168 151.443 229.833 150.777 229.833 149.779V144.787C229.833 138.296 224.508 132.971 218.184 132.971H218.018C220.847 131.141 222.844 127.979 222.844 124.318C222.678 118.826 218.184 114.166 212.526 114.166C206.868 114.166 202.209 118.826 202.209 124.484C202.209 127.979 204.039 131.307 207.035 133.138H206.535C200.045 133.138 194.886 138.463 194.886 144.953V149.945C194.72 150.777 195.552 151.443 196.384 151.443ZM212.526 117.495C216.354 117.495 219.349 120.656 219.349 124.484C219.349 128.312 216.187 131.307 212.36 131.307C211.195 131.307 210.03 130.974 209.032 130.475C206.868 129.31 205.37 126.98 205.37 124.484C205.537 120.49 208.532 117.495 212.526 117.495ZM198.048 144.787C198.048 140.127 201.876 136.299 206.369 136.299H218.018C222.678 136.299 226.339 140.127 226.339 144.787V148.115H198.048V144.787Z" fill="#333399"/>
<circle cx="138.306" cy="124.151" r="8.32071" fill="#333399"/>
<circle cx="213.192" cy="124.151" r="8.32071" fill="#333399"/>
<circle cx="174.917" cy="124.151" r="8.32071" fill="#333399"/>
<path d="M123.328 139.8C123.328 137.591 125.119 135.8 127.328 135.8H147.619C149.828 135.8 151.619 137.591 151.619 139.8V149.114H123.328V139.8Z" fill="#333399"/>
<path d="M159.939 139.8C159.939 137.591 161.73 135.8 163.939 135.8H185.894C188.103 135.8 189.894 137.591 189.894 139.8V149.114H159.939V139.8Z" fill="#333399"/>
<path d="M198 140C198 137.791 199.791 136 202 136H223C225.209 136 227 137.791 227 140V149H198V140Z" fill="#333399"/>
<rect x="120" y="209.023" width="109.833" height="14.9773" fill="#242424"/>
</svg>
