<svg width="151" height="116" viewBox="0 0 151 116" fill="none" xmlns="http://www.w3.org/2000/svg">
<path d="M108.147 36.7337L108.727 36.9937C111.377 38.1819 113.499 40.3031 114.687 42.9538L114.947 43.5339C115.65 45.1023 117.876 45.1023 118.579 43.5339L118.839 42.9538C120.027 40.3028 122.149 38.1816 124.799 36.9934L125.379 36.7335C126.948 36.0304 126.948 33.804 125.379 33.1009L124.799 32.841C122.149 31.6531 120.027 29.5316 118.839 26.8806L118.579 26.3005C117.876 24.7321 115.65 24.7321 114.947 26.3005L114.687 26.8806C113.499 29.5313 111.377 31.6528 108.727 32.8407L108.147 33.1006C106.578 33.8043 106.578 36.0307 108.147 36.7337Z" fill="#333399"/>
<path d="M53.4407 11.6792L54.0208 11.9392C56.6716 13.1274 58.7928 15.2485 59.981 17.8996L60.2412 18.4797C60.9439 20.0481 63.1704 20.0481 63.8734 18.4797L64.1333 17.8996C65.3212 15.2485 67.4427 13.1274 70.0934 11.9392L70.6736 11.6792C72.242 10.9762 72.242 8.74974 70.6736 8.0467L70.0934 7.78678C67.4427 6.59887 65.3212 4.4774 64.1333 1.82637L63.8734 1.24624C63.1707 -0.322151 60.9442 -0.322151 60.2412 1.24624L59.981 1.82637C58.7931 4.47711 56.6716 6.59858 54.0208 7.78648L53.4407 8.04641C51.8726 8.74974 51.8726 10.9765 53.4407 11.6792Z" fill="#333399"/>
<path d="M11.9483 50.7157L12.5284 50.9757C15.1791 52.1639 17.3003 54.285 18.4885 56.9358L18.7487 57.5159C19.4515 59.0843 21.6782 59.0843 22.381 57.5159L22.6409 56.9358C23.8288 54.285 25.9503 52.1636 28.601 50.9754L29.1811 50.7155C30.7495 50.0124 30.7495 47.786 29.1811 47.0829L28.601 46.823C25.9503 45.6351 23.8288 43.5136 22.6409 40.8626L22.381 40.2825C21.6782 38.7141 19.4515 38.7141 18.7487 40.2825L18.4885 40.8626C17.3006 43.5133 15.1791 45.6348 12.5284 46.8227L11.9483 47.0826C10.3799 47.7863 10.3799 50.0127 11.9483 50.7157Z" fill="#333399"/>
<path d="M99.1904 56.5503L94.7652 42.2243C93.5605 38.3248 89.9556 35.6652 85.8744 35.6652H64.6729C60.5917 35.6652 56.9865 38.3248 55.7822 42.2243L51.3569 56.5503L75.2735 59.1966L99.1904 56.5503Z" fill="#FFCD6B"/>
<path d="M51.3569 56.5503L50.2528 60.1249C49.9446 61.1226 50.6903 62.1335 51.7347 62.1335H98.8128C99.8569 62.1335 100.603 61.1226 100.295 60.1249L99.1907 56.5503H51.3569Z" fill="#FFC147"/>
<path d="M74.0996 83.0185L69.6744 68.6925C68.47 64.793 64.8648 62.1335 60.7836 62.1335H39.5821C35.5009 62.1335 31.8957 64.793 30.6914 68.6925L26.2661 83.0185L50.183 85.6649L74.0996 83.0185Z" fill="#C0C0C0"/>
<path d="M26.2651 83.0186L25.161 86.5931C24.8528 87.5908 25.5985 88.6017 26.6426 88.6017H73.7207C74.7649 88.6017 75.5108 87.5908 75.2027 86.5931L74.0986 83.0186H26.2651Z" fill="#5F5F5F"/>
<path d="M124.281 83.0185L119.856 68.6925C118.652 64.793 115.046 62.1335 110.965 62.1335H89.7638C85.6826 62.1335 82.0774 64.793 80.873 68.6925L76.4478 83.0185L100.365 85.6649L124.281 83.0185Z" fill="#CFCFCF"/>
<path d="M76.4477 83.0186L75.3436 86.5931C75.0354 87.5908 75.7811 88.6017 76.8252 88.6017H123.903C124.947 88.6017 125.693 87.5908 125.385 86.5931L124.281 83.0186H76.4477Z" fill="#6B6B6B"/>
<path d="M49.0078 109.487L44.5826 95.1608C43.3782 91.2613 39.773 88.6017 35.6918 88.6017H14.4903C10.4091 88.6017 6.80393 91.2613 5.59956 95.1608L1.17432 109.487L25.0909 112.133L49.0078 109.487Z" fill="#FFCD6B"/>
<path d="M1.17425 109.487L0.0701472 113.061C-0.238003 114.059 0.507673 115.07 1.55209 115.07H48.6302C49.6743 115.07 50.4203 114.059 50.1119 113.061L49.0078 109.487H1.17425Z" fill="#FFC147"/>
<path d="M99.1904 109.487L94.7652 95.1608C93.5605 91.2613 89.9556 88.6017 85.8744 88.6017H64.6729C60.5917 88.6017 56.9865 91.2613 55.7822 95.1608L51.3569 109.487L75.2735 112.133L99.1904 109.487Z" fill="#C0C0C0"/>
<path d="M51.3569 109.487L50.2528 113.061C49.9446 114.059 50.6903 115.07 51.7347 115.07H98.8128C99.8569 115.07 100.603 114.059 100.295 113.061L99.1907 109.487H51.3569Z" fill="#5F5F5F"/>
<path d="M149.372 109.487L144.947 95.1608C143.742 91.2613 140.137 88.6017 136.056 88.6017H114.855C110.773 88.6017 107.168 91.2613 105.964 95.1608L101.539 109.487L125.455 112.133L149.372 109.487Z" fill="#FFCD6B"/>
<path d="M101.539 109.487L100.434 113.061C100.126 114.059 100.872 115.07 101.916 115.07H148.995C150.039 115.07 150.785 114.059 150.476 113.061L149.372 109.487H101.539Z" fill="#FFC147"/>
</svg>
