<svg width="151" height="149" viewBox="0 0 151 149" fill="none" xmlns="http://www.w3.org/2000/svg">
<path d="M11.6658 139.848C10.6849 139.848 9.70612 139.391 8.97848 138.484C7.57355 136.734 7.63773 133.973 9.1216 132.316L27.8974 111.352C28.5844 110.585 29.4948 110.157 30.4409 110.157H71.5047L100.782 75.6277C102.227 73.9236 104.57 73.9236 106.014 75.6277C107.459 77.3318 107.459 80.0944 106.014 81.7985L75.6533 117.606C74.9594 118.424 74.0183 118.884 73.0372 118.884H31.9146L14.209 138.653C13.4935 139.452 12.5787 139.848 11.6658 139.848Z" fill="#333399"/>
<path d="M75.044 101.788C69.2834 101.788 64.6134 106.458 64.6134 112.219C64.6134 117.979 69.2834 122.649 75.044 122.649C80.8047 122.649 85.4746 117.979 85.4746 112.219C85.4746 106.458 80.8047 101.788 75.044 101.788Z" fill="#242424"/>
<path d="M10.4307 128.134C4.67009 128.134 0.000154495 132.804 0.000154495 138.565C0.000154495 144.325 4.67009 148.995 10.4307 148.995C16.1914 148.995 20.8613 144.325 20.8613 138.565C20.8613 132.804 16.1914 128.134 10.4307 128.134Z" fill="#242424"/>
<path fill-rule="evenodd" clip-rule="evenodd" d="M150.47 41.8787C150.47 65.0077 131.72 83.7574 108.591 83.7574C85.4621 83.7574 66.7124 65.0077 66.7124 41.8787C66.7124 18.7497 85.4621 0 108.591 0C131.72 0 150.47 18.7497 150.47 41.8787ZM118.86 19.8412C123.315 22.1348 126.371 26.7789 126.371 32.1265C126.371 35.7167 124.993 38.9898 122.741 41.4483C124.993 43.9069 126.371 47.1805 126.371 50.7702C126.371 56.1178 123.315 60.7619 118.86 63.0555V67.2197C118.86 69.6986 116.851 71.7081 114.373 71.7081C111.896 71.7081 109.887 69.6986 109.887 67.2197V64.581H107.263V67.2197C107.263 69.6986 105.254 71.7081 102.777 71.7081C100.299 71.7081 98.29 69.6986 98.29 67.2197V64.581H97.0606C94.5827 64.581 92.5741 62.5715 92.5741 60.0926V22.804C92.5741 20.3251 94.5827 18.3156 97.0606 18.3156H98.29V15.6561C98.29 13.1772 100.299 11.1677 102.777 11.1677C105.254 11.1677 107.263 13.1772 107.263 15.6561V18.3156H109.887V15.6561C109.887 13.1772 111.896 11.1677 114.373 11.1677C116.851 11.1677 118.86 13.1772 118.86 15.6561V19.8412ZM112.566 55.6043C115.23 55.6043 117.397 53.4362 117.397 50.7708C117.397 48.1054 115.23 45.9373 112.566 45.9373H101.547V55.6043H112.566ZM101.547 27.293V36.9599H112.566C115.23 36.9599 117.397 34.7918 117.397 32.1265C117.397 29.4611 115.23 27.293 112.566 27.293H101.547Z" fill="#FFCD6B"/>
</svg>
