<svg width="150" height="150" viewBox="0 0 150 150" fill="none" xmlns="http://www.w3.org/2000/svg">
<path d="M42.1242 23.8535L41.4716 22.7764L40.819 23.8988C38.9679 27.0859 36.5393 31.0007 33.7016 35.5989C21.0919 55.9467 0 90.0893 0 108.526C0.0256942 131.419 18.578 149.971 41.4716 149.997C64.098 150.267 82.6575 132.145 82.9278 109.518C82.9319 109.187 82.9319 108.857 82.9278 108.526C82.9278 90.0286 61.5779 55.5068 48.8006 34.8096C46.1294 30.5001 43.854 26.7827 42.1242 23.8535ZM66.1905 108.359C66.1905 107.731 66.7003 107.221 67.3283 107.221C67.9562 107.221 68.466 107.731 68.466 108.359C68.4496 123.262 56.3743 135.338 41.4716 135.354C40.8426 135.354 40.3328 134.845 40.3328 134.217C40.3328 133.588 40.8436 133.078 41.4716 133.078C55.1163 133.061 66.173 122.004 66.1905 108.359Z" fill="#F7B64C"/>
<path d="M66.1905 108.359C66.1905 107.731 66.7003 107.221 67.3283 107.221C67.9562 107.221 68.466 107.731 68.466 108.359C68.4496 123.262 56.3743 135.338 41.4716 135.354C40.8426 135.354 40.3328 134.845 40.3328 134.217C40.3328 133.588 40.8436 133.078 41.4716 133.078C55.1163 133.061 66.173 122.004 66.1905 108.359Z" fill="#F7B64C"/>
<path d="M127.847 7.16151C126.33 4.79455 125.116 2.7462 124.084 1.09252L123.431 0L122.779 1.09252C121.671 2.94354 120.32 5.14399 118.758 7.66306C110.64 20.8031 97.0586 42.7758 97.0586 54.5818C97.1172 69.1104 108.902 80.862 123.431 80.8784C137.836 81.0398 149.643 69.4907 149.804 55.0855C149.806 54.8922 149.806 54.698 149.804 54.5058C149.804 42.6844 136.056 20.4547 127.847 7.16151ZM123.431 72.2287C122.803 72.2287 122.293 71.7189 122.293 71.0909C122.293 70.463 122.803 69.9532 123.431 69.9532C132.018 69.9439 138.976 62.987 138.984 54.3999C138.984 53.7709 139.495 53.2612 140.123 53.2612C140.751 53.2612 141.261 53.772 141.261 54.3999C141.252 64.2429 133.275 72.2205 123.431 72.2287Z" fill="#FFDC8D"/>
<path d="M123.431 72.2287C122.803 72.2287 122.293 71.7189 122.293 71.0909C122.293 70.463 122.803 69.9532 123.431 69.9532C132.018 69.9439 138.976 62.987 138.984 54.3999C138.984 53.7709 139.495 53.2612 140.123 53.2612C140.751 53.2612 141.261 53.772 141.261 54.3999C141.252 64.2429 133.275 72.2205 123.431 72.2287Z" fill="#FFDC8D"/>
<path opacity="0.1" d="M39.5757 134.201C39.5757 135.247 40.4257 136.097 41.4729 136.097C56.7878 136.081 69.2002 123.675 69.2269 108.359C69.2269 107.313 68.3769 106.463 67.3296 106.463C66.2823 106.463 65.4324 107.313 65.4324 108.359C65.4159 121.585 54.6983 132.303 41.4729 132.319C40.4298 132.317 39.5839 133.158 39.5757 134.201Z" fill="black"/>
<path opacity="0.1" d="M140.123 52.5027C139.076 52.5027 138.226 53.3526 138.226 54.3999C138.216 62.5666 131.598 69.1855 123.431 69.1947C122.385 69.1947 121.535 70.0447 121.535 71.0909C121.535 72.1382 122.385 72.9882 123.431 72.9882C133.69 72.9718 142.003 64.6591 142.019 54.3999C142.019 53.3506 141.169 52.5027 140.123 52.5027Z" fill="black"/>
<path d="M75.9133 24.1922L76.3637 24.394C78.4217 25.3165 80.0686 26.9634 80.9911 29.0214L81.1931 29.4718C81.7387 30.6895 83.4673 30.6895 84.0132 29.4718L84.215 29.0214C85.1373 26.9632 86.7844 25.3163 88.8424 24.3938L89.2928 24.192C90.5105 23.6461 90.5105 21.9175 89.2928 21.3717L88.8424 21.1699C86.7844 20.2476 85.1373 18.6005 84.215 16.5422L84.0132 16.0918C83.4676 14.8741 81.7387 14.8741 81.1931 16.0918L80.9911 16.5422C80.0688 18.6003 78.4217 20.2474 76.3637 21.1697L75.9133 21.3715C74.6956 21.9178 74.6956 23.6464 75.9133 24.1922Z" fill="#333399"/>
<path d="M105.377 122.406L105.827 122.608C107.885 123.531 109.532 125.177 110.455 127.236L110.657 127.686C111.202 128.904 112.931 128.904 113.477 127.686L113.679 127.236C114.601 125.177 116.248 123.531 118.306 122.608L118.757 122.406C119.974 121.86 119.974 120.132 118.757 119.586L118.306 119.384C116.248 118.462 114.601 116.815 113.679 114.757L113.477 114.306C112.931 113.088 111.203 113.088 110.657 114.306L110.455 114.757C109.533 116.815 107.885 118.462 105.827 119.384L105.377 119.586C104.16 120.132 104.16 121.861 105.377 122.406Z" fill="#333399"/>
<path d="M22.342 113.924L22.7924 114.126C24.8504 115.049 26.4973 116.696 27.4198 118.754L27.6218 119.204C28.1675 120.422 29.8963 120.422 30.4419 119.204L30.6437 118.754C31.566 116.696 33.2131 115.048 35.2711 114.126L35.7215 113.924C36.9392 113.378 36.9392 111.65 35.7215 111.104L35.2711 110.902C33.2131 109.98 31.566 108.333 30.6437 106.274L30.4419 105.824C29.8963 104.606 28.1675 104.606 27.6218 105.824L27.4198 106.274C26.4975 108.332 24.8504 109.98 22.7924 110.902L22.342 111.104C21.1243 111.65 21.1243 113.379 22.342 113.924Z" fill="#333399"/>
</svg>
