<svg width="151" height="120" viewBox="0 0 151 120" fill="none" xmlns="http://www.w3.org/2000/svg">
<path d="M9.73963 69.3949C15.111 69.3949 19.4793 65.0267 19.4793 59.6553C19.4793 59.3533 19.4159 59.066 19.3892 58.7714L50.422 43.2562C52.18 45.8031 55.1141 47.4807 58.4378 47.4807C61.5617 47.4807 64.3132 45.9784 66.098 43.6847L79.2002 54.9145C78.4064 56.3243 77.917 57.9265 77.917 59.6553C77.917 65.0267 82.2852 69.3949 87.6566 69.3949C93.028 69.3949 97.3963 65.0267 97.3963 59.6553C97.3963 59.234 97.3232 58.8347 97.2721 58.4281L136.167 24.1105C137.645 25.0163 139.367 25.5666 141.225 25.5666C146.596 25.5666 150.964 21.1983 150.964 15.8269C150.964 10.4555 146.596 6.08731 141.225 6.08731C135.853 6.08731 131.485 10.4555 131.485 15.8269C131.485 17.5703 131.982 19.1822 132.785 20.5994L95.2925 53.6824C93.5077 51.4058 90.766 49.9156 87.6566 49.9156C85.7842 49.9156 84.0505 50.4708 82.5652 51.3912L68.0556 38.9537C68.1043 38.5519 68.1774 38.155 68.1774 37.7411C68.1774 32.3697 63.8092 28.0015 58.4378 28.0015C53.0664 28.0015 48.6981 32.3697 48.6981 37.7411C48.6981 38.043 48.7614 38.3303 48.7882 38.625L17.7553 54.1426C15.9973 51.5933 13.0633 49.9156 9.73963 49.9156C4.36822 49.9156 0 54.2838 0 59.6553C0 65.0267 4.36822 69.3949 9.73963 69.3949ZM141.225 10.9571C143.91 10.9571 146.094 13.1412 146.094 15.8269C146.094 18.5126 143.91 20.6967 141.225 20.6967C138.539 20.6967 136.355 18.5126 136.355 15.8269C136.355 13.1412 138.539 10.9571 141.225 10.9571ZM92.5264 59.6553C92.5264 62.341 90.3423 64.5251 87.6566 64.5251C84.9709 64.5251 82.7868 62.341 82.7868 59.6553C82.7868 56.9696 84.9709 54.7854 87.6566 54.7854C90.3423 54.7854 92.5264 56.9696 92.5264 59.6553ZM58.4378 32.8713C61.1235 32.8713 63.3076 35.0554 63.3076 37.7411C63.3076 40.4268 61.1235 42.6109 58.4378 42.6109C55.7521 42.6109 53.5679 40.4268 53.5679 37.7411C53.5679 35.0554 55.7521 32.8713 58.4378 32.8713ZM9.73963 54.7854C12.4253 54.7854 14.6094 56.9696 14.6094 59.6553C14.6094 62.341 12.4253 64.5251 9.73963 64.5251C7.05392 64.5251 4.86981 62.341 4.86981 59.6553C4.86981 56.9696 7.05392 54.7854 9.73963 54.7854Z" fill="#FFCD6B"/>
<path d="M0 116.571C0 115.226 1.09014 114.136 2.43491 114.136H148.529C149.874 114.136 150.964 115.226 150.964 116.571C150.964 117.916 149.874 119.006 148.529 119.006H2.4349C1.09014 119.006 0 117.916 0 116.571Z" fill="#333399"/>
<path d="M34.0889 48.9273C34.0889 47.456 35.2816 46.2632 36.7529 46.2632H41.1644C42.6357 46.2632 43.8285 47.456 43.8285 48.9273V77.6878C43.8285 79.1592 42.6357 80.3519 41.1644 80.3519H36.7529C35.2816 80.3519 34.0889 79.1592 34.0889 77.6878V48.9273Z" fill="#7575CD"/>
<path d="M82.7876 68.4066C82.7876 66.9352 83.9803 65.7425 85.4517 65.7425H89.8631C91.3345 65.7425 92.5272 66.9352 92.5272 68.4066V97.1671C92.5272 98.6384 91.3345 99.8312 89.8631 99.8312H85.4517C83.9803 99.8312 82.7876 98.6384 82.7876 97.1671V68.4066Z" fill="#7575CD"/>
<path d="M107.137 14.8386C107.137 13.3673 108.33 12.1746 109.801 12.1746H114.213C115.684 12.1746 116.877 13.3673 116.877 14.8386V43.5992C116.877 45.0705 115.684 46.2633 114.213 46.2633H109.801C108.33 46.2633 107.137 45.0705 107.137 43.5992V14.8386Z" fill="#7575CD"/>
<path d="M9.74023 24.5783C9.74023 23.1069 10.933 21.9142 12.4043 21.9142H16.8158C18.2871 21.9142 19.4799 23.1069 19.4799 24.5783V53.3388C19.4799 54.8101 18.2871 56.0029 16.8158 56.0029H12.4043C10.933 56.0029 9.74023 54.8101 9.74023 53.3388V24.5783Z" fill="#333399"/>
<path d="M58.4375 14.8386C58.4375 13.3673 59.6302 12.1746 61.1016 12.1746H65.5131C66.9844 12.1746 68.1771 13.3673 68.1771 14.8386V43.5992C68.1771 45.0705 66.9844 46.2633 65.5131 46.2633H61.1016C59.6302 46.2633 58.4375 45.0705 58.4375 43.5992V14.8386Z" fill="#333399"/>
<path d="M131.486 24.5783C131.486 23.1069 132.679 21.9142 134.15 21.9142H138.561C140.033 21.9142 141.225 23.1069 141.225 24.5783V53.3388C141.225 54.8101 140.033 56.0029 138.561 56.0029H134.15C132.679 56.0029 131.486 54.8101 131.486 53.3388V24.5783Z" fill="#333399"/>
<path d="M13.3921 10.957C13.3921 10.2846 13.9372 9.73956 14.6095 9.73956C15.2819 9.73956 15.827 10.2846 15.827 10.957V31.9581C15.827 32.6305 15.2819 33.1755 14.6095 33.1755C13.9372 33.1755 13.3921 32.6305 13.3921 31.9581V10.957Z" fill="#333399"/>
<path d="M13.3921 42.9153C13.3921 42.2429 13.9372 41.6978 14.6095 41.6978C15.2819 41.6978 15.827 42.2429 15.827 42.9153V66.96C15.827 67.6324 15.2819 68.1775 14.6095 68.1775C13.9372 68.1775 13.3921 67.6324 13.3921 66.96V42.9153Z" fill="#333399"/>
<path d="M37.7407 35.3062C37.7407 34.6338 38.2858 34.0887 38.9582 34.0887C39.6306 34.0887 40.1756 34.6338 40.1756 35.3062V55.6985C40.1756 56.3709 39.6306 56.916 38.9582 56.916C38.2858 56.916 37.7407 56.3709 37.7407 55.6985V35.3062Z" fill="#7575CD"/>
<path d="M37.7407 74.2647C37.7407 73.5923 38.2858 73.0472 38.9582 73.0472C39.6306 73.0472 40.1756 73.5923 40.1756 74.2647V91.309C40.1756 91.9814 39.6306 92.5265 38.9582 92.5265C38.2858 92.5265 37.7407 91.9814 37.7407 91.309V74.2647Z" fill="#7575CD"/>
<path d="M62.0894 1.21745C62.0894 0.545073 62.6344 0 63.3068 0C63.9792 0 64.5243 0.545072 64.5243 1.21745V24.9578C64.5243 25.6302 63.9792 26.1752 63.3068 26.1752C62.6344 26.1752 62.0894 25.6302 62.0894 24.9578V1.21745Z" fill="#333399"/>
<path d="M62.0894 35.3062C62.0894 34.6338 62.6344 34.0887 63.3068 34.0887C63.9792 34.0887 64.5243 34.6338 64.5243 35.3062V57.2204C64.5243 57.8927 63.9792 58.4378 63.3068 58.4378C62.6344 58.4378 62.0894 57.8927 62.0894 57.2204V35.3062Z" fill="#333399"/>
<path d="M86.4395 54.7855C86.4395 54.1131 86.9845 53.568 87.6569 53.568C88.3293 53.568 88.8744 54.1131 88.8744 54.7855V71.8298C88.8744 72.5022 88.3293 73.0473 87.6569 73.0473C86.9845 73.0473 86.4395 72.5022 86.4395 71.8298V54.7855Z" fill="#7575CD"/>
<path d="M86.4395 95.5701C86.4395 94.8977 86.9845 94.3526 87.6569 94.3526C88.3293 94.3526 88.8744 94.8977 88.8744 95.5701V110.788C88.8744 111.461 88.3293 112.006 87.6569 112.006C86.9845 112.006 86.4395 111.461 86.4395 110.788V95.5701Z" fill="#7575CD"/>
<path d="M110.789 1.21745C110.789 0.545071 111.334 0 112.007 0C112.679 0 113.224 0.545072 113.224 1.21745V16.74C113.224 17.4124 112.679 17.9574 112.007 17.9574C111.334 17.9574 110.789 17.4124 110.789 16.74V1.21745Z" fill="#7575CD"/>
<path d="M110.789 42.0022C110.789 41.3298 111.334 40.7847 112.007 40.7847C112.679 40.7847 113.224 41.3298 113.224 42.0022V57.2203C113.224 57.8927 112.679 58.4378 112.007 58.4378C111.334 58.4378 110.789 57.8927 110.789 57.2203V42.0022Z" fill="#7575CD"/>
<path d="M135.138 10.957C135.138 10.2846 135.683 9.73956 136.355 9.73956C137.028 9.73956 137.573 10.2846 137.573 10.957V26.7839C137.573 27.4563 137.028 28.0014 136.355 28.0014C135.683 28.0014 135.138 27.4563 135.138 26.7839V10.957Z" fill="#333399"/>
<path d="M135.138 50.8287C135.138 50.1563 135.683 49.6112 136.355 49.6112C137.028 49.6112 137.573 50.1563 137.573 50.8287V66.9599C137.573 67.6323 137.028 68.1774 136.355 68.1774C135.683 68.1774 135.138 67.6323 135.138 66.9599V50.8287Z" fill="#333399"/>
</svg>
