<svg width="151" height="151" viewBox="0 0 151 151" fill="none" xmlns="http://www.w3.org/2000/svg">
<g clip-path="url(#clip0)">
<path fill-rule="evenodd" clip-rule="evenodd" d="M7.5249 45.9025C7.5249 23.0438 25.7061 4.51501 48.1599 4.51501C70.5999 4.51501 88.7961 23.0438 88.7949 45.9025C88.7949 49.7002 88.2924 53.3788 87.3513 56.8728C83.9418 56.0953 80.3955 55.685 76.7549 55.685C74.1543 55.685 71.6018 55.8944 69.1129 56.2974C69.2939 55.3062 69.4344 54.2844 69.5346 53.2321H63.5292C63.2381 54.9347 62.8832 56.4827 62.4572 57.8766C56.0906 59.8841 50.2897 63.197 45.358 67.5071C42.8316 66.5725 40.7922 64.8486 39.2445 62.3392C37.7446 59.9429 36.699 57.1053 36.1075 53.8273H55.362L56.9104 48.5101H35.5576C35.5437 47.9078 35.5299 47.2773 35.5299 46.6328C35.5299 45.211 35.5564 43.8585 35.6464 42.5835H55.369L56.9173 37.2592H36.39C37.0644 33.9378 38.1435 31.2269 39.6711 29.1254C42.4092 25.3003 46.042 23.3878 50.5268 23.3878C54.1861 23.3878 57.028 24.4245 59.0571 26.4979C61.1 28.5712 62.4478 31.3878 63.1153 34.9322H69.1207C68.7633 30.2595 67.0098 26.0846 63.8174 22.4134C60.6389 18.7351 56.2014 16.9 50.4507 16.9C43.6947 16.9 38.4179 19.7236 34.573 25.3767C32.303 28.725 30.7419 32.6839 29.8957 37.251H22.1021L20.5538 42.5753H29.3043C29.2489 43.5004 29.2213 44.4244 29.2213 45.3495C29.2213 46.4285 29.2489 47.4793 29.3043 48.5019H22.0883L20.5469 53.8191H29.8196C30.7627 60.3409 32.9497 65.4269 36.3277 69.077C37.6001 70.4465 38.9734 71.5735 40.4496 72.4586C37.4158 75.9906 34.8735 79.9695 32.9311 84.2852C18.0351 78.1479 7.5249 63.2758 7.5249 45.9025Z" fill="#F9BE4B"/>
<path d="M85.6126 109.076C84.3619 108.18 82.2355 107.318 79.2612 106.505V125.291C83.3336 125.097 86.1402 123.61 87.6972 120.823C88.503 119.392 88.906 117.739 88.906 115.856C88.906 112.891 87.8148 110.626 85.6126 109.076Z" fill="#FFCD6B"/>
<path d="M69.1592 85.2329C67.8247 87.0178 67.1655 88.8878 67.1655 90.8392C67.1655 93.1947 67.9434 95.0355 69.5214 96.3698C71.1122 97.6972 73.2177 98.6345 75.8728 99.1561V82.3709C72.7379 82.5025 70.5008 83.441 69.1592 85.2329Z" fill="#FFCD6B"/>
<path d="M77.5303 63.8485C54.8497 63.8485 36.4849 82.2242 36.4849 104.894C36.4849 127.564 54.8637 145.939 77.5303 145.939C100.197 145.939 118.576 127.564 118.576 104.894C118.576 82.2242 100.211 63.8485 77.5303 63.8485ZM89.149 127.62C86.8699 129.092 83.5766 130.072 79.2608 130.544V137.471H75.8697V130.544C68.9558 130.093 64.2441 127.641 61.7706 123.187C60.415 120.776 59.7489 117.532 59.7489 113.439H66.0514C66.2389 116.704 66.7676 119.08 67.6084 120.581C69.1025 123.27 71.8404 124.777 75.8708 125.11V105.652C70.7154 104.673 66.8934 103.046 64.4339 100.754C61.9744 98.4679 60.7446 95.2997 60.7446 91.256C60.7446 87.636 62.0722 84.3782 64.7192 81.4743C67.3802 78.5704 71.0985 77.0975 75.872 77.0486V72.297H79.2632V76.973C84.0157 77.306 87.6362 78.6962 90.1586 81.1553C92.702 83.6144 94.0365 86.8594 94.1472 90.8962H87.9076C87.741 89.0903 87.2542 87.5336 86.4414 86.2202C84.9333 83.8158 82.5437 82.5513 79.2632 82.4407V99.8302C84.7947 101.373 88.5329 102.825 90.5126 104.179C93.7303 106.416 95.328 109.731 95.328 114.107C95.3466 120.443 93.2761 124.945 89.149 127.62Z" fill="#FFCD6B"/>
<path fill-rule="evenodd" clip-rule="evenodd" d="M97.8252 45.9025C97.8252 46.6501 97.8095 47.3939 97.7782 48.1336H105.986L101.003 39.668H97.455C97.6994 41.7109 97.8252 43.7915 97.8252 45.9025ZM95.9628 59.7299C96.5344 57.6596 96.9808 55.535 97.2931 53.3654H106.91V66.4571C103.593 63.749 99.9159 61.4779 95.9628 59.7299ZM120.054 83.1569C137.525 78.9177 150.5 63.1718 150.5 44.3941C150.501 22.3716 132.642 4.51501 110.618 4.51501C101.322 4.51501 92.7718 7.69345 85.9927 13.0212C87.0846 14.3284 88.1126 15.6939 89.0717 17.1126H96.3851L110.584 43.3407L124.837 17.1126H133.493L123.264 34.4362H130.016V39.668H120.171L115.188 48.1336H128.745V53.3654H114.256V71.6542H112.354C115.428 75.0787 118.03 78.9484 120.054 83.1569ZM96.5547 34.4362C96.2205 32.955 95.823 31.4988 95.3652 30.0709L97.9308 34.4362H96.5547Z" fill="#F3B02D"/>
<path d="M127.229 118.783L127.681 118.986C129.746 119.911 131.398 121.564 132.324 123.629L132.527 124.081C133.074 125.302 134.809 125.302 135.356 124.081L135.559 123.629C136.484 121.563 138.137 119.911 140.202 118.986L140.653 118.783C141.875 118.235 141.875 116.501 140.653 115.953L140.202 115.751C138.137 114.826 136.484 113.173 135.559 111.108L135.356 110.656C134.809 109.434 133.074 109.434 132.527 110.656L132.324 111.108C131.399 113.173 129.746 114.825 127.681 115.751L127.229 115.953C126.008 116.501 126.008 118.236 127.229 118.783Z" fill="#333399"/>
<path d="M123.645 75.7831L124.097 75.9855C126.161 76.9111 127.814 78.5635 128.739 80.6286L128.942 81.0805C129.49 82.3023 131.224 82.3023 131.772 81.0805L131.974 80.6286C132.899 78.5635 134.552 76.9111 136.617 75.9855L137.069 75.7831C138.291 75.2354 138.291 73.501 137.069 72.9534L136.617 72.7509C134.552 71.8255 132.899 70.1729 131.974 68.1078L131.772 67.6559C131.224 66.4342 129.49 66.4342 128.942 67.6559L128.739 68.1078C127.814 70.1727 126.161 71.8253 124.097 72.7507L123.645 72.9531C122.423 73.501 122.423 75.2356 123.645 75.7831Z" fill="#333399"/>
<path d="M22.4173 114.304L22.8692 114.507C24.9341 115.432 26.5865 117.085 27.512 119.149L27.7148 119.601C28.2622 120.823 29.9968 120.823 30.5442 119.601L30.7467 119.149C31.672 117.085 33.3246 115.432 35.3895 114.506L35.8414 114.304C37.0632 113.756 37.0632 112.022 35.8414 111.474L35.3895 111.272C33.3246 110.346 31.672 108.694 30.7467 106.629L30.5442 106.177C29.9968 104.955 28.2622 104.955 27.7148 106.177L27.512 106.629C26.5867 108.694 24.9341 110.346 22.8692 111.271L22.4173 111.474C21.1955 112.022 21.1955 113.756 22.4173 114.304Z" fill="#333399"/>
</g>
<defs>
<clipPath id="clip0">
<rect width="150.5" height="150.5" fill="white"/>
</clipPath>
</defs>
</svg>
