<svg width="150" height="150" viewBox="0 0 150 150" fill="none" xmlns="http://www.w3.org/2000/svg">
<g clip-path="url(#clip0)">
<path d="M38.2457 123.805C37.3569 123.168 35.8459 122.556 33.7324 121.978V135.327C36.6262 135.189 38.6206 134.133 39.727 132.153C40.2996 131.136 40.5859 129.961 40.5859 128.623C40.5859 126.516 39.8105 124.907 38.2457 123.805Z" fill="#FFCD6B"/>
<path d="M26.5539 106.862C25.6056 108.131 25.1372 109.459 25.1372 110.846C25.1372 112.52 25.69 113.828 26.8113 114.776C27.9417 115.719 29.4378 116.385 31.3246 116.756V104.829C29.0969 104.922 27.5072 105.589 26.5539 106.862Z" fill="#FFCD6B"/>
<path d="M32.5031 91.6667C16.3864 91.6667 3.33643 104.724 3.33643 120.833C3.33643 136.942 16.3963 150 32.5031 150C48.6099 150 61.6698 136.942 61.6698 120.833C61.6698 104.724 48.6198 91.6667 32.5031 91.6667ZM40.7592 136.982C39.1398 138.029 36.7996 138.725 33.7328 139.06V143.983H31.3231V139.06C26.4101 138.739 23.062 136.997 21.3043 133.832C20.3411 132.119 19.8677 129.814 19.8677 126.905H24.3463C24.4795 129.225 24.8552 130.914 25.4527 131.981C26.5144 133.891 28.4599 134.962 31.3239 135.199V121.372C27.6605 120.676 24.9446 119.52 23.1968 117.891C21.4491 116.267 20.5753 114.016 20.5753 111.142C20.5753 108.57 21.5186 106.255 23.3996 104.192C25.2905 102.128 27.9327 101.081 31.3247 101.047V97.6701H33.7344V100.993C37.1115 101.23 39.6843 102.217 41.4767 103.965C43.284 105.712 44.2323 108.018 44.3109 110.887H39.8771C39.7588 109.603 39.4129 108.497 38.8353 107.564C37.7636 105.855 36.0656 104.957 33.7344 104.878V117.235C37.6652 118.331 40.3215 119.363 41.7283 120.325C44.0147 121.915 45.15 124.27 45.15 127.38C45.1633 131.882 43.692 135.082 40.7592 136.982Z" fill="#FFCD6B"/>
<path fill-rule="evenodd" clip-rule="evenodd" d="M89.9943 8.89748C88.7275 8.46983 87.4435 8.08129 86.1437 7.73346C86.8162 9.0114 87.4633 10.3631 88.0848 11.7782C88.6735 10.7845 89.3111 9.82312 89.9943 8.89748ZM117.502 63.3333C123.393 63.3333 128.936 61.8422 133.774 59.2169C134.569 63.2481 135.002 67.4053 135.002 71.6667C135.002 77.8969 134.075 84.3036 132.45 90.0205H98.0968C98.7463 83.8216 99.0927 77.322 99.0927 71.6667C99.0927 67.1801 98.8747 62.4132 98.4603 57.5394C103.901 61.1982 110.452 63.3333 117.502 63.3333ZM69.1683 5.43365C64.1406 5.43365 57.5557 21.3646 53.9196 41.7421H84.417C80.7815 21.3646 74.1965 5.43365 69.1683 5.43365ZM40.2398 53.712H5.88645C4.2617 59.4287 3.33447 65.4364 3.33447 71.6667C3.33447 77.8969 4.2617 84.3036 5.88645 90.0205H17.7233C22.1963 87.8709 27.2095 86.6666 32.504 86.6666C35.0766 86.6666 37.5828 86.951 39.9928 87.4899C39.5028 82.0778 39.2439 76.5566 39.2439 71.6667C39.2439 66.0114 39.5903 59.9107 40.2398 53.712ZM69.1683 137.9C67.6044 137.9 65.8897 136.397 64.16 133.712C65.7788 129.738 66.6707 125.39 66.6707 120.833C66.6707 113.869 64.5871 107.392 61.0093 101.99H84.417C80.7811 122.368 74.1961 137.9 69.1683 137.9ZM86.1237 53.712H52.2115C51.5784 59.5632 51.2129 65.6147 51.2129 71.6667C51.2129 77.7186 51.5784 84.1691 52.2115 90.0205H86.1237C86.7572 84.1691 87.1223 77.7186 87.1223 71.6667C87.1223 65.6147 86.7572 59.5632 86.1237 53.712ZM96.4405 101.99C94.2883 114.596 90.8319 126.69 86.1437 135.6C104.277 130.747 119.328 118.371 127.734 101.99H96.4405ZM41.8953 41.7421H10.6017C19.007 25.361 34.0581 12.5861 52.1921 7.73346C47.5039 16.643 44.0474 29.1358 41.8953 41.7421Z" fill="#333399"/>
<path d="M117.502 0C101.385 0 88.335 13.0577 88.335 29.1667C88.335 45.2757 101.395 58.3333 117.502 58.3333C133.608 58.3333 146.668 45.2707 146.668 29.1667C146.669 13.0577 133.608 0 117.502 0ZM129.012 44.5997C126.429 47.9324 122.938 49.5954 118.548 49.5954C114.766 49.5954 111.596 48.2327 109.009 45.4983C106.584 42.9259 105.014 39.3417 104.337 34.7457H97.6818L98.7882 30.9985H103.968C103.928 30.2778 103.908 29.5373 103.908 28.777C103.908 28.125 103.928 27.4739 103.968 26.8219H97.6867L98.7981 23.0697H104.392C105 19.8512 106.12 17.0613 107.749 14.7016C110.509 10.7178 114.297 8.72799 119.146 8.72799C123.274 8.72799 126.459 10.0212 128.74 12.6134C131.032 15.2006 132.29 18.1427 132.547 21.4357H128.236C127.757 18.9378 126.79 16.9529 125.323 15.4918C123.867 14.0306 121.827 13.3001 119.201 13.3001C115.981 13.3001 113.374 14.6479 111.409 17.3435C110.312 18.8245 109.538 20.7349 109.054 23.0755H123.787L122.676 26.8277H108.52C108.455 27.7262 108.436 28.6793 108.436 29.6813C108.436 30.1355 108.446 30.5798 108.456 31.0043H123.782L122.671 34.7515H108.851C109.275 37.0615 110.026 39.0613 111.102 40.7499C112.87 43.5638 115.531 44.9762 119.072 44.9762C122.331 44.9762 124.819 43.4902 126.528 40.5133C127.437 38.9438 128.089 36.8844 128.533 34.332H132.844C132.448 38.4085 131.18 41.8346 129.012 44.5997Z" fill="#FFCD6B"/>
</g>
<defs>
<clipPath id="clip0">
<rect width="150" height="150" fill="white"/>
</clipPath>
</defs>
</svg>
