<svg width="151" height="158" viewBox="0 0 151 158" fill="none" xmlns="http://www.w3.org/2000/svg">
<path d="M35.5565 158C34.246 158 33.1826 156.938 33.1826 155.627V47.5618C33.1826 46.2513 34.246 45.1891 35.5565 45.1891C36.867 45.1891 37.9292 46.2513 37.9292 47.5618V155.627C37.9292 156.938 36.867 158 35.5565 158Z" fill="#FFCD6B"/>
<path d="M62.2294 148.288C69.4919 141.026 70.8788 129.92 71.1079 124.619C71.1807 122.932 69.7927 121.544 68.1062 121.617C62.8046 121.846 51.699 123.233 44.4365 130.496C37.1739 137.758 35.7871 148.864 35.5579 154.164C35.4851 155.852 36.8732 157.24 38.5596 157.167C43.8612 156.938 54.9668 155.551 62.2294 148.288Z" fill="#FFCD6B"/>
<path d="M8.88129 110.002C1.61876 102.739 0.231894 91.6335 0.00273949 86.3331C-0.0700649 84.6455 1.31799 83.2574 3.00562 83.3302C8.30721 83.5606 19.4117 84.9462 26.6742 92.2088C33.9367 99.4713 35.3236 110.577 35.5527 115.879C35.6267 117.565 34.2375 118.954 32.551 118.88C27.2495 118.651 16.1438 117.264 8.88129 110.002Z" fill="#FFCD6B"/>
<path d="M62.2294 110.002C69.4919 102.739 70.8788 91.6335 71.1079 86.3331C71.1807 84.6455 69.7927 83.2574 68.1062 83.3302C62.8046 83.5606 51.699 84.9462 44.4365 92.2088C37.1739 99.4713 35.7871 110.577 35.5579 115.879C35.4851 117.565 36.8732 118.954 38.5596 118.88C43.8612 118.651 54.9668 117.264 62.2294 110.002Z" fill="#FFCD6B"/>
<path d="M8.88129 71.7161C1.61876 64.4535 0.231894 53.3479 0.00273949 48.0463C-0.0700649 46.3599 1.31799 44.9706 3.00562 45.0446C8.30721 45.2738 19.4117 46.6606 26.6742 53.9232C33.9367 61.1857 35.3236 72.2913 35.5527 77.5917C35.6267 79.2794 34.2375 80.6674 32.551 80.5946C27.2495 80.3655 16.1438 78.9786 8.88129 71.7161Z" fill="#FFCD6B"/>
<path d="M8.88129 148.288C1.61876 141.026 0.231894 129.92 0.00273949 124.619C-0.0700649 122.932 1.31799 121.544 3.00562 121.617C8.30721 121.846 19.4117 123.233 26.6742 130.496C33.9367 137.758 35.3236 148.864 35.5527 154.164C35.6267 155.852 34.2375 157.24 32.551 157.167C27.2495 156.938 16.1438 155.551 8.88129 148.288Z" fill="#FFCD6B"/>
<path d="M62.2294 71.7161C69.4919 64.4535 70.8788 53.3479 71.1079 48.0463C71.1807 46.3599 69.7927 44.9706 68.1062 45.0446C62.8046 45.2738 51.699 46.6606 44.4365 53.9232C37.1739 61.1857 35.7871 72.2913 35.5579 77.5917C35.4851 79.2794 36.8732 80.6674 38.5596 80.5946C43.8612 80.3655 54.9668 78.9786 62.2294 71.7161Z" fill="#FFCD6B"/>
<path d="M48.1384 25.5128C48.1384 15.2414 41.2674 6.40821 37.6809 2.49707C36.5387 1.25343 34.5753 1.25343 33.4343 2.49707C29.8478 6.40821 22.9756 15.2414 22.9756 25.5128C22.9756 35.783 29.8478 44.6162 33.4343 48.5273C34.5753 49.7721 36.5387 49.7721 37.6809 48.5273C41.2662 44.6162 48.1384 35.783 48.1384 25.5128Z" fill="#FFCD6B"/>
<path d="M93.5702 17.4468C71.2979 17.4468 52.4806 25.8354 46.3809 37.3493H140.759C134.66 25.8354 115.843 17.4468 93.5702 17.4468Z" fill="#333399"/>
<path d="M93.5712 20.6713C99.2521 20.6713 103.857 16.0439 103.857 10.3357C103.857 4.62744 99.2521 0 93.5712 0C87.8904 0 83.2852 4.62744 83.2852 10.3357C83.2852 16.0439 87.8904 20.6713 93.5712 20.6713Z" fill="#4C4A58"/>
<path d="M127.57 157.245H59.5706C52.5739 157.245 46.9019 151.546 46.9019 144.516V51.1149H140.239V144.516C140.239 151.546 134.567 157.245 127.57 157.245Z" fill="#333399"/>
<path d="M148.403 36.2782H38.7379C37.757 36.2782 36.9619 37.0733 36.9619 38.0541V52.8456C36.9619 53.8264 37.757 54.6215 38.7379 54.6215H148.403C149.384 54.6215 150.179 53.8264 150.179 52.8456V38.0541C150.179 37.0733 149.384 36.2782 148.403 36.2782Z" fill="#242424"/>
<path d="M128.244 74.595H58.8996C55.9571 74.595 53.5718 76.9804 53.5718 79.9229V127.425C53.5718 130.367 55.9571 132.752 58.8996 132.752H128.244C131.187 132.752 133.572 130.367 133.572 127.425V79.9229C133.572 76.9804 131.187 74.595 128.244 74.595Z" fill="white"/>
<path d="M68.4199 100.166C68.3244 100.07 68.1499 99.9393 67.8979 99.7747C67.6447 99.6098 67.3375 99.4489 66.9761 99.2908C66.6143 99.1334 66.2213 98.9994 65.7983 98.8895C65.375 98.7803 64.9448 98.7249 64.5079 98.7249C63.7295 98.7249 63.1492 98.8694 62.767 99.1571C62.3848 99.4453 62.1935 99.8502 62.1935 100.371C62.1935 100.673 62.2654 100.924 62.4088 101.123C62.5521 101.322 62.7598 101.497 63.0334 101.647C63.3066 101.799 63.6508 101.935 64.0678 102.059C64.484 102.183 64.9656 102.313 65.5116 102.45C66.2217 102.642 66.8667 102.848 67.447 103.067C68.0273 103.287 68.5189 103.561 68.9219 103.891C69.3245 104.22 69.6352 104.615 69.8536 105.074C70.0721 105.534 70.1815 106.1 70.1815 106.772C70.1815 107.554 70.0346 108.223 69.741 108.778C69.4475 109.334 69.0513 109.784 68.5532 110.126C68.0548 110.47 67.4813 110.72 66.8327 110.878C66.1841 111.035 65.5044 111.114 64.7947 111.114C63.702 111.114 62.6236 110.95 61.5585 110.62C60.4933 110.291 59.5372 109.825 58.6909 109.221L59.9402 106.772C60.0632 106.896 60.2849 107.057 60.606 107.256C60.9267 107.455 61.3057 107.654 61.7426 107.853C62.1795 108.052 62.6644 108.22 63.1967 108.357C63.7291 108.494 64.2751 108.563 64.835 108.563C66.3918 108.563 67.1702 108.062 67.1702 107.06C67.1702 106.745 67.0811 106.477 66.9038 106.257C66.7265 106.038 66.4737 105.846 66.1462 105.682C65.8187 105.517 65.4221 105.366 64.958 105.229C64.4935 105.092 63.9751 104.941 63.4016 104.776C62.7051 104.584 62.1008 104.375 61.5892 104.149C61.0772 103.922 60.6503 103.655 60.3092 103.346C59.9677 103.037 59.7117 102.681 59.5412 102.276C59.3703 101.871 59.2852 101.388 59.2852 100.825C59.2852 100.084 59.4214 99.4256 59.6946 98.8493C59.9677 98.273 60.3464 97.7931 60.8312 97.4086C61.3157 97.0246 61.8792 96.7328 62.521 96.5338C63.1624 96.3351 63.8521 96.2356 64.5894 96.2356C65.6138 96.2356 66.5555 96.3969 67.4158 96.7192C68.2761 97.0422 69.0269 97.4223 69.6687 97.8617L68.4199 100.166Z" fill="#4C4A58"/>
<path d="M78.5589 108.542C79.2279 108.542 79.791 108.405 80.2487 108.131C80.706 107.857 81.0746 107.5 81.355 107.061C81.6346 106.622 81.8327 106.118 81.9489 105.548C82.0647 104.979 82.123 104.392 82.123 103.788V96.3382H84.9287V103.788C84.9287 104.79 84.8093 105.73 84.57 106.608C84.3308 107.486 83.9558 108.254 83.4438 108.913C82.9318 109.571 82.2728 110.093 81.4672 110.477C80.6613 110.861 79.6988 111.053 78.5793 111.053C77.4187 111.053 76.4318 110.851 75.6199 110.446C74.8071 110.041 74.1482 109.506 73.6433 108.841C73.1381 108.175 72.7731 107.403 72.5478 106.525C72.3226 105.647 72.21 104.735 72.21 103.788V96.3382H75.0364V103.788C75.0364 104.405 75.0943 104.999 75.2105 105.568C75.3263 106.138 75.5244 106.642 75.8044 107.081C76.084 107.52 76.4494 107.873 76.9003 108.141C77.3504 108.408 77.9035 108.542 78.5589 108.542Z" fill="#4C4A58"/>
<path d="M97.6083 109.303C96.4477 110.47 95.0962 111.053 93.553 111.053C92.5973 111.053 91.6995 110.861 90.8596 110.477C90.0201 110.093 89.2892 109.565 88.6682 108.892C88.0467 108.22 87.5551 107.428 87.1936 106.515C86.8318 105.602 86.6509 104.618 86.6509 103.562C86.6509 102.561 86.8318 101.617 87.1936 100.732C87.5551 99.8473 88.0539 99.072 88.6885 98.4066C89.3235 97.7416 90.0712 97.2127 90.9315 96.8218C91.7917 96.431 92.7267 96.2351 93.7375 96.2351C95.1026 96.2351 96.2736 96.5233 97.2501 97.0995C98.2262 97.6762 98.9602 98.4511 99.4519 99.4251L97.3423 100.989C96.9737 100.262 96.4581 99.7068 95.7963 99.3224C95.1337 98.9379 94.4137 98.7461 93.6357 98.7461C93.021 98.7461 92.4575 98.8769 91.9455 99.137C91.4335 99.3978 90.9966 99.7546 90.6347 100.207C90.2729 100.66 89.9929 101.182 89.7952 101.771C89.5971 102.361 89.4981 102.986 89.4981 103.644C89.4981 104.33 89.6071 104.972 89.8256 105.568C90.044 106.165 90.3444 106.683 90.727 107.122C91.1088 107.561 91.5629 107.908 92.0889 108.162C92.614 108.416 93.1848 108.542 93.799 108.542C95.2052 108.542 96.4749 107.877 97.6083 106.546V105.517H94.6797V103.438H99.9435V110.95H97.6083V109.303Z" fill="#4C4A58"/>
<path d="M106.968 96.3389H109.466L114.996 110.951H112.088L110.736 107.308H105.657L104.326 110.951H101.417L106.968 96.3389ZM110.224 105.312L108.217 99.5698L106.128 105.312H110.224Z" fill="#4C4A58"/>
<path d="M116.696 110.95V96.3379H123.128C123.796 96.3379 124.415 96.4787 124.981 96.7597C125.548 97.0414 126.036 97.4118 126.446 97.8709C126.855 98.3312 127.176 98.8525 127.409 99.4352C127.641 100.018 127.756 100.605 127.756 101.194C127.756 102.141 127.521 103.002 127.05 103.778C126.579 104.553 125.94 105.112 125.134 105.455L128.453 110.95H125.278L122.308 106.052H119.523V110.95H116.696ZM119.523 103.562H123.066C123.325 103.562 123.568 103.5 123.793 103.377C124.019 103.254 124.213 103.085 124.377 102.873C124.541 102.66 124.671 102.41 124.766 102.121C124.862 101.833 124.909 101.524 124.909 101.195C124.909 100.852 124.854 100.536 124.745 100.249C124.636 99.9605 124.489 99.7105 124.305 99.497C124.121 99.2847 123.909 99.1201 123.67 99.003C123.431 98.8866 123.189 98.8284 122.943 98.8284H119.523V103.562Z" fill="#4C4A58"/>
</svg>
