<svg width="100" height="100" viewBox="0 0 100 100" fill="none" xmlns="http://www.w3.org/2000/svg">
<path d="M46.4323 24.5448L28.8542 1.10727C27.744 -0.369092 25.2721 -0.369092 24.1622 1.10727L6.58407 24.5448C5.84013 25.5346 5.80595 26.8879 6.48681 27.9207C7.17919 28.9565 8.44384 29.4485 9.63973 29.1424L17.719 27.1254V97.0703C17.719 98.6897 19.0294 100 20.6487 100H32.3675C33.9868 100 35.2971 98.6897 35.2971 97.0703V27.1254L43.3766 29.1424C44.5782 29.4485 45.8428 28.9565 46.5296 27.9207C47.2104 26.8879 47.176 25.5346 46.4323 24.5448Z" fill="#333399"/>
<path d="M93.4045 72.0135C92.7178 70.9807 91.459 70.4799 90.2516 70.7918L82.1721 72.8088V2.92975C82.1721 1.31041 80.8617 6.10352e-05 79.2424 6.10352e-05H67.5237C65.9043 6.10352e-05 64.594 1.31041 64.594 2.92975V72.8088L56.5145 70.7918C55.3186 70.4799 54.0483 70.9807 53.3616 72.0135C52.6807 73.0463 52.7149 74.3996 53.4588 75.3895L71.0369 98.827C72.2127 100.391 74.5547 100.389 75.7289 98.827L93.307 75.3895C94.051 74.3996 94.0854 73.0463 93.4045 72.0135Z" fill="#242424"/>
</svg>
