<svg width="100" height="100" viewBox="0 0 100 100" fill="none" xmlns="http://www.w3.org/2000/svg">
<path d="M100 24.1379V93.1035C100 96.9123 96.9123 100 93.1034 100H6.89655C3.08769 100 0 96.9123 0 93.1035V24.1379H100Z" fill="#E5E4FF"/>
<path d="M100 12.069V27.5862H0V12.069C0 8.26012 3.08769 5.17242 6.89655 5.17242H93.1034C96.9123 5.17242 100 8.26012 100 12.069Z" fill="#4C4A58"/>
<path d="M18.9657 36.2069H12.0691C11.1169 36.2069 10.345 36.9788 10.345 37.931V43.1035C10.345 44.0557 11.1169 44.8276 12.0691 44.8276H18.9657C19.9179 44.8276 20.6898 44.0557 20.6898 43.1035V37.931C20.6898 36.9788 19.9179 36.2069 18.9657 36.2069Z" fill="#333399"/>
<path d="M36.2071 36.2069H29.3106C28.3583 36.2069 27.5864 36.9788 27.5864 37.931V43.1035C27.5864 44.0557 28.3583 44.8276 29.3106 44.8276H36.2071C37.1593 44.8276 37.9313 44.0557 37.9313 43.1035V37.931C37.9313 36.9788 37.1593 36.2069 36.2071 36.2069Z" fill="#333399"/>
<path d="M53.4486 36.2069H46.552C45.5998 36.2069 44.8279 36.9788 44.8279 37.931V43.1035C44.8279 44.0557 45.5998 44.8276 46.552 44.8276H53.4486C54.4008 44.8276 55.1727 44.0557 55.1727 43.1035V37.931C55.1727 36.9788 54.4008 36.2069 53.4486 36.2069Z" fill="#333399"/>
<path d="M70.6898 36.2069H63.7932C62.841 36.2069 62.0691 36.9788 62.0691 37.931V43.1035C62.0691 44.0557 62.841 44.8276 63.7932 44.8276H70.6898C71.642 44.8276 72.4139 44.0557 72.4139 43.1035V37.931C72.4139 36.9788 71.642 36.2069 70.6898 36.2069Z" fill="#333399"/>
<path d="M87.9312 36.2069H81.0347C80.0825 36.2069 79.3105 36.9788 79.3105 37.931V43.1035C79.3105 44.0557 80.0825 44.8276 81.0347 44.8276H87.9312C88.8835 44.8276 89.6554 44.0557 89.6554 43.1035V37.931C89.6554 36.9788 88.8835 36.2069 87.9312 36.2069Z" fill="#333399"/>
<path d="M18.9659 51.7242H12.0694C11.1171 51.7242 10.3452 52.4961 10.3452 53.4483V58.6207C10.3452 59.5729 11.1171 60.3448 12.0694 60.3448H18.9659C19.9181 60.3448 20.69 59.5729 20.69 58.6207V53.4483C20.69 52.4961 19.9181 51.7242 18.9659 51.7242Z" fill="#333399"/>
<path d="M36.2071 51.7242H29.3106C28.3583 51.7242 27.5864 52.4961 27.5864 53.4483V58.6207C27.5864 59.5729 28.3583 60.3448 29.3106 60.3448H36.2071C37.1593 60.3448 37.9313 59.5729 37.9313 58.6207V53.4483C37.9313 52.4961 37.1593 51.7242 36.2071 51.7242Z" fill="#333399"/>
<path d="M53.4486 51.7242H46.552C45.5998 51.7242 44.8279 52.4961 44.8279 53.4483V58.6207C44.8279 59.5729 45.5998 60.3448 46.552 60.3448H53.4486C54.4008 60.3448 55.1727 59.5729 55.1727 58.6207V53.4483C55.1727 52.4961 54.4008 51.7242 53.4486 51.7242Z" fill="#333399"/>
<path d="M70.6898 51.7242H63.7932C62.841 51.7242 62.0691 52.4961 62.0691 53.4483V58.6207C62.0691 59.5729 62.841 60.3448 63.7932 60.3448H70.6898C71.642 60.3448 72.4139 59.5729 72.4139 58.6207V53.4483C72.4139 52.4961 71.642 51.7242 70.6898 51.7242Z" fill="#333399"/>
<path d="M87.9312 51.7242H81.0347C80.0825 51.7242 79.3105 52.4961 79.3105 53.4483V58.6207C79.3105 59.5729 80.0825 60.3448 81.0347 60.3448H87.9312C88.8835 60.3448 89.6554 59.5729 89.6554 58.6207V53.4483C89.6554 52.4961 88.8835 51.7242 87.9312 51.7242Z" fill="#333399"/>
<path d="M18.9659 67.2414H12.0694C11.1171 67.2414 10.3452 68.0133 10.3452 68.9655V74.1379C10.3452 75.0902 11.1171 75.8621 12.0694 75.8621H18.9659C19.9181 75.8621 20.69 75.0902 20.69 74.1379V68.9655C20.69 68.0133 19.9181 67.2414 18.9659 67.2414Z" fill="#333399"/>
<path d="M36.2071 67.2414H29.3106C28.3583 67.2414 27.5864 68.0133 27.5864 68.9655V74.1379C27.5864 75.0902 28.3583 75.8621 29.3106 75.8621H36.2071C37.1593 75.8621 37.9313 75.0902 37.9313 74.1379V68.9655C37.9313 68.0133 37.1593 67.2414 36.2071 67.2414Z" fill="#333399"/>
<path d="M53.4486 67.2414H46.552C45.5998 67.2414 44.8279 68.0133 44.8279 68.9655V74.1379C44.8279 75.0902 45.5998 75.8621 46.552 75.8621H53.4486C54.4008 75.8621 55.1727 75.0902 55.1727 74.1379V68.9655C55.1727 68.0133 54.4008 67.2414 53.4486 67.2414Z" fill="#333399"/>
<path d="M70.6898 67.2414H63.7932C62.841 67.2414 62.0691 68.0133 62.0691 68.9655V74.1379C62.0691 75.0902 62.841 75.8621 63.7932 75.8621H70.6898C71.642 75.8621 72.4139 75.0902 72.4139 74.1379V68.9655C72.4139 68.0133 71.642 67.2414 70.6898 67.2414Z" fill="#333399"/>
<path d="M87.9312 67.2414H81.0347C80.0825 67.2414 79.3105 68.0133 79.3105 68.9655V74.1379C79.3105 75.0902 80.0825 75.8621 81.0347 75.8621H87.9312C88.8835 75.8621 89.6554 75.0902 89.6554 74.1379V68.9655C89.6554 68.0133 88.8835 67.2414 87.9312 67.2414Z" fill="#333399"/>
<path d="M18.9659 82.7586H12.0694C11.1171 82.7586 10.3452 83.5306 10.3452 84.4828V89.6552C10.3452 90.6074 11.1171 91.3793 12.0694 91.3793H18.9659C19.9181 91.3793 20.69 90.6074 20.69 89.6552V84.4828C20.69 83.5306 19.9181 82.7586 18.9659 82.7586Z" fill="#333399"/>
<path d="M36.2071 82.7586H29.3106C28.3583 82.7586 27.5864 83.5306 27.5864 84.4828V89.6552C27.5864 90.6074 28.3583 91.3793 29.3106 91.3793H36.2071C37.1593 91.3793 37.9313 90.6074 37.9313 89.6552V84.4828C37.9313 83.5306 37.1593 82.7586 36.2071 82.7586Z" fill="#333399"/>
<path d="M53.4486 82.7586H46.552C45.5998 82.7586 44.8279 83.5306 44.8279 84.4828V89.6552C44.8279 90.6074 45.5998 91.3793 46.552 91.3793H53.4486C54.4008 91.3793 55.1727 90.6074 55.1727 89.6552V84.4828C55.1727 83.5306 54.4008 82.7586 53.4486 82.7586Z" fill="#333399"/>
<path d="M70.6898 82.7586H63.7932C62.841 82.7586 62.0691 83.5306 62.0691 84.4828V89.6552C62.0691 90.6074 62.841 91.3793 63.7932 91.3793H70.6898C71.642 91.3793 72.4139 90.6074 72.4139 89.6552V84.4828C72.4139 83.5306 71.642 82.7586 70.6898 82.7586Z" fill="#333399"/>
<path d="M87.9312 82.7586H81.0347C80.0825 82.7586 79.3105 83.5306 79.3105 84.4828V89.6552C79.3105 90.6074 80.0825 91.3793 81.0347 91.3793H87.9312C88.8835 91.3793 89.6554 90.6074 89.6554 89.6552V84.4828C89.6554 83.5306 88.8835 82.7586 87.9312 82.7586Z" fill="#333399"/>
<path d="M81.0345 5.17242C84.1035 6.37269 86.1457 9.30527 86.207 12.6C85.9191 17.1497 82.1451 20.6925 77.5863 20.6925C73.0275 20.6925 69.2535 17.1497 68.9656 12.6C69.0269 9.30527 71.069 6.37269 74.138 5.17242H81.0345Z" fill="#242424"/>
<path d="M25.8622 5.17242C28.9311 6.37269 30.9733 9.30527 31.0346 12.6C30.8818 17.2117 27.026 20.83 22.4139 20.6897C17.8018 20.83 13.946 17.2117 13.7932 12.6C13.8545 9.30527 15.8967 6.37269 18.9656 5.17242H25.8622Z" fill="#242424"/>
<path d="M81.0345 3.44828C81.0345 1.54385 79.4906 0 77.5862 0C75.6818 0 74.1379 1.54385 74.1379 3.44828V10.3448C74.1379 12.2493 75.6818 13.7931 77.5862 13.7931C79.4906 13.7931 81.0345 12.2493 81.0345 10.3448V3.44828Z" fill="#4C4A58"/>
<path d="M25.8621 3.44828C25.8621 1.54385 24.3183 0 22.4139 0C20.5094 0 18.9656 1.54385 18.9656 3.44828V10.3448C18.9656 12.2493 20.5094 13.7931 22.4139 13.7931C24.3183 13.7931 25.8621 12.2493 25.8621 10.3448V3.44828Z" fill="#4C4A58"/>
</svg>
