<svg width="100" height="100" viewBox="0 0 100 100" fill="none" xmlns="http://www.w3.org/2000/svg">
<g clip-path="url(#clip0)">
<path fill-rule="evenodd" clip-rule="evenodd" d="M43 73C62.33 73 78 57.33 78 38C78 18.67 62.33 3 43 3C23.67 3 8 18.67 8 38C8 48.053 12.2384 57.1161 19.0257 63.4998L10.0766 72.5H36.9234L36.8925 72.469C38.8758 72.818 40.9166 73 43 73Z" fill="#E5E4FF"/>
<ellipse cx="44.5" cy="39" rx="22.5" ry="22" fill="#E5E4FF"/>
<path d="M85.6805 87.0048C91.3664 80.8853 94.8412 72.7951 94.7359 63.8752C94.7359 54.5404 88.2124 45.1195 82 39C80.9681 60.9209 65.2175 77 42 77H28C33.5806 88.5129 46.5108 98.1029 60.3045 97.9991L92.7398 97.9099C94.5788 97.9048 95.4368 95.6295 94.0589 94.4115L85.6805 87.0048Z" fill="#242424"/>
<path d="M70.8413 11.3997C63.6089 4.14536 54 0.103634 43.7712 0C22.5904 0 5.33579 17.2032 5.33579 38.3446C5.33579 47.0498 8.22878 55.4442 13.4982 62.0767L13.8081 62.4913L1.80427 73.4297C0.455554 74.6588 1.32215 76.9039 3.14683 76.908L43.7712 77C64.8487 77 82 59.7968 82 38.6555C82 28.2921 78.0738 18.6541 70.8413 11.3997ZM43.7712 72.1292L11.0184 72.0256L20.9373 63.1131L19.1808 61.2477C13.4982 55.0296 10.3985 46.9462 10.3985 38.4482C10.3985 20.105 25.3801 5.1817 43.7712 5.1817C52.7601 5.1817 61.2325 8.70525 67.4317 15.0269C73.631 21.4522 77.1439 29.8466 77.1439 38.7591C77.0406 57.1023 62.059 72.1292 43.7712 72.1292Z" fill="#4C4A58"/>
<path d="M44.5 16C31.5381 16.1034 21 26.3369 21 39.0513C21 51.7657 31.5381 62.1026 44.5 61.9992C51.5605 61.9992 57.8834 58.8982 62.204 54.0398H62.3094V53.9364C65.787 49.9051 68 44.6332 68 38.9479C67.8946 26.3369 57.3565 16 44.5 16ZM52.0874 51.2488H45.87V40.3951H54.8274C54.6166 44.2198 53.7735 47.8377 52.0874 51.2488ZM34.8049 40.4985H43.0247V51.3522H37.5448C35.9641 47.8377 35.0157 44.2198 34.8049 40.4985ZM43.0247 27.6807V37.6041H34.8049C35.0157 34.193 35.7534 30.7818 37.1233 27.6807H43.0247ZM45.87 37.6041V27.6807H52.509C53.8789 30.8851 54.6166 34.193 54.8274 37.6041H45.87ZM45.87 18.8943C46.1861 18.8943 46.3969 18.8943 46.713 18.9977C48.5045 20.8583 49.9798 22.8224 51.139 24.8897H45.87V18.8943ZM43.0247 24.8897H38.4933C39.6525 22.719 41.2332 20.755 43.0247 18.8943V24.8897ZM27.4283 27.6807H33.9619C32.6973 30.8851 32.065 34.2963 31.8543 37.6041H23.8453C24.1614 33.9862 25.426 30.575 27.4283 27.6807ZM23.9507 40.4985H31.9596C32.1704 44.2198 32.9081 47.8377 34.3834 51.3522H28.0605C25.7422 48.2511 24.2668 44.5299 23.9507 40.4985ZM43.0247 59.1049C41.5493 57.5544 40.1794 55.9005 39.1256 54.1432H43.0247V59.1049ZM45.87 59.2083V54.1432H50.5067C49.3475 55.9005 48.083 57.6577 46.5022 59.2083C46.3969 59.2083 46.0807 59.2083 45.87 59.2083ZM60.8341 51.2488H55.2489C56.7242 47.7343 57.5673 44.1164 57.6726 40.3951H64.9439C64.7332 44.5299 63.1525 48.2511 60.8341 51.2488ZM64.9439 37.6041H57.6726C57.5673 34.193 56.8296 30.8851 55.565 27.6807H61.361C63.4686 30.575 64.7332 33.9862 64.9439 37.6041Z" fill="#333399"/>
</g>
<defs>
<clipPath id="clip0">
<rect width="100" height="100" fill="white"/>
</clipPath>
</defs>
</svg>
