<svg width="100" height="100" viewBox="0 0 100 100" fill="none" xmlns="http://www.w3.org/2000/svg">
<circle cx="43.7002" cy="43.3999" r="36.5" fill="#E5E4FF"/>
<circle cx="72.5" cy="71.5" r="26.5" fill="#E5E4FF"/>
<path d="M46.4286 80.094V73.8245C46.4286 72.884 45.8075 72.2571 44.8758 72.2571C43.9441 72.2571 43.323 72.884 43.323 73.8245V80.094C35.0932 79.7806 27.4845 76.3323 21.7391 71.0031L26.087 66.6144C26.7081 65.9875 26.7081 65.047 26.087 64.4201C25.4658 63.7931 24.5342 63.7931 23.913 64.4201L19.5652 68.8088C14.2857 63.0094 10.8696 55.3292 10.559 46.8652H16.7702C17.7019 46.8652 18.323 46.2382 18.323 45.2978C18.323 44.3574 17.7019 43.7304 16.7702 43.7304H10.559C10.8696 35.4232 14.2857 27.7429 19.5652 21.9436L23.913 26.489C24.5342 27.116 25.4658 27.116 26.087 26.489C26.7081 25.8621 26.7081 24.9216 26.087 24.2947L21.7391 19.7492C27.4845 14.4201 35.0932 11.1285 43.323 10.6583V16.9279C43.323 17.8683 43.9441 18.4953 44.8758 18.4953C45.8075 18.4953 46.4286 17.8683 46.4286 16.9279V10.6583C54.8137 10.9718 62.2671 14.4201 68.0124 19.7492L63.6646 24.2947C63.0435 24.9216 63.0435 25.8621 63.6646 26.489C64.2857 27.116 65.2174 27.116 65.8385 26.489L70.3416 21.9436C75.6211 27.7429 78.882 35.4232 79.3478 43.7304H73.1367C72.205 43.7304 71.5839 44.3574 71.5839 45.2978C71.5839 46.2382 72.205 46.8652 73.1367 46.8652H79.3478C79.3478 47.4922 79.3478 48.1191 79.1926 48.7461C82.764 49.2163 86.3354 50.3135 89.2857 52.0376C89.5963 49.8433 89.7516 47.6489 89.7516 45.2978C89.7516 20.3762 69.5652 0 44.8758 0C20.1863 0.15674 0 20.3762 0 45.2978C0 70.2194 20.0311 90.5956 44.8758 90.5956C47.6708 90.5956 50.4658 90.2821 53.1056 89.8119C51.2422 86.8339 50 83.3856 49.5342 79.7806C48.4472 79.9373 47.3603 79.9373 46.4286 80.094Z" fill="#242424"/>
<path d="M44.8691 24.9216C45.8008 24.9216 46.4219 25.5486 46.4219 26.489V46.8652C46.4219 47.8056 45.8008 48.4326 44.8691 48.4326H28.8753C27.9436 48.4326 27.3225 47.8056 27.3225 46.8652C27.3225 45.9248 27.9436 45.2978 28.8753 45.2978H43.3163V26.489C43.3163 25.7053 44.0927 24.9216 44.8691 24.9216Z" fill="#333399"/>
<path d="M67 64.8235C67 66.7647 68.6842 67.2941 71 68V62C68.8947 62.1765 67 63.0588 67 64.8235Z" fill="#333399"/>
<path d="M73 73V80C74.4943 79.8 75.9887 78.8 75.9887 76.6C76.1381 74.4 74.7932 73.6 73 73Z" fill="#333399"/>
<path d="M71.5 43C55.7695 43 43 55.7695 43 71.5C43 87.2305 55.7695 100 71.5 100C87.2305 100 100 87.2305 100 71.5C100 55.7695 87.2305 43 71.5 43ZM72.9805 83.8993V86.4903H70.5747V83.8993C67.4286 83.5292 64.4675 82.2338 61.6916 79.8279L64.2825 76.6818C66.3182 78.3474 68.3539 79.4578 70.5747 79.8279V72.7955C65.763 71.6851 62.6169 70.0195 62.6169 65.5779C62.6169 61.1364 66.1331 58.5455 70.5747 58.1753V56.3247H72.9805V58.1753C75.5714 58.3604 78.1623 59.2857 80.5682 60.9513L78.1623 64.2825C76.4968 63.1721 74.8312 62.4318 72.9805 62.2468V69.0942H73.1656C77.7922 70.2045 81.3084 71.8701 81.3084 76.6818C81.3084 81.1234 77.6071 83.7143 72.9805 83.8993Z" fill="#333399"/>
<path d="M71.5 43C55.7695 43 43 55.7695 43 71.5C43 87.2305 55.7695 100 71.5 100C87.2305 100 100 87.2305 100 71.5C100 55.7695 87.2305 43 71.5 43ZM72.9805 83.8993V86.4903H70.5747V83.8993C67.4286 83.5292 64.4675 82.2338 61.6916 79.8279L64.2825 76.6818C66.3182 78.3474 68.3539 79.4578 70.5747 79.8279V72.7955C65.763 71.6851 62.6169 70.0195 62.6169 65.5779C62.6169 61.1364 66.1331 58.5455 70.5747 58.1753V56.3247H72.9805V58.1753C75.5714 58.3604 78.1623 59.2857 80.5682 60.9513L78.1623 64.2825C76.4968 63.1721 74.8312 62.4318 72.9805 62.2468V69.0942H73.1656C77.7922 70.2045 81.3084 71.8701 81.3084 76.6818C81.3084 81.1234 77.6071 83.7143 72.9805 83.8993Z" fill="#333399"/>
</svg>
