<svg width="100" height="100" viewBox="0 0 100 100" fill="none" xmlns="http://www.w3.org/2000/svg">
<g clip-path="url(#clip0)">
<path d="M85.6398 74.2082H0V25.1922C0 23.728 1.19383 22.541 2.66653 22.541H82.9733C84.446 22.541 85.6398 23.728 85.6398 25.1922V74.2082Z" fill="#4C4A58"/>
<path d="M85.6398 74.2082H0V84.2368C0 86.4331 1.79064 88.2136 3.99979 88.2136H81.64C83.8489 88.2136 85.6398 86.4331 85.6398 84.2368V74.2082Z" fill="#4C4A58"/>
<path d="M83.0507 25.0758H2.57617V71.6691H83.0507V25.0758Z" fill="#333399"/>
<path d="M42.8199 85.9838C45.4699 85.9838 47.6183 83.8479 47.6183 81.2131C47.6183 78.5783 45.4699 76.4424 42.8199 76.4424C40.1698 76.4424 38.0215 78.5783 38.0215 81.2131C38.0215 83.8479 40.1698 85.9838 42.8199 85.9838Z" fill="#242424"/>
<path d="M57.7863 96.2747C55.1281 93.6604 54.1224 90.307 53.7406 88.2136H31.8993C31.5175 90.307 30.5116 93.6607 27.8534 96.2747C27.2103 96.9073 27.68 98 28.5849 98H57.0547C57.9597 97.9998 58.4296 96.9071 57.7863 96.2747Z" fill="#242424"/>
<path d="M67.5093 10.2034H99.9934V5.65115C99.9934 4.18695 98.7996 3 97.3269 3H70.1758C68.7031 3 67.5093 4.18695 67.5093 5.65115V10.2034Z" fill="#4C4A58"/>
<path d="M70.1758 57.4988H97.3269C98.7996 57.4988 99.9934 56.3118 99.9934 54.8476V49.4294H67.5093V54.8476C67.5093 56.3118 68.7031 57.4988 70.1758 57.4988Z" fill="#4C4A58"/>
<path d="M100 10.203H67.5156V49.429H100V10.203Z" fill="#7575CD"/>
<path d="M83.7548 56.0382C85.1818 56.0382 86.3387 54.888 86.3387 53.4692C86.3387 52.0504 85.1818 50.9002 83.7548 50.9002C82.3277 50.9002 81.1709 52.0504 81.1709 53.4692C81.1709 54.888 82.3277 56.0382 83.7548 56.0382Z" fill="#242424"/>
<path d="M89.3954 7.70279H78.1064C77.5542 7.70279 77.1064 7.2576 77.1064 6.70861V6.49482C77.1064 5.94583 77.5542 5.50064 78.1064 5.50064H89.3954C89.9475 5.50064 90.3953 5.94583 90.3953 6.49482V6.70861C90.3953 7.2576 89.9475 7.70279 89.3954 7.70279Z" fill="#242424"/>
</g>
<defs>
<clipPath id="clip0">
<rect width="100" height="100" fill="white"/>
</clipPath>
</defs>
</svg>
