<svg width="100" height="100" viewBox="0 0 100 100" fill="none" xmlns="http://www.w3.org/2000/svg">
<path d="M84.1066 59.0526C84.1066 55.7895 81.475 53.1579 78.2119 53.1579H59.6855C58.6329 53.1579 57.7908 52.3158 58.0013 51.1579C59.2645 43.0526 60.9487 40.3158 61.6856 32C62.5277 24 51.054 22.5263 49.3698 30C46.3171 43.8947 34.7382 53.2632 30.9487 56C30.2119 56.5263 29.6855 57.4737 29.6855 58.4211V91.6842C29.6855 92.8421 30.4224 94 31.475 94.4211C35.5803 96.1053 40.2119 100 53.8961 100C62.3171 100 75.2645 100 75.2645 100C78.5277 100 81.1592 97.3684 81.1592 94.1053C81.1592 90.8421 78.5277 88.2105 75.2645 88.2105H76.0013C78.9487 88.2105 81.6855 86.1053 82.0013 83.1579C82.4224 79.579 79.6855 76.5263 76.2119 76.5263H76.9487C79.8961 76.5263 82.6329 74.4211 82.9487 71.4737C83.3698 67.8947 80.6329 64.8421 77.1592 64.8421H78.1066C81.475 64.8421 84.1066 62.2105 84.1066 59.0526Z" fill="#F0DED0"/>
<path d="M21.3684 56.7368H6.94737C5.26316 56.7368 4 58.1052 4 59.6842V90.6315C4 92.3158 5.36842 93.5789 6.94737 93.5789H21.3684C23.0526 93.5789 24.3158 92.2105 24.3158 90.6315V59.7894C24.3158 58.1052 23.0526 56.7368 21.3684 56.7368Z" fill="#FFCD6B"/>
<path d="M92.6327 22.1053C90.6327 19.8947 87.7906 18.6316 84.7379 18.6316H81.6853C80.7379 18.6316 79.8958 18.2105 79.2642 17.5789C78.6327 16.9474 78.3169 16 78.4221 15.0526C78.6327 13.4737 80.1063 12.2105 81.8958 12.2105H85.4748C86.4221 12.2105 87.159 12.8421 87.3695 13.7895C87.4748 14.5263 88.2116 15.0526 88.9485 15.0526H93.0537C93.4748 15.0526 94.0011 14.8421 94.3169 14.5263C94.6327 14.2105 94.7379 13.6842 94.7379 13.2632C94.3169 8.94737 91.0537 5.57895 86.8432 4.94737V1.68421C86.8432 0.736842 86.1063 0 85.159 0H81.0537C80.1063 0 79.3695 0.736842 79.3695 1.68421V5.05263C74.1063 6.10526 70.4221 11.0526 70.9484 16.4211C71.4748 21.7895 76.3169 26 81.8958 26H84.5274C85.4748 26 86.3169 26.4211 86.9484 27.0526C87.58 27.7895 87.8958 28.6316 87.7905 29.5789C87.58 31.1579 86.1063 32.4211 84.3169 32.4211H80.7379C79.7906 32.4211 79.0537 31.7895 78.8432 30.8421C78.6327 30.1053 78.0011 29.5789 77.2642 29.5789H73.159C72.7379 29.5789 72.2116 29.7895 71.8958 30.1053C71.58 30.4211 71.4748 30.8421 71.4748 31.3684C71.8958 35.6842 75.159 39.0526 79.3695 39.6842V42.9474C79.3695 43.8947 80.1063 44.6316 81.0537 44.6316H85.159C86.1063 44.6316 86.8432 43.8947 86.8432 42.9474V39.4737C91.3695 38.4211 94.8432 34.7368 95.2642 30.2105C95.58 27.2632 94.6327 24.3158 92.6327 22.1053Z" fill="#FFCD6B"/>
</svg>
