<svg width="100" height="100" viewBox="0 0 100 100" fill="none" xmlns="http://www.w3.org/2000/svg">
<path d="M88 85.1562V100H76.3077L73.3846 94.1406L70.4615 100H58.7692L55.8462 94.1406H44.1538L41.2308 100H29.5385L26.6154 94.1406L23.6923 100H12V85.1562C12 76.9529 17.7877 69.8633 25.7969 68.2813L44.1538 64.6484H55.8462L74.2031 68.2813C82.2123 69.8633 88 76.9529 88 85.1562Z" fill="#FFCD6B"/>
<path d="M70.4621 17.7734V38.2812C70.4621 47.5389 64.2652 55.2732 55.8468 57.8514V64.6484L50.0006 70.5078L44.1544 64.6484V57.8514C35.736 55.2732 29.5391 47.5389 29.5391 38.2812V23.6328L48.7727 17.7734L54.6189 11.9141L70.4621 17.7734Z" fill="#F0DED0"/>
<path d="M70.4621 14.8438V17.7734H54.6189L48.7727 23.6328H29.5391V14.8438C29.5391 6.75781 36.0868 0 44.1544 0H55.8468C63.9144 0 70.4621 6.75781 70.4621 14.8438Z" fill="#242424"/>
<path d="M58.7689 100H41.2305L44.1535 76.3672L49.9997 70.5078L55.8459 76.3672L58.7689 100Z" fill="#4C4A58"/>
<path d="M29.5376 82.2266H23.6914V100H29.5376V82.2266Z" fill="#4C4A58"/>
<path d="M76.3071 82.2266H70.4609V100H76.3071V82.2266Z" fill="#4C4A58"/>
<path d="M55.8466 64.6484H44.1543V76.3672H55.8466V64.6484Z" fill="#242424"/>
<circle cx="82" cy="82" r="18" fill="#E2A42B"/>
<path d="M72 79.5L80.0851 89L92 75" stroke="white" stroke-width="4" stroke-linecap="round" stroke-linejoin="round"/>
</svg>
