<svg width="100" height="100" viewBox="0 0 100 100" fill="none" xmlns="http://www.w3.org/2000/svg">
<path d="M88 85.1562V100H76.3077L73.3846 94.1406L70.4615 100H58.7692L55.8462 94.1406H44.1538L41.2308 100H29.5385L26.6154 94.1406L23.6923 100H12V85.1562C12 76.9529 17.7877 69.8633 25.7969 68.2813L44.1538 64.6484H55.8462L74.2031 68.2813C82.2123 69.8633 88 76.9529 88 85.1562Z" fill="#333399"/>
<path d="M70.4617 17.7734V38.2812C70.4617 47.5389 64.2647 55.2732 55.8463 57.8514V64.6484L50.0001 70.5078L44.154 64.6484V57.8514C35.7355 55.2732 29.5386 47.5389 29.5386 38.2812V23.6328L48.7722 17.7734L54.6184 11.9141L70.4617 17.7734Z" fill="#F0DED0"/>
<path d="M70.4617 14.8438V17.7734H54.6184L48.7722 23.6328H29.5386V14.8438C29.5386 6.75781 36.0863 0 44.154 0H55.8463C63.914 0 70.4617 6.75781 70.4617 14.8438Z" fill="#242424"/>
<path d="M58.7692 100H41.2307L44.1538 76.3672L49.9999 70.5078L55.8461 76.3672L58.7692 100Z" fill="#4C4A58"/>
<path d="M29.5385 82.2266H23.6924V100H29.5385V82.2266Z" fill="#161667"/>
<path d="M76.3076 82.2266H70.4614V100H76.3076V82.2266Z" fill="#161667"/>
<path d="M55.8461 64.6484H44.1538V76.3672H55.8461V64.6484Z" fill="#242424"/>
</svg>
