<svg width="100" height="100" viewBox="0 0 100 100" fill="none" xmlns="http://www.w3.org/2000/svg">
<path d="M47.0703 72.2656H52.9297V85.3516H47.0703V72.2656Z" fill="#E5E4FF"/>
<path d="M58.7891 91.2109C58.7891 96.0566 54.8457 100 50 100H49.9434C45.123 99.9688 41.2109 96.0371 41.2109 91.2109C41.2109 86.3848 45.123 82.4531 49.9434 82.4219H50C54.8457 82.4219 58.7891 86.3652 58.7891 91.2109Z" fill="#242424"/>
<path d="M3.90625 11.7188H96.0938V72.2656H3.90625V11.7188Z" fill="#E5E4FF"/>
<path d="M0 2C0 0.89543 0.895431 0 2 0H98C99.1046 0 100 0.895431 100 2V15.5781C100 16.6827 99.1046 17.5781 98 17.5781H2C0.895429 17.5781 0 16.6827 0 15.5781V2Z" fill="#242424"/>
<path d="M0 72.2656C0 70.6476 1.31167 69.3359 2.92969 69.3359H97.0703C98.6883 69.3359 100 70.6476 100 72.2656C100 73.8836 98.6883 75.1953 97.0703 75.1953H2.92969C1.31167 75.1953 0 73.8836 0 72.2656Z" fill="#4C4A58"/>
<path d="M31.2754 43.7363C31.2754 54.0293 39.6504 62.4043 49.9434 62.4043L59.709 43.7363L49.9434 25.0684C39.6504 25.0684 31.2754 33.4414 31.2754 43.7363Z" fill="#333399"/>
<path d="M68.6113 43.7363C68.6113 54.0293 60.2363 62.4043 49.9434 62.4043V43.7363L59.709 37.877L68.6113 43.7363Z" fill="#7575CD"/>
<path d="M68.6113 43.7363H49.9434V25.0684C60.2363 25.0684 68.6113 33.4414 68.6113 43.7363Z" fill="#6262C0"/>
<path d="M15.4766 26.4082C15.4766 24.7902 16.7882 23.4785 18.4063 23.4785H24.2656C25.8836 23.4785 27.1953 24.7902 27.1953 26.4082C27.1953 28.0262 25.8836 29.3379 24.2656 29.3379H18.4063C16.7882 29.3379 15.4766 28.0262 15.4766 26.4082Z" fill="#242424"/>
<path d="M72.613 60.5701C72.613 58.9521 73.9247 57.6404 75.5427 57.6404H81.4021C83.0201 57.6404 84.3318 58.9521 84.3318 60.5701C84.3318 62.1882 83.0201 63.4998 81.4021 63.4998H75.5427C73.9247 63.4998 72.613 62.1882 72.613 60.5701Z" fill="#242424"/>
</svg>
