<svg width="100" height="100" viewBox="0 0 100 100" fill="none" xmlns="http://www.w3.org/2000/svg">
<path d="M46 2C46 0.89543 46.8954 0 48 0H52C53.1046 0 54 0.895431 54 2V7H46V2Z" fill="#4C4A58"/>
<rect x="7" y="21" width="86" height="55" rx="2" fill="#E5E4FF"/>
<rect x="25" y="53" width="7" height="12" fill="#7575CD"/>
<rect x="39" y="36" width="7" height="29" fill="#6262C0"/>
<rect x="53" y="47" width="7" height="18" fill="#7575CD"/>
<rect x="67" y="29" width="7" height="36" fill="#333399"/>
<rect x="7" y="7" width="86" height="7" rx="2" fill="#242424"/>
<rect x="46" y="82" width="8" height="18" rx="1" fill="#4C4A58"/>
<path d="M30.7071 82.2929C30.8946 82.1054 31.149 82 31.4142 82H38.6801C39.5573 82 40.0094 83.0489 39.4071 83.6866L24.296 99.6866C24.1071 99.8866 23.8441 100 23.569 100H15.4142C14.5233 100 14.0771 98.9229 14.7071 98.2929L30.7071 82.2929Z" fill="#242424"/>
<path d="M60.5929 83.6866C59.9906 83.0489 60.4427 82 61.3199 82H69.569C69.8441 82 70.1071 82.1134 70.296 82.3134L85.4071 98.3134C86.0094 98.9511 85.5573 100 84.6801 100H76.431C76.1559 100 75.8929 99.8866 75.704 99.6866L60.5929 83.6866Z" fill="#242424"/>
</svg>
