<svg width="100" height="100" viewBox="0 0 100 100" fill="none" xmlns="http://www.w3.org/2000/svg">
<path d="M62.3459 86.9801C60.4932 85.7478 59.3648 83.568 59.3648 81.2206V75.3469L58.5096 74.5327H42.3125L40.6357 75.3469V81.2206C40.6357 83.568 39.5076 85.7478 37.6547 86.9801L33.5029 89.7415L34.365 90.5322H65.8035L66.498 89.7415L62.3459 86.9801Z" fill="#4C4A58"/>
<path d="M94.2014 4H5.79863C2.60117 4 0 6.59358 0 9.78172V69.565C0 72.7532 2.60117 75.3467 5.79863 75.3467H94.2014C97.3988 75.3467 100 72.7532 100 69.565V9.78172C100 6.59358 97.3988 4 94.2014 4Z" fill="#242424"/>
<path d="M92.8145 16.8548H7.70449L6.27637 17.6992V68.2566C6.27637 68.7162 6.6498 69.0885 7.11074 69.0885H13.1764L14.2939 67.8624H49.9996L51.3137 69.0885H92.8885C93.3492 69.0885 93.7229 68.7162 93.7229 68.2566C93.7229 42.0146 93.7229 44.1499 93.7229 17.6992L92.8145 16.8548Z" fill="#E5E4FF"/>
<path d="M69.9533 89.7415H30.0471C28.9359 89.7415 28.0352 90.6397 28.0352 91.7476V93.9939C28.0352 95.102 28.9359 96 30.0471 96H69.9533C71.0645 96 71.9652 95.1018 71.9652 93.9939V91.7476C71.9652 90.6395 71.0645 89.7415 69.9533 89.7415Z" fill="#242424"/>
<path d="M15.3377 10.2584H7.11074C6.65 10.2584 6.27637 10.6308 6.27637 11.0904V17.6992H15.3377L15.7023 17.4067V10.7611L15.3377 10.2584Z" fill="#333399"/>
<path d="M92.8887 10.2584H15.3379V17.6992H93.723C93.723 14.2166 93.723 11.7907 93.723 11.0904C93.723 10.6308 93.3494 10.2584 92.8887 10.2584Z" fill="#9E9EE4"/>
<path d="M59.6002 28.5834H57.5493C56.7159 28.5834 56.0403 27.9098 56.0403 27.0788C56.0403 26.2478 56.7159 25.5742 57.5493 25.5742H59.6002C60.4336 25.5742 61.1092 26.2478 61.1092 27.0788C61.1092 27.9098 60.4336 28.5834 59.6002 28.5834Z" fill="#4C4A58"/>
<path d="M59.6 34.8471H57.549C56.7156 34.8471 56.04 34.1735 56.04 33.3425C56.04 32.5116 56.7156 31.838 57.549 31.838H59.6C60.4334 31.838 61.109 32.5116 61.109 33.3425C61.109 34.1735 60.4334 34.8471 59.6 34.8471Z" fill="#4C4A58"/>
<path d="M59.6 41.1108H57.549C56.7156 41.1108 56.04 40.4372 56.04 39.6062C56.04 38.7752 56.7156 38.1016 57.549 38.1016H59.6C60.4334 38.1016 61.109 38.7752 61.109 39.6062C61.109 40.4372 60.4334 41.1108 59.6 41.1108Z" fill="#4C4A58"/>
<path d="M59.6 47.3747H57.549C56.7156 47.3747 56.04 46.7011 56.04 45.8701C56.04 45.039 56.7156 44.3655 57.549 44.3655H59.6C60.4334 44.3655 61.109 45.0392 61.109 45.8701C61.109 46.7011 60.4334 47.3747 59.6 47.3747Z" fill="#4C4A58"/>
<path d="M59.6 53.5613H57.549C56.7156 53.5613 56.04 52.8877 56.04 52.0567C56.04 51.2257 56.7156 50.5521 57.549 50.5521H59.6C60.4334 50.5521 61.109 51.2257 61.109 52.0567C61.109 52.8877 60.4334 53.5613 59.6 53.5613Z" fill="#4C4A58"/>
<path d="M59.6 59.825H57.549C56.7156 59.825 56.04 59.1514 56.04 58.3204C56.04 57.4895 56.7156 56.8159 57.549 56.8159H59.6C60.4334 56.8159 61.109 57.4895 61.109 58.3204C61.109 59.1514 60.4334 59.825 59.6 59.825Z" fill="#4C4A58"/>
<path d="M84.2807 28.5834H65.3283C64.4949 28.5834 63.8193 27.9098 63.8193 27.0788C63.8193 26.2478 64.4949 25.5742 65.3283 25.5742H84.2807C85.1141 25.5742 85.7896 26.2478 85.7896 27.0788C85.7896 27.9098 85.1141 28.5834 84.2807 28.5834Z" fill="#8787ED"/>
<path d="M84.2807 34.8471H65.3283C64.4949 34.8471 63.8193 34.1734 63.8193 33.3425C63.8193 32.5115 64.4949 31.8379 65.3283 31.8379H84.2807C85.1141 31.8379 85.7896 32.5115 85.7896 33.3425C85.7896 34.1734 85.1141 34.8471 84.2807 34.8471Z" fill="#8787ED"/>
<path d="M84.2807 41.1108H65.3283C64.4949 41.1108 63.8193 40.4372 63.8193 39.6062C63.8193 38.7752 64.4949 38.1016 65.3283 38.1016H84.2807C85.1141 38.1016 85.7896 38.7752 85.7896 39.6062C85.7896 40.4372 85.1141 41.1108 84.2807 41.1108Z" fill="#8787ED"/>
<path d="M84.2807 47.3746H65.3283C64.4949 47.3746 63.8193 46.701 63.8193 45.8701C63.8193 45.0389 64.4949 44.3655 65.3283 44.3655H84.2807C85.1141 44.3655 85.7896 45.0391 85.7896 45.8701C85.7896 46.701 85.1141 47.3746 84.2807 47.3746Z" fill="#8787ED"/>
<path d="M84.2807 53.5612H65.3283C64.4949 53.5612 63.8193 52.8876 63.8193 52.0566C63.8193 51.2257 64.4949 50.5521 65.3283 50.5521H84.2807C85.1141 50.5521 85.7896 51.2257 85.7896 52.0566C85.7896 52.8876 85.1141 53.5612 84.2807 53.5612Z" fill="#8787ED"/>
<path d="M84.2807 59.825H65.3283C64.4949 59.825 63.8193 59.1513 63.8193 58.3204C63.8193 57.4894 64.4949 56.8158 65.3283 56.8158H84.2807C85.1141 56.8158 85.7896 57.4894 85.7896 58.3204C85.7896 59.1513 85.1141 59.825 84.2807 59.825Z" fill="#8787ED"/>
<path d="M47.2777 56.0068C46.8908 55.8573 41.1996 53.6598 38.384 52.5725C37.0523 54.4709 34.8465 55.7167 32.3518 55.7167C29.5838 55.7167 27.3887 54.4236 26.0887 52.5505L17.2131 56.0068C15.4875 56.7149 13.1768 58.943 13.1768 62.2491V69.0883H51.3139V62.2491C51.3141 59.4018 49.4857 56.913 47.2777 56.0068Z" fill="#333399"/>
<path d="M21.6137 69.0883V62.2063C21.6137 61.3751 20.9381 60.7017 20.1047 60.7017C19.2713 60.7017 18.5957 61.3753 18.5957 62.2063V69.0883H21.6137Z" fill="#1F1F8D"/>
<path d="M45.8959 69.0883V62.2063C45.8959 61.3751 45.2203 60.7017 44.3869 60.7017C43.5535 60.7017 42.8779 61.3753 42.8779 62.2063V69.0883H45.8959Z" fill="#1F1F8D"/>
<path d="M36.3725 51.2878L36.3717 48.5279C35.1977 49.2305 33.825 49.6356 32.359 49.6356C30.7414 49.6356 29.308 49.2189 28.1147 48.5143V51.2831C28.1147 51.5897 27.9668 51.7704 27.7967 51.8855L25.8779 52.6327C27.1436 54.6769 29.4297 56.1178 32.3525 56.1178C34.9846 56.1178 37.2971 54.7322 38.5984 52.6551C37.6463 52.2874 36.9719 52.0269 36.8498 51.9799C36.5635 51.8695 36.3734 51.5951 36.3725 51.2878Z" fill="#FFCEBE"/>
<path d="M37.5826 34.1571C37.5826 34.0136 37.39 33.9643 37.3223 34.0907C36.4473 35.7226 34.7227 36.8335 32.7369 36.8335H24.3105V42.2378C24.3105 46.3139 27.5137 50.0368 32.3588 50.0368C36.6719 50.0368 40.1807 46.5381 40.1807 42.2378V36.829C38.7441 36.783 37.5826 35.6001 37.5826 34.1571Z" fill="#FFDECF"/>
<path d="M39.2334 27.7751C38.5301 27.8291 37.885 27.3882 37.7496 26.698C37.5217 25.5356 36.9445 24.3821 34.69 24.3821H26.868C23.9973 24.3821 21.6699 26.7025 21.6699 29.565V35.2531C21.6699 36.4583 22.6498 37.4354 23.8586 37.4354H32.7363C34.7221 37.4354 36.4467 36.3245 37.3217 34.6926C37.3895 34.566 37.582 34.6155 37.582 34.759C37.582 36.2311 38.7898 37.4354 40.2662 37.4354C41.04 37.4354 41.6732 36.804 41.6732 36.0324V30.0967C41.6732 28.6982 40.4496 27.6819 39.2334 27.7751Z" fill="#242424"/>
</svg>
