<svg width="100" height="100" viewBox="0 0 100 100" fill="none" xmlns="http://www.w3.org/2000/svg">
<rect x="4" y="6" width="89" height="45" fill="white"/>
<path d="M78.2832 23.0308H73.9316V37.1299H78.2832V23.0308Z" fill="#FFCD6B"/>
<path d="M98.9533 0V60.1607H66.0444L54.5 73L49.5 65.5L54.9588 60.1607L46 60.5L39.2138 50.3696H83.0265C83.9295 47.4649 86.2358 45.1477 89.1405 44.2556V15.905C86.2249 15.0021 83.9186 12.6957 83.0265 9.79107H17.905C17.0021 12.7066 14.6957 15.013 11.7911 15.905V44.2556C14.7066 45.1586 17.013 47.4649 17.905 50.3696H27.2098L34.8923 60.1607H2V0H98.9533Z" fill="#FFCD6B"/>
<path d="M45.501 73.0001L37.0965 86.0415L35.7802 83.9419C35.3885 83.3218 34.9207 82.7343 34.3877 82.2122C32.4947 80.3301 29.9926 79.2857 27.3272 79.2857H27.2511C24.564 79.3075 22.04 80.3736 20.158 82.3101C16.4265 86.1503 16.4265 92.3949 20.158 96.2243C22.04 98.1607 24.5531 99.2268 27.2511 99.2486C27.2728 99.2486 27.2946 99.2486 27.3272 99.2486C29.9926 99.2486 32.4947 98.2151 34.3877 96.3222C35.5082 95.2016 36.3241 93.8744 36.8137 92.384L36.9333 92.0141L50.501 78.0001L45.501 73.0001ZM30.852 92.7974C28.9047 94.7447 25.7607 94.7447 23.8133 92.7974C21.866 90.85 21.866 87.706 23.8133 85.7587C25.7607 83.8114 28.9047 83.8114 30.852 85.7587C32.7993 87.6951 32.7993 90.85 30.852 92.7974Z" fill="#242424"/>
<path d="M80.7849 82.3211C78.9029 80.3846 76.3898 79.3185 73.7027 79.2967C71.0047 79.275 68.4808 80.3194 66.577 82.2232C66.0439 82.7563 65.5761 83.3437 65.1845 83.9638L63.8573 86.0417L57.1884 76.3921L48.4962 63.7942L45.994 60.1715L40.9353 52.8391L40.2717 52.0123H40.3696L39.2382 50.3805L22.5933 26.2836L19.9498 34.0947C18.9271 37.119 19.4928 40.4262 21.4511 42.9501L27.2495 50.3805L34.2991 59.41L44.7212 72.7476L52.7716 80.8089L63.9987 92.036L64.1183 92.4059C64.6079 93.8963 65.4238 95.2235 66.5444 96.3441C68.4482 98.2479 70.983 99.2923 73.6701 99.2705C76.3681 99.2488 78.8811 98.1826 80.7632 96.2462C84.5164 92.395 84.5164 86.1505 80.7849 82.3211ZM77.1405 92.7975C75.1931 94.7449 72.0491 94.7449 70.1018 92.7975C68.1544 90.8502 68.1544 87.6953 70.1018 85.7588C72.0491 83.8115 75.1931 83.8115 77.1405 85.7588C79.0878 87.6953 79.0878 90.8502 77.1405 92.7975Z" fill="#4C4A58"/>
<path d="M35 28.668C35 37.3068 42.0291 44.3359 50.668 44.3359L58.8642 28.668L50.668 13C42.0291 13 35 20.0275 35 28.668Z" fill="#FFCD6B"/>
<path d="M66.3359 28.668C66.3359 37.3069 59.3068 44.336 50.668 44.336V28.668L58.8642 23.7502L66.3359 28.668Z" fill="#E2A42B"/>
<path d="M66.3359 28.668H50.668V13C59.3068 13 66.3359 20.0275 66.3359 28.668Z" fill="#FFBD3D"/>
</svg>
