<svg width="100" height="100" viewBox="0 0 100 100" fill="none" xmlns="http://www.w3.org/2000/svg">
<rect x="4" y="6" width="89" height="45" fill="#E5E4FF"/>
<path d="M78.2832 23.0308H73.9316V37.1299H78.2832V23.0308Z" fill="#333399"/>
<path d="M98.9533 0V60.1607H66.0444L54.5 73L49.5 65.5L54.9588 60.1607L46 60.5L39.2138 50.3696H83.0265C83.9295 47.4649 86.2358 45.1477 89.1405 44.2556V15.905C86.2249 15.0021 83.9186 12.6957 83.0265 9.79107H17.905C17.0021 12.7066 14.6957 15.013 11.7911 15.905V44.2556C14.7066 45.1586 17.013 47.4649 17.905 50.3696H27.2098L34.8923 60.1607H2V0H98.9533Z" fill="#333399"/>
<path d="M45.5 73.0001L37.0956 86.0415L35.7792 83.9419C35.3876 83.3218 34.9198 82.7343 34.3867 82.2122C32.4938 80.3301 29.9916 79.2857 27.3262 79.2857H27.2501C24.563 79.3075 22.0391 80.3736 20.157 82.3101C16.4255 86.1503 16.4255 92.3949 20.157 96.2243C22.0391 98.1607 24.5521 99.2268 27.2501 99.2486C27.2719 99.2486 27.2936 99.2486 27.3262 99.2486C29.9916 99.2486 32.4938 98.2151 34.3867 96.3222C35.5072 95.2016 36.3232 93.8744 36.8127 92.384L36.9324 92.0141L50.5 78.0001L45.5 73.0001ZM30.851 92.7974C28.9037 94.7447 25.7597 94.7447 23.8123 92.7974C21.865 90.85 21.865 87.706 23.8123 85.7587C25.7597 83.8114 28.9037 83.8114 30.851 85.7587C32.7984 87.6951 32.7984 90.85 30.851 92.7974Z" fill="#242424"/>
<path d="M80.7859 82.3211C78.9038 80.3846 76.3908 79.3185 73.7037 79.2967C71.0057 79.275 68.4818 80.3194 66.578 82.2232C66.0449 82.7563 65.5771 83.3437 65.1855 83.9638L63.8582 86.0417L57.1894 76.3921L48.4971 63.7942L45.995 60.1715L40.9363 52.8391L40.2726 52.0123H40.3705L39.2391 50.3805L22.5943 26.2836L19.9507 34.0947C18.9281 37.119 19.4938 40.4262 21.452 42.9501L27.2505 50.3805L34.3001 59.41L44.7221 72.7476L52.7726 80.8089L63.9997 92.036L64.1193 92.4059C64.6089 93.8963 65.4248 95.2235 66.5453 96.3441C68.4491 98.2479 70.9839 99.2923 73.6711 99.2705C76.369 99.2488 78.8821 98.1826 80.7641 96.2462C84.5174 92.395 84.5174 86.1505 80.7859 82.3211ZM77.1414 92.7975C75.1941 94.7449 72.0501 94.7449 70.1028 92.7975C68.1554 90.8502 68.1554 87.6953 70.1028 85.7588C72.0501 83.8115 75.1941 83.8115 77.1414 85.7588C79.0888 87.6953 79.0888 90.8502 77.1414 92.7975Z" fill="#4C4A58"/>
<path d="M35 28.668C35 37.3068 42.0291 44.3359 50.668 44.3359L58.8642 28.668L50.668 13C42.0291 13 35 20.0275 35 28.668Z" fill="#333399"/>
<path d="M66.3359 28.668C66.3359 37.3069 59.3068 44.336 50.668 44.336V28.668L58.8642 23.7502L66.3359 28.668Z" fill="#7575CD"/>
<path d="M66.3359 28.668H50.668V13C59.3068 13 66.3359 20.0275 66.3359 28.668Z" fill="#6262C0"/>
</svg>
