<svg width="100" height="100" viewBox="0 0 100 100" fill="none" xmlns="http://www.w3.org/2000/svg">
<path d="M6 72.0803V67.6862C6 66.9697 6.57718 66.389 7.28932 66.389H93.7107C94.4228 66.389 95 66.9697 95 67.6862V72.0803C95 72.7967 94.4228 73.3774 93.7107 73.3774H7.28932C6.57718 73.3776 6 72.7967 6 72.0803Z" fill="#242424"/>
<path d="M90.4418 66.3892H76.5491V2.16192C76.5491 0.96785 77.5111 0 78.698 0H88.2929C89.4798 0 90.4418 0.96785 90.4418 2.16192V66.3892Z" fill="#333399"/>
<path d="M68.445 66.3893H54.5522V15.7018C54.5522 14.5077 55.5143 13.5399 56.7012 13.5399H66.2961C67.483 13.5399 68.445 14.5077 68.445 15.7018V66.3893Z" fill="#4C4CAE"/>
<path d="M46.4479 66.3892H32.5552V25.0923C32.5552 23.8983 33.5172 22.9304 34.7041 22.9304H44.299C45.4859 22.9304 46.4479 23.8983 46.4479 25.0923V66.3892Z" fill="#6262C0"/>
<path d="M24.4511 66.3892H10.5583V36.0117C10.5583 34.8176 11.5204 33.8498 12.7073 33.8498H22.3022C23.4891 33.8498 24.4511 34.8176 24.4511 36.0117V66.3892Z" fill="#7575CD"/>
<path d="M64.3637 92.1382H55.6372C54.4503 92.1382 53.4883 91.1703 53.4883 89.9763V84.2762H66.5127V89.9763C66.5124 91.1701 65.5504 92.1382 64.3637 92.1382Z" fill="#242424"/>
<path d="M62.6187 100H57.3828C56.6707 100 56.0935 99.4193 56.0935 98.7029V92.1382H63.908V98.7029C63.908 99.4193 63.3307 100 62.6187 100Z" fill="#4C4A58"/>
<path fill-rule="evenodd" clip-rule="evenodd" d="M86.0496 58.9436C86.0496 73.4169 74.3872 85.1499 60.0009 85.1499C45.6146 85.1499 33.9521 73.4169 33.9521 58.9436C33.9521 44.4703 45.6146 32.7374 60.0009 32.7374C74.3872 32.7374 86.0496 44.4703 86.0496 58.9436ZM79.1031 58.9436C79.1031 69.5573 70.5507 78.1614 60.0007 78.1614C49.4508 78.1614 40.8984 69.5573 40.8984 58.9436C40.8984 48.3298 49.4508 39.7257 60.0007 39.7257C70.5507 39.7257 79.1031 48.3298 79.1031 58.9436Z" fill="#4C4A58"/>
<mask id="mask0" mask-type="alpha" maskUnits="userSpaceOnUse" x="40" y="39" width="40" height="40">
<path d="M60.0008 78.1614C70.5508 78.1614 79.1032 69.5573 79.1032 58.9436C79.1032 48.3298 70.5508 39.7257 60.0008 39.7257C49.4509 39.7257 40.8984 48.3298 40.8984 58.9436C40.8984 69.5573 49.4509 78.1614 60.0008 78.1614Z" fill="#E4F6FF"/>
</mask>
<g mask="url(#mask0)">
<path d="M-9.85229 73.2917V67.7235C-9.85229 66.8156 -9.1209 66.0798 -8.21849 66.0798H101.294C102.196 66.0798 102.927 66.8156 102.927 67.7235V73.2917C102.927 74.1995 102.196 74.9354 101.294 74.9354H-8.21849C-9.1209 74.9356 -9.85229 74.1995 -9.85229 73.2917Z" fill="#242424"/>
<path d="M69.2771 66.0801H51.6724V1.84955C51.6724 0.336434 52.8914 -0.890015 54.3955 -0.890015H66.554C68.058 -0.890015 69.2771 0.336434 69.2771 1.84955V66.0801Z" fill="#4C4CAE"/>
<path d="M41.4026 66.0801H23.7979V13.7491C23.7979 12.236 25.0169 11.0096 26.5209 11.0096H38.6795C40.1835 11.0096 41.4026 12.236 41.4026 13.7491V66.0801Z" fill="#6262C0"/>
</g>
<path d="M16.5114 3.24289H12.1699C11.2799 3.24289 10.5583 2.517 10.5583 1.62155C10.5583 0.726098 11.2799 0 12.1699 0H16.5114C17.4015 0 18.123 0.725888 18.123 1.62134C18.123 2.51679 17.4015 3.24289 16.5114 3.24289Z" fill="#4C4A58"/>
<path d="M38.6535 3.24289H23.4583C22.5682 3.24289 21.8467 2.517 21.8467 1.62155C21.8467 0.726098 22.5684 0 23.4585 0H38.6537C39.5438 0 40.2653 0.725888 40.2653 1.62134C40.2653 2.51679 39.5438 3.24289 38.6535 3.24289Z" fill="#4C4A58"/>
<path d="M16.5114 10.2313H12.1699C11.2799 10.2313 10.5583 9.50538 10.5583 8.60992C10.5583 7.71447 11.2799 6.98859 12.1699 6.98859H16.5114C17.4015 6.98859 18.123 7.71447 18.123 8.60992C18.123 9.50538 17.4015 10.2313 16.5114 10.2313Z" fill="#4C4A58"/>
<path d="M38.6535 10.2313H23.4583C22.5682 10.2313 21.8467 9.50538 21.8467 8.60992C21.8467 7.71447 22.5682 6.98859 23.4583 6.98859H38.6535C39.5436 6.98859 40.2651 7.71447 40.2651 8.60992C40.2651 9.50538 39.5438 10.2313 38.6535 10.2313Z" fill="#4C4A58"/>
<path d="M16.5114 17.2194H12.1699C11.2799 17.2194 10.5583 16.4935 10.5583 15.5981C10.5583 14.7026 11.2799 13.9767 12.1699 13.9767H16.5114C17.4015 13.9767 18.123 14.7026 18.123 15.5981C18.123 16.4935 17.4015 17.2194 16.5114 17.2194Z" fill="#4C4A58"/>
<path d="M38.6535 17.2194H23.4583C22.5682 17.2194 21.8467 16.4935 21.8467 15.5981C21.8467 14.7026 22.5682 13.9767 23.4583 13.9767H38.6535C39.5436 13.9767 40.2651 14.7026 40.2651 15.5981C40.2653 16.4935 39.5438 17.2194 38.6535 17.2194Z" fill="#4C4A58"/>
</svg>
