<svg width="100" height="100" viewBox="0 0 100 100" fill="none" xmlns="http://www.w3.org/2000/svg">
<path d="M82.4001 32.4219C82.4001 14.6521 68.0898 0 50.5001 0C32.9104 0 18.6001 14.6521 18.6001 32.4219V35.3516L24.4001 38.4047L18.6001 41.2109V80.4699H50.5001H82.4001V41.2109L76.6001 38.4047L82.4001 35.3516V32.4219Z" fill="#242424"/>
<path d="M92.0912 81.457L62.1 70.4391L54.068 83.4307L50.5 100H91.1C92.7029 100 94 98.6896 94 97.0703V84.2092C94 82.9762 93.2383 81.8775 92.0912 81.457Z" fill="#333399"/>
<path d="M8.90878 81.457C7.76173 81.8775 7 82.9762 7 84.2092V97.0703C7 98.6896 8.29707 100 9.9 100H50.5L46.4083 82.1051L38.9 70.4391L8.90878 81.457Z" fill="#333399"/>
<path d="M50.4999 52.9297H38.8999V70.4391L41.2416 76.3672L47.104 79.2969H50.4999H54.8652L59.7582 76.3672L62.0999 70.4391V52.9297H50.4999Z" fill="#FFD2C8"/>
<path d="M36.0001 47.0703H24.4001C21.1968 47.0703 18.6001 44.4471 18.6001 41.2109V35.3516C18.6001 32.1154 21.1968 29.4922 24.4001 29.4922H33.1001L36.0001 47.0703Z" fill="#333399"/>
<path d="M76.6 47.0703H65L67.9 29.4922H76.6C79.8033 29.4922 82.4 32.1154 82.4 35.3516V41.2109C82.4 44.4471 79.8033 47.0703 76.6 47.0703Z" fill="#333399"/>
<path d="M67.9 29.4922H62.1C57.344 29.4922 53.1681 27.1483 50.5 23.5154C47.8318 27.1483 43.656 29.4922 38.9 29.4922H33.1C31.4758 29.4922 30.2 30.7811 30.2 32.4219C30.2 37.757 31.0558 42.6779 32.4494 47.0703L41.8 50L34.8583 52.9297C38.5552 60.0651 44.1066 64.6484 50.5 64.6484C61.8681 64.6484 70.7999 50.4686 70.7999 32.4219C70.7999 30.7811 69.5241 29.4922 67.9 29.4922Z" fill="#FFEBDC"/>
<path d="M50.5 47.0703H32.4495C33.1186 49.1799 33.9254 51.1283 34.8584 52.9297H50.5C52.1016 52.9297 53.4 51.618 53.4 50C53.4 48.3816 52.1016 47.0703 50.5 47.0703Z" fill="#4C4A58"/>
<path d="M50.4996 76.3672H41.2412L50.4996 100L59.7579 76.3672H50.4996Z" fill="white"/>
</svg>
