<svg width="100" height="100" viewBox="0 0 100 100" fill="none" xmlns="http://www.w3.org/2000/svg">
<path d="M82.3996 32.4219C82.3996 14.6521 68.0893 0 50.4996 0C32.9099 0 18.5996 14.6521 18.5996 32.4219V35.3516L24.3996 38.4047L18.5996 41.2109V80.4699H50.4996H82.3996V41.2109L76.5996 38.4047L82.3996 35.3516V32.4219Z" fill="#414141"/>
<path d="M92.0912 81.457L62.1 70.4391L54.068 83.4307L50.5 100H91.1C92.7029 100 94 98.6896 94 97.0703V84.2092C94 82.9762 93.2383 81.8775 92.0912 81.457Z" fill="#FFCD6B"/>
<path d="M8.90878 81.457C7.76173 81.8775 7 82.9762 7 84.2092V97.0703C7 98.6896 8.29707 100 9.9 100H50.5L46.4083 82.1051L38.9 70.4391L8.90878 81.457Z" fill="#FFCD6B"/>
<path d="M50.5004 52.9297H38.9004V70.4391L41.242 76.3672L47.1045 79.2969H50.5004H54.8657L59.7587 76.3672L62.1004 70.4391V52.9297H50.5004Z" fill="#FFD2C8"/>
<path d="M35.9996 47.0703H24.3996C21.1963 47.0703 18.5996 44.4471 18.5996 41.2109V35.3516C18.5996 32.1154 21.1963 29.4922 24.3996 29.4922H33.0996L35.9996 47.0703Z" fill="#FFCD6B"/>
<path d="M76.6 47.0703H65L67.9 29.4922H76.6C79.8033 29.4922 82.4 32.1154 82.4 35.3516V41.2109C82.4 44.4471 79.8033 47.0703 76.6 47.0703Z" fill="#FFCD6B"/>
<path d="M67.8992 29.4922H62.0992C57.3432 29.4922 53.1674 27.1483 50.4992 23.5154C47.831 27.1483 43.6552 29.4922 38.8992 29.4922H33.0992C31.475 29.4922 30.1992 30.7811 30.1992 32.4219C30.1992 37.757 31.0551 42.6779 32.4487 47.0703L41.7992 50L34.8576 52.9297C38.5545 60.0651 44.1059 64.6484 50.4992 64.6484C61.8674 64.6484 70.7992 50.4686 70.7992 32.4219C70.7992 30.7811 69.5234 29.4922 67.8992 29.4922Z" fill="#FFEBDC"/>
<path d="M50.4998 47.0703H32.4492C33.1183 49.1799 33.9251 51.1283 34.8582 52.9297H50.4998C52.1014 52.9297 53.3998 51.618 53.3998 50C53.3998 48.3816 52.1014 47.0703 50.4998 47.0703Z" fill="#414141"/>
<path d="M50.5005 76.3672H41.2422L50.5005 100L59.7589 76.3672H50.5005Z" fill="#414141"/>
</svg>
