<svg width="100" height="100" viewBox="0 0 100 100" fill="none" xmlns="http://www.w3.org/2000/svg">
<path d="M1.70972 14C1.70972 12.3431 3.05286 11 4.70972 11H95.2899C96.9467 11 98.2899 12.3431 98.2899 14V72.0784C98.2899 73.7352 96.9467 75.0784 95.2899 75.0784H4.70972C3.05287 75.0784 1.70972 73.7352 1.70972 72.0784V14Z" fill="#333399"/>
<path d="M41.3031 55.8386C39.9711 56.6722 38.2422 55.7146 38.2422 54.1432V31.9361C38.2422 30.3648 39.9711 29.4072 41.3031 30.2407L59.0467 41.3443C60.2988 42.1278 60.2988 43.9516 59.0467 44.7351L41.3031 55.8386Z" fill="white"/>
<path d="M98.2901 82.5729H1.70992C1.25642 82.5729 0.821496 82.7524 0.500823 83.072C0.180151 83.3916 0 83.8251 0 84.2771C0 84.7291 0.180151 85.1625 0.500823 85.4821C0.821496 85.8017 1.25642 85.9813 1.70992 85.9813H98.2901C98.7436 85.9813 99.1785 85.8017 99.4992 85.4821C99.8198 85.1625 100 84.7291 100 84.2771C100 83.8251 99.8198 83.3916 99.4992 83.072C99.1785 82.7524 98.7436 82.5729 98.2901 82.5729Z" fill="#4C4A58"/>
<path d="M22.1342 80.5503H12.2998C10.3663 80.5503 8.79883 82.1125 8.79883 84.0395V84.5108C8.79883 86.4379 10.3663 88 12.2998 88H22.1342C24.0678 88 25.6352 86.4379 25.6352 84.5108V84.0395C25.6352 82.1125 24.0678 80.5503 22.1342 80.5503Z" fill="#242424"/>
</svg>
