<svg width="100" height="100" viewBox="0 0 100 100" fill="none" xmlns="http://www.w3.org/2000/svg">
<rect x="4.35156" y="21.3477" width="83.6923" height="17.3906" fill="#242424"/>
<rect x="70.6533" y="57.2158" width="29.3466" height="21.7382" fill="white"/>
<path d="M100 57.2158V39.4665C100 38.8899 99.771 38.337 99.3633 37.9294C98.9556 37.5217 98.4027 37.2927 97.8262 37.2927H92.3916V19.1738C92.3916 18.5973 92.1626 18.0444 91.7549 17.6367C91.3473 17.229 90.7943 17 90.2178 17H12.6666C6.6777 17 0.938806 21.815 0.134491 27.4887C0.0512047 28.0282 0.00761129 28.5732 0.00406131 29.1191C-0.00135377 29.1914 -0.00135377 29.2641 0.00406131 29.3365V87.2689C0.0069394 90.5398 1.30759 93.676 3.6205 95.9889C5.93341 98.3018 9.06957 99.6025 12.3405 99.6053H97.8262C98.4027 99.6053 98.9556 99.3763 99.3633 98.9686C99.771 98.561 100 98.008 100 97.4315V78.954H82.6094C79.7267 78.954 76.9621 77.8089 74.9238 75.7705C72.8854 73.7322 71.7403 70.9676 71.7403 68.0849C71.7403 65.2022 72.8854 62.4376 74.9238 60.3993C76.9621 58.3609 79.7267 57.2158 82.6094 57.2158H100ZM12.6666 21.3476H88.044V37.2927H12.3188C11.2712 37.2941 10.2337 37.0886 9.2657 36.6881C8.29774 36.2875 7.4184 35.6998 6.67816 34.9585C5.93793 34.2173 5.35136 33.3371 4.95212 32.3686C4.55289 31.4001 4.34885 30.3623 4.35171 29.3147C4.35284 28.9146 4.3819 28.5151 4.43866 28.1191C4.94951 24.5106 8.78631 21.3476 12.6666 21.3476Z" fill="#FFCD6B"/>
<path d="M82.6094 61.5634C80.8798 61.5634 79.221 62.2505 77.998 63.4735C76.775 64.6965 76.0879 66.3553 76.0879 68.0849C76.0879 69.8145 76.775 71.4733 77.998 72.6963C79.221 73.9193 80.8798 74.6064 82.6094 74.6064H100V61.5634H82.6094ZM83.6963 71.3456C83.0514 71.3456 82.4209 71.1544 81.8847 70.7961C81.3485 70.4378 80.9305 69.9285 80.6838 69.3327C80.437 68.7369 80.3724 68.0813 80.4982 67.4488C80.624 66.8162 80.9346 66.2352 81.3906 65.7792C81.8466 65.3232 82.4276 65.0126 83.0601 64.8868C83.6927 64.761 84.3483 64.8256 84.9441 65.0724C85.5399 65.3192 86.0492 65.7371 86.4075 66.2733C86.7658 66.8095 86.957 67.44 86.957 68.0849C86.957 68.9497 86.6135 69.7791 86.002 70.3906C85.3905 71.0021 84.5611 71.3456 83.6963 71.3456Z" fill="#FFCD6B"/>
<path d="M25 63.8824C25 65.1765 26.2632 65.5294 28 66V62C26.4211 62.1176 25 62.7059 25 63.8824Z" fill="#E2A42B"/>
<path d="M29 69V73C29.9962 72.8857 30.9924 72.3143 30.9924 71.0571C31.0921 69.8 30.1955 69.3429 29 69Z" fill="#E2A42B"/>
<path d="M28 50C18.0649 50 10 58.0649 10 68C10 77.9351 18.0649 86 28 86C37.9351 86 46 77.9351 46 68C46 58.0649 37.9351 50 28 50ZM28.9351 75.8312V77.4675H27.4156V75.8312C25.4286 75.5974 23.5584 74.7792 21.8052 73.2597L23.4416 71.2727C24.7273 72.3247 26.013 73.026 27.4156 73.2597V68.8182C24.3766 68.1169 22.3896 67.0649 22.3896 64.2597C22.3896 61.4545 24.6104 59.8182 27.4156 59.5844V58.4156H28.9351V59.5844C30.5714 59.7013 32.2078 60.2857 33.7273 61.3377L32.2078 63.4416C31.1558 62.7403 30.1039 62.2727 28.9351 62.1558V66.4805H29.052C31.974 67.1818 34.1948 68.2338 34.1948 71.2727C34.1948 74.0779 31.8571 75.7143 28.9351 75.8312Z" fill="#E2A42B"/>
</svg>
