<svg width="100" height="100" viewBox="0 0 100 100" fill="none" xmlns="http://www.w3.org/2000/svg">
<path d="M77.082 6.24998V47.9166H27.082V6.24998C27.0889 3.95173 28.9504 2.09021 31.2486 2.08337H43.7486V20.8334H60.4152V2.08337H72.9152C75.2137 2.09021 77.0752 3.95173 77.082 6.24998ZM45.832 41.6666V33.3332H37.4986V41.6666H45.832Z" fill="#333399"/>
<path d="M97.9158 52.0834V93.75C97.909 96.0485 96.0475 97.9098 93.7492 97.9166H52.0826C49.7844 97.9098 47.9229 96.0483 47.916 93.75V52.0834C47.9229 49.7852 49.7844 47.9236 52.0826 47.9168H64.5826V66.6668H81.2492V47.9168H93.7492C96.0477 47.9234 97.909 49.785 97.9158 52.0834ZM66.6658 87.5V79.1666H58.3324V87.5H66.6658Z" fill="#333399"/>
<path d="M52.082 52.0834V93.75C52.0752 96.0485 50.2137 97.9098 47.9154 97.9166H6.24863C3.95039 97.9098 2.08887 96.0483 2.08203 93.75V52.0834C2.08887 49.7852 3.95039 47.9236 6.24863 47.9168H18.7486V66.6668H35.4152V47.9168H47.9152C50.2137 47.9234 52.0752 49.785 52.082 52.0834ZM20.832 87.5V79.1666H12.4986V87.5H20.832Z" fill="#333399"/>
<path d="M18.7494 68.75H35.416C36.5666 68.75 37.4994 67.8172 37.4994 66.6666V49.9023H33.3328V64.5832H20.8328V49.9023H16.666V66.6666C16.666 67.8172 17.5988 68.75 18.7494 68.75Z" fill="#242424"/>
<path d="M12.4994 89.5834H20.8328C21.9834 89.5834 22.9162 88.6506 22.9162 87.5V79.1666C22.9162 78.016 21.9834 77.0832 20.8328 77.0832H12.4994C11.3488 77.0832 10.416 78.016 10.416 79.1666V87.5C10.416 88.6506 11.3488 89.5834 12.4994 89.5834ZM14.5828 81.25H18.7494V85.4166H14.5828V81.25Z" fill="#242424"/>
<path d="M58.3334 89.5834H66.6668C67.8174 89.5834 68.7502 88.6506 68.7502 87.5V79.1666C68.7502 78.016 67.8174 77.0832 66.6668 77.0832H58.3334C57.1828 77.0832 56.25 78.016 56.25 79.1666V87.5C56.25 88.6506 57.1828 89.5834 58.3334 89.5834ZM60.4168 81.25H64.5834V85.4166H60.4168V81.25Z" fill="#242424"/>
<path d="M37.435 43.7502H45.7684C46.9189 43.7502 47.8518 42.8174 47.8518 41.6668V33.3334C47.8518 32.1828 46.9189 31.25 45.7684 31.25H37.435C36.2844 31.25 35.3516 32.1828 35.3516 33.3334V41.6668C35.3516 42.8174 36.2844 43.7502 37.435 43.7502ZM39.5184 35.4168H43.685V39.5834H39.5184V35.4168Z" fill="#242424"/>
<path d="M27.084 77.0834H41.6674V81.25H27.084V77.0834Z" fill="#242424"/>
<path d="M27.084 85.4166H35.4174V89.5832H27.084V85.4166Z" fill="#242424"/>
<path d="M62.4992 20.8334V4.00391H58.3326V18.75H45.8326V4.00391H43.7493H41.666V20.8334C41.666 21.984 42.5988 22.9168 43.7494 22.9168H60.416C61.5664 22.9166 62.4992 21.984 62.4992 20.8334Z" fill="#242424"/>
<path d="M52.084 31.25H66.6674V35.4166H52.084V31.25Z" fill="#242424"/>
<path d="M93.75 45.8334H79.1666V6.25C79.1666 2.79824 76.3684 0 72.9166 0H31.25C27.7982 0 25 2.79824 25 6.25V45.8334H6.25C2.79824 45.8334 0 48.6316 0 52.0834V93.75C0 97.2018 2.79824 100 6.25 100H47.9166C51.3684 100 54.1666 97.2018 54.1666 93.75V52.0834C54.1666 48.6316 51.3684 45.8334 47.9166 45.8334H29.1666V6.25C29.1666 5.09941 30.0994 4.1666 31.25 4.1666H72.9166C74.0672 4.1666 75 5.09941 75 6.25V45.8334H47.9166V50H93.75C94.9006 50 95.8334 50.9328 95.8334 52.0834V93.75C95.8334 94.9006 94.9006 95.8334 93.75 95.8334H47.9166V100H93.75C97.2018 100 100 97.2018 100 93.75V52.0834C100 48.6316 97.2018 45.8334 93.75 45.8334ZM50 52.0834V93.75C50 94.9006 49.0672 95.8334 47.9166 95.8334H6.25C5.09941 95.8334 4.1666 94.9006 4.1666 93.75V52.0834C4.1666 50.9328 5.09941 50 6.25 50H47.9166C49.0672 50 50 50.9328 50 52.0834Z" fill="#242424"/>
<path d="M62.5 49.4141V66.6666C62.5 67.8172 63.4328 68.75 64.5834 68.75H81.25C82.4006 68.75 83.3334 67.8172 83.3334 66.6666V49.4141H79.1668V64.5832H66.6668V49.4141H62.5Z" fill="#242424"/>
<path d="M72.916 77.0834H87.4994V81.25H72.916V77.0834Z" fill="#242424"/>
<path d="M72.916 85.4166H81.2494V89.5832H72.916V85.4166Z" fill="#242424"/>
</svg>
