<svg width="100" height="100" viewBox="0 0 100 100" fill="none" xmlns="http://www.w3.org/2000/svg">
<path d="M27.587 73.2938H10.3457V69.8456H24.1387V62.9491H27.587V73.2938Z" fill="#4C4A58"/>
<path d="M24.1378 62.9491H11.3551L6.18273 57.7767H0V54.3285H7.6103L12.7827 59.5008H24.1378V62.9491Z" fill="#4C4A58"/>
<path d="M20.6895 81.9145H31.0342V85.3627H20.6895V81.9145Z" fill="#4C4A58"/>
<path d="M44.8272 93.9834H41.3789V76.0283L44.8272 72.5801V61.2249H48.2754V74.0076L44.8272 77.4559V93.9834Z" fill="#4C4A58"/>
<path d="M41.8841 77.9611L34.4824 70.5594V49.156H37.9307V69.1318L44.322 75.5232L41.8841 77.9611Z" fill="#4C4A58"/>
<path d="M24.1387 49.156H27.5869V59.5008H24.1387V49.156Z" fill="#4C4A58"/>
<path d="M76.5757 66.3973H63.793V62.9491H75.1481L80.3205 57.7767H93.1032V61.2249H81.748L76.5757 66.3973Z" fill="#4C4A58"/>
<path d="M74.1377 88.811H70.6895V75.0179H86.2066V78.4662H74.1377V88.811Z" fill="#4C4A58"/>
<path d="M60.3447 92.2593H56.8965V77.7524L60.3447 74.3042V66.3973H63.793V75.7318L60.3447 79.18V92.2593Z" fill="#4C4A58"/>
<path d="M63.792 62.9491H60.3438V55.3388L69.4696 46.213L71.9075 48.6509L63.792 56.7663V62.9491Z" fill="#4C4A58"/>
<path d="M93.1035 49.156H96.5518V57.7767H93.1035V49.156Z" fill="#4C4A58"/>
<path d="M44.8281 49.156H48.2764V57.7767H44.8281V49.156Z" fill="#4C4A58"/>
<path d="M25.8604 64.6732C27.7648 64.6732 29.3086 63.1293 29.3086 61.2249C29.3086 59.3205 27.7648 57.7767 25.8604 57.7767C23.9559 57.7767 22.4121 59.3205 22.4121 61.2249C22.4121 63.1293 23.9559 64.6732 25.8604 64.6732Z" fill="#242424"/>
<path d="M46.5518 62.9491C48.4562 62.9491 50 61.4052 50 59.5008C50 57.5964 48.4562 56.0526 46.5518 56.0526C44.6474 56.0526 43.1035 57.5964 43.1035 59.5008C43.1035 61.4052 44.6474 62.9491 46.5518 62.9491Z" fill="#242424"/>
<path d="M62.0674 68.1215C63.9718 68.1215 65.5157 66.5776 65.5157 64.6732C65.5157 62.7688 63.9718 61.2249 62.0674 61.2249C60.163 61.2249 58.6191 62.7688 58.6191 64.6732C58.6191 66.5776 60.163 68.1215 62.0674 68.1215Z" fill="#242424"/>
<path d="M58.6221 97.4316C60.5265 97.4316 62.0703 95.8878 62.0703 93.9834C62.0703 92.079 60.5265 90.5351 58.6221 90.5351C56.7177 90.5351 55.1738 92.079 55.1738 93.9834C55.1738 95.8878 56.7177 97.4316 58.6221 97.4316Z" fill="#242424"/>
<path d="M94.8252 62.9491C96.7296 62.9491 98.2735 61.4052 98.2735 59.5008C98.2735 57.5964 96.7296 56.0526 94.8252 56.0526C92.9208 56.0526 91.377 57.5964 91.377 59.5008C91.377 61.4052 92.9208 62.9491 94.8252 62.9491Z" fill="#242424"/>
<path d="M87.9307 80.1903C89.8351 80.1903 91.3789 78.6465 91.3789 76.7421C91.3789 74.8377 89.8351 73.2938 87.9307 73.2938C86.0263 73.2938 84.4824 74.8377 84.4824 76.7421C84.4824 78.6465 86.0263 80.1903 87.9307 80.1903Z" fill="#242424"/>
<path d="M72.4131 93.9834C74.3175 93.9834 75.8614 92.4396 75.8614 90.5351C75.8614 88.6307 74.3175 87.0869 72.4131 87.0869C70.5087 87.0869 68.9648 88.6307 68.9648 90.5351C68.9648 92.4396 70.5087 93.9834 72.4131 93.9834Z" fill="#242424"/>
<path d="M43.1026 99.1558C45.007 99.1558 46.5508 97.612 46.5508 95.7075C46.5508 93.8031 45.007 92.2593 43.1026 92.2593C41.1981 92.2593 39.6543 93.8031 39.6543 95.7075C39.6543 97.612 41.1981 99.1558 43.1026 99.1558Z" fill="#242424"/>
<path d="M8.62013 75.0179C10.5246 75.0179 12.0684 73.4741 12.0684 71.5697C12.0684 69.6653 10.5246 68.1214 8.62013 68.1214C6.71571 68.1214 5.17188 69.6653 5.17188 71.5697C5.17188 73.4741 6.71571 75.0179 8.62013 75.0179Z" fill="#242424"/>
<path d="M18.9658 87.0869C20.8703 87.0869 22.4141 85.543 22.4141 83.6386C22.4141 81.7342 20.8703 80.1904 18.9658 80.1904C17.0614 80.1904 15.5176 81.7342 15.5176 83.6386C15.5176 85.543 17.0614 87.0869 18.9658 87.0869Z" fill="#242424"/>
<path d="M32.7588 87.0869C34.6632 87.0869 36.2071 85.543 36.2071 83.6386C36.2071 81.7342 34.6632 80.1904 32.7588 80.1904C30.8544 80.1904 29.3105 81.7342 29.3105 83.6386C29.3105 85.543 30.8544 87.0869 32.7588 87.0869Z" fill="#242424"/>
<path d="M71.529 12.8167C67.3445 7.42531 62.2307 3.5667 56.5859 1.86154C58.5877 4.8098 60.267 9.07185 61.6083 14.1649C65.1738 13.846 68.4945 13.3856 71.529 12.8167Z" fill="#333399"/>
<path d="M61.1775 31.482C60.631 26.332 59.8603 21.7596 58.9517 17.8131C55.9827 18.0166 52.9793 18.1217 50 18.1217C47.0207 18.1217 44.0173 18.0166 41.0501 17.8131C40.1415 21.7596 39.3708 26.3338 38.8242 31.482C42.4535 31.763 46.1897 31.9148 50 31.9148C53.8103 31.9148 57.5465 31.763 61.1775 31.482Z" fill="#333399"/>
<path d="M37.1002 0.844238C30.2433 2.67009 23.9692 5.91663 18.6055 10.2511C20.4572 10.9028 22.5261 11.508 24.8141 12.0476C28.3054 7.208 32.4795 3.37526 37.1002 0.844238Z" fill="#333399"/>
<path d="M49.9986 35.363C46.0572 35.363 42.2193 35.2096 38.5004 34.9303C38.1366 39.3182 37.9297 44.0664 37.9297 49.1561H62.0675C62.0675 44.0664 61.8606 39.3182 61.4968 34.9303C57.7779 35.2096 53.9399 35.363 49.9986 35.363Z" fill="#333399"/>
<path d="M28.4707 12.8166C31.5052 13.3873 34.8258 13.8459 38.3913 14.1648C39.7327 9.07177 41.412 4.80973 43.4137 1.85974C37.7707 3.5649 32.6552 7.42523 28.4707 12.8166Z" fill="#333399"/>
<path d="M35.4199 31.1803C35.9337 26.3476 36.6544 21.7235 37.5802 17.5304C33.6595 17.1545 29.8509 16.6028 26.3044 15.8752C23.8734 19.6338 21.8458 23.9631 20.332 28.7183C25.0044 29.7958 30.0751 30.6355 35.4199 31.1803Z" fill="#333399"/>
<path d="M50.0008 14.6735C52.8042 14.6735 55.5042 14.5856 58.0973 14.4287C55.6835 5.70975 52.5818 0.880463 50.0008 0.880463C47.4198 0.880463 44.3181 5.70975 41.9043 14.4287C44.4974 14.5856 47.1974 14.6735 50.0008 14.6735Z" fill="#333399"/>
<path d="M4.94997 27.4407C1.7793 34.0079 0 41.3734 0 49.1561H13.793C13.793 42.8682 14.5844 36.8389 16.0292 31.2596C11.9706 30.1717 8.26375 28.8855 4.94997 27.4407Z" fill="#333399"/>
<path d="M64.9102 34.6354C65.3119 39.3992 65.5171 44.3061 65.5171 49.156H82.7583C82.7583 43.1492 82.0049 37.4009 80.6377 32.0923C75.7808 33.2182 70.505 34.0803 64.9102 34.6354Z" fill="#333399"/>
<path d="M84.3289 12.8235C82.1859 13.6752 79.7893 14.4287 77.2031 15.0787C79.5497 18.8976 81.5083 23.2097 82.9927 27.8941C86.8082 26.8769 90.3099 25.6941 93.4185 24.3735C90.9651 20.0838 87.8962 16.1942 84.3289 12.8235Z" fill="#333399"/>
<path d="M83.9707 31.2596C85.4155 36.8389 86.2069 42.8682 86.2069 49.1561H99.9999C99.9999 41.3734 98.2206 34.0079 95.05 27.4407C91.7362 28.8855 88.0293 30.1717 83.9707 31.2596Z" fill="#333399"/>
<path d="M73.6977 15.8769C70.1511 16.6045 66.3425 17.1562 62.4219 17.5321C63.3477 21.7234 64.0684 26.3493 64.5822 31.182C69.9287 30.6372 74.9977 29.7975 79.6701 28.7217C78.1563 23.9648 76.1304 19.6355 73.6977 15.8769Z" fill="#333399"/>
<path d="M62.8984 0.844238C67.5191 3.37526 71.6932 7.208 75.1846 12.0459C77.4725 11.508 79.5415 10.9011 81.3932 10.2494C76.0311 5.91835 69.7553 2.67181 62.8984 0.844238Z" fill="#333399"/>
<path d="M35.0884 34.6354C29.4936 34.0803 24.2178 33.2182 19.3609 32.0923C17.9937 37.4009 17.2402 43.1492 17.2402 49.156H34.4815C34.4815 44.3061 34.6867 39.3992 35.0884 34.6354Z" fill="#333399"/>
<path d="M22.7955 15.0787C20.211 14.4287 17.8128 13.6752 15.6697 12.8235C12.1025 16.1959 9.03351 20.0855 6.58008 24.3752C9.68868 25.6959 13.1904 26.8786 17.0059 27.8959C18.4904 23.2097 20.449 18.8976 22.7955 15.0787Z" fill="#333399"/>
</svg>
