<svg width="100" height="100" viewBox="0 0 100 100" fill="none" xmlns="http://www.w3.org/2000/svg">
<path d="M63.0587 50C71.4305 42.025 75.0551 32.8848 76.6229 26.3652C78.4868 18.6146 77.9344 12.8387 77.91 12.5965C77.7592 11.1 76.4995 9.96094 74.9954 9.96094H25.0059C23.5018 9.96094 22.2421 11.1 22.0911 12.5965C22.0667 12.8387 21.5143 18.6146 23.3782 26.3652C24.946 32.8848 28.5706 42.025 36.9424 50C28.5706 57.975 24.946 67.1152 23.3782 73.6348C21.5143 81.3854 22.0667 87.1613 22.0911 87.4035C22.2421 88.9 23.5018 90.0391 25.0059 90.0391H74.9952C76.4993 90.0391 77.759 88.9 77.91 87.4035C77.9344 87.1613 78.4868 81.3854 76.6229 73.6348C75.0551 67.1152 71.4307 57.975 63.0587 50Z" fill="#E5E4FF"/>
<path d="M62.9718 85.2176L52.2373 72.5223C51.6806 71.8641 50.8623 71.4844 50.0002 71.4844C49.1381 71.4844 48.3197 71.8641 47.7631 72.5223L37.0285 85.2176C36.292 86.0887 36.1281 87.3078 36.6082 88.3424C37.0883 89.377 38.1248 90.0391 39.2654 90.0391H60.7347C61.8754 90.0391 62.9121 89.377 63.3922 88.3424C63.8722 87.3078 63.7082 86.0887 62.9718 85.2176Z" fill="#333399"/>
<path d="M75.2243 27.2275C74.6726 26.4732 73.794 26.0271 72.8595 26.0271H27.1407C26.2062 26.0271 25.3276 26.473 24.7759 27.2275C24.2241 27.982 24.0655 28.9545 24.3487 29.8449C27.1677 38.7066 32.2366 46.2283 39.4165 52.2029L47.0704 59.2934V64.9516C47.0704 66.5695 48.3821 67.8812 50.0001 67.8812C51.6181 67.8812 52.9298 66.5695 52.9298 64.9516V59.2934L60.5835 52.2031C67.7634 46.2285 72.8323 38.707 75.6513 29.8451C75.9347 28.9545 75.7761 27.9822 75.2243 27.2275Z" fill="#333399"/>
<path d="M87.1094 84.1797H12.8906C11.2727 84.1797 9.96094 85.4914 9.96094 87.1094V97.0703C9.96094 98.6883 11.2727 100 12.8906 100H87.1094C88.7273 100 90.0391 98.6883 90.0391 97.0703V87.1094C90.0391 85.4914 88.7273 84.1797 87.1094 84.1797Z" fill="#242424"/>
<path d="M87.1094 0H12.8906C11.2727 0 9.96094 1.31172 9.96094 2.92969V12.8906C9.96094 14.5086 11.2727 15.8203 12.8906 15.8203H87.1094C88.7273 15.8203 90.0391 14.5086 90.0391 12.8906V2.92969C90.0391 1.31172 88.7273 0 87.1094 0Z" fill="#242424"/>
</svg>
