<svg width="100" height="100" viewBox="0 0 100 100" fill="none" xmlns="http://www.w3.org/2000/svg">
<g clip-path="url(#clip0)">
<path d="M96.0534 24.3539C87.0767 20.6276 80.8051 12.1889 79.9477 2.35909C79.8301 1.01427 78.6884 -0.0083535 77.3379 5.14359e-05L50.0423 0.159749L49.4876 0.163951L22.192 0.323649C20.8261 0.332053 19.7124 1.3925 19.6074 2.75413C18.8495 12.5853 12.6718 21.0857 3.73852 24.9072C2.2242 25.5544 1.31644 27.115 1.48735 28.7526C2.73971 40.7341 10.0382 81.5353 49.821 99.8851C49.9863 99.9621 50.1684 100.001 50.3505 100C50.5326 99.9986 50.7133 99.9579 50.8786 99.8795C90.4415 81.0632 97.2609 40.1835 98.3746 28.1852C98.5273 26.535 97.5831 24.9885 96.0534 24.3539Z" fill="#242424"/>
<path d="M49.4142 88.5858C21.9645 73.8867 14.2514 46.2506 12.1081 33.1022C11.9876 32.3612 12.3252 31.6215 12.9682 31.2335C20.2387 26.846 25.5157 19.8796 27.7865 11.7462C28.0078 10.9561 28.7208 10.4042 29.5417 10.4L70.1062 10.1618C70.9271 10.1562 71.6472 10.6998 71.8769 11.4871C74.243 19.5938 79.5998 26.4972 86.9235 30.8006C87.5693 31.1803 87.9153 31.9157 87.8046 32.6582C85.8168 45.8276 78.4259 73.5519 51.1527 88.576C50.6134 88.873 49.9564 88.8758 49.4142 88.5858Z" fill="#333399"/>
<path d="M68.1575 29.9713C66.8827 29.1266 65.1625 29.4754 64.3178 30.7516L48.2248 55.0382L39.3209 46.5854C38.2115 45.532 36.4576 45.5768 35.4042 46.6863C34.3507 47.7958 34.3955 49.5496 35.505 50.6031L46.8043 61.3308C47.3212 61.8225 48.0048 62.0915 48.7109 62.0915C49.6326 62.0915 50.5124 61.618 51.0209 60.8517L68.9378 33.8111C69.7825 32.5363 69.4337 30.8174 68.1575 29.9713Z" fill="white"/>
</g>
<defs>
<clipPath id="clip0">
<rect width="100" height="100" fill="white"/>
</clipPath>
</defs>
</svg>
