<svg width="100" height="100" viewBox="0 0 100 100" fill="none" xmlns="http://www.w3.org/2000/svg">
<g clip-path="url(#clip0)">
<path d="M83.8197 75.7891V89H73.4135L70.812 83.7852L68.2105 89H57.8043L55.2028 83.7852H44.7966L42.1951 89H31.7889L29.1874 83.7852L26.5858 89H16.1797V75.7891C16.1797 68.4881 21.3307 62.1783 28.4589 60.7703L44.7966 57.5371H55.2028L71.5404 60.7703C78.6686 62.1783 83.8197 68.4881 83.8197 75.7891Z" fill="#333399"/>
<path d="M68.2106 15.8184V34.0703C68.2106 42.3096 62.6953 49.1932 55.2029 51.4877V57.5371L49.9998 62.752L44.7968 57.5371V51.4877C37.3043 49.1932 31.7891 42.3096 31.7891 34.0703V21.0332L48.907 15.8184L54.1101 10.6035L68.2106 15.8184Z" fill="#F0DED0"/>
<path d="M68.2106 13.2109V15.8184H54.1101L48.907 21.0332H31.7891V13.2109C31.7891 6.01445 37.6165 0 44.7968 0H55.2029C62.3832 0 68.2106 6.01445 68.2106 13.2109Z" fill="#242424"/>
<path d="M57.8045 89H42.1953L44.7969 67.9668L49.9999 62.752L55.203 67.9668L57.8045 89Z" fill="#4C4A58"/>
<path d="M31.789 73.1816H26.5859V89H31.789V73.1816Z" fill="#161667"/>
<path d="M73.414 73.1816H68.2109V89H73.414V73.1816Z" fill="#161667"/>
<path d="M55.203 57.5371H44.7969V67.9668H55.203V57.5371Z" fill="#242424"/>
<path d="M23.5 72.5C15.7989 72.5 9.5 78.7989 9.5 86.5C9.5 94.2011 15.7989 100.5 23.5 100.5C31.2011 100.5 37.5 94.2011 37.5 86.5C37.5 78.7989 31.2011 72.5 23.5 72.5Z" fill="#E5E4FF" stroke="white"/>
<path d="M23.5 73C16.075 73 10 79.075 10 86.5C10 93.925 16.075 100 23.5 100C30.925 100 37 93.925 37 86.5C37 79.075 30.925 73 23.5 73ZM23.5 77.05C25.795 77.05 27.55 78.805 27.55 81.1C27.55 83.395 25.795 85.15 23.5 85.15C21.205 85.15 19.45 83.395 19.45 81.1C19.45 78.805 21.205 77.05 23.5 77.05ZM23.5 96.22C20.125 96.22 17.155 94.4651 15.4 91.9C15.4 89.2 20.8 87.715 23.5 87.715C26.2 87.715 31.6 89.2 31.6 91.9C29.845 94.465 26.875 96.22 23.5 96.22Z" fill="#242424"/>
<path d="M49.5 72.5C41.7989 72.5 35.5 78.7989 35.5 86.5C35.5 94.2011 41.7989 100.5 49.5 100.5C57.2011 100.5 63.5 94.2011 63.5 86.5C63.5 78.7989 57.2011 72.5 49.5 72.5Z" fill="#E5E4FF" stroke="white"/>
<path d="M49.5 73C42.075 73 36 79.075 36 86.5C36 93.925 42.075 100 49.5 100C56.925 100 63 93.925 63 86.5C63 79.075 56.925 73 49.5 73ZM49.5 77.05C51.795 77.05 53.55 78.805 53.55 81.1C53.55 83.395 51.795 85.15 49.5 85.15C47.205 85.15 45.45 83.395 45.45 81.1C45.45 78.805 47.205 77.05 49.5 77.05ZM49.5 96.22C46.125 96.22 43.155 94.4651 41.4 91.9C41.4 89.2 46.8 87.715 49.5 87.715C52.2 87.715 57.6 89.2 57.6 91.9C55.845 94.465 52.875 96.22 49.5 96.22Z" fill="#242424"/>
<path d="M76.5 72.5C68.7989 72.5 62.5 78.7989 62.5 86.5C62.5 94.2011 68.7989 100.5 76.5 100.5C84.2011 100.5 90.5 94.2011 90.5 86.5C90.5 78.7989 84.2011 72.5 76.5 72.5Z" fill="#E5E4FF" stroke="white"/>
<path d="M76.5 73C69.075 73 63 79.075 63 86.5C63 93.925 69.075 100 76.5 100C83.925 100 90 93.925 90 86.5C90 79.075 83.925 73 76.5 73ZM76.5 77.05C78.795 77.05 80.55 78.805 80.55 81.1C80.55 83.395 78.795 85.15 76.5 85.15C74.205 85.15 72.45 83.395 72.45 81.1C72.45 78.805 74.205 77.05 76.5 77.05ZM76.5 96.22C73.125 96.22 70.155 94.4651 68.4 91.9C68.4 89.2 73.8 87.715 76.5 87.715C79.2 87.715 84.6 89.2 84.6 91.9C82.845 94.465 79.875 96.22 76.5 96.22Z" fill="#242424"/>
</g>
<defs>
<clipPath id="clip0">
<rect width="100" height="100" fill="white"/>
</clipPath>
</defs>
</svg>
