<svg width="100" height="100" viewBox="0 0 100 100" fill="none" xmlns="http://www.w3.org/2000/svg">
<path d="M86.6951 11.2004L61.5796 36.38L63.6118 38.4071L88.7274 13.2275L86.6951 11.2004Z" fill="#242424"/>
<path d="M42.5026 24.2275L40.4729 26.2572L52.6384 38.4227L54.6681 36.393L42.5026 24.2275Z" fill="#242424"/>
<path d="M31.5148 24.2252L11.2339 44.506L13.2636 46.5357L33.5444 26.2548L31.5148 24.2252Z" fill="#242424"/>
<path d="M85.3486 29.5612C83.6918 29.5612 82.3486 30.9044 82.3486 32.5612V97C82.3486 98.6568 83.6918 100 85.3486 100H96.9997C98.6565 100 99.9997 98.6568 99.9997 97V32.5612C99.9997 30.9044 98.6565 29.5612 96.9997 29.5612H85.3486ZM88.2193 97.1293C86.5625 97.1293 85.2193 95.7861 85.2193 94.1293L85.2191 35.4317C85.2191 33.7748 86.5622 32.4316 88.2191 32.4316H94.1292C95.7861 32.4316 97.1293 33.7748 97.1293 35.4316V94.1293C97.1293 95.7861 95.7861 97.1293 94.1293 97.1293H88.2193Z" fill="#333399"/>
<path d="M88.2193 97.1293C86.5625 97.1293 85.2193 95.7861 85.2193 94.1293L85.2191 35.4317C85.2191 33.7748 86.5622 32.4316 88.2191 32.4316H94.1292C95.7861 32.4316 97.1293 33.7748 97.1293 35.4316V94.1293C97.1293 95.7861 95.7861 97.1293 94.1293 97.1293H88.2193Z" fill="#333399"/>
<path d="M57.8992 59.1222C56.2423 59.1222 54.8992 60.4653 54.8992 62.1222V97C54.8992 98.6568 56.2423 100 57.8992 100H69.5502C71.2071 100 72.5502 98.6568 72.5502 97V62.1222C72.5502 60.4653 71.2071 59.1222 69.5502 59.1222H57.8992ZM69.6801 94.1293C69.6801 95.7861 68.3369 97.1293 66.6801 97.1293H60.7699C59.113 97.1293 57.7699 95.7861 57.7699 94.1293V64.9929C57.7699 63.336 59.113 61.9929 60.7699 61.9929H66.6801C68.3369 61.9929 69.6801 63.336 69.6801 64.9929V94.1293Z" fill="#4C4CAE"/>
<path d="M69.6801 94.1293C69.6801 95.7861 68.3369 97.1293 66.6801 97.1293H60.7699C59.113 97.1293 57.7699 95.7861 57.7699 94.1293V64.9929C57.7699 63.336 59.113 61.9929 60.7699 61.9929H66.6801C68.3369 61.9929 69.6801 63.336 69.6801 64.9929V94.1293Z" fill="#4C4CAE"/>
<path d="M30.4492 57.0108C28.7924 57.0108 27.4492 58.3539 27.4492 60.0108V97C27.4492 98.6569 28.7924 100 30.4492 100H42.1003C43.7571 100 45.1003 98.6569 45.1003 97V60.0108C45.1003 58.3539 43.7571 57.0108 42.1003 57.0108H30.4492ZM42.2301 94.1293C42.2301 95.7862 40.887 97.1293 39.2301 97.1293H33.3199C31.6631 97.1293 30.3199 95.7862 30.3199 94.1293V62.8815C30.3199 61.2246 31.6631 59.8815 33.3199 59.8815H39.2301C40.887 59.8815 42.2301 61.2246 42.2301 62.8815V94.1293Z" fill="#6262C0"/>
<path d="M42.2301 94.1293C42.2301 95.7862 40.887 97.1293 39.2301 97.1293H33.3199C31.6631 97.1293 30.3199 95.7862 30.3199 94.1293V62.8815C30.3199 61.2246 31.6631 59.8815 33.3199 59.8815H39.2301C40.887 59.8815 42.2301 61.2246 42.2301 62.8815V94.1293Z" fill="#6262C0"/>
<path d="M3 67.5684C1.34315 67.5684 0 68.9115 0 70.5684V97C0 98.6569 1.34315 100 3 100H14.6511C16.3079 100 17.6511 98.6569 17.6511 97L17.6513 70.5684C17.6513 68.9115 16.3082 67.5684 14.6513 67.5684H3ZM14.7806 94.1396C14.7806 95.7965 13.4375 97.1293 11.7806 97.1293H5.87043C4.21357 97.1293 2.87042 95.7862 2.87042 94.1293V73.4385C2.87042 71.7817 4.21357 70.4385 5.87042 70.4385H11.7806C13.4375 70.4385 14.7806 71.7713 14.7806 73.4282C14.7806 78.5639 14.7806 89.0039 14.7806 94.1396Z" fill="#7575CD"/>
<path d="M14.7806 94.1396C14.7806 95.7965 13.4375 97.1293 11.7806 97.1293H5.87043C4.21357 97.1293 2.87042 95.7862 2.87042 94.1293V73.4385C2.87042 71.7817 4.21357 70.4385 5.87042 70.4385H11.7806C13.4375 70.4385 14.7806 71.7713 14.7806 73.4282C14.7806 78.5639 14.7806 89.0039 14.7806 94.1396Z" fill="#7575CD"/>
<path d="M97.7691 2.32121C96.3138 0.841729 94.3692 0.017484 92.2939 0.000277523L92.2287 0C87.9803 0 84.4952 3.45683 84.4602 7.70571C84.4433 9.78103 85.2351 11.739 86.6907 13.2184C88.1463 14.6979 90.0906 15.5222 92.1659 15.5394L92.2312 15.5396C96.4795 15.5396 99.9646 12.0828 99.9996 7.83393C100.017 5.75861 99.2245 3.80068 97.7691 2.32121ZM92.2309 12.6692L92.1895 12.6689C90.881 12.6581 89.6549 12.1383 88.7374 11.2056C87.8196 10.2725 87.3201 9.0381 87.3309 7.72958C87.3529 5.05037 89.55 2.8707 92.2287 2.8707L92.27 2.87098C93.5785 2.8818 94.8046 3.4016 95.7221 4.33436C96.6399 5.26739 97.1394 6.50182 97.1286 7.81034C97.1067 10.4896 94.9095 12.6692 92.2309 12.6692Z" fill="#333399"/>
<path d="M92.2309 12.6692L92.1895 12.6689C90.881 12.6581 89.6549 12.1383 88.7374 11.2056C87.8196 10.2725 87.3201 9.0381 87.3309 7.72958C87.3529 5.05037 89.55 2.8707 92.2287 2.8707L92.27 2.87098C93.5785 2.8818 94.8046 3.4016 95.7221 4.33436C96.6399 5.26739 97.1394 6.50182 97.1286 7.81034C97.1067 10.4896 94.9095 12.6692 92.2309 12.6692Z" fill="#333399"/>
<path d="M7.83392 42.2304L7.7687 42.2302C3.5201 42.2302 0.0352351 45.687 0.000267164 49.9362C-0.0349783 54.22 3.42158 57.7343 7.7057 57.7698H7.77064C12.0192 57.7698 15.5044 54.313 15.5394 50.0641C15.5746 45.78 12.118 42.2657 7.83392 42.2304ZM7.77064 54.8991L7.72929 54.8988C5.02788 54.8766 2.84821 52.6609 2.87041 49.9595C2.89262 47.2803 5.08977 45.1006 7.76842 45.1006H7.80977C10.5112 45.1228 12.6909 47.3388 12.6687 50.0402C12.6467 52.7194 10.4496 54.8991 7.77064 54.8991Z" fill="#7575CD"/>
<path d="M7.77064 54.8991L7.72929 54.8988C5.02788 54.8766 2.84821 52.6609 2.87041 49.9595C2.89262 47.2803 5.08977 45.1006 7.76842 45.1006H7.80977C10.5112 45.1228 12.6909 47.3388 12.6687 50.0402C12.6467 52.7194 10.4496 54.8991 7.77064 54.8991Z" fill="#7575CD"/>
<path d="M37.0732 12.9914L37.008 12.9911C32.7594 12.9911 29.2742 16.448 29.2395 20.6969C29.2043 24.981 32.6608 28.4953 36.945 28.5305L37.0102 28.5308C41.2585 28.5308 44.7436 25.074 44.7786 20.8251C44.8139 16.5407 41.3573 13.0264 37.0732 12.9914ZM37.0099 25.6604L36.9685 25.6601C34.2671 25.6379 32.0875 23.4219 32.1097 20.7207C32.1319 18.0415 34.329 15.8619 37.0077 15.8619L37.049 15.8621C39.7504 15.8843 41.9301 18.1004 41.9079 20.8015C41.886 23.4807 39.6888 25.6604 37.0099 25.6604Z" fill="#6262C0"/>
<path d="M37.0099 25.6604L36.9685 25.6601C34.2671 25.6379 32.0875 23.4219 32.1097 20.7207C32.1319 18.0415 34.329 15.8619 37.0077 15.8619L37.049 15.8621C39.7504 15.8843 41.9301 18.1004 41.9079 20.8015C41.886 23.4807 39.6888 25.6604 37.0099 25.6604Z" fill="#6262C0"/>
<path d="M58.1882 34.1065L58.123 34.1063C53.8743 34.1063 50.3895 37.5631 50.3545 41.812C50.3193 46.0961 53.7761 49.6104 58.0602 49.6456L58.1252 49.6459C62.3735 49.6459 65.8586 46.1891 65.8936 41.9402C65.9289 37.6558 62.472 34.1418 58.1882 34.1065ZM58.1249 46.7755L58.0835 46.7752C55.3821 46.753 53.2025 44.537 53.2247 41.8358C53.2466 39.1566 55.4437 36.977 58.1224 36.977L58.1637 36.9772C60.8652 36.9994 63.0445 39.2155 63.0223 41.9166C63.0007 44.5958 60.8035 46.7755 58.1249 46.7755Z" fill="#4C4CAE"/>
<path d="M58.1249 46.7755L58.0835 46.7752C55.3821 46.753 53.2025 44.537 53.2247 41.8358C53.2466 39.1566 55.4437 36.977 58.1224 36.977L58.1637 36.9772C60.8652 36.9994 63.0445 39.2155 63.0223 41.9166C63.0007 44.5958 60.8035 46.7755 58.1249 46.7755Z" fill="#4C4CAE"/>
</svg>
