<svg width="96" height="101" viewBox="0 0 96 101" fill="none" xmlns="http://www.w3.org/2000/svg">
<path d="M22.7289 101C21.8912 101 21.2114 100.321 21.2114 99.4833V30.4034C21.2114 29.5657 21.8912 28.8867 22.7289 28.8867C23.5666 28.8867 24.2456 29.5657 24.2456 30.4034V99.4833C24.2456 100.321 23.5666 101 22.7289 101Z" fill="#FFCD6B"/>
<path d="M39.78 94.7919C44.4225 90.1494 45.309 83.0503 45.4555 79.6613C45.5021 78.5832 44.6147 77.6959 43.5367 77.7425C40.1477 77.889 33.0485 78.7755 28.406 83.418C23.7635 88.0605 22.877 95.1597 22.7305 98.5479C22.684 99.6267 23.5713 100.514 24.6493 100.467C28.0383 100.321 35.1375 99.4345 39.78 94.7919Z" fill="#FFCD6B"/>
<path d="M5.67728 70.3175C1.03478 65.675 0.148236 58.5758 0.00175119 55.1876C-0.0447883 54.1088 0.842514 53.2215 1.92131 53.268C5.3103 53.4153 12.4087 54.3011 17.0512 58.9436C21.6937 63.5861 22.5803 70.6853 22.7268 74.0742C22.7741 75.1523 21.886 76.0403 20.808 75.993C17.419 75.8466 10.3198 74.96 5.67728 70.3175Z" fill="#FFCD6B"/>
<path d="M39.78 70.3175C44.4225 65.675 45.309 58.5758 45.4555 55.1876C45.5021 54.1088 44.6147 53.2215 43.5367 53.268C40.1477 53.4153 33.0485 54.3011 28.406 58.9436C23.7635 63.5861 22.877 70.6853 22.7305 74.0742C22.684 75.1523 23.5713 76.0403 24.6493 75.993C28.0383 75.8466 35.1375 74.96 39.78 70.3175Z" fill="#FFCD6B"/>
<path d="M5.67728 45.8438C1.03478 41.2013 0.148236 34.1021 0.00175119 30.7131C-0.0447883 29.6351 0.842514 28.747 1.92131 28.7943C5.3103 28.9408 12.4087 29.8274 17.0512 34.4699C21.6937 39.1124 22.5803 46.2116 22.7268 49.5998C22.7741 50.6786 21.886 51.5659 20.808 51.5193C17.419 51.3729 10.3198 50.4863 5.67728 45.8438Z" fill="#FFCD6B"/>
<path d="M5.67728 94.7919C1.03478 90.1494 0.148236 83.0503 0.00175119 79.6613C-0.0447883 78.5832 0.842514 77.6959 1.92131 77.7425C5.3103 77.889 12.4087 78.7755 17.0512 83.418C21.6937 88.0605 22.5803 95.1597 22.7268 98.5479C22.7741 99.6267 21.886 100.514 20.808 100.467C17.419 100.321 10.3198 99.4345 5.67728 94.7919Z" fill="#FFCD6B"/>
<path d="M39.78 45.8438C44.4225 41.2013 45.309 34.1021 45.4555 30.7131C45.5021 29.6351 44.6147 28.747 43.5367 28.7943C40.1477 28.9408 33.0485 29.8274 28.406 34.4699C23.7635 39.1124 22.877 46.2116 22.7305 49.5998C22.684 50.6786 23.5713 51.5659 24.6493 51.5193C28.0383 51.3729 35.1375 50.4863 39.78 45.8438Z" fill="#FFCD6B"/>
<path d="M30.7711 16.3088C30.7711 9.74294 26.3789 4.0964 24.0862 1.59624C23.3561 0.801254 22.1011 0.801254 21.3717 1.59624C19.0791 4.0964 14.686 9.74294 14.686 16.3088C14.686 22.8739 19.0791 28.5205 21.3717 31.0206C22.1011 31.8164 23.3561 31.8164 24.0862 31.0206C26.3781 28.5205 30.7711 22.8739 30.7711 16.3088Z" fill="#FFCD6B"/>
<path d="M60.0002 11.0953C45.8362 11.0953 33.8694 16.4299 29.9902 23.7522H90.01C86.1311 16.4299 74.1643 11.0953 60.0002 11.0953Z" fill="#333399"/>
<path d="M59.9999 13.1459C63.6126 13.1459 66.5413 10.2031 66.5413 6.57295C66.5413 2.94281 63.6126 0 59.9999 0C56.3872 0 53.4585 2.94281 53.4585 6.57295C53.4585 10.2031 56.3872 13.1459 59.9999 13.1459Z" fill="#4C4A58"/>
<path d="M81.6224 100H38.3782C33.9286 100 30.3215 96.3755 30.3215 91.9045V32.5065H89.6794V91.9045C89.6791 96.3755 86.072 100 81.6224 100Z" fill="#333399"/>
<path d="M94 23.071H26C24.8954 23.071 24 23.9665 24 25.071V32.7365C24 33.841 24.8954 34.7365 26 34.7365H94C95.1046 34.7365 96 33.841 96 32.7365V25.071C96 23.9665 95.1046 23.071 94 23.071Z" fill="#242424"/>
<path d="M79.4392 47.4386H40.5632C37.2495 47.4386 34.5632 50.1249 34.5632 53.4386V78.4237C34.5632 81.7374 37.2495 84.4237 40.5632 84.4237H79.4392C82.7529 84.4237 85.4392 81.7374 85.4392 78.4237V53.4386C85.4392 50.1249 82.7529 47.4386 79.4392 47.4386Z" fill="white"/>
<path d="M44.0052 63.7003C43.9445 63.6396 43.8335 63.5564 43.6733 63.4518C43.5122 63.3469 43.3169 63.2445 43.0871 63.144C42.857 63.0439 42.607 62.9587 42.3381 62.8888C42.0688 62.8193 41.7953 62.7841 41.5174 62.7841C41.0224 62.7841 40.6534 62.876 40.4103 63.059C40.1672 63.2422 40.0456 63.4997 40.0456 63.8313C40.0456 64.0232 40.0913 64.1824 40.1825 64.309C40.2737 64.4356 40.4057 64.5469 40.5797 64.6426C40.7534 64.7388 40.9724 64.8258 41.2375 64.9047C41.5022 64.983 41.8085 65.0662 42.1557 65.1532C42.6073 65.2755 43.0175 65.4064 43.3865 65.5458C43.7556 65.6856 44.0682 65.8599 44.3245 66.0694C44.5805 66.2787 44.7781 66.5298 44.917 66.8218C45.056 67.1143 45.1256 67.4741 45.1256 67.9016C45.1256 68.399 45.0321 68.8242 44.8454 69.1777C44.6587 69.5311 44.4068 69.817 44.0901 70.0349C43.7731 70.2531 43.4084 70.4124 42.9959 70.5127C42.5834 70.6127 42.1511 70.663 41.6998 70.663C41.0049 70.663 40.3191 70.5584 39.6417 70.3488C38.9644 70.1396 38.3563 69.843 37.8181 69.4592L38.6126 67.9016C38.6908 67.9802 38.8318 68.0831 39.036 68.2094C39.2399 68.3357 39.481 68.4626 39.7588 68.5889C40.0367 68.7155 40.345 68.8224 40.6836 68.9094C41.0222 68.9967 41.3694 69.0404 41.7254 69.0404C42.7155 69.0404 43.2105 68.7221 43.2105 68.0851C43.2105 67.8845 43.1539 67.7143 43.0411 67.5744C42.9283 67.4351 42.7675 67.3126 42.5593 67.2082C42.351 67.1036 42.0988 67.0076 41.8037 66.9203C41.5083 66.8333 41.1786 66.7371 40.8139 66.6324C40.3709 66.5102 39.9867 66.3772 39.6613 66.2333C39.3357 66.0894 39.0642 65.9191 38.8473 65.7231C38.6301 65.5266 38.4673 65.3 38.3589 65.0422C38.2501 64.785 38.196 64.4774 38.196 64.1196C38.196 63.6485 38.2827 63.2297 38.4564 62.8632C38.6301 62.4968 38.8709 62.1915 39.1792 61.947C39.4873 61.7028 39.8457 61.5173 40.2538 61.3907C40.6617 61.2643 41.1004 61.201 41.5692 61.201C42.2207 61.201 42.8196 61.3036 43.3667 61.5086C43.9138 61.714 44.3913 61.9557 44.7994 62.2352L44.0052 63.7003Z" fill="#4C4A58"/>
<path d="M50.4527 69.0271C50.8781 69.0271 51.2362 68.9401 51.5273 68.7655C51.8181 68.5912 52.0525 68.3644 52.2308 68.0851C52.4086 67.8059 52.5346 67.4854 52.6085 67.123C52.6821 66.7611 52.7192 66.3883 52.7192 66.0039V61.2662H54.5035V66.0039C54.5035 66.6409 54.4275 67.2389 54.2754 67.797C54.1233 68.3557 53.8848 68.8441 53.5592 69.2629C53.2336 69.6817 52.8145 70.0135 52.3022 70.2575C51.7896 70.502 51.1775 70.624 50.4656 70.624C49.7275 70.624 49.0999 70.4954 48.5836 70.2379C48.0667 69.9806 47.6476 69.6401 47.3266 69.217C47.0053 68.7939 46.7732 68.3031 46.6299 67.7444C46.4867 67.186 46.415 66.6059 46.415 66.0039V61.2662H48.2125V66.0039C48.2125 66.3964 48.2493 66.7741 48.3232 67.136C48.3969 67.4982 48.5229 67.8187 48.7009 68.0979C48.8787 68.3771 49.1111 68.6017 49.3979 68.7719C49.6841 68.9422 50.0359 69.0271 50.4527 69.0271Z" fill="#4C4A58"/>
<path d="M62.5668 69.5113C61.8287 70.2531 60.9692 70.624 59.9878 70.624C59.38 70.624 58.809 70.5017 58.2749 70.2575C57.741 70.0132 57.2762 69.6774 56.8813 69.2497C56.4861 68.8222 56.1734 68.3184 55.9436 67.738C55.7134 67.1577 55.5984 66.5319 55.5984 65.8599C55.5984 65.2232 55.7134 64.6232 55.9436 64.0605C56.1734 63.4977 56.4906 63.0046 56.8942 62.5815C57.2981 62.1586 57.7735 61.8223 58.3206 61.5737C58.8677 61.3251 59.4623 61.2006 60.1051 61.2006C60.9732 61.2006 61.7179 61.3838 62.3389 61.7503C62.9597 62.117 63.4265 62.6098 63.7392 63.2292L62.3976 64.2238C62.1632 63.7616 61.8353 63.4084 61.4144 63.1639C60.9931 62.9194 60.5351 62.7974 60.0404 62.7974C59.6495 62.7974 59.2911 62.8806 58.9655 63.046C58.6399 63.2119 58.362 63.4388 58.1319 63.7266C57.9018 64.0145 57.7237 64.3463 57.598 64.7212C57.472 65.0964 57.4091 65.4935 57.4091 65.9123C57.4091 66.3487 57.4784 66.7565 57.6173 67.136C57.7563 67.5155 57.9473 67.845 58.1906 68.1242C58.4334 68.4034 58.7222 68.6236 59.0567 68.7852C59.3907 68.9467 59.7536 69.0271 60.1442 69.0271C61.0385 69.0271 61.8459 68.6042 62.5668 67.7577V67.1033H60.7043V65.7813H64.0518V70.5584H62.5668V69.5113Z" fill="#4C4A58"/>
<path d="M68.5187 61.267H70.1076L73.6245 70.5594H71.775L70.9153 68.2429H67.6851L66.8385 70.5594H64.989L68.5187 61.267ZM70.5897 66.9732L69.3131 63.3217L67.9845 66.9732H70.5897Z" fill="#4C4A58"/>
<path d="M74.7056 70.5584V61.2659H78.7955C79.2209 61.2659 79.6141 61.3555 79.9745 61.5342C80.3347 61.7133 80.6453 61.9489 80.9059 62.2408C81.1662 62.5336 81.3702 62.8651 81.518 63.2357C81.6655 63.6065 81.7392 63.9793 81.7392 64.3545C81.7392 64.9565 81.5896 65.5042 81.2899 65.9973C80.9902 66.4904 80.5841 66.8461 80.0718 67.0638L82.1822 70.5584H80.1632L78.2746 67.4433H76.503V70.5584H74.7056ZM76.503 65.86H78.7566C78.9212 65.86 79.0756 65.8207 79.2189 65.7423C79.3621 65.664 79.4858 65.557 79.5902 65.4218C79.6944 65.2865 79.7769 65.1273 79.8376 64.9438C79.8983 64.7608 79.9285 64.5643 79.9285 64.3547C79.9285 64.1368 79.8937 63.9359 79.8244 63.753C79.7548 63.5697 79.6616 63.4107 79.5445 63.275C79.4272 63.1399 79.2923 63.0353 79.1404 62.9608C78.9885 62.8868 78.8344 62.8498 78.6782 62.8498H76.503V65.86Z" fill="#4C4A58"/>
</svg>
