<svg width="100" height="100" viewBox="0 0 100 100" fill="none" xmlns="http://www.w3.org/2000/svg">
<g clip-path="url(#clip0)">
<path d="M99.7004 91.7322L96.3801 86.4588C95.8053 85.5459 94.5992 85.2719 93.6865 85.8467C92.7736 86.4215 92.4996 87.6274 93.0744 88.5402L94.5098 90.8197H9.18046V5.49042L11.4601 6.92577C11.7834 7.12928 12.1433 7.22635 12.499 7.22635C13.1476 7.22635 13.7824 6.90311 14.1537 6.31366C14.7283 5.40077 14.4545 4.19491 13.5416 3.62011L8.26815 0.299804C7.63222 -0.100586 6.82284 -0.100586 6.18691 0.299804L0.913482 3.62011C0.000592817 4.19491 -0.27343 5.40077 0.301373 6.31366C0.876177 7.22655 2.08223 7.50057 2.99492 6.92577L5.27461 5.49042V14.0621H2.97969C1.90098 14.0621 1.02657 14.9365 1.02657 16.0152C1.02657 17.0939 1.90098 17.9683 2.97969 17.9683H5.27461V29.687H2.97969C1.90098 29.687 1.02657 30.5615 1.02657 31.6402C1.02657 32.7189 1.90098 33.5933 2.97969 33.5933H5.27461V45.312H2.97969C1.90098 45.312 1.02657 46.1864 1.02657 47.2651C1.02657 48.3438 1.90098 49.2183 2.97969 49.2183H5.27461V60.937H2.97969C1.90098 60.937 1.02657 61.8114 1.02657 62.8901C1.02657 63.9688 1.90098 64.8432 2.97969 64.8432H5.27461V76.562H2.97969C1.90098 76.562 1.02657 77.4364 1.02657 78.5151C1.02657 79.5938 1.90098 80.4682 2.97969 80.4682H5.27461V90.8197H1.9543C0.875591 90.8197 0.00117874 91.6941 0.00117874 92.7729C0.00117874 93.8516 0.875591 94.726 1.9543 94.726H5.27461V98.0463C5.27461 99.125 6.14902 99.9994 7.22773 99.9994C8.30643 99.9994 9.18085 99.125 9.18085 98.0463V94.726H19.5324V97.0209C19.5324 98.0996 20.4068 98.974 21.4855 98.974C22.5642 98.974 23.4386 98.0996 23.4386 97.0209V94.726H35.1574V97.0209C35.1574 98.0996 36.0318 98.974 37.1105 98.974C38.1892 98.974 39.0636 98.0996 39.0636 97.0209V94.726H50.7823V97.0209C50.7823 98.0996 51.6567 98.974 52.7354 98.974C53.8142 98.974 54.6886 98.0996 54.6886 97.0209V94.726H66.4073V97.0209C66.4073 98.0996 67.2817 98.974 68.3604 98.974C69.4391 98.974 70.3135 98.0996 70.3135 97.0209V94.726H82.0323V97.0209C82.0323 98.0996 82.9067 98.974 83.9854 98.974C85.0641 98.974 85.9385 98.0996 85.9385 97.0209V94.726H94.5102L93.0748 97.0057C92.5002 97.9185 92.774 99.1244 93.6869 99.6992C94.0102 99.9027 94.3701 99.9998 94.7258 99.9998C95.3744 99.9998 96.0092 99.6766 96.3805 99.0871L99.7008 93.8137C100.101 93.1775 100.101 92.3682 99.7004 91.7322Z" fill="#242424"/>
<path d="M13.0862 33.9844V57.4219C13.0862 58.5006 13.9606 59.375 15.0393 59.375H16.9924V63.7369C16.9924 64.8156 17.8668 65.69 18.9456 65.69C20.0243 65.69 20.8987 64.8156 20.8987 63.7369V59.375H22.8518C23.9305 59.375 24.8049 58.5006 24.8049 57.4219V33.9844C24.8049 32.9057 23.9305 32.0312 22.8518 32.0312H20.8987V20.8984C20.8987 19.8197 20.0243 18.9453 18.9456 18.9453C17.8668 18.9453 16.9924 19.8197 16.9924 20.8984V32.0312H15.0393C13.9606 32.0312 13.0862 32.9057 13.0862 33.9844ZM16.9924 35.9375H20.8987V55.4687H16.9924V35.9375Z" fill="#7575CD"/>
<path d="M16.9924 35.9375H20.8987V55.4687H16.9924V35.9375Z" fill="#7575CD"/>
<path d="M61.9143 59.375H63.8674V65.69C63.8674 66.7688 64.7418 67.6432 65.8206 67.6432C66.8993 67.6432 67.7737 66.7688 67.7737 65.69V59.375H69.7268C70.8055 59.375 71.6799 58.5006 71.6799 57.4219V30.0781C71.6799 28.9994 70.8055 28.125 69.7268 28.125H67.7737V11.1328C67.7737 10.0541 66.8993 9.17969 65.8206 9.17969C64.7418 9.17969 63.8674 10.0541 63.8674 11.1328V28.125H61.9143C60.8356 28.125 59.9612 28.9994 59.9612 30.0781V57.4219C59.9612 58.5006 60.8356 59.375 61.9143 59.375ZM63.8674 32.0312H67.7737V55.4688H63.8674V32.0312Z" fill="#333399"/>
<path d="M63.8674 32.0312H67.7737V55.4688H63.8674V32.0312Z" fill="#333399"/>
<path d="M77.5393 57.4219H79.4924V59.8307C79.4924 60.9094 80.3668 61.7838 81.4456 61.7838C82.5243 61.7838 83.3987 60.9094 83.3987 59.8307V57.4219H85.3518C85.8655 57.4219 86.3694 57.2129 86.7327 56.8496C87.0959 56.4863 87.3049 55.9824 87.3049 55.4688V47.6562C87.3049 46.5801 86.428 45.7031 85.3518 45.7031C84.2756 45.7031 83.3987 46.5801 83.3987 47.6562V53.5156H79.4924V24.2188H83.3987V30.0781C83.3987 31.1562 84.2756 32.0312 85.3518 32.0312C86.4299 32.0312 87.3049 31.1562 87.3049 30.0781V30.0762V22.2656C87.3049 21.752 87.0959 21.248 86.7327 20.8848C86.3694 20.5215 85.8655 20.3125 85.3518 20.3125H83.3987V1.95312C83.3987 0.874414 82.5243 0 81.4456 0C80.3668 0 79.4924 0.874414 79.4924 1.95312V20.3125H77.5393C77.0256 20.3125 76.5217 20.5215 76.1584 20.8848C75.7952 21.248 75.5862 21.752 75.5862 22.2656V55.4688C75.5862 55.9824 75.7952 56.4863 76.1584 56.8496C76.5217 57.2129 77.0256 57.4219 77.5393 57.4219Z" fill="#1F1F82"/>
<path d="M85.3518 45.7031C86.428 45.7031 87.3049 46.5801 87.3049 47.6562V30.0781C87.3049 31.1562 86.4299 32.0312 85.3518 32.0312C84.2756 32.0312 83.3987 31.1562 83.3987 30.0781V47.6562C83.3987 46.5801 84.2756 45.7031 85.3518 45.7031Z" fill="#1F1F82"/>
<path d="M83.3987 53.5156V47.6562V30.0781V24.2188H79.4924V53.5156H83.3987Z" fill="#1F1F82"/>
<path d="M30.6643 62.3697H32.6174V75.4557C32.6174 76.5344 33.4918 77.4088 34.5706 77.4088C35.6493 77.4088 36.5237 76.5344 36.5237 75.4557V62.3697H38.4768C39.5555 62.3697 40.4299 61.4953 40.4299 60.4166V46.7447C40.4299 45.666 39.5555 44.7916 38.4768 44.7916H36.5237V40.4297C36.5237 39.351 35.6493 38.4766 34.5706 38.4766C33.4918 38.4766 32.6174 39.351 32.6174 40.4297V44.7916H30.6643C29.5856 44.7916 28.7112 45.666 28.7112 46.7447V60.4166C28.7112 61.4953 29.5856 62.3697 30.6643 62.3697ZM32.6174 48.6978H36.5237V58.4635H32.6174V48.6978Z" fill="#6262C0"/>
<path d="M32.6174 48.6978H36.5237V58.4635H32.6174V48.6978Z" fill="#6262C0"/>
<path d="M46.2893 74.0885H48.2424V83.2682C48.2424 84.3469 49.1168 85.2213 50.1956 85.2213C51.2743 85.2213 52.1487 84.3469 52.1487 83.2682V74.0885H54.1018C55.1805 74.0885 56.0549 73.2141 56.0549 72.1354V54.5572C56.0549 53.4785 55.1805 52.6041 54.1018 52.6041H52.1487V50.1953C52.1487 49.1166 51.2743 48.2422 50.1956 48.2422C49.1168 48.2422 48.2424 49.1166 48.2424 50.1953V52.6041H46.2893C45.2106 52.6041 44.3362 53.4785 44.3362 54.5572V72.1354C44.3362 73.2141 45.2106 74.0885 46.2893 74.0885ZM48.2424 56.5104H52.1487V70.1822H48.2424V56.5104Z" fill="#4C4CAE"/>
<path d="M48.2424 56.5104H52.1487V70.1822H48.2424V56.5104Z" fill="#4C4CAE"/>
</g>
<defs>
<clipPath id="clip0">
<rect width="100" height="100" fill="white"/>
</clipPath>
</defs>
</svg>
