<svg width="100" height="100" viewBox="0 0 100 100" fill="none" xmlns="http://www.w3.org/2000/svg">
<path d="M50 2.27264C40.5604 2.27264 31.3329 5.0718 23.4841 10.3161C15.6354 15.5605 9.51811 23.0145 5.90575 31.7355C2.29338 40.4565 1.34823 50.0529 3.18979 59.311C5.03136 68.5692 9.57694 77.0734 16.2517 83.7482C22.9265 90.423 31.4307 94.9686 40.6889 96.8101C49.9471 98.6517 59.5434 97.7065 68.2644 94.0942C76.9855 90.4818 84.4394 84.3645 89.6838 76.5158C94.9281 68.6671 97.7273 59.4395 97.7273 49.9999C97.7273 37.3419 92.6989 25.2022 83.7483 16.2516C74.7977 7.30104 62.6581 2.27264 50 2.27264ZM43.1818 77.2726L45.4545 49.9999H36.3636L56.8182 22.7272L54.8295 49.9999H63.6364L43.1818 77.2726Z" fill="#333399"/>
<path d="M50 0C22.429 0 0 22.429 0 50C0 77.571 22.429 100 50 100C77.571 100 100 77.571 100 50C100 22.429 77.571 0 50 0ZM50 95.4545C24.9375 95.4545 4.54545 75.0625 4.54545 50C4.54545 24.9375 24.9375 4.54545 50 4.54545C75.0625 4.54545 95.4545 24.9375 95.4545 50C95.4545 75.0625 75.0625 95.4545 50 95.4545Z" fill="#7575CD"/>
<path d="M65.6704 48.983C65.4811 48.6056 65.1907 48.2883 64.8315 48.0665C64.4722 47.8448 64.0584 47.7273 63.6363 47.7273H57.2726L59.0851 22.892C59.1208 22.4022 58.9969 21.9139 58.7318 21.5004C58.4668 21.0868 58.0749 20.7703 57.6148 20.5982C57.1548 20.4261 56.6514 20.4076 56.1799 20.5456C55.7085 20.6836 55.2945 20.9706 54.9999 21.3636L34.5454 48.6364C34.2921 48.974 34.1379 49.3755 34.1 49.7959C34.0621 50.2163 34.142 50.6389 34.3308 51.0164C34.5195 51.3939 34.8097 51.7114 35.1687 51.9333C35.5277 52.1552 35.9415 52.2727 36.3636 52.2727H42.9857L40.9175 77.0852C40.8771 77.5764 40.9975 78.0674 41.2604 78.4842C41.5234 78.901 41.9147 79.2211 42.3754 79.3961C42.8361 79.5711 43.3412 79.5917 43.8146 79.4547C44.2879 79.3176 44.704 79.0304 44.9999 78.6364L65.4545 51.3636C65.7077 51.0259 65.862 50.6243 65.9001 50.2039C65.9383 49.7835 65.8587 49.3608 65.6704 48.983ZM46.1022 69.5909L47.7187 50.1875C47.7452 49.8743 47.7063 49.5589 47.6045 49.2615C47.5027 48.9641 47.3402 48.6911 47.1273 48.4597C46.9144 48.2284 46.6558 48.0439 46.3678 47.9178C46.0798 47.7917 45.7688 47.7268 45.4545 47.7273H40.909L53.9886 30.2898L52.5624 49.8352C52.5398 50.1468 52.5816 50.4596 52.6853 50.7543C52.7889 51.049 52.9522 51.3191 53.165 51.5478C53.3777 51.7766 53.6353 51.959 53.9217 52.0837C54.2081 52.2084 54.5171 52.2728 54.8295 52.2727H59.0908L46.1022 69.5909Z" fill="#FFCD6B"/>
<path d="M46.1022 69.5909L47.7187 50.1875C47.7452 49.8743 47.7063 49.5589 47.6045 49.2615C47.5027 48.9641 47.3402 48.6911 47.1273 48.4597C46.9144 48.2284 46.6558 48.0439 46.3678 47.9178C46.0798 47.7917 45.7688 47.7268 45.4545 47.7273H40.909L53.9886 30.2898L52.5624 49.8352C52.5398 50.1468 52.5816 50.4596 52.6853 50.7543C52.7889 51.049 52.9522 51.3191 53.165 51.5478C53.3777 51.7766 53.6353 51.959 53.9217 52.0837C54.2081 52.2084 54.5171 52.2728 54.8295 52.2727H59.0908L46.1022 69.5909Z" fill="#FFCD6B"/>
</svg>
