<svg width="131" height="100" viewBox="0 0 131 100" fill="none" xmlns="http://www.w3.org/2000/svg">
<path d="M94.0409 31.8815L94.5454 32.1076C96.8504 33.1408 98.6949 34.9853 99.7281 37.2903L99.9544 37.7947C100.565 39.1585 102.501 39.1585 103.113 37.7947L103.339 37.2903C104.372 34.985 106.217 33.1405 108.522 32.1073L109.026 31.8813C110.39 31.2699 110.39 29.3339 109.026 28.7226L108.522 28.4965C106.217 27.4636 104.372 25.6188 103.339 23.3136L103.113 22.8091C102.502 21.4453 100.565 21.4453 99.9544 22.8091L99.7281 23.3136C98.6951 25.6186 96.8504 27.4633 94.5454 28.4963L94.0409 28.7223C92.6771 29.3342 92.6771 31.2702 94.0409 31.8815Z" fill="#333399"/>
<path d="M46.4712 10.095L46.9756 10.321C49.2806 11.3543 51.1251 13.1988 52.1583 15.504L52.3846 16.0085C52.9957 17.3723 54.9317 17.3723 55.5431 16.0085L55.7691 15.504C56.802 13.1988 58.6468 11.3543 60.9518 10.321L61.4563 10.095C62.8201 9.48369 62.8201 7.54765 61.4563 6.93631L60.9518 6.71029C58.6468 5.67733 56.802 3.83257 55.7691 1.52733L55.5431 1.02286C54.932 -0.340954 52.9959 -0.340954 52.3846 1.02286L52.1583 1.52733C51.1254 3.83231 49.2806 5.67707 46.9756 6.71003L46.4712 6.93605C45.1076 7.54765 45.1076 9.48394 46.4712 10.095Z" fill="#333399"/>
<path d="M10.39 44.0399L10.8945 44.2659C13.1995 45.2991 15.044 47.1436 16.0772 49.4486L16.3035 49.9531C16.9146 51.3169 18.8509 51.3169 19.462 49.9531L19.688 49.4486C20.7209 47.1436 22.5657 45.2989 24.8707 44.2656L25.3752 44.0396C26.739 43.4283 26.739 41.4922 25.3752 40.8809L24.8707 40.6549C22.5657 39.6219 20.7209 37.7772 19.688 35.4719L19.462 34.9674C18.8509 33.6036 16.9146 33.6036 16.3035 34.9674L16.0772 35.4719C15.0443 37.7769 13.1995 39.6217 10.8945 40.6546L10.39 40.8806C9.02623 41.4925 9.02623 43.4285 10.39 44.0399Z" fill="#333399"/>
<path d="M86.2523 49.1133L82.4043 36.6559C81.3567 33.265 78.2221 30.9524 74.6732 30.9524H56.2371C52.6882 30.9524 49.5533 33.265 48.506 36.6559L44.658 49.1133L65.455 51.4145L86.2523 49.1133Z" fill="#FFCD6B"/>
<path d="M44.6578 49.1133L43.6977 52.2217C43.4298 53.0892 44.0782 53.9683 44.9864 53.9683H85.9239C86.8318 53.9683 87.4805 53.0892 87.2125 52.2217L86.2524 49.1133H44.6578Z" fill="#FFC147"/>
<path d="M64.4337 72.1292L60.5857 59.6718C59.5384 56.2809 56.4034 53.9683 52.8546 53.9683H34.4185C30.8696 53.9683 27.7347 56.2809 26.6874 59.6718L22.8394 72.1292L43.6367 74.4304L64.4337 72.1292Z" fill="#C0C0C0"/>
<path d="M22.8395 72.1292L21.8794 75.2376C21.6114 76.1051 22.2598 76.9841 23.1677 76.9841H64.1052C65.0132 76.9841 65.6618 76.1051 65.3939 75.2376L64.4338 72.1292H22.8395Z" fill="#5F5F5F"/>
<path d="M108.07 72.1292L104.222 59.6718C103.175 56.2809 100.04 53.9683 96.4913 53.9683H78.0552C74.5063 53.9683 71.3714 56.2809 70.3241 59.6718L66.4761 72.1292L87.2734 74.4304L108.07 72.1292Z" fill="#CFCFCF"/>
<path d="M66.4762 72.1292L65.5161 75.2376C65.2481 76.1051 65.8965 76.9841 66.8045 76.9841H107.742C108.65 76.9841 109.299 76.1051 109.031 75.2376L108.071 72.1292H66.4762Z" fill="#6B6B6B"/>
<path d="M42.6153 95.1451L38.7673 82.6877C37.72 79.2968 34.5851 76.9841 31.0362 76.9841H12.6001C9.05125 76.9841 5.91631 79.2968 4.86903 82.6877L1.021 95.1451L21.818 97.4462L42.6153 95.1451Z" fill="#FFCD6B"/>
<path d="M1.02109 95.1451L0.0609975 98.2534C-0.206959 99.121 0.441455 100 1.34964 100H42.2871C43.1951 100 43.8437 99.121 43.5755 98.2534L42.6154 95.1451H1.02109Z" fill="#FFC147"/>
<path d="M86.2523 95.1451L82.4043 82.6877C81.3567 79.2968 78.2221 76.9841 74.6732 76.9841H56.2371C52.6882 76.9841 49.5533 79.2968 48.506 82.6877L44.658 95.1451L65.455 97.4462L86.2523 95.1451Z" fill="#C0C0C0"/>
<path d="M44.6576 95.1451L43.6975 98.2534C43.4295 99.121 44.0779 100 44.9861 100H85.9236C86.8315 100 87.4802 99.121 87.2123 98.2534L86.2522 95.1451H44.6576Z" fill="#5F5F5F"/>
<path d="M129.889 95.1451L126.041 82.6877C124.993 79.2968 121.859 76.9841 118.31 76.9841H99.8736C96.3247 76.9841 93.1898 79.2968 92.1425 82.6877L88.2944 95.1451L109.091 97.4462L129.889 95.1451Z" fill="#FFCD6B"/>
<path d="M88.2943 95.1451L87.3342 98.2534C87.0662 99.121 87.7147 100 88.6228 100H129.561C130.469 100 131.117 99.121 130.849 98.2534L129.889 95.1451H88.2943Z" fill="#FFC147"/>
</svg>
