<svg width="127" height="100" viewBox="0 0 127 100" fill="none" xmlns="http://www.w3.org/2000/svg">
<path opacity="0.1" d="M8.18414 58.312C12.6977 58.312 16.3683 54.6415 16.3683 50.1279C16.3683 49.8742 16.3151 49.6328 16.2926 49.3852L42.3693 36.3478C43.8465 38.488 46.312 39.8977 49.1049 39.8977C51.7299 39.8977 54.0419 38.6353 55.5417 36.708L66.5514 46.1443C65.8844 47.3289 65.4731 48.6752 65.4731 50.1279C65.4731 54.6415 69.1437 58.312 73.6573 58.312C78.1708 58.312 81.8414 54.6415 81.8414 50.1279C81.8414 49.7739 81.7801 49.4384 81.7371 49.0967L114.42 20.2599C115.662 21.021 117.109 21.4834 118.67 21.4834C123.184 21.4834 126.854 17.8128 126.854 13.2993C126.854 8.7857 123.184 5.11511 118.67 5.11511C114.157 5.11511 110.486 8.7857 110.486 13.2993C110.486 14.7642 110.903 16.1187 111.579 17.3095L80.0737 45.109C78.5739 43.1959 76.2701 41.9438 73.6573 41.9438C72.0839 41.9438 70.6271 42.4103 69.379 43.1837L57.1867 32.7325C57.2276 32.3949 57.289 32.0614 57.289 31.7136C57.289 27.2 53.6184 23.5294 49.1049 23.5294C44.5913 23.5294 40.9207 27.2 40.9207 31.7136C40.9207 31.9673 40.9739 32.2087 40.9964 32.4563L14.9197 45.4957C13.4425 43.3535 10.977 41.9438 8.18414 41.9438C3.67059 41.9438 0 45.6143 0 50.1279C0 54.6415 3.67059 58.312 8.18414 58.312ZM118.67 9.20718C120.927 9.20718 122.762 11.0425 122.762 13.2993C122.762 15.556 120.927 17.3913 118.67 17.3913C116.413 17.3913 114.578 15.556 114.578 13.2993C114.578 11.0425 116.413 9.20718 118.67 9.20718ZM77.7494 50.1279C77.7494 52.3847 75.9141 54.22 73.6573 54.22C71.4005 54.22 69.5652 52.3847 69.5652 50.1279C69.5652 47.8711 71.4005 46.0358 73.6573 46.0358C75.9141 46.0358 77.7494 47.8711 77.7494 50.1279ZM49.1049 27.6215C51.3616 27.6215 53.1969 29.4568 53.1969 31.7136C53.1969 33.9704 51.3616 35.8056 49.1049 35.8056C46.8481 35.8056 45.0128 33.9704 45.0128 31.7136C45.0128 29.4568 46.8481 27.6215 49.1049 27.6215ZM8.18414 46.0358C10.4409 46.0358 12.2762 47.8711 12.2762 50.1279C12.2762 52.3847 10.4409 54.22 8.18414 54.22C5.92737 54.22 4.09207 52.3847 4.09207 50.1279C4.09207 47.8711 5.92737 46.0358 8.18414 46.0358Z" fill="#333399"/>
<path d="M0 97.954C0 96.824 0.916041 95.908 2.04604 95.908H124.808C125.938 95.908 126.854 96.824 126.854 97.954C126.854 99.084 125.938 100 124.808 100H2.04603C0.91604 100 0 99.084 0 97.954Z" fill="#333399"/>
<path d="M28.6445 41.8747C28.6445 40.2178 29.9877 38.8747 31.6445 38.8747H33.8287C35.4855 38.8747 36.8287 40.2178 36.8287 41.8747V64.5192C36.8287 66.1761 35.4855 67.5192 33.8287 67.5192H31.6445C29.9877 67.5192 28.6445 66.1761 28.6445 64.5192V41.8747Z" fill="#7575CD"/>
<path d="M69.5652 58.243C69.5652 56.5861 70.9083 55.243 72.5652 55.243H74.7493C76.4062 55.243 77.7493 56.5861 77.7493 58.243V80.8875C77.7493 82.5443 76.4062 83.8875 74.7493 83.8875H72.5652C70.9083 83.8875 69.5652 82.5443 69.5652 80.8875V58.243Z" fill="#7575CD"/>
<path d="M90.0256 13.2302C90.0256 11.5733 91.3688 10.2302 93.0256 10.2302H95.2098C96.8666 10.2302 98.2098 11.5733 98.2098 13.2302V35.8747C98.2098 37.5315 96.8666 38.8747 95.2098 38.8747H93.0256C91.3688 38.8747 90.0256 37.5315 90.0256 35.8747V13.2302Z" fill="#7575CD"/>
<path d="M8.18408 21.4143C8.18408 19.7574 9.52723 18.4143 11.1841 18.4143H13.3682C15.0251 18.4143 16.3682 19.7575 16.3682 21.4143V44.0588C16.3682 45.7157 15.0251 47.0588 13.3682 47.0588H11.1841C9.52723 47.0588 8.18408 45.7157 8.18408 44.0588V21.4143Z" fill="#333399"/>
<path d="M49.105 13.2302C49.105 11.5733 50.4481 10.2302 52.105 10.2302H54.2891C55.946 10.2302 57.2891 11.5733 57.2891 13.2302V35.8747C57.2891 37.5315 55.946 38.8747 54.2891 38.8747H52.105C50.4481 38.8747 49.105 37.5315 49.105 35.8747V13.2302Z" fill="#333399"/>
<path d="M110.486 21.4143C110.486 19.7574 111.829 18.4143 113.486 18.4143H115.67C117.327 18.4143 118.67 19.7575 118.67 21.4143V44.0588C118.67 45.7157 117.327 47.0588 115.67 47.0588H113.486C111.829 47.0588 110.486 45.7157 110.486 44.0588V21.4143Z" fill="#333399"/>
<path d="M11.2529 9.20716C11.2529 8.64216 11.711 8.18414 12.2759 8.18414C12.8409 8.18414 13.299 8.64216 13.299 9.20716V26.8542C13.299 27.4192 12.8409 27.8772 12.2759 27.8772C11.711 27.8772 11.2529 27.4192 11.2529 26.8542V9.20716Z" fill="#333399"/>
<path d="M11.2529 36.0614C11.2529 35.4964 11.711 35.0384 12.2759 35.0384C12.8409 35.0384 13.299 35.4964 13.299 36.0614V56.266C13.299 56.831 12.8409 57.289 12.2759 57.289C11.711 57.289 11.2529 56.831 11.2529 56.266V36.0614Z" fill="#333399"/>
<path d="M31.7134 29.6675C31.7134 29.1026 32.1714 28.6445 32.7364 28.6445C33.3014 28.6445 33.7594 29.1026 33.7594 29.6675V46.8031C33.7594 47.3681 33.3014 47.8261 32.7364 47.8261C32.1714 47.8261 31.7134 47.3681 31.7134 46.8031V29.6675Z" fill="#7575CD"/>
<path d="M31.7134 62.4041C31.7134 61.8391 32.1714 61.3811 32.7364 61.3811C33.3014 61.3811 33.7594 61.8391 33.7594 62.4041V76.7264C33.7594 77.2914 33.3014 77.7494 32.7364 77.7494C32.1714 77.7494 31.7134 77.2914 31.7134 76.7264V62.4041Z" fill="#7575CD"/>
<path d="M52.1736 1.02302C52.1736 0.458021 52.6316 0 53.1966 0C53.7616 0 54.2196 0.458021 54.2196 1.02302V20.9719C54.2196 21.5369 53.7616 21.9949 53.1966 21.9949C52.6316 21.9949 52.1736 21.5369 52.1736 20.9719V1.02302Z" fill="#333399"/>
<path d="M52.1736 29.6676C52.1736 29.1026 52.6316 28.6445 53.1966 28.6445C53.7616 28.6445 54.2196 29.1026 54.2196 29.6675V48.0819C54.2196 48.6469 53.7616 49.1049 53.1966 49.1049C52.6316 49.1049 52.1736 48.6469 52.1736 48.0819V29.6676Z" fill="#333399"/>
<path d="M72.634 46.0358C72.634 45.4708 73.0921 45.0128 73.6571 45.0128C74.222 45.0128 74.6801 45.4708 74.6801 46.0358V60.3581C74.6801 60.9231 74.222 61.3811 73.6571 61.3811C73.0921 61.3811 72.634 60.9231 72.634 60.3581V46.0358Z" fill="#7575CD"/>
<path d="M72.634 80.3069C72.634 79.7419 73.0921 79.2839 73.6571 79.2839C74.222 79.2839 74.6801 79.7419 74.6801 80.3069V93.0946C74.6801 93.6596 74.222 94.1176 73.6571 94.1176C73.0921 94.1176 72.634 93.6596 72.634 93.0946V80.3069Z" fill="#7575CD"/>
<path d="M93.0942 1.02302C93.0942 0.458021 93.5523 0 94.1173 0C94.6823 0 95.1403 0.458021 95.1403 1.02302V14.0665C95.1403 14.6315 94.6823 15.0895 94.1173 15.0895C93.5523 15.0895 93.0942 14.6315 93.0942 14.0665V1.02302Z" fill="#7575CD"/>
<path d="M93.0942 35.2941C93.0942 34.7291 93.5523 34.2711 94.1173 34.2711C94.6823 34.2711 95.1403 34.7291 95.1403 35.2941V48.0819C95.1403 48.6469 94.6823 49.1049 94.1173 49.1049C93.5523 49.1049 93.0942 48.6469 93.0942 48.0819V35.2941Z" fill="#7575CD"/>
<path d="M113.555 9.20716C113.555 8.64216 114.013 8.18414 114.578 8.18414C115.143 8.18414 115.601 8.64216 115.601 9.20716V22.5064C115.601 23.0714 115.143 23.5294 114.578 23.5294C114.013 23.5294 113.555 23.0714 113.555 22.5064V9.20716Z" fill="#333399"/>
<path d="M113.555 42.711C113.555 42.146 114.013 41.688 114.578 41.688C115.143 41.688 115.601 42.146 115.601 42.711V56.266C115.601 56.831 115.143 57.289 114.578 57.289C114.013 57.289 113.555 56.831 113.555 56.266V42.711Z" fill="#333399"/>
</svg>
