<svg width="111" height="28" viewBox="0 0 111 28" fill="none" xmlns="http://www.w3.org/2000/svg">
<path d="M29.2594 0.0292969H2.30359C1.31899 0.0292969 0 0.266662 0 2.22036V21.2096H5.88903V16.2523H9.54877L12.0381 13.9517L9.58592 11.6419H5.88903V5.34262H25.0237L29.2594 0.0292969Z" fill="#fff"/>
<path d="M28.6841 21.2079H21.1045L18.095 17.6839L15.0668 21.2079H7.50586L14.2494 13.9408L7.50586 6.67383H15.0668L18.095 10.3621L21.1045 6.67383H28.6841L21.9219 13.9408L28.6841 21.2079Z" fill="#fff"/>
<path d="M27.1426 5.34112L31.1367 0.0277934C34.1277 0.0277934 35.3909 -0.355642 35.3909 1.72587C35.3909 2.85791 35.4652 21.2081 35.4652 21.2081H30.7652V5.3046L27.1426 5.34112Z" fill="#fff"/>
<path d="M33.2349 28.0002H2.24786C1.95253 28.0007 1.66001 27.9439 1.38707 27.833C1.11412 27.7222 0.866126 27.5595 0.657295 27.3542C0.448464 27.149 0.282907 26.9052 0.170115 26.637C0.0573224 26.3687 -0.000486283 26.0812 3.08111e-06 25.7909V22.6504H35.4642V25.7909C35.4662 26.3743 35.2325 26.9346 34.8146 27.3488C34.3966 27.7631 33.8285 27.9973 33.2349 28.0002Z" fill="#fff"/>
<path d="M71.9138 3.66113V24.2206" stroke="#fff" stroke-width="2" stroke-miterlimit="10"/>
<path d="M53.5392 10.4717H48.2818V13.4296H52.8519V14.5617H48.2818V18.889H47V9.35791H53.5392V10.4717Z" fill="#fff"/>
<path d="M65.5968 18.871H64.0177L61.1383 14.8358L58.2588 18.871H56.6797L60.4137 13.8498L57.0512 9.33984H58.6117L61.1197 12.8638L63.6462 9.33984H65.2067L61.8442 13.8498L65.5968 18.871Z" fill="#fff"/>
<path d="M83.0211 9.17521C83.6437 9.15729 84.2632 9.26832 84.8393 9.50111C85.4154 9.73389 85.9352 10.0832 86.365 10.5264C87.2381 11.421 87.6654 12.6261 87.6654 14.1051C87.6654 15.5841 87.2381 16.7891 86.365 17.6838C85.4918 18.5785 84.3958 19.035 83.0211 19.035C81.6463 19.035 80.5317 18.5785 79.6771 17.6838C78.8226 16.7891 78.3767 15.5841 78.3767 14.1051C78.3767 12.6261 78.804 11.421 79.6771 10.5264C80.1069 10.0832 80.6267 9.73389 81.2028 9.50111C81.7789 9.26832 82.3984 9.15729 83.0211 9.17521ZM83.0211 17.9577C83.4695 17.9693 83.915 17.8836 84.3259 17.7069C84.7369 17.5302 85.1032 17.2667 85.399 16.9352C86.012 16.2596 86.3278 15.3102 86.3278 14.1051C86.3278 12.9 86.012 11.9506 85.399 11.275C85.0958 10.9526 84.728 10.6953 84.3188 10.5194C83.9096 10.3434 83.4677 10.2526 83.0211 10.2526C82.5744 10.2526 82.1325 10.3434 81.7233 10.5194C81.3141 10.6953 80.9463 10.9526 80.6432 11.275C80.0115 11.9506 79.7143 12.9 79.7143 14.1051C79.7143 15.3102 80.0301 16.2596 80.6432 16.9352C80.9389 17.2667 81.3052 17.5302 81.7162 17.7069C82.1271 17.8836 82.5726 17.9693 83.0211 17.9577Z" fill="#fff"/>
<path d="M99.1653 18.871H97.8463L92.7561 11.3483V18.871H91.5486V9.33984H92.8676L97.9578 16.8625V9.33984H99.1839V18.871H99.1653Z" fill="#fff"/>
<path d="M111 18.871H103.773V9.33984H110.777V10.4719H105.055V13.3933H110.405V14.5254H105.055V17.7572H111V18.871Z" fill="#fff"/>
</svg>
