<svg width="143" height="29" viewBox="0 0 143 29" fill="none" xmlns="http://www.w3.org/2000/svg">
<path d="M0 28.6688V0H143V28.6688H0ZM57.9891 19.4202C59.1475 19.3659 60.4868 19.3116 61.8261 19.2573C63.1356 19.1917 64.4373 19.0161 65.7174 18.7324C66.6585 18.5153 67.5635 18.2438 68.3779 17.7189C69.3087 17.0784 70.0973 16.2527 70.6946 15.2936C72.0701 13.2123 72.9932 10.9318 73.699 8.56082C74.0248 7.43868 74.2601 6.28034 74.0972 5.08581C74.0622 4.68509 73.9364 4.2976 73.7294 3.95267C73.5225 3.60775 73.2398 3.31443 72.9027 3.09492C72.4181 2.78678 71.8861 2.56054 71.3281 2.42526C69.7354 1.99089 68.0883 1.86419 66.4413 1.828C64.2866 1.74959 62.1291 1.79794 59.98 1.97279C58.788 2.07543 57.6033 2.25071 56.4326 2.49766C54.721 2.83012 53.1931 3.78429 52.1432 5.17631C51.3023 6.28894 50.5975 7.49808 50.0437 8.778C49.1568 10.7508 48.3243 12.7417 48.1252 14.9317C48.0288 15.6736 48.1482 16.4276 48.4691 17.1035C48.8491 17.8818 49.5369 18.2981 50.3152 18.5876C51.6364 19.0763 53.0119 19.2211 54.3874 19.3116C55.5458 19.3659 56.686 19.3659 57.9891 19.4202ZM7.61967 12.9589H1.828C1.7556 12.9589 1.61081 13.0132 1.59271 13.0675C1.28503 13.8095 0.959246 14.5516 0.723959 15.3298C0.343881 16.5787 0.742058 17.556 1.88229 18.1895C2.27848 18.4088 2.69718 18.5848 3.13112 18.7143C4.70573 19.203 6.33464 19.3297 7.96355 19.3478C10.2621 19.384 12.5426 19.4202 14.8412 19.2392C15.8299 19.1859 16.8115 19.0405 17.7732 18.8048C19.203 18.4248 20.3613 17.6646 21.0672 16.3253C21.7921 14.9691 22.2585 13.4901 22.4427 11.9634C22.4932 11.6333 22.4689 11.2961 22.3718 10.9767C22.2747 10.6572 22.1072 10.3635 21.8817 10.1173C21.5328 9.76689 21.1043 9.50608 20.6328 9.35717C19.4564 8.9228 18.2438 8.778 17.013 8.66941C16.1624 8.57891 15.3117 8.54272 14.4611 8.48842C13.3389 8.39793 12.2168 8.34363 11.0947 8.23503C10.6955 8.18721 10.3017 8.10238 9.91824 7.98165C9.80038 7.95563 9.69562 7.88856 9.62268 7.7924C9.54973 7.69625 9.51336 7.57728 9.52006 7.45678C9.50726 7.12002 9.61234 6.78934 9.81717 6.52173C10.022 6.25412 10.3138 6.06634 10.6422 5.99076C11.2814 5.86676 11.9285 5.78813 12.5788 5.75547C14.1353 5.68308 15.7099 5.62878 17.2483 5.80977C17.6202 5.85709 17.9812 5.96725 18.3162 6.13555C18.3857 6.16296 18.4489 6.20445 18.5017 6.25741C18.5545 6.31038 18.5958 6.37368 18.623 6.44335C18.6502 6.51302 18.6627 6.58755 18.6597 6.66228C18.6567 6.73701 18.6384 6.81032 18.6057 6.87761C18.5695 7.0043 18.4972 7.1129 18.461 7.23959C18.3886 7.40248 18.3162 7.58347 18.2438 7.76446H23.7097C23.8002 7.76446 23.9449 7.72826 23.963 7.65587C24.325 6.84141 24.7413 6.02696 24.8318 5.12201C24.9223 4.30756 24.687 3.6198 24.0173 3.11302C23.4503 2.70711 22.8019 2.42922 22.1169 2.29857C20.5241 1.94927 18.8971 1.77929 17.2664 1.7918C15.2393 1.7737 13.1942 1.828 11.1671 1.86419C10.0978 1.8829 9.03457 2.02872 7.99975 2.29857C6.60613 2.64245 5.42969 3.33021 4.59714 4.50664C4.04203 5.32393 3.61481 6.2211 3.33021 7.16719C3.10499 7.78942 2.9768 8.44259 2.95013 9.10378C2.91393 9.99063 3.23972 10.6784 4.05417 11.0947C4.28938 11.2291 4.53811 11.3383 4.79623 11.4205C6.33464 11.9091 7.92735 12.0177 9.50196 12.1625C10.2078 12.2168 10.9318 12.2711 11.6376 12.3073C12.4521 12.3616 13.2846 12.3978 14.0991 12.4702C14.6574 12.5147 15.2132 12.5872 15.7642 12.6874C16.3434 12.796 16.4882 13.0856 16.3796 13.6647C16.2167 14.5154 15.7642 15.0945 14.8593 15.2212C14.2844 15.3173 13.7041 15.3778 13.1218 15.4022C11.8367 15.4203 10.5517 15.4203 9.26668 15.366C8.71958 15.3266 8.17898 15.2233 7.65587 15.0583C7.20339 14.9317 6.91381 14.6421 7.20339 14.0267C7.34818 13.7009 7.45678 13.3389 7.61967 12.9589ZM22.6961 19.2392C22.7269 19.2414 22.7573 19.2474 22.7866 19.2573H28.8679C29.0127 19.2573 29.0489 19.1849 29.0851 19.0763C29.6823 17.5198 30.2796 15.9814 30.8588 14.4249C30.8734 14.3338 30.9236 14.2523 30.9981 14.198C31.0727 14.1438 31.1658 14.1212 31.2569 14.1353C34.0442 14.1172 36.8314 14.2258 39.6187 14.0629C40.7079 13.9995 41.7909 13.8543 42.8584 13.6285C44.2882 13.3027 45.5732 12.6874 46.5144 11.5471C47.8016 9.98872 48.5619 8.06252 48.6862 6.04506C48.7551 5.25669 48.5781 4.46634 48.1795 3.78269C47.6727 2.93203 46.8763 2.55196 45.9714 2.31667C44.7184 2.03632 43.4361 1.9087 42.1525 1.93659C37.9536 1.91849 33.7546 1.93659 29.5556 1.91849C29.4838 1.90555 29.4097 1.92095 29.349 1.96144C29.2882 2.00194 29.2455 2.06438 29.2298 2.13568C27.2571 7.31199 25.2843 12.4762 23.3115 17.6284C23.0943 18.1533 22.8952 18.6962 22.6961 19.2392ZM118.53 1.91849C118.505 1.92153 118.479 1.91509 118.458 1.90039H100.087C100.037 1.89546 99.9873 1.90945 99.9471 1.9396C99.9069 1.96976 99.8794 2.01389 99.8701 2.06328C97.8431 7.38438 95.822 12.6994 93.807 18.0085C93.7842 18.0735 93.7661 18.14 93.7527 18.2076C94.0785 18.1533 94.3681 18.1171 94.6576 18.0628C95.635 17.918 96.6304 17.7551 97.6078 17.6103C98.4946 17.4655 99.3815 17.3388 100.25 17.2121C100.32 17.2102 100.387 17.1864 100.442 17.1441C100.497 17.1019 100.538 17.0434 100.558 16.9768C101.119 15.4746 101.68 13.9905 102.241 12.4883C102.26 12.4139 102.305 12.349 102.369 12.3056C102.432 12.2623 102.509 12.2436 102.585 12.253H113.752C113.816 12.2619 113.882 12.2464 113.935 12.2096C113.989 12.1728 114.027 12.1172 114.042 12.0539C114.331 11.2576 114.639 10.4612 114.947 9.64675C115.091 9.26667 115.236 8.9047 115.381 8.48842H103.761C103.772 8.426 103.79 8.36516 103.816 8.30743C104.087 7.58347 104.377 6.85951 104.648 6.13555C104.703 5.97266 104.793 5.93646 104.956 5.93646H116.72C116.806 5.94781 116.893 5.92609 116.964 5.87569C117.034 5.82529 117.083 5.74998 117.1 5.66498C117.318 5.04961 117.553 4.43425 117.788 3.83698C118.023 3.23972 118.295 2.57005 118.53 1.91849ZM137.136 19.2573C137.082 19.1668 137.064 19.1125 137.027 19.0582C133.625 13.4113 130.222 7.75843 126.82 2.09948C126.791 2.0441 126.746 1.99877 126.691 1.96964C126.636 1.94051 126.574 1.92897 126.512 1.93659H120.322C120.249 1.93362 120.176 1.93969 120.105 1.95469C120.137 2.02885 120.174 2.10134 120.213 2.17188C121.679 4.79623 123.164 7.42058 124.63 10.0268C124.72 10.1716 124.702 10.244 124.557 10.3526C123.725 10.9861 122.892 11.6195 122.059 12.2711C119.218 14.4611 116.358 16.633 113.517 18.8229C113.336 18.9677 113.155 19.1125 112.938 19.2754H120.322C120.42 19.2731 120.514 19.2416 120.593 19.1849C122.385 17.8637 124.159 16.5425 125.951 15.2393C126.313 14.9679 126.693 14.6964 127.073 14.4068C127.127 14.4973 127.163 14.5516 127.2 14.6059C128.032 16.1081 128.883 17.5922 129.715 19.0944C129.742 19.1565 129.788 19.2079 129.847 19.2407C129.906 19.2734 129.974 19.2857 130.041 19.2754H136.665C136.822 19.2596 136.979 19.2536 137.136 19.2573ZM97.9879 1.91849H77.2826C77.1197 1.91849 77.0654 1.97279 77.0111 2.11758C76.6854 2.98633 76.3596 3.83698 76.0338 4.70573C75.8528 5.17631 75.6718 5.64688 75.4908 6.13555H82.6399C80.9567 10.5155 79.2916 14.8774 77.6265 19.2754H83.7259C83.7972 19.2845 83.8695 19.2676 83.9293 19.2277C83.9892 19.1878 84.0326 19.1276 84.0516 19.0582C85.6625 14.8231 87.2914 10.5879 88.9022 6.37084C88.915 6.29687 88.9563 6.23087 89.0172 6.18691C89.0781 6.14295 89.1537 6.12452 89.228 6.13555C91.5446 6.13555 93.8613 6.13555 96.178 6.15365C96.2498 6.16659 96.3239 6.1512 96.3846 6.1107C96.4454 6.07021 96.4881 6.00776 96.5037 5.93646C96.8114 5.08581 97.1372 4.25326 97.463 3.42071C97.6108 2.91089 97.786 2.40943 97.9879 1.91849ZM93.4631 19.2211C93.5036 19.236 93.5468 19.2421 93.5898 19.2392H111.743C111.8 19.2447 111.857 19.2294 111.904 19.1961C111.95 19.1629 111.983 19.1139 111.996 19.0582C112.268 18.3343 112.558 17.5922 112.829 16.8682C112.956 16.5606 113.064 16.2348 113.209 15.8909C106.603 17.013 100.021 18.1231 93.4631 19.2211ZM142.91 2.26237C142.91 2.24427 142.891 2.24427 142.891 2.22617H140.231C140.141 2.23704 140.054 2.26796 139.977 2.31667C137.607 4.05417 135.236 5.80374 132.865 7.56537C132.43 7.87305 132.014 8.19884 131.561 8.52462C131.869 9.06759 132.177 9.59246 132.484 10.1354C135.96 7.49298 139.435 4.86862 142.91 2.26237ZM138.946 2.09948C138.898 2.08826 138.85 2.08219 138.801 2.08138H136.231C136.141 2.09225 136.054 2.12317 135.978 2.17188C134.439 3.29401 132.919 4.41615 131.38 5.55639C131.018 5.82787 130.657 6.08126 130.295 6.35274C130.602 6.87761 130.892 7.38438 131.199 7.90925C133.788 5.97266 136.34 4.05417 138.946 2.09948ZM132.828 26.6779V21.8274H132.05V25.4653C132.032 25.4472 132.032 25.4291 132.014 25.3929C131.489 24.1802 130.729 23.0943 130.077 21.9722C130.041 21.9179 129.969 21.8274 129.914 21.8274C129.607 21.8093 129.299 21.8274 128.991 21.8274V26.6779H129.77V22.9314C129.788 22.9495 129.806 22.9495 129.806 22.9676C130.476 24.1621 131.145 25.3567 131.833 26.5512C131.889 26.6287 131.974 26.6807 132.068 26.696C132.304 26.6779 132.557 26.6779 132.828 26.6779ZM63.998 26.6779V21.8274H63.2197V25.411C63.2197 25.3929 63.1835 25.3748 63.1835 25.3567C62.6587 24.144 61.9166 23.0762 61.2469 21.9541C61.2107 21.8998 61.1564 21.8274 61.1021 21.8274C60.7945 21.8093 60.4868 21.8274 60.161 21.8274V26.6779H60.9393V22.9133C60.9755 22.9676 60.9935 22.9857 60.9935 23.0038C61.6632 24.1802 62.3329 25.3748 63.0025 26.5512C63.0387 26.6055 63.093 26.6779 63.1473 26.6779H63.998ZM25.4653 22.9314C25.4834 22.9676 25.5015 22.9676 25.5015 22.9857C26.1711 24.1621 26.8408 25.3567 27.5104 26.5331C27.5466 26.5874 27.6009 26.6779 27.6552 26.6779C27.9448 26.696 28.2344 26.6779 28.5059 26.6779V21.8274H27.7276V25.411C27.7276 25.3929 27.7095 25.3929 27.7095 25.3748C27.1847 24.1621 26.4245 23.0762 25.7729 21.9541C25.7367 21.8998 25.6824 21.8274 25.6282 21.8274C25.3205 21.8093 25.0128 21.8274 24.687 21.8274V26.6779H25.4834C25.4653 25.411 25.4653 24.1802 25.4653 22.9314ZM104.051 24.144C104.033 24.0173 104.033 23.8364 103.997 23.6554C103.943 23.1819 103.734 22.7394 103.404 22.396C103.074 22.0526 102.64 21.8273 102.169 21.755C101.694 21.6665 101.204 21.7331 100.771 21.945C100.337 22.1569 99.9832 22.5027 99.7616 22.9314C99.4835 23.4913 99.3885 24.1245 99.4901 24.7413C99.6168 25.592 99.9968 26.2797 100.829 26.5874C101.217 26.7567 101.645 26.8142 102.064 26.7535C102.483 26.6927 102.876 26.5161 103.2 26.2435C103.834 25.7186 104.015 24.9947 104.051 24.144ZM127.344 24.1983C127.326 23.9811 127.308 23.7459 127.272 23.5287C127.197 23.0654 126.972 22.6395 126.632 22.3159C126.293 21.9923 125.856 21.789 125.39 21.7369C124.286 21.6102 123.381 22.135 122.983 23.1124C122.748 23.6795 122.692 24.3042 122.82 24.9042C122.983 25.7548 123.435 26.4064 124.304 26.6598C125.173 26.9132 126.023 26.7684 126.693 26.0806C127.182 25.5377 127.326 24.8861 127.344 24.1983ZM67.9979 21.7188C66.9662 21.7188 66.1699 22.2617 65.8441 23.2029C65.606 23.8556 65.5933 24.5692 65.8079 25.23C65.9367 25.6715 66.2062 26.0589 66.5754 26.3333C66.9445 26.6077 67.3931 26.7541 67.8531 26.7503C68.8847 26.7684 69.6992 26.2435 70.043 25.3024C70.2239 24.7796 70.2796 24.2217 70.2059 23.6735C70.1514 23.1296 69.8938 22.6262 69.4845 22.2639C69.0752 21.9016 68.5443 21.7069 67.9979 21.7188ZM75.7804 24.3612C75.797 24.5872 75.8333 24.8113 75.889 25.0309C75.9779 25.4825 76.2114 25.8928 76.5543 26.1998C76.8972 26.5067 77.3308 26.6936 77.7894 26.7322C78.2428 26.8008 78.7063 26.726 79.1152 26.5183C79.524 26.3106 79.8578 25.9804 80.0699 25.5739C80.3569 24.9908 80.4519 24.3319 80.3414 23.6916C80.2147 22.8409 79.7984 22.1531 78.9477 21.8636C78.0971 21.574 77.2826 21.6645 76.5949 22.2798C75.9976 22.8047 75.7985 23.5106 75.7804 24.3612ZM58.2606 26.6598V21.8274H57.3738V23.7459H55.3105V21.8274H54.4417V26.6598H55.3286V24.5422H57.3738V26.6598H58.2606ZM85.0471 24.6689V25.7186C85.0509 25.746 85.0492 25.7739 85.0421 25.8006C85.0351 25.8273 85.0228 25.8523 85.0059 25.8742C84.9891 25.8961 84.968 25.9145 84.944 25.9281C84.92 25.9418 84.8935 25.9506 84.8661 25.9539C83.744 26.153 82.8209 25.6824 82.6942 24.4698C82.5675 23.2572 83.3096 22.497 84.3593 22.497C84.7658 22.5133 85.1709 22.5556 85.572 22.6237C85.6263 22.4427 85.6805 22.2074 85.7529 21.9541C84.7575 21.6645 83.7983 21.6102 82.8933 22.135C81.9522 22.6961 81.6807 23.583 81.7712 24.6327C81.7952 25.0955 81.9688 25.538 82.2658 25.8937C82.5628 26.2494 82.9671 26.4992 83.4182 26.6055C84.1975 26.7867 85.0117 26.7491 85.771 26.4969C85.8977 26.4607 85.9158 26.3702 85.9158 26.2616V24.1621C85.9158 24.1078 85.8977 24.0535 85.8977 23.9992H84.2145V24.6689H85.0471ZM109.879 21.8093C109.879 22.8771 109.843 23.9087 109.897 24.9404C109.951 26.0625 110.476 26.6236 111.453 26.7322C112.105 26.8046 112.72 26.696 113.173 26.1892C113.519 25.7676 113.693 25.2313 113.662 24.687C113.68 23.8002 113.662 22.9314 113.662 22.0446V21.8274H112.775V22.0807C112.775 22.9676 112.793 23.8364 112.775 24.7232C112.766 24.996 112.711 25.2653 112.612 25.5196C112.467 25.8815 112.159 26.0263 111.779 26.0444C111.604 26.061 111.429 26.0207 111.279 25.9293C111.129 25.838 111.012 25.7006 110.947 25.5377C110.842 25.278 110.781 25.0028 110.766 24.7232C110.748 23.8364 110.766 22.9495 110.766 22.0627V21.8274C110.458 21.8093 110.168 21.8093 109.879 21.8093ZM7.0405 26.6779H7.34818C7.58347 26.6779 7.87305 26.7503 8.05404 26.6417C8.23503 26.5331 8.27123 26.2616 8.37983 26.0444C8.57891 25.6462 8.778 25.23 8.99519 24.8137C9.03139 24.8861 9.06759 24.9223 9.08569 24.9585C9.37527 25.4834 9.64675 26.0082 9.93634 26.5331C9.97254 26.5874 10.0268 26.6598 10.0811 26.6598C10.3888 26.6779 10.6965 26.6598 11.0404 26.6598C10.9861 26.5693 10.9499 26.515 10.9137 26.4426C10.4974 25.7367 10.0811 25.0309 9.64675 24.325C9.61149 24.2815 9.59224 24.2272 9.59224 24.1712C9.59224 24.1152 9.61149 24.0609 9.64675 24.0173C10.0449 23.3658 10.4431 22.6961 10.8413 22.0265C10.8775 21.9541 10.9137 21.8998 10.968 21.7912C10.6784 21.7912 10.425 21.8093 10.1716 21.7912C10.1049 21.7809 10.0367 21.7931 9.97775 21.8259C9.91878 21.8587 9.87237 21.9101 9.84584 21.9722C9.59246 22.5151 9.30287 23.04 9.03139 23.583C8.9976 23.5245 8.96738 23.4641 8.94089 23.402L8.18074 21.936C8.14454 21.8817 8.09024 21.7912 8.03595 21.7912C7.72826 21.7731 7.42058 21.7912 7.0948 21.7912C7.1491 21.8998 7.18529 21.9541 7.22149 22.0265C7.60157 22.6961 7.98165 23.3477 8.37983 24.0173C8.41946 24.0694 8.44092 24.1329 8.44092 24.1983C8.44092 24.2637 8.41946 24.3273 8.37983 24.3793C7.96355 25.0671 7.56537 25.7548 7.16719 26.4426C7.1129 26.515 7.0948 26.5874 7.0405 26.6779ZM14.9498 21.8093V26.6598H17.8637V25.9358H15.8366V24.506H17.6465V23.7821H15.8185V22.7323C15.8185 22.5694 15.8547 22.5151 16.0176 22.5151C16.5244 22.5332 17.013 22.5151 17.5198 22.5151C17.5927 22.5181 17.6656 22.512 17.737 22.497V21.8093H14.9498ZM44.7226 21.8093V26.6417H47.6365V25.9177H45.6094V24.4879H47.4193V23.764H45.6094V22.5151H47.5279V21.8093H44.7226ZM137.48 21.9903C136.883 21.5921 135.634 21.6645 135.073 22.1169C134.919 22.2367 134.795 22.3907 134.711 22.5666C134.627 22.7425 134.585 22.9356 134.589 23.1305C134.592 23.3254 134.641 23.5168 134.731 23.6896C134.822 23.8624 134.951 24.0118 135.109 24.1259C135.371 24.2884 135.643 24.4335 135.923 24.5603C136.138 24.6508 136.343 24.7598 136.539 24.8861C136.627 24.9469 136.697 25.0307 136.741 25.1284C136.784 25.2261 136.801 25.334 136.788 25.4403C136.775 25.5466 136.733 25.6473 136.667 25.7315C136.6 25.8156 136.512 25.8801 136.412 25.9177C136.195 26.0097 135.957 26.0409 135.724 26.0082C135.381 25.9557 135.042 25.877 134.711 25.7729C134.65 25.9626 134.601 26.1561 134.566 26.3521C134.548 26.4064 134.62 26.4969 134.674 26.515C135.369 26.8219 136.156 26.8414 136.864 26.5693C137.094 26.473 137.293 26.3155 137.44 26.1139C137.586 25.9124 137.674 25.6745 137.695 25.4262C137.715 25.1779 137.667 24.9287 137.556 24.7058C137.445 24.4829 137.274 24.2949 137.064 24.1621C136.846 24.0354 136.611 23.9449 136.376 23.8364C136.156 23.746 135.944 23.637 135.742 23.5106C135.66 23.457 135.593 23.3815 135.551 23.2924C135.509 23.2032 135.493 23.1042 135.504 23.0063C135.516 22.9084 135.554 22.8156 135.615 22.7384C135.677 22.6612 135.758 22.6027 135.851 22.5694C136.016 22.4962 136.196 22.4651 136.376 22.4789C136.683 22.5151 136.973 22.5875 137.299 22.6418C137.353 22.4427 137.426 22.2074 137.48 21.9903ZM95.0558 25.7186C95.0015 25.9358 94.9291 26.1349 94.8929 26.334C94.8887 26.3673 94.8952 26.401 94.9115 26.4303C94.9278 26.4596 94.953 26.4829 94.9834 26.4969C95.7436 26.8046 96.5399 26.877 97.3001 26.4969C97.5168 26.3915 97.7012 26.2295 97.8337 26.0282C97.9662 25.8268 98.042 25.5935 98.0531 25.3527C98.0643 25.1119 98.0103 24.8726 97.8969 24.6599C97.7834 24.4472 97.6148 24.269 97.4087 24.144C97.1915 23.9992 96.9381 23.9268 96.7028 23.8002C96.4766 23.7036 96.2586 23.5886 96.0513 23.4563C95.9794 23.4084 95.9214 23.3424 95.8831 23.265C95.8448 23.1876 95.8275 23.1015 95.833 23.0153C95.8385 22.9291 95.8666 22.8459 95.9144 22.774C95.9623 22.7021 96.0282 22.644 96.1056 22.6056C96.2913 22.5132 96.4954 22.4637 96.7028 22.4608C97.0191 22.499 97.3332 22.5534 97.644 22.6237C97.6983 22.4246 97.7707 22.2074 97.8431 21.9903C97.3001 21.6464 96.178 21.6464 95.5988 21.9903C95.4064 22.0948 95.2445 22.2475 95.1287 22.4333C95.0129 22.6191 94.9473 22.8318 94.9381 23.0506C94.929 23.2693 94.9768 23.4867 95.0767 23.6815C95.1766 23.8763 95.3253 24.0419 95.5083 24.1621C95.7399 24.3066 95.9819 24.4336 96.2323 24.5422C96.3951 24.6327 96.5761 24.687 96.739 24.7775C97.0467 24.9585 97.1734 25.1938 97.1191 25.4653C97.0648 25.7367 96.8657 25.9358 96.5037 25.9901C96.0151 26.0806 95.5445 25.9358 95.0558 25.7186ZM22.8771 25.8453C21.9903 26.0625 21.1396 26.1711 20.5061 25.3386C20.0718 24.7413 20.0718 23.7097 20.5242 23.1305C21.1396 22.2979 21.9903 22.3703 22.8771 22.6237C22.9314 22.3884 23.0038 22.1712 23.0762 21.936C22.642 21.7541 22.1686 21.6856 21.7007 21.7369C20.7414 21.7912 19.9632 22.1712 19.5469 23.0762C19.1125 24.0173 19.1306 24.9766 19.746 25.8634C20.488 26.9313 22.0446 26.877 22.9133 26.5874C22.9379 26.5712 22.9588 26.5499 22.9744 26.5249C22.99 26.4999 23 26.4718 23.0038 26.4426C22.9676 26.2435 22.9133 26.0444 22.8771 25.8453ZM52.6499 25.8453C51.745 26.0625 50.8762 26.1711 50.2609 25.3024C50.058 24.9717 49.9537 24.59 49.9601 24.2021C49.9665 23.8142 50.0834 23.4362 50.2971 23.1124C50.9124 22.2979 51.7631 22.3703 52.6318 22.6237C52.6861 22.4065 52.7585 22.1712 52.8309 21.936C52.3547 21.7449 51.8382 21.6765 51.3287 21.7369C50.7528 21.771 50.2077 22.0083 49.7903 22.4065C49.0663 23.1124 48.9215 23.9811 49.1025 24.9223C49.2835 25.8634 49.8627 26.4426 50.7857 26.6598C51.267 26.7744 51.7678 26.7805 52.2517 26.6779C52.4327 26.6417 52.6137 26.5874 52.7947 26.5331C52.7404 26.2797 52.7042 26.0625 52.6499 25.8453ZM3.74649 22.5151H5.62878V21.8093H2.85964V26.6417H3.74649V24.5784H5.50209V23.8364H3.74649V22.5151ZM91.3093 21.8093C91.1647 21.8184 91.0196 21.8184 90.875 21.8093C90.4406 21.7369 90.2053 21.9179 90.0605 22.3341C89.8433 22.8952 89.5718 23.4382 89.3003 23.9992L89.228 23.8545C88.9384 23.221 88.6488 22.5875 88.3592 21.9722C88.323 21.9179 88.2506 21.8274 88.1963 21.8274C87.9067 21.8093 87.6171 21.8274 87.2733 21.8274C87.3276 21.9179 87.3457 21.9903 87.3819 22.0446C87.8343 22.859 88.2687 23.6735 88.7031 24.506C88.7605 24.6182 88.7915 24.742 88.7936 24.868C88.8117 25.3929 88.7936 25.9177 88.7936 26.4426V26.6598H89.6804V24.8318C89.6848 24.7119 89.7157 24.5945 89.7709 24.4879C90.0967 23.9087 90.4225 23.3296 90.7664 22.7504C90.9473 22.4427 91.1102 22.1531 91.3093 21.8093ZM117.39 26.6598V22.5332H118.784V21.8093H115.109V22.5332H116.485V26.6417C116.793 26.6598 117.064 26.6598 117.39 26.6598ZM40.9761 22.5513V26.6598H41.8629V22.5513H43.2385V21.8274H39.6006V22.5513H40.9761ZM71.8891 21.8093V26.6598H74.7669V25.9358H72.776V21.8274C72.4683 21.8093 72.1968 21.8093 71.8891 21.8093ZM106.567 25.9358V21.8274H105.698V26.6598H108.54V25.9358H106.567ZM120.25 26.6598H121.1V21.8274H120.25V26.6598ZM34.1166 22.8409V24.4698H32.5601V25.0309H34.1347V26.6598H34.7319V25.0309H36.2703V24.4698H34.7138V22.8409H34.1166Z" fill="#242424"/>
<path d="M57.9887 19.4201C56.6674 19.3658 55.5272 19.3658 54.387 19.2934C53.0114 19.2029 51.6359 19.04 50.3147 18.5695C49.5364 18.2799 48.8487 17.8636 48.4686 17.0854C48.1478 16.4095 48.0284 15.6554 48.1247 14.9135C48.3238 12.7235 49.1564 10.7326 50.0432 8.75983C50.6081 7.48552 51.3122 6.27761 52.1427 5.15813C53.2286 3.71021 54.6766 2.85956 56.4322 2.47948C57.6028 2.23253 58.7875 2.05725 59.9796 1.95461C62.1286 1.77976 64.2861 1.73141 66.4409 1.80982C68.0879 1.84602 69.7349 1.97271 71.3276 2.40709C71.8853 2.54357 72.4171 2.76973 72.9022 3.07675C73.2393 3.29625 73.522 3.58957 73.729 3.9345C73.9359 4.27942 74.0617 4.66692 74.0968 5.06764C74.2596 6.26217 74.0425 7.4024 73.6986 8.54264C72.9927 10.9136 72.0697 13.1941 70.6941 15.2755C70.0607 16.2166 69.3367 17.0673 68.3775 17.7007C67.563 18.2437 66.64 18.5152 65.7169 18.7143C64.4366 18.9968 63.135 19.1723 61.8256 19.2391C60.5044 19.3115 59.1651 19.3658 57.9887 19.4201ZM63.346 5.82779V5.88209H62.0428C61.0065 5.89382 59.9723 5.97849 58.9479 6.13548C58.224 6.26217 57.6629 6.56985 57.319 7.22141C57.2573 7.34246 57.1846 7.45758 57.1018 7.56529C56.483 8.69379 55.9506 9.86755 55.5091 11.0765C55.1652 12.0176 54.8575 12.9769 54.568 13.9361C54.387 14.5696 54.5499 14.8411 55.1652 14.9678C55.8152 15.1007 56.475 15.1794 57.138 15.2031C58.2602 15.2393 59.3823 15.2574 60.5044 15.2212C61.4456 15.185 62.3686 15.0764 63.3098 14.9678C63.6779 14.9355 64.0324 14.8129 64.3418 14.6109C64.6512 14.4088 64.9059 14.1335 65.0835 13.8094C65.2102 13.5923 65.3369 13.3932 65.4635 13.176C66.05 12.0841 66.5464 10.9461 66.9477 9.77337C67.2734 8.85032 67.563 7.92727 67.8345 6.98613C67.9974 6.44316 67.8526 6.26217 67.3096 6.11738C67.0256 6.03695 66.7348 5.98243 66.4409 5.95449C65.3911 5.91829 64.3595 5.88209 63.346 5.82779Z" fill="#7C7C7C"/>
<path d="M7.61972 12.9587C7.47493 13.3388 7.34823 13.7008 7.18534 14.0447C6.89576 14.66 7.18534 14.9315 7.63782 15.0763C8.16093 15.2413 8.70153 15.3445 9.24862 15.384C10.5337 15.4383 11.8187 15.4383 13.1037 15.4202C13.6861 15.3957 14.2663 15.3353 14.8412 15.2392C15.7462 15.1125 16.1986 14.5333 16.3615 13.6827C16.4701 13.1035 16.3253 12.832 15.7462 12.7053C15.1965 12.5963 14.6403 12.5237 14.0811 12.4881C13.2666 12.4157 12.434 12.3795 11.6196 12.3253C10.9137 12.271 10.1898 12.2348 9.48391 12.1805C7.8912 12.0357 6.29849 11.9452 4.77818 11.4384C4.52306 11.3484 4.27501 11.2395 4.03612 11.1126C3.22167 10.6963 2.89588 10.0086 2.93208 9.12173C2.9676 8.46161 3.09554 7.80973 3.31216 7.18514C3.60442 6.24202 4.03112 5.34595 4.57909 4.52459C5.41164 3.33006 6.58808 2.6604 7.9817 2.31652C9.01801 2.05427 10.0804 1.90858 11.149 1.88214C13.1761 1.84595 15.2213 1.79165 17.2484 1.80975C18.8791 1.79724 20.506 1.96722 22.0989 2.31652C22.7828 2.45063 23.4305 2.72822 23.9993 3.13097C24.6509 3.63774 24.9042 4.30741 24.8137 5.13996C24.7232 6.04491 24.307 6.85936 23.945 7.67382C23.9143 7.7106 23.8753 7.73961 23.8313 7.75848C23.7873 7.77735 23.7394 7.78555 23.6916 7.78241H18.2257C18.2981 7.58332 18.3705 7.42043 18.4429 7.25754C18.4989 7.14013 18.5473 7.01921 18.5877 6.89556C18.6963 6.56978 18.6058 6.28019 18.2981 6.1535C17.9569 6.0014 17.5983 5.89198 17.2303 5.82772C15.6738 5.64673 14.1172 5.70103 12.5607 5.77342C11.9105 5.80608 11.2633 5.88471 10.6241 6.00871C10.2944 6.0817 10.0009 6.2688 9.79564 6.53702C9.59035 6.80523 9.48635 7.13732 9.50201 7.47473C9.49261 7.59579 9.52796 7.7161 9.60135 7.81284C9.67474 7.90958 9.78107 7.97603 9.90019 7.9996C10.2836 8.12033 10.6775 8.20516 11.0766 8.25298C12.1988 8.36158 13.3209 8.43397 14.443 8.50637C15.2937 8.56067 16.1443 8.61496 16.995 8.68736C18.2257 8.81405 19.4383 8.95884 20.6148 9.37512C21.0863 9.52403 21.5148 9.78484 21.8636 10.1353C22.0892 10.3815 22.2567 10.6751 22.3538 10.9946C22.4509 11.3141 22.4751 11.6513 22.4247 11.9814C22.2404 13.508 21.774 14.9871 21.0492 16.3432C20.3433 17.6825 19.185 18.4427 17.7551 18.8228C16.7934 19.0584 15.8118 19.2038 14.8231 19.2572C12.5426 19.4381 10.2441 19.402 7.9455 19.3658C6.31659 19.3296 4.68768 19.2029 3.11307 18.7323C2.67913 18.6028 2.26043 18.4268 1.86424 18.2074C0.724007 17.574 0.32583 16.5966 0.705908 15.3478C0.941195 14.5876 1.26698 13.8456 1.57466 13.0854C1.59276 13.0311 1.73755 12.9768 1.80995 12.9768H7.31204C7.41375 12.9606 7.51681 12.9546 7.61972 12.9587Z" fill="#7C7C7C"/>
<path d="M22.6958 19.2393C22.913 18.6963 23.1121 18.1533 23.3112 17.6284C25.284 12.4702 27.2567 7.29393 29.2295 2.13572C29.2452 2.06442 29.2879 2.00198 29.3487 1.96148C29.4094 1.92099 29.4835 1.9056 29.5553 1.91853C33.7543 1.91853 37.9532 1.92457 42.1522 1.93663C43.4358 1.90874 44.7181 2.03636 45.9711 2.31671C46.876 2.552 47.6724 2.93208 48.1792 3.78273C48.5778 4.46638 48.7548 5.25673 48.6859 6.0451C48.57 8.06441 47.8086 9.99312 46.5141 11.5472C45.5729 12.6874 44.2879 13.3028 42.8581 13.6286C41.7939 13.8732 40.7094 14.0186 39.6183 14.0629C36.8311 14.2258 34.0439 14.1172 31.2566 14.1353C31.1655 14.1213 31.0724 14.1438 30.9978 14.1981C30.9232 14.2523 30.8731 14.3339 30.8584 14.4249C30.2793 15.9814 29.682 17.5379 29.0847 19.0764C29.0485 19.185 29.0123 19.2574 28.8676 19.2574H22.7863C22.757 19.2475 22.7266 19.2414 22.6958 19.2393ZM32.5235 10.0812C32.5523 10.0929 32.583 10.0991 32.614 10.0993C35.0031 10.0812 37.3922 10.1898 39.7631 9.99068C40.3458 9.96977 40.8974 9.72314 41.3015 9.30292C41.8935 8.66153 42.2507 7.83857 42.3151 6.96815C42.3303 6.86165 42.3233 6.75316 42.2944 6.64952C42.2656 6.54588 42.2156 6.44935 42.1475 6.36601C42.0795 6.28268 41.9949 6.21435 41.8992 6.16535C41.8034 6.11634 41.6985 6.08772 41.5911 6.0813C41.0027 6.00852 40.4103 5.97225 39.8174 5.9727C37.9713 5.9546 36.1252 5.9727 34.2791 5.9727C34.2218 5.96469 34.1635 5.979 34.1164 6.01267C34.0692 6.04634 34.0368 6.09682 34.0258 6.15369C33.6457 7.18533 33.2475 8.21698 32.8493 9.23052C32.7407 9.502 32.6502 9.77349 32.5235 10.0812Z" fill="#7C7C7C"/>
<path d="M118.53 1.91848C118.277 2.57005 118.041 3.20351 117.788 3.83698C117.534 4.47044 117.317 5.04961 117.1 5.66497C117.083 5.74997 117.034 5.82528 116.964 5.87568C116.893 5.92608 116.806 5.9478 116.72 5.93646C113.571 5.91836 110.403 5.93646 107.254 5.93646H104.956C104.889 5.92605 104.821 5.94059 104.764 5.97731C104.707 6.01403 104.666 6.07036 104.648 6.13555C104.377 6.85951 104.105 7.58346 103.815 8.30742C103.797 8.36172 103.779 8.41602 103.761 8.48841H115.381C115.218 8.88659 115.073 9.26667 114.946 9.64675C114.639 10.4431 114.331 11.2395 114.041 12.0539C114.027 12.1172 113.989 12.1728 113.935 12.2096C113.882 12.2464 113.816 12.2619 113.752 12.253H102.585C102.509 12.2436 102.432 12.2623 102.368 12.3056C102.305 12.349 102.26 12.4139 102.241 12.4883C101.68 13.9905 101.119 15.4746 100.558 16.9768C100.541 17.0452 100.501 17.1058 100.445 17.1486C100.389 17.1913 100.32 17.2138 100.25 17.2121C99.3631 17.3388 98.4763 17.4836 97.6075 17.6103C96.6302 17.7551 95.6347 17.918 94.6574 18.0628C94.3678 18.1171 94.0782 18.1533 93.7524 18.2076C93.7658 18.14 93.784 18.0735 93.8067 18.0085C95.8338 12.6874 97.8549 7.37231 99.8699 2.06328C99.8792 2.01388 99.9066 1.96975 99.9468 1.93959C99.987 1.90944 100.037 1.89545 100.087 1.90039H118.458C118.476 1.91848 118.494 1.91848 118.53 1.91848Z" fill="#7C7C7C"/>
<path d="M137.136 19.2571H130.042C129.976 19.2614 129.91 19.2467 129.852 19.2146C129.794 19.1825 129.747 19.1344 129.716 19.0761C128.883 17.5739 128.033 16.0898 127.2 14.5876C127.164 14.5333 127.128 14.4609 127.073 14.3885C126.693 14.6781 126.313 14.9496 125.951 15.221C124.159 16.5423 122.386 17.8635 120.594 19.1666C120.514 19.2233 120.42 19.2548 120.322 19.2571H112.938C113.155 19.0942 113.336 18.9494 113.517 18.8046C116.359 16.6147 119.218 14.4428 122.06 12.2528C122.892 11.6193 123.725 10.9678 124.558 10.3343C124.702 10.2257 124.702 10.1533 124.63 10.0085C123.146 7.38419 121.674 4.76587 120.214 2.15359C120.17 2.08503 120.134 2.01226 120.105 1.9364C120.196 1.9364 120.268 1.9183 120.322 1.9183H126.512C126.574 1.91068 126.637 1.92222 126.692 1.95135C126.747 1.98048 126.791 2.0258 126.82 2.08119C130.223 7.74617 133.625 13.3991 137.028 19.0399C137.071 19.1085 137.108 19.1813 137.136 19.2571Z" fill="#7C7C7C"/>
<path d="M97.9883 1.91817C97.7892 2.42494 97.6263 2.91362 97.4453 3.38419C97.1195 4.21674 96.7937 5.06739 96.486 5.89995C96.467 5.96932 96.4236 6.02948 96.3637 6.06938C96.3039 6.10928 96.2316 6.12624 96.1603 6.11713C93.8436 6.11713 91.5269 6.11714 89.2103 6.09904C89.0293 6.09904 88.9569 6.17143 88.8845 6.33432C87.2737 10.5695 85.6448 14.8046 84.034 19.0217C84.0149 19.0911 83.9715 19.1512 83.9116 19.1911C83.8518 19.231 83.7795 19.248 83.7082 19.2389H77.6088C79.292 14.8589 80.9571 10.4971 82.6222 6.09904H75.4731C75.6541 5.61036 75.8351 5.13979 76.0161 4.66922C76.3419 3.80047 76.6677 2.94981 76.9935 2.08106C77.0065 2.02039 77.0413 1.96661 77.0914 1.92991C77.1414 1.89322 77.2032 1.87616 77.2649 1.88197H97.753C97.8269 1.91441 97.908 1.92689 97.9883 1.91817Z" fill="#7C7C7C"/>
<path d="M93.4634 19.2208C100.033 18.1168 106.609 17.0127 113.191 15.9087C113.071 16.2526 112.944 16.5784 112.811 16.886C112.54 17.61 112.25 18.334 111.979 19.076C111.965 19.1317 111.932 19.1807 111.886 19.2139C111.839 19.2472 111.782 19.2625 111.725 19.257H93.572C93.5328 19.257 93.4947 19.2443 93.4634 19.2208Z" fill="#7C7C7C"/>
<path d="M142.91 2.26227C139.435 4.88662 135.978 7.49288 132.485 10.1353C132.177 9.59236 131.869 9.06749 131.562 8.52452C131.996 8.19874 132.431 7.89105 132.865 7.56527C135.236 5.80967 137.607 4.07217 139.978 2.31657C140.05 2.26024 140.139 2.22854 140.231 2.22607H142.892C142.893 2.23997 142.899 2.25288 142.91 2.26227Z" fill="#7C7C7C"/>
<path d="M138.945 2.09951C136.339 4.0542 133.787 5.99079 131.217 7.92738C130.909 7.40251 130.62 6.89574 130.312 6.37087C130.674 6.09939 131.036 5.8279 131.398 5.57452C132.918 4.45238 134.457 3.31214 135.995 2.19001C136.068 2.13367 136.157 2.10197 136.248 2.09951H138.819C138.819 2.08141 138.855 2.08141 138.945 2.09951Z" fill="#7C7C7C"/>
<path d="M132.829 26.6777C132.557 26.6777 132.322 26.6958 132.069 26.6777C132.021 26.6719 131.976 26.656 131.935 26.631C131.894 26.606 131.86 26.5726 131.833 26.5329C131.145 25.3384 130.476 24.1439 129.806 22.9493C129.806 22.9312 129.788 22.9312 129.77 22.9131V26.6596H128.992V21.8091H129.915C129.969 21.8091 130.041 21.8996 130.078 21.9539C130.747 23.0941 131.489 24.1619 132.014 25.3746C132.014 25.3927 132.032 25.4108 132.05 25.447V21.8091H132.829V26.6777Z" fill="#7C7C7C"/>
<path d="M63.9981 26.6777H63.1655C63.1328 26.6702 63.1024 26.6547 63.0771 26.6326C63.0519 26.6105 63.0325 26.5824 63.0207 26.551C62.3511 25.3745 61.6814 24.1981 61.0118 23.0036C60.9897 22.976 60.9714 22.9455 60.9575 22.9131V26.6777H60.1792V21.8271H61.1203C61.1531 21.8346 61.1835 21.8501 61.2087 21.8722C61.234 21.8943 61.2534 21.9224 61.2651 21.9538C61.9167 23.076 62.6769 24.1619 63.2017 25.3565C63.2198 25.3745 63.2379 25.3926 63.2379 25.4107V21.8271H64.0162C63.9981 23.438 63.9981 25.0488 63.9981 26.6777Z" fill="#7C7C7C"/>
<path d="M25.4658 22.9312V26.6596H24.6694V21.8091H25.6106C25.6649 21.8091 25.7192 21.8815 25.7554 21.9358C26.425 23.076 27.1671 24.162 27.692 25.3565C27.692 25.3746 27.7101 25.3746 27.7101 25.3927V21.8091H28.4883V26.6596H27.6377C27.5834 26.6596 27.5291 26.5691 27.4929 26.5148C26.8232 25.3384 26.1535 24.1619 25.4839 22.9674C25.502 22.9674 25.4839 22.9674 25.4658 22.9312Z" fill="#7C7C7C"/>
<path d="M104.051 24.144C104.014 24.9946 103.851 25.7367 103.2 26.2434C102.876 26.5166 102.483 26.6936 102.064 26.7544C101.644 26.8151 101.217 26.7573 100.829 26.5873C99.9963 26.2615 99.6163 25.5738 99.4896 24.7412C99.3867 24.1244 99.4817 23.4908 99.7611 22.9313C99.9827 22.5027 100.336 22.1568 100.77 21.9449C101.204 21.733 101.694 21.6664 102.168 21.7549C102.641 21.8241 103.076 22.0483 103.407 22.3923C103.738 22.7364 103.945 23.1806 103.996 23.6553C104.014 23.8363 104.032 24.0173 104.051 24.144ZM103.091 24.0897C103.089 23.7261 102.989 23.3698 102.802 23.058C102.277 22.2255 101.137 22.2255 100.684 23.0942C100.49 23.439 100.386 23.8274 100.383 24.2231C100.38 24.6188 100.477 25.0088 100.666 25.3566C100.759 25.5639 100.913 25.7385 101.106 25.8578C101.3 25.9772 101.525 26.0359 101.752 26.0263C101.98 26.03 102.205 25.9691 102.401 25.8506C102.596 25.7321 102.754 25.5609 102.856 25.3566C103.037 25.0127 103.091 24.6326 103.091 24.0897Z" fill="#7C7C7C"/>
<path d="M127.344 24.1981C127.326 24.8859 127.181 25.5375 126.693 26.0623C126.023 26.7501 125.19 26.913 124.304 26.6415C123.417 26.37 122.982 25.7365 122.82 24.8859C122.691 24.2859 122.748 23.6612 122.982 23.0941C123.381 22.1168 124.286 21.61 125.39 21.7186C125.855 21.7744 126.289 21.979 126.628 22.3019C126.968 22.6248 127.193 23.0487 127.272 23.5104C127.308 23.7638 127.326 23.9809 127.344 24.1981ZM123.706 24.2524C123.688 24.6643 123.788 25.0728 123.996 25.4289C124.503 26.2433 125.625 26.2614 126.095 25.4289C126.309 25.0735 126.421 24.6668 126.421 24.2524C126.421 23.838 126.309 23.4314 126.095 23.076C125.607 22.2072 124.448 22.2434 123.96 23.1122C123.766 23.4594 123.678 23.8558 123.706 24.2524Z" fill="#7C7C7C"/>
<path d="M67.9977 21.7187C68.5477 21.7046 69.0824 21.9009 69.4927 22.2675C69.903 22.6341 70.158 23.1433 70.2057 23.6915C70.2885 24.2395 70.2325 24.7996 70.0428 25.3204C69.883 25.7658 69.5834 26.1475 69.1886 26.4085C68.7939 26.6695 68.3253 26.7957 67.8529 26.7683C67.3929 26.7721 66.9443 26.6257 66.5752 26.3513C66.206 26.0769 65.9366 25.6895 65.8077 25.248C65.5842 24.5885 65.597 23.8719 65.8439 23.2209C65.9915 22.7709 66.2814 22.381 66.6699 22.1101C67.0583 21.8391 67.5243 21.7018 67.9977 21.7187ZM66.604 24.2344C66.5874 24.6599 66.6943 25.081 66.9117 25.4471C67.0153 25.6331 67.1671 25.7879 67.3512 25.895C67.5353 26.0021 67.7448 26.0577 67.9578 26.0558C68.1707 26.054 68.3793 25.9948 68.5615 25.8845C68.7436 25.7742 68.8928 25.6168 68.9931 25.429C69.2063 25.0703 69.3188 24.6607 69.3188 24.2435C69.3188 23.8262 69.2063 23.4167 68.9931 23.058C68.8876 22.8665 68.7315 22.7077 68.5419 22.5989C68.3523 22.4901 68.1364 22.4355 67.9178 22.4411C67.6992 22.4467 67.4864 22.5123 67.3026 22.6307C67.1188 22.749 66.971 22.9156 66.8755 23.1123C66.6864 23.4554 66.5926 23.8429 66.604 24.2344Z" fill="#7C7C7C"/>
<path d="M75.7808 24.361C75.817 23.4922 75.9979 22.8045 76.5952 22.2796C77.283 21.6642 78.0974 21.5737 78.9481 21.8633C79.7987 22.1529 80.1969 22.8407 80.3417 23.6913C80.4615 24.3315 80.366 24.9933 80.0702 25.5736C79.8582 25.9802 79.5244 26.3104 79.1155 26.5181C78.7067 26.7257 78.2432 26.8005 77.7897 26.7319C77.3331 26.6877 76.9025 26.4989 76.5606 26.1929C76.2188 25.8868 75.9836 25.4796 75.8894 25.0306C75.8323 24.8113 75.796 24.5871 75.7808 24.361ZM76.7219 24.0895C76.7219 24.7591 76.8486 25.1935 77.0658 25.5193C77.175 25.6794 77.3213 25.8107 77.4923 25.902C77.6632 25.9933 77.8537 26.0419 78.0475 26.0437C78.2412 26.0454 78.4326 26.0003 78.6051 25.9122C78.7777 25.824 78.9264 25.6954 79.0386 25.5374C79.5453 24.8496 79.5272 23.6008 79.0205 22.9312C78.9076 22.7759 78.759 22.6503 78.5872 22.5648C78.4154 22.4793 78.2256 22.4365 78.0337 22.44C77.8418 22.4436 77.6537 22.4934 77.4852 22.5852C77.3167 22.677 77.1728 22.8081 77.0658 22.9674C76.855 23.3049 76.7364 23.6918 76.7219 24.0895Z" fill="#7C7C7C"/>
<path d="M58.261 26.6596H57.3742V24.542H55.329V26.6596H54.4421V21.8271H55.3109V23.7456H57.3742V21.8271H58.261V26.6596Z" fill="#7C7C7C"/>
<path d="M85.0465 24.6689H84.1959V23.9993H85.8791C85.8791 24.0536 85.8972 24.1079 85.8972 24.1622V26.2616C85.8972 26.3702 85.8972 26.4426 85.7524 26.4969C84.993 26.7491 84.1788 26.7867 83.3995 26.6055C82.9485 26.4992 82.5441 26.2494 82.2471 25.8937C81.9501 25.538 81.7766 25.0955 81.7525 24.6327C81.662 23.6011 81.9335 22.6961 82.8746 22.1351C83.7796 21.6102 84.7388 21.6464 85.7343 21.9541C85.6619 22.2075 85.6076 22.4427 85.5533 22.6237C85.137 22.5875 84.7388 22.497 84.3406 22.497C83.2728 22.497 82.5488 23.2572 82.6755 24.4698C82.8022 25.6825 83.7253 26.153 84.8474 25.9539C84.9922 25.9359 85.0465 25.8635 85.0284 25.7187C85.0465 25.3929 85.0465 25.049 85.0465 24.6689Z" fill="#7C7C7C"/>
<path d="M109.879 21.8091H110.766V22.0444C110.766 22.9312 110.748 23.8181 110.766 24.7049C110.772 24.9857 110.833 25.2625 110.947 25.5194C111.012 25.6823 111.129 25.8197 111.279 25.911C111.429 26.0024 111.604 26.0427 111.779 26.0261C111.956 26.0391 112.132 25.9951 112.282 25.9006C112.432 25.8062 112.547 25.6662 112.612 25.5013C112.711 25.247 112.766 24.9777 112.775 24.7049C112.793 23.8181 112.775 22.9493 112.775 22.0625V21.8091H113.661V24.6687C113.661 25.2117 113.553 25.7547 113.173 26.1709C112.702 26.6777 112.087 26.7863 111.453 26.7139C110.476 26.6053 109.951 26.0261 109.897 24.9221C109.843 23.9086 109.879 22.8769 109.879 21.8091Z" fill="#7C7C7C"/>
<path d="M7.04102 26.678C7.08083 26.6074 7.11707 26.535 7.14961 26.4608C7.54779 25.773 7.96406 25.0853 8.36224 24.3975C8.39758 24.3438 8.41642 24.2808 8.41642 24.2165C8.41642 24.1522 8.39758 24.0893 8.36224 24.0355C7.96406 23.384 7.58398 22.7143 7.20391 22.0446C7.15728 21.9687 7.11498 21.8901 7.07721 21.8094H8.01836C8.07266 21.8094 8.12695 21.8998 8.16315 21.9541L8.92331 23.4202C8.95708 23.4786 8.9873 23.5391 9.0138 23.6012C9.28529 23.0582 9.57487 22.5333 9.82826 21.9903C9.85164 21.926 9.89748 21.8722 9.95733 21.839C10.0172 21.8057 10.087 21.7952 10.154 21.8094C10.4074 21.8275 10.6608 21.8094 10.9504 21.8094C10.8961 21.9179 10.8599 21.9722 10.8237 22.0446C10.4255 22.7143 10.0273 23.3659 9.62917 24.0355C9.5939 24.079 9.57466 24.1334 9.57466 24.1894C9.57466 24.2454 9.5939 24.2997 9.62917 24.3432C10.0635 25.0491 10.4798 25.7549 10.8961 26.4608C10.9323 26.5151 10.9685 26.5875 11.0228 26.678H10.0635C10.0092 26.678 9.95495 26.6056 9.91875 26.5513C9.62917 26.0264 9.33959 25.5015 9.0681 24.9767C9.04043 24.9269 9.01022 24.8786 8.97761 24.8319L8.36224 26.0626C8.25365 26.2617 8.19935 26.5513 8.03646 26.6599C7.87357 26.7685 7.56589 26.6961 7.3306 26.6961C7.23506 26.6792 7.13792 26.6731 7.04102 26.678Z" fill="#7C7C7C"/>
<path d="M14.9495 21.8091H17.7367V22.4968C17.6643 22.4968 17.5919 22.5149 17.5195 22.5149H16.0173C15.8544 22.5149 15.8001 22.5692 15.8182 22.7321C15.8363 23.076 15.8182 23.4018 15.8182 23.7819H17.6462V24.5058H15.8363V25.9356H17.8634V26.6596H14.9495V21.8091Z" fill="#7C7C7C"/>
<path d="M44.7222 21.8091H47.5275V22.5149H45.609V23.7638H47.4189V24.4877H45.609V25.9175H47.6361V26.6415H44.7222V21.8091Z" fill="#7C7C7C"/>
<path d="M137.48 21.9903C137.408 22.2075 137.336 22.4427 137.281 22.6237C136.977 22.5535 136.669 22.4991 136.358 22.4608C136.178 22.4451 135.998 22.4762 135.833 22.5513C135.741 22.5846 135.659 22.6432 135.598 22.7204C135.537 22.7975 135.498 22.8903 135.487 22.9882C135.476 23.0861 135.492 23.1852 135.534 23.2743C135.576 23.3634 135.642 23.439 135.725 23.4925C135.93 23.6118 136.142 23.7206 136.358 23.8183C136.575 23.9269 136.829 24.0174 137.046 24.144C137.257 24.2768 137.427 24.4648 137.539 24.6877C137.65 24.9106 137.698 25.1598 137.677 25.4081C137.657 25.6564 137.569 25.8943 137.422 26.0959C137.276 26.2974 137.077 26.4549 136.847 26.5512C136.123 26.8589 135.381 26.7865 134.657 26.4969C134.628 26.4789 134.604 26.4551 134.585 26.427C134.567 26.3989 134.554 26.3673 134.548 26.334C134.585 26.1349 134.657 25.9358 134.693 25.7549C135.025 25.8589 135.363 25.9376 135.707 25.9901C135.94 26.0071 136.174 25.9763 136.394 25.8997C136.495 25.862 136.583 25.7976 136.649 25.7134C136.715 25.6292 136.757 25.5285 136.77 25.4222C136.783 25.3159 136.767 25.208 136.723 25.1103C136.679 25.0126 136.609 24.9288 136.521 24.868C136.328 24.7381 136.122 24.6289 135.906 24.5422C135.623 24.4193 135.351 24.274 135.091 24.1079C134.935 23.9923 134.808 23.8425 134.719 23.6698C134.63 23.4972 134.582 23.3064 134.578 23.1123C134.575 22.9181 134.616 22.7257 134.699 22.55C134.781 22.3743 134.903 22.2199 135.055 22.0989C135.634 21.6464 136.883 21.5921 137.48 21.9903Z" fill="#7C7C7C"/>
<path d="M95.0564 25.7187C95.5451 25.9359 95.9976 26.0807 96.5044 25.9902C96.6497 25.9803 96.788 25.924 96.8988 25.8294C97.0096 25.7349 97.087 25.6073 97.1197 25.4653C97.1447 25.3245 97.1206 25.1794 97.0514 25.0542C96.9823 24.929 96.8722 24.8313 96.7397 24.7776C96.5768 24.6871 96.3958 24.6328 96.2329 24.5423C95.9807 24.4375 95.7384 24.3103 95.5089 24.1622C95.3259 24.042 95.1772 23.8764 95.0773 23.6816C94.9774 23.4868 94.9297 23.2694 94.9388 23.0506C94.9479 22.8319 95.0135 22.6192 95.1293 22.4334C95.2451 22.2476 95.4071 22.0949 95.5994 21.9903C96.1786 21.6464 97.3007 21.6283 97.8437 21.9903C97.7713 22.2075 97.717 22.4428 97.6446 22.6238C97.3339 22.5535 97.0197 22.4991 96.7035 22.4609C96.495 22.455 96.2888 22.5049 96.1062 22.6057C96.0288 22.6441 95.9629 22.7021 95.9151 22.774C95.8672 22.8459 95.8391 22.9292 95.8336 23.0154C95.8281 23.1015 95.8454 23.1877 95.8837 23.2651C95.922 23.3425 95.98 23.4084 96.0519 23.4563C96.2593 23.5887 96.4772 23.7037 96.7035 23.8002C96.9472 23.8965 97.1832 24.0115 97.4093 24.1441C97.6175 24.2675 97.7882 24.4452 97.9032 24.6582C98.0181 24.8712 98.073 25.1114 98.0618 25.3532C98.0506 25.5949 97.9739 25.8291 97.8398 26.0306C97.7058 26.2321 97.5194 26.3933 97.3007 26.497C96.5406 26.877 95.7623 26.8047 94.984 26.497C94.9336 26.4568 94.901 26.3982 94.8936 26.3341C94.9479 26.135 95.0022 25.9359 95.0564 25.7187Z" fill="#7C7C7C"/>
<path d="M22.8773 25.8452C22.9135 26.0443 22.9678 26.2253 23.004 26.4244C22.992 26.4819 22.9599 26.5332 22.9135 26.5692C22.0448 26.8588 20.4883 26.9131 19.7462 25.8452C19.1308 24.9765 19.1127 24.0172 19.5471 23.058C19.9634 22.1711 20.7417 21.773 21.7009 21.7187C22.1689 21.6674 22.6422 21.7359 23.0764 21.9178C23.004 22.153 22.9497 22.3883 22.8773 22.6055C21.9905 22.3521 21.1398 22.2797 20.5245 23.1123C20.0901 23.6914 20.072 24.7412 20.5064 25.3204C21.1398 26.171 21.9905 26.0805 22.8773 25.8452Z" fill="#7C7C7C"/>
<path d="M52.6493 25.8451C52.7036 26.0623 52.7398 26.2795 52.7941 26.5329C52.6131 26.5872 52.4321 26.6415 52.2511 26.6777C51.7671 26.7803 51.2664 26.7741 50.7851 26.6596C49.862 26.4243 49.2648 25.8451 49.1019 24.9221C48.939 23.999 49.0657 23.1122 49.7896 22.4063C50.2091 22.0112 50.7531 21.7745 51.3281 21.7366C51.8376 21.6763 52.3541 21.7447 52.8303 21.9357C52.7579 22.171 52.7036 22.4063 52.6312 22.6235C51.7443 22.3701 50.9118 22.2977 50.2964 23.1122C50.0827 23.436 49.9659 23.814 49.9594 24.2019C49.953 24.5898 50.0574 24.9714 50.2602 25.3021C50.8937 26.189 51.7624 26.0804 52.6493 25.8451Z" fill="#7C7C7C"/>
<path d="M3.74622 22.5149V23.8542H5.50183V24.5963H3.74622V26.6596H2.85938V21.8271H5.62852V22.533C5.01315 22.5149 4.37969 22.5149 3.74622 22.5149Z" fill="#7C7C7C"/>
<path d="M91.3093 21.809C91.1102 22.1529 90.9473 22.4606 90.7663 22.7502C90.4405 23.3293 90.0966 23.9085 89.7708 24.4877C89.7157 24.5942 89.6848 24.7116 89.6804 24.8316V26.6595H88.7935V24.8677C88.7914 24.7418 88.7605 24.6179 88.703 24.5058C88.2686 23.6913 87.8162 22.8588 87.3818 22.0443C87.3456 21.99 87.3275 21.9176 87.2732 21.8271H88.1962C88.2505 21.8271 88.3229 21.9176 88.3591 21.9719C88.6487 22.6054 88.9383 23.2388 89.2279 23.8542C89.2483 23.9042 89.2725 23.9526 89.3003 23.999C89.5718 23.4198 89.8613 22.895 90.0604 22.3339C90.2233 21.9176 90.4405 21.7366 90.8749 21.809C91.0195 21.8182 91.1646 21.8182 91.3093 21.809Z" fill="#7C7C7C"/>
<path d="M117.39 26.6596H116.503V22.5511H115.128V21.8271H118.802V22.5511H117.408C117.39 23.9266 117.39 25.2841 117.39 26.6596Z" fill="#7C7C7C"/>
<path d="M40.9759 22.5511H39.6003V21.8271H43.2382V22.5511H41.8627V26.6596H40.9759V22.5511Z" fill="#7C7C7C"/>
<path d="M71.8892 21.8091H72.776V25.9175H74.7669V26.6415H71.8892V21.8091Z" fill="#7C7C7C"/>
<path d="M106.566 25.9356H108.557V26.6596H105.716V21.8271H106.584C106.566 23.1846 106.566 24.542 106.566 25.9356Z" fill="#7C7C7C"/>
<path d="M120.25 26.6596V21.8271H121.1V26.6596H120.25Z" fill="#7C7C7C"/>
<path d="M34.1168 22.8408H34.7141V24.4697H36.2706V25.0308H34.7322V26.6597H34.1349V25.0308H32.5603V24.4697H34.1168V22.8408Z" fill="#7C7C7C"/>
<path d="M63.3466 5.82764C64.3782 5.88193 65.3917 5.91813 66.4234 5.99053C66.7173 6.01847 67.0081 6.07299 67.2921 6.15342C67.8351 6.29821 67.9618 6.4973 67.817 7.02217C67.5455 7.96332 67.2559 8.88636 66.9302 9.80941C66.5255 10.9808 66.0293 12.1185 65.446 13.212C65.3374 13.4292 65.1927 13.6283 65.066 13.8455C64.8938 14.1739 64.6404 14.4528 64.3299 14.6556C64.0194 14.8583 63.6622 14.9782 63.2923 15.0038C62.3692 15.1124 61.4281 15.221 60.4869 15.2572C59.3648 15.2934 58.2426 15.2934 57.1205 15.2391C56.4583 15.2054 55.7992 15.1268 55.1477 15.0038C54.5143 14.8771 54.3514 14.6056 54.5505 13.9722C54.84 13.0129 55.1296 12.0537 55.4916 11.1125C55.9296 9.90218 56.4622 8.72816 57.0843 7.60134C57.1567 7.47464 57.2291 7.36605 57.3015 7.25746C57.6454 6.58779 58.2245 6.28011 58.9304 6.17152C59.9538 6.00628 60.9887 5.92156 62.0253 5.91813H63.3285C63.3402 5.8894 63.3464 5.85868 63.3466 5.82764Z" fill="#242424"/>
<path d="M32.5234 10.0811C32.632 9.79154 32.7406 9.50196 32.8492 9.23047C33.2474 8.19883 33.6456 7.16719 34.0257 6.15365C34.0799 6.00885 34.1342 5.97266 34.279 5.97266H39.8173C40.4146 5.97266 40.9938 6.02695 41.591 6.08125C41.6984 6.08768 41.8033 6.11629 41.8991 6.1653C41.9948 6.2143 42.0794 6.28263 42.1474 6.36597C42.2155 6.4493 42.2655 6.54584 42.2943 6.64947C42.3231 6.75311 42.3302 6.8616 42.315 6.9681C42.2506 7.83852 41.8934 8.66149 41.3014 9.30287C40.8951 9.71998 40.3448 9.96602 39.763 9.99063C37.374 10.1897 34.9849 10.0811 32.6139 10.0992C32.5847 10.0894 32.5543 10.0833 32.5234 10.0811Z" fill="#242424"/>
<path d="M103.092 24.0898C103.092 24.6328 103.037 25.0129 102.838 25.3567C102.742 25.5658 102.586 25.7413 102.389 25.8606C102.192 25.98 101.964 26.0377 101.734 26.0264C101.508 26.0299 101.286 25.9688 101.094 25.8501C100.901 25.7315 100.747 25.5603 100.648 25.3567C100.46 25.0089 100.362 24.6189 100.366 24.2232C100.369 23.8275 100.472 23.4391 100.666 23.0944C100.763 22.8981 100.912 22.7323 101.097 22.6152C101.282 22.498 101.495 22.4341 101.714 22.4303C101.933 22.4266 102.149 22.4832 102.337 22.594C102.526 22.7047 102.681 22.8653 102.784 23.0582C102.984 23.365 103.091 23.7234 103.092 24.0898Z" fill="#242424"/>
<path d="M123.707 24.2526C123.689 23.8568 123.777 23.4634 123.96 23.1123C124.449 22.2436 125.607 22.2074 126.096 23.0761C126.309 23.4315 126.422 23.8382 126.422 24.2526C126.422 24.667 126.309 25.0736 126.096 25.429C125.625 26.2615 124.503 26.2615 123.996 25.429C123.789 25.0729 123.688 24.6644 123.707 24.2526Z" fill="#242424"/>
<path d="M66.6042 24.2342C66.5948 23.8371 66.6884 23.4443 66.8756 23.0939C66.9712 22.8973 67.1189 22.7307 67.3027 22.6123C67.4865 22.4939 67.6994 22.4284 67.9179 22.4228C68.1365 22.4172 68.3524 22.4717 68.542 22.5805C68.7317 22.6893 68.8877 22.8481 68.9932 23.0397C69.2108 23.3968 69.3259 23.8069 69.3259 24.2251C69.3259 24.6433 69.2108 25.0535 68.9932 25.4106C68.8929 25.5985 68.7438 25.7558 68.5616 25.8661C68.3794 25.9764 68.1709 26.0356 67.9579 26.0375C67.7449 26.0393 67.5354 25.9838 67.3513 25.8766C67.1673 25.7695 67.0155 25.6148 66.9118 25.4287C66.6925 25.0701 66.5854 24.6541 66.6042 24.2342Z" fill="#242424"/>
<path d="M76.7219 24.0896C76.7325 23.6913 76.8514 23.3033 77.0658 22.9675C77.1728 22.8082 77.3167 22.6771 77.4852 22.5853C77.6537 22.4935 77.8419 22.4437 78.0337 22.4401C78.2256 22.4366 78.4155 22.4794 78.5872 22.5649C78.759 22.6504 78.9077 22.7761 79.0205 22.9313C79.5273 23.6009 79.5454 24.8679 79.0386 25.5375C78.9265 25.6956 78.7777 25.8241 78.6052 25.9123C78.4326 26.0004 78.2413 26.0456 78.0475 26.0438C77.8537 26.042 77.6632 25.9934 77.4923 25.9021C77.3213 25.8108 77.175 25.6795 77.0658 25.5194C76.8486 25.1755 76.7219 24.7593 76.7219 24.0896Z" fill="#242424"/>
</svg>
