<svg width="1920" height="590" viewBox="0 0 1920 590" fill="none" xmlns="http://www.w3.org/2000/svg" xmlns:xlink="http://www.w3.org/1999/xlink">
<mask id="mask0" mask-type="alpha" maskUnits="userSpaceOnUse" x="0" y="0" width="1920" height="590">
<path d="M0 0H1920V590H1545H0V0Z" fill="url(#pattern0)"/>
<path d="M0 0H1920V590H1545H0V0Z" fill="black" fill-opacity="0.83"/>
</mask>
<g mask="url(#mask0)">
<g opacity="0.7">
<path d="M66 500.447C67.3867 494.011 63.5845 492.415 72.9334 468.265C137.496 301.489 227.963 112.907 390.749 88.7303C524.525 68.8626 467.405 339.606 574.371 349.112C777.711 367.183 955.001 -111.233 1141.56 -16.5927C1233.93 30.2604 1157.21 251.437 1239.3 272.514C1284.38 284.088 1300.8 194.3 1345.54 195.117C1385.52 195.847 1423.34 291.47 1462.51 276.769C1614.52 219.722 1638.45 -48.8846 1844.41 -7.01784C1989.03 22.381 1983.63 281.424 2076.9 385.55" stroke="url(#paint0_linear)" stroke-linecap="round" stroke-linejoin="round"/>
<path d="M74.0508 543.534C114.564 504.511 230.444 463.629 273.776 519.597C341.354 606.881 258.102 788.735 350.043 853.652C568.967 1008.23 667.679 605.771 857.073 605.771C892.657 605.771 869.578 720.109 907.954 737.424C1042.22 798.003 1143.27 311.352 1270.84 409.886C1367.3 484.392 1309.5 780.699 1406.6 780.511C1474.45 780.379 1557.02 565.312 1623.99 635.825C1754.06 772.768 1930.51 719.062 2045.14 586.887C2074.66 552.843 2059.27 541.566 2068.84 516.14C2078.42 490.713 2088.17 471.032 2093 459.755" stroke="url(#paint1_linear)" stroke-linecap="round" stroke-linejoin="round"/>
<path d="M66.1562 501.292C67.6304 497.372 69.3105 494.602 70.5439 491.56C72.2526 489.132 71.9797 486.387 78.3653 475.822C145.954 315.347 236.583 122.571 399.891 98.8683C531.742 79.3901 475.289 347.067 580.911 356.726C782.895 375.63 958.691 -102.947 1144.1 -8.23046C1236.54 39.1648 1160.2 261.815 1242.58 282.474C1288.11 293.819 1305.82 201.575 1351 203.758C1392.75 207.159 1433.28 299.854 1473.93 282.85C1623.54 226.254 1646.7 -37.3072 1848.8 3.24002C1990.78 31.5639 1985.68 285.141 2077.21 387.005" stroke="url(#paint2_linear)"/>
<path d="M66.3164 502.137C68.5713 497.515 72.5354 493.982 74.6108 492.12C77.6369 491.487 75.7045 492.434 83.8011 483.378C154.417 329.204 245.207 132.234 409.037 109.006C538.962 89.9176 483.177 354.527 587.454 364.34C788.084 384.078 962.385 -94.6613 1146.63 0.131737C1239.16 48.0692 1163.19 272.192 1245.86 292.435C1291.84 303.55 1310.85 208.85 1356.46 212.4C1399.98 218.471 1443.23 308.238 1485.36 288.93C1632.57 232.785 1654.95 -25.7299 1853.21 13.4979C1992.54 40.7467 1987.73 288.859 2077.53 388.459" stroke="url(#paint3_linear)"/>
<path d="M66.4727 502.982C69.5083 497.657 75.7564 493.362 78.6738 492.681C83.0173 493.841 79.4253 498.481 89.233 490.935C162.875 343.062 253.827 141.898 418.179 119.144C546.179 100.445 491.061 361.988 593.993 371.954C793.269 392.525 966.075 -86.3754 1149.17 8.49394C1241.77 56.9737 1166.17 282.57 1249.14 302.395C1295.56 313.281 1315.87 216.124 1361.92 221.041C1407.2 229.783 1453.17 316.622 1496.78 295.011C1641.59 239.317 1663.2 -14.1525 1857.61 23.7558C1994.29 49.9296 1989.78 292.577 2077.84 389.914" stroke="url(#paint4_linear)"/>
<path d="M66.6328 503.826C70.4493 497.8 78.9814 492.743 82.7407 493.241C88.4016 496.196 83.15 504.528 94.6688 498.491C171.338 356.919 262.452 151.562 427.325 129.282C553.4 110.972 498.949 369.449 600.536 379.567C798.458 400.972 969.768 -78.0897 1151.71 16.856C1244.39 65.878 1169.16 292.947 1252.43 312.356C1299.29 323.012 1320.9 223.399 1367.38 229.682C1414.43 241.095 1463.12 325.006 1508.21 301.091C1650.61 245.849 1671.45 -2.57531 1862.01 34.0135C1996.04 59.1124 1991.83 296.294 2078.16 391.369" stroke="url(#paint5_linear)"/>
<path d="M66.7891 504.671C71.3863 497.943 82.2024 492.123 86.8037 493.802C93.782 498.551 86.8708 510.575 100.101 506.048C179.797 370.777 271.072 161.226 436.467 139.42C560.616 121.5 506.833 376.91 607.075 387.181C803.642 409.42 973.458 -69.8037 1154.24 25.2184C1247 74.7825 1172.14 303.325 1255.7 322.317C1303.02 332.744 1325.92 230.674 1372.84 238.323C1421.65 252.407 1473.06 333.39 1519.63 307.172C1659.63 252.38 1679.7 9.00217 1866.41 44.2715C1997.79 68.2954 1993.88 300.012 2078.48 392.824" stroke="url(#paint6_linear)"/>
<path d="M66.9473 505.516C72.3253 498.085 85.4254 491.504 90.8687 494.363C99.1644 500.906 90.5936 516.621 105.535 513.604C188.257 384.634 279.694 170.89 445.611 149.558C567.835 132.027 514.719 384.37 613.617 394.795C808.829 417.867 977.15 -61.5179 1156.77 33.5805C1249.62 83.6868 1175.13 313.703 1258.98 332.277C1306.74 342.474 1330.94 237.948 1378.3 246.964C1428.88 263.719 1483.01 341.774 1531.06 313.253C1668.66 258.912 1687.96 20.5794 1870.81 54.5293C1999.55 77.4781 1995.93 303.73 2078.79 394.279" stroke="url(#paint7_linear)"/>
<path d="M67.1055 506.36C73.2643 498.228 88.6484 490.884 94.9336 494.923C104.547 503.261 94.3163 522.668 110.968 521.161C196.718 398.492 288.316 180.554 454.755 159.696C575.053 142.555 522.605 391.831 620.158 402.409C814.016 426.314 980.842 -53.232 1159.31 41.9427C1252.23 92.5913 1178.12 324.08 1262.27 342.238C1310.47 352.206 1335.97 245.223 1383.76 255.606C1436.11 275.031 1492.95 350.158 1542.48 319.333C1677.68 265.444 1696.21 32.1568 1875.21 64.7872C2001.3 86.661 1997.98 307.447 2079.11 395.734" stroke="url(#paint8_linear)"/>
<path d="M67.2617 507.205C74.2013 498.37 91.8694 490.265 98.9966 495.484C109.927 505.616 98.0371 528.715 116.4 528.717C205.176 412.349 296.937 190.218 463.897 169.834C582.27 153.082 530.49 399.292 626.697 410.023C819.2 434.762 984.532 -44.9461 1161.84 50.3049C1254.85 101.496 1181.1 334.458 1265.54 352.199C1314.2 361.937 1340.99 252.497 1389.22 264.247C1443.33 286.343 1502.9 358.542 1553.9 325.414C1686.7 271.975 1704.46 43.7342 1879.61 75.0451C2003.05 95.8439 2000.03 311.165 2079.42 397.189" stroke="url(#paint9_linear)"/>
<path d="M67.4219 508.05C75.1423 498.513 95.0943 489.645 103.064 496.045C115.311 507.971 101.762 534.762 121.836 536.274C213.639 426.207 305.561 199.882 473.043 179.972C589.491 163.61 538.378 406.752 633.24 417.637C824.389 443.209 988.226 -36.6602 1164.38 58.6672C1257.46 110.4 1184.09 344.835 1268.83 362.159C1317.93 371.668 1346.02 259.772 1394.68 272.888C1450.56 297.656 1512.84 366.926 1565.33 331.495C1695.72 278.507 1712.71 55.3115 1884.01 85.303C2004.8 105.027 2002.08 314.883 2079.74 398.644" stroke="url(#paint10_linear)"/>
<path d="M67.5781 508.895C76.0793 498.656 98.3153 489.025 107.127 496.605C120.692 510.325 105.483 540.809 127.268 543.83C222.097 440.064 314.181 209.545 482.185 190.11C596.707 174.137 546.262 414.213 639.779 425.251C829.574 451.656 991.916 -28.3745 1166.91 67.0293C1260.08 119.305 1187.07 355.213 1272.1 372.12C1321.65 381.399 1351.04 267.047 1400.14 281.529C1457.78 308.968 1522.79 375.31 1576.75 337.575C1704.74 285.039 1720.96 66.8888 1888.41 95.5608C2006.56 114.21 2004.13 318.6 2080.05 400.098" stroke="url(#paint11_linear)"/>
<path d="M67.7363 509.739C77.0183 498.799 101.538 488.406 111.191 497.166C126.074 512.68 109.205 546.856 132.702 551.387C230.558 453.922 322.803 219.209 491.329 200.248C603.926 184.665 554.148 421.674 646.321 432.865C834.761 460.104 995.608 -20.0884 1169.45 75.3917C1262.69 128.209 1190.06 365.591 1275.39 382.08C1325.38 391.13 1356.06 274.321 1405.6 290.171C1465.01 320.28 1532.73 383.694 1588.18 343.656C1713.77 291.571 1729.21 78.4663 1892.81 105.819C2008.31 123.393 2006.18 322.318 2080.37 401.553" stroke="url(#paint12_linear)"/>
<path d="M67.8945 510.584C77.9573 498.941 104.761 487.786 115.256 497.727C131.456 515.035 112.928 552.902 138.136 558.943C239.019 467.779 331.425 228.873 500.473 210.385C611.145 195.192 562.034 429.135 652.862 440.478C839.947 468.551 999.299 -11.8026 1171.98 83.7538C1265.31 137.114 1193.05 375.968 1278.67 392.041C1329.11 400.861 1361.09 281.596 1411.06 298.812C1472.24 331.592 1542.68 392.078 1599.6 349.737C1722.79 298.102 1737.47 90.0436 1897.21 116.077C2010.06 132.575 2008.23 326.036 2080.69 403.008" stroke="url(#paint13_linear)"/>
<path d="M68.0508 511.429C78.8943 499.084 107.982 487.167 119.319 498.287C136.837 517.39 116.649 558.949 143.568 566.5C247.477 481.637 340.046 238.537 509.615 220.523C618.361 205.72 569.918 436.595 659.401 448.092C845.132 476.998 1002.99 -3.51672 1174.52 92.1161C1267.92 146.018 1196.03 386.346 1281.94 402.002C1332.83 410.592 1366.11 288.871 1416.52 307.453C1479.46 342.904 1552.62 400.462 1611.02 355.817C1731.81 304.634 1745.72 101.621 1901.61 126.335C2011.81 141.758 2010.28 329.754 2081 404.463" stroke="url(#paint14_linear)"/>
<path d="M68.2109 512.274C79.8352 499.227 111.207 486.547 123.386 498.848C142.221 519.745 120.374 564.996 149.004 574.056C255.94 495.494 348.67 248.201 518.761 230.661C625.582 216.248 577.806 444.056 665.944 455.706C850.321 485.446 1006.68 4.7692 1177.05 100.478C1270.54 154.922 1199.02 396.723 1285.23 411.962C1336.56 420.323 1371.13 296.145 1421.98 316.094C1486.69 354.216 1562.57 408.846 1622.45 361.898C1740.83 311.166 1753.97 113.198 1906.02 136.593C2013.57 150.941 2012.33 333.471 2081.32 405.918" stroke="url(#paint15_linear)"/>
<path d="M68.3672 513.118C80.7723 499.369 114.428 485.928 127.449 499.409C147.602 522.1 124.095 571.043 154.436 581.613C264.398 509.352 357.29 257.865 527.903 240.799C632.798 226.775 585.69 451.517 672.483 463.32C855.505 493.893 1010.37 13.0551 1179.59 108.841C1273.15 163.827 1202 407.101 1288.51 421.923C1340.29 430.055 1376.16 303.42 1427.44 324.736C1493.92 365.528 1572.51 417.23 1633.87 367.979C1749.86 317.697 1762.22 124.776 1910.42 146.85C2015.32 160.124 2014.38 337.189 2081.63 407.373" stroke="url(#paint16_linear)"/>
<path d="M68.5273 513.963C81.7132 499.512 117.653 485.308 131.516 499.969C152.986 524.455 127.819 577.09 159.871 589.169C272.861 523.209 365.914 267.529 537.048 250.937C640.019 237.303 593.578 458.978 679.027 470.934C860.694 502.34 1014.07 21.3409 1182.12 117.203C1275.77 172.731 1204.99 417.479 1291.79 431.884C1344.01 439.786 1381.18 310.695 1432.9 333.377C1501.14 376.84 1582.46 425.614 1645.3 374.059C1758.88 324.229 1770.47 136.353 1914.82 157.108C2017.07 169.307 2016.43 340.907 2081.95 408.828" stroke="url(#paint17_linear)"/>
<path d="M68.6836 514.808C82.6502 499.655 120.874 484.689 135.579 500.53C158.366 526.81 131.54 583.137 165.303 596.726C281.319 537.067 374.535 277.193 546.19 261.075C647.236 247.83 601.462 466.439 685.566 478.548C865.879 510.788 1017.76 29.627 1184.66 125.565C1278.38 181.636 1207.98 427.856 1295.07 441.844C1347.74 449.517 1386.21 317.969 1438.36 342.018C1508.37 388.152 1592.4 433.999 1656.72 380.14C1767.9 330.761 1778.72 147.931 1919.22 167.366C2018.83 178.49 2018.48 344.625 2082.26 410.283" stroke="url(#paint18_linear)"/>
<path d="M68.8418 515.653C83.5892 499.797 124.097 484.069 139.644 501.091C163.749 529.165 135.263 589.184 170.737 604.283C289.78 550.925 383.157 286.857 555.334 271.213C654.454 258.358 609.348 473.899 692.107 486.162C871.065 519.235 1021.45 37.913 1187.19 133.927C1281 190.54 1210.96 438.234 1298.35 451.805C1351.47 459.248 1391.23 325.244 1443.82 350.659C1515.59 399.465 1602.34 442.383 1668.14 386.221C1776.92 337.293 1786.97 159.508 1923.62 177.624C2020.58 187.673 2020.53 348.342 2082.58 411.738" stroke="url(#paint19_linear)"/>
<path d="M69 516.498C84.5282 499.94 127.32 483.45 143.709 501.651C169.131 531.52 138.986 595.231 176.171 611.839C298.241 564.782 391.779 296.521 564.478 281.351C661.673 268.885 617.235 481.36 698.648 493.776C876.252 527.683 1025.14 46.1988 1189.73 142.29C1283.61 199.445 1213.95 448.612 1301.63 461.766C1355.19 468.979 1396.25 332.519 1449.28 359.301C1522.82 410.777 1612.29 450.767 1679.57 392.301C1785.95 343.824 1795.23 171.085 1928.02 187.882C2022.33 196.856 2022.58 352.06 2082.9 413.193" stroke="url(#paint20_linear)"/>
<path d="M69.1562 517.343C85.4652 500.083 130.541 482.83 147.772 502.212C174.511 533.875 142.706 601.278 181.603 619.396C306.699 578.64 400.399 306.185 573.62 291.49C668.89 279.413 625.119 488.821 705.187 501.39C881.437 536.13 1028.83 54.4849 1192.26 150.652C1286.23 208.35 1216.93 458.989 1304.91 471.727C1358.92 478.71 1401.28 339.794 1454.74 367.942C1530.05 422.089 1622.23 459.151 1690.99 398.382C1794.97 350.356 1803.48 182.663 1932.42 198.14C2024.08 206.039 2024.63 355.778 2083.21 414.648" stroke="url(#paint21_linear)"/>
<path d="M69.3164 518.187C86.4062 500.226 133.766 482.211 151.839 502.773C179.896 536.23 146.431 607.325 187.039 626.952C315.162 592.498 409.023 315.849 582.766 301.627C676.11 289.941 633.007 496.282 711.731 509.004C886.626 544.578 1032.52 62.7707 1194.8 159.014C1288.84 217.254 1219.92 469.367 1308.19 481.687C1362.65 488.441 1406.3 347.068 1460.2 376.583C1537.27 433.401 1632.18 467.535 1702.42 404.463C1803.99 356.888 1811.73 194.24 1936.82 208.398C2025.84 215.222 2026.68 359.496 2083.53 416.103" stroke="url(#paint22_linear)"/>
<path d="M69.4727 519.032C87.3432 500.368 136.987 481.591 155.902 503.334C185.276 538.585 150.152 613.372 192.471 634.509C323.62 606.355 417.644 325.513 591.908 311.765C683.327 300.468 640.891 503.743 718.27 516.618C891.81 553.025 1036.21 71.0567 1197.33 167.377C1291.46 226.158 1222.9 479.745 1311.47 491.648C1366.37 498.173 1411.32 354.343 1465.66 385.225C1544.5 444.713 1642.12 475.919 1713.84 410.544C1813.01 363.42 1819.98 205.818 1941.22 218.656C2027.59 224.405 2028.73 363.213 2083.84 417.558" stroke="url(#paint23_linear)"/>
<path d="M69.6309 519.877C88.2822 500.511 140.21 480.972 159.967 503.894C190.658 540.94 153.875 619.418 197.904 642.065C332.081 620.213 426.266 335.177 601.052 321.903C690.545 310.996 648.777 511.203 724.811 524.231C896.997 561.472 1039.91 79.3425 1199.86 175.739C1294.07 235.063 1225.89 490.122 1314.75 501.609C1370.1 507.904 1416.35 361.617 1471.12 393.866C1551.73 456.025 1652.07 484.303 1725.26 416.624C1822.03 369.951 1828.23 217.395 1945.62 228.914C2029.34 233.588 2030.78 366.931 2084.16 419.013" stroke="url(#paint24_linear)"/>
<path d="M69.7891 520.722C89.2212 500.654 143.433 480.352 164.032 504.455C196.041 543.295 157.597 625.465 203.338 649.622C340.541 634.07 434.888 344.841 610.196 332.042C697.764 321.523 656.663 518.664 731.352 531.845C902.184 569.92 1043.6 87.6286 1202.4 184.101C1296.69 243.968 1228.88 500.5 1318.03 511.569C1373.83 517.635 1421.37 368.892 1476.58 402.507C1558.95 467.337 1662.01 492.688 1736.69 422.705C1831.06 376.483 1836.48 228.973 1950.02 239.172C2031.09 242.771 2032.83 370.649 2084.47 420.468" stroke="url(#paint25_linear)"/>
<path d="M69.9453 521.567C90.1582 500.797 146.654 479.733 168.095 505.016C201.421 545.65 161.318 631.512 208.77 657.179C349 647.928 443.509 354.505 619.338 342.18C704.981 332.051 664.547 526.125 737.891 539.459C907.369 578.367 1047.29 95.9145 1204.93 192.463C1299.3 252.872 1231.86 510.878 1321.31 521.53C1377.55 527.366 1426.4 376.167 1482.03 411.148C1566.18 478.649 1671.95 501.072 1748.11 428.786C1840.08 383.015 1844.73 240.55 1954.42 249.43C2032.85 251.954 2034.87 374.367 2084.79 421.923" stroke="url(#paint26_linear)"/>
<path d="M70.1055 522.411C91.0991 500.939 149.879 479.113 172.162 505.577C206.805 548.005 165.043 637.559 214.206 664.735C357.463 661.786 452.133 364.169 628.484 352.318C712.201 342.578 672.435 533.586 744.435 547.073C912.557 586.815 1050.98 104.2 1207.47 200.826C1301.92 261.777 1234.85 521.255 1324.59 531.491C1381.28 537.097 1431.42 383.442 1487.5 419.79C1573.41 489.962 1681.9 509.456 1759.54 434.866C1849.1 389.547 1852.99 252.128 1958.83 259.688C2034.6 261.137 2036.93 378.085 2085.11 423.378" stroke="url(#paint27_linear)"/>
<path d="M70.2617 523.256C92.0362 501.082 153.1 478.494 176.225 506.137C212.186 550.36 168.764 643.606 219.638 672.292C365.921 675.643 460.753 373.833 637.626 362.456C719.418 353.106 680.319 541.047 750.974 554.687C917.742 595.262 1054.67 112.486 1210 209.188C1304.53 270.681 1237.83 531.633 1327.87 541.452C1385.01 546.829 1436.44 390.716 1492.95 428.431C1580.63 501.274 1691.84 517.84 1770.96 440.947C1858.12 396.078 1861.24 263.705 1963.23 269.946C2036.35 270.32 2038.97 381.802 2085.42 424.833" stroke="url(#paint28_linear)"/>
<path d="M70.4199 524.101C92.9752 501.225 156.323 477.875 180.29 506.698C217.568 552.715 172.487 649.653 225.072 679.848C374.382 689.501 469.375 383.497 646.77 372.594C726.637 363.634 688.206 548.508 757.515 562.301C922.929 603.71 1058.36 120.772 1212.54 217.55C1307.15 279.586 1240.82 542.011 1331.15 551.412C1388.74 556.56 1441.47 397.991 1498.41 437.073C1587.86 512.586 1701.79 526.224 1782.38 447.028C1867.15 402.61 1869.49 275.283 1967.63 280.204C2038.1 279.503 2041.02 385.52 2085.74 426.288" stroke="url(#paint29_linear)"/>
<path d="M70.5781 524.946C93.9141 501.368 159.546 477.255 184.355 507.259C222.95 555.07 176.209 655.7 230.506 687.405C382.842 703.359 477.997 393.161 655.914 382.732C733.855 374.161 696.092 555.968 764.056 569.915C928.115 612.157 1062.06 129.058 1215.07 225.913C1309.76 288.49 1243.81 552.388 1334.43 561.373C1392.46 566.291 1446.49 405.266 1503.87 445.714C1595.08 523.898 1711.73 534.608 1793.81 453.109C1876.17 409.142 1877.74 286.86 1972.03 290.462C2039.86 288.686 2043.07 389.238 2086.05 427.743" stroke="url(#paint30_linear)"/>
<path d="M70.7363 525.791C94.8531 501.511 162.769 476.636 188.42 507.82C228.333 557.425 179.932 661.747 235.94 694.962C391.303 717.216 486.62 402.825 665.058 392.87C741.074 384.689 703.978 563.429 770.597 577.529C933.302 620.605 1065.75 137.345 1217.61 234.275C1312.38 297.395 1246.79 562.766 1337.71 571.334C1396.19 576.022 1451.52 412.541 1509.33 454.355C1602.31 535.21 1721.68 542.993 1805.23 459.19C1885.19 415.674 1885.99 298.438 1976.43 300.72C2041.61 297.869 2045.12 392.956 2086.37 429.198" stroke="url(#paint31_linear)"/>
<path d="M70.8945 526.636C95.7921 501.653 165.992 476.016 192.485 508.38C233.715 559.78 183.655 667.794 241.373 702.518C399.763 731.074 495.242 412.489 674.202 403.008C748.292 395.217 711.864 570.89 777.139 585.143C938.489 629.052 1069.44 145.63 1220.14 242.637C1315 306.299 1249.78 573.144 1340.99 581.294C1399.92 585.753 1456.54 419.815 1514.8 462.996C1609.54 546.523 1731.62 551.377 1816.66 465.27C1894.21 422.206 1894.24 310.015 1980.83 310.978C2043.36 307.052 2047.17 396.674 2086.69 430.653" stroke="url(#paint32_linear)"/>
<path d="M71.0508 527.481C96.7292 501.796 169.213 475.397 196.548 508.941C239.095 562.135 187.376 673.841 246.805 710.075C408.222 744.932 503.862 422.153 683.344 413.146C755.509 405.744 719.748 578.351 783.678 592.757C943.674 637.499 1073.13 153.916 1222.68 251C1317.61 315.204 1252.76 583.521 1344.27 591.255C1403.64 595.485 1461.56 427.09 1520.25 471.638C1616.76 557.835 1741.57 559.761 1828.08 471.351C1903.23 428.737 1902.49 321.592 1985.23 321.236C2045.11 316.235 2049.22 400.392 2087 432.108" stroke="url(#paint33_linear)"/>
<path d="M71.2109 528.325C97.6701 501.939 172.438 474.777 200.615 509.502C244.48 564.49 191.1 679.888 252.241 717.631C416.685 758.789 512.486 431.817 692.49 423.284C762.73 416.272 727.636 585.812 790.221 600.371C948.862 645.947 1076.82 162.203 1225.21 259.362C1320.23 324.109 1255.75 593.899 1347.55 601.216C1407.37 605.216 1466.59 434.365 1525.72 480.279C1623.99 569.147 1751.51 568.145 1839.51 477.432C1912.26 435.269 1910.75 333.17 1989.63 331.494C2046.87 325.418 2051.27 404.109 2087.32 433.563" stroke="url(#paint34_linear)"/>
<path d="M71.3672 529.17C98.6071 502.082 175.659 474.158 204.678 510.063C249.86 566.845 194.821 685.935 257.673 725.188C425.143 772.647 521.107 441.481 701.631 433.422C769.946 426.8 735.52 593.273 796.76 607.985C954.047 654.394 1080.51 170.489 1227.75 267.725C1322.84 333.013 1258.74 604.277 1350.83 611.177C1411.1 614.947 1471.61 441.64 1531.17 488.921C1631.21 580.459 1761.46 576.529 1850.93 483.513C1921.28 441.801 1919 344.748 1994.03 341.752C2048.62 334.601 2053.32 407.827 2087.63 435.018" stroke="url(#paint35_linear)"/>
<path d="M71.5254 530.015C99.5461 502.225 178.882 473.539 208.743 510.624C255.242 569.2 198.544 691.982 263.107 732.745C433.604 786.505 529.729 451.145 710.775 443.56C777.165 437.327 743.406 600.734 803.301 615.599C959.234 662.842 1084.2 178.775 1230.28 276.087C1325.46 341.918 1261.72 614.655 1354.11 621.138C1414.82 624.679 1476.64 448.915 1536.63 497.562C1638.44 591.772 1771.4 584.914 1862.35 489.594C1930.3 448.333 1927.25 356.325 1998.43 352.01C2050.37 343.784 2055.37 411.545 2087.95 436.473" stroke="url(#paint36_linear)"/>
<path d="M71.6836 530.86C100.485 502.367 182.105 472.919 212.808 511.184C260.625 571.555 202.267 698.029 268.541 740.302C442.064 800.362 538.351 460.809 719.919 453.698C784.384 447.855 751.292 608.195 809.842 623.213C964.42 671.289 1087.9 187.061 1232.82 284.449C1328.07 350.822 1264.71 625.033 1357.39 631.099C1418.55 634.41 1481.66 456.189 1542.09 506.203C1645.67 603.084 1781.35 593.298 1873.78 495.674C1939.33 454.865 1935.5 367.903 2002.83 362.268C2052.13 352.967 2057.42 415.263 2088.26 437.928" stroke="url(#paint37_linear)"/>
<path d="M71.8398 531.705C101.422 502.51 185.326 472.3 216.871 511.745C266.005 573.91 205.988 704.076 273.973 747.858C450.523 814.22 546.971 470.473 729.061 463.837C791.6 458.383 759.176 615.656 816.382 630.827C969.605 679.737 1091.59 195.347 1235.35 292.812C1330.68 359.727 1267.69 635.41 1360.67 641.059C1422.28 644.141 1486.68 463.464 1547.55 514.845C1652.89 614.396 1791.29 601.682 1885.2 501.755C1948.35 461.397 1943.75 379.48 2007.23 372.526C2053.88 362.15 2059.47 418.981 2088.58 439.383" stroke="url(#paint38_linear)"/>
<path d="M72 532.55C102.363 502.653 188.551 471.68 220.938 512.306C271.389 576.265 209.712 710.123 279.409 755.415C458.986 828.078 555.596 480.137 738.207 473.975C798.821 468.91 767.065 623.117 822.925 638.441C974.794 688.184 1095.28 203.633 1237.89 301.174C1333.3 368.632 1270.68 645.788 1363.95 651.02C1426.01 653.872 1491.71 470.739 1553.01 523.486C1660.12 625.708 1801.24 610.066 1896.63 507.836C1957.37 467.928 1952 391.058 2011.64 382.784C2055.63 371.333 2061.52 422.699 2088.9 440.838" stroke="url(#paint39_linear)"/>
<path d="M72.1562 533.395C103.3 502.796 191.772 471.061 225.001 512.867C276.77 578.62 213.433 716.17 284.841 762.972C467.444 841.936 564.216 489.801 747.349 484.113C806.037 479.438 774.949 630.578 829.464 646.056C979.979 696.632 1098.97 211.919 1240.42 309.537C1335.92 377.536 1273.67 656.166 1367.23 660.981C1429.73 663.604 1496.73 478.014 1558.47 532.128C1667.35 637.021 1811.18 618.451 1908.05 513.917C1966.39 474.46 1960.25 402.635 2016.03 393.042C2057.38 380.516 2063.57 426.417 2089.21 442.293" stroke="url(#paint40_linear)"/>
<path d="M72.3164 534.24C104.241 502.939 194.997 470.442 229.067 513.428C282.154 580.975 217.158 722.217 290.276 770.528C475.907 855.793 572.84 499.465 756.495 494.251C813.258 489.966 782.837 638.038 836.007 653.669C985.167 705.079 1102.66 220.205 1242.96 317.899C1338.53 386.441 1276.65 666.543 1370.52 670.942C1433.46 673.335 1501.76 485.289 1563.93 540.769C1674.57 648.333 1821.13 626.835 1919.47 519.997C1975.42 480.992 1968.51 414.213 2020.44 403.3C2059.14 389.699 2065.62 430.134 2089.53 443.748" stroke="url(#paint41_linear)"/>
<path d="M72.4727 535.085C105.178 503.082 198.218 469.822 233.13 513.989C287.535 583.33 220.879 728.264 295.708 778.085C484.365 869.651 581.46 509.129 765.637 504.389C820.475 500.493 790.721 645.499 842.546 661.283C990.352 713.527 1106.35 228.491 1245.49 326.261C1341.15 395.345 1279.64 676.921 1373.79 680.902C1437.19 683.066 1506.78 492.563 1569.39 549.41C1681.8 659.645 1831.07 635.219 1930.9 526.078C1984.44 487.524 1976.76 425.79 2024.84 413.559C2060.89 398.882 2067.67 433.852 2089.84 445.203" stroke="url(#paint42_linear)"/>
<path d="M72.6309 535.93C106.117 503.225 201.441 469.203 237.195 514.549C292.917 585.685 224.601 734.311 301.142 785.642C492.826 883.509 590.082 518.794 774.781 514.527C827.693 511.021 798.607 652.96 849.088 668.898C995.539 721.975 1110.05 236.777 1248.03 334.624C1343.76 404.25 1282.62 687.299 1377.08 690.863C1440.91 692.797 1511.8 499.838 1574.85 558.052C1689.03 670.957 1841.01 643.603 1942.32 532.159C1993.46 494.056 1985.01 437.368 2029.24 423.817C2062.64 408.065 2069.72 437.57 2090.16 446.659" stroke="url(#paint43_linear)"/>
<path d="M72.7891 536.775C107.056 503.367 204.664 468.584 241.26 515.11C298.299 588.04 228.324 740.358 306.576 793.198C501.286 897.366 598.705 528.458 783.925 524.665C834.912 521.549 806.493 660.421 855.629 676.512C1000.73 730.422 1113.74 245.063 1250.56 342.986C1346.38 413.155 1285.61 697.677 1380.36 700.824C1444.64 702.529 1516.83 507.113 1580.31 566.693C1696.25 682.27 1850.96 651.988 1953.75 538.24C2002.48 500.588 1993.26 448.945 2033.64 434.075C2064.4 417.248 2071.77 441.288 2090.47 448.114" stroke="url(#paint44_linear)"/>
<path d="M72.9453 537.619C107.993 503.51 207.885 467.964 245.323 515.671C303.68 590.395 232.045 746.405 312.008 800.755C509.745 911.224 607.325 538.122 793.067 534.803C842.129 532.076 814.377 667.882 862.168 684.126C1005.91 738.87 1117.43 253.349 1253.09 351.349C1348.99 422.059 1288.59 708.055 1383.63 710.785C1448.37 712.26 1521.85 514.388 1585.77 575.335C1703.48 693.582 1860.9 660.372 1965.17 544.321C2011.5 507.12 2001.51 460.523 2038.04 444.333C2066.15 426.431 2073.82 445.006 2090.79 449.569" stroke="url(#paint45_linear)"/>
<path d="M73.1055 538.465C108.934 503.653 211.11 467.345 249.39 516.232C309.064 592.751 235.77 752.453 317.444 808.312C518.208 925.082 615.949 547.786 802.213 544.942C849.349 542.604 822.265 675.343 868.711 691.74C1011.1 747.317 1121.12 261.635 1255.63 359.711C1351.61 430.964 1291.58 718.433 1386.92 720.746C1452.09 721.991 1526.88 521.663 1591.23 583.976C1710.71 704.894 1870.85 668.756 1976.59 550.402C2020.53 513.652 2009.76 472.101 2042.44 454.591C2067.9 435.615 2075.87 448.724 2091.11 451.024" stroke="url(#paint46_linear)"/>
<path d="M73.2617 539.309C109.871 503.796 214.331 466.726 253.453 516.793C314.444 595.106 239.49 758.5 322.876 815.868C526.666 938.94 624.569 557.45 811.355 555.08C856.566 553.132 830.149 682.804 875.25 699.354C1016.28 755.765 1124.81 269.921 1258.16 368.073C1354.22 439.869 1294.57 728.81 1390.2 730.707C1455.82 731.723 1531.9 528.938 1596.69 592.618C1717.93 716.206 1880.79 677.14 1988.02 556.483C2029.55 520.184 2018.01 483.678 2046.84 464.849C2069.65 444.798 2077.92 452.442 2091.42 452.479" stroke="url(#paint47_linear)"/>
<path d="M73.4199 540.154C110.81 503.939 217.554 466.106 257.518 517.354C319.827 597.461 243.213 764.547 328.31 823.425C535.127 952.797 633.192 567.114 820.499 565.218C863.784 563.66 838.035 690.265 881.792 706.968C1021.47 764.212 1128.5 278.207 1260.7 376.436C1356.84 448.773 1297.55 739.188 1393.48 740.668C1459.55 741.454 1536.92 536.213 1602.15 601.259C1725.16 727.519 1890.74 685.525 1999.44 562.563C2038.57 526.715 2026.27 495.256 2051.24 475.107C2071.41 453.981 2079.97 456.16 2091.74 453.934" stroke="url(#paint48_linear)"/>
<path d="M73.5781 540.999C111.749 504.082 220.777 465.487 261.583 517.914C325.209 599.816 246.936 770.594 333.743 830.982C543.587 966.655 641.814 576.778 829.643 575.356C871.003 574.187 845.922 697.726 888.333 714.582C1026.66 772.66 1132.2 286.493 1263.23 384.798C1359.45 457.678 1300.54 749.566 1396.76 750.628C1463.27 751.185 1541.95 543.487 1607.61 609.9C1732.38 738.831 1900.68 693.909 2010.87 568.644C2047.59 533.247 2034.52 506.833 2055.64 485.365C2073.16 463.164 2082.02 459.878 2092.05 455.389" stroke="url(#paint49_linear)"/>
<path d="M73.7344 541.844C112.686 504.225 223.998 464.868 265.646 518.475C330.589 602.171 250.657 776.641 339.175 838.538C552.046 980.513 650.434 586.442 838.785 585.494C878.22 584.715 853.806 705.187 894.872 722.196C1031.84 781.107 1135.89 294.78 1265.77 393.161C1362.07 466.583 1303.52 759.944 1400.04 760.589C1467 760.917 1546.97 550.762 1613.07 618.542C1739.61 750.143 1910.62 702.293 2022.29 574.725C2056.61 539.779 2042.77 518.411 2060.04 495.623C2074.91 472.347 2084.07 463.596 2092.37 456.844" stroke="url(#paint50_linear)"/>
<path d="M73.8945 542.689C113.627 504.368 227.223 464.248 269.713 519.036C335.974 604.526 254.382 782.688 344.611 846.095C560.508 994.371 659.058 596.106 847.931 595.632C885.44 595.243 861.694 712.648 901.415 729.81C1037.03 789.555 1139.58 303.066 1268.3 401.523C1364.68 475.487 1306.51 770.321 1403.32 770.55C1470.73 770.648 1551.99 558.037 1618.53 627.183C1746.84 761.456 1920.57 710.677 2033.71 580.806C2065.64 546.311 2051.02 529.988 2064.45 505.881C2076.67 481.53 2086.12 467.314 2092.69 458.299" stroke="url(#paint51_linear)"/>
</g>
</g>
<defs>
<pattern id="pattern0" patternContentUnits="objectBoundingBox" width="1" height="1">
<use xlink:href="#image0" transform="translate(0 -0.0165666) scale(0.000244141 0.00079391)"/>
</pattern>
<linearGradient id="paint0_linear" x1="1071.45" y1="-29" x2="1071.45" y2="500.448" gradientUnits="userSpaceOnUse">
<stop stop-color="#333399"/>
<stop offset="1" stop-color="#333399" stop-opacity="0"/>
</linearGradient>
<linearGradient id="paint1_linear" x1="1083.52" y1="396.667" x2="1083.52" y2="889" gradientUnits="userSpaceOnUse">
<stop stop-color="#333399"/>
<stop offset="1" stop-color="#333399" stop-opacity="0"/>
</linearGradient>
<linearGradient id="paint2_linear" x1="1071.68" y1="-20.6536" x2="1071.68" y2="501.292" gradientUnits="userSpaceOnUse">
<stop stop-color="#333399"/>
<stop offset="1" stop-color="#333399" stop-opacity="0"/>
</linearGradient>
<linearGradient id="paint3_linear" x1="1071.92" y1="-12.3071" x2="1071.92" y2="502.137" gradientUnits="userSpaceOnUse">
<stop stop-color="#333399"/>
<stop offset="1" stop-color="#333399" stop-opacity="0"/>
</linearGradient>
<linearGradient id="paint4_linear" x1="1072.16" y1="-3.96069" x2="1072.16" y2="502.982" gradientUnits="userSpaceOnUse">
<stop stop-color="#333399"/>
<stop offset="1" stop-color="#333399" stop-opacity="0"/>
</linearGradient>
<linearGradient id="paint5_linear" x1="1072.4" y1="4.38562" x2="1072.4" y2="503.826" gradientUnits="userSpaceOnUse">
<stop stop-color="#333399"/>
<stop offset="1" stop-color="#333399" stop-opacity="0"/>
</linearGradient>
<linearGradient id="paint6_linear" x1="1072.63" y1="12.7322" x2="1072.63" y2="507.049" gradientUnits="userSpaceOnUse">
<stop stop-color="#333399"/>
<stop offset="1" stop-color="#333399" stop-opacity="0"/>
</linearGradient>
<linearGradient id="paint7_linear" x1="1072.87" y1="21.0785" x2="1072.87" y2="513.985" gradientUnits="userSpaceOnUse">
<stop stop-color="#333399"/>
<stop offset="1" stop-color="#333399" stop-opacity="0"/>
</linearGradient>
<linearGradient id="paint8_linear" x1="1073.11" y1="29.4249" x2="1073.11" y2="521.244" gradientUnits="userSpaceOnUse">
<stop stop-color="#333399"/>
<stop offset="1" stop-color="#333399" stop-opacity="0"/>
</linearGradient>
<linearGradient id="paint9_linear" x1="1073.34" y1="37.7714" x2="1073.34" y2="528.717" gradientUnits="userSpaceOnUse">
<stop stop-color="#333399"/>
<stop offset="1" stop-color="#333399" stop-opacity="0"/>
</linearGradient>
<linearGradient id="paint10_linear" x1="1073.58" y1="46.1178" x2="1073.58" y2="536.274" gradientUnits="userSpaceOnUse">
<stop stop-color="#333399"/>
<stop offset="1" stop-color="#333399" stop-opacity="0"/>
</linearGradient>
<linearGradient id="paint11_linear" x1="1073.82" y1="54.4641" x2="1073.82" y2="543.83" gradientUnits="userSpaceOnUse">
<stop stop-color="#333399"/>
<stop offset="1" stop-color="#333399" stop-opacity="0"/>
</linearGradient>
<linearGradient id="paint12_linear" x1="1074.05" y1="62.8107" x2="1074.05" y2="551.387" gradientUnits="userSpaceOnUse">
<stop stop-color="#333399"/>
<stop offset="1" stop-color="#333399" stop-opacity="0"/>
</linearGradient>
<linearGradient id="paint13_linear" x1="1074.29" y1="71.157" x2="1074.29" y2="558.943" gradientUnits="userSpaceOnUse">
<stop stop-color="#333399"/>
<stop offset="1" stop-color="#333399" stop-opacity="0"/>
</linearGradient>
<linearGradient id="paint14_linear" x1="1074.53" y1="79.5034" x2="1074.53" y2="566.5" gradientUnits="userSpaceOnUse">
<stop stop-color="#333399"/>
<stop offset="1" stop-color="#333399" stop-opacity="0"/>
</linearGradient>
<linearGradient id="paint15_linear" x1="1074.76" y1="87.8499" x2="1074.76" y2="574.056" gradientUnits="userSpaceOnUse">
<stop stop-color="#333399"/>
<stop offset="1" stop-color="#333399" stop-opacity="0"/>
</linearGradient>
<linearGradient id="paint16_linear" x1="1075" y1="96.1963" x2="1075" y2="581.613" gradientUnits="userSpaceOnUse">
<stop stop-color="#333399"/>
<stop offset="1" stop-color="#333399" stop-opacity="0"/>
</linearGradient>
<linearGradient id="paint17_linear" x1="1075.24" y1="104.543" x2="1075.24" y2="589.169" gradientUnits="userSpaceOnUse">
<stop stop-color="#333399"/>
<stop offset="1" stop-color="#333399" stop-opacity="0"/>
</linearGradient>
<linearGradient id="paint18_linear" x1="1075.47" y1="112.889" x2="1075.47" y2="596.726" gradientUnits="userSpaceOnUse">
<stop stop-color="#333399"/>
<stop offset="1" stop-color="#333399" stop-opacity="0"/>
</linearGradient>
<linearGradient id="paint19_linear" x1="1075.71" y1="121.236" x2="1075.71" y2="604.283" gradientUnits="userSpaceOnUse">
<stop stop-color="#333399"/>
<stop offset="1" stop-color="#333399" stop-opacity="0"/>
</linearGradient>
<linearGradient id="paint20_linear" x1="1075.95" y1="129.582" x2="1075.95" y2="611.839" gradientUnits="userSpaceOnUse">
<stop stop-color="#333399"/>
<stop offset="1" stop-color="#333399" stop-opacity="0"/>
</linearGradient>
<linearGradient id="paint21_linear" x1="1076.18" y1="137.928" x2="1076.18" y2="619.396" gradientUnits="userSpaceOnUse">
<stop stop-color="#333399"/>
<stop offset="1" stop-color="#333399" stop-opacity="0"/>
</linearGradient>
<linearGradient id="paint22_linear" x1="1076.42" y1="146.275" x2="1076.42" y2="626.952" gradientUnits="userSpaceOnUse">
<stop stop-color="#333399"/>
<stop offset="1" stop-color="#333399" stop-opacity="0"/>
</linearGradient>
<linearGradient id="paint23_linear" x1="1076.66" y1="154.621" x2="1076.66" y2="634.509" gradientUnits="userSpaceOnUse">
<stop stop-color="#333399"/>
<stop offset="1" stop-color="#333399" stop-opacity="0"/>
</linearGradient>
<linearGradient id="paint24_linear" x1="1076.89" y1="162.968" x2="1076.89" y2="642.065" gradientUnits="userSpaceOnUse">
<stop stop-color="#333399"/>
<stop offset="1" stop-color="#333399" stop-opacity="0"/>
</linearGradient>
<linearGradient id="paint25_linear" x1="1077.13" y1="171.314" x2="1077.13" y2="649.622" gradientUnits="userSpaceOnUse">
<stop stop-color="#333399"/>
<stop offset="1" stop-color="#333399" stop-opacity="0"/>
</linearGradient>
<linearGradient id="paint26_linear" x1="1077.37" y1="179.66" x2="1077.37" y2="657.178" gradientUnits="userSpaceOnUse">
<stop stop-color="#333399"/>
<stop offset="1" stop-color="#333399" stop-opacity="0"/>
</linearGradient>
<linearGradient id="paint27_linear" x1="1077.61" y1="188.007" x2="1077.61" y2="664.735" gradientUnits="userSpaceOnUse">
<stop stop-color="#333399"/>
<stop offset="1" stop-color="#333399" stop-opacity="0"/>
</linearGradient>
<linearGradient id="paint28_linear" x1="1077.84" y1="196.353" x2="1077.84" y2="672.319" gradientUnits="userSpaceOnUse">
<stop stop-color="#333399"/>
<stop offset="1" stop-color="#333399" stop-opacity="0"/>
</linearGradient>
<linearGradient id="paint29_linear" x1="1078.08" y1="204.7" x2="1078.08" y2="680.072" gradientUnits="userSpaceOnUse">
<stop stop-color="#333399"/>
<stop offset="1" stop-color="#333399" stop-opacity="0"/>
</linearGradient>
<linearGradient id="paint30_linear" x1="1078.32" y1="213.046" x2="1078.32" y2="688" gradientUnits="userSpaceOnUse">
<stop stop-color="#333399"/>
<stop offset="1" stop-color="#333399" stop-opacity="0"/>
</linearGradient>
<linearGradient id="paint31_linear" x1="1078.55" y1="221.393" x2="1078.55" y2="696.089" gradientUnits="userSpaceOnUse">
<stop stop-color="#333399"/>
<stop offset="1" stop-color="#333399" stop-opacity="0"/>
</linearGradient>
<linearGradient id="paint32_linear" x1="1078.79" y1="229.739" x2="1078.79" y2="704.328" gradientUnits="userSpaceOnUse">
<stop stop-color="#333399"/>
<stop offset="1" stop-color="#333399" stop-opacity="0"/>
</linearGradient>
<linearGradient id="paint33_linear" x1="1079.03" y1="238.085" x2="1079.03" y2="712.706" gradientUnits="userSpaceOnUse">
<stop stop-color="#333399"/>
<stop offset="1" stop-color="#333399" stop-opacity="0"/>
</linearGradient>
<linearGradient id="paint34_linear" x1="1079.26" y1="246.432" x2="1079.26" y2="721.213" gradientUnits="userSpaceOnUse">
<stop stop-color="#333399"/>
<stop offset="1" stop-color="#333399" stop-opacity="0"/>
</linearGradient>
<linearGradient id="paint35_linear" x1="1079.5" y1="254.778" x2="1079.5" y2="729.84" gradientUnits="userSpaceOnUse">
<stop stop-color="#333399"/>
<stop offset="1" stop-color="#333399" stop-opacity="0"/>
</linearGradient>
<linearGradient id="paint36_linear" x1="1079.74" y1="263.125" x2="1079.74" y2="738.578" gradientUnits="userSpaceOnUse">
<stop stop-color="#333399"/>
<stop offset="1" stop-color="#333399" stop-opacity="0"/>
</linearGradient>
<linearGradient id="paint37_linear" x1="1079.97" y1="271.471" x2="1079.97" y2="747.42" gradientUnits="userSpaceOnUse">
<stop stop-color="#333399"/>
<stop offset="1" stop-color="#333399" stop-opacity="0"/>
</linearGradient>
<linearGradient id="paint38_linear" x1="1080.21" y1="279.818" x2="1080.21" y2="756.359" gradientUnits="userSpaceOnUse">
<stop stop-color="#333399"/>
<stop offset="1" stop-color="#333399" stop-opacity="0"/>
</linearGradient>
<linearGradient id="paint39_linear" x1="1080.45" y1="288.164" x2="1080.45" y2="765.39" gradientUnits="userSpaceOnUse">
<stop stop-color="#333399"/>
<stop offset="1" stop-color="#333399" stop-opacity="0"/>
</linearGradient>
<linearGradient id="paint40_linear" x1="1080.68" y1="296.51" x2="1080.68" y2="774.506" gradientUnits="userSpaceOnUse">
<stop stop-color="#333399"/>
<stop offset="1" stop-color="#333399" stop-opacity="0"/>
</linearGradient>
<linearGradient id="paint41_linear" x1="1080.92" y1="304.857" x2="1080.92" y2="783.702" gradientUnits="userSpaceOnUse">
<stop stop-color="#333399"/>
<stop offset="1" stop-color="#333399" stop-opacity="0"/>
</linearGradient>
<linearGradient id="paint42_linear" x1="1081.16" y1="313.203" x2="1081.16" y2="792.973" gradientUnits="userSpaceOnUse">
<stop stop-color="#333399"/>
<stop offset="1" stop-color="#333399" stop-opacity="0"/>
</linearGradient>
<linearGradient id="paint43_linear" x1="1081.39" y1="321.55" x2="1081.39" y2="802.316" gradientUnits="userSpaceOnUse">
<stop stop-color="#333399"/>
<stop offset="1" stop-color="#333399" stop-opacity="0"/>
</linearGradient>
<linearGradient id="paint44_linear" x1="1081.63" y1="329.896" x2="1081.63" y2="811.725" gradientUnits="userSpaceOnUse">
<stop stop-color="#333399"/>
<stop offset="1" stop-color="#333399" stop-opacity="0"/>
</linearGradient>
<linearGradient id="paint45_linear" x1="1081.87" y1="338.242" x2="1081.87" y2="821.197" gradientUnits="userSpaceOnUse">
<stop stop-color="#333399"/>
<stop offset="1" stop-color="#333399" stop-opacity="0"/>
</linearGradient>
<linearGradient id="paint46_linear" x1="1082.11" y1="346.589" x2="1082.11" y2="830.729" gradientUnits="userSpaceOnUse">
<stop stop-color="#333399"/>
<stop offset="1" stop-color="#333399" stop-opacity="0"/>
</linearGradient>
<linearGradient id="paint47_linear" x1="1082.34" y1="354.935" x2="1082.34" y2="840.316" gradientUnits="userSpaceOnUse">
<stop stop-color="#333399"/>
<stop offset="1" stop-color="#333399" stop-opacity="0"/>
</linearGradient>
<linearGradient id="paint48_linear" x1="1082.58" y1="363.282" x2="1082.58" y2="849.957" gradientUnits="userSpaceOnUse">
<stop stop-color="#333399"/>
<stop offset="1" stop-color="#333399" stop-opacity="0"/>
</linearGradient>
<linearGradient id="paint49_linear" x1="1082.82" y1="371.628" x2="1082.82" y2="859.649" gradientUnits="userSpaceOnUse">
<stop stop-color="#333399"/>
<stop offset="1" stop-color="#333399" stop-opacity="0"/>
</linearGradient>
<linearGradient id="paint50_linear" x1="1083.05" y1="379.974" x2="1083.05" y2="869.388" gradientUnits="userSpaceOnUse">
<stop stop-color="#333399"/>
<stop offset="1" stop-color="#333399" stop-opacity="0"/>
</linearGradient>
<linearGradient id="paint51_linear" x1="1083.29" y1="388.321" x2="1083.29" y2="879.172" gradientUnits="userSpaceOnUse">
<stop stop-color="#333399"/>
<stop offset="1" stop-color="#333399" stop-opacity="0"/>
</linearGradient>
</defs>
</svg>
