<svg width="1920" height="1433" viewBox="0 0 1920 1433" fill="none" xmlns="http://www.w3.org/2000/svg">
<mask id="mask0" mask-type="alpha" maskUnits="userSpaceOnUse" x="-1" y="0" width="1922" height="1433">
<path d="M1921 0H1551.5H-1V1433H1921V0Z" fill="#242424"/>
</mask>
<g mask="url(#mask0)">
<g opacity="0.5">
<path d="M3516 834.668C3513.54 824.521 3520.28 822.005 3503.71 783.933C3389.3 521.012 3228.99 223.714 2940.52 185.601C2703.46 154.279 2804.68 581.103 2615.12 596.09C2254.79 624.578 1940.62 -129.639 1610.02 19.56C1446.34 93.4233 1582.28 442.106 1436.82 475.333C1356.93 493.58 1327.84 352.031 1248.56 353.318C1177.7 354.469 1110.69 505.217 1041.27 482.042C771.9 392.108 729.5 -31.3478 364.527 34.6546C108.243 81.0016 117.808 489.379 -47.4649 653.533" stroke="url(#paint0_linear)" stroke-linecap="round" stroke-linejoin="round"/>
<path d="M3501.73 902.594C3429.94 841.073 3224.59 776.624 3147.8 864.857C3028.05 1002.46 3175.58 1289.15 3012.65 1391.49C2624.7 1635.18 2449.78 1000.71 2114.15 1000.71C2051.1 1000.71 2091.99 1180.96 2023.99 1208.26C1786.07 1303.76 1606.99 536.561 1380.93 691.898C1210 809.357 1312.42 1276.48 1140.36 1276.18C1020.11 1275.98 873.8 936.926 755.116 1048.09C524.622 1263.98 211.933 1179.31 8.8143 970.939C-43.5022 917.269 -16.2341 899.491 -33.1973 859.406C-50.1606 819.322 -67.4409 788.294 -76.0018 770.516" stroke="url(#paint1_linear)" stroke-linecap="round" stroke-linejoin="round"/>
<path d="M3515.72 836C3513.11 829.82 3510.13 825.452 3507.94 820.657C3504.92 816.829 3505.4 812.502 3494.08 795.846C3374.31 542.859 3213.71 238.95 2924.32 201.583C2690.67 170.876 2790.71 592.865 2603.54 608.093C2245.6 637.896 1934.08 -116.576 1605.52 32.7433C1441.71 107.461 1576.99 458.467 1431 491.036C1350.33 508.921 1318.94 363.499 1238.88 366.941C1164.9 372.302 1093.07 518.434 1021.03 491.628C755.913 402.405 714.879 -13.0959 356.73 50.8264C105.138 95.4786 114.177 495.24 -48.0231 655.827" stroke="url(#paint2_linear)"/>
<path d="M3515.44 837.331C3511.45 830.044 3504.42 824.475 3500.74 821.54C3495.38 820.541 3498.81 822.034 3484.46 807.758C3359.32 564.704 3198.43 254.184 2908.11 217.565C2677.88 187.472 2776.73 604.626 2591.95 620.095C2236.41 651.212 1927.54 -103.514 1601.03 45.9256C1437.08 121.498 1571.7 474.826 1425.19 506.738C1343.73 524.261 1310.04 374.967 1229.21 380.563C1152.1 390.135 1075.44 531.651 1000.79 501.213C739.926 412.701 700.259 5.15504 348.933 66.9972C102.034 109.955 110.547 501.101 -48.5809 658.12" stroke="url(#paint3_linear)"/>
<path d="M3515.16 838.663C3509.78 830.269 3498.71 823.499 3493.54 822.424C3485.84 824.253 3492.21 831.568 3474.83 819.671C3344.33 586.551 3183.15 269.419 2891.91 233.548C2665.08 204.069 2762.76 616.388 2580.35 632.099C2227.22 664.529 1921 -90.4516 1596.54 59.1088C1432.44 135.537 1566.41 491.187 1419.38 522.441C1337.12 539.603 1301.13 386.436 1219.53 394.187C1139.29 407.969 1057.82 544.869 980.541 510.8C723.937 422.999 685.635 23.4069 341.134 83.1689C98.9268 124.432 106.913 506.962 -49.1417 660.414" stroke="url(#paint4_linear)"/>
<path d="M3514.88 839.994C3508.12 830.494 3493 822.521 3486.34 823.307C3476.3 827.966 3485.61 841.1 3465.2 831.584C3329.33 608.397 3167.87 284.654 2875.71 249.529C2652.29 220.665 2748.78 628.15 2568.76 644.102C2218.03 677.846 1914.45 -77.3894 1592.05 72.2914C1427.81 149.574 1561.12 507.546 1413.57 538.144C1330.51 554.943 1292.23 397.904 1209.86 407.809C1126.48 425.802 1040.2 558.086 960.296 520.385C707.948 433.296 671.013 41.6581 333.334 99.3399C95.8201 138.908 103.28 512.822 -49.7019 662.707" stroke="url(#paint5_linear)"/>
<path d="M3514.6 841.326C3506.46 830.719 3487.29 821.545 3479.14 824.191C3466.77 831.678 3479.02 850.633 3455.57 843.497C3314.34 630.243 3152.6 299.889 2859.5 265.512C2639.5 237.261 2734.81 639.912 2557.17 656.105C2208.84 691.163 1907.91 -64.3268 1587.56 85.4744C1423.18 163.612 1555.83 523.907 1407.75 553.847C1323.91 570.284 1283.33 409.372 1200.18 421.432C1113.68 443.635 1022.58 571.303 940.054 529.971C691.961 443.593 656.392 59.9097 325.538 115.511C92.716 153.385 99.6496 518.683 -50.2595 665.001" stroke="url(#paint6_linear)"/>
<path d="M3514.32 842.658C3504.79 830.944 3481.58 820.568 3471.93 825.076C3457.23 835.391 3472.42 860.166 3445.94 855.41C3299.35 652.09 3137.32 315.124 2843.3 281.495C2626.71 253.858 2720.84 651.674 2545.58 668.108C2199.65 704.481 1901.37 -51.2638 1583.07 98.6576C1418.54 177.65 1550.54 540.267 1401.94 569.55C1317.31 585.625 1274.43 420.841 1190.51 435.055C1100.87 461.469 1004.95 584.521 919.809 539.558C675.973 453.89 641.77 78.1616 317.739 131.683C89.6099 167.862 96.0171 524.545 -50.8192 667.295" stroke="url(#paint7_linear)"/>
<path d="M3514.04 843.99C3503.13 831.169 3475.86 819.592 3464.73 825.959C3447.69 839.103 3465.82 869.699 3436.31 867.322C3284.36 673.936 3122.04 330.359 2827.1 297.477C2613.92 270.455 2706.86 663.435 2533.99 680.112C2190.46 717.798 1894.83 -38.2014 1578.57 111.84C1413.9 191.687 1545.24 556.627 1396.13 585.252C1310.7 600.966 1265.52 432.309 1180.83 448.678C1088.07 479.302 987.328 597.738 899.562 549.144C659.982 464.187 627.145 96.4131 309.938 147.855C86.5011 182.338 92.3819 530.406 -51.3817 669.588" stroke="url(#paint8_linear)"/>
<path d="M3513.76 845.321C3501.46 831.393 3470.15 818.614 3457.52 826.843C3438.15 842.815 3459.22 879.231 3426.68 879.234C3269.37 695.781 3106.76 345.594 2810.89 313.459C2601.13 287.05 2692.89 675.196 2522.4 692.114C2181.27 731.114 1888.29 -25.1394 1574.08 125.023C1409.27 205.725 1539.95 572.987 1390.31 600.955C1304.1 616.307 1256.62 443.777 1171.15 462.3C1075.26 497.135 969.707 610.955 879.319 558.729C643.995 474.484 612.523 114.664 302.14 164.025C83.396 196.814 88.7506 536.266 -51.9401 671.881" stroke="url(#paint9_linear)"/>
<path d="M3513.48 846.653C3499.8 831.619 3464.44 817.638 3450.32 827.727C3428.62 846.528 3452.63 888.764 3417.06 891.148C3254.37 717.628 3091.48 360.829 2794.69 329.442C2588.34 303.648 2678.91 686.959 2510.81 704.118C2172.08 744.432 1881.75 -12.076 1569.59 138.207C1404.64 219.763 1534.66 589.348 1384.5 616.658C1297.49 631.648 1247.72 455.246 1161.48 475.923C1062.46 514.969 952.084 624.173 859.075 568.316C628.006 484.782 597.901 132.916 294.341 180.198C80.2901 211.292 85.1179 542.128 -52.5001 674.175" stroke="url(#paint10_linear)"/>
<path d="M3513.2 847.984C3498.14 831.843 3458.73 816.661 3443.12 828.61C3419.08 850.24 3446.03 898.297 3407.42 903.06C3239.38 739.474 3076.2 376.064 2778.49 345.423C2575.54 320.244 2664.94 698.72 2499.22 716.121C2162.89 757.749 1875.2 0.986032 1565.1 151.389C1400 233.8 1529.37 605.707 1378.69 632.36C1290.89 646.989 1238.81 466.714 1151.8 489.546C1049.65 532.802 934.46 637.39 838.829 577.901C612.017 495.078 583.278 151.167 286.542 196.369C77.1828 225.768 81.4844 547.988 -53.0607 676.469" stroke="url(#paint11_linear)"/>
<path d="M3512.92 849.316C3496.47 832.068 3453.02 815.684 3435.91 829.494C3409.54 853.953 3439.43 907.829 3397.79 914.973C3224.39 761.32 3060.92 391.299 2762.28 361.406C2562.75 336.84 2650.96 710.482 2487.62 728.124C2153.69 771.066 1868.66 14.0488 1560.6 164.572C1395.37 247.838 1524.08 622.067 1372.87 648.063C1284.28 662.33 1229.91 478.182 1142.13 503.168C1036.84 550.635 916.836 650.607 818.584 587.488C596.027 505.375 568.654 169.419 278.742 212.54C74.0757 240.245 77.8509 553.849 -53.6214 678.762" stroke="url(#paint12_linear)"/>
<path d="M3512.64 850.648C3494.81 832.293 3447.31 814.708 3428.71 830.378C3400.01 857.665 3432.84 917.362 3388.17 926.886C3209.4 783.167 3045.64 406.534 2746.08 377.388C2549.96 353.437 2636.99 722.244 2476.03 740.127C2144.51 784.383 1862.12 27.1113 1556.11 177.755C1390.73 261.876 1518.79 638.428 1367.06 663.766C1277.68 677.671 1221.01 489.651 1132.45 516.791C1024.04 568.469 899.216 663.825 798.342 597.074C580.042 515.673 554.035 187.671 270.946 228.711C70.9725 254.722 74.2214 559.71 -54.1782 681.056" stroke="url(#paint13_linear)"/>
<path d="M3512.36 851.98C3493.14 832.518 3441.6 813.731 3421.51 831.262C3390.47 861.378 3426.24 926.895 3378.54 938.798C3194.4 805.013 3030.36 421.769 2729.88 393.371C2537.17 370.033 2623.01 734.006 2464.44 752.13C2135.31 797.701 1855.58 40.174 1551.62 190.938C1386.1 275.914 1513.49 654.788 1361.25 679.469C1271.07 693.012 1212.1 501.119 1122.78 530.414C1011.23 586.302 881.592 677.042 778.096 606.66C564.052 525.97 539.41 205.922 263.146 244.883C67.8647 269.198 70.5874 565.571 -54.7394 683.35" stroke="url(#paint14_linear)"/>
<path d="M3512.08 853.312C3491.48 832.743 3435.89 812.755 3414.3 832.146C3380.93 865.09 3419.64 936.428 3368.91 950.711C3179.41 826.86 3015.08 437.005 2713.67 409.353C2524.38 386.63 2609.04 745.768 2452.85 764.134C2126.12 811.018 1849.03 53.237 1547.13 204.121C1381.46 289.952 1508.2 671.148 1355.43 695.172C1264.47 708.353 1203.2 512.588 1113.1 544.037C998.424 604.136 863.968 690.26 757.85 616.246C548.061 536.267 524.786 224.174 255.345 261.055C64.7569 283.676 66.9531 571.432 -55.3009 685.644" stroke="url(#paint15_linear)"/>
<path d="M3511.8 854.643C3489.82 832.968 3430.18 811.778 3407.1 833.03C3371.39 868.803 3413.05 945.961 3359.28 962.624C3164.42 848.706 2999.81 452.239 2697.47 425.336C2511.59 403.226 2595.07 757.529 2441.26 776.137C2116.93 824.335 1842.49 66.2993 1542.64 217.304C1376.83 303.989 1502.91 687.508 1349.62 710.875C1257.87 723.694 1194.3 524.056 1103.43 557.66C985.621 621.969 846.348 703.477 737.608 625.832C532.076 546.564 510.167 242.426 247.55 277.226C61.6539 298.152 63.3234 577.293 -55.8578 687.937" stroke="url(#paint16_linear)"/>
<path d="M3511.52 855.975C3488.15 833.193 3424.47 810.801 3399.9 833.914C3361.85 872.515 3406.45 955.494 3349.65 974.537C3149.43 870.552 2984.53 467.475 2681.27 441.318C2498.79 419.823 2581.09 769.291 2429.67 788.14C2107.74 837.652 1835.95 79.362 1538.14 230.487C1372.19 318.027 1497.62 703.869 1343.81 726.578C1251.26 739.035 1185.39 535.525 1093.75 571.283C972.814 639.802 828.723 716.695 717.362 635.418C516.086 556.861 495.543 260.677 239.749 293.398C58.5459 312.629 59.6892 583.154 -56.4193 690.231" stroke="url(#paint17_linear)"/>
<path d="M3511.24 857.307C3486.49 833.418 3418.76 809.824 3392.7 834.798C3352.32 876.228 3399.85 965.027 3340.02 986.449C3134.43 892.398 2969.25 482.709 2665.06 457.3C2486 436.419 2567.12 781.053 2418.08 800.143C2098.55 850.969 1829.41 92.4244 1533.65 243.67C1367.56 332.065 1492.33 720.228 1338 742.281C1244.66 754.376 1176.49 546.993 1084.08 584.905C960.009 657.636 811.101 729.912 697.119 645.004C500.098 567.158 480.922 278.929 231.952 309.569C55.441 327.105 56.0579 589.015 -56.9778 692.524" stroke="url(#paint18_linear)"/>
<path d="M3510.96 858.639C3484.83 833.643 3413.05 808.848 3385.49 835.682C3342.78 879.94 3393.26 974.56 3330.4 998.363C3119.44 914.245 2953.97 497.945 2648.86 473.283C2473.21 453.016 2553.14 792.815 2406.49 812.147C2089.36 864.287 1822.87 105.487 1529.16 256.853C1362.93 346.103 1487.04 736.589 1332.18 757.984C1238.05 769.717 1167.59 558.462 1074.4 598.529C947.204 675.469 793.479 743.129 676.875 654.591C484.111 577.456 466.3 297.181 224.154 325.741C52.3356 341.583 52.4261 594.876 -57.5367 694.818" stroke="url(#paint19_linear)"/>
<path d="M3510.68 859.971C3483.16 833.868 3407.33 807.871 3378.29 836.566C3333.24 883.653 3386.66 984.093 3320.77 1010.28C3104.45 936.091 2938.69 513.18 2632.66 489.266C2460.42 469.613 2539.17 804.577 2394.9 824.15C2080.17 877.604 1816.33 118.55 1524.67 270.036C1358.29 360.141 1481.74 752.949 1326.37 773.687C1231.45 785.059 1158.69 569.93 1064.72 612.152C934.397 693.303 775.855 756.347 656.629 664.177C468.121 587.753 451.676 315.433 216.353 341.912C49.2278 356.059 48.7921 600.737 -58.098 697.112" stroke="url(#paint20_linear)"/>
<path d="M3510.4 861.302C3481.5 834.093 3401.62 806.894 3371.09 837.45C3323.71 887.365 3380.07 993.625 3311.14 1022.19C3089.46 957.937 2923.41 528.415 2616.45 505.248C2447.63 486.209 2525.19 816.339 2383.31 836.153C2070.98 890.921 1809.79 131.613 1520.18 283.219C1353.66 374.178 1476.46 769.309 1320.56 789.389C1224.84 800.399 1149.78 581.398 1055.05 625.774C921.593 711.136 758.234 769.564 636.386 673.763C452.134 598.05 437.055 333.684 208.556 358.084C46.1234 370.536 45.1609 606.598 -58.6564 699.405" stroke="url(#paint21_linear)"/>
<path d="M3510.12 862.634C3479.84 834.318 3395.91 805.918 3363.89 838.334C3314.17 891.078 3373.47 1003.16 3301.51 1034.1C3074.47 979.784 2908.14 543.65 2600.25 521.23C2434.84 502.806 2511.22 828.101 2371.72 848.156C2061.79 904.238 1803.24 144.675 1515.69 296.402C1349.02 388.216 1471.16 785.67 1314.74 805.092C1218.24 815.74 1140.88 592.867 1045.38 639.397C908.788 728.97 740.611 782.782 616.142 683.349C436.146 608.347 422.433 351.936 200.758 374.255C43.0177 385.013 41.5289 612.459 -59.2156 701.699" stroke="url(#paint22_linear)"/>
<path d="M3509.84 863.966C3478.18 834.543 3390.2 804.941 3356.68 839.218C3304.63 894.791 3366.87 1012.69 3291.88 1046.01C3059.47 1001.63 2892.86 558.885 2584.05 537.213C2422.05 519.402 2497.25 839.862 2360.13 860.16C2052.6 917.555 1796.7 157.738 1511.2 309.585C1344.39 402.254 1465.87 802.03 1308.93 820.795C1211.64 831.081 1131.98 604.335 1035.7 653.02C895.983 746.803 722.99 795.999 595.899 692.935C420.158 618.645 407.812 370.187 192.96 390.427C39.9124 399.49 37.8974 618.32 -59.7744 703.993" stroke="url(#paint23_linear)"/>
<path d="M3509.56 865.298C3476.51 834.768 3384.49 803.965 3349.48 840.102C3295.09 898.503 3360.28 1022.22 3282.25 1057.93C3044.48 1023.48 2877.58 574.121 2567.84 553.195C2409.25 535.999 2483.27 851.625 2348.53 872.163C2043.41 930.873 1790.16 170.801 1506.7 322.769C1339.76 416.292 1460.58 818.39 1303.12 836.499C1205.03 846.423 1123.07 615.804 1026.02 666.643C883.176 764.637 705.365 809.217 575.653 702.522C404.168 628.942 393.188 388.439 185.16 406.599C36.8048 413.967 34.2634 624.181 -60.3356 706.287" stroke="url(#paint24_linear)"/>
<path d="M3509.28 866.63C3474.85 834.993 3378.78 802.988 3342.28 840.985C3285.56 902.215 3353.68 1031.76 3272.62 1069.84C3029.49 1045.32 2862.3 589.355 2551.64 569.177C2396.46 552.595 2469.3 863.386 2336.94 884.166C2034.22 944.19 1783.62 183.863 1502.21 335.951C1335.12 430.33 1455.29 834.75 1297.3 852.201C1198.43 861.763 1114.17 627.272 1016.35 680.266C870.371 782.47 687.743 822.434 555.409 712.107C388.181 639.239 378.566 406.691 177.362 422.77C33.6997 428.443 30.6318 630.042 -60.8943 708.58" stroke="url(#paint25_linear)"/>
<path d="M3509 867.962C3473.19 835.219 3373.07 802.012 3335.08 841.87C3276.02 905.929 3347.08 1041.29 3263 1081.75C3014.5 1067.17 2847.02 604.591 2535.44 585.16C2383.67 569.193 2455.32 875.149 2325.35 896.17C2025.03 957.508 1777.08 196.926 1497.72 349.135C1330.49 444.368 1450 851.111 1291.49 867.904C1191.82 877.105 1105.27 638.741 1006.67 693.889C857.566 800.304 670.122 835.652 535.166 721.694C372.194 649.537 363.945 424.943 169.565 438.942C30.5948 442.92 27.0006 635.903 -61.4528 710.875" stroke="url(#paint26_linear)"/>
<path d="M3508.72 869.294C3471.52 835.444 3367.36 801.035 3327.87 842.754C3266.48 909.641 3340.49 1050.82 3253.37 1093.67C2999.5 1089.02 2831.74 619.826 2519.23 601.143C2370.88 585.789 2441.35 886.911 2313.76 908.173C2015.83 970.825 1770.53 209.989 1493.23 362.318C1325.85 458.406 1444.71 867.471 1285.68 883.608C1185.22 892.446 1096.37 650.21 996.997 707.512C844.759 818.137 652.497 848.87 514.92 731.28C356.203 659.834 349.321 443.195 161.764 455.114C27.4868 457.397 23.3662 641.764 -62.0144 713.169" stroke="url(#paint27_linear)"/>
<path d="M3508.44 870.625C3469.86 835.668 3361.65 800.058 3320.67 843.638C3256.94 913.353 3333.89 1060.36 3243.74 1105.58C2984.51 1110.86 2816.46 635.061 2503.03 617.125C2358.09 602.386 2427.37 898.672 2302.17 920.176C2006.64 984.142 1763.99 223.052 1488.73 375.501C1321.22 472.444 1439.42 883.831 1279.87 899.31C1178.61 907.787 1087.46 661.678 987.322 721.135C831.954 835.97 634.875 862.087 494.676 740.866C340.215 670.131 334.699 461.446 153.966 471.285C24.3812 471.874 19.7342 647.625 -62.5736 715.462" stroke="url(#paint28_linear)"/>
<path d="M3508.17 871.958C3468.2 835.894 3355.94 799.082 3313.47 844.522C3247.41 917.066 3327.3 1069.89 3234.11 1117.49C2969.52 1132.71 2801.19 650.296 2486.83 633.108C2345.3 618.983 2413.4 910.434 2290.58 932.18C1997.45 997.459 1757.45 236.115 1484.24 388.684C1316.59 486.482 1434.13 900.192 1274.05 915.013C1172.01 923.128 1078.56 673.147 977.649 734.758C819.15 853.804 617.254 875.305 474.434 750.453C324.229 680.428 320.079 479.698 146.17 487.457C21.2773 486.351 16.1039 653.486 -63.1311 717.756" stroke="url(#paint29_linear)"/>
<path d="M3507.89 873.29C3466.53 836.119 3350.23 798.106 3306.26 845.406C3237.87 920.779 3320.7 1079.42 3224.48 1129.4C2954.53 1154.56 2785.91 665.532 2470.63 649.091C2332.51 635.579 2399.43 922.196 2278.99 944.183C1988.26 1010.78 1750.91 249.178 1479.75 401.867C1311.95 500.52 1428.83 916.552 1268.24 930.716C1165.41 938.47 1069.66 684.615 967.974 748.381C806.345 871.638 599.632 888.522 454.19 760.039C308.241 690.726 305.457 497.95 138.371 503.628C18.1716 500.828 12.4718 659.348 -63.6904 720.05" stroke="url(#paint30_linear)"/>
<path d="M3507.6 874.621C3464.87 836.344 3344.52 797.129 3299.06 846.29C3228.33 924.491 3314.1 1088.95 3214.85 1141.32C2939.54 1176.4 2770.63 680.767 2454.42 665.073C2319.71 652.176 2385.45 933.958 2267.4 956.186C1979.07 1024.09 1744.37 262.24 1475.26 415.05C1307.32 514.557 1423.54 932.912 1262.43 946.419C1158.8 953.81 1060.76 696.084 958.297 762.004C793.537 889.471 582.007 901.74 433.943 769.625C292.251 701.023 290.833 516.201 130.571 519.8C15.0637 515.305 8.83757 665.208 -64.2519 722.343" stroke="url(#paint31_linear)"/>
<path d="M3507.33 875.953C3463.21 836.569 3338.81 796.153 3291.86 847.174C3218.8 928.204 3307.51 1098.49 3205.23 1153.23C2924.55 1198.25 2755.35 696.002 2438.22 681.056C2306.93 668.773 2371.48 945.72 2255.81 968.19C1969.88 1037.41 1737.83 275.303 1470.77 428.234C1302.68 528.596 1418.25 949.273 1256.62 962.122C1152.2 969.152 1051.86 707.553 948.625 775.627C780.736 907.305 564.389 914.957 413.703 779.212C276.267 711.321 276.214 534.453 122.777 535.972C11.9618 529.782 5.20923 671.07 -64.8074 724.638" stroke="url(#paint32_linear)"/>
<path d="M3507.05 877.285C3461.54 836.794 3333.1 795.176 3284.66 848.058C3209.26 931.917 3300.91 1108.02 3195.6 1165.14C2909.55 1220.09 2740.07 711.237 2422.02 697.038C2294.13 685.369 2357.51 957.482 2244.22 980.193C1960.69 1050.73 1731.29 288.366 1466.28 441.417C1298.05 542.634 1412.96 965.633 1250.8 977.825C1145.59 984.493 1042.95 719.021 938.949 789.25C767.929 925.138 546.764 928.175 393.457 788.798C260.277 721.618 261.59 552.705 114.976 552.143C8.85405 544.259 1.5751 676.931 -65.3687 726.931" stroke="url(#paint33_linear)"/>
<path d="M3506.77 878.617C3459.88 837.019 3327.39 794.199 3277.45 848.942C3199.72 935.63 3294.31 1117.55 3185.97 1177.06C2894.56 1241.94 2724.79 726.472 2405.81 713.021C2281.34 701.966 2343.53 969.244 2232.63 992.197C1951.5 1064.05 1724.75 301.428 1461.79 454.6C1293.42 556.671 1407.67 981.993 1244.99 993.528C1138.99 999.834 1034.05 730.49 929.274 802.873C755.123 942.972 529.142 941.392 373.213 798.384C244.289 731.915 246.968 570.957 107.178 568.315C5.74841 558.735 -2.05694 682.792 -65.928 729.225" stroke="url(#paint34_linear)"/>
<path d="M3506.49 879.949C3458.22 837.244 3321.67 793.223 3270.25 849.826C3190.18 939.342 3287.72 1127.09 3176.34 1188.97C2879.57 1263.79 2709.51 741.708 2389.61 729.003C2268.55 718.563 2329.56 981.006 2221.03 1004.2C1942.31 1077.36 1718.2 314.491 1457.29 467.783C1288.78 570.71 1402.38 998.354 1239.18 1009.23C1132.38 1015.18 1025.15 741.958 919.597 816.496C742.316 960.806 511.518 954.61 352.967 807.97C228.299 742.213 232.345 589.209 99.3781 584.487C2.64107 573.212 -5.69068 688.653 -66.489 731.519" stroke="url(#paint35_linear)"/>
<path d="M3506.21 881.281C3456.55 837.47 3315.96 792.247 3263.05 850.711C3180.65 943.055 3281.12 1136.62 3166.71 1200.88C2864.58 1285.63 2694.24 756.943 2373.41 744.986C2255.76 735.16 2315.58 992.768 2209.44 1016.2C1933.12 1090.68 1711.66 327.554 1452.8 480.966C1284.15 584.748 1397.09 1014.71 1233.36 1024.93C1125.78 1030.52 1016.24 753.427 909.922 830.119C729.511 978.639 493.896 967.828 332.724 817.557C212.311 752.51 217.723 607.461 91.5801 600.658C-0.464325 587.69 -9.32246 694.514 -67.0479 733.813" stroke="url(#paint36_linear)"/>
<path d="M3505.93 882.613C3454.89 837.694 3310.25 791.27 3255.84 851.594C3171.11 946.768 3274.52 1146.15 3157.08 1212.79C2849.58 1307.48 2678.96 772.178 2357.2 760.968C2242.97 751.756 2301.61 1004.53 2197.85 1028.21C1923.93 1104 1705.12 340.617 1448.31 494.149C1279.51 598.785 1391.79 1031.07 1227.55 1040.64C1119.17 1045.86 1007.34 764.895 900.246 843.742C716.705 996.473 476.272 981.045 312.479 827.143C196.322 762.807 203.1 625.712 83.7809 616.83C-3.5709 602.166 -12.9554 700.375 -67.6081 736.106" stroke="url(#paint37_linear)"/>
<path d="M3505.65 883.945C3453.22 837.92 3304.54 790.294 3248.64 852.479C3161.57 950.481 3267.93 1155.69 3147.45 1224.71C2834.59 1329.33 2663.68 787.414 2341 776.951C2230.18 768.353 2287.63 1016.29 2186.26 1040.21C1914.74 1117.32 1698.58 353.68 1443.82 507.333C1274.88 612.824 1386.5 1047.44 1221.74 1056.34C1112.57 1061.2 998.438 776.365 890.57 857.365C703.899 1014.31 458.649 994.263 292.234 836.73C180.333 773.105 188.477 643.965 75.9816 633.002C-6.67772 616.644 -16.5886 706.237 -68.1686 738.401" stroke="url(#paint38_linear)"/>
<path d="M3505.37 885.277C3451.56 838.145 3298.83 789.317 3241.44 853.363C3152.03 954.193 3261.33 1165.22 3137.82 1236.62C2819.6 1351.17 2648.4 802.649 2324.8 792.934C2217.38 784.95 2273.66 1028.05 2174.67 1052.21C1905.55 1130.63 1692.04 366.743 1439.33 520.516C1270.24 626.862 1381.21 1063.8 1215.92 1072.04C1105.97 1076.54 989.536 787.833 880.896 870.988C691.094 1032.14 441.028 1007.48 271.991 846.316C164.346 783.402 173.856 662.216 68.1841 649.174C-9.78259 631.121 -20.2199 712.098 -68.727 740.695" stroke="url(#paint39_linear)"/>
<path d="M3505.09 886.609C3449.9 838.37 3293.12 788.341 3234.23 854.247C3142.49 957.906 3254.73 1174.75 3128.19 1248.53C2804.61 1373.02 2633.12 817.884 2308.59 808.916C2204.59 801.547 2259.68 1039.82 2163.08 1064.22C1896.35 1143.95 1685.49 379.806 1434.83 533.699C1265.61 640.9 1375.92 1080.16 1210.11 1087.75C1099.36 1091.88 980.631 799.302 871.219 884.611C678.287 1049.97 423.403 1020.7 251.744 855.902C148.356 793.7 159.232 680.468 60.3837 665.345C-12.8905 645.597 -23.8541 717.959 -69.2885 742.989" stroke="url(#paint40_linear)"/>
<path d="M3504.81 887.941C3448.23 838.595 3287.41 787.364 3227.03 855.131C3132.96 961.619 3248.14 1184.29 3118.56 1260.45C2789.61 1394.87 2617.84 833.12 2292.39 824.899C2191.8 818.143 2245.71 1051.58 2151.49 1076.22C1887.16 1157.27 1678.95 392.869 1430.34 546.882C1260.97 654.938 1370.63 1096.52 1204.3 1103.45C1092.76 1107.22 971.729 810.77 861.544 898.234C665.482 1067.81 405.781 1033.92 231.501 865.488C132.368 803.997 144.61 698.72 52.586 681.517C-15.9956 660.074 -27.4857 723.82 -69.8472 745.282" stroke="url(#paint41_linear)"/>
<path d="M3504.53 889.273C3446.57 838.821 3281.7 786.388 3219.83 856.016C3123.42 965.332 3241.54 1193.82 3108.94 1272.36C2774.62 1416.71 2602.56 848.355 2276.19 840.882C2179.01 834.74 2231.74 1063.34 2139.9 1088.22C1877.97 1170.59 1672.41 405.932 1425.85 560.066C1256.34 668.976 1365.34 1112.88 1198.49 1119.15C1086.15 1122.56 962.827 822.239 851.87 911.858C652.677 1085.64 388.16 1047.13 211.258 875.075C116.381 814.295 129.989 716.972 44.7885 697.689C-19.1005 674.552 -31.1169 729.682 -70.4057 747.577" stroke="url(#paint42_linear)"/>
<path d="M3504.25 890.605C3444.91 839.046 3275.99 785.412 3212.63 856.9C3113.88 969.044 3234.94 1203.35 3099.31 1284.27C2759.63 1438.56 2587.28 863.59 2259.98 856.864C2166.22 851.337 2217.76 1075.1 2128.31 1100.23C1868.78 1183.9 1665.87 418.995 1421.36 573.249C1251.71 683.014 1360.05 1129.24 1192.67 1134.86C1079.55 1137.91 953.925 833.708 842.194 925.481C639.872 1103.47 370.537 1060.35 191.013 884.661C100.393 824.592 115.367 735.224 36.99 713.86C-22.2064 689.029 -34.7492 735.543 -70.9652 749.87" stroke="url(#paint43_linear)"/>
<path d="M3503.97 891.937C3443.24 839.271 3270.27 784.435 3205.42 857.784C3104.35 972.757 3228.35 1212.88 3089.68 1296.19C2744.64 1460.41 2572 878.826 2243.78 872.847C2153.43 867.934 2203.79 1086.86 2116.71 1112.23C1859.59 1197.22 1659.33 432.057 1416.87 586.432C1247.07 697.052 1354.75 1145.6 1186.86 1150.56C1072.94 1153.25 945.02 845.176 832.518 939.104C627.065 1121.31 352.913 1073.57 170.768 894.247C84.4032 834.889 100.743 753.476 29.1897 730.032C-25.3141 703.506 -38.3834 741.404 -71.5266 752.164" stroke="url(#paint44_linear)"/>
<path d="M3503.69 893.269C3441.58 839.497 3264.56 783.459 3198.22 858.668C3094.81 976.47 3221.75 1222.42 3080.05 1308.1C2729.64 1482.25 2556.73 894.061 2227.58 888.83C2140.64 884.531 2189.81 1098.63 2105.12 1124.23C1850.4 1210.54 1652.78 445.12 1412.37 599.616C1242.44 711.09 1349.46 1161.96 1181.05 1166.26C1066.34 1168.59 936.118 856.645 822.843 952.727C614.26 1139.14 335.291 1086.79 150.524 903.834C68.4157 845.187 86.1213 771.728 21.392 746.204C-28.4192 717.983 -42.0149 747.265 -72.0853 754.458" stroke="url(#paint45_linear)"/>
<path d="M3503.41 894.601C3439.92 839.722 3258.85 782.482 3191.02 859.552C3085.27 980.183 3215.16 1231.95 3070.42 1320.01C2714.65 1504.1 2541.45 909.296 2211.38 904.812C2127.85 901.128 2175.84 1110.39 2093.53 1136.24C1841.21 1223.86 1646.24 458.183 1407.88 612.799C1237.8 725.128 1344.17 1178.32 1175.23 1181.97C1059.73 1183.93 927.217 868.114 813.169 966.35C601.456 1156.98 317.67 1100 130.282 913.42C52.4292 855.484 71.5008 789.979 13.5953 762.376C-31.5234 732.46 -45.6454 753.127 -72.643 756.752" stroke="url(#paint46_linear)"/>
<path d="M3503.13 895.933C3438.25 839.947 3253.14 781.506 3183.81 860.436C3075.73 983.895 3208.56 1241.48 3060.79 1331.93C2699.66 1525.95 2526.17 924.532 2195.17 920.795C2115.05 917.724 2161.86 1122.15 2081.94 1148.24C1832.02 1237.17 1639.7 471.246 1403.39 625.982C1233.17 739.166 1338.88 1194.68 1169.42 1197.67C1053.13 1199.27 918.313 879.582 803.492 979.973C588.649 1174.81 300.045 1113.22 110.035 923.006C36.4386 865.782 56.8767 808.231 5.79484 778.547C-34.6313 746.936 -49.2797 758.988 -73.2045 759.046" stroke="url(#paint47_linear)"/>
<path d="M3502.85 897.265C3436.59 840.172 3247.43 780.529 3176.61 861.32C3066.2 987.608 3201.96 1251.02 3051.17 1343.84C2684.67 1547.79 2510.89 939.767 2178.97 936.778C2102.26 934.321 2147.89 1133.91 2070.35 1160.25C1822.83 1250.49 1633.16 484.309 1398.9 639.165C1228.54 753.204 1333.59 1211.04 1163.61 1213.37C1046.53 1214.61 909.413 891.051 793.82 993.596C575.846 1192.64 282.425 1126.44 89.7932 932.593C20.4528 876.079 42.257 826.483 -2.00117 794.719C-37.7347 761.414 -52.9095 764.849 -73.7616 761.34" stroke="url(#paint48_linear)"/>
<path d="M3502.57 898.597C3434.93 840.397 3241.72 779.553 3169.41 862.204C3056.66 991.321 3195.37 1260.55 3041.54 1355.75C2669.68 1569.64 2495.61 955.002 2162.76 952.76C2089.47 950.918 2133.92 1145.67 2058.76 1172.25C1813.64 1263.81 1626.62 497.372 1394.41 652.348C1223.9 767.242 1328.3 1227.4 1157.79 1229.07C1039.92 1229.95 900.508 902.52 784.143 1007.22C563.039 1210.48 264.801 1139.66 69.5475 942.179C4.46305 886.376 27.6333 844.735 -9.80109 810.891C-40.842 775.89 -56.5433 770.71 -74.3225 763.634" stroke="url(#paint49_linear)"/>
<path d="M3502.29 899.929C3433.26 840.623 3236.01 778.577 3162.21 863.089C3047.12 995.034 3188.77 1270.08 3031.91 1367.66C2654.69 1591.49 2480.33 970.238 2146.56 968.743C2076.68 967.515 2119.94 1157.44 2047.17 1184.25C1804.45 1277.12 1620.08 510.435 1389.92 665.532C1219.27 781.28 1323.01 1243.76 1151.98 1244.78C1033.32 1245.29 891.606 913.988 774.468 1020.84C550.234 1228.31 247.179 1152.88 49.3038 951.766C-11.5247 896.674 13.0112 862.987 -17.5995 827.063C-43.9478 790.368 -60.1754 776.571 -74.8819 765.928" stroke="url(#paint50_linear)"/>
<path d="M3502.01 901.261C3431.6 840.848 3230.3 777.6 3155.01 863.973C3037.59 998.746 3182.17 1279.62 3022.28 1379.58C2639.69 1613.33 2465.06 985.473 2130.36 984.726C2063.89 984.111 2105.97 1169.2 2035.58 1196.26C1795.26 1290.44 1613.54 523.498 1385.43 678.715C1214.63 795.318 1317.72 1260.12 1146.17 1260.48C1026.71 1260.64 882.704 925.457 764.793 1034.47C537.429 1246.14 229.557 1166.09 29.0603 961.352C-27.5122 906.971 -1.61021 881.239 -25.3972 843.234C-47.053 804.845 -63.8069 782.433 -75.4406 768.222" stroke="url(#paint51_linear)"/>
</g>
<g opacity="0.5">
<path d="M-71.002 1261.55C-69.6344 1267.86 -73.3841 1269.43 -64.1644 1293.11C-0.493934 1456.68 88.7234 1641.64 249.262 1665.36C381.189 1684.84 324.858 1419.3 430.347 1409.98C630.878 1392.25 805.719 1861.48 989.705 1768.66C1080.79 1722.7 1005.14 1505.77 1086.09 1485.1C1130.55 1473.75 1146.74 1561.81 1190.86 1561.01C1230.29 1560.3 1267.59 1466.51 1306.22 1480.93C1456.13 1536.88 1479.72 1800.33 1682.84 1759.26C1825.46 1730.43 1820.14 1476.36 1912.12 1374.24" stroke="url(#paint52_linear)" stroke-linecap="round" stroke-linejoin="round"/>
<path d="M-63.0615 1219.29C-23.1079 1257.56 91.1712 1297.66 133.905 1242.77C200.549 1157.16 118.448 978.8 209.118 915.13C425.018 763.523 522.366 1158.25 709.144 1158.25C744.237 1158.25 721.477 1046.11 759.323 1029.12C891.729 969.71 991.387 1447.01 1117.19 1350.37C1212.32 1277.3 1155.32 986.681 1251.08 986.866C1318 986.995 1399.42 1197.93 1465.47 1128.77C1593.74 994.46 1767.76 1047.13 1880.8 1176.77C1909.91 1210.16 1894.74 1221.22 1904.18 1246.16C1913.62 1271.1 1923.23 1290.4 1928 1301.46" stroke="url(#paint53_linear)" stroke-linecap="round" stroke-linejoin="round"/>
<path d="M-70.8457 1260.72C-69.3919 1264.56 -67.735 1267.28 -66.5187 1270.27C-64.8335 1272.65 -65.1027 1275.34 -58.8053 1285.7C7.85 1443.09 97.2268 1632.17 258.279 1655.41C388.308 1674.52 332.635 1411.98 436.798 1402.51C635.993 1383.97 809.36 1853.35 992.206 1760.45C1083.37 1713.97 1008.08 1495.6 1089.33 1475.33C1134.23 1464.21 1151.7 1554.68 1196.25 1552.54C1237.42 1549.2 1277.4 1458.29 1317.49 1474.97C1465.03 1530.47 1487.86 1788.97 1687.18 1749.2C1827.19 1721.42 1822.16 1472.72 1912.43 1372.81" stroke="url(#paint54_linear)"/>
<path d="M-70.6914 1259.89C-68.4677 1264.43 -64.5583 1267.89 -62.5116 1269.72C-59.5272 1270.34 -61.433 1269.41 -53.4482 1278.29C16.192 1429.5 105.728 1622.69 267.295 1645.47C395.426 1664.19 340.411 1404.67 443.247 1395.04C641.106 1375.68 812.999 1845.22 994.704 1752.25C1085.95 1705.24 1011.03 1485.42 1092.56 1465.57C1137.9 1454.66 1156.65 1547.54 1201.63 1544.06C1244.54 1538.11 1287.2 1450.07 1328.75 1469C1473.92 1524.07 1496 1777.62 1691.52 1739.14C1828.92 1712.42 1824.18 1469.07 1912.74 1371.39" stroke="url(#paint55_linear)"/>
<path d="M-70.5352 1259.06C-67.5414 1264.29 -61.3796 1268.5 -58.5026 1269.17C-54.219 1268.03 -57.7615 1263.48 -48.0892 1270.88C24.5359 1415.91 114.232 1613.21 276.313 1635.53C402.545 1653.87 348.188 1397.35 449.698 1387.57C646.221 1367.4 816.64 1837.1 997.204 1744.05C1088.53 1696.5 1013.97 1475.24 1095.8 1455.8C1141.58 1445.12 1161.6 1540.41 1207.02 1535.59C1251.67 1527.01 1297.01 1441.84 1340.02 1463.04C1482.82 1517.66 1504.14 1766.26 1695.86 1729.08C1830.65 1703.41 1826.2 1465.43 1913.05 1369.96" stroke="url(#paint56_linear)"/>
<path d="M-70.3789 1258.23C-66.6152 1264.15 -58.2009 1269.11 -54.4935 1268.62C-48.9108 1265.72 -54.0899 1257.55 -42.7302 1263.47C32.8798 1402.32 122.735 1603.73 285.331 1625.58C409.664 1643.54 355.966 1390.03 456.149 1380.11C651.337 1359.11 820.281 1828.97 999.705 1735.85C1091.11 1687.77 1016.92 1465.06 1099.03 1446.03C1145.25 1435.58 1166.56 1533.27 1212.4 1527.11C1258.8 1515.92 1306.82 1433.62 1351.28 1457.07C1491.72 1511.26 1512.27 1754.91 1700.2 1719.02C1832.38 1694.41 1828.23 1461.78 1913.36 1368.53" stroke="url(#paint57_linear)"/>
<path d="M-70.2246 1257.41C-65.6909 1264.01 -55.0242 1269.71 -50.4864 1268.07C-43.6045 1263.41 -50.4203 1251.62 -37.3731 1256.06C41.2218 1388.73 131.236 1594.25 294.347 1615.64C416.781 1633.22 363.741 1382.71 462.599 1372.64C656.45 1350.83 823.921 1820.84 1002.2 1727.65C1093.68 1679.04 1019.86 1454.88 1102.27 1436.26C1148.93 1426.03 1171.51 1526.14 1217.78 1518.64C1265.92 1504.82 1316.62 1425.4 1362.55 1451.11C1500.62 1504.85 1520.41 1743.55 1704.54 1708.96C1834.11 1685.4 1830.25 1458.13 1913.67 1367.1" stroke="url(#paint58_linear)"/>
<path d="M-70.0693 1256.58C-64.7656 1263.87 -51.8465 1270.32 -46.4784 1267.52C-38.2973 1261.1 -46.7497 1245.69 -32.015 1248.64C49.5648 1375.14 139.739 1584.77 303.364 1605.7C423.899 1622.89 371.518 1375.4 469.049 1365.17C661.565 1342.54 827.561 1812.72 1004.7 1719.45C1096.26 1670.3 1022.81 1444.71 1105.5 1426.49C1152.6 1416.49 1176.47 1519.01 1223.17 1510.16C1273.05 1493.73 1326.43 1417.17 1373.82 1445.15C1509.51 1498.44 1528.55 1732.2 1708.88 1698.9C1835.83 1676.39 1832.27 1454.49 1913.98 1365.68" stroke="url(#paint59_linear)"/>
<path d="M-69.9121 1255.75C-63.8384 1263.73 -48.6668 1270.93 -42.4684 1266.97C-32.9881 1258.79 -43.0771 1239.75 -26.655 1241.23C57.9097 1361.55 148.243 1575.3 312.383 1595.75C431.019 1612.57 379.296 1368.08 475.501 1357.7C666.681 1334.26 831.203 1804.59 1007.2 1711.24C1098.84 1661.57 1025.75 1434.53 1108.74 1416.72C1156.28 1406.94 1181.42 1511.87 1228.55 1501.69C1280.18 1482.63 1336.24 1408.95 1385.08 1439.18C1518.41 1492.04 1536.69 1720.84 1713.22 1688.84C1837.56 1667.39 1834.29 1450.84 1914.3 1364.25" stroke="url(#paint60_linear)"/>
<path d="M-69.7568 1254.92C-62.9131 1263.59 -45.4891 1271.54 -38.4603 1266.42C-27.6808 1256.48 -39.4065 1233.82 -21.2969 1233.82C66.2526 1347.95 156.745 1565.82 321.4 1585.81C438.137 1602.24 387.072 1360.76 481.951 1350.24C671.795 1325.97 834.843 1796.46 1009.7 1703.04C1101.42 1652.84 1028.7 1424.35 1111.97 1406.95C1159.95 1397.4 1186.38 1504.74 1233.94 1493.21C1287.3 1471.54 1346.05 1400.73 1396.35 1433.22C1527.31 1485.63 1544.82 1709.49 1717.56 1678.78C1839.29 1658.38 1836.31 1447.19 1914.61 1362.82" stroke="url(#paint61_linear)"/>
<path d="M-69.6016 1254.09C-61.9878 1263.45 -42.3114 1272.14 -34.4522 1265.87C-22.3736 1254.17 -35.7359 1227.89 -15.9389 1226.41C74.5956 1334.36 165.248 1556.34 330.416 1575.87C445.256 1591.91 394.849 1353.44 488.401 1342.77C676.909 1317.69 838.483 1788.34 1012.2 1694.84C1104 1644.1 1031.64 1414.17 1115.21 1397.18C1163.63 1387.85 1191.33 1497.6 1239.32 1484.74C1294.43 1460.44 1355.85 1392.5 1407.61 1427.26C1536.21 1479.23 1552.96 1698.13 1721.9 1668.72C1841.02 1649.37 1838.33 1443.55 1914.92 1361.4" stroke="url(#paint62_linear)"/>
<path d="M-69.4453 1253.26C-61.0616 1263.31 -39.1327 1272.75 -30.4432 1265.32C-17.0654 1251.86 -32.0644 1221.96 -10.5798 1219C82.9395 1320.77 173.751 1546.86 339.434 1565.92C452.375 1581.59 402.626 1346.13 494.852 1335.3C682.025 1309.4 842.124 1780.21 1014.7 1686.64C1106.58 1635.37 1034.59 1403.99 1118.44 1387.41C1167.3 1378.31 1196.29 1490.47 1244.71 1476.26C1301.56 1449.35 1365.66 1384.28 1418.88 1421.29C1545.11 1472.82 1561.1 1686.78 1726.24 1658.66C1842.75 1640.37 1840.35 1439.9 1915.23 1359.97" stroke="url(#paint63_linear)"/>
<path d="M-69.2881 1252.44C-60.1344 1263.17 -35.953 1273.36 -26.4332 1264.77C-11.7562 1249.55 -28.3918 1216.03 -5.21982 1211.59C91.2844 1307.18 182.255 1537.38 348.453 1555.98C459.495 1571.26 410.404 1338.81 501.304 1327.83C687.141 1301.12 845.766 1772.08 1017.2 1678.44C1109.16 1626.64 1037.53 1393.81 1121.68 1377.64C1170.98 1368.77 1201.24 1483.33 1250.09 1467.79C1308.69 1438.26 1375.47 1376.06 1430.15 1415.33C1554 1466.41 1569.24 1675.42 1730.58 1648.6C1844.48 1631.36 1842.38 1436.26 1915.54 1358.54" stroke="url(#paint64_linear)"/>
<path d="M-69.1338 1251.61C-59.2101 1263.03 -32.7763 1273.97 -22.4261 1264.22C-6.44989 1247.24 -24.7222 1210.1 0.137269 1204.18C99.6264 1293.59 190.757 1527.91 357.469 1546.04C466.612 1560.94 418.18 1331.49 507.753 1320.37C692.254 1292.83 849.405 1763.96 1019.7 1670.24C1111.74 1617.9 1040.48 1383.64 1124.91 1367.87C1174.66 1359.22 1206.19 1476.2 1255.48 1459.31C1315.81 1427.16 1385.28 1367.84 1441.41 1409.36C1562.9 1460.01 1577.37 1664.07 1734.92 1638.54C1846.21 1622.35 1844.4 1432.61 1915.85 1357.12" stroke="url(#paint65_linear)"/>
<path d="M-68.9775 1250.78C-58.2838 1262.89 -29.5976 1274.57 -18.4171 1263.67C-1.14166 1244.93 -21.0506 1204.17 5.49631 1196.77C107.97 1280 199.26 1518.43 366.487 1536.1C473.731 1550.61 425.957 1324.17 514.204 1312.9C697.37 1284.55 853.046 1755.83 1022.2 1662.04C1114.32 1609.17 1043.42 1373.46 1128.15 1358.1C1178.33 1349.68 1211.15 1469.06 1260.86 1450.84C1322.94 1416.07 1395.08 1359.61 1452.68 1403.4C1571.8 1453.6 1585.51 1652.71 1739.26 1628.47C1847.93 1613.35 1846.42 1428.96 1916.17 1355.69" stroke="url(#paint66_linear)"/>
<path d="M-68.8213 1249.95C-57.3576 1262.75 -26.4189 1275.18 -14.408 1263.12C4.16657 1242.62 -17.379 1198.24 10.8554 1189.35C116.314 1266.41 207.764 1508.95 375.505 1526.15C480.85 1540.29 433.735 1316.86 520.655 1305.43C702.485 1276.26 856.688 1747.7 1024.7 1653.83C1116.9 1600.44 1046.37 1363.28 1131.38 1348.33C1182.01 1340.13 1216.1 1461.93 1266.25 1442.36C1330.06 1404.97 1404.89 1351.39 1463.95 1397.44C1580.7 1447.19 1593.65 1641.36 1743.6 1618.41C1849.66 1604.34 1848.44 1425.32 1916.48 1354.26" stroke="url(#paint67_linear)"/>
<path d="M-68.667 1249.12C-56.4333 1262.61 -23.2421 1275.79 -10.4009 1262.57C9.47283 1240.31 -13.7094 1192.31 16.2124 1181.94C124.656 1252.82 216.265 1499.47 384.521 1516.21C487.968 1529.96 441.51 1309.54 527.104 1297.96C707.598 1267.98 860.327 1739.58 1027.2 1645.63C1119.48 1591.7 1049.31 1353.1 1134.62 1338.56C1185.68 1330.59 1221.06 1454.79 1271.63 1433.89C1337.19 1393.88 1414.7 1343.17 1475.21 1391.47C1589.59 1440.79 1601.79 1630 1747.94 1608.35C1851.39 1595.33 1850.46 1421.67 1916.79 1352.84" stroke="url(#paint68_linear)"/>
<path d="M-68.5107 1248.29C-55.507 1262.47 -20.0635 1276.4 -6.39189 1262.02C14.7811 1238 -10.0379 1186.38 21.5715 1174.53C133 1239.22 224.768 1489.99 393.539 1506.27C495.087 1519.64 449.288 1302.22 533.555 1290.5C712.714 1259.69 863.968 1731.45 1029.7 1637.43C1122.06 1582.97 1052.25 1342.92 1137.85 1328.8C1189.36 1321.05 1226.01 1447.66 1277.01 1425.41C1344.32 1382.78 1424.51 1334.94 1486.48 1385.51C1598.49 1434.38 1609.92 1618.65 1752.28 1598.29C1853.12 1586.33 1852.48 1418.02 1917.1 1351.41" stroke="url(#paint69_linear)"/>
<path d="M-68.3555 1247.46C-54.5818 1262.33 -16.8857 1277 -2.38383 1261.47C20.0883 1235.69 -6.36726 1180.45 26.9295 1167.12C141.343 1225.63 233.271 1480.51 402.555 1496.32C502.205 1509.31 457.064 1294.9 540.006 1283.03C717.828 1251.41 867.608 1723.32 1032.2 1629.23C1124.63 1574.24 1055.2 1332.75 1141.09 1319.03C1193.03 1311.5 1230.97 1440.52 1282.4 1416.93C1351.44 1371.69 1434.31 1326.72 1497.74 1379.55C1607.39 1427.98 1618.06 1607.29 1756.62 1588.23C1854.85 1577.32 1854.5 1414.38 1917.41 1349.98" stroke="url(#paint70_linear)"/>
<path d="M-68.1992 1246.64C-53.6555 1262.19 -13.707 1277.61 1.62521 1260.92C25.3965 1233.38 -2.69568 1174.52 32.2886 1159.71C149.687 1212.04 241.774 1471.04 411.573 1486.38C509.324 1498.99 464.841 1287.59 546.457 1275.56C722.943 1243.12 871.249 1715.2 1034.7 1621.03C1127.21 1565.5 1058.14 1322.57 1144.32 1309.26C1196.71 1301.96 1235.92 1433.39 1287.78 1408.46C1358.57 1360.59 1444.12 1318.5 1509.01 1373.58C1616.29 1421.57 1626.2 1595.94 1760.96 1578.17C1856.58 1568.31 1856.53 1410.73 1917.72 1348.55" stroke="url(#paint71_linear)"/>
<path d="M-68.043 1245.81C-52.7293 1262.05 -10.5284 1278.22 5.63424 1260.37C30.7048 1231.07 0.975895 1168.59 37.6476 1152.3C158.031 1198.45 250.277 1461.56 420.591 1476.44C516.443 1488.66 472.619 1280.27 552.908 1268.09C728.058 1234.84 874.89 1707.07 1037.2 1612.83C1129.79 1556.77 1061.09 1312.39 1147.56 1299.49C1200.38 1292.41 1240.88 1426.25 1293.17 1399.98C1365.7 1349.5 1453.93 1310.28 1520.28 1367.62C1625.19 1415.16 1634.34 1584.58 1765.3 1568.11C1858.31 1559.31 1858.55 1407.09 1918.03 1347.13" stroke="url(#paint72_linear)"/>
<path d="M-67.8877 1244.98C-51.804 1261.91 -7.35064 1278.83 9.64231 1259.82C36.012 1228.76 4.64649 1162.66 43.0057 1144.89C166.374 1184.86 258.78 1452.08 429.608 1466.49C523.561 1478.34 480.395 1272.95 559.358 1260.62C733.173 1226.55 878.53 1698.94 1039.7 1604.62C1132.37 1548.04 1064.03 1302.21 1150.79 1289.72C1204.06 1282.87 1245.83 1419.12 1298.55 1391.51C1372.82 1338.4 1463.73 1302.05 1531.54 1361.65C1634.08 1408.76 1642.47 1573.23 1769.64 1558.05C1860.03 1550.3 1860.57 1403.44 1918.35 1345.7" stroke="url(#paint73_linear)"/>
<path d="M-67.7324 1244.15C-50.8787 1261.77 -4.17293 1279.44 13.6504 1259.27C41.3193 1226.45 8.31708 1156.73 48.3637 1137.47C174.717 1171.27 267.282 1442.6 438.625 1456.55C530.679 1468.01 488.172 1265.63 565.808 1253.16C738.287 1218.27 882.17 1690.82 1042.2 1596.42C1134.95 1539.3 1066.98 1292.03 1154.03 1279.95C1207.73 1273.32 1250.79 1411.98 1303.94 1383.03C1379.95 1327.31 1473.54 1293.83 1542.81 1355.69C1642.98 1402.35 1650.61 1561.87 1773.98 1547.99C1861.76 1541.29 1862.59 1399.79 1918.66 1344.27" stroke="url(#paint74_linear)"/>
<path d="M-67.5771 1243.32C-49.9535 1261.63 -0.99521 1280.04 17.6584 1258.72C46.6265 1224.14 11.9877 1150.79 53.7218 1130.06C183.06 1157.68 275.785 1433.12 447.642 1446.61C537.798 1457.69 495.948 1258.32 572.258 1245.69C743.401 1209.98 885.811 1682.69 1044.7 1588.22C1137.53 1530.57 1069.92 1281.85 1157.26 1270.18C1211.41 1263.78 1255.74 1404.85 1309.32 1374.56C1387.07 1316.21 1483.35 1285.61 1554.08 1349.73C1651.88 1395.94 1658.75 1550.52 1778.32 1537.93C1863.49 1532.29 1864.61 1396.15 1918.97 1342.85" stroke="url(#paint75_linear)"/>
<path d="M-67.4209 1242.49C-49.0272 1261.49 2.18348 1280.65 21.6675 1258.17C51.9347 1221.83 15.6593 1144.86 59.0809 1122.65C191.404 1144.08 284.288 1423.64 456.66 1436.66C544.917 1447.36 503.725 1251 578.709 1238.22C748.517 1201.7 889.452 1674.56 1047.2 1580.02C1140.11 1521.83 1072.87 1271.68 1160.5 1260.41C1215.09 1254.24 1260.69 1397.71 1314.7 1366.08C1394.2 1305.12 1493.16 1277.38 1565.34 1343.76C1660.78 1389.54 1666.89 1539.16 1782.66 1527.87C1865.22 1523.28 1866.63 1392.5 1919.28 1341.42" stroke="url(#paint76_linear)"/>
<path d="M-67.2656 1241.66C-48.1019 1261.35 5.3612 1281.26 25.6755 1257.62C57.242 1219.52 19.3299 1138.93 64.4389 1115.24C199.747 1130.49 292.79 1414.17 465.677 1426.72C552.035 1437.04 511.502 1243.68 585.159 1230.75C753.631 1193.41 893.092 1666.44 1049.7 1571.82C1142.69 1513.1 1075.81 1261.5 1163.73 1250.64C1218.76 1244.69 1265.65 1390.58 1320.09 1357.61C1401.33 1294.02 1502.96 1269.16 1576.61 1337.8C1669.67 1383.13 1675.02 1527.81 1787 1517.8C1866.95 1514.28 1868.65 1388.85 1919.59 1339.99" stroke="url(#paint77_linear)"/>
<path d="M-67.1094 1240.84C-47.1757 1261.21 8.53989 1281.87 29.6846 1257.07C62.5502 1217.21 23.0014 1133 69.798 1107.83C208.091 1116.9 301.294 1404.69 474.694 1416.78C559.154 1426.71 519.279 1236.36 591.61 1223.29C758.746 1185.13 896.733 1658.31 1052.2 1563.62C1145.27 1504.37 1078.76 1251.32 1166.97 1240.87C1222.44 1235.15 1270.6 1383.44 1325.47 1349.13C1408.45 1282.93 1512.77 1260.94 1587.88 1331.83C1678.57 1376.73 1683.16 1516.45 1791.34 1507.74C1868.68 1505.27 1870.68 1385.21 1919.9 1338.56" stroke="url(#paint78_linear)"/>
<path d="M-66.9531 1240.01C-46.2494 1261.07 11.7186 1282.47 33.6936 1256.52C67.8584 1214.91 26.673 1127.07 75.157 1100.42C216.435 1103.31 309.797 1395.21 483.712 1406.83C566.273 1416.38 527.057 1229.05 598.061 1215.82C763.862 1176.84 900.374 1650.18 1054.7 1555.41C1147.85 1495.63 1081.7 1241.14 1170.2 1231.1C1226.11 1225.6 1275.56 1376.31 1330.86 1340.66C1415.58 1271.83 1522.58 1252.71 1599.14 1325.87C1687.47 1370.32 1691.3 1505.1 1795.68 1497.68C1870.41 1496.26 1872.7 1381.56 1920.21 1337.14" stroke="url(#paint79_linear)"/>
<path d="M-66.7979 1239.18C-45.3242 1260.93 14.8963 1283.08 37.7017 1255.97C73.1657 1212.6 30.3436 1121.14 80.5151 1093.01C224.778 1089.72 318.299 1385.73 492.729 1396.89C573.391 1406.06 534.833 1221.73 604.511 1208.35C768.976 1168.56 904.014 1642.06 1057.2 1547.21C1150.43 1486.9 1084.65 1230.96 1173.44 1221.33C1229.79 1216.06 1280.51 1369.17 1336.24 1332.18C1422.71 1260.74 1532.39 1244.49 1610.41 1319.91C1696.37 1363.91 1699.44 1493.74 1800.02 1487.62C1872.13 1487.26 1874.72 1377.91 1920.53 1335.71" stroke="url(#paint80_linear)"/>
<path d="M-66.6426 1238.35C-44.3989 1260.79 18.074 1283.69 41.7097 1255.42C78.4729 1210.29 34.0142 1115.21 85.8731 1085.59C233.121 1076.13 326.802 1376.25 501.746 1386.95C580.51 1395.73 542.609 1214.41 610.961 1200.88C774.09 1160.27 907.654 1633.93 1059.7 1539.01C1153 1478.17 1087.59 1220.78 1176.67 1211.56C1233.46 1206.51 1285.47 1362.04 1341.63 1323.71C1429.83 1249.64 1542.19 1236.27 1621.67 1313.94C1705.26 1357.51 1707.57 1482.39 1804.36 1477.56C1873.86 1478.25 1876.74 1374.27 1920.84 1334.28" stroke="url(#paint81_linear)"/>
<path d="M-66.4873 1237.52C-43.4736 1260.65 21.2517 1284.3 45.7178 1254.87C83.7802 1207.98 37.6848 1109.28 91.2312 1078.18C241.463 1062.54 335.304 1366.77 510.763 1377C587.628 1385.41 550.386 1207.09 617.411 1193.42C779.205 1151.99 911.295 1625.8 1062.2 1530.81C1155.58 1469.43 1090.54 1210.61 1179.91 1201.79C1237.14 1196.97 1290.42 1354.9 1347.01 1315.23C1436.96 1238.55 1552 1228.04 1632.94 1307.98C1714.16 1351.1 1715.71 1471.03 1808.7 1467.5C1875.59 1469.24 1878.76 1370.62 1921.15 1332.86" stroke="url(#paint82_linear)"/>
<path d="M-66.3311 1236.69C-42.5474 1260.51 24.4304 1284.9 49.7268 1254.32C89.0884 1205.67 41.3564 1103.35 96.5902 1070.77C249.807 1048.94 343.808 1357.3 519.781 1367.06C594.747 1375.08 558.163 1199.78 623.863 1185.95C784.32 1143.7 914.936 1617.68 1064.7 1522.61C1158.16 1460.7 1093.48 1200.43 1183.14 1192.02C1240.81 1187.43 1295.38 1347.77 1352.4 1306.76C1444.09 1227.45 1561.81 1219.82 1644.21 1302.01C1723.06 1344.69 1723.85 1459.68 1813.04 1457.44C1877.32 1460.24 1880.78 1366.98 1921.46 1331.43" stroke="url(#paint83_linear)"/>
<path d="M-66.1768 1235.86C-41.6231 1260.37 27.6072 1285.51 53.7339 1253.77C94.3947 1203.36 45.026 1097.42 101.947 1063.36C258.149 1035.35 352.309 1347.82 528.797 1357.12C601.864 1364.76 565.939 1192.46 630.312 1178.48C789.433 1135.41 918.575 1609.55 1067.2 1514.41C1160.74 1451.97 1096.42 1190.25 1186.38 1182.25C1244.49 1177.88 1300.33 1340.63 1357.78 1298.28C1451.21 1216.36 1571.61 1211.6 1655.47 1296.05C1731.96 1338.29 1731.99 1448.32 1817.38 1447.38C1879.05 1451.23 1882.8 1363.33 1921.77 1330" stroke="url(#paint84_linear)"/>
<path d="M-66.0195 1235.03C-40.6959 1260.23 30.7868 1286.12 57.7439 1253.22C99.7038 1201.05 48.6985 1091.49 107.307 1055.95C266.494 1021.76 360.813 1338.34 537.815 1347.17C608.984 1354.43 573.717 1185.14 636.764 1171.01C794.549 1127.13 922.217 1601.42 1069.7 1506.2C1163.32 1443.23 1099.37 1180.07 1189.61 1172.49C1248.16 1168.34 1305.28 1333.5 1363.16 1289.8C1458.34 1205.26 1581.42 1203.37 1666.74 1290.09C1740.86 1331.88 1740.12 1436.97 1821.72 1437.32C1880.78 1442.22 1884.83 1359.68 1922.08 1328.58" stroke="url(#paint85_linear)"/>
<path d="M-65.8643 1234.21C-39.7706 1260.09 33.9645 1286.73 61.752 1252.67C105.011 1198.74 52.3691 1085.56 112.665 1048.54C274.837 1008.17 369.316 1328.86 546.832 1337.23C616.102 1344.11 581.493 1177.82 643.214 1163.54C799.664 1118.84 925.857 1593.3 1072.2 1498C1165.9 1434.5 1102.31 1169.89 1192.85 1162.72C1251.84 1158.79 1310.24 1326.36 1368.55 1281.33C1465.47 1194.17 1591.23 1195.15 1678 1284.12C1749.75 1325.47 1748.26 1425.61 1826.06 1427.26C1882.5 1433.22 1886.85 1356.04 1922.39 1327.15" stroke="url(#paint86_linear)"/>
<path d="M-65.708 1233.38C-38.8443 1259.95 37.1432 1287.33 65.761 1252.12C110.319 1196.43 56.0407 1079.62 118.024 1041.13C283.181 994.579 377.819 1319.38 555.85 1327.29C623.221 1333.78 589.271 1170.51 649.665 1156.08C804.779 1110.56 929.498 1585.17 1074.7 1489.8C1168.48 1425.77 1105.26 1159.71 1196.08 1152.95C1255.52 1149.25 1315.19 1319.23 1373.93 1272.85C1472.59 1183.07 1601.04 1186.93 1689.27 1278.16C1758.65 1319.07 1756.4 1414.26 1830.4 1417.2C1884.23 1424.21 1888.87 1352.39 1922.7 1325.72" stroke="url(#paint87_linear)"/>
<path d="M-65.5527 1232.55C-37.9191 1259.81 40.3209 1287.94 69.7691 1251.57C115.627 1194.12 59.7113 1073.69 123.382 1033.71C291.524 980.987 386.321 1309.9 564.867 1317.34C630.34 1323.46 597.047 1163.19 656.115 1148.61C809.893 1102.27 933.138 1577.04 1077.2 1481.6C1171.06 1417.03 1108.2 1149.54 1199.32 1143.18C1259.19 1139.7 1320.15 1312.09 1379.32 1264.38C1479.72 1171.98 1610.84 1178.71 1700.54 1272.19C1767.55 1312.66 1764.54 1402.9 1834.74 1407.13C1885.96 1415.2 1890.89 1348.74 1923.02 1324.29" stroke="url(#paint88_linear)"/>
<path d="M-65.3965 1231.72C-36.9928 1259.67 43.4996 1288.55 73.7781 1251.02C120.935 1191.81 63.3829 1067.76 128.742 1026.3C299.868 967.396 394.825 1300.43 573.885 1307.4C637.459 1313.13 604.825 1155.87 662.566 1141.14C815.009 1093.99 936.779 1568.91 1079.7 1473.4C1173.64 1408.3 1111.15 1139.36 1202.55 1133.41C1262.87 1130.16 1325.1 1304.96 1384.7 1255.9C1486.85 1160.88 1620.65 1170.48 1711.8 1266.23C1776.45 1306.26 1772.67 1391.55 1839.08 1397.07C1887.69 1406.2 1892.91 1345.1 1923.33 1322.87" stroke="url(#paint89_linear)"/>
<path d="M-65.2412 1230.89C-36.0676 1259.53 46.6773 1289.16 77.7862 1250.47C126.242 1189.5 67.0535 1061.83 134.1 1018.89C308.211 953.804 403.327 1290.95 582.902 1297.46C644.577 1302.81 612.601 1148.55 669.016 1133.67C820.123 1085.7 940.419 1560.79 1082.2 1465.2C1176.22 1399.57 1114.09 1129.18 1205.79 1123.64C1266.54 1120.62 1330.06 1297.82 1390.09 1247.43C1493.97 1149.79 1630.46 1162.26 1723.07 1260.27C1785.34 1299.85 1780.81 1380.19 1843.42 1387.01C1889.42 1397.19 1894.93 1341.45 1923.64 1321.44" stroke="url(#paint90_linear)"/>
<path d="M-65.0859 1230.06C-35.1423 1259.39 49.8551 1289.76 81.7943 1249.92C131.549 1187.19 70.7241 1055.9 139.458 1011.48C316.554 940.212 411.83 1281.47 591.919 1287.51C651.695 1292.48 620.377 1141.24 675.466 1126.21C825.237 1077.42 944.06 1552.66 1084.7 1456.99C1178.79 1390.83 1117.04 1119 1209.02 1113.87C1270.22 1111.07 1335.01 1290.69 1395.47 1238.95C1501.1 1138.69 1640.26 1154.04 1734.34 1254.3C1794.24 1293.44 1788.95 1368.84 1847.76 1376.95C1891.15 1388.18 1896.95 1337.8 1923.95 1320.01" stroke="url(#paint91_linear)"/>
<path d="M-64.9287 1229.23C-34.2151 1259.25 53.0347 1290.37 85.8043 1249.37C136.859 1184.88 74.3966 1049.97 144.818 1004.07C324.899 926.621 420.334 1271.99 600.938 1277.57C658.815 1282.15 628.156 1133.92 681.918 1118.74C830.354 1069.13 947.702 1544.53 1087.2 1448.79C1181.37 1382.1 1119.98 1108.82 1212.26 1104.1C1273.89 1101.53 1339.97 1283.55 1400.86 1230.48C1508.23 1127.6 1650.07 1145.81 1745.6 1248.34C1803.14 1287.04 1797.09 1357.48 1852.1 1366.89C1892.88 1379.18 1898.98 1334.16 1924.26 1318.59" stroke="url(#paint92_linear)"/>
<path d="M-64.7734 1228.41C-33.2898 1259.11 56.2124 1290.98 89.8123 1248.82C142.166 1182.57 78.0672 1044.04 150.176 996.657C333.242 913.03 428.836 1262.51 609.954 1267.63C665.933 1271.83 635.932 1126.6 688.368 1111.27C835.468 1060.85 951.342 1536.41 1089.7 1440.59C1183.95 1373.37 1122.93 1098.64 1215.49 1094.33C1277.57 1091.98 1344.92 1276.42 1406.24 1222C1515.35 1116.5 1659.88 1137.59 1756.87 1242.37C1812.04 1280.63 1805.22 1346.13 1856.44 1356.83C1894.6 1370.17 1901 1330.51 1924.57 1317.16" stroke="url(#paint93_linear)"/>
<path d="M-64.6182 1227.58C-32.3645 1258.96 59.3902 1291.59 93.8204 1248.27C147.473 1180.26 81.7378 1038.11 155.534 989.245C341.585 899.438 437.339 1253.03 618.971 1257.68C673.051 1261.5 643.709 1119.28 694.818 1103.8C840.582 1052.56 954.982 1528.28 1092.2 1432.39C1186.53 1364.63 1125.87 1088.47 1218.73 1084.56C1281.24 1082.44 1349.88 1269.28 1411.62 1213.53C1522.48 1105.41 1669.69 1129.37 1768.13 1236.41C1820.93 1274.22 1813.36 1334.77 1860.78 1346.77C1896.33 1361.16 1903.02 1326.86 1924.88 1315.73" stroke="url(#paint94_linear)"/>
<path d="M-64.4629 1226.75C-31.4392 1258.82 62.5679 1292.19 97.8285 1247.72C152.78 1177.95 85.4084 1032.18 160.892 981.834C349.928 885.847 445.841 1243.56 627.988 1247.74C680.17 1251.18 651.485 1111.97 701.268 1096.33C845.697 1044.28 958.622 1520.15 1094.7 1424.19C1189.11 1355.9 1128.82 1078.29 1221.96 1074.79C1284.92 1072.89 1354.83 1262.15 1417.01 1205.05C1529.6 1094.31 1679.49 1121.14 1779.4 1230.45C1829.83 1267.82 1821.5 1323.42 1865.12 1336.71C1898.06 1352.16 1905.04 1323.22 1925.2 1314.3" stroke="url(#paint95_linear)"/>
<path d="M-64.3066 1225.92C-30.513 1258.68 65.7466 1292.8 101.838 1247.17C158.088 1175.64 89.08 1026.25 166.251 974.422C358.272 872.255 454.344 1234.08 637.006 1237.8C687.289 1240.85 659.262 1104.65 707.719 1088.87C850.812 1035.99 962.263 1512.03 1097.2 1415.98C1191.69 1347.16 1131.76 1068.11 1225.2 1065.02C1288.59 1063.35 1359.78 1255.01 1422.39 1196.58C1536.73 1083.22 1689.3 1112.92 1790.67 1224.48C1838.73 1261.41 1829.64 1312.06 1869.46 1326.65C1899.79 1343.15 1907.06 1319.57 1925.51 1312.88" stroke="url(#paint96_linear)"/>
<path d="M-64.1514 1225.09C-29.5877 1258.54 68.9243 1293.41 105.846 1246.62C163.396 1173.33 92.7506 1020.32 171.609 967.011C366.615 858.664 462.847 1224.6 646.023 1227.85C694.407 1230.53 667.039 1097.33 714.17 1081.4C855.926 1027.71 965.903 1503.9 1099.7 1407.78C1194.27 1338.43 1134.71 1057.93 1228.43 1055.25C1292.27 1053.81 1364.74 1247.88 1427.78 1188.1C1543.86 1072.12 1699.11 1104.7 1801.93 1218.52C1847.63 1255 1837.77 1300.71 1873.8 1316.59C1901.52 1334.14 1909.08 1315.92 1925.82 1311.45" stroke="url(#paint97_linear)"/>
<path d="M-63.9961 1224.26C-28.6625 1258.4 72.102 1294.02 109.854 1246.07C168.703 1171.02 96.4212 1014.38 176.967 959.599C374.958 845.072 471.349 1215.12 655.04 1217.91C701.525 1220.2 674.815 1090.01 720.62 1073.93C861.04 1019.42 969.543 1495.77 1102.19 1399.58C1196.85 1329.7 1137.65 1047.75 1231.67 1045.48C1295.94 1044.26 1369.69 1240.74 1433.16 1179.62C1550.98 1061.03 1708.91 1096.47 1813.2 1212.55C1856.53 1248.6 1845.91 1289.35 1878.14 1306.52C1903.25 1325.14 1911.1 1312.28 1926.13 1310.02" stroke="url(#paint98_linear)"/>
<path d="M-63.8389 1223.43C-27.7352 1258.26 75.2817 1294.62 113.864 1245.52C174.012 1168.71 100.094 1008.45 182.327 952.188C383.303 831.481 479.853 1205.64 664.059 1207.97C708.645 1209.88 682.594 1082.7 727.072 1066.46C866.157 1011.14 973.186 1487.65 1104.7 1391.38C1199.43 1320.96 1140.6 1037.57 1234.9 1035.71C1299.62 1034.72 1374.65 1233.61 1438.55 1171.15C1558.11 1049.93 1718.72 1088.25 1824.47 1206.59C1865.42 1242.19 1854.05 1278 1882.48 1296.46C1904.98 1316.13 1913.13 1308.63 1926.44 1308.6" stroke="url(#paint99_linear)"/>
<path d="M-63.6846 1222.6C-26.8109 1258.12 78.4584 1295.23 117.871 1244.97C179.318 1166.4 103.763 1002.52 187.684 944.776C391.645 817.889 488.355 1196.16 673.075 1198.02C715.762 1199.55 690.369 1075.38 733.521 1059C871.27 1002.85 976.825 1479.52 1107.19 1383.18C1202.01 1312.23 1143.54 1027.39 1238.14 1025.94C1303.3 1025.17 1379.6 1226.47 1443.93 1162.67C1565.24 1038.84 1728.53 1080.03 1835.73 1200.63C1874.32 1235.79 1862.19 1266.64 1886.82 1286.4C1906.7 1307.12 1915.15 1304.99 1926.75 1307.17" stroke="url(#paint100_linear)"/>
<path d="M-63.5283 1221.78C-25.8847 1257.98 81.6371 1295.84 121.88 1244.42C184.627 1164.09 107.435 996.592 193.043 937.365C399.988 804.298 496.858 1186.68 682.092 1188.08C722.881 1189.23 698.146 1068.06 739.972 1051.53C876.385 994.566 980.466 1471.39 1109.69 1374.98C1204.58 1303.5 1146.48 1017.22 1241.37 1016.17C1306.97 1015.63 1384.56 1219.34 1449.32 1154.2C1572.36 1027.75 1738.34 1071.8 1847 1194.66C1883.22 1229.38 1870.32 1255.29 1891.16 1276.34C1908.43 1298.12 1917.17 1301.34 1927.06 1305.74" stroke="url(#paint101_linear)"/>
<path d="M-63.373 1220.95C-24.9594 1257.84 84.8148 1296.45 125.888 1243.87C189.934 1161.78 111.105 990.661 198.401 929.953C408.331 790.706 505.361 1177.21 691.109 1178.14C730 1178.9 705.923 1060.74 746.422 1044.06C881.5 986.281 984.106 1463.27 1112.19 1366.77C1207.16 1294.76 1149.43 1007.04 1244.61 1006.4C1310.65 1006.08 1389.51 1212.2 1454.7 1145.72C1579.49 1016.65 1748.14 1063.58 1858.26 1188.7C1892.12 1222.97 1878.46 1243.93 1895.5 1266.28C1910.16 1289.11 1919.19 1297.69 1927.38 1304.31" stroke="url(#paint102_linear)"/>
<path d="M-63.2178 1220.12C-24.0342 1257.7 87.9925 1297.05 129.896 1243.32C195.241 1159.47 114.776 984.731 203.759 922.541C416.674 777.114 513.863 1167.73 700.126 1168.19C737.118 1168.57 713.699 1053.42 752.872 1036.59C886.614 977.995 987.746 1455.14 1114.69 1358.57C1209.74 1286.03 1152.37 996.859 1247.84 996.635C1314.32 996.539 1394.46 1205.07 1460.08 1137.25C1586.62 1005.55 1757.95 1055.36 1869.53 1182.73C1901.01 1216.57 1886.6 1232.58 1899.84 1256.22C1911.89 1280.1 1921.21 1294.05 1927.69 1302.89" stroke="url(#paint103_linear)"/>
</g>
</g>
<defs>
<linearGradient id="paint0_linear" x1="1734.27" y1="0" x2="1734.27" y2="834.668" gradientUnits="userSpaceOnUse">
<stop stop-color="#333399"/>
<stop offset="1" stop-color="#333399" stop-opacity="0"/>
</linearGradient>
<linearGradient id="paint1_linear" x1="1712.86" y1="671.06" x2="1712.86" y2="1447.22" gradientUnits="userSpaceOnUse">
<stop stop-color="#333399"/>
<stop offset="1" stop-color="#333399" stop-opacity="0"/>
</linearGradient>
<linearGradient id="paint2_linear" x1="1733.85" y1="13.1584" x2="1733.85" y2="836" gradientUnits="userSpaceOnUse">
<stop stop-color="#333399"/>
<stop offset="1" stop-color="#333399" stop-opacity="0"/>
</linearGradient>
<linearGradient id="paint3_linear" x1="1733.43" y1="26.3159" x2="1733.43" y2="837.331" gradientUnits="userSpaceOnUse">
<stop stop-color="#333399"/>
<stop offset="1" stop-color="#333399" stop-opacity="0"/>
</linearGradient>
<linearGradient id="paint4_linear" x1="1733.01" y1="39.4742" x2="1733.01" y2="838.663" gradientUnits="userSpaceOnUse">
<stop stop-color="#333399"/>
<stop offset="1" stop-color="#333399" stop-opacity="0"/>
</linearGradient>
<linearGradient id="paint5_linear" x1="1732.59" y1="52.6319" x2="1732.59" y2="839.994" gradientUnits="userSpaceOnUse">
<stop stop-color="#333399"/>
<stop offset="1" stop-color="#333399" stop-opacity="0"/>
</linearGradient>
<linearGradient id="paint6_linear" x1="1732.17" y1="65.79" x2="1732.17" y2="845.074" gradientUnits="userSpaceOnUse">
<stop stop-color="#333399"/>
<stop offset="1" stop-color="#333399" stop-opacity="0"/>
</linearGradient>
<linearGradient id="paint7_linear" x1="1731.75" y1="78.9484" x2="1731.75" y2="856.009" gradientUnits="userSpaceOnUse">
<stop stop-color="#333399"/>
<stop offset="1" stop-color="#333399" stop-opacity="0"/>
</linearGradient>
<linearGradient id="paint8_linear" x1="1731.33" y1="92.1063" x2="1731.33" y2="867.453" gradientUnits="userSpaceOnUse">
<stop stop-color="#333399"/>
<stop offset="1" stop-color="#333399" stop-opacity="0"/>
</linearGradient>
<linearGradient id="paint9_linear" x1="1730.91" y1="105.264" x2="1730.91" y2="879.234" gradientUnits="userSpaceOnUse">
<stop stop-color="#333399"/>
<stop offset="1" stop-color="#333399" stop-opacity="0"/>
</linearGradient>
<linearGradient id="paint10_linear" x1="1730.49" y1="118.423" x2="1730.49" y2="891.148" gradientUnits="userSpaceOnUse">
<stop stop-color="#333399"/>
<stop offset="1" stop-color="#333399" stop-opacity="0"/>
</linearGradient>
<linearGradient id="paint11_linear" x1="1730.07" y1="131.58" x2="1730.07" y2="903.06" gradientUnits="userSpaceOnUse">
<stop stop-color="#333399"/>
<stop offset="1" stop-color="#333399" stop-opacity="0"/>
</linearGradient>
<linearGradient id="paint12_linear" x1="1729.65" y1="144.738" x2="1729.65" y2="914.973" gradientUnits="userSpaceOnUse">
<stop stop-color="#333399"/>
<stop offset="1" stop-color="#333399" stop-opacity="0"/>
</linearGradient>
<linearGradient id="paint13_linear" x1="1729.23" y1="157.896" x2="1729.23" y2="926.886" gradientUnits="userSpaceOnUse">
<stop stop-color="#333399"/>
<stop offset="1" stop-color="#333399" stop-opacity="0"/>
</linearGradient>
<linearGradient id="paint14_linear" x1="1728.81" y1="171.054" x2="1728.81" y2="938.798" gradientUnits="userSpaceOnUse">
<stop stop-color="#333399"/>
<stop offset="1" stop-color="#333399" stop-opacity="0"/>
</linearGradient>
<linearGradient id="paint15_linear" x1="1728.39" y1="184.213" x2="1728.39" y2="950.712" gradientUnits="userSpaceOnUse">
<stop stop-color="#333399"/>
<stop offset="1" stop-color="#333399" stop-opacity="0"/>
</linearGradient>
<linearGradient id="paint16_linear" x1="1727.97" y1="197.37" x2="1727.97" y2="962.624" gradientUnits="userSpaceOnUse">
<stop stop-color="#333399"/>
<stop offset="1" stop-color="#333399" stop-opacity="0"/>
</linearGradient>
<linearGradient id="paint17_linear" x1="1727.55" y1="210.529" x2="1727.55" y2="974.537" gradientUnits="userSpaceOnUse">
<stop stop-color="#333399"/>
<stop offset="1" stop-color="#333399" stop-opacity="0"/>
</linearGradient>
<linearGradient id="paint18_linear" x1="1727.13" y1="223.686" x2="1727.13" y2="986.449" gradientUnits="userSpaceOnUse">
<stop stop-color="#333399"/>
<stop offset="1" stop-color="#333399" stop-opacity="0"/>
</linearGradient>
<linearGradient id="paint19_linear" x1="1726.71" y1="236.845" x2="1726.71" y2="998.362" gradientUnits="userSpaceOnUse">
<stop stop-color="#333399"/>
<stop offset="1" stop-color="#333399" stop-opacity="0"/>
</linearGradient>
<linearGradient id="paint20_linear" x1="1726.29" y1="250.003" x2="1726.29" y2="1010.28" gradientUnits="userSpaceOnUse">
<stop stop-color="#333399"/>
<stop offset="1" stop-color="#333399" stop-opacity="0"/>
</linearGradient>
<linearGradient id="paint21_linear" x1="1725.87" y1="263.16" x2="1725.87" y2="1022.19" gradientUnits="userSpaceOnUse">
<stop stop-color="#333399"/>
<stop offset="1" stop-color="#333399" stop-opacity="0"/>
</linearGradient>
<linearGradient id="paint22_linear" x1="1725.45" y1="276.319" x2="1725.45" y2="1034.1" gradientUnits="userSpaceOnUse">
<stop stop-color="#333399"/>
<stop offset="1" stop-color="#333399" stop-opacity="0"/>
</linearGradient>
<linearGradient id="paint23_linear" x1="1725.03" y1="289.476" x2="1725.03" y2="1046.01" gradientUnits="userSpaceOnUse">
<stop stop-color="#333399"/>
<stop offset="1" stop-color="#333399" stop-opacity="0"/>
</linearGradient>
<linearGradient id="paint24_linear" x1="1724.61" y1="302.635" x2="1724.61" y2="1057.93" gradientUnits="userSpaceOnUse">
<stop stop-color="#333399"/>
<stop offset="1" stop-color="#333399" stop-opacity="0"/>
</linearGradient>
<linearGradient id="paint25_linear" x1="1724.19" y1="315.792" x2="1724.19" y2="1069.84" gradientUnits="userSpaceOnUse">
<stop stop-color="#333399"/>
<stop offset="1" stop-color="#333399" stop-opacity="0"/>
</linearGradient>
<linearGradient id="paint26_linear" x1="1723.78" y1="328.951" x2="1723.78" y2="1081.75" gradientUnits="userSpaceOnUse">
<stop stop-color="#333399"/>
<stop offset="1" stop-color="#333399" stop-opacity="0"/>
</linearGradient>
<linearGradient id="paint27_linear" x1="1723.35" y1="342.109" x2="1723.35" y2="1093.67" gradientUnits="userSpaceOnUse">
<stop stop-color="#333399"/>
<stop offset="1" stop-color="#333399" stop-opacity="0"/>
</linearGradient>
<linearGradient id="paint28_linear" x1="1722.93" y1="355.267" x2="1722.93" y2="1105.62" gradientUnits="userSpaceOnUse">
<stop stop-color="#333399"/>
<stop offset="1" stop-color="#333399" stop-opacity="0"/>
</linearGradient>
<linearGradient id="paint29_linear" x1="1722.52" y1="368.425" x2="1722.52" y2="1117.84" gradientUnits="userSpaceOnUse">
<stop stop-color="#333399"/>
<stop offset="1" stop-color="#333399" stop-opacity="0"/>
</linearGradient>
<linearGradient id="paint30_linear" x1="1722.1" y1="381.583" x2="1722.1" y2="1130.34" gradientUnits="userSpaceOnUse">
<stop stop-color="#333399"/>
<stop offset="1" stop-color="#333399" stop-opacity="0"/>
</linearGradient>
<linearGradient id="paint31_linear" x1="1721.68" y1="394.741" x2="1721.68" y2="1143.09" gradientUnits="userSpaceOnUse">
<stop stop-color="#333399"/>
<stop offset="1" stop-color="#333399" stop-opacity="0"/>
</linearGradient>
<linearGradient id="paint32_linear" x1="1721.26" y1="407.899" x2="1721.26" y2="1156.08" gradientUnits="userSpaceOnUse">
<stop stop-color="#333399"/>
<stop offset="1" stop-color="#333399" stop-opacity="0"/>
</linearGradient>
<linearGradient id="paint33_linear" x1="1720.84" y1="421.057" x2="1720.84" y2="1169.29" gradientUnits="userSpaceOnUse">
<stop stop-color="#333399"/>
<stop offset="1" stop-color="#333399" stop-opacity="0"/>
</linearGradient>
<linearGradient id="paint34_linear" x1="1720.42" y1="434.215" x2="1720.42" y2="1182.7" gradientUnits="userSpaceOnUse">
<stop stop-color="#333399"/>
<stop offset="1" stop-color="#333399" stop-opacity="0"/>
</linearGradient>
<linearGradient id="paint35_linear" x1="1720" y1="447.373" x2="1720" y2="1196.3" gradientUnits="userSpaceOnUse">
<stop stop-color="#333399"/>
<stop offset="1" stop-color="#333399" stop-opacity="0"/>
</linearGradient>
<linearGradient id="paint36_linear" x1="1719.58" y1="460.531" x2="1719.58" y2="1210.08" gradientUnits="userSpaceOnUse">
<stop stop-color="#333399"/>
<stop offset="1" stop-color="#333399" stop-opacity="0"/>
</linearGradient>
<linearGradient id="paint37_linear" x1="1719.16" y1="473.689" x2="1719.16" y2="1224.02" gradientUnits="userSpaceOnUse">
<stop stop-color="#333399"/>
<stop offset="1" stop-color="#333399" stop-opacity="0"/>
</linearGradient>
<linearGradient id="paint38_linear" x1="1718.74" y1="486.848" x2="1718.74" y2="1238.11" gradientUnits="userSpaceOnUse">
<stop stop-color="#333399"/>
<stop offset="1" stop-color="#333399" stop-opacity="0"/>
</linearGradient>
<linearGradient id="paint39_linear" x1="1718.32" y1="500.005" x2="1718.32" y2="1252.35" gradientUnits="userSpaceOnUse">
<stop stop-color="#333399"/>
<stop offset="1" stop-color="#333399" stop-opacity="0"/>
</linearGradient>
<linearGradient id="paint40_linear" x1="1717.9" y1="513.163" x2="1717.9" y2="1266.72" gradientUnits="userSpaceOnUse">
<stop stop-color="#333399"/>
<stop offset="1" stop-color="#333399" stop-opacity="0"/>
</linearGradient>
<linearGradient id="paint41_linear" x1="1717.48" y1="526.321" x2="1717.48" y2="1281.22" gradientUnits="userSpaceOnUse">
<stop stop-color="#333399"/>
<stop offset="1" stop-color="#333399" stop-opacity="0"/>
</linearGradient>
<linearGradient id="paint42_linear" x1="1717.06" y1="539.48" x2="1717.06" y2="1295.83" gradientUnits="userSpaceOnUse">
<stop stop-color="#333399"/>
<stop offset="1" stop-color="#333399" stop-opacity="0"/>
</linearGradient>
<linearGradient id="paint43_linear" x1="1716.64" y1="552.638" x2="1716.64" y2="1310.56" gradientUnits="userSpaceOnUse">
<stop stop-color="#333399"/>
<stop offset="1" stop-color="#333399" stop-opacity="0"/>
</linearGradient>
<linearGradient id="paint44_linear" x1="1716.22" y1="565.796" x2="1716.22" y2="1325.39" gradientUnits="userSpaceOnUse">
<stop stop-color="#333399"/>
<stop offset="1" stop-color="#333399" stop-opacity="0"/>
</linearGradient>
<linearGradient id="paint45_linear" x1="1715.8" y1="578.954" x2="1715.8" y2="1340.33" gradientUnits="userSpaceOnUse">
<stop stop-color="#333399"/>
<stop offset="1" stop-color="#333399" stop-opacity="0"/>
</linearGradient>
<linearGradient id="paint46_linear" x1="1715.38" y1="592.112" x2="1715.38" y2="1355.35" gradientUnits="userSpaceOnUse">
<stop stop-color="#333399"/>
<stop offset="1" stop-color="#333399" stop-opacity="0"/>
</linearGradient>
<linearGradient id="paint47_linear" x1="1714.96" y1="605.269" x2="1714.96" y2="1370.47" gradientUnits="userSpaceOnUse">
<stop stop-color="#333399"/>
<stop offset="1" stop-color="#333399" stop-opacity="0"/>
</linearGradient>
<linearGradient id="paint48_linear" x1="1714.54" y1="618.428" x2="1714.54" y2="1385.67" gradientUnits="userSpaceOnUse">
<stop stop-color="#333399"/>
<stop offset="1" stop-color="#333399" stop-opacity="0"/>
</linearGradient>
<linearGradient id="paint49_linear" x1="1714.12" y1="631.585" x2="1714.12" y2="1400.94" gradientUnits="userSpaceOnUse">
<stop stop-color="#333399"/>
<stop offset="1" stop-color="#333399" stop-opacity="0"/>
</linearGradient>
<linearGradient id="paint50_linear" x1="1713.7" y1="644.743" x2="1713.7" y2="1416.3" gradientUnits="userSpaceOnUse">
<stop stop-color="#333399"/>
<stop offset="1" stop-color="#333399" stop-opacity="0"/>
</linearGradient>
<linearGradient id="paint51_linear" x1="1713.29" y1="657.901" x2="1713.29" y2="1431.72" gradientUnits="userSpaceOnUse">
<stop stop-color="#333399"/>
<stop offset="1" stop-color="#333399" stop-opacity="0"/>
</linearGradient>
<linearGradient id="paint52_linear" x1="920.558" y1="1780.82" x2="920.558" y2="1261.55" gradientUnits="userSpaceOnUse">
<stop stop-color="#333399"/>
<stop offset="1" stop-color="#333399" stop-opacity="0"/>
</linearGradient>
<linearGradient id="paint53_linear" x1="932.468" y1="1363.34" x2="932.468" y2="880.461" gradientUnits="userSpaceOnUse">
<stop stop-color="#333399"/>
<stop offset="1" stop-color="#333399" stop-opacity="0"/>
</linearGradient>
<linearGradient id="paint54_linear" x1="920.792" y1="1772.64" x2="920.792" y2="1260.72" gradientUnits="userSpaceOnUse">
<stop stop-color="#333399"/>
<stop offset="1" stop-color="#333399" stop-opacity="0"/>
</linearGradient>
<linearGradient id="paint55_linear" x1="921.024" y1="1764.45" x2="921.024" y2="1259.89" gradientUnits="userSpaceOnUse">
<stop stop-color="#333399"/>
<stop offset="1" stop-color="#333399" stop-opacity="0"/>
</linearGradient>
<linearGradient id="paint56_linear" x1="921.258" y1="1756.27" x2="921.258" y2="1259.06" gradientUnits="userSpaceOnUse">
<stop stop-color="#333399"/>
<stop offset="1" stop-color="#333399" stop-opacity="0"/>
</linearGradient>
<linearGradient id="paint57_linear" x1="921.492" y1="1748.08" x2="921.492" y2="1258.23" gradientUnits="userSpaceOnUse">
<stop stop-color="#333399"/>
<stop offset="1" stop-color="#333399" stop-opacity="0"/>
</linearGradient>
<linearGradient id="paint58_linear" x1="921.724" y1="1739.89" x2="921.724" y2="1255.07" gradientUnits="userSpaceOnUse">
<stop stop-color="#333399"/>
<stop offset="1" stop-color="#333399" stop-opacity="0"/>
</linearGradient>
<linearGradient id="paint59_linear" x1="921.957" y1="1731.71" x2="921.957" y2="1248.27" gradientUnits="userSpaceOnUse">
<stop stop-color="#333399"/>
<stop offset="1" stop-color="#333399" stop-opacity="0"/>
</linearGradient>
<linearGradient id="paint60_linear" x1="922.192" y1="1723.52" x2="922.192" y2="1241.15" gradientUnits="userSpaceOnUse">
<stop stop-color="#333399"/>
<stop offset="1" stop-color="#333399" stop-opacity="0"/>
</linearGradient>
<linearGradient id="paint61_linear" x1="922.426" y1="1715.34" x2="922.426" y2="1233.82" gradientUnits="userSpaceOnUse">
<stop stop-color="#333399"/>
<stop offset="1" stop-color="#333399" stop-opacity="0"/>
</linearGradient>
<linearGradient id="paint62_linear" x1="922.659" y1="1707.15" x2="922.659" y2="1226.41" gradientUnits="userSpaceOnUse">
<stop stop-color="#333399"/>
<stop offset="1" stop-color="#333399" stop-opacity="0"/>
</linearGradient>
<linearGradient id="paint63_linear" x1="922.893" y1="1698.96" x2="922.893" y2="1219" gradientUnits="userSpaceOnUse">
<stop stop-color="#333399"/>
<stop offset="1" stop-color="#333399" stop-opacity="0"/>
</linearGradient>
<linearGradient id="paint64_linear" x1="923.128" y1="1690.78" x2="923.128" y2="1211.59" gradientUnits="userSpaceOnUse">
<stop stop-color="#333399"/>
<stop offset="1" stop-color="#333399" stop-opacity="0"/>
</linearGradient>
<linearGradient id="paint65_linear" x1="923.36" y1="1682.59" x2="923.36" y2="1204.18" gradientUnits="userSpaceOnUse">
<stop stop-color="#333399"/>
<stop offset="1" stop-color="#333399" stop-opacity="0"/>
</linearGradient>
<linearGradient id="paint66_linear" x1="923.594" y1="1674.41" x2="923.594" y2="1196.77" gradientUnits="userSpaceOnUse">
<stop stop-color="#333399"/>
<stop offset="1" stop-color="#333399" stop-opacity="0"/>
</linearGradient>
<linearGradient id="paint67_linear" x1="923.828" y1="1666.22" x2="923.828" y2="1189.35" gradientUnits="userSpaceOnUse">
<stop stop-color="#333399"/>
<stop offset="1" stop-color="#333399" stop-opacity="0"/>
</linearGradient>
<linearGradient id="paint68_linear" x1="924.06" y1="1658.03" x2="924.06" y2="1181.94" gradientUnits="userSpaceOnUse">
<stop stop-color="#333399"/>
<stop offset="1" stop-color="#333399" stop-opacity="0"/>
</linearGradient>
<linearGradient id="paint69_linear" x1="924.294" y1="1649.85" x2="924.294" y2="1174.53" gradientUnits="userSpaceOnUse">
<stop stop-color="#333399"/>
<stop offset="1" stop-color="#333399" stop-opacity="0"/>
</linearGradient>
<linearGradient id="paint70_linear" x1="924.528" y1="1641.66" x2="924.528" y2="1167.12" gradientUnits="userSpaceOnUse">
<stop stop-color="#333399"/>
<stop offset="1" stop-color="#333399" stop-opacity="0"/>
</linearGradient>
<linearGradient id="paint71_linear" x1="924.762" y1="1633.48" x2="924.762" y2="1159.71" gradientUnits="userSpaceOnUse">
<stop stop-color="#333399"/>
<stop offset="1" stop-color="#333399" stop-opacity="0"/>
</linearGradient>
<linearGradient id="paint72_linear" x1="924.996" y1="1625.29" x2="924.996" y2="1152.3" gradientUnits="userSpaceOnUse">
<stop stop-color="#333399"/>
<stop offset="1" stop-color="#333399" stop-opacity="0"/>
</linearGradient>
<linearGradient id="paint73_linear" x1="925.229" y1="1617.1" x2="925.229" y2="1144.89" gradientUnits="userSpaceOnUse">
<stop stop-color="#333399"/>
<stop offset="1" stop-color="#333399" stop-opacity="0"/>
</linearGradient>
<linearGradient id="paint74_linear" x1="925.462" y1="1608.92" x2="925.462" y2="1137.47" gradientUnits="userSpaceOnUse">
<stop stop-color="#333399"/>
<stop offset="1" stop-color="#333399" stop-opacity="0"/>
</linearGradient>
<linearGradient id="paint75_linear" x1="925.695" y1="1600.73" x2="925.695" y2="1130.06" gradientUnits="userSpaceOnUse">
<stop stop-color="#333399"/>
<stop offset="1" stop-color="#333399" stop-opacity="0"/>
</linearGradient>
<linearGradient id="paint76_linear" x1="925.929" y1="1592.54" x2="925.929" y2="1122.65" gradientUnits="userSpaceOnUse">
<stop stop-color="#333399"/>
<stop offset="1" stop-color="#333399" stop-opacity="0"/>
</linearGradient>
<linearGradient id="paint77_linear" x1="926.162" y1="1584.36" x2="926.162" y2="1115.24" gradientUnits="userSpaceOnUse">
<stop stop-color="#333399"/>
<stop offset="1" stop-color="#333399" stop-opacity="0"/>
</linearGradient>
<linearGradient id="paint78_linear" x1="926.396" y1="1576.17" x2="926.396" y2="1107.83" gradientUnits="userSpaceOnUse">
<stop stop-color="#333399"/>
<stop offset="1" stop-color="#333399" stop-opacity="0"/>
</linearGradient>
<linearGradient id="paint79_linear" x1="926.631" y1="1567.99" x2="926.631" y2="1100.42" gradientUnits="userSpaceOnUse">
<stop stop-color="#333399"/>
<stop offset="1" stop-color="#333399" stop-opacity="0"/>
</linearGradient>
<linearGradient id="paint80_linear" x1="926.864" y1="1559.8" x2="926.864" y2="1092.98" gradientUnits="userSpaceOnUse">
<stop stop-color="#333399"/>
<stop offset="1" stop-color="#333399" stop-opacity="0"/>
</linearGradient>
<linearGradient id="paint81_linear" x1="927.097" y1="1551.61" x2="927.097" y2="1085.38" gradientUnits="userSpaceOnUse">
<stop stop-color="#333399"/>
<stop offset="1" stop-color="#333399" stop-opacity="0"/>
</linearGradient>
<linearGradient id="paint82_linear" x1="927.33" y1="1543.43" x2="927.33" y2="1077.6" gradientUnits="userSpaceOnUse">
<stop stop-color="#333399"/>
<stop offset="1" stop-color="#333399" stop-opacity="0"/>
</linearGradient>
<linearGradient id="paint83_linear" x1="927.564" y1="1535.24" x2="927.564" y2="1069.67" gradientUnits="userSpaceOnUse">
<stop stop-color="#333399"/>
<stop offset="1" stop-color="#333399" stop-opacity="0"/>
</linearGradient>
<linearGradient id="paint84_linear" x1="927.796" y1="1527.06" x2="927.796" y2="1061.58" gradientUnits="userSpaceOnUse">
<stop stop-color="#333399"/>
<stop offset="1" stop-color="#333399" stop-opacity="0"/>
</linearGradient>
<linearGradient id="paint85_linear" x1="928.031" y1="1518.87" x2="928.031" y2="1053.37" gradientUnits="userSpaceOnUse">
<stop stop-color="#333399"/>
<stop offset="1" stop-color="#333399" stop-opacity="0"/>
</linearGradient>
<linearGradient id="paint86_linear" x1="928.264" y1="1510.68" x2="928.264" y2="1045.02" gradientUnits="userSpaceOnUse">
<stop stop-color="#333399"/>
<stop offset="1" stop-color="#333399" stop-opacity="0"/>
</linearGradient>
<linearGradient id="paint87_linear" x1="928.498" y1="1502.5" x2="928.498" y2="1036.56" gradientUnits="userSpaceOnUse">
<stop stop-color="#333399"/>
<stop offset="1" stop-color="#333399" stop-opacity="0"/>
</linearGradient>
<linearGradient id="paint88_linear" x1="928.732" y1="1494.31" x2="928.732" y2="1027.99" gradientUnits="userSpaceOnUse">
<stop stop-color="#333399"/>
<stop offset="1" stop-color="#333399" stop-opacity="0"/>
</linearGradient>
<linearGradient id="paint89_linear" x1="928.966" y1="1486.13" x2="928.966" y2="1019.32" gradientUnits="userSpaceOnUse">
<stop stop-color="#333399"/>
<stop offset="1" stop-color="#333399" stop-opacity="0"/>
</linearGradient>
<linearGradient id="paint90_linear" x1="929.199" y1="1477.94" x2="929.199" y2="1010.55" gradientUnits="userSpaceOnUse">
<stop stop-color="#333399"/>
<stop offset="1" stop-color="#333399" stop-opacity="0"/>
</linearGradient>
<linearGradient id="paint91_linear" x1="929.432" y1="1469.75" x2="929.432" y2="1001.7" gradientUnits="userSpaceOnUse">
<stop stop-color="#333399"/>
<stop offset="1" stop-color="#333399" stop-opacity="0"/>
</linearGradient>
<linearGradient id="paint92_linear" x1="929.667" y1="1461.57" x2="929.667" y2="992.755" gradientUnits="userSpaceOnUse">
<stop stop-color="#333399"/>
<stop offset="1" stop-color="#333399" stop-opacity="0"/>
</linearGradient>
<linearGradient id="paint93_linear" x1="929.9" y1="1453.38" x2="929.9" y2="983.736" gradientUnits="userSpaceOnUse">
<stop stop-color="#333399"/>
<stop offset="1" stop-color="#333399" stop-opacity="0"/>
</linearGradient>
<linearGradient id="paint94_linear" x1="930.133" y1="1445.2" x2="930.133" y2="974.642" gradientUnits="userSpaceOnUse">
<stop stop-color="#333399"/>
<stop offset="1" stop-color="#333399" stop-opacity="0"/>
</linearGradient>
<linearGradient id="paint95_linear" x1="930.366" y1="1437.01" x2="930.366" y2="965.48" gradientUnits="userSpaceOnUse">
<stop stop-color="#333399"/>
<stop offset="1" stop-color="#333399" stop-opacity="0"/>
</linearGradient>
<linearGradient id="paint96_linear" x1="930.601" y1="1428.82" x2="930.601" y2="956.251" gradientUnits="userSpaceOnUse">
<stop stop-color="#333399"/>
<stop offset="1" stop-color="#333399" stop-opacity="0"/>
</linearGradient>
<linearGradient id="paint97_linear" x1="930.834" y1="1420.64" x2="930.834" y2="946.961" gradientUnits="userSpaceOnUse">
<stop stop-color="#333399"/>
<stop offset="1" stop-color="#333399" stop-opacity="0"/>
</linearGradient>
<linearGradient id="paint98_linear" x1="931.067" y1="1412.45" x2="931.067" y2="937.613" gradientUnits="userSpaceOnUse">
<stop stop-color="#333399"/>
<stop offset="1" stop-color="#333399" stop-opacity="0"/>
</linearGradient>
<linearGradient id="paint99_linear" x1="931.302" y1="1404.27" x2="931.302" y2="928.209" gradientUnits="userSpaceOnUse">
<stop stop-color="#333399"/>
<stop offset="1" stop-color="#333399" stop-opacity="0"/>
</linearGradient>
<linearGradient id="paint100_linear" x1="931.534" y1="1396.08" x2="931.534" y2="918.753" gradientUnits="userSpaceOnUse">
<stop stop-color="#333399"/>
<stop offset="1" stop-color="#333399" stop-opacity="0"/>
</linearGradient>
<linearGradient id="paint101_linear" x1="931.768" y1="1387.89" x2="931.768" y2="909.248" gradientUnits="userSpaceOnUse">
<stop stop-color="#333399"/>
<stop offset="1" stop-color="#333399" stop-opacity="0"/>
</linearGradient>
<linearGradient id="paint102_linear" x1="932.001" y1="1379.71" x2="932.001" y2="899.696" gradientUnits="userSpaceOnUse">
<stop stop-color="#333399"/>
<stop offset="1" stop-color="#333399" stop-opacity="0"/>
</linearGradient>
<linearGradient id="paint103_linear" x1="932.234" y1="1371.52" x2="932.234" y2="890.1" gradientUnits="userSpaceOnUse">
<stop stop-color="#333399"/>
<stop offset="1" stop-color="#333399" stop-opacity="0"/>
</linearGradient>
</defs>
</svg>
