<svg width="1920" height="590" viewBox="0 0 1920 590" fill="none" xmlns="http://www.w3.org/2000/svg">
<path d="M1920 403.718C1918.45 398.81 1922.69 397.593 1912.27 379.178C1840.29 252.007 1739.42 108.207 1557.92 89.7723C1408.77 74.6227 1472.45 281.072 1353.19 288.321C1126.48 302.1 928.81 -62.7051 720.801 9.46069C617.823 45.1874 703.352 213.841 611.828 229.912C561.567 238.738 543.262 170.272 493.38 170.895C448.801 171.452 406.635 244.367 362.961 233.157C193.479 189.657 166.802 -15.1628 -62.8304 16.7618C-224.079 39.1792 -218.06 236.706 -322.046 316.105" stroke="url(#paint0_linear)" stroke-linecap="round" stroke-linejoin="round"/>
<path d="M1911.02 436.573C1865.85 406.816 1736.65 375.643 1688.34 418.32C1612.99 484.876 1705.81 623.545 1603.31 673.046C1359.22 790.915 1249.16 484.029 1037.99 484.029C998.319 484.029 1024.05 571.216 981.263 584.419C831.569 630.612 718.9 259.527 576.668 334.662C469.119 391.475 533.564 617.417 425.303 617.274C349.645 617.173 257.592 453.179 182.919 506.947C37.8977 611.369 -158.839 570.417 -286.636 469.63C-319.552 443.671 -302.396 435.072 -313.069 415.683C-323.741 396.295 -334.614 381.287 -340 372.688" stroke="url(#paint1_linear)" stroke-linecap="round" stroke-linejoin="round"/>
<path d="M1919.83 404.362C1918.18 401.373 1916.31 399.26 1914.93 396.941C1913.03 395.089 1913.33 392.997 1906.21 384.94C1830.85 262.574 1729.81 115.577 1547.73 97.5029C1400.72 82.6503 1463.66 286.761 1345.9 294.127C1120.7 308.542 924.695 -56.3868 717.976 15.8372C614.909 51.9774 700.024 221.754 608.172 237.507C557.413 246.158 537.662 175.82 487.293 177.485C440.745 180.078 395.549 250.76 350.225 237.794C183.42 194.638 157.603 -6.33461 -67.7357 24.5838C-226.031 46.1815 -220.344 239.541 -322.397 317.215" stroke="url(#paint2_linear)"/>
<path d="M1919.65 405.006C1917.14 401.481 1912.72 398.788 1910.4 397.368C1907.03 396.885 1909.18 397.607 1900.15 390.702C1821.42 273.14 1720.2 122.945 1537.53 105.233C1392.67 90.6776 1454.87 292.45 1338.61 299.932C1114.92 314.983 920.58 -50.0688 715.15 22.2135C611.993 58.7671 696.695 229.667 604.515 245.103C553.258 253.578 532.061 181.367 481.206 184.074C432.689 188.703 384.462 257.153 337.489 242.43C173.362 199.618 148.404 2.4933 -72.642 32.4055C-227.985 53.1835 -222.629 242.376 -322.748 318.324" stroke="url(#paint3_linear)"/>
<path d="M1919.47 405.65C1916.09 401.59 1909.12 398.316 1905.87 397.796C1901.02 398.681 1905.03 402.218 1894.09 396.464C1811.99 283.707 1710.58 130.314 1527.34 112.964C1384.62 98.7053 1446.08 298.139 1331.31 305.738C1109.13 321.424 916.461 -43.7504 712.321 28.59C609.075 65.5571 693.363 237.581 600.855 252.698C549.1 260.999 526.457 186.914 475.116 190.663C424.629 197.329 373.371 263.546 324.749 247.067C163.299 204.599 139.201 11.3215 -77.5513 40.2276C-229.942 60.1858 -224.917 245.211 -323.103 319.433" stroke="url(#paint4_linear)"/>
<path d="M1919.29 406.294C1915.04 401.699 1905.53 397.843 1901.34 398.223C1895.02 400.476 1900.88 406.829 1888.04 402.226C1802.55 294.274 1700.97 137.683 1517.14 120.694C1376.58 106.733 1437.28 303.828 1324.02 311.544C1103.35 327.865 912.345 -37.4324 709.496 34.9663C606.159 72.3469 690.034 245.494 597.198 260.293C544.944 268.419 520.856 192.461 469.029 197.252C416.573 205.955 362.284 269.939 312.012 251.704C153.24 209.579 130.001 20.1494 -82.4576 48.0494C-231.896 67.1879 -227.202 248.046 -323.455 320.543" stroke="url(#paint5_linear)"/>
<path d="M1919.12 406.938C1914 401.807 1901.94 397.37 1896.81 398.65C1889.03 402.271 1896.73 411.44 1881.98 407.988C1793.12 304.84 1691.36 145.052 1506.95 128.424C1368.53 114.76 1428.5 309.517 1316.73 317.349C1097.57 334.306 908.233 -31.1145 706.672 41.3423C603.246 79.1364 686.708 253.406 593.544 267.888C540.792 275.839 515.258 198.008 462.945 203.841C408.519 214.58 351.199 276.331 299.278 256.34C143.184 214.56 120.804 28.9771 -87.3614 55.8709C-233.847 74.1897 -229.485 250.88 -323.804 321.652" stroke="url(#paint6_linear)"/>
<path d="M1918.95 407.582C1912.95 401.916 1898.34 396.898 1892.27 399.078C1883.02 404.067 1892.58 416.05 1875.92 413.75C1783.69 315.407 1681.74 152.421 1496.75 136.155C1360.48 122.787 1419.7 315.205 1309.44 323.155C1091.79 340.748 904.116 -24.7965 703.846 47.7186C600.33 85.9261 683.378 261.319 589.885 275.483C536.636 283.259 509.655 203.555 456.856 210.43C400.461 223.206 340.11 282.724 286.54 260.976C133.124 219.54 111.604 37.805 -92.2687 63.6927C-235.802 81.1918 -231.771 253.715 -324.157 322.761" stroke="url(#paint7_linear)"/>
<path d="M1918.77 408.227C1911.9 402.025 1894.75 396.426 1887.74 399.506C1877.02 405.863 1888.43 420.662 1869.86 419.512C1774.26 325.974 1672.13 159.79 1486.56 143.885C1352.43 130.815 1410.91 320.895 1302.14 328.961C1086 347.189 900 -18.4779 701.019 54.0954C597.414 92.7164 680.048 269.233 586.227 283.079C532.48 290.679 504.054 209.102 450.768 217.019C392.403 231.832 329.022 289.118 273.802 265.613C123.064 224.521 102.403 46.6334 -97.1758 71.515C-237.757 88.1944 -234.057 256.55 -324.509 323.871" stroke="url(#paint8_linear)"/>
<path d="M1918.59 408.871C1910.85 402.134 1891.16 395.953 1883.21 399.933C1871.02 407.659 1884.28 425.273 1863.8 425.274C1764.82 336.541 1662.52 167.159 1476.36 151.616C1344.38 138.843 1402.12 326.584 1294.85 334.767C1080.22 353.631 895.883 -12.1596 698.192 60.472C594.497 99.5064 676.718 277.146 582.569 290.674C528.324 298.1 498.451 214.649 444.68 223.609C384.346 240.458 317.934 295.511 261.064 270.25C113.003 229.502 93.2025 55.4616 -102.083 79.337C-239.712 95.1967 -236.343 259.385 -324.862 324.98" stroke="url(#paint9_linear)"/>
<path d="M1918.42 409.515C1909.81 402.243 1887.56 395.48 1878.68 400.36C1865.02 409.454 1880.13 429.883 1857.75 431.036C1755.39 347.107 1652.9 174.528 1466.17 159.346C1336.34 146.87 1393.32 332.273 1287.56 340.572C1074.44 360.072 891.767 -5.8417 695.366 66.848C591.582 106.296 673.389 285.059 578.912 298.269C524.169 305.52 492.85 220.196 438.593 230.197C376.289 249.083 306.846 301.904 248.327 274.886C102.944 234.482 84.0026 64.2893 -106.99 87.1586C-241.666 102.199 -238.628 262.219 -325.214 326.089" stroke="url(#paint10_linear)"/>
<path d="M1918.24 410.159C1908.76 402.352 1883.97 395.008 1874.14 400.788C1859.02 411.25 1875.98 434.495 1851.69 436.798C1745.96 357.674 1643.29 181.897 1455.97 167.077C1328.29 154.898 1384.53 337.962 1280.26 346.378C1068.65 366.513 887.651 0.476888 692.539 73.2248C588.665 113.086 670.06 292.973 575.254 305.865C520.013 312.94 487.248 225.743 432.505 236.787C368.232 257.709 295.758 308.297 235.589 279.524C92.8843 239.463 74.8023 73.1177 -111.897 94.9809C-243.62 109.201 -240.914 265.055 -325.566 327.199" stroke="url(#paint11_linear)"/>
<path d="M1918.06 410.803C1907.72 402.46 1880.38 394.536 1869.61 401.216C1853.02 413.046 1871.83 439.105 1845.63 442.56C1736.53 368.241 1633.68 189.266 1445.78 174.807C1320.24 162.925 1375.74 343.651 1272.97 352.184C1062.87 372.955 883.536 6.79498 689.714 79.6012C585.75 119.876 666.731 300.886 571.598 313.46C515.859 320.36 481.648 231.29 426.418 243.376C360.175 266.335 284.671 314.69 222.853 284.16C82.8254 244.443 65.6029 81.9457 -116.803 102.803C-245.574 116.203 -243.199 267.889 -325.918 328.308" stroke="url(#paint12_linear)"/>
<path d="M1917.89 411.447C1906.67 402.569 1876.78 394.063 1865.08 401.643C1847.02 414.841 1867.68 443.716 1839.57 448.322C1727.09 378.807 1624.06 196.635 1435.59 182.538C1312.19 170.953 1366.95 349.34 1265.68 357.99C1057.09 379.396 879.419 13.1131 686.888 85.9775C582.834 126.666 663.402 308.799 567.94 321.055C511.703 327.78 476.046 236.837 420.33 249.965C352.118 274.961 273.583 321.083 210.115 288.797C72.7659 249.424 56.4029 90.7736 -121.71 110.625C-247.528 123.205 -245.484 270.724 -326.27 329.418" stroke="url(#paint13_linear)"/>
<path d="M1917.71 412.092C1905.62 402.678 1873.19 393.591 1860.55 402.071C1841.02 416.637 1863.53 448.327 1833.52 454.085C1717.66 389.374 1614.45 204.004 1425.39 190.268C1304.15 178.98 1358.16 355.029 1258.39 363.796C1051.31 385.837 875.305 19.4314 684.062 92.3541C579.92 133.456 660.074 316.712 564.284 328.65C507.549 335.201 470.446 242.385 414.244 256.554C344.062 283.587 262.496 327.476 197.379 293.433C62.7075 254.405 47.2039 99.6018 -126.615 118.447C-249.481 130.208 -247.768 273.559 -326.621 330.527" stroke="url(#paint14_linear)"/>
<path d="M1917.54 412.736C1904.58 402.787 1869.6 393.119 1856.02 402.498C1835.02 418.433 1859.38 452.938 1827.46 459.847C1708.23 399.941 1604.84 211.373 1415.2 197.999C1296.1 187.008 1349.36 360.718 1251.09 369.602C1045.52 392.279 871.188 25.7498 681.236 98.7306C577.003 140.246 656.744 324.626 560.626 336.246C503.393 342.621 464.844 247.932 408.156 263.144C336.005 292.213 251.408 333.87 184.641 298.07C52.6474 259.385 38.0033 108.43 -131.523 126.269C-251.436 137.21 -250.054 276.394 -326.974 331.637" stroke="url(#paint15_linear)"/>
<path d="M1917.36 413.38C1903.53 402.895 1866 392.646 1851.49 402.926C1829.02 420.228 1855.23 457.549 1821.4 465.608C1698.79 410.508 1595.23 218.742 1405 205.729C1288.05 195.035 1340.57 366.407 1243.8 375.407C1039.74 398.72 867.071 32.0677 678.409 105.107C574.087 147.035 653.414 332.538 556.968 343.841C499.237 350.041 459.242 253.479 402.068 269.733C327.947 300.838 240.319 340.262 171.903 302.707C42.5871 264.366 28.8026 117.258 -136.43 134.09C-253.391 144.212 -252.341 279.229 -327.327 332.746" stroke="url(#paint16_linear)"/>
<path d="M1917.18 414.024C1902.48 403.005 1862.41 392.174 1846.95 403.353C1823.02 422.024 1851.08 462.16 1815.34 471.371C1689.36 421.075 1585.61 226.111 1394.81 213.46C1280 203.063 1331.78 372.096 1236.51 381.213C1033.96 405.162 862.956 38.3863 675.583 111.484C571.171 153.826 650.085 340.452 553.31 351.436C495.082 357.462 453.64 259.026 395.98 276.322C319.89 309.464 229.232 346.656 159.166 307.344C32.5277 269.347 19.6026 126.086 -141.337 141.913C-255.345 151.214 -254.626 282.064 -327.679 333.856" stroke="url(#paint17_linear)"/>
<path d="M1917.01 414.668C1901.43 403.114 1858.82 391.702 1842.42 403.781C1817.02 423.82 1846.93 466.771 1809.28 477.133C1679.93 431.642 1576 233.48 1384.61 221.19C1271.95 211.091 1322.99 377.785 1229.22 387.019C1028.18 411.603 858.839 44.7047 672.756 117.86C568.254 160.616 646.755 348.365 549.652 359.032C490.925 364.882 448.038 264.574 389.892 282.911C311.832 318.09 218.143 353.049 146.428 311.98C22.4676 274.327 10.4019 134.914 -146.244 149.735C-257.3 158.217 -256.912 284.899 -328.031 334.965" stroke="url(#paint18_linear)"/>
<path d="M1916.83 415.313C1900.39 403.222 1855.23 391.229 1837.89 404.209C1811.02 425.616 1842.78 471.382 1803.22 482.895C1670.5 442.208 1566.39 240.849 1374.42 228.921C1263.9 219.118 1314.2 383.474 1221.92 392.825C1022.39 418.044 854.725 51.0228 669.931 124.236C565.34 167.405 643.427 356.279 545.996 366.627C486.772 372.302 442.438 270.121 383.806 289.5C303.777 326.716 207.057 359.442 133.693 316.617C12.4099 279.308 1.2037 143.742 -151.149 157.557C-259.253 165.219 -259.196 287.734 -328.382 336.075" stroke="url(#paint19_linear)"/>
<path d="M1916.66 415.957C1899.34 403.331 1851.63 390.757 1833.36 404.636C1805.01 427.412 1838.62 475.993 1797.17 488.657C1661.06 452.775 1556.77 248.219 1364.22 236.651C1255.86 227.146 1305.4 389.164 1214.63 398.631C1016.61 424.486 850.608 57.3412 667.104 130.613C562.423 174.196 640.097 364.192 542.338 374.222C482.615 379.723 436.836 275.668 377.718 296.09C295.719 335.342 195.969 365.835 120.954 321.254C2.34948 284.289 -7.99731 152.571 -156.057 165.379C-261.208 172.221 -261.482 290.569 -328.735 337.184" stroke="url(#paint20_linear)"/>
<path d="M1916.48 416.601C1898.3 403.44 1848.04 390.285 1828.83 405.064C1799.02 429.207 1834.48 480.604 1791.11 494.42C1651.63 463.342 1547.16 255.588 1354.03 244.382C1247.81 235.173 1296.61 394.853 1207.34 404.437C1010.83 430.927 846.493 63.6596 664.279 136.99C559.509 180.986 636.769 372.105 538.682 381.818C478.461 387.143 431.236 281.215 371.631 302.679C287.663 343.968 184.882 372.229 108.218 325.891C-7.70905 289.269 -17.1962 161.399 -160.962 173.201C-263.161 179.224 -263.767 293.404 -329.086 338.294" stroke="url(#paint21_linear)"/>
<path d="M1916.3 417.245C1897.25 403.549 1844.44 389.812 1824.29 405.491C1793.01 431.003 1830.32 485.215 1785.05 500.181C1642.2 473.909 1537.55 262.956 1343.83 252.112C1239.76 243.201 1287.82 400.542 1200.04 410.242C1005.05 437.368 842.376 69.9775 661.451 143.366C556.591 187.775 633.439 380.018 535.023 389.413C474.304 394.563 425.633 286.762 365.542 309.268C279.605 352.593 173.792 378.621 95.4795 330.527C-17.77 294.25 -26.3976 170.227 -165.87 181.022C-265.117 186.226 -266.053 296.238 -329.44 339.403" stroke="url(#paint22_linear)"/>
<path d="M1916.13 417.89C1896.2 403.658 1840.85 389.34 1819.76 405.919C1787.01 432.799 1826.17 489.826 1778.99 505.944C1632.77 484.476 1527.93 270.326 1333.64 259.843C1231.71 251.229 1279.03 406.231 1192.75 416.048C999.263 443.81 838.26 76.2961 658.625 149.743C553.676 194.565 630.11 387.932 531.366 397.008C470.149 401.984 420.031 292.31 359.455 315.858C271.548 361.219 162.705 385.015 82.7423 335.164C-27.8293 299.231 -35.5976 179.055 -170.777 188.845C-267.071 193.228 -268.339 299.074 -329.792 340.513" stroke="url(#paint23_linear)"/>
<path d="M1915.95 418.533C1895.16 403.766 1837.26 388.867 1815.23 406.346C1781.01 434.594 1822.02 494.436 1772.93 511.705C1623.33 495.042 1518.32 277.694 1323.44 267.573C1223.66 259.256 1270.23 411.919 1185.46 421.854C993.481 450.251 834.144 82.6138 655.8 156.119C550.761 201.355 626.781 395.844 527.709 404.603C465.994 409.403 414.431 297.856 353.368 322.446C263.492 369.845 151.618 391.407 70.0058 339.8C-37.8881 304.211 -44.7969 187.883 -175.683 196.666C-269.024 200.23 -270.623 301.908 -330.143 341.622" stroke="url(#paint24_linear)"/>
<path d="M1915.78 419.178C1894.11 403.875 1833.67 388.395 1810.7 406.774C1775.01 436.39 1817.87 499.048 1766.87 517.468C1613.9 505.609 1508.71 285.064 1313.25 275.304C1215.62 267.284 1261.44 417.609 1178.17 427.66C987.698 456.693 830.029 88.9324 652.974 162.495C547.845 208.145 623.452 403.758 524.052 412.199C461.839 416.824 408.829 303.404 347.281 329.036C255.435 378.471 140.53 397.801 57.2687 344.437C-47.9474 309.192 -53.9968 196.711 -180.589 204.488C-270.979 207.233 -272.909 304.743 -330.495 342.731" stroke="url(#paint25_linear)"/>
<path d="M1915.6 419.822C1893.06 403.984 1830.07 387.922 1806.17 407.201C1769.01 438.186 1813.72 503.658 1760.82 523.229C1604.47 516.176 1499.1 292.432 1303.06 283.034C1207.57 275.311 1252.65 423.298 1170.88 433.465C981.917 463.134 825.914 95.2504 650.149 168.872C544.93 214.935 620.124 411.671 520.395 419.794C457.685 424.244 403.229 308.95 341.194 335.625C247.379 387.096 129.443 404.194 44.5325 349.074C-58.0059 314.172 -63.1957 205.539 -185.495 212.31C-272.932 214.234 -275.193 307.578 -330.846 343.84" stroke="url(#paint26_linear)"/>
<path d="M1915.42 420.466C1892.02 404.093 1826.48 387.45 1801.64 407.629C1763.01 439.982 1809.57 508.27 1754.76 528.992C1595.04 526.743 1489.48 299.802 1292.86 290.765C1199.52 283.339 1243.86 428.987 1163.58 439.272C976.134 469.575 821.797 101.569 647.322 175.248C542.014 221.725 616.794 419.585 516.737 427.389C453.529 431.665 397.627 314.498 335.106 342.214C239.321 395.722 118.355 410.587 31.7944 353.711C-68.0661 319.153 -72.3966 214.367 -190.403 220.132C-274.887 221.237 -277.479 310.413 -331.199 344.95" stroke="url(#paint27_linear)"/>
<path d="M1915.25 421.11C1890.97 404.202 1822.89 386.978 1797.1 408.056C1757.01 441.777 1805.42 512.88 1748.7 534.754C1585.6 537.309 1479.87 307.171 1282.67 298.495C1191.47 291.366 1235.06 434.676 1156.29 445.077C970.35 476.016 817.681 107.887 644.495 181.625C539.097 228.515 613.464 427.498 513.079 434.984C449.373 439.085 392.025 320.045 329.018 348.803C231.264 404.348 107.266 416.98 19.0565 358.347C-78.1263 324.133 -81.5972 223.195 -195.31 227.954C-276.842 228.239 -279.765 313.248 -331.552 346.059" stroke="url(#paint28_linear)"/>
<path d="M1915.07 421.754C1889.92 404.311 1819.29 386.505 1792.57 408.484C1751.01 443.573 1801.27 517.491 1742.64 540.516C1576.17 547.876 1470.26 314.54 1272.47 306.226C1183.42 299.394 1226.27 440.365 1149 450.883C964.569 482.458 813.566 114.205 641.67 188.001C536.183 235.305 610.136 435.411 509.423 442.58C445.219 446.505 386.425 325.592 322.932 355.393C223.208 412.974 96.1799 423.373 6.32056 362.984C-88.1845 329.114 -90.7959 232.024 -200.215 235.776C-278.795 235.241 -282.05 316.083 -331.902 347.169" stroke="url(#paint29_linear)"/>
<path d="M1914.9 422.399C1888.88 404.42 1815.7 386.033 1788.04 408.912C1745.01 445.369 1797.12 522.102 1736.59 546.278C1566.74 558.443 1460.65 321.909 1262.28 313.956C1175.38 307.421 1217.48 446.054 1141.7 456.689C958.787 488.899 809.451 120.524 638.844 194.378C533.267 242.095 606.807 443.324 505.766 450.175C441.064 453.925 380.824 331.139 316.845 361.982C215.152 421.6 85.0929 429.766 -6.41593 367.621C-98.2432 334.095 -99.9951 240.852 -205.121 243.598C-280.748 242.244 -284.334 318.918 -332.254 348.278" stroke="url(#paint30_linear)"/>
<path d="M1914.72 423.043C1887.83 404.529 1812.11 385.561 1783.51 409.339C1739.01 447.165 1792.97 526.713 1730.53 552.04C1557.3 569.01 1451.03 329.278 1252.08 321.687C1167.33 315.449 1208.69 451.743 1134.41 462.495C953.002 495.341 805.333 126.842 636.016 200.754C530.35 248.885 603.476 451.238 502.107 457.771C436.907 461.346 375.221 336.687 310.756 368.571C207.093 430.226 74.0032 436.16 -19.155 372.258C-108.305 339.076 -109.197 249.68 -210.03 251.42C-282.704 249.246 -286.621 321.753 -332.608 349.388" stroke="url(#paint31_linear)"/>
<path d="M1914.54 423.687C1886.78 404.637 1808.51 385.088 1778.98 409.766C1733.01 448.96 1788.82 531.324 1724.47 557.802C1547.87 579.576 1441.42 336.646 1241.89 329.417C1159.28 323.476 1199.9 457.432 1127.12 468.3C947.22 501.782 801.217 133.16 633.19 207.13C527.434 255.674 600.147 459.15 498.45 465.365C432.752 468.765 369.62 342.233 304.668 375.16C199.036 438.851 62.9158 442.552 -31.892 376.894C-118.364 344.056 -118.397 258.507 -214.936 259.242C-284.658 256.248 -288.907 324.587 -332.959 350.497" stroke="url(#paint32_linear)"/>
<path d="M1914.37 424.331C1885.74 404.746 1804.92 384.616 1774.44 410.194C1727.01 450.756 1784.67 535.935 1718.41 563.564C1538.44 590.144 1431.8 344.016 1231.69 337.148C1151.23 331.504 1191.1 463.121 1119.82 474.106C941.438 508.224 797.101 139.478 630.364 213.507C524.518 262.464 596.818 467.064 494.792 472.961C428.596 476.186 364.018 347.781 298.581 381.75C190.979 447.477 51.8278 448.946 -44.6295 381.531C-128.423 349.037 -127.597 267.336 -219.843 267.064C-286.613 263.25 -291.192 327.422 -333.312 351.607" stroke="url(#paint33_linear)"/>
<path d="M1914.19 424.975C1884.69 404.855 1801.33 384.143 1769.91 410.622C1721.01 452.551 1780.52 540.546 1712.35 569.326C1529.01 600.71 1422.19 351.385 1221.5 344.878C1143.18 339.531 1182.31 468.81 1112.53 479.912C935.655 514.665 792.986 145.797 627.538 219.884C521.603 269.254 593.489 474.977 491.135 480.556C424.441 483.606 358.417 353.328 292.494 388.339C182.922 456.103 40.7403 455.339 -57.3664 386.168C-138.483 354.017 -136.797 276.164 -224.749 274.886C-288.567 270.253 -293.477 330.257 -333.664 352.716" stroke="url(#paint34_linear)"/>
<path d="M1914.01 425.62C1883.64 404.964 1797.73 383.671 1765.38 411.05C1715 454.347 1776.37 545.157 1706.29 575.089C1519.57 611.277 1412.58 358.754 1211.3 352.609C1135.14 347.559 1173.52 474.5 1105.24 485.718C929.872 521.106 788.869 152.115 624.712 226.26C518.687 276.044 590.16 482.891 487.478 488.152C420.285 491.027 352.815 358.875 286.406 394.928C174.865 464.729 29.6523 461.732 -70.1039 390.804C-148.542 358.998 -145.997 284.992 -229.656 282.708C-290.521 277.255 -295.763 333.092 -334.016 353.826" stroke="url(#paint35_linear)"/>
<path d="M1913.84 426.264C1882.6 405.073 1794.14 383.199 1760.85 411.477C1709 456.143 1772.22 549.768 1700.24 580.851C1510.14 621.844 1402.97 366.123 1201.11 360.34C1127.09 355.587 1164.73 480.189 1097.95 491.524C924.09 527.548 784.754 158.433 621.886 232.637C515.771 282.835 586.831 490.804 483.82 495.747C416.13 498.447 347.214 364.423 280.319 401.518C166.808 473.355 18.5648 468.126 -82.8408 395.441C-158.601 363.979 -155.197 293.821 -234.563 290.53C-292.475 284.258 -298.048 335.927 -334.368 354.936" stroke="url(#paint36_linear)"/>
<path d="M1913.66 426.908C1881.55 405.182 1790.55 382.727 1756.32 411.905C1703 457.939 1768.07 554.379 1694.18 586.613C1500.71 632.411 1393.35 373.492 1190.91 368.07C1119.04 363.614 1155.93 485.878 1090.65 497.33C918.308 533.989 780.638 164.752 619.06 239.013C512.856 289.624 583.502 498.717 480.163 503.343C411.975 505.868 341.613 369.97 274.231 408.107C158.751 481.981 7.47715 474.519 -95.578 400.078C-168.661 368.96 -164.396 302.649 -239.469 298.352C-294.429 291.26 -300.333 338.762 -334.72 356.045" stroke="url(#paint37_linear)"/>
<path d="M1913.49 427.552C1880.51 405.291 1786.96 382.254 1751.79 412.332C1697 459.735 1763.92 558.99 1688.12 592.375C1491.28 642.978 1383.74 380.861 1180.72 375.801C1110.99 371.642 1147.14 491.567 1083.36 503.136C912.526 540.431 776.523 171.07 616.235 245.39C509.941 296.414 580.174 506.63 476.507 510.938C407.821 513.288 336.013 375.517 268.145 414.696C150.696 490.606 -3.60947 480.912 -108.314 404.715C-178.719 373.94 -173.595 311.477 -244.375 306.174C-296.382 298.262 -302.618 341.597 -335.071 357.154" stroke="url(#paint38_linear)"/>
<path d="M1913.31 428.197C1879.46 405.4 1783.36 381.782 1747.25 412.76C1691 461.531 1759.77 563.601 1682.06 598.138C1481.84 653.545 1374.13 388.231 1170.52 383.532C1102.94 379.67 1138.35 497.256 1076.07 508.942C906.743 546.873 772.407 177.389 613.408 251.767C507.024 303.205 576.844 514.544 472.849 518.534C403.665 520.709 330.41 381.064 262.057 421.286C142.638 499.233 -14.6979 487.305 -121.052 409.352C-188.779 378.921 -182.796 320.305 -249.282 313.997C-298.337 305.265 -304.904 344.432 -335.423 358.264" stroke="url(#paint39_linear)"/>
<path d="M1913.13 428.841C1878.41 405.509 1779.77 381.31 1742.72 413.188C1685 463.327 1755.62 568.212 1676 603.9C1472.41 664.112 1364.51 395.6 1160.33 391.262C1094.9 387.698 1129.56 502.946 1068.78 514.748C900.96 553.314 768.29 183.707 610.581 258.143C504.108 309.995 573.514 522.457 469.191 526.129C399.509 528.129 324.808 386.612 255.969 427.875C134.58 507.859 -25.7863 493.698 -133.79 413.988C-198.839 383.902 -191.997 329.133 -254.189 321.819C-300.292 312.267 -307.19 347.267 -335.776 359.374" stroke="url(#paint40_linear)"/>
<path d="M1912.96 429.486C1877.36 405.618 1776.18 380.838 1738.19 413.616C1679 465.123 1751.47 572.824 1669.94 609.662C1462.98 674.679 1354.9 402.969 1150.13 398.993C1086.85 395.726 1120.76 508.635 1061.48 520.554C895.177 559.756 764.174 190.026 607.754 264.52C501.192 316.785 570.184 530.371 465.533 533.725C395.353 535.55 319.207 392.159 249.881 434.465C126.523 516.485 -36.8743 500.092 -146.527 418.626C-208.899 388.883 -201.197 337.962 -259.096 329.641C-302.246 319.27 -309.475 350.103 -336.128 360.484" stroke="url(#paint41_linear)"/>
<path d="M1912.78 430.129C1876.32 405.726 1772.58 380.365 1733.66 414.043C1673 466.918 1747.32 577.434 1663.89 615.424C1453.54 685.245 1345.29 410.338 1139.94 406.723C1078.8 403.753 1111.97 514.324 1054.19 526.359C889.394 566.197 760.058 196.343 604.928 270.896C498.276 323.574 566.855 538.284 461.875 541.319C391.198 542.969 313.605 397.706 243.793 441.053C118.466 525.11 -47.9623 506.485 -159.265 423.262C-218.959 393.863 -210.397 346.789 -264.003 337.462C-304.201 326.271 -311.761 352.937 -336.481 361.593" stroke="url(#paint42_linear)"/>
<path d="M1912.61 430.774C1875.27 405.835 1768.99 379.893 1729.13 414.471C1667 468.714 1743.17 582.045 1657.83 621.186C1444.11 695.812 1335.67 417.707 1129.75 414.454C1070.75 411.78 1103.18 520.013 1046.9 532.166C883.612 572.638 755.942 202.662 602.102 277.273C495.361 330.365 563.526 546.197 458.219 548.915C387.043 550.39 308.004 403.253 237.706 447.643C110.41 533.736 -59.0495 512.878 -172.001 427.899C-229.018 398.844 -219.596 355.618 -268.909 345.285C-306.154 333.274 -314.046 355.772 -336.832 362.702" stroke="url(#paint43_linear)"/>
<path d="M1912.43 431.419C1874.22 405.945 1765.4 379.421 1724.59 414.899C1661 470.51 1739.02 586.657 1651.77 626.949C1434.68 706.38 1326.06 425.077 1119.55 422.185C1062.7 419.808 1094.39 525.702 1039.6 537.972C877.83 579.08 751.826 208.981 599.277 283.65C492.445 337.155 560.198 554.111 454.561 556.511C382.888 557.811 302.403 408.801 231.619 454.232C102.353 542.362 -70.1369 519.272 -184.738 432.536C-239.077 403.825 -228.796 364.446 -273.816 353.107C-308.108 340.277 -316.331 358.608 -337.184 363.812" stroke="url(#paint44_linear)"/>
<path d="M1912.25 432.062C1873.18 406.053 1761.8 378.948 1720.06 415.326C1655 472.306 1734.87 591.267 1645.71 632.71C1425.25 716.946 1316.45 432.445 1109.36 429.915C1054.66 427.836 1085.6 531.391 1032.31 543.777C872.047 585.521 747.711 215.299 596.45 290.026C489.529 343.945 556.869 562.024 450.904 564.106C378.733 565.231 296.802 414.348 225.532 460.821C94.2961 550.988 -81.2246 525.664 -197.476 437.172C-249.136 408.806 -237.996 373.274 -278.722 360.929C-310.063 347.279 -318.617 361.442 -337.536 364.921" stroke="url(#paint45_linear)"/>
<path d="M1912.08 432.707C1872.13 406.162 1758.21 378.476 1715.53 415.754C1649 474.102 1730.72 595.879 1639.65 638.473C1415.81 727.513 1306.84 439.815 1099.16 437.646C1046.61 435.864 1076.8 537.081 1025.02 549.584C866.265 591.963 743.595 221.617 593.625 296.403C486.614 350.735 553.54 569.937 447.247 571.701C374.578 572.651 291.201 419.895 219.444 467.411C86.2396 559.614 -92.3119 532.058 -210.212 441.809C-259.195 413.786 -247.196 382.103 -283.629 368.751C-312.016 354.281 -320.901 364.277 -337.888 366.031" stroke="url(#paint46_linear)"/>
<path d="M1911.9 433.351C1871.09 406.271 1754.62 378.004 1711 416.182C1643 475.897 1726.57 600.49 1633.6 644.235C1406.38 738.08 1297.22 447.184 1088.97 445.377C1038.56 443.891 1068.01 542.77 1017.73 555.39C860.483 598.404 739.48 227.936 590.799 302.779C483.698 357.525 550.211 577.851 443.59 579.297C370.423 580.072 285.599 425.443 213.357 474C78.1828 568.24 -103.4 538.451 -222.949 446.446C-269.255 418.767 -256.395 390.931 -288.535 376.573C-313.97 361.284 -323.186 367.113 -338.239 367.141" stroke="url(#paint47_linear)"/>
<path d="M1911.73 433.996C1870.04 406.381 1751.03 377.532 1706.47 416.61C1637 477.693 1722.42 605.101 1627.54 649.997C1396.95 748.647 1287.61 454.553 1078.77 453.107C1030.51 451.919 1059.22 548.459 1010.43 561.196C854.7 604.846 735.364 234.254 587.973 309.156C480.783 364.315 546.882 585.764 439.933 586.892C366.267 587.492 279.998 430.99 207.27 480.59C70.126 576.866 -114.487 544.845 -235.687 451.083C-279.314 423.748 -265.595 399.759 -293.441 384.395C-315.924 368.286 -325.472 369.948 -338.591 368.25" stroke="url(#paint48_linear)"/>
<path d="M1911.55 434.64C1868.99 406.489 1747.43 377.06 1701.93 417.037C1631 479.489 1718.27 609.712 1621.48 655.759C1387.51 759.214 1278 461.922 1068.58 460.838C1022.46 459.947 1050.43 554.148 1003.14 567.001C848.917 611.287 731.247 240.572 585.146 315.532C477.866 371.105 543.552 593.678 436.275 594.488C362.111 594.913 274.396 436.537 201.182 487.179C62.0683 585.492 -125.576 551.238 -248.425 455.72C-289.374 428.729 -274.796 408.587 -298.349 392.217C-317.879 375.288 -327.758 372.783 -338.944 369.36" stroke="url(#paint49_linear)"/>
<path d="M1911.38 435.284C1867.95 406.598 1743.84 376.588 1697.4 417.465C1624.99 481.285 1714.12 614.323 1615.42 661.522C1378.08 769.781 1268.38 469.292 1058.38 468.569C1014.42 467.975 1041.64 559.838 995.849 572.808C843.135 617.729 727.132 246.891 582.32 321.909C474.951 377.895 540.223 601.591 432.618 602.083C357.956 602.333 268.795 442.085 195.094 493.768C54.0116 594.118 -136.663 557.631 -261.162 460.357C-299.433 433.71 -283.996 417.416 -303.255 400.04C-319.833 382.291 -330.043 375.618 -339.296 370.47" stroke="url(#paint50_linear)"/>
<path d="M1911.2 435.928C1866.9 406.707 1740.25 376.115 1692.87 417.892C1618.99 483.08 1709.97 618.934 1609.36 667.283C1368.65 780.348 1258.77 476.66 1048.19 476.299C1006.37 476.002 1032.84 565.526 988.556 578.613C837.352 624.17 723.016 253.209 579.494 328.285C472.035 384.685 536.894 609.504 428.96 609.678C353.801 609.753 263.194 447.631 189.007 500.357C45.955 602.743 -147.751 564.024 -273.898 464.993C-309.493 438.69 -293.196 426.243 -308.162 407.861C-321.787 389.293 -332.328 378.452 -339.648 371.579" stroke="url(#paint51_linear)"/>
<defs>
<linearGradient id="paint0_linear" x1="798.977" y1="-0.000244141" x2="798.977" y2="403.718" gradientUnits="userSpaceOnUse">
<stop stop-color="#333399"/>
<stop offset="1" stop-color="#333399" stop-opacity="0"/>
</linearGradient>
<linearGradient id="paint1_linear" x1="785.511" y1="324.583" x2="785.511" y2="700" gradientUnits="userSpaceOnUse">
<stop stop-color="#333399"/>
<stop offset="1" stop-color="#333399" stop-opacity="0"/>
</linearGradient>
<linearGradient id="paint2_linear" x1="798.714" y1="6.36426" x2="798.714" y2="404.362" gradientUnits="userSpaceOnUse">
<stop stop-color="#333399"/>
<stop offset="1" stop-color="#333399" stop-opacity="0"/>
</linearGradient>
<linearGradient id="paint3_linear" x1="798.451" y1="12.7285" x2="798.451" y2="405.006" gradientUnits="userSpaceOnUse">
<stop stop-color="#333399"/>
<stop offset="1" stop-color="#333399" stop-opacity="0"/>
</linearGradient>
<linearGradient id="paint4_linear" x1="798.184" y1="19.093" x2="798.184" y2="405.65" gradientUnits="userSpaceOnUse">
<stop stop-color="#333399"/>
<stop offset="1" stop-color="#333399" stop-opacity="0"/>
</linearGradient>
<linearGradient id="paint5_linear" x1="797.92" y1="25.4573" x2="797.92" y2="406.294" gradientUnits="userSpaceOnUse">
<stop stop-color="#333399"/>
<stop offset="1" stop-color="#333399" stop-opacity="0"/>
</linearGradient>
<linearGradient id="paint6_linear" x1="797.659" y1="31.8213" x2="797.659" y2="408.751" gradientUnits="userSpaceOnUse">
<stop stop-color="#333399"/>
<stop offset="1" stop-color="#333399" stop-opacity="0"/>
</linearGradient>
<linearGradient id="paint7_linear" x1="797.394" y1="38.1855" x2="797.394" y2="414.04" gradientUnits="userSpaceOnUse">
<stop stop-color="#333399"/>
<stop offset="1" stop-color="#333399" stop-opacity="0"/>
</linearGradient>
<linearGradient id="paint8_linear" x1="797.13" y1="44.5503" x2="797.13" y2="419.576" gradientUnits="userSpaceOnUse">
<stop stop-color="#333399"/>
<stop offset="1" stop-color="#333399" stop-opacity="0"/>
</linearGradient>
<linearGradient id="paint9_linear" x1="796.865" y1="50.9148" x2="796.865" y2="425.274" gradientUnits="userSpaceOnUse">
<stop stop-color="#333399"/>
<stop offset="1" stop-color="#333399" stop-opacity="0"/>
</linearGradient>
<linearGradient id="paint10_linear" x1="796.601" y1="57.2788" x2="796.601" y2="431.036" gradientUnits="userSpaceOnUse">
<stop stop-color="#333399"/>
<stop offset="1" stop-color="#333399" stop-opacity="0"/>
</linearGradient>
<linearGradient id="paint11_linear" x1="796.336" y1="63.6436" x2="796.336" y2="436.798" gradientUnits="userSpaceOnUse">
<stop stop-color="#333399"/>
<stop offset="1" stop-color="#333399" stop-opacity="0"/>
</linearGradient>
<linearGradient id="paint12_linear" x1="796.073" y1="70.0078" x2="796.073" y2="442.56" gradientUnits="userSpaceOnUse">
<stop stop-color="#333399"/>
<stop offset="1" stop-color="#333399" stop-opacity="0"/>
</linearGradient>
<linearGradient id="paint13_linear" x1="795.809" y1="76.3721" x2="795.809" y2="448.322" gradientUnits="userSpaceOnUse">
<stop stop-color="#333399"/>
<stop offset="1" stop-color="#333399" stop-opacity="0"/>
</linearGradient>
<linearGradient id="paint14_linear" x1="795.546" y1="82.7366" x2="795.546" y2="454.085" gradientUnits="userSpaceOnUse">
<stop stop-color="#333399"/>
<stop offset="1" stop-color="#333399" stop-opacity="0"/>
</linearGradient>
<linearGradient id="paint15_linear" x1="795.281" y1="89.1011" x2="795.281" y2="459.847" gradientUnits="userSpaceOnUse">
<stop stop-color="#333399"/>
<stop offset="1" stop-color="#333399" stop-opacity="0"/>
</linearGradient>
<linearGradient id="paint16_linear" x1="795.016" y1="95.4651" x2="795.016" y2="465.608" gradientUnits="userSpaceOnUse">
<stop stop-color="#333399"/>
<stop offset="1" stop-color="#333399" stop-opacity="0"/>
</linearGradient>
<linearGradient id="paint17_linear" x1="794.752" y1="101.83" x2="794.752" y2="471.371" gradientUnits="userSpaceOnUse">
<stop stop-color="#333399"/>
<stop offset="1" stop-color="#333399" stop-opacity="0"/>
</linearGradient>
<linearGradient id="paint18_linear" x1="794.488" y1="108.194" x2="794.488" y2="477.133" gradientUnits="userSpaceOnUse">
<stop stop-color="#333399"/>
<stop offset="1" stop-color="#333399" stop-opacity="0"/>
</linearGradient>
<linearGradient id="paint19_linear" x1="794.225" y1="114.559" x2="794.225" y2="482.895" gradientUnits="userSpaceOnUse">
<stop stop-color="#333399"/>
<stop offset="1" stop-color="#333399" stop-opacity="0"/>
</linearGradient>
<linearGradient id="paint20_linear" x1="793.96" y1="120.923" x2="793.96" y2="488.657" gradientUnits="userSpaceOnUse">
<stop stop-color="#333399"/>
<stop offset="1" stop-color="#333399" stop-opacity="0"/>
</linearGradient>
<linearGradient id="paint21_linear" x1="793.697" y1="127.288" x2="793.697" y2="494.419" gradientUnits="userSpaceOnUse">
<stop stop-color="#333399"/>
<stop offset="1" stop-color="#333399" stop-opacity="0"/>
</linearGradient>
<linearGradient id="paint22_linear" x1="793.432" y1="133.652" x2="793.432" y2="500.181" gradientUnits="userSpaceOnUse">
<stop stop-color="#333399"/>
<stop offset="1" stop-color="#333399" stop-opacity="0"/>
</linearGradient>
<linearGradient id="paint23_linear" x1="793.168" y1="140.016" x2="793.168" y2="505.944" gradientUnits="userSpaceOnUse">
<stop stop-color="#333399"/>
<stop offset="1" stop-color="#333399" stop-opacity="0"/>
</linearGradient>
<linearGradient id="paint24_linear" x1="792.904" y1="146.38" x2="792.904" y2="511.705" gradientUnits="userSpaceOnUse">
<stop stop-color="#333399"/>
<stop offset="1" stop-color="#333399" stop-opacity="0"/>
</linearGradient>
<linearGradient id="paint25_linear" x1="792.64" y1="152.745" x2="792.64" y2="517.468" gradientUnits="userSpaceOnUse">
<stop stop-color="#333399"/>
<stop offset="1" stop-color="#333399" stop-opacity="0"/>
</linearGradient>
<linearGradient id="paint26_linear" x1="792.377" y1="159.109" x2="792.377" y2="523.229" gradientUnits="userSpaceOnUse">
<stop stop-color="#333399"/>
<stop offset="1" stop-color="#333399" stop-opacity="0"/>
</linearGradient>
<linearGradient id="paint27_linear" x1="792.113" y1="165.474" x2="792.113" y2="528.992" gradientUnits="userSpaceOnUse">
<stop stop-color="#333399"/>
<stop offset="1" stop-color="#333399" stop-opacity="0"/>
</linearGradient>
<linearGradient id="paint28_linear" x1="791.848" y1="171.838" x2="791.848" y2="534.775" gradientUnits="userSpaceOnUse">
<stop stop-color="#333399"/>
<stop offset="1" stop-color="#333399" stop-opacity="0"/>
</linearGradient>
<linearGradient id="paint29_linear" x1="791.585" y1="178.202" x2="791.585" y2="540.686" gradientUnits="userSpaceOnUse">
<stop stop-color="#333399"/>
<stop offset="1" stop-color="#333399" stop-opacity="0"/>
</linearGradient>
<linearGradient id="paint30_linear" x1="791.321" y1="184.566" x2="791.321" y2="546.731" gradientUnits="userSpaceOnUse">
<stop stop-color="#333399"/>
<stop offset="1" stop-color="#333399" stop-opacity="0"/>
</linearGradient>
<linearGradient id="paint31_linear" x1="791.056" y1="190.931" x2="791.056" y2="552.9" gradientUnits="userSpaceOnUse">
<stop stop-color="#333399"/>
<stop offset="1" stop-color="#333399" stop-opacity="0"/>
</linearGradient>
<linearGradient id="paint32_linear" x1="790.792" y1="197.295" x2="790.792" y2="559.182" gradientUnits="userSpaceOnUse">
<stop stop-color="#333399"/>
<stop offset="1" stop-color="#333399" stop-opacity="0"/>
</linearGradient>
<linearGradient id="paint33_linear" x1="790.528" y1="203.659" x2="790.528" y2="565.571" gradientUnits="userSpaceOnUse">
<stop stop-color="#333399"/>
<stop offset="1" stop-color="#333399" stop-opacity="0"/>
</linearGradient>
<linearGradient id="paint34_linear" x1="790.264" y1="210.024" x2="790.264" y2="572.057" gradientUnits="userSpaceOnUse">
<stop stop-color="#333399"/>
<stop offset="1" stop-color="#333399" stop-opacity="0"/>
</linearGradient>
<linearGradient id="paint35_linear" x1="789.999" y1="216.388" x2="789.999" y2="578.635" gradientUnits="userSpaceOnUse">
<stop stop-color="#333399"/>
<stop offset="1" stop-color="#333399" stop-opacity="0"/>
</linearGradient>
<linearGradient id="paint36_linear" x1="789.736" y1="222.753" x2="789.736" y2="585.298" gradientUnits="userSpaceOnUse">
<stop stop-color="#333399"/>
<stop offset="1" stop-color="#333399" stop-opacity="0"/>
</linearGradient>
<linearGradient id="paint37_linear" x1="789.472" y1="229.117" x2="789.472" y2="592.041" gradientUnits="userSpaceOnUse">
<stop stop-color="#333399"/>
<stop offset="1" stop-color="#333399" stop-opacity="0"/>
</linearGradient>
<linearGradient id="paint38_linear" x1="789.209" y1="235.481" x2="789.209" y2="598.857" gradientUnits="userSpaceOnUse">
<stop stop-color="#333399"/>
<stop offset="1" stop-color="#333399" stop-opacity="0"/>
</linearGradient>
<linearGradient id="paint39_linear" x1="788.944" y1="241.846" x2="788.944" y2="605.744" gradientUnits="userSpaceOnUse">
<stop stop-color="#333399"/>
<stop offset="1" stop-color="#333399" stop-opacity="0"/>
</linearGradient>
<linearGradient id="paint40_linear" x1="788.679" y1="248.21" x2="788.679" y2="612.695" gradientUnits="userSpaceOnUse">
<stop stop-color="#333399"/>
<stop offset="1" stop-color="#333399" stop-opacity="0"/>
</linearGradient>
<linearGradient id="paint41_linear" x1="788.415" y1="254.575" x2="788.415" y2="619.708" gradientUnits="userSpaceOnUse">
<stop stop-color="#333399"/>
<stop offset="1" stop-color="#333399" stop-opacity="0"/>
</linearGradient>
<linearGradient id="paint42_linear" x1="788.151" y1="260.939" x2="788.151" y2="626.777" gradientUnits="userSpaceOnUse">
<stop stop-color="#333399"/>
<stop offset="1" stop-color="#333399" stop-opacity="0"/>
</linearGradient>
<linearGradient id="paint43_linear" x1="787.887" y1="267.303" x2="787.887" y2="633.901" gradientUnits="userSpaceOnUse">
<stop stop-color="#333399"/>
<stop offset="1" stop-color="#333399" stop-opacity="0"/>
</linearGradient>
<linearGradient id="paint44_linear" x1="787.623" y1="273.668" x2="787.623" y2="641.076" gradientUnits="userSpaceOnUse">
<stop stop-color="#333399"/>
<stop offset="1" stop-color="#333399" stop-opacity="0"/>
</linearGradient>
<linearGradient id="paint45_linear" x1="787.359" y1="280.032" x2="787.359" y2="648.298" gradientUnits="userSpaceOnUse">
<stop stop-color="#333399"/>
<stop offset="1" stop-color="#333399" stop-opacity="0"/>
</linearGradient>
<linearGradient id="paint46_linear" x1="787.096" y1="286.396" x2="787.096" y2="655.566" gradientUnits="userSpaceOnUse">
<stop stop-color="#333399"/>
<stop offset="1" stop-color="#333399" stop-opacity="0"/>
</linearGradient>
<linearGradient id="paint47_linear" x1="786.832" y1="292.761" x2="786.832" y2="662.877" gradientUnits="userSpaceOnUse">
<stop stop-color="#333399"/>
<stop offset="1" stop-color="#333399" stop-opacity="0"/>
</linearGradient>
<linearGradient id="paint48_linear" x1="786.568" y1="299.125" x2="786.568" y2="670.229" gradientUnits="userSpaceOnUse">
<stop stop-color="#333399"/>
<stop offset="1" stop-color="#333399" stop-opacity="0"/>
</linearGradient>
<linearGradient id="paint49_linear" x1="786.303" y1="305.49" x2="786.303" y2="677.619" gradientUnits="userSpaceOnUse">
<stop stop-color="#333399"/>
<stop offset="1" stop-color="#333399" stop-opacity="0"/>
</linearGradient>
<linearGradient id="paint50_linear" x1="786.039" y1="311.854" x2="786.039" y2="685.045" gradientUnits="userSpaceOnUse">
<stop stop-color="#333399"/>
<stop offset="1" stop-color="#333399" stop-opacity="0"/>
</linearGradient>
<linearGradient id="paint51_linear" x1="785.776" y1="318.218" x2="785.776" y2="692.506" gradientUnits="userSpaceOnUse">
<stop stop-color="#333399"/>
<stop offset="1" stop-color="#333399" stop-opacity="0"/>
</linearGradient>
</defs>
</svg>
