<svg width="993" height="2200" viewBox="0 0 993 2200" fill="none" xmlns="http://www.w3.org/2000/svg">
<mask id="mask0" mask-type="alpha" maskUnits="userSpaceOnUse" x="0" y="0" width="993" height="2200">
<path d="M993 0H722.441H7.33137e-06V2200H993V0Z" fill="#242424"/>
</mask>
<g mask="url(#mask0)">
<g opacity="0.5">
<path d="M3066.87 1206.05C3064.12 1190.89 3071.66 1187.13 3053.11 1130.25C2925.01 737.428 2745.51 293.244 2422.52 236.3C2157.09 189.504 2270.43 827.208 2058.19 849.599C1654.74 892.162 1302.97 -234.69 932.801 -11.776C749.544 98.5809 901.748 619.537 738.875 669.18C649.431 696.442 616.857 484.958 528.087 486.882C448.756 488.601 373.719 713.828 295.998 679.203C-5.60957 544.836 -53.0828 -87.8357 -461.731 10.7764C-748.684 80.0219 -737.974 690.166 -923.025 935.423" stroke="url(#paint0_linear)" stroke-linecap="round" stroke-linejoin="round"/>
<path d="M3050.89 1307.54C2970.51 1215.62 2740.59 1119.33 2654.61 1251.16C2520.52 1456.74 2685.71 1885.08 2503.28 2037.98C2068.91 2402.07 1873.05 1454.13 1497.27 1454.13C1426.66 1454.13 1472.46 1723.44 1396.31 1764.22C1129.92 1906.91 929.416 760.658 676.303 992.743C484.912 1168.23 599.598 1866.15 406.938 1865.71C272.3 1865.4 108.484 1358.83 -24.4018 1524.92C-282.479 1847.47 -632.587 1720.97 -860.012 1409.65C-918.589 1329.46 -888.057 1302.9 -907.051 1243.01C-926.044 1183.12 -945.392 1136.76 -954.977 1110.2" stroke="url(#paint1_linear)" stroke-linecap="round" stroke-linejoin="round"/>
<path d="M3066.55 1208.04C3063.63 1198.81 3060.3 1192.28 3057.85 1185.12C3054.46 1179.4 3055 1172.93 3042.33 1148.05C2908.22 770.068 2728.4 316.007 2404.38 260.179C2142.77 214.301 2254.78 844.781 2045.21 867.533C1644.45 912.06 1295.64 -215.173 927.771 7.92069C744.355 119.555 895.823 643.981 732.366 692.641C642.036 719.363 606.889 502.093 517.253 507.235C434.418 515.245 353.987 733.576 273.331 693.526C-23.5115 560.221 -69.4551 -60.5662 -470.463 34.9381C-752.162 101.652 -742.042 698.923 -923.652 938.85" stroke="url(#paint2_linear)"/>
<path d="M3066.24 1210.03C3061.77 1199.14 3053.91 1190.82 3049.79 1186.44C3043.78 1184.94 3047.62 1187.18 3031.55 1165.85C2891.44 802.707 2711.3 338.768 2386.24 284.057C2128.45 239.096 2239.14 862.353 2032.24 885.465C1634.16 931.955 1288.32 -195.658 922.747 27.6161C739.171 140.527 889.904 668.423 725.863 716.102C634.646 742.282 596.926 519.227 506.426 527.588C420.085 541.889 334.261 753.323 250.669 707.847C-41.4077 575.604 -85.822 -33.2978 -479.19 59.0985C-755.635 123.28 -746.103 707.679 -924.273 942.276" stroke="url(#paint3_linear)"/>
<path d="M3065.93 1212.02C3059.91 1199.48 3047.51 1189.36 3041.72 1187.76C3033.1 1190.49 3040.23 1201.42 3020.77 1183.64C2874.65 835.347 2694.19 361.531 2368.1 307.936C2114.13 263.892 2223.49 879.926 2019.26 903.399C1623.87 951.852 1281 -176.141 917.715 47.3126C733.98 161.501 883.977 692.866 719.352 739.563C627.249 765.203 586.955 536.361 495.59 547.942C405.745 568.533 314.527 773.071 228 722.169C-59.3116 590.989 -102.196 -6.02851 -487.924 83.26C-759.115 144.909 -750.173 716.436 -924.902 945.703" stroke="url(#paint4_linear)"/>
<path d="M3065.61 1214.01C3058.04 1199.81 3041.11 1187.9 3033.65 1189.08C3022.42 1196.04 3032.84 1215.66 3009.99 1201.44C2857.87 867.986 2677.08 384.292 2349.95 331.814C2099.8 288.688 2207.84 897.498 2006.28 921.332C1613.58 971.748 1273.67 -156.625 912.685 67.0081C728.79 182.473 878.052 717.309 712.843 763.023C619.854 788.123 576.986 553.495 484.756 568.294C391.406 595.177 294.795 792.818 205.332 736.491C-77.2141 606.373 -118.569 21.2399 -496.656 107.42C-762.593 166.538 -754.241 725.192 -925.529 949.129" stroke="url(#paint5_linear)"/>
<path d="M3065.3 1216C3056.18 1200.15 3034.72 1186.44 3025.59 1190.4C3011.75 1201.58 3025.46 1229.9 2999.21 1219.24C2841.08 900.626 2659.98 407.054 2331.81 355.693C2085.48 313.485 2192.2 915.071 1993.3 939.265C1603.29 991.645 1266.35 -137.109 907.656 86.7044C723.602 203.447 872.128 741.752 706.335 786.484C612.46 811.043 567.019 570.63 473.924 588.648C377.069 621.821 275.064 812.566 182.666 750.813C-95.115 621.758 -134.941 48.5091 -505.388 131.582C-766.07 188.167 -758.307 733.948 -926.155 952.556" stroke="url(#paint6_linear)"/>
<path d="M3064.99 1217.99C3054.32 1200.49 3028.33 1184.99 3017.53 1191.72C3001.07 1207.13 3018.07 1244.15 2988.43 1237.04C2824.29 933.267 2642.87 429.817 2313.67 379.572C2071.16 338.282 2176.55 932.645 1980.32 957.2C1593 1011.54 1259.02 -117.592 902.627 106.401C718.413 224.421 866.204 766.196 699.827 809.946C605.065 833.965 557.051 587.765 463.091 609.002C362.731 648.466 255.333 832.314 159.999 765.136C-113.016 637.143 -151.312 75.779 -514.119 155.744C-769.548 209.797 -762.374 742.706 -926.781 955.984" stroke="url(#paint7_linear)"/>
<path d="M3064.67 1219.98C3052.45 1200.82 3021.93 1183.53 3009.46 1193.04C2990.39 1212.68 3010.68 1258.39 2977.64 1254.84C2807.51 965.906 2625.76 452.579 2295.52 403.451C2056.84 363.078 2160.9 950.218 1967.34 975.133C1582.7 1031.44 1251.7 -98.0754 897.595 126.097C713.221 245.394 860.276 790.639 693.315 833.407C597.667 856.885 547.08 604.899 452.255 629.355C348.39 675.11 235.598 852.062 137.329 779.458C-130.921 652.528 -167.687 103.048 -522.854 179.905C-773.028 231.426 -766.444 751.462 -927.411 959.411" stroke="url(#paint8_linear)"/>
<path d="M3064.36 1221.97C3050.59 1201.16 3015.54 1182.07 3001.39 1194.36C2979.71 1218.22 3003.3 1272.63 2966.86 1272.64C2790.72 998.545 2608.65 475.34 2277.38 427.328C2042.51 387.873 2145.25 967.79 1954.36 993.066C1572.41 1051.33 1244.37 -78.5602 892.566 145.792C708.033 266.366 854.352 815.081 686.806 856.867C590.273 879.804 537.112 622.033 441.422 649.707C334.053 701.753 215.867 871.808 114.663 793.779C-148.822 667.911 -184.059 130.316 -531.585 204.065C-776.506 253.054 -770.51 760.218 -928.037 962.836" stroke="url(#paint9_linear)"/>
<path d="M3064.05 1223.96C3048.73 1201.49 3009.14 1180.61 2993.33 1195.68C2969.03 1223.77 2995.91 1286.87 2956.08 1290.44C2773.93 1031.19 2591.55 498.104 2259.24 451.208C2028.19 412.67 2129.61 985.364 1941.39 1011C1562.12 1071.23 1237.05 -59.0424 887.537 165.49C702.845 287.341 848.429 839.525 680.299 880.329C582.879 902.726 527.145 639.169 430.59 670.062C319.716 728.399 196.137 891.557 91.9969 808.103C-166.723 683.297 -200.43 157.586 -540.316 228.227C-779.982 274.685 -774.577 768.975 -928.663 966.264" stroke="url(#paint10_linear)"/>
<path d="M3063.73 1225.95C3046.87 1201.83 3002.75 1179.15 2985.26 1197C2958.35 1229.32 2988.53 1301.12 2945.3 1308.23C2757.15 1063.82 2574.44 520.865 2241.1 475.086C2013.87 437.466 2113.96 1002.94 1928.41 1028.93C1551.83 1091.13 1229.72 -39.5267 882.506 185.186C697.654 308.314 842.502 863.968 673.788 903.79C575.483 925.646 517.175 656.302 419.755 690.415C305.376 755.042 176.403 911.304 69.328 822.424C-184.626 698.681 -216.805 184.855 -549.05 252.388C-783.462 296.313 -778.646 777.731 -929.292 969.69" stroke="url(#paint11_linear)"/>
<path d="M3063.42 1227.94C3045 1202.17 2996.35 1177.69 2977.2 1198.32C2947.67 1234.86 2981.14 1315.36 2934.52 1326.03C2740.36 1096.46 2557.33 543.627 2222.95 498.965C1999.55 462.262 2098.31 1020.51 1915.43 1046.87C1541.54 1111.03 1222.4 -20.0105 877.476 204.882C692.464 329.287 836.577 888.411 667.279 927.251C568.087 948.566 507.206 673.437 408.92 710.768C291.037 781.686 156.671 931.051 46.6603 836.747C-202.529 714.065 -233.177 212.124 -557.782 276.549C-786.94 317.942 -782.713 786.488 -929.919 973.117" stroke="url(#paint12_linear)"/>
<path d="M3063.11 1229.93C3043.14 1202.5 2989.96 1176.23 2969.14 1199.64C2936.99 1240.41 2973.76 1329.6 2923.74 1343.83C2723.58 1129.1 2540.23 566.39 2204.82 522.844C1985.23 487.058 2082.67 1038.08 1902.45 1064.8C1531.25 1130.92 1215.08 -0.494116 872.45 224.578C687.279 350.26 830.656 912.854 660.774 950.712C560.696 971.487 497.241 690.571 398.091 731.121C276.702 808.331 136.943 950.799 23.9972 851.069C-220.426 729.45 -249.546 239.393 -566.51 300.71C-790.414 339.571 -786.777 795.245 -930.541 976.544" stroke="url(#paint13_linear)"/>
<path d="M3062.79 1231.92C3041.28 1202.84 2983.56 1174.77 2961.07 1200.96C2926.31 1245.96 2966.37 1343.85 2912.96 1361.63C2706.79 1161.74 2523.12 589.152 2186.67 546.723C1970.9 511.855 2067.02 1055.66 1889.47 1082.73C1520.96 1150.82 1207.75 19.0228 867.418 244.275C682.088 371.234 824.729 937.298 654.263 974.174C553.299 994.408 487.271 707.707 387.256 751.475C262.362 834.976 117.209 970.547 1.32785 865.392C-238.331 744.835 -265.92 266.662 -575.245 324.872C-793.895 361.201 -790.846 804.002 -931.171 979.971" stroke="url(#paint14_linear)"/>
<path d="M3062.48 1233.91C3039.41 1203.18 2977.17 1173.31 2953 1202.28C2915.63 1251.5 2958.98 1358.09 2902.18 1379.43C2690 1194.39 2506.01 611.915 2168.53 570.602C1956.58 536.652 2051.37 1073.23 1876.49 1100.67C1510.67 1170.72 1200.42 38.5399 862.387 263.971C676.897 392.208 818.802 961.742 647.752 997.635C545.902 1017.33 477.301 724.842 376.421 771.829C248.022 861.62 97.4756 990.296 -21.3408 879.714C-256.234 760.22 -282.294 293.932 -583.979 349.034C-797.374 382.831 -794.915 812.759 -931.799 983.399" stroke="url(#paint15_linear)"/>
<path d="M3062.17 1235.9C3037.55 1203.51 2970.78 1171.85 2944.94 1203.6C2904.96 1257.05 2951.6 1372.33 2891.4 1397.23C2673.22 1227.02 2488.91 634.676 2150.39 594.48C1942.26 561.448 2035.73 1090.8 1863.52 1118.6C1500.38 1190.61 1193.1 58.0555 857.36 283.667C671.711 413.181 812.881 986.184 641.247 1021.1C538.51 1040.25 467.336 741.975 365.59 792.182C233.687 888.264 77.7469 1010.04 -44.0049 894.036C-274.133 775.604 -298.663 321.2 -592.707 373.195C-800.849 404.459 -798.98 821.515 -932.423 986.825" stroke="url(#paint16_linear)"/>
<path d="M3061.85 1237.89C3035.69 1203.85 2964.38 1170.39 2936.87 1204.92C2894.28 1262.6 2944.21 1386.57 2880.61 1415.03C2656.43 1259.66 2471.8 657.439 2132.24 618.36C1927.94 586.245 2020.08 1108.37 1850.54 1136.54C1490.09 1210.51 1185.77 77.5725 852.329 303.364C666.52 434.155 806.954 1010.63 634.736 1044.56C531.114 1063.17 457.366 759.111 354.755 812.536C219.347 914.909 58.0136 1029.79 -66.6736 908.359C-292.036 790.989 -315.037 348.47 -601.441 397.356C-804.329 426.089 -803.048 830.272 -933.051 990.252" stroke="url(#paint17_linear)"/>
<path d="M3061.54 1239.87C3033.83 1204.18 2957.99 1168.93 2928.81 1206.24C2883.6 1268.14 2936.82 1400.82 2869.83 1432.82C2639.64 1292.3 2454.69 680.201 2114.1 642.238C1913.61 611.04 2004.43 1125.95 1837.56 1154.47C1479.8 1230.41 1178.45 97.0881 847.3 323.059C661.332 455.127 801.03 1035.07 628.228 1068.02C523.719 1086.09 447.398 776.244 343.923 832.888C205.01 941.552 38.2828 1049.54 -89.3397 922.68C-309.937 806.373 -331.409 375.738 -610.172 421.517C-807.805 447.718 -807.115 839.028 -933.677 993.678" stroke="url(#paint18_linear)"/>
<path d="M3061.23 1241.87C3031.97 1204.52 2951.59 1167.47 2920.75 1207.57C2872.92 1273.69 2929.44 1415.06 2859.05 1450.62C2622.86 1324.94 2437.58 702.964 2095.96 666.117C1899.29 635.837 1988.79 1143.52 1824.58 1172.4C1469.51 1250.3 1171.13 116.605 842.271 342.756C656.144 476.102 795.106 1059.51 621.72 1091.48C516.325 1109.01 437.431 793.38 333.09 853.243C190.673 968.197 18.5517 1069.29 -112.006 937.003C-327.838 821.759 -347.78 403.008 -618.903 445.679C-811.283 469.348 -811.181 847.785 -934.303 997.106" stroke="url(#paint19_linear)"/>
<path d="M3060.91 1243.86C3030.1 1204.86 2945.2 1166.02 2912.68 1208.89C2862.24 1279.24 2922.05 1429.3 2848.27 1468.42C2606.07 1357.58 2420.48 725.726 2077.82 689.996C1884.97 660.634 1973.14 1161.09 1811.61 1190.34C1459.21 1270.2 1163.8 136.122 837.24 362.453C650.953 497.075 789.18 1083.96 615.21 1114.94C508.929 1131.93 427.461 810.515 322.255 873.597C176.333 994.842 -1.1814 1089.03 -134.675 951.326C-345.741 837.144 -364.154 430.278 -627.637 469.841C-814.762 490.977 -815.25 856.542 -934.931 1000.53" stroke="url(#paint20_linear)"/>
<path d="M3060.6 1245.84C3028.24 1205.19 2938.8 1164.56 2904.62 1210.21C2851.56 1284.78 2914.67 1443.54 2837.49 1486.22C2589.28 1390.22 2403.37 748.488 2059.68 713.875C1870.65 685.43 1957.5 1178.67 1798.63 1208.27C1448.93 1290.1 1156.48 155.638 832.213 382.149C645.766 518.048 783.257 1108.4 608.703 1138.4C501.536 1154.85 417.494 827.649 311.424 893.95C161.996 1021.49 -20.9114 1108.78 -157.34 965.648C-363.641 852.528 -380.525 457.547 -636.367 494.002C-818.238 512.606 -819.315 865.299 -935.556 1003.96" stroke="url(#paint21_linear)"/>
<path d="M3060.29 1247.83C3026.38 1205.53 2932.41 1163.1 2896.55 1211.53C2840.88 1290.33 2907.28 1457.79 2826.71 1504.02C2572.5 1422.86 2386.26 771.25 2041.53 737.753C1856.33 710.226 1941.85 1196.24 1785.65 1226.2C1438.63 1309.99 1149.15 175.155 827.183 401.845C640.577 539.022 777.332 1132.84 602.194 1161.86C494.141 1177.77 407.526 844.783 300.591 914.303C147.658 1048.13 -40.6432 1128.53 -180.007 979.97C-381.543 867.912 -396.897 484.816 -645.099 518.163C-821.716 534.235 -823.383 874.055 -936.183 1007.39" stroke="url(#paint22_linear)"/>
<path d="M3059.98 1249.82C3024.52 1205.86 2926.02 1161.64 2888.49 1212.85C2830.21 1295.88 2899.9 1472.03 2815.93 1521.82C2555.71 1455.5 2369.16 794.012 2023.39 761.632C1842.01 735.023 1926.2 1213.81 1772.67 1244.14C1428.35 1329.89 1141.83 194.671 822.155 421.541C635.39 559.995 771.409 1157.29 595.687 1185.32C486.748 1200.69 397.56 861.918 289.759 934.656C133.322 1074.77 -60.3729 1148.28 -202.672 994.292C-399.443 883.297 -413.267 512.085 -653.829 542.324C-825.192 555.865 -827.448 882.812 -936.808 1010.81" stroke="url(#paint23_linear)"/>
<path d="M3059.66 1251.81C3022.65 1206.2 2919.62 1160.18 2880.42 1214.17C2819.53 1301.43 2892.51 1486.27 2805.15 1539.62C2538.92 1488.14 2352.05 816.776 2005.25 785.512C1827.68 759.82 1910.56 1231.39 1759.69 1262.07C1418.05 1349.79 1134.5 214.188 817.124 441.238C630.199 580.969 765.483 1181.73 589.177 1208.79C479.351 1223.61 387.589 879.054 278.924 955.011C118.982 1101.42 -80.1063 1168.03 -225.341 1008.62C-417.346 898.683 -429.641 539.355 -662.563 566.486C-828.671 577.495 -831.517 891.569 -937.436 1014.24" stroke="url(#paint24_linear)"/>
<path d="M3059.35 1253.8C3020.79 1206.54 2913.23 1158.72 2872.36 1215.49C2808.85 1306.97 2885.12 1500.51 2794.37 1557.41C2522.14 1520.78 2334.94 839.537 1987.11 809.39C1813.36 784.615 1894.91 1248.96 1746.72 1280C1407.76 1369.68 1127.18 233.704 812.095 460.934C625.011 601.942 759.559 1206.17 582.669 1232.25C471.957 1246.53 377.622 896.187 268.092 975.363C104.645 1128.06 -99.8372 1187.77 -248.007 1022.94C-435.247 914.066 -446.013 566.623 -671.294 590.647C-832.148 599.123 -835.583 900.325 -938.062 1017.67" stroke="url(#paint25_linear)"/>
<path d="M3059.04 1255.79C3018.93 1206.87 2906.83 1157.26 2864.29 1216.81C2798.17 1312.52 2877.74 1514.76 2783.59 1575.21C2505.35 1553.42 2317.84 862.3 1968.97 833.27C1799.04 809.413 1879.26 1266.53 1733.74 1297.94C1397.47 1389.58 1119.85 253.222 807.067 480.631C619.823 622.917 753.636 1230.62 576.161 1255.71C464.563 1269.46 367.655 913.323 257.259 995.718C90.3078 1154.71 -119.568 1207.52 -270.673 1037.26C-453.148 929.453 -462.384 593.894 -680.025 614.809C-835.625 620.754 -839.649 909.083 -938.688 1021.1" stroke="url(#paint26_linear)"/>
<path d="M3058.72 1257.78C3017.07 1207.21 2900.44 1155.8 2856.23 1218.13C2787.49 1318.07 2870.35 1529 2772.81 1593.01C2488.57 1586.06 2300.73 885.062 1950.82 857.148C1784.72 834.209 1863.62 1284.1 1720.76 1315.87C1387.18 1409.48 1112.53 272.738 802.036 500.327C614.633 643.89 747.71 1255.06 569.651 1279.17C457.167 1292.38 357.686 930.458 246.425 1016.07C75.9687 1181.35 -139.3 1227.27 -293.341 1051.58C-471.051 944.837 -478.757 621.163 -688.758 638.97C-839.104 642.383 -843.718 917.84 -939.315 1024.52" stroke="url(#paint27_linear)"/>
<path d="M3058.41 1259.77C3015.2 1207.55 2894.04 1154.34 2848.16 1219.45C2776.81 1323.61 2862.97 1543.24 2762.02 1610.81C2471.78 1618.7 2283.62 907.824 1932.68 881.027C1770.39 859.005 1847.97 1301.68 1707.78 1333.81C1376.89 1429.37 1105.2 292.254 797.006 520.023C609.443 664.863 741.784 1279.5 563.142 1302.63C449.771 1315.3 347.716 947.592 235.591 1036.42C61.6296 1208 -159.033 1247.02 -316.009 1065.9C-488.953 960.221 -495.13 648.432 -697.491 663.131C-842.583 664.012 -847.786 926.596 -939.943 1027.95" stroke="url(#paint28_linear)"/>
<path d="M3058.1 1261.76C3013.34 1207.88 2887.65 1152.88 2840.1 1220.77C2766.14 1329.16 2855.58 1557.49 2751.25 1628.61C2455 1651.34 2266.52 930.587 1914.54 904.906C1756.07 883.802 1832.33 1319.25 1694.81 1351.74C1366.6 1449.27 1097.88 311.772 791.98 539.721C604.258 685.837 735.864 1303.95 556.637 1326.09C442.38 1338.22 337.752 964.727 224.762 1056.78C47.2956 1234.64 -178.76 1266.76 -338.672 1080.23C-506.851 975.607 -511.498 675.702 -706.218 687.294C-846.056 685.642 -851.849 935.353 -940.565 1031.38" stroke="url(#paint29_linear)"/>
<path d="M3057.78 1263.75C3011.48 1208.22 2881.26 1151.42 2832.04 1222.09C2755.46 1334.71 2848.2 1571.73 2740.47 1646.41C2438.21 1683.98 2249.41 953.35 1896.4 928.786C1741.75 908.599 1816.68 1336.82 1681.83 1369.67C1356.31 1469.17 1090.56 331.288 786.951 559.417C599.069 706.811 729.939 1328.39 550.128 1349.55C434.986 1361.14 327.784 981.862 213.928 1077.13C32.9575 1261.29 -198.492 1286.51 -361.339 1094.55C-524.753 990.992 -527.87 702.971 -714.95 711.455C-849.534 707.271 -855.916 944.11 -941.192 1034.8" stroke="url(#paint30_linear)"/>
<path d="M3057.47 1265.74C3009.62 1208.55 2874.86 1149.97 2823.97 1223.42C2744.78 1340.25 2840.81 1585.97 2729.68 1664.21C2421.42 1716.62 2232.3 976.112 1878.25 952.664C1727.43 933.395 1801.03 1354.4 1668.85 1387.61C1346.02 1489.07 1083.23 350.805 781.919 579.113C593.878 727.784 724.012 1352.83 543.618 1373.02C427.589 1384.06 317.813 998.997 203.093 1097.49C18.617 1287.93 -218.226 1306.26 -384.008 1108.87C-542.657 1006.38 -544.245 730.24 -723.684 735.616C-853.014 728.901 -859.985 952.867 -941.821 1038.23" stroke="url(#paint31_linear)"/>
<path d="M3057.16 1267.73C3007.76 1208.89 2868.47 1148.51 2815.91 1224.74C2734.1 1345.8 2833.43 1600.22 2718.91 1682C2404.64 1749.26 2215.2 998.875 1860.12 976.544C1713.11 958.192 1785.39 1371.97 1655.87 1405.54C1335.73 1508.96 1075.91 370.322 776.893 598.81C588.692 748.758 718.091 1377.28 537.112 1396.48C420.197 1406.98 307.849 1016.13 192.264 1117.84C4.28295 1314.58 -237.954 1326.01 -406.671 1123.2C-560.554 1021.76 -560.613 757.51 -732.412 759.778C-856.488 750.53 -864.048 961.624 -942.444 1041.66" stroke="url(#paint32_linear)"/>
<path d="M3056.84 1269.72C3005.89 1209.23 2862.08 1147.05 2807.84 1226.06C2723.42 1351.35 2826.04 1614.46 2708.12 1699.8C2387.85 1781.9 2198.09 1021.64 1841.97 1000.42C1698.79 982.989 1769.74 1389.54 1642.9 1423.48C1325.44 1528.86 1068.58 389.838 771.863 618.507C583.503 769.732 712.166 1401.72 530.603 1419.94C412.802 1429.9 297.88 1033.27 181.429 1138.19C-10.0561 1341.22 -257.686 1345.76 -429.339 1137.52C-578.457 1037.15 -576.986 784.779 -741.145 783.94C-859.967 772.16 -868.117 970.381 -943.072 1045.09" stroke="url(#paint33_linear)"/>
<path d="M3056.53 1271.71C3004.03 1209.56 2855.68 1145.59 2799.78 1227.38C2712.74 1356.89 2818.65 1628.7 2697.34 1717.6C2371.06 1814.54 2180.98 1044.4 1823.83 1024.3C1684.46 1007.79 1754.09 1407.12 1629.92 1441.41C1315.15 1548.76 1061.26 409.355 766.834 638.203C578.314 790.705 706.241 1426.17 524.094 1443.4C405.407 1452.82 287.911 1050.4 170.596 1158.55C-24.3944 1367.86 -277.418 1365.5 -452.007 1151.84C-596.359 1052.53 -593.359 812.049 -749.877 808.101C-863.445 793.789 -872.184 979.138 -943.698 1048.51" stroke="url(#paint34_linear)"/>
<path d="M3056.22 1273.7C3002.17 1209.9 2849.29 1144.13 2791.71 1228.7C2702.06 1362.44 2811.27 1642.94 2686.56 1735.4C2354.28 1847.18 2163.87 1067.16 1805.69 1048.18C1670.14 1032.58 1738.45 1424.69 1616.94 1459.34C1304.86 1568.65 1053.93 428.872 761.803 657.9C573.123 811.679 700.315 1450.61 517.584 1466.86C398.01 1475.74 277.942 1067.54 159.761 1178.9C-38.7339 1394.51 -297.151 1385.25 -474.675 1166.16C-614.262 1067.92 -609.732 839.318 -758.611 832.263C-866.924 815.419 -876.253 987.895 -944.327 1051.94" stroke="url(#paint35_linear)"/>
<path d="M3055.9 1275.69C3000.31 1210.24 2842.89 1142.67 2783.65 1230.02C2691.38 1367.99 2803.88 1657.19 2675.78 1753.2C2337.49 1879.82 2146.77 1089.92 1787.54 1072.06C1655.82 1057.38 1722.8 1442.26 1603.96 1477.28C1294.57 1588.55 1046.61 448.389 756.774 677.597C567.935 832.653 694.391 1475.05 511.076 1490.32C390.616 1498.66 267.974 1084.67 148.929 1199.25C-53.0711 1421.15 -316.882 1405 -497.341 1180.49C-632.163 1083.3 -626.104 866.588 -767.342 856.425C-870.401 837.048 -880.319 996.652 -944.952 1055.37" stroke="url(#paint36_linear)"/>
<path d="M3055.59 1277.68C2998.44 1210.57 2836.5 1141.21 2775.58 1231.34C2680.7 1373.54 2796.49 1671.43 2665 1771C2320.7 1912.46 2129.66 1112.69 1769.4 1095.94C1641.5 1082.17 1707.15 1459.84 1590.98 1495.21C1284.28 1608.45 1039.28 467.905 751.743 697.293C562.745 853.626 688.465 1499.5 504.566 1513.78C383.221 1521.58 258.005 1101.81 138.095 1219.61C-67.41 1447.8 -336.614 1424.75 -520.009 1194.81C-650.065 1098.69 -642.476 893.857 -776.074 880.586C-873.879 858.677 -884.386 1005.41 -945.579 1058.79" stroke="url(#paint37_linear)"/>
<path d="M3055.28 1279.67C2996.58 1210.91 2830.1 1139.75 2767.51 1232.66C2670.02 1379.08 2789.11 1685.67 2654.22 1788.8C2303.92 1945.11 2112.55 1135.45 1751.26 1119.82C1627.17 1106.97 1691.51 1477.41 1578 1513.15C1273.99 1628.35 1031.96 487.423 746.713 716.99C557.555 874.601 682.54 1523.94 498.057 1537.25C375.825 1544.5 248.037 1118.94 127.261 1239.96C-81.7486 1474.44 -356.347 1444.5 -542.677 1209.13C-667.968 1114.07 -658.85 921.127 -784.807 904.748C-877.358 880.308 -888.455 1014.17 -946.207 1062.22" stroke="url(#paint38_linear)"/>
<path d="M3054.96 1281.66C2994.72 1211.25 2823.71 1138.29 2759.45 1233.98C2659.35 1384.63 2781.72 1699.92 2643.44 1806.6C2287.13 1977.75 2095.44 1158.21 1733.12 1143.7C1612.85 1131.77 1675.86 1494.98 1565.03 1531.08C1263.7 1648.24 1024.64 506.939 741.686 736.687C552.369 895.575 676.618 1548.38 491.55 1560.71C368.432 1567.43 238.07 1136.08 116.43 1260.32C-96.0847 1501.09 -376.076 1464.25 -565.341 1223.45C-685.867 1129.46 -675.22 948.397 -793.537 928.91C-880.833 901.937 -892.52 1022.92 -946.832 1065.65" stroke="url(#paint39_linear)"/>
<path d="M3054.65 1283.65C2992.85 1211.58 2817.31 1136.83 2751.38 1235.3C2648.67 1390.18 2774.34 1714.16 2632.65 1824.39C2270.34 2010.39 2078.34 1180.97 1714.97 1167.58C1598.53 1156.57 1660.21 1512.56 1552.05 1549.01C1253.41 1668.14 1017.31 526.455 736.654 756.382C547.177 916.547 670.691 1572.83 485.039 1584.17C361.035 1590.35 228.099 1153.21 105.594 1280.67C-110.425 1527.73 -395.81 1483.99 -588.011 1237.78C-703.772 1144.84 -691.595 975.665 -802.271 953.071C-884.314 923.566 -896.59 1031.68 -947.461 1069.08" stroke="url(#paint40_linear)"/>
<path d="M3054.34 1285.64C2990.99 1211.92 2810.92 1135.38 2743.32 1236.62C2637.99 1395.72 2766.95 1728.4 2621.87 1842.19C2253.56 2043.03 2061.23 1203.74 1696.83 1191.46C1584.21 1181.36 1644.57 1530.13 1539.07 1566.95C1243.12 1688.04 1009.99 545.972 731.626 776.079C541.989 937.522 664.767 1597.27 478.532 1607.63C353.641 1613.27 218.133 1170.35 94.7622 1301.02C-124.762 1554.38 -415.541 1503.74 -610.677 1252.1C-721.672 1160.23 -707.965 1002.94 -811.002 977.233C-887.79 945.196 -900.655 1040.44 -948.086 1072.5" stroke="url(#paint41_linear)"/>
<path d="M3054.02 1287.64C2989.13 1212.26 2804.53 1133.92 2735.26 1237.95C2627.31 1401.27 2759.57 1742.65 2611.09 1859.99C2236.77 2075.67 2044.12 1226.5 1678.69 1215.34C1569.89 1206.16 1628.92 1547.7 1526.09 1584.88C1232.83 1707.93 1002.66 565.49 726.598 795.777C536.802 958.496 658.844 1621.71 472.025 1631.09C346.248 1636.19 208.166 1187.48 83.9306 1321.38C-139.098 1581.02 -435.27 1523.49 -633.342 1266.42C-739.572 1175.61 -724.335 1030.21 -819.732 1001.39C-891.266 966.826 -904.72 1049.19 -948.711 1075.93" stroke="url(#paint42_linear)"/>
<path d="M3053.71 1289.63C2987.27 1212.59 2798.13 1132.46 2727.19 1239.27C2616.63 1406.82 2752.18 1756.89 2600.31 1877.79C2219.99 2108.31 2027.02 1249.26 1660.55 1239.21C1555.56 1230.96 1613.28 1565.28 1513.12 1602.82C1222.54 1727.83 995.338 585.007 721.569 815.473C531.613 979.47 652.92 1646.16 465.516 1654.55C338.854 1659.11 198.198 1204.62 73.0974 1341.73C-153.436 1607.67 -455.002 1543.24 -656.009 1280.74C-757.473 1191 -740.708 1057.47 -828.464 1025.56C-894.744 988.456 -908.788 1057.95 -949.337 1079.36" stroke="url(#paint43_linear)"/>
<path d="M3053.4 1291.62C2985.41 1212.93 2791.74 1131 2719.13 1240.59C2605.95 1412.37 2744.79 1771.13 2589.53 1895.59C2203.2 2140.95 2009.91 1272.03 1642.41 1263.09C1541.24 1255.75 1597.63 1582.85 1500.14 1620.75C1212.24 1747.73 988.012 604.523 716.538 835.17C526.423 1000.44 646.994 1670.6 459.006 1678.01C331.458 1682.03 188.229 1221.75 62.2629 1362.09C-167.776 1634.31 -474.735 1562.99 -678.677 1295.07C-775.376 1206.38 -757.081 1084.74 -837.197 1049.72C-898.223 1010.09 -912.856 1066.71 -949.966 1082.78" stroke="url(#paint44_linear)"/>
<path d="M3053.08 1293.61C2983.54 1213.27 2785.34 1129.54 2711.06 1241.91C2595.28 1417.91 2737.41 1785.38 2578.75 1913.39C2186.41 2173.59 1992.8 1294.79 1624.26 1286.97C1526.92 1280.55 1581.98 1600.42 1487.16 1638.68C1201.95 1767.63 980.688 624.04 711.509 854.866C521.234 1021.42 641.07 1695.05 452.498 1701.48C324.063 1704.95 178.261 1238.89 51.4302 1382.44C-182.113 1660.96 -494.466 1582.73 -701.343 1309.39C-793.277 1221.77 -773.453 1112.01 -845.928 1073.88C-901.7 1031.72 -916.923 1075.47 -950.592 1086.21" stroke="url(#paint45_linear)"/>
<path d="M3052.77 1295.6C2981.68 1213.6 2778.95 1128.08 2703 1243.23C2584.6 1423.46 2730.02 1799.62 2567.97 1931.19C2169.63 2206.23 1975.69 1317.55 1606.12 1310.85C1512.6 1305.35 1566.34 1618 1474.18 1656.62C1191.66 1787.52 973.364 643.557 706.48 874.563C516.046 1042.39 635.145 1719.49 445.99 1724.94C316.669 1727.87 168.293 1256.02 40.5973 1402.79C-196.451 1687.6 -514.197 1602.48 -724.01 1323.71C-811.179 1237.15 -789.825 1139.28 -854.66 1098.04C-905.178 1053.34 -920.989 1084.22 -951.218 1089.64" stroke="url(#paint46_linear)"/>
<path d="M3052.46 1297.59C2979.82 1213.94 2772.55 1126.62 2694.93 1244.55C2573.92 1429.01 2722.63 1813.86 2557.19 1948.99C2152.84 2238.87 1958.59 1340.31 1587.98 1334.73C1498.27 1330.14 1550.69 1635.57 1461.2 1674.55C1181.37 1807.42 966.037 663.073 701.449 894.259C510.855 1063.36 629.219 1743.93 439.479 1748.4C309.272 1750.79 158.323 1273.16 29.7623 1423.15C-210.791 1714.24 -533.931 1622.23 -746.679 1338.03C-829.082 1252.54 -806.199 1166.55 -863.393 1122.2C-908.657 1074.97 -925.058 1092.98 -951.846 1093.07" stroke="url(#paint47_linear)"/>
<path d="M3052.15 1299.58C2977.96 1214.27 2766.16 1125.16 2686.87 1245.87C2563.24 1434.55 2715.25 1828.11 2546.41 1966.79C2136.06 2271.51 1941.48 1363.08 1569.84 1358.61C1483.96 1354.94 1535.05 1653.14 1448.23 1692.49C1171.09 1827.32 958.717 682.591 696.424 913.956C505.671 1084.34 623.299 1768.38 432.975 1771.86C301.882 1773.71 148.36 1290.29 18.9339 1443.5C-225.124 1740.89 -553.658 1641.98 -769.341 1352.36C-846.979 1267.92 -822.566 1193.82 -872.12 1146.36C-912.13 1096.6 -929.121 1101.74 -952.468 1096.49" stroke="url(#paint48_linear)"/>
<path d="M3051.83 1301.57C2976.09 1214.61 2759.77 1123.7 2678.8 1247.19C2552.56 1440.1 2707.87 1842.35 2535.63 1984.58C2119.27 2304.15 1924.37 1385.84 1551.7 1382.49C1469.63 1379.74 1519.4 1670.72 1435.25 1710.42C1160.79 1847.21 951.39 702.107 691.392 933.653C500.48 1105.31 617.372 1792.82 426.464 1795.32C294.485 1796.63 138.389 1307.43 8.09835 1463.85C-239.464 1767.53 -573.391 1661.73 -792.01 1366.68C-864.883 1283.31 -838.94 1221.09 -880.854 1170.53C-915.61 1118.23 -933.19 1110.49 -953.097 1099.92" stroke="url(#paint49_linear)"/>
<path d="M3051.52 1303.56C2974.23 1214.95 2753.38 1122.25 2670.74 1248.51C2541.88 1445.65 2700.48 1856.59 2524.85 2002.38C2102.48 2336.79 1907.27 1408.6 1533.55 1406.37C1455.31 1404.53 1503.75 1688.29 1422.27 1728.35C1150.5 1867.11 944.067 721.624 686.364 953.35C495.292 1126.29 611.449 1817.26 419.957 1818.78C287.091 1819.56 128.422 1324.56 -2.73377 1484.21C-253.801 1794.18 -593.122 1681.47 -814.676 1381C-882.784 1298.69 -855.312 1248.36 -889.585 1194.69C-919.087 1139.86 -937.256 1119.25 -953.723 1103.35" stroke="url(#paint50_linear)"/>
<path d="M3051.21 1305.55C2972.37 1215.28 2746.98 1120.79 2662.67 1249.83C2531.2 1451.2 2693.09 1870.83 2514.07 2020.18C2085.7 2369.43 1890.16 1431.36 1515.41 1430.25C1440.99 1429.33 1488.1 1705.86 1409.29 1746.29C1140.21 1887.01 936.742 741.141 681.334 973.046C490.103 1147.26 605.524 1841.71 413.448 1842.25C279.696 1842.48 118.454 1341.7 -13.5669 1504.56C-268.139 1820.82 -612.853 1701.22 -837.343 1395.33C-900.685 1314.08 -871.684 1275.63 -898.317 1218.85C-922.565 1161.49 -941.323 1128.01 -954.349 1106.78" stroke="url(#paint51_linear)"/>
</g>
<g opacity="0.5">
<path d="M-949.379 1135.33C-947.848 1153.38 -952.046 1157.85 -941.723 1225.56C-870.433 1693.13 -770.54 2221.83 -590.79 2289.61C-443.075 2345.31 -506.148 1586.26 -388.035 1559.61C-163.508 1508.95 32.2564 2850.22 238.26 2584.89C340.245 2453.53 255.541 1833.45 346.183 1774.36C395.96 1741.91 414.087 1993.64 463.489 1991.35C507.638 1989.3 549.397 1721.22 592.65 1762.43C760.499 1922.37 786.919 2675.42 1014.34 2558.05C1174.03 2475.62 1168.07 1749.38 1271.05 1457.46" stroke="url(#paint52_linear)" stroke-linecap="round" stroke-linejoin="round"/>
<path d="M-940.488 1014.54C-895.754 1123.94 -767.799 1238.56 -719.951 1081.65C-645.332 836.939 -737.258 327.099 -635.737 145.1C-394.001 -288.265 -285.004 840.052 -75.8751 840.052C-36.5828 840.052 -62.0667 519.497 -19.6913 470.952C128.56 301.117 240.143 1665.47 381.004 1389.23C487.516 1180.35 423.692 349.628 530.91 350.156C605.838 350.525 697.004 953.481 770.957 755.793C914.581 371.864 1109.42 522.433 1235.99 892.994C1268.58 988.438 1251.59 1020.05 1262.16 1091.34C1272.73 1162.62 1283.5 1217.8 1288.84 1249.42" stroke="url(#paint53_linear)" stroke-linecap="round" stroke-linejoin="round"/>
<path d="M-949.206 1132.96C-947.578 1143.95 -945.723 1151.72 -944.361 1160.25C-942.474 1167.06 -942.775 1174.75 -935.724 1204.37C-861.093 1654.27 -761.02 2194.73 -580.695 2261.19C-435.106 2315.79 -497.441 1565.34 -380.813 1538.26C-157.782 1485.26 36.3315 2826.99 241.058 2561.44C343.132 2428.57 258.837 1804.35 349.803 1746.43C400.074 1714.63 419.634 1973.24 469.517 1967.12C515.616 1957.59 560.377 1697.71 605.264 1745.38C770.461 1904.05 796.029 2642.96 1019.2 2529.29C1175.97 2449.88 1170.33 1738.96 1271.4 1453.38" stroke="url(#paint54_linear)"/>
<path d="M-949.031 1130.6C-946.541 1143.56 -942.163 1153.46 -939.872 1158.68C-936.53 1160.46 -938.664 1157.8 -929.724 1183.19C-851.75 1615.43 -751.499 2167.64 -570.598 2232.76C-427.135 2286.28 -488.733 1544.43 -373.59 1516.92C-152.054 1461.58 40.4086 2803.76 243.858 2538C346.02 2403.61 262.135 1775.26 353.426 1718.51C404.19 1687.35 425.182 1952.85 475.547 1942.89C523.596 1925.87 571.359 1674.21 617.879 1728.34C780.424 1885.74 805.141 2610.51 1024.06 2500.53C1177.9 2424.13 1172.6 1728.54 1271.75 1449.3" stroke="url(#paint55_linear)"/>
<path d="M-948.859 1128.23C-945.507 1143.15 -938.608 1155.2 -935.387 1157.11C-930.591 1153.85 -934.557 1140.85 -923.727 1162C-842.411 1576.57 -741.982 2140.55 -560.505 2204.34C-419.167 2256.77 -480.029 1523.51 -366.371 1495.57C-146.331 1437.9 44.4815 2780.53 246.653 2514.56C348.905 2378.64 265.429 1746.17 357.045 1690.58C408.302 1660.07 430.726 1932.45 481.572 1918.67C531.572 1894.16 582.336 1650.7 630.49 1711.29C790.383 1867.43 814.249 2578.05 1028.91 2471.77C1179.83 2398.39 1174.86 1718.11 1272.1 1445.22" stroke="url(#paint56_linear)"/>
<path d="M-948.686 1125.86C-944.471 1142.76 -935.05 1156.93 -930.899 1155.53C-924.648 1147.25 -930.447 1123.89 -917.728 1140.82C-833.07 1537.72 -732.462 2113.46 -550.409 2175.92C-411.197 2227.25 -471.322 1502.6 -359.149 1474.23C-140.604 1414.22 48.5574 2757.3 249.452 2491.11C351.792 2353.68 268.726 1717.07 360.667 1662.66C412.417 1632.78 436.273 1912.06 487.601 1894.44C539.551 1862.44 593.317 1627.2 643.104 1694.24C800.345 1849.12 823.36 2545.59 1033.77 2443.01C1181.77 2372.64 1177.12 1707.69 1272.45 1441.14" stroke="url(#paint57_linear)"/>
<path d="M-948.509 1123.49C-943.433 1142.36 -931.489 1158.67 -926.409 1153.96C-918.703 1140.65 -926.335 1106.94 -911.726 1119.63C-823.726 1498.87 -722.94 2086.36 -540.31 2147.5C-403.225 2197.74 -462.612 1481.68 -351.924 1452.88C-134.875 1390.54 52.636 2734.07 252.253 2467.67C354.682 2328.71 272.025 1687.98 364.292 1634.73C416.534 1605.5 441.823 1891.66 493.632 1870.22C547.533 1830.73 604.3 1603.69 655.721 1677.19C810.31 1830.81 832.474 2513.13 1038.63 2414.25C1183.71 2346.9 1179.39 1697.27 1272.8 1437.06" stroke="url(#paint58_linear)"/>
<path d="M-948.335 1121.12C-942.396 1141.96 -927.931 1160.41 -921.921 1152.39C-912.761 1134.05 -922.224 1089.99 -905.727 1098.45C-814.384 1460.02 -713.42 2059.27 -530.214 2119.07C-395.254 2168.22 -453.904 1460.76 -344.702 1431.54C-129.148 1366.85 56.712 2710.84 255.052 2444.22C357.57 2303.75 275.322 1658.88 367.913 1606.81C420.649 1578.22 447.37 1871.27 499.66 1845.99C555.512 1799.02 615.281 1580.18 668.335 1660.15C820.272 1812.49 841.585 2480.67 1043.49 2385.49C1185.64 2321.15 1181.65 1686.84 1273.14 1432.98" stroke="url(#paint59_linear)"/>
<path d="M-948.159 1118.75C-941.358 1141.55 -924.371 1162.14 -917.431 1150.82C-906.816 1127.44 -918.112 1073.03 -899.725 1077.26C-805.041 1421.17 -703.898 2032.18 -520.116 2090.65C-387.282 2138.71 -445.195 1439.85 -337.478 1410.19C-123.42 1343.17 60.7897 2687.61 257.852 2420.78C360.459 2278.78 278.621 1629.79 371.537 1578.88C424.766 1550.94 452.919 1850.87 505.691 1821.76C563.493 1767.3 626.263 1556.68 680.951 1643.1C830.236 1794.18 850.697 2448.22 1048.35 2356.73C1187.58 2295.41 1183.91 1676.42 1273.49 1428.9" stroke="url(#paint60_linear)"/>
<path d="M-947.985 1116.39C-940.322 1141.16 -920.813 1163.88 -912.943 1149.25C-900.874 1120.84 -914.003 1056.08 -893.726 1056.08C-795.7 1382.32 -694.378 2005.08 -510.02 2062.23C-379.312 2109.19 -436.488 1418.93 -330.256 1388.84C-117.694 1319.49 64.8655 2664.38 260.651 2397.34C363.346 2253.82 281.917 1600.7 375.159 1550.96C428.881 1523.66 458.466 1830.48 511.719 1797.54C571.472 1735.59 637.243 1533.17 693.565 1626.05C840.198 1775.87 859.808 2415.76 1053.21 2327.98C1189.51 2269.67 1186.18 1666 1273.84 1424.83" stroke="url(#paint61_linear)"/>
<path d="M-947.811 1114.02C-939.286 1140.76 -917.255 1165.62 -908.455 1147.68C-894.931 1114.24 -909.893 1039.13 -887.727 1034.89C-786.358 1343.47 -684.858 1977.99 -499.924 2033.81C-371.342 2079.68 -427.781 1398.01 -323.034 1367.5C-111.967 1295.8 68.9412 2641.15 263.449 2373.89C366.233 2228.86 285.214 1571.6 378.78 1523.03C432.996 1496.37 464.013 1810.08 517.747 1773.31C579.45 1703.87 648.224 1509.67 706.179 1609C850.16 1757.56 868.919 2383.3 1058.07 2299.22C1191.45 2243.92 1188.44 1655.58 1274.19 1420.75" stroke="url(#paint62_linear)"/>
<path d="M-947.636 1111.65C-938.249 1140.36 -913.696 1167.35 -903.967 1146.1C-888.988 1107.64 -905.782 1022.18 -881.726 1013.71C-777.016 1304.62 -675.337 1950.9 -489.827 2005.39C-363.371 2050.16 -419.073 1377.1 -315.811 1346.15C-106.24 1272.12 73.0182 2617.92 266.249 2350.45C369.122 2203.89 288.512 1542.51 382.403 1495.11C437.112 1469.09 469.561 1789.69 523.777 1749.08C587.43 1672.16 659.205 1486.16 718.794 1591.96C860.124 1739.25 878.031 2350.84 1062.93 2270.46C1193.38 2218.18 1190.7 1645.15 1274.54 1416.67" stroke="url(#paint63_linear)"/>
<path d="M-947.46 1109.28C-937.211 1139.96 -910.136 1169.09 -899.477 1144.53C-883.043 1101.04 -901.67 1005.22 -875.725 992.521C-767.672 1265.77 -665.815 1923.8 -479.729 1976.96C-355.399 2020.65 -410.364 1356.18 -308.587 1324.81C-100.511 1248.44 77.096 2594.69 269.049 2327C372.011 2178.93 291.81 1513.41 386.027 1467.18C441.229 1441.81 475.11 1769.29 529.807 1724.86C595.411 1640.44 670.188 1462.66 731.41 1574.91C870.087 1720.93 887.144 2318.38 1067.79 2241.7C1195.32 2192.43 1192.97 1634.73 1274.89 1412.59" stroke="url(#paint64_linear)"/>
<path d="M-947.287 1106.91C-936.176 1139.56 -906.579 1170.83 -894.99 1142.96C-877.102 1094.43 -897.561 988.272 -869.727 971.336C-758.332 1226.92 -656.296 1896.71 -469.634 1948.54C-347.43 1991.14 -401.658 1335.26 -301.366 1303.46C-94.7861 1224.76 81.1707 2571.46 271.847 2303.56C374.897 2153.96 295.106 1484.32 389.648 1439.26C445.343 1414.53 480.656 1748.9 535.834 1700.63C603.389 1608.73 681.167 1439.15 744.023 1557.86C880.049 1702.62 896.254 2285.93 1072.65 2212.94C1197.26 2166.69 1195.23 1624.31 1275.24 1408.51" stroke="url(#paint65_linear)"/>
<path d="M-947.112 1104.55C-935.139 1139.16 -903.02 1172.57 -890.501 1141.39C-871.159 1087.83 -893.45 971.319 -863.726 950.15C-748.99 1188.07 -646.775 1869.62 -459.537 1920.12C-339.459 1961.62 -392.95 1314.35 -294.143 1282.11C-89.0587 1201.07 85.2475 2548.23 274.646 2280.12C377.785 2129 298.404 1455.22 393.27 1411.33C449.458 1387.25 486.204 1728.5 541.864 1676.41C611.369 1577.02 692.149 1415.65 756.638 1540.81C890.012 1684.31 905.366 2253.47 1077.51 2184.18C1199.19 2140.94 1197.49 1613.88 1275.59 1404.43" stroke="url(#paint66_linear)"/>
<path d="M-946.938 1102.18C-934.102 1138.76 -899.461 1174.3 -886.013 1139.82C-865.215 1081.23 -889.339 954.366 -857.726 928.965C-739.647 1149.22 -637.255 1842.52 -449.44 1891.7C-331.488 1932.11 -384.242 1293.43 -286.92 1260.77C-83.3313 1177.39 89.3243 2525 277.446 2256.67C380.674 2104.03 301.701 1426.13 396.893 1383.41C453.574 1359.97 491.752 1708.11 547.893 1652.18C619.349 1545.3 703.13 1392.14 769.253 1523.76C899.975 1666 914.478 2221.01 1082.37 2155.42C1201.13 2115.2 1199.76 1603.46 1275.94 1400.35" stroke="url(#paint67_linear)"/>
<path d="M-946.765 1099.81C-933.067 1138.36 -895.904 1176.04 -881.526 1138.24C-859.274 1074.63 -885.23 937.413 -851.728 907.78C-730.307 1110.37 -627.736 1815.43 -439.345 1863.27C-323.519 1902.59 -375.536 1272.51 -279.699 1239.42C-77.6062 1153.71 93.3989 2501.77 280.243 2233.23C383.559 2079.07 304.997 1397.04 400.513 1355.48C457.688 1332.68 497.297 1687.71 553.92 1627.95C627.326 1513.59 714.109 1368.64 781.866 1506.72C909.935 1647.68 923.587 2188.55 1087.23 2126.67C1203.06 2089.45 1202.02 1593.04 1276.28 1396.27" stroke="url(#paint68_linear)"/>
<path d="M-946.59 1097.44C-932.03 1137.96 -892.345 1177.78 -877.037 1136.67C-853.331 1068.03 -881.119 920.46 -845.728 886.595C-720.964 1071.52 -618.215 1788.33 -429.248 1834.85C-315.548 1873.08 -366.828 1251.6 -272.476 1218.08C-71.8785 1130.03 97.4759 2478.54 283.043 2209.78C386.448 2054.11 308.294 1367.94 404.136 1327.56C461.804 1305.4 502.846 1667.32 559.95 1603.73C635.306 1481.87 725.091 1345.13 794.481 1489.67C919.899 1629.37 932.699 2156.09 1092.09 2097.91C1205 2063.71 1204.28 1582.62 1276.63 1392.19" stroke="url(#paint69_linear)"/>
<path d="M-946.416 1095.07C-930.994 1137.56 -888.787 1179.51 -872.55 1135.1C-847.388 1061.42 -877.01 903.507 -839.729 865.409C-711.623 1032.67 -608.695 1761.24 -419.153 1806.43C-307.578 1843.56 -358.121 1230.68 -265.254 1196.73C-66.1525 1106.34 101.551 2455.31 285.841 2186.34C389.335 2029.14 311.591 1338.85 407.758 1299.63C465.918 1278.12 508.392 1646.92 565.978 1579.5C643.285 1450.16 736.071 1321.63 807.095 1472.62C929.86 1611.06 941.81 2123.64 1096.95 2069.15C1206.93 2037.96 1206.55 1572.19 1276.98 1388.11" stroke="url(#paint70_linear)"/>
<path d="M-946.241 1092.7C-929.957 1137.16 -885.228 1181.25 -868.061 1133.53C-841.445 1054.82 -872.899 886.555 -833.728 844.225C-702.281 993.816 -599.174 1734.15 -409.055 1778.01C-299.607 1814.05 -349.413 1209.76 -258.031 1175.38C-60.4246 1082.66 105.629 2432.08 288.641 2162.9C392.224 2004.18 314.889 1309.75 411.381 1271.7C470.035 1250.84 513.941 1626.53 572.008 1555.27C651.265 1418.45 747.053 1298.12 819.71 1455.58C939.824 1592.75 950.922 2091.18 1101.81 2040.39C1208.87 2012.22 1208.81 1561.77 1277.33 1384.04" stroke="url(#paint71_linear)"/>
<path d="M-946.066 1090.33C-928.92 1136.75 -881.669 1182.99 -863.572 1131.96C-835.501 1048.22 -868.788 869.601 -827.728 823.039C-692.938 954.965 -589.653 1707.05 -398.958 1749.58C-291.636 1784.53 -340.705 1188.85 -250.808 1154.04C-54.6974 1058.98 109.705 2408.85 291.44 2139.45C395.112 1979.21 318.186 1280.66 415.003 1243.78C474.15 1223.56 519.488 1606.13 578.037 1531.05C659.245 1386.73 758.034 1274.62 832.325 1438.53C949.787 1574.44 960.034 2058.72 1106.67 2011.63C1210.8 1986.47 1211.08 1551.35 1277.68 1379.96" stroke="url(#paint72_linear)"/>
<path d="M-945.892 1087.97C-927.884 1136.35 -878.111 1184.72 -859.084 1130.39C-829.559 1041.62 -864.678 852.649 -821.728 801.854C-683.597 916.115 -580.133 1679.96 -388.863 1721.16C-283.666 1755.02 -331.998 1167.93 -243.586 1132.69C-48.9712 1035.29 113.781 2385.62 294.238 2116.01C397.999 1954.25 321.483 1251.56 418.625 1215.85C478.265 1196.27 525.035 1585.74 584.065 1506.82C667.224 1355.02 769.015 1251.11 844.939 1421.48C959.749 1556.12 969.145 2026.26 1111.52 1982.87C1212.74 1960.73 1213.34 1540.92 1278.03 1375.88" stroke="url(#paint73_linear)"/>
<path d="M-945.718 1085.6C-926.848 1135.95 -874.553 1186.46 -854.597 1128.81C-823.617 1035.01 -860.568 835.696 -815.729 780.669C-674.256 877.264 -570.613 1652.87 -378.767 1692.74C-275.696 1725.5 -323.291 1147.01 -236.364 1111.35C-43.2448 1011.61 117.857 2362.39 297.037 2092.56C400.886 1929.28 324.78 1222.47 422.247 1187.93C482.38 1168.99 530.582 1565.34 590.093 1482.59C675.202 1323.3 779.995 1227.6 857.553 1404.43C969.711 1537.81 978.255 1993.8 1116.38 1954.11C1214.67 1934.98 1215.6 1530.5 1278.38 1371.8" stroke="url(#paint74_linear)"/>
<path d="M-945.544 1083.23C-925.812 1135.55 -870.995 1188.2 -850.109 1127.24C-817.674 1028.41 -856.458 818.742 -809.73 759.483C-664.914 838.413 -561.094 1625.77 -368.671 1664.32C-267.726 1695.99 -314.584 1126.09 -229.142 1090C-37.5184 987.928 121.932 2339.16 299.835 2069.12C403.773 1904.32 328.076 1193.37 425.868 1160C486.495 1141.71 536.129 1544.95 596.122 1458.37C683.181 1291.59 790.975 1204.1 870.167 1387.38C979.673 1519.5 987.366 1961.35 1121.24 1925.35C1216.61 1909.24 1217.86 1520.08 1278.72 1367.72" stroke="url(#paint75_linear)"/>
<path d="M-945.37 1080.86C-924.775 1135.15 -867.436 1189.93 -845.62 1125.67C-811.731 1021.81 -852.348 801.789 -803.73 738.297C-655.572 799.562 -551.573 1598.68 -358.574 1635.89C-259.755 1666.47 -305.876 1105.18 -221.919 1068.65C-31.7912 964.245 126.009 2315.93 302.635 2045.67C406.661 1879.36 331.374 1164.28 429.491 1132.08C490.61 1114.43 541.677 1524.55 602.151 1434.14C691.161 1259.87 801.957 1180.59 882.782 1370.34C989.636 1501.19 996.478 1928.89 1126.1 1896.59C1218.54 1883.49 1220.13 1509.65 1279.07 1363.64" stroke="url(#paint76_linear)"/>
<path d="M-945.196 1078.49C-923.739 1134.75 -863.878 1191.67 -841.132 1124.1C-805.789 1015.21 -848.237 784.837 -797.73 717.112C-646.231 760.712 -542.053 1571.59 -348.478 1607.47C-251.785 1636.96 -297.169 1084.26 -214.697 1047.31C-26.0647 940.563 130.085 2292.7 305.433 2022.23C409.549 1854.39 334.67 1135.19 433.113 1104.15C494.725 1087.15 547.224 1504.16 608.179 1409.92C699.14 1228.16 812.937 1157.09 895.396 1353.29C999.598 1482.88 1005.59 1896.43 1130.96 1867.84C1220.48 1857.75 1222.39 1499.23 1279.42 1359.56" stroke="url(#paint77_linear)"/>
<path d="M-945.021 1076.12C-922.701 1134.35 -860.319 1193.41 -836.644 1122.52C-799.845 1008.61 -844.126 767.883 -791.73 695.926C-636.888 721.861 -532.532 1544.49 -338.381 1579.05C-243.814 1607.44 -288.461 1063.34 -207.474 1025.96C-20.3371 916.879 134.162 2269.47 308.233 1998.79C412.437 1829.43 337.968 1106.09 436.735 1076.23C498.841 1059.86 552.772 1483.76 614.209 1385.69C707.12 1196.44 823.919 1133.58 908.011 1336.24C1009.56 1464.56 1014.7 1863.97 1135.82 1839.08C1222.41 1832 1224.65 1488.81 1279.77 1355.48" stroke="url(#paint78_linear)"/>
<path d="M-944.846 1073.75C-921.664 1133.95 -856.76 1195.14 -832.155 1120.95C-793.902 1002 -840.016 750.93 -785.73 674.741C-627.546 683.01 -523.011 1517.4 -328.284 1550.62C-235.843 1577.93 -279.753 1042.43 -200.251 1004.61C-14.6098 893.196 138.239 2246.24 311.033 1975.34C415.325 1804.46 341.266 1077 440.358 1048.3C502.957 1032.58 558.32 1463.37 620.238 1361.46C715.1 1164.73 834.9 1110.08 920.626 1319.19C1019.52 1446.25 1023.81 1831.51 1140.68 1810.32C1224.35 1806.26 1226.92 1478.38 1280.12 1351.4" stroke="url(#paint79_linear)"/>
<path d="M-944.672 1071.39C-920.629 1133.55 -853.202 1196.88 -827.667 1119.38C-787.959 995.401 -835.906 733.978 -779.73 653.556C-618.204 644.16 -513.491 1490.31 -318.188 1522.2C-227.873 1548.41 -271.046 1021.51 -193.029 983.268C-8.88355 869.514 142.314 2223.01 313.831 1951.9C418.212 1779.5 344.562 1047.9 443.98 1020.38C507.072 1005.3 563.867 1442.97 626.266 1337.24C723.078 1133.02 845.88 1086.57 933.24 1302.15C1029.49 1427.94 1032.92 1799.06 1145.54 1781.56C1226.29 1780.51 1229.18 1467.96 1280.47 1347.32" stroke="url(#paint80_linear)"/>
<path d="M-944.498 1069.02C-919.593 1133.15 -849.644 1198.62 -823.18 1117.81C-782.017 988.798 -831.796 717.024 -773.731 632.37C-608.863 605.308 -503.971 1463.21 -308.092 1493.78C-219.903 1518.9 -262.339 1000.59 -185.807 961.921C-3.15726 845.83 146.39 2199.78 316.629 1928.45C421.1 1754.53 347.859 1018.81 447.601 992.449C511.187 978.018 569.414 1422.58 632.295 1313.01C731.057 1101.3 856.861 1063.07 945.854 1285.1C1039.45 1409.63 1042.03 1766.6 1150.4 1752.8C1228.22 1754.77 1231.44 1457.54 1280.82 1343.24" stroke="url(#paint81_linear)"/>
<path d="M-944.324 1066.65C-918.556 1132.75 -846.085 1200.35 -818.692 1116.24C-776.074 982.195 -827.686 700.071 -767.732 611.185C-599.522 566.457 -494.451 1436.12 -297.996 1465.36C-211.933 1489.38 -253.632 979.675 -178.585 940.575C2.56932 822.147 150.466 2176.55 319.428 1905.01C423.987 1729.57 351.156 989.712 451.223 964.523C515.302 950.735 574.961 1402.18 638.323 1288.78C739.036 1069.59 867.841 1039.56 958.468 1268.05C1049.41 1391.31 1051.15 1734.14 1155.26 1724.04C1230.16 1729.02 1233.71 1447.12 1281.16 1339.16" stroke="url(#paint82_linear)"/>
<path d="M-944.149 1064.28C-917.519 1132.35 -842.526 1202.09 -814.203 1114.66C-770.131 975.593 -823.575 683.118 -761.731 589.999C-590.179 527.607 -484.93 1409.02 -287.899 1436.93C-203.962 1459.87 -244.923 958.758 -171.362 919.229C8.29692 798.464 154.543 2153.32 322.228 1881.56C426.876 1704.6 354.454 960.618 454.846 936.598C519.418 923.453 580.509 1381.78 644.353 1264.56C747.016 1037.87 878.823 1016.05 971.083 1251C1059.37 1373 1060.26 1701.68 1160.12 1695.28C1232.09 1703.28 1235.97 1436.69 1281.51 1335.09" stroke="url(#paint83_linear)"/>
<path d="M-943.976 1061.91C-916.484 1131.95 -838.97 1203.83 -809.716 1113.09C-764.19 968.991 -819.466 666.165 -755.733 568.814C-580.839 488.756 -475.412 1381.93 -277.804 1408.51C-195.993 1430.35 -236.217 937.841 -164.141 897.882C14.022 774.781 158.618 2130.09 325.025 1858.12C429.761 1679.64 357.749 931.523 458.466 908.672C523.531 896.171 586.055 1361.39 650.38 1240.33C754.994 1006.16 889.802 992.549 983.696 1233.95C1069.33 1354.69 1069.37 1669.22 1164.98 1666.52C1234.03 1677.53 1238.23 1426.27 1281.86 1331.01" stroke="url(#paint84_linear)"/>
<path d="M-943.8 1059.54C-915.446 1131.55 -835.409 1205.56 -805.226 1111.52C-758.245 962.388 -815.354 649.211 -749.732 547.627C-571.495 449.904 -465.89 1354.84 -267.706 1380.09C-188.021 1400.84 -227.508 916.924 -156.917 876.535C19.7505 751.097 162.695 2106.85 327.825 1834.67C432.651 1654.67 361.048 902.428 462.09 880.746C527.648 868.888 591.604 1340.99 656.41 1216.1C762.975 974.442 900.785 969.042 996.312 1216.91C1079.3 1336.38 1078.48 1636.76 1169.84 1637.76C1235.96 1651.78 1240.5 1415.85 1282.21 1326.93" stroke="url(#paint85_linear)"/>
<path d="M-943.627 1057.17C-914.41 1131.15 -831.852 1207.3 -800.739 1109.95C-752.303 955.786 -811.245 632.259 -743.733 526.443C-562.154 411.054 -456.37 1327.74 -257.61 1351.67C-180.051 1371.32 -218.802 896.007 -149.695 855.19C25.4766 727.415 166.771 2083.62 330.623 1811.23C435.538 1629.71 364.344 873.334 465.712 852.821C531.763 841.607 597.151 1320.6 662.438 1191.88C770.953 942.729 911.765 945.538 1008.93 1199.86C1089.26 1318.06 1087.59 1604.31 1174.7 1609C1237.9 1626.04 1242.76 1405.42 1282.56 1322.85" stroke="url(#paint86_linear)"/>
<path d="M-943.452 1054.81C-913.373 1130.75 -828.293 1209.04 -796.25 1108.38C-746.36 949.183 -807.134 615.306 -737.733 505.257C-552.812 372.203 -446.849 1300.65 -247.513 1323.24C-172.08 1341.81 -210.094 875.09 -142.472 833.843C31.204 703.732 170.848 2060.39 333.423 1787.79C438.426 1604.75 367.642 844.24 469.334 824.895C535.879 814.325 602.699 1300.2 668.468 1167.65C778.933 911.014 922.746 922.032 1021.54 1182.81C1099.22 1299.75 1096.7 1571.85 1179.56 1580.25C1239.83 1600.29 1245.02 1395 1282.91 1318.77" stroke="url(#paint87_linear)"/>
<path d="M-943.278 1052.44C-912.337 1130.35 -824.734 1210.77 -791.762 1106.8C-740.417 942.58 -803.024 598.352 -731.733 484.071C-543.47 333.351 -437.329 1273.55 -237.417 1294.82C-164.11 1312.29 -201.386 854.172 -135.25 812.496C36.9306 680.048 174.924 2037.16 336.222 1764.34C441.313 1579.78 370.939 815.144 472.956 796.969C539.994 787.042 608.246 1279.81 674.496 1143.42C786.912 879.299 933.727 898.526 1034.16 1165.76C1109.19 1281.44 1105.81 1539.39 1184.41 1551.49C1241.77 1574.55 1247.29 1384.58 1283.26 1314.69" stroke="url(#paint88_linear)"/>
<path d="M-943.103 1050.07C-911.3 1129.95 -821.175 1212.51 -787.274 1105.23C-734.474 935.979 -798.913 581.399 -725.733 462.886C-534.128 294.501 -427.808 1246.46 -227.32 1266.4C-156.139 1282.78 -192.678 833.256 -128.027 791.151C42.658 656.366 179.001 2013.93 339.021 1740.9C444.202 1554.82 374.236 786.05 476.579 769.044C544.11 759.761 613.794 1259.41 680.526 1119.2C794.892 847.585 944.708 875.021 1046.77 1148.71C1119.15 1263.13 1114.93 1506.93 1189.27 1522.73C1243.7 1548.8 1249.55 1374.15 1283.61 1310.61" stroke="url(#paint89_linear)"/>
<path d="M-942.929 1047.7C-910.264 1129.55 -817.618 1214.25 -782.786 1103.66C-728.532 929.376 -794.803 564.446 -719.734 441.7C-524.787 255.65 -418.289 1219.37 -217.225 1237.97C-148.169 1253.26 -183.972 812.339 -120.806 769.804C48.3838 632.682 183.076 1990.7 341.819 1717.45C447.088 1529.85 377.532 756.955 480.2 741.118C548.224 732.478 619.34 1239.02 686.553 1094.97C802.87 815.87 955.688 851.514 1059.38 1131.67C1129.11 1244.81 1124.04 1474.47 1194.13 1493.97C1245.64 1523.06 1251.81 1363.73 1283.95 1306.53" stroke="url(#paint90_linear)"/>
<path d="M-942.755 1045.33C-909.228 1129.15 -814.059 1215.98 -778.298 1102.09C-722.589 922.773 -790.693 547.492 -713.734 420.514C-515.445 216.799 -408.768 1192.27 -207.128 1209.55C-140.199 1223.75 -175.264 791.421 -113.583 748.457C54.1107 608.999 187.152 1967.47 344.618 1694.01C449.976 1504.89 380.83 727.86 483.822 713.192C552.339 705.195 624.888 1218.62 692.582 1070.74C810.85 784.155 966.669 828.008 1072 1114.62C1139.07 1226.5 1133.15 1442.01 1198.99 1465.21C1247.57 1497.31 1254.08 1353.31 1284.3 1302.45" stroke="url(#paint91_linear)"/>
<path d="M-942.579 1042.96C-908.19 1128.75 -810.499 1217.72 -773.808 1100.51C-716.644 916.171 -786.581 530.539 -707.733 399.329C-506.102 177.948 -399.246 1165.18 -197.03 1181.13C-132.227 1194.23 -166.555 770.504 -106.359 727.111C59.8392 585.316 191.23 1944.24 347.419 1670.56C452.865 1479.92 384.128 698.766 487.446 685.266C556.456 677.913 630.437 1198.23 698.613 1046.52C818.831 752.441 977.652 804.503 1084.61 1097.57C1149.04 1208.19 1142.26 1409.56 1203.85 1436.45C1249.51 1471.57 1256.34 1342.88 1284.65 1298.37" stroke="url(#paint92_linear)"/>
<path d="M-942.405 1040.59C-907.154 1128.35 -806.941 1219.46 -769.321 1098.94C-710.702 909.568 -782.471 513.586 -701.734 378.143C-496.761 139.097 -389.727 1138.09 -186.935 1152.71C-124.257 1164.72 -157.848 749.587 -99.1374 705.764C65.5653 561.633 195.305 1921.01 350.217 1647.12C455.752 1454.96 387.425 669.671 491.067 657.341C560.571 650.631 635.983 1177.83 704.641 1022.29C826.809 720.726 988.632 780.997 1097.23 1080.52C1159 1189.88 1151.37 1377.1 1208.71 1407.69C1251.45 1445.82 1258.61 1332.46 1285 1294.29" stroke="url(#paint93_linear)"/>
<path d="M-942.231 1038.22C-906.118 1127.95 -803.383 1221.19 -764.833 1097.37C-704.76 902.965 -778.362 496.633 -695.735 356.958C-487.419 100.246 -380.207 1110.99 -176.839 1124.28C-116.287 1135.2 -149.141 728.67 -91.9155 684.418C71.2915 537.95 199.381 1897.78 353.015 1623.67C458.639 1429.99 390.721 640.576 494.689 629.415C564.685 623.349 641.53 1157.44 710.669 998.061C834.788 689.011 999.612 757.491 1109.84 1063.47C1168.96 1171.56 1160.48 1344.64 1213.57 1378.93C1253.38 1420.08 1260.87 1322.04 1285.35 1290.21" stroke="url(#paint94_linear)"/>
<path d="M-942.057 1035.86C-905.082 1127.55 -799.825 1222.93 -760.345 1095.8C-698.817 896.362 -774.251 479.679 -689.735 335.772C-478.078 61.3945 -370.687 1083.9 -166.743 1095.86C-108.317 1105.69 -140.434 707.753 -84.6933 663.071C77.0181 514.266 203.457 1874.55 355.814 1600.23C461.527 1405.03 394.018 611.481 498.311 601.489C568.8 596.066 647.077 1137.04 716.698 973.835C842.767 657.297 1010.59 733.985 1122.46 1046.43C1178.92 1153.25 1169.59 1312.18 1218.43 1350.17C1255.32 1394.33 1263.13 1311.61 1285.7 1286.13" stroke="url(#paint95_linear)"/>
<path d="M-941.882 1033.49C-904.045 1127.15 -796.266 1224.66 -755.856 1094.22C-692.874 889.76 -770.14 462.726 -683.735 314.586C-468.735 22.5433 -361.166 1056.8 -156.646 1067.44C-100.346 1076.17 -131.726 686.835 -77.4702 641.725C82.7456 490.583 207.534 1851.32 358.614 1576.79C464.415 1380.06 397.316 582.386 501.934 573.563C572.916 568.784 652.625 1116.64 722.727 949.608C850.747 625.582 1021.57 710.479 1135.07 1029.38C1188.89 1134.94 1178.7 1279.72 1223.29 1321.41C1257.25 1368.59 1265.4 1301.19 1286.05 1282.05" stroke="url(#paint96_linear)"/>
<path d="M-941.708 1031.12C-903.009 1126.75 -792.708 1226.4 -751.369 1092.65C-686.932 883.157 -766.031 445.772 -677.735 293.4C-459.394 -16.3078 -351.646 1029.71 -146.55 1039.01C-92.3758 1046.66 -123.019 665.918 -70.2482 620.378C88.472 466.9 211.61 1828.09 361.412 1553.34C467.302 1355.1 400.612 553.291 505.555 545.637C577.031 541.501 658.172 1096.25 728.755 925.381C858.726 593.867 1032.55 686.974 1147.68 1012.33C1198.85 1116.63 1187.81 1247.26 1228.15 1292.65C1259.19 1342.84 1267.66 1290.77 1286.4 1277.97" stroke="url(#paint97_linear)"/>
<path d="M-941.535 1028.75C-901.973 1126.34 -789.15 1228.14 -746.881 1091.08C-680.989 876.554 -761.921 428.819 -671.736 272.214C-450.053 -55.1589 -342.126 1002.62 -136.454 1010.59C-84.406 1017.14 -114.312 645.001 -63.0264 599.031C94.1981 443.216 215.685 1804.86 364.21 1529.9C470.189 1330.13 403.909 524.197 509.177 517.711C581.146 514.219 663.719 1075.85 734.783 901.154C866.704 562.152 1043.53 663.468 1160.3 995.282C1208.81 1098.31 1196.93 1214.8 1233.01 1263.89C1261.12 1317.1 1269.92 1280.34 1286.74 1273.89" stroke="url(#paint98_linear)"/>
<path d="M-941.359 1026.38C-900.935 1125.94 -785.59 1229.87 -742.391 1089.51C-675.045 869.952 -757.809 411.866 -665.735 251.029C-440.709 -94.0098 -332.604 975.522 -126.356 982.167C-76.4339 987.628 -105.603 624.084 -55.8023 577.685C99.9267 419.533 219.763 1781.63 367.011 1506.45C473.079 1305.17 407.208 495.102 512.801 489.785C585.263 486.937 669.268 1055.46 740.814 876.927C874.686 530.438 1054.52 639.962 1172.92 978.234C1218.77 1080 1206.04 1182.35 1237.87 1235.13C1263.06 1291.35 1272.19 1269.92 1287.09 1269.82" stroke="url(#paint99_linear)"/>
<path d="M-941.186 1024.01C-899.9 1125.54 -782.033 1231.61 -737.905 1087.93C-669.104 863.349 -753.7 394.913 -659.737 229.843C-431.369 -132.861 -323.086 948.428 -116.261 953.744C-68.4649 958.113 -96.897 603.166 -48.5814 556.339C105.652 395.85 223.838 1758.4 369.808 1483.01C475.965 1280.2 410.503 466.007 516.421 461.86C589.377 459.655 674.814 1035.06 746.841 852.701C882.663 498.723 1065.5 616.456 1185.53 961.186C1228.73 1061.69 1215.15 1149.89 1242.73 1206.38C1264.99 1265.61 1274.45 1259.5 1287.44 1265.74" stroke="url(#paint100_linear)"/>
<path d="M-941.011 1021.64C-898.863 1125.14 -778.474 1233.35 -733.416 1086.36C-663.16 856.747 -749.589 377.96 -653.736 208.658C-422.027 -171.711 -313.565 921.335 -106.164 925.322C-60.4938 928.598 -88.1887 582.249 -41.3582 534.992C111.38 372.167 227.915 1735.17 372.608 1459.56C478.853 1255.24 413.801 436.913 520.044 433.934C593.493 432.373 680.362 1014.67 752.871 828.474C890.643 467.009 1076.48 592.951 1198.14 944.138C1238.7 1043.38 1224.26 1117.43 1247.59 1177.62C1266.93 1239.86 1276.71 1249.07 1287.79 1261.66" stroke="url(#paint101_linear)"/>
<path d="M-940.837 1019.27C-897.827 1124.74 -774.916 1235.08 -728.928 1084.79C-657.218 850.144 -745.479 361.006 -647.737 187.472C-412.685 -210.563 -304.045 894.24 -96.0681 896.898C-52.5239 899.082 -79.4819 561.332 -34.1364 513.645C117.106 348.484 231.991 1711.94 375.406 1436.12C481.74 1230.27 417.097 407.817 523.666 406.008C597.607 405.09 685.909 994.272 758.899 804.247C898.622 435.294 1087.46 569.444 1210.76 927.09C1248.66 1025.06 1233.37 1084.97 1252.44 1148.86C1268.86 1214.11 1278.97 1238.65 1288.14 1257.58" stroke="url(#paint102_linear)"/>
<path d="M-940.663 1016.91C-896.791 1124.34 -771.358 1236.82 -724.44 1083.22C-651.275 843.542 -741.369 344.053 -641.738 166.287C-403.344 -249.414 -294.525 867.147 -85.9723 868.476C-44.554 869.568 -70.7749 540.415 -26.9145 492.299C122.832 324.801 236.066 1688.71 378.205 1412.67C484.628 1205.31 420.394 378.723 527.287 378.082C601.722 377.808 691.456 973.877 764.927 780.02C906.601 403.579 1098.44 545.939 1223.37 910.042C1258.62 1006.75 1242.48 1052.51 1257.3 1120.1C1270.8 1188.37 1281.24 1228.23 1288.49 1253.5" stroke="url(#paint103_linear)"/>
</g>
</g>
<defs>
<linearGradient id="paint0_linear" x1="1071.92" y1="-41" x2="1071.92" y2="1206.05" gradientUnits="userSpaceOnUse">
<stop stop-color="#333399"/>
<stop offset="1" stop-color="#333399" stop-opacity="0"/>
</linearGradient>
<linearGradient id="paint1_linear" x1="1047.96" y1="961.609" x2="1047.96" y2="2121.24" gradientUnits="userSpaceOnUse">
<stop stop-color="#333399"/>
<stop offset="1" stop-color="#333399" stop-opacity="0"/>
</linearGradient>
<linearGradient id="paint2_linear" x1="1071.45" y1="-21.3405" x2="1071.45" y2="1208.04" gradientUnits="userSpaceOnUse">
<stop stop-color="#333399"/>
<stop offset="1" stop-color="#333399" stop-opacity="0"/>
</linearGradient>
<linearGradient id="paint3_linear" x1="1070.99" y1="-1.68213" x2="1070.99" y2="1210.03" gradientUnits="userSpaceOnUse">
<stop stop-color="#333399"/>
<stop offset="1" stop-color="#333399" stop-opacity="0"/>
</linearGradient>
<linearGradient id="paint4_linear" x1="1070.51" y1="17.9772" x2="1070.51" y2="1212.02" gradientUnits="userSpaceOnUse">
<stop stop-color="#333399"/>
<stop offset="1" stop-color="#333399" stop-opacity="0"/>
</linearGradient>
<linearGradient id="paint5_linear" x1="1070.04" y1="37.6355" x2="1070.04" y2="1214.01" gradientUnits="userSpaceOnUse">
<stop stop-color="#333399"/>
<stop offset="1" stop-color="#333399" stop-opacity="0"/>
</linearGradient>
<linearGradient id="paint6_linear" x1="1069.57" y1="57.2947" x2="1069.57" y2="1221.6" gradientUnits="userSpaceOnUse">
<stop stop-color="#333399"/>
<stop offset="1" stop-color="#333399" stop-opacity="0"/>
</linearGradient>
<linearGradient id="paint7_linear" x1="1069.1" y1="76.9545" x2="1069.1" y2="1237.94" gradientUnits="userSpaceOnUse">
<stop stop-color="#333399"/>
<stop offset="1" stop-color="#333399" stop-opacity="0"/>
</linearGradient>
<linearGradient id="paint8_linear" x1="1068.63" y1="96.6133" x2="1068.63" y2="1255.03" gradientUnits="userSpaceOnUse">
<stop stop-color="#333399"/>
<stop offset="1" stop-color="#333399" stop-opacity="0"/>
</linearGradient>
<linearGradient id="paint9_linear" x1="1068.16" y1="116.271" x2="1068.16" y2="1272.64" gradientUnits="userSpaceOnUse">
<stop stop-color="#333399"/>
<stop offset="1" stop-color="#333399" stop-opacity="0"/>
</linearGradient>
<linearGradient id="paint10_linear" x1="1067.69" y1="135.931" x2="1067.69" y2="1290.44" gradientUnits="userSpaceOnUse">
<stop stop-color="#333399"/>
<stop offset="1" stop-color="#333399" stop-opacity="0"/>
</linearGradient>
<linearGradient id="paint11_linear" x1="1067.22" y1="155.59" x2="1067.22" y2="1308.23" gradientUnits="userSpaceOnUse">
<stop stop-color="#333399"/>
<stop offset="1" stop-color="#333399" stop-opacity="0"/>
</linearGradient>
<linearGradient id="paint12_linear" x1="1066.75" y1="175.249" x2="1066.75" y2="1326.03" gradientUnits="userSpaceOnUse">
<stop stop-color="#333399"/>
<stop offset="1" stop-color="#333399" stop-opacity="0"/>
</linearGradient>
<linearGradient id="paint13_linear" x1="1066.28" y1="194.907" x2="1066.28" y2="1343.83" gradientUnits="userSpaceOnUse">
<stop stop-color="#333399"/>
<stop offset="1" stop-color="#333399" stop-opacity="0"/>
</linearGradient>
<linearGradient id="paint14_linear" x1="1065.81" y1="214.567" x2="1065.81" y2="1361.63" gradientUnits="userSpaceOnUse">
<stop stop-color="#333399"/>
<stop offset="1" stop-color="#333399" stop-opacity="0"/>
</linearGradient>
<linearGradient id="paint15_linear" x1="1065.34" y1="234.227" x2="1065.34" y2="1379.43" gradientUnits="userSpaceOnUse">
<stop stop-color="#333399"/>
<stop offset="1" stop-color="#333399" stop-opacity="0"/>
</linearGradient>
<linearGradient id="paint16_linear" x1="1064.87" y1="253.885" x2="1064.87" y2="1397.23" gradientUnits="userSpaceOnUse">
<stop stop-color="#333399"/>
<stop offset="1" stop-color="#333399" stop-opacity="0"/>
</linearGradient>
<linearGradient id="paint17_linear" x1="1064.4" y1="273.544" x2="1064.4" y2="1415.03" gradientUnits="userSpaceOnUse">
<stop stop-color="#333399"/>
<stop offset="1" stop-color="#333399" stop-opacity="0"/>
</linearGradient>
<linearGradient id="paint18_linear" x1="1063.93" y1="293.202" x2="1063.93" y2="1432.82" gradientUnits="userSpaceOnUse">
<stop stop-color="#333399"/>
<stop offset="1" stop-color="#333399" stop-opacity="0"/>
</linearGradient>
<linearGradient id="paint19_linear" x1="1063.46" y1="312.862" x2="1063.46" y2="1450.62" gradientUnits="userSpaceOnUse">
<stop stop-color="#333399"/>
<stop offset="1" stop-color="#333399" stop-opacity="0"/>
</linearGradient>
<linearGradient id="paint20_linear" x1="1062.99" y1="332.521" x2="1062.99" y2="1468.42" gradientUnits="userSpaceOnUse">
<stop stop-color="#333399"/>
<stop offset="1" stop-color="#333399" stop-opacity="0"/>
</linearGradient>
<linearGradient id="paint21_linear" x1="1062.52" y1="352.18" x2="1062.52" y2="1486.22" gradientUnits="userSpaceOnUse">
<stop stop-color="#333399"/>
<stop offset="1" stop-color="#333399" stop-opacity="0"/>
</linearGradient>
<linearGradient id="paint22_linear" x1="1062.05" y1="371.839" x2="1062.05" y2="1504.02" gradientUnits="userSpaceOnUse">
<stop stop-color="#333399"/>
<stop offset="1" stop-color="#333399" stop-opacity="0"/>
</linearGradient>
<linearGradient id="paint23_linear" x1="1061.58" y1="391.498" x2="1061.58" y2="1521.82" gradientUnits="userSpaceOnUse">
<stop stop-color="#333399"/>
<stop offset="1" stop-color="#333399" stop-opacity="0"/>
</linearGradient>
<linearGradient id="paint24_linear" x1="1061.11" y1="411.157" x2="1061.11" y2="1539.62" gradientUnits="userSpaceOnUse">
<stop stop-color="#333399"/>
<stop offset="1" stop-color="#333399" stop-opacity="0"/>
</linearGradient>
<linearGradient id="paint25_linear" x1="1060.64" y1="430.815" x2="1060.64" y2="1557.41" gradientUnits="userSpaceOnUse">
<stop stop-color="#333399"/>
<stop offset="1" stop-color="#333399" stop-opacity="0"/>
</linearGradient>
<linearGradient id="paint26_linear" x1="1060.17" y1="450.475" x2="1060.17" y2="1575.21" gradientUnits="userSpaceOnUse">
<stop stop-color="#333399"/>
<stop offset="1" stop-color="#333399" stop-opacity="0"/>
</linearGradient>
<linearGradient id="paint27_linear" x1="1059.7" y1="470.134" x2="1059.7" y2="1593.01" gradientUnits="userSpaceOnUse">
<stop stop-color="#333399"/>
<stop offset="1" stop-color="#333399" stop-opacity="0"/>
</linearGradient>
<linearGradient id="paint28_linear" x1="1059.23" y1="489.792" x2="1059.23" y2="1610.87" gradientUnits="userSpaceOnUse">
<stop stop-color="#333399"/>
<stop offset="1" stop-color="#333399" stop-opacity="0"/>
</linearGradient>
<linearGradient id="paint29_linear" x1="1058.77" y1="509.452" x2="1058.77" y2="1629.14" gradientUnits="userSpaceOnUse">
<stop stop-color="#333399"/>
<stop offset="1" stop-color="#333399" stop-opacity="0"/>
</linearGradient>
<linearGradient id="paint30_linear" x1="1058.3" y1="529.111" x2="1058.3" y2="1647.81" gradientUnits="userSpaceOnUse">
<stop stop-color="#333399"/>
<stop offset="1" stop-color="#333399" stop-opacity="0"/>
</linearGradient>
<linearGradient id="paint31_linear" x1="1057.82" y1="548.77" x2="1057.82" y2="1666.86" gradientUnits="userSpaceOnUse">
<stop stop-color="#333399"/>
<stop offset="1" stop-color="#333399" stop-opacity="0"/>
</linearGradient>
<linearGradient id="paint32_linear" x1="1057.36" y1="568.429" x2="1057.36" y2="1686.27" gradientUnits="userSpaceOnUse">
<stop stop-color="#333399"/>
<stop offset="1" stop-color="#333399" stop-opacity="0"/>
</linearGradient>
<linearGradient id="paint33_linear" x1="1056.89" y1="588.088" x2="1056.89" y2="1706" gradientUnits="userSpaceOnUse">
<stop stop-color="#333399"/>
<stop offset="1" stop-color="#333399" stop-opacity="0"/>
</linearGradient>
<linearGradient id="paint34_linear" x1="1056.42" y1="607.747" x2="1056.42" y2="1726.04" gradientUnits="userSpaceOnUse">
<stop stop-color="#333399"/>
<stop offset="1" stop-color="#333399" stop-opacity="0"/>
</linearGradient>
<linearGradient id="paint35_linear" x1="1055.94" y1="627.406" x2="1055.94" y2="1746.36" gradientUnits="userSpaceOnUse">
<stop stop-color="#333399"/>
<stop offset="1" stop-color="#333399" stop-opacity="0"/>
</linearGradient>
<linearGradient id="paint36_linear" x1="1055.48" y1="647.065" x2="1055.48" y2="1766.94" gradientUnits="userSpaceOnUse">
<stop stop-color="#333399"/>
<stop offset="1" stop-color="#333399" stop-opacity="0"/>
</linearGradient>
<linearGradient id="paint37_linear" x1="1055" y1="666.724" x2="1055" y2="1787.76" gradientUnits="userSpaceOnUse">
<stop stop-color="#333399"/>
<stop offset="1" stop-color="#333399" stop-opacity="0"/>
</linearGradient>
<linearGradient id="paint38_linear" x1="1054.53" y1="686.383" x2="1054.53" y2="1808.82" gradientUnits="userSpaceOnUse">
<stop stop-color="#333399"/>
<stop offset="1" stop-color="#333399" stop-opacity="0"/>
</linearGradient>
<linearGradient id="paint39_linear" x1="1054.07" y1="706.043" x2="1054.07" y2="1830.09" gradientUnits="userSpaceOnUse">
<stop stop-color="#333399"/>
<stop offset="1" stop-color="#333399" stop-opacity="0"/>
</linearGradient>
<linearGradient id="paint40_linear" x1="1053.59" y1="725.701" x2="1053.59" y2="1851.56" gradientUnits="userSpaceOnUse">
<stop stop-color="#333399"/>
<stop offset="1" stop-color="#333399" stop-opacity="0"/>
</linearGradient>
<linearGradient id="paint41_linear" x1="1053.12" y1="745.36" x2="1053.12" y2="1873.22" gradientUnits="userSpaceOnUse">
<stop stop-color="#333399"/>
<stop offset="1" stop-color="#333399" stop-opacity="0"/>
</linearGradient>
<linearGradient id="paint42_linear" x1="1052.66" y1="765.02" x2="1052.66" y2="1895.06" gradientUnits="userSpaceOnUse">
<stop stop-color="#333399"/>
<stop offset="1" stop-color="#333399" stop-opacity="0"/>
</linearGradient>
<linearGradient id="paint43_linear" x1="1052.19" y1="784.678" x2="1052.19" y2="1917.07" gradientUnits="userSpaceOnUse">
<stop stop-color="#333399"/>
<stop offset="1" stop-color="#333399" stop-opacity="0"/>
</linearGradient>
<linearGradient id="paint44_linear" x1="1051.72" y1="804.337" x2="1051.72" y2="1939.23" gradientUnits="userSpaceOnUse">
<stop stop-color="#333399"/>
<stop offset="1" stop-color="#333399" stop-opacity="0"/>
</linearGradient>
<linearGradient id="paint45_linear" x1="1051.25" y1="823.996" x2="1051.25" y2="1961.54" gradientUnits="userSpaceOnUse">
<stop stop-color="#333399"/>
<stop offset="1" stop-color="#333399" stop-opacity="0"/>
</linearGradient>
<linearGradient id="paint46_linear" x1="1050.78" y1="843.655" x2="1050.78" y2="1983.99" gradientUnits="userSpaceOnUse">
<stop stop-color="#333399"/>
<stop offset="1" stop-color="#333399" stop-opacity="0"/>
</linearGradient>
<linearGradient id="paint47_linear" x1="1050.3" y1="863.314" x2="1050.3" y2="2006.57" gradientUnits="userSpaceOnUse">
<stop stop-color="#333399"/>
<stop offset="1" stop-color="#333399" stop-opacity="0"/>
</linearGradient>
<linearGradient id="paint48_linear" x1="1049.84" y1="882.973" x2="1049.84" y2="2029.28" gradientUnits="userSpaceOnUse">
<stop stop-color="#333399"/>
<stop offset="1" stop-color="#333399" stop-opacity="0"/>
</linearGradient>
<linearGradient id="paint49_linear" x1="1049.37" y1="902.632" x2="1049.37" y2="2052.11" gradientUnits="userSpaceOnUse">
<stop stop-color="#333399"/>
<stop offset="1" stop-color="#333399" stop-opacity="0"/>
</linearGradient>
<linearGradient id="paint50_linear" x1="1048.9" y1="922.291" x2="1048.9" y2="2075.05" gradientUnits="userSpaceOnUse">
<stop stop-color="#333399"/>
<stop offset="1" stop-color="#333399" stop-opacity="0"/>
</linearGradient>
<linearGradient id="paint51_linear" x1="1048.43" y1="941.95" x2="1048.43" y2="2098.09" gradientUnits="userSpaceOnUse">
<stop stop-color="#333399"/>
<stop offset="1" stop-color="#333399" stop-opacity="0"/>
</linearGradient>
<linearGradient id="paint52_linear" x1="160.838" y1="2619.67" x2="160.838" y2="1135.33" gradientUnits="userSpaceOnUse">
<stop stop-color="#333399"/>
<stop offset="1" stop-color="#333399" stop-opacity="0"/>
</linearGradient>
<linearGradient id="paint53_linear" x1="174.174" y1="1426.29" x2="174.174" y2="45.9998" gradientUnits="userSpaceOnUse">
<stop stop-color="#333399"/>
<stop offset="1" stop-color="#333399" stop-opacity="0"/>
</linearGradient>
<linearGradient id="paint54_linear" x1="161.098" y1="2596.27" x2="161.098" y2="1132.96" gradientUnits="userSpaceOnUse">
<stop stop-color="#333399"/>
<stop offset="1" stop-color="#333399" stop-opacity="0"/>
</linearGradient>
<linearGradient id="paint55_linear" x1="161.36" y1="2572.87" x2="161.36" y2="1130.6" gradientUnits="userSpaceOnUse">
<stop stop-color="#333399"/>
<stop offset="1" stop-color="#333399" stop-opacity="0"/>
</linearGradient>
<linearGradient id="paint56_linear" x1="161.619" y1="2549.47" x2="161.619" y2="1128.23" gradientUnits="userSpaceOnUse">
<stop stop-color="#333399"/>
<stop offset="1" stop-color="#333399" stop-opacity="0"/>
</linearGradient>
<linearGradient id="paint57_linear" x1="161.88" y1="2526.07" x2="161.88" y2="1125.86" gradientUnits="userSpaceOnUse">
<stop stop-color="#333399"/>
<stop offset="1" stop-color="#333399" stop-opacity="0"/>
</linearGradient>
<linearGradient id="paint58_linear" x1="162.144" y1="2502.68" x2="162.144" y2="1116.83" gradientUnits="userSpaceOnUse">
<stop stop-color="#333399"/>
<stop offset="1" stop-color="#333399" stop-opacity="0"/>
</linearGradient>
<linearGradient id="paint59_linear" x1="162.405" y1="2479.27" x2="162.405" y2="1097.38" gradientUnits="userSpaceOnUse">
<stop stop-color="#333399"/>
<stop offset="1" stop-color="#333399" stop-opacity="0"/>
</linearGradient>
<linearGradient id="paint60_linear" x1="162.668" y1="2455.87" x2="162.668" y2="1077.03" gradientUnits="userSpaceOnUse">
<stop stop-color="#333399"/>
<stop offset="1" stop-color="#333399" stop-opacity="0"/>
</linearGradient>
<linearGradient id="paint61_linear" x1="162.929" y1="2432.48" x2="162.929" y2="1056.08" gradientUnits="userSpaceOnUse">
<stop stop-color="#333399"/>
<stop offset="1" stop-color="#333399" stop-opacity="0"/>
</linearGradient>
<linearGradient id="paint62_linear" x1="163.19" y1="2409.08" x2="163.19" y2="1034.89" gradientUnits="userSpaceOnUse">
<stop stop-color="#333399"/>
<stop offset="1" stop-color="#333399" stop-opacity="0"/>
</linearGradient>
<linearGradient id="paint63_linear" x1="163.452" y1="2385.68" x2="163.452" y2="1013.71" gradientUnits="userSpaceOnUse">
<stop stop-color="#333399"/>
<stop offset="1" stop-color="#333399" stop-opacity="0"/>
</linearGradient>
<linearGradient id="paint64_linear" x1="163.715" y1="2362.28" x2="163.715" y2="992.521" gradientUnits="userSpaceOnUse">
<stop stop-color="#333399"/>
<stop offset="1" stop-color="#333399" stop-opacity="0"/>
</linearGradient>
<linearGradient id="paint65_linear" x1="163.975" y1="2338.88" x2="163.975" y2="971.336" gradientUnits="userSpaceOnUse">
<stop stop-color="#333399"/>
<stop offset="1" stop-color="#333399" stop-opacity="0"/>
</linearGradient>
<linearGradient id="paint66_linear" x1="164.237" y1="2315.48" x2="164.237" y2="950.15" gradientUnits="userSpaceOnUse">
<stop stop-color="#333399"/>
<stop offset="1" stop-color="#333399" stop-opacity="0"/>
</linearGradient>
<linearGradient id="paint67_linear" x1="164.5" y1="2292.08" x2="164.5" y2="928.965" gradientUnits="userSpaceOnUse">
<stop stop-color="#333399"/>
<stop offset="1" stop-color="#333399" stop-opacity="0"/>
</linearGradient>
<linearGradient id="paint68_linear" x1="164.759" y1="2268.68" x2="164.759" y2="907.78" gradientUnits="userSpaceOnUse">
<stop stop-color="#333399"/>
<stop offset="1" stop-color="#333399" stop-opacity="0"/>
</linearGradient>
<linearGradient id="paint69_linear" x1="165.022" y1="2245.28" x2="165.022" y2="886.595" gradientUnits="userSpaceOnUse">
<stop stop-color="#333399"/>
<stop offset="1" stop-color="#333399" stop-opacity="0"/>
</linearGradient>
<linearGradient id="paint70_linear" x1="165.282" y1="2221.88" x2="165.282" y2="865.409" gradientUnits="userSpaceOnUse">
<stop stop-color="#333399"/>
<stop offset="1" stop-color="#333399" stop-opacity="0"/>
</linearGradient>
<linearGradient id="paint71_linear" x1="165.545" y1="2198.48" x2="165.545" y2="844.224" gradientUnits="userSpaceOnUse">
<stop stop-color="#333399"/>
<stop offset="1" stop-color="#333399" stop-opacity="0"/>
</linearGradient>
<linearGradient id="paint72_linear" x1="165.807" y1="2175.08" x2="165.807" y2="823.039" gradientUnits="userSpaceOnUse">
<stop stop-color="#333399"/>
<stop offset="1" stop-color="#333399" stop-opacity="0"/>
</linearGradient>
<linearGradient id="paint73_linear" x1="166.068" y1="2151.68" x2="166.068" y2="801.854" gradientUnits="userSpaceOnUse">
<stop stop-color="#333399"/>
<stop offset="1" stop-color="#333399" stop-opacity="0"/>
</linearGradient>
<linearGradient id="paint74_linear" x1="166.329" y1="2128.28" x2="166.329" y2="780.668" gradientUnits="userSpaceOnUse">
<stop stop-color="#333399"/>
<stop offset="1" stop-color="#333399" stop-opacity="0"/>
</linearGradient>
<linearGradient id="paint75_linear" x1="166.59" y1="2104.88" x2="166.59" y2="759.483" gradientUnits="userSpaceOnUse">
<stop stop-color="#333399"/>
<stop offset="1" stop-color="#333399" stop-opacity="0"/>
</linearGradient>
<linearGradient id="paint76_linear" x1="166.852" y1="2081.48" x2="166.852" y2="738.297" gradientUnits="userSpaceOnUse">
<stop stop-color="#333399"/>
<stop offset="1" stop-color="#333399" stop-opacity="0"/>
</linearGradient>
<linearGradient id="paint77_linear" x1="167.113" y1="2058.08" x2="167.113" y2="717.112" gradientUnits="userSpaceOnUse">
<stop stop-color="#333399"/>
<stop offset="1" stop-color="#333399" stop-opacity="0"/>
</linearGradient>
<linearGradient id="paint78_linear" x1="167.375" y1="2034.68" x2="167.375" y2="695.926" gradientUnits="userSpaceOnUse">
<stop stop-color="#333399"/>
<stop offset="1" stop-color="#333399" stop-opacity="0"/>
</linearGradient>
<linearGradient id="paint79_linear" x1="167.637" y1="2011.28" x2="167.637" y2="674.741" gradientUnits="userSpaceOnUse">
<stop stop-color="#333399"/>
<stop offset="1" stop-color="#333399" stop-opacity="0"/>
</linearGradient>
<linearGradient id="paint80_linear" x1="167.898" y1="1987.88" x2="167.898" y2="653.479" gradientUnits="userSpaceOnUse">
<stop stop-color="#333399"/>
<stop offset="1" stop-color="#333399" stop-opacity="0"/>
</linearGradient>
<linearGradient id="paint81_linear" x1="168.159" y1="1964.48" x2="168.159" y2="631.743" gradientUnits="userSpaceOnUse">
<stop stop-color="#333399"/>
<stop offset="1" stop-color="#333399" stop-opacity="0"/>
</linearGradient>
<linearGradient id="paint82_linear" x1="168.42" y1="1941.08" x2="168.42" y2="609.517" gradientUnits="userSpaceOnUse">
<stop stop-color="#333399"/>
<stop offset="1" stop-color="#333399" stop-opacity="0"/>
</linearGradient>
<linearGradient id="paint83_linear" x1="168.683" y1="1917.68" x2="168.683" y2="586.838" gradientUnits="userSpaceOnUse">
<stop stop-color="#333399"/>
<stop offset="1" stop-color="#333399" stop-opacity="0"/>
</linearGradient>
<linearGradient id="paint84_linear" x1="168.943" y1="1894.28" x2="168.943" y2="563.738" gradientUnits="userSpaceOnUse">
<stop stop-color="#333399"/>
<stop offset="1" stop-color="#333399" stop-opacity="0"/>
</linearGradient>
<linearGradient id="paint85_linear" x1="169.206" y1="1870.88" x2="169.206" y2="540.25" gradientUnits="userSpaceOnUse">
<stop stop-color="#333399"/>
<stop offset="1" stop-color="#333399" stop-opacity="0"/>
</linearGradient>
<linearGradient id="paint86_linear" x1="169.466" y1="1847.48" x2="169.466" y2="516.401" gradientUnits="userSpaceOnUse">
<stop stop-color="#333399"/>
<stop offset="1" stop-color="#333399" stop-opacity="0"/>
</linearGradient>
<linearGradient id="paint87_linear" x1="169.729" y1="1824.08" x2="169.729" y2="492.217" gradientUnits="userSpaceOnUse">
<stop stop-color="#333399"/>
<stop offset="1" stop-color="#333399" stop-opacity="0"/>
</linearGradient>
<linearGradient id="paint88_linear" x1="169.99" y1="1800.68" x2="169.99" y2="467.718" gradientUnits="userSpaceOnUse">
<stop stop-color="#333399"/>
<stop offset="1" stop-color="#333399" stop-opacity="0"/>
</linearGradient>
<linearGradient id="paint89_linear" x1="170.252" y1="1777.28" x2="170.252" y2="442.93" gradientUnits="userSpaceOnUse">
<stop stop-color="#333399"/>
<stop offset="1" stop-color="#333399" stop-opacity="0"/>
</linearGradient>
<linearGradient id="paint90_linear" x1="170.512" y1="1753.88" x2="170.512" y2="417.867" gradientUnits="userSpaceOnUse">
<stop stop-color="#333399"/>
<stop offset="1" stop-color="#333399" stop-opacity="0"/>
</linearGradient>
<linearGradient id="paint91_linear" x1="170.774" y1="1730.48" x2="170.774" y2="392.549" gradientUnits="userSpaceOnUse">
<stop stop-color="#333399"/>
<stop offset="1" stop-color="#333399" stop-opacity="0"/>
</linearGradient>
<linearGradient id="paint92_linear" x1="171.037" y1="1707.08" x2="171.037" y2="366.992" gradientUnits="userSpaceOnUse">
<stop stop-color="#333399"/>
<stop offset="1" stop-color="#333399" stop-opacity="0"/>
</linearGradient>
<linearGradient id="paint93_linear" x1="171.298" y1="1683.68" x2="171.298" y2="341.21" gradientUnits="userSpaceOnUse">
<stop stop-color="#333399"/>
<stop offset="1" stop-color="#333399" stop-opacity="0"/>
</linearGradient>
<linearGradient id="paint94_linear" x1="171.559" y1="1660.28" x2="171.559" y2="315.216" gradientUnits="userSpaceOnUse">
<stop stop-color="#333399"/>
<stop offset="1" stop-color="#333399" stop-opacity="0"/>
</linearGradient>
<linearGradient id="paint95_linear" x1="171.82" y1="1636.88" x2="171.82" y2="289.024" gradientUnits="userSpaceOnUse">
<stop stop-color="#333399"/>
<stop offset="1" stop-color="#333399" stop-opacity="0"/>
</linearGradient>
<linearGradient id="paint96_linear" x1="172.082" y1="1613.48" x2="172.082" y2="262.645" gradientUnits="userSpaceOnUse">
<stop stop-color="#333399"/>
<stop offset="1" stop-color="#333399" stop-opacity="0"/>
</linearGradient>
<linearGradient id="paint97_linear" x1="172.343" y1="1590.08" x2="172.343" y2="236.089" gradientUnits="userSpaceOnUse">
<stop stop-color="#333399"/>
<stop offset="1" stop-color="#333399" stop-opacity="0"/>
</linearGradient>
<linearGradient id="paint98_linear" x1="172.604" y1="1566.69" x2="172.604" y2="209.367" gradientUnits="userSpaceOnUse">
<stop stop-color="#333399"/>
<stop offset="1" stop-color="#333399" stop-opacity="0"/>
</linearGradient>
<linearGradient id="paint99_linear" x1="172.867" y1="1543.29" x2="172.867" y2="182.487" gradientUnits="userSpaceOnUse">
<stop stop-color="#333399"/>
<stop offset="1" stop-color="#333399" stop-opacity="0"/>
</linearGradient>
<linearGradient id="paint100_linear" x1="173.127" y1="1519.89" x2="173.127" y2="155.458" gradientUnits="userSpaceOnUse">
<stop stop-color="#333399"/>
<stop offset="1" stop-color="#333399" stop-opacity="0"/>
</linearGradient>
<linearGradient id="paint101_linear" x1="173.39" y1="1496.49" x2="173.39" y2="128.288" gradientUnits="userSpaceOnUse">
<stop stop-color="#333399"/>
<stop offset="1" stop-color="#333399" stop-opacity="0"/>
</linearGradient>
<linearGradient id="paint102_linear" x1="173.651" y1="1473.09" x2="173.651" y2="100.983" gradientUnits="userSpaceOnUse">
<stop stop-color="#333399"/>
<stop offset="1" stop-color="#333399" stop-opacity="0"/>
</linearGradient>
<linearGradient id="paint103_linear" x1="173.911" y1="1449.69" x2="173.911" y2="73.5524" gradientUnits="userSpaceOnUse">
<stop stop-color="#333399"/>
<stop offset="1" stop-color="#333399" stop-opacity="0"/>
</linearGradient>
</defs>
</svg>
