<svg width="1920" height="935" viewBox="0 0 1920 935" fill="none" xmlns="http://www.w3.org/2000/svg">
<mask id="mask0" mask-type="alpha" maskUnits="userSpaceOnUse" x="-2" y="0" width="1922" height="935">
<rect x="-2" width="1922" height="935" fill="#242424"/>
</mask>
<g mask="url(#mask0)">
<g opacity="0.5">
<path d="M1914.83 546.576C1913.31 540.649 1917.48 539.179 1907.24 516.939C1836.53 363.352 1737.46 189.684 1559.19 167.42C1412.69 149.123 1475.24 398.455 1358.1 407.209C1135.41 423.851 941.258 -16.7296 736.946 70.4261C635.799 113.574 719.807 317.259 629.91 336.669C580.542 347.328 562.563 264.641 513.567 265.393C469.781 266.065 428.365 354.125 385.467 340.587C218.997 288.052 192.794 40.688 -32.7566 79.2437C-191.139 106.318 -185.227 344.874 -287.365 440.765" stroke="url(#paint0_linear)" stroke-linecap="round" stroke-linejoin="round"/>
<path d="M1906.01 586.255C1861.65 550.318 1734.74 512.669 1687.29 564.211C1613.28 644.593 1704.45 812.065 1603.76 871.848C1364.01 1014.2 1255.91 643.57 1048.5 643.57C1009.53 643.57 1034.81 748.866 992.779 764.812C845.746 820.599 735.079 372.435 595.375 463.177C489.738 531.79 553.038 804.664 446.7 804.491C372.388 804.37 281.971 606.311 208.625 671.247C66.181 797.36 -127.058 747.901 -252.584 626.18C-284.915 594.828 -268.064 584.443 -278.547 561.027C-289.03 537.612 -299.709 519.487 -305 509.101" stroke="url(#paint1_linear)" stroke-linecap="round" stroke-linejoin="round"/>
<path d="M1914.66 547.354C1913.04 543.744 1911.2 541.193 1909.85 538.392C1907.98 536.156 1908.28 533.628 1901.29 523.898C1827.27 376.114 1728.02 198.584 1549.17 176.756C1404.78 158.818 1466.6 405.326 1350.93 414.221C1129.73 431.631 937.215 -9.09886 734.17 78.1271C632.935 121.774 716.537 326.816 626.318 345.842C576.461 356.289 557.061 271.34 507.588 273.351C461.867 276.483 417.474 361.846 372.956 346.187C209.116 294.067 183.758 51.3499 -37.5759 88.6905C-193.058 114.774 -187.472 348.298 -287.71 442.105" stroke="url(#paint2_linear)"/>
<path d="M1914.48 548.132C1912.01 543.875 1907.67 540.622 1905.4 538.907C1902.09 538.324 1904.2 539.196 1895.34 530.857C1818 388.875 1718.58 207.483 1539.16 186.092C1396.88 168.513 1457.97 412.196 1343.77 421.233C1124.05 439.409 933.172 -1.46862 731.394 85.8277C630.071 129.974 713.267 336.373 622.726 355.014C572.379 365.25 551.56 278.039 501.609 281.308C453.954 286.9 406.584 369.567 360.445 351.787C199.236 300.082 174.721 62.0113 -42.3954 98.1368C-194.977 123.231 -189.717 351.721 -288.056 443.445" stroke="url(#paint3_linear)"/>
<path d="M1914.31 548.91C1910.99 544.007 1904.14 540.052 1900.95 539.424C1896.19 540.493 1900.13 544.765 1889.39 537.816C1808.74 401.637 1709.13 216.383 1529.15 195.428C1388.97 178.208 1449.33 419.067 1336.61 428.244C1118.37 447.189 929.13 6.16212 728.619 93.5287C627.207 138.174 709.997 345.93 619.133 364.187C568.298 374.212 546.058 284.739 495.629 289.266C446.04 297.317 395.693 377.288 347.935 357.387C189.355 306.097 165.685 72.6733 -47.2147 107.584C-196.897 131.687 -191.961 355.145 -288.402 444.785" stroke="url(#paint4_linear)"/>
<path d="M1914.14 549.688C1909.96 544.138 1900.62 539.481 1896.5 539.94C1890.3 542.661 1896.05 550.334 1883.44 544.775C1799.47 414.399 1699.69 225.282 1519.13 204.764C1381.07 187.903 1440.7 425.938 1329.44 435.256C1112.69 454.968 925.087 13.7926 725.843 101.23C624.343 146.375 706.727 355.486 615.541 373.36C564.216 383.174 540.556 291.438 489.65 297.224C438.126 307.735 384.802 385.009 335.424 362.986C179.474 312.112 156.649 83.3349 -52.0341 117.03C-198.816 140.144 -194.206 358.568 -288.748 446.124" stroke="url(#paint5_linear)"/>
<path d="M1913.97 550.466C1908.93 544.269 1897.09 538.91 1892.05 540.456C1884.4 544.83 1891.97 555.902 1877.48 551.734C1790.21 427.16 1690.25 234.182 1509.12 214.1C1373.16 197.598 1432.06 432.808 1322.28 442.268C1107.01 462.747 921.044 21.4231 723.067 108.93C621.479 154.575 703.457 365.043 611.948 382.533C560.135 392.135 535.054 298.137 483.671 305.182C430.212 318.152 373.911 392.73 322.913 368.586C169.594 318.127 147.612 93.9966 -56.8538 126.477C-200.736 148.601 -196.451 361.992 -289.094 447.464" stroke="url(#paint6_linear)"/>
<path d="M1913.79 551.244C1907.9 544.401 1893.56 538.34 1887.6 540.973C1878.51 546.999 1887.9 561.471 1871.53 558.693C1780.94 439.922 1680.81 243.082 1499.11 223.437C1365.26 207.293 1423.42 439.679 1315.12 449.28C1101.34 470.527 917.001 29.0539 720.291 116.631C618.615 162.775 700.187 374.6 608.356 391.706C556.053 401.097 529.552 304.837 477.692 313.14C422.299 328.57 363.021 400.451 310.402 374.186C159.713 324.143 138.576 104.659 -61.6731 135.924C-202.655 157.057 -198.696 365.416 -289.439 448.804" stroke="url(#paint7_linear)"/>
<path d="M1913.62 552.022C1906.88 544.532 1890.03 537.769 1883.14 541.489C1872.62 549.167 1883.82 567.04 1865.58 565.652C1771.68 452.684 1671.37 251.981 1489.09 232.773C1357.35 216.988 1414.79 446.55 1307.96 456.291C1095.66 478.306 912.959 36.6844 717.515 124.332C615.751 170.975 696.917 384.157 604.764 400.879C551.972 410.058 524.05 311.536 471.712 321.098C414.385 338.987 352.13 408.172 297.891 379.786C149.832 330.158 129.539 115.32 -66.4924 145.37C-204.575 165.514 -200.94 368.84 -289.785 450.144" stroke="url(#paint8_linear)"/>
<path d="M1913.45 552.8C1905.85 544.664 1886.5 537.199 1878.69 542.005C1866.72 551.336 1879.74 572.608 1859.63 572.61C1762.41 465.445 1661.92 260.881 1479.08 242.109C1349.45 226.682 1406.15 453.42 1300.79 463.303C1089.98 486.085 908.916 44.3149 714.739 132.033C612.887 179.175 693.647 393.714 601.171 410.052C547.89 419.02 518.549 318.235 465.733 329.055C406.471 349.405 341.239 415.893 285.38 385.385C139.952 336.173 120.503 125.982 -71.3121 154.817C-206.494 173.971 -203.185 372.263 -290.131 451.484" stroke="url(#paint9_linear)"/>
<path d="M1913.27 553.578C1904.82 544.795 1882.97 536.628 1874.24 542.522C1860.83 553.505 1875.67 578.177 1853.68 579.569C1753.15 478.207 1652.48 269.781 1469.07 251.445C1341.54 236.378 1397.52 460.291 1293.63 470.315C1084.3 493.865 904.873 51.9457 711.963 139.734C610.023 187.376 690.377 403.271 597.579 419.225C543.809 427.981 513.047 324.935 459.754 337.013C398.557 359.822 330.349 423.614 272.87 390.985C130.071 342.188 111.466 136.644 -76.1315 164.264C-208.414 182.427 -205.43 375.687 -290.477 452.824" stroke="url(#paint10_linear)"/>
<path d="M1913.1 554.355C1903.79 544.926 1879.44 536.057 1869.79 543.038C1854.93 555.673 1871.59 583.745 1847.73 586.528C1743.88 490.968 1643.04 278.68 1459.05 260.781C1333.64 246.072 1388.88 467.162 1286.47 477.326C1078.62 501.644 900.83 59.576 709.187 147.435C607.159 195.576 687.107 412.827 593.987 428.397C539.727 436.942 507.545 331.634 453.774 344.971C390.644 370.239 319.458 431.335 260.359 396.585C120.19 348.203 102.43 147.305 -80.9509 173.71C-210.333 190.884 -207.675 379.11 -290.823 454.163" stroke="url(#paint11_linear)"/>
<path d="M1912.93 555.133C1902.76 545.058 1875.91 535.487 1865.34 543.554C1849.04 557.842 1867.51 589.314 1841.78 593.487C1734.62 503.73 1633.6 287.58 1449.04 270.118C1325.73 255.767 1380.24 474.033 1279.3 484.338C1072.94 509.423 896.788 67.2067 706.411 155.136C604.295 203.776 683.837 422.385 590.394 437.57C535.646 445.904 502.043 338.333 447.795 352.929C382.73 380.657 308.568 439.056 247.848 402.185C110.31 354.218 93.3934 157.967 -85.7703 183.157C-212.253 199.341 -209.919 382.534 -291.168 455.503" stroke="url(#paint12_linear)"/>
<path d="M1912.76 555.911C1901.74 545.189 1872.38 534.916 1860.89 544.071C1843.15 560.01 1863.44 594.883 1835.83 600.446C1725.35 516.492 1624.15 296.479 1439.03 279.454C1317.83 265.462 1371.61 480.903 1272.14 491.35C1067.26 517.202 892.745 74.8373 703.635 162.837C601.431 211.976 680.567 431.941 586.802 446.743C531.565 454.866 496.541 345.033 441.816 360.887C374.816 391.074 297.677 446.777 235.337 407.784C100.429 360.233 84.357 168.629 -90.5896 192.603C-214.172 207.797 -212.164 385.958 -291.514 456.843" stroke="url(#paint13_linear)"/>
<path d="M1912.58 556.689C1900.71 545.32 1868.85 534.346 1856.44 544.587C1837.25 562.179 1859.36 600.451 1829.88 607.405C1716.09 529.253 1614.71 305.379 1429.01 288.79C1309.92 275.157 1362.97 487.774 1264.98 498.361C1061.58 524.982 888.702 82.4678 700.859 170.538C598.568 220.177 677.297 441.498 583.21 455.916C527.483 463.827 491.04 351.732 435.837 368.845C366.903 401.492 286.786 454.498 222.827 413.384C90.5486 366.248 75.3206 179.291 -95.4091 202.05C-216.091 216.254 -214.409 389.382 -291.86 458.183" stroke="url(#paint14_linear)"/>
<path d="M1912.41 557.467C1899.68 545.452 1865.32 533.776 1851.99 545.103C1831.36 564.348 1855.28 606.02 1823.93 614.364C1706.82 542.015 1605.27 314.279 1419 298.126C1302.02 284.852 1354.34 494.645 1257.81 505.373C1055.9 532.761 884.66 90.0986 698.083 178.239C595.704 228.377 674.027 451.055 579.617 465.089C523.402 472.789 485.538 358.431 429.858 376.803C358.989 411.91 275.896 462.219 210.316 418.984C80.6681 372.264 66.2842 189.953 -100.228 211.497C-218.011 224.711 -216.653 392.805 -292.206 459.523" stroke="url(#paint15_linear)"/>
<path d="M1912.24 558.245C1898.65 545.583 1861.79 533.205 1847.53 545.62C1825.46 566.516 1851.21 611.589 1817.98 621.323C1697.56 554.777 1595.83 323.178 1408.99 307.462C1294.11 294.547 1345.7 501.516 1250.65 512.385C1050.22 540.54 880.617 97.7292 695.308 185.94C592.84 236.577 670.757 460.612 576.025 474.262C519.32 481.75 480.036 365.131 423.878 384.76C351.075 422.327 265.005 469.94 197.805 424.584C70.7874 378.279 57.2479 200.615 -105.048 220.943C-219.93 233.167 -218.898 396.229 -292.552 460.863" stroke="url(#paint16_linear)"/>
<path d="M1912.06 559.023C1897.62 545.715 1858.26 532.634 1843.08 546.136C1819.57 568.685 1847.13 617.158 1812.03 628.282C1688.29 567.538 1586.39 332.078 1398.97 316.799C1286.21 304.242 1337.06 508.386 1243.49 519.397C1044.54 548.32 876.574 105.36 692.531 193.64C589.976 244.778 667.487 470.169 572.433 483.435C515.239 490.712 474.534 371.83 417.899 392.718C343.161 432.744 254.114 477.661 185.294 430.183C60.9066 384.294 48.2112 211.276 -109.867 230.39C-221.85 241.624 -221.143 399.653 -292.897 462.202" stroke="url(#paint17_linear)"/>
<path d="M1911.89 559.801C1896.6 545.846 1854.74 532.064 1838.63 546.652C1813.68 570.854 1843.05 622.726 1806.08 635.241C1679.03 580.3 1576.94 340.978 1388.96 326.135C1278.3 313.937 1328.43 515.257 1236.32 526.409C1038.86 556.099 872.531 112.991 689.756 201.342C587.112 252.978 664.217 479.726 568.84 492.608C511.157 499.674 469.032 378.529 411.92 400.676C335.248 443.162 243.224 485.383 172.783 435.783C51.026 390.309 39.1748 221.938 -114.687 239.837C-223.769 250.081 -223.388 403.077 -293.243 463.543" stroke="url(#paint18_linear)"/>
<path d="M1911.72 560.579C1895.57 545.978 1851.21 531.493 1834.18 547.169C1807.78 573.023 1838.98 628.295 1800.13 642.2C1669.76 593.062 1567.5 349.878 1378.95 335.471C1270.4 323.632 1319.79 522.128 1229.16 533.42C1033.18 563.878 868.489 120.621 686.98 209.042C584.248 261.178 660.947 489.283 565.248 501.781C507.076 508.635 463.531 385.229 405.941 408.634C327.334 453.58 232.333 493.104 160.272 441.383C41.1454 396.324 30.1385 232.6 -119.506 249.283C-225.689 258.538 -225.633 406.5 -293.589 464.882" stroke="url(#paint19_linear)"/>
<path d="M1911.54 561.357C1894.54 546.109 1847.68 530.923 1829.73 547.685C1801.89 575.191 1834.9 633.864 1794.18 649.159C1660.5 605.823 1558.06 358.777 1368.93 344.807C1262.49 333.327 1311.16 528.999 1222 540.432C1027.5 571.658 864.446 128.252 684.204 216.743C581.384 269.378 657.677 498.84 561.655 510.954C502.994 517.597 458.028 391.928 399.961 416.592C319.42 463.997 221.442 500.825 147.761 446.983C31.2646 402.34 21.1017 243.262 -124.326 258.73C-227.608 266.994 -227.878 409.924 -293.935 466.222" stroke="url(#paint20_linear)"/>
<path d="M1911.37 562.135C1893.51 546.241 1844.15 530.353 1825.28 548.202C1795.99 577.36 1830.83 639.433 1788.23 656.118C1651.23 618.585 1548.62 367.677 1358.92 354.144C1254.59 343.022 1302.52 535.869 1214.83 547.444C1021.82 579.437 860.403 135.883 681.428 224.444C578.52 277.579 654.407 508.397 558.063 520.127C498.913 526.558 452.527 398.628 393.982 424.55C311.506 474.415 210.552 508.546 135.251 452.583C21.3839 408.355 12.0654 253.924 -129.145 268.177C-229.528 275.451 -230.122 413.348 -294.281 467.562" stroke="url(#paint21_linear)"/>
<path d="M1911.2 562.913C1892.48 546.372 1840.62 529.782 1820.83 548.718C1790.1 579.529 1826.75 645.001 1782.28 663.076C1641.97 631.347 1539.18 376.576 1348.9 363.48C1246.68 352.717 1293.88 542.74 1207.67 554.456C1016.14 587.216 856.36 143.513 678.652 232.145C575.656 285.779 651.137 517.954 554.471 529.3C494.831 535.52 447.025 405.327 388.003 432.508C303.593 484.832 199.661 516.267 122.74 458.182C11.5034 414.37 3.02905 264.585 -133.964 277.623C-231.447 283.907 -232.367 416.771 -294.626 468.902" stroke="url(#paint22_linear)"/>
<path d="M1911.03 563.691C1891.46 546.503 1837.09 529.211 1816.37 549.234C1784.21 581.697 1822.67 650.57 1776.33 670.035C1632.7 644.108 1529.73 385.476 1338.89 372.816C1238.78 362.412 1285.25 549.611 1200.51 561.468C1010.46 594.996 852.318 151.144 675.876 239.846C572.792 293.979 647.867 527.511 550.878 538.473C490.75 544.481 441.523 412.026 382.023 440.466C295.679 495.25 188.77 523.988 110.229 463.782C1.62281 420.385 -6.00742 275.247 -138.784 287.07C-233.366 292.364 -234.612 420.195 -294.972 470.242" stroke="url(#paint23_linear)"/>
<path d="M1910.85 564.469C1890.43 546.635 1833.56 528.641 1811.92 549.751C1778.31 583.866 1818.6 656.138 1770.38 676.994C1623.44 656.87 1520.29 394.376 1328.88 382.152C1230.87 372.107 1276.61 556.482 1193.35 568.479C1004.78 602.775 848.275 158.774 673.1 247.547C569.928 302.18 644.597 537.068 547.286 547.646C486.669 553.443 436.021 418.726 376.044 448.424C287.765 505.667 177.88 531.709 97.7184 469.382C-8.25776 426.4 -15.0438 285.909 -143.603 296.517C-235.286 300.821 -236.856 423.619 -295.318 471.582" stroke="url(#paint24_linear)"/>
<path d="M1910.68 565.247C1889.4 546.766 1830.03 528.07 1807.47 550.267C1772.42 586.035 1814.52 661.707 1764.43 683.953C1614.17 669.632 1510.85 403.276 1318.86 391.489C1222.97 381.802 1267.98 563.352 1186.18 575.491C999.099 610.554 844.232 166.405 670.324 255.248C567.064 310.38 641.327 546.625 543.694 556.819C482.587 562.404 430.52 425.425 370.065 456.381C279.852 516.085 166.989 539.43 85.2076 474.982C-18.1383 432.415 -24.0801 296.571 -148.423 305.964C-237.205 309.278 -239.101 427.043 -295.664 472.922" stroke="url(#paint25_linear)"/>
<path d="M1910.51 566.025C1888.37 546.898 1826.5 527.5 1803.02 550.783C1766.52 588.204 1810.44 667.276 1758.48 690.912C1604.91 682.394 1501.41 412.175 1308.85 400.825C1215.06 391.497 1259.34 570.223 1179.02 582.503C993.42 618.334 840.19 174.036 667.548 262.949C564.2 318.58 638.057 556.182 540.102 565.992C478.506 571.366 425.018 432.125 364.086 464.34C271.938 526.502 156.099 547.151 72.6969 480.582C-28.0189 438.431 -33.1165 307.233 -153.242 315.411C-239.125 317.735 -241.346 430.467 -296.009 474.262" stroke="url(#paint26_linear)"/>
<path d="M1910.33 566.803C1887.34 547.029 1822.97 526.93 1798.57 551.3C1760.63 590.372 1806.37 672.845 1752.53 697.871C1595.64 695.155 1491.97 421.075 1298.84 410.161C1207.16 401.192 1250.7 577.094 1171.86 589.515C987.74 626.113 836.147 181.666 664.773 270.65C561.336 326.781 634.787 565.739 536.509 575.165C474.424 580.328 419.516 438.824 358.107 472.297C264.024 536.92 145.208 554.872 60.186 486.182C-37.8996 444.446 -42.1531 317.895 -158.062 324.857C-241.044 326.191 -243.591 433.891 -296.355 475.602" stroke="url(#paint27_linear)"/>
<path d="M1910.16 567.581C1886.32 547.161 1819.44 526.359 1794.12 551.816C1754.74 592.541 1802.29 678.413 1746.58 704.83C1586.38 707.917 1482.52 429.975 1288.82 419.497C1199.25 410.887 1242.07 583.965 1164.69 596.527C982.06 633.893 832.104 189.297 661.996 278.351C558.472 334.981 631.517 575.295 532.917 584.338C470.343 589.289 414.014 445.523 352.127 480.255C256.11 547.337 134.317 562.593 47.675 491.782C-47.7804 450.461 -51.1896 328.557 -162.881 334.304C-242.964 334.648 -245.836 437.314 -296.701 476.941" stroke="url(#paint28_linear)"/>
<path d="M1909.99 568.359C1885.29 547.292 1815.91 525.789 1789.67 552.333C1748.84 594.71 1798.21 683.982 1740.62 711.789C1577.11 720.679 1473.08 438.875 1278.81 428.834C1191.35 420.583 1233.43 590.836 1157.53 603.539C976.38 641.672 828.061 196.928 659.221 286.052C555.608 343.181 628.247 584.853 529.324 593.511C466.261 598.251 408.512 452.223 346.148 488.213C248.197 557.755 123.426 570.315 35.1643 497.382C-57.6609 456.477 -60.226 339.219 -167.7 343.751C-244.883 343.105 -248.08 440.738 -297.047 478.282" stroke="url(#paint29_linear)"/>
<path d="M1909.82 569.137C1884.26 547.424 1812.38 525.218 1785.22 552.849C1742.95 596.878 1794.14 689.551 1734.67 718.748C1567.85 733.44 1463.64 447.774 1268.8 438.17C1183.44 430.277 1224.8 597.706 1150.37 610.55C970.701 649.451 824.019 204.558 656.445 293.753C552.744 351.381 624.977 594.409 525.732 602.683C462.18 607.212 403.01 458.922 340.169 496.171C240.283 568.172 112.536 578.035 22.6536 502.981C-67.5415 462.492 -69.2623 349.88 -172.52 353.197C-246.802 351.561 -250.325 444.162 -297.393 479.621" stroke="url(#paint30_linear)"/>
<path d="M1909.64 569.915C1883.23 547.555 1808.86 524.648 1780.76 553.365C1737.05 599.047 1790.06 695.12 1728.72 725.707C1558.58 746.202 1454.2 456.674 1258.78 447.506C1175.54 439.973 1216.16 604.577 1143.2 617.562C965.021 657.231 819.976 212.189 653.669 301.454C549.88 359.582 621.707 603.966 522.14 611.857C458.098 616.174 397.508 465.622 334.189 504.129C232.369 578.59 101.645 585.757 10.1426 508.581C-77.4223 468.507 -78.2989 360.542 -177.339 362.644C-248.722 360.018 -252.57 447.586 -297.739 480.961" stroke="url(#paint31_linear)"/>
<path d="M1909.47 570.693C1882.2 547.687 1805.33 524.077 1776.31 553.882C1731.16 601.216 1785.98 700.688 1722.77 732.666C1549.32 758.964 1444.75 465.574 1248.77 456.843C1167.63 449.668 1207.52 611.448 1136.04 624.574C959.341 665.01 815.933 219.82 650.893 309.155C547.016 367.782 618.437 613.523 518.547 621.03C454.017 625.136 392.007 472.321 328.21 512.087C224.455 589.008 90.7545 593.478 -2.36816 514.181C-87.3029 474.522 -87.3353 371.204 -182.159 372.091C-250.641 368.475 -254.814 451.009 -298.084 482.301" stroke="url(#paint32_linear)"/>
<path d="M1909.3 571.471C1881.18 547.818 1801.8 523.507 1771.86 554.398C1725.27 603.385 1781.91 706.257 1716.82 739.625C1540.05 771.725 1435.31 474.473 1238.76 466.179C1159.73 459.363 1198.89 618.319 1128.88 631.586C953.661 672.789 811.89 227.45 648.117 316.856C544.153 375.983 615.167 623.08 514.955 630.203C449.935 634.097 386.505 479.02 322.231 520.045C216.542 599.425 79.8637 601.199 -14.879 519.781C-97.1836 480.537 -96.3719 381.866 -186.978 381.538C-252.561 376.932 -257.059 454.433 -298.43 483.641" stroke="url(#paint33_linear)"/>
<path d="M1909.12 572.25C1880.15 547.95 1798.27 522.936 1767.41 554.915C1719.37 605.554 1777.83 711.826 1710.87 746.584C1530.79 784.487 1425.87 483.373 1228.74 475.515C1151.82 469.058 1190.25 625.19 1121.71 638.598C947.981 680.569 807.848 235.081 645.341 324.557C541.289 384.183 611.897 632.638 511.363 639.376C445.854 643.059 381.003 485.72 316.252 528.003C208.628 609.843 68.9732 608.92 -27.3898 525.381C-107.064 486.553 -105.408 392.528 -191.798 390.985C-254.48 385.389 -259.304 457.857 -298.776 484.981" stroke="url(#paint34_linear)"/>
<path d="M1908.95 573.028C1879.12 548.081 1794.74 522.366 1762.96 555.431C1713.48 607.723 1773.75 717.395 1704.92 753.543C1521.52 797.249 1416.43 492.273 1218.73 484.852C1143.92 478.753 1181.62 632.061 1114.55 645.609C942.302 688.348 803.805 242.712 642.565 332.258C538.425 392.383 608.627 642.194 507.77 648.549C441.772 652.021 375.501 492.419 310.272 535.961C200.714 620.26 58.0826 616.641 -39.9005 530.981C-116.945 492.568 -114.445 403.19 -196.617 400.431C-256.4 393.846 -261.549 461.281 -299.122 486.321" stroke="url(#paint35_linear)"/>
<path d="M1908.78 573.806C1878.09 548.213 1791.21 521.795 1758.51 555.948C1707.58 609.891 1769.68 722.963 1698.97 760.502C1512.26 810.011 1406.99 501.173 1208.72 494.188C1136.01 488.448 1172.98 638.931 1107.39 652.621C936.622 696.128 799.762 250.343 639.789 339.959C535.561 400.584 605.357 651.751 504.178 657.722C437.691 660.982 370 499.119 304.293 543.919C192.801 630.678 47.192 624.362 -52.4113 536.581C-126.825 498.583 -123.481 413.852 -201.436 409.878C-258.319 402.302 -263.793 464.705 -299.467 487.661" stroke="url(#paint36_linear)"/>
<path d="M1908.61 574.584C1877.06 548.345 1787.68 521.225 1754.06 556.464C1701.69 612.06 1765.6 728.532 1693.02 767.462C1502.99 822.773 1397.54 510.073 1198.7 503.524C1128.11 498.143 1164.35 645.803 1100.23 659.633C930.942 703.907 795.72 257.974 637.013 347.66C532.697 408.784 602.088 661.309 500.586 666.895C433.61 669.944 364.498 505.818 298.314 551.877C184.887 641.096 36.3014 632.084 -64.922 542.181C-136.706 504.599 -132.517 424.514 -206.256 419.325C-260.238 410.759 -266.038 468.129 -299.813 489.001" stroke="url(#paint37_linear)"/>
<path d="M1908.43 575.362C1876.04 548.476 1784.15 520.655 1749.61 556.981C1695.8 614.229 1761.52 734.101 1687.07 774.421C1493.73 835.534 1388.1 518.972 1188.69 512.861C1120.2 507.838 1155.71 652.673 1093.06 666.645C925.263 711.687 791.677 265.604 634.238 355.361C529.833 416.985 598.818 670.866 496.993 676.068C429.528 678.906 358.996 512.518 292.335 559.835C176.973 651.513 25.4107 639.805 -77.4329 547.78C-146.587 510.614 -141.554 435.176 -211.075 428.772C-262.158 419.216 -268.283 471.552 -300.159 490.341" stroke="url(#paint38_linear)"/>
<path d="M1908.26 576.14C1875.01 548.607 1780.62 520.084 1745.15 557.497C1689.9 616.398 1757.45 739.67 1681.12 781.38C1484.46 848.296 1378.66 527.872 1178.68 522.197C1112.3 517.533 1147.07 659.544 1085.9 673.657C919.583 719.466 787.634 273.235 631.462 363.062C526.969 425.185 595.548 680.423 493.401 685.241C425.447 687.868 353.494 519.217 286.356 567.793C169.06 661.931 14.5201 647.526 -89.9436 553.38C-156.467 516.629 -150.59 445.838 -215.895 438.218C-264.077 427.673 -270.528 474.976 -300.505 491.681" stroke="url(#paint39_linear)"/>
<path d="M1908.09 576.918C1873.98 548.739 1777.09 519.514 1740.7 558.014C1684.01 618.567 1753.37 745.239 1675.17 788.339C1475.2 861.058 1369.22 536.772 1168.66 531.534C1104.39 527.228 1138.44 666.415 1078.74 680.669C913.903 727.246 783.591 280.866 628.686 370.764C524.105 433.386 592.278 689.98 489.808 694.414C421.365 696.829 347.992 525.917 280.376 575.751C161.146 672.349 3.62929 655.247 -102.455 558.98C-166.348 522.645 -159.627 456.5 -220.714 447.665C-265.997 436.13 -272.772 478.4 -300.851 493.021" stroke="url(#paint40_linear)"/>
<path d="M1907.91 577.696C1872.95 548.87 1773.56 518.943 1736.25 558.53C1678.11 620.735 1749.29 750.807 1669.22 795.298C1465.93 873.82 1359.78 545.672 1158.65 540.87C1096.49 536.923 1129.8 673.286 1071.57 687.681C908.223 735.025 779.549 288.496 625.91 378.464C521.241 441.586 589.007 699.537 486.216 703.587C417.284 705.791 342.491 532.616 274.397 583.709C153.232 682.766 -7.2613 662.968 -114.965 564.58C-176.228 528.659 -168.663 467.161 -225.533 457.112C-267.916 444.586 -275.017 481.824 -301.196 494.361" stroke="url(#paint41_linear)"/>
<path d="M1907.74 578.474C1871.92 549.002 1770.03 518.373 1731.8 559.046C1672.22 622.904 1745.22 756.376 1663.27 802.257C1456.67 886.581 1350.33 554.572 1148.64 550.206C1088.58 546.619 1121.17 680.157 1064.41 694.693C902.543 742.805 775.506 296.127 623.134 386.166C518.377 449.786 585.738 709.094 482.624 712.76C413.202 714.753 336.989 539.316 268.418 591.667C145.318 693.184 -18.1519 670.69 -127.476 570.18C-186.109 534.675 -177.7 477.823 -230.353 466.559C-269.836 453.043 -277.262 485.248 -301.542 495.701" stroke="url(#paint42_linear)"/>
<path d="M1907.57 579.252C1870.9 549.134 1766.5 517.803 1727.35 559.563C1666.33 625.073 1741.14 761.945 1657.32 809.216C1447.4 899.343 1340.89 563.471 1138.62 559.542C1080.68 556.314 1112.53 687.028 1057.25 701.705C896.863 750.584 771.463 303.758 620.358 393.867C515.513 457.987 582.467 718.651 479.031 721.933C409.121 723.714 331.487 546.015 262.438 599.625C137.404 703.601 -29.0427 678.411 -139.987 575.78C-195.99 540.69 -186.736 488.485 -235.172 476.006C-271.755 461.5 -279.507 488.672 -301.888 497.041" stroke="url(#paint43_linear)"/>
<path d="M1907.4 580.03C1869.87 549.265 1762.98 517.232 1722.9 560.079C1660.43 627.242 1737.06 767.514 1651.37 816.175C1438.13 912.105 1331.45 572.371 1128.61 568.879C1072.77 566.009 1103.89 693.898 1050.08 708.716C891.184 758.363 767.42 311.389 617.582 401.568C512.649 466.187 579.197 728.208 475.439 731.106C405.039 732.676 325.985 552.715 256.459 607.583C129.491 714.019 -39.9333 686.132 -152.498 581.38C-205.87 546.705 -195.773 499.147 -239.992 485.453C-273.675 469.957 -281.752 492.096 -302.234 498.381" stroke="url(#paint44_linear)"/>
<path d="M1907.22 580.809C1868.84 549.397 1759.45 516.662 1718.45 560.596C1654.54 629.411 1732.99 773.083 1645.42 823.134C1428.87 924.867 1322.01 581.271 1118.6 578.215C1064.87 575.704 1095.26 700.77 1042.92 715.728C885.504 766.143 763.378 319.02 614.806 409.269C509.785 474.388 575.928 737.765 471.847 740.279C400.958 741.638 320.483 559.414 250.48 615.541C121.577 724.437 -50.8239 693.853 -165.009 586.98C-215.751 552.721 -204.809 509.809 -244.811 494.9C-275.594 478.414 -283.996 495.52 -302.58 499.721" stroke="url(#paint45_linear)"/>
<path d="M1907.05 581.587C1867.81 549.528 1755.92 516.092 1713.99 561.112C1648.64 631.58 1728.91 778.652 1639.47 830.093C1419.6 937.629 1312.56 590.171 1108.58 587.552C1056.96 585.399 1086.62 707.64 1035.76 722.74C879.824 773.922 759.335 326.65 612.03 416.97C506.921 482.588 572.658 747.322 468.254 749.452C396.876 750.599 314.981 566.114 244.501 623.499C113.663 734.854 -61.7145 701.574 -177.519 592.58C-225.632 558.736 -213.845 520.471 -249.631 504.346C-277.514 486.871 -286.241 498.943 -302.925 501.061" stroke="url(#paint46_linear)"/>
<path d="M1906.88 582.365C1866.78 549.66 1752.39 515.521 1709.54 561.629C1642.75 633.748 1724.83 784.22 1633.52 837.052C1410.34 950.39 1303.12 599.071 1098.57 596.888C1049.06 595.094 1077.99 714.511 1028.59 729.752C874.145 781.702 755.292 334.281 609.254 424.671C504.058 490.788 569.388 756.879 464.662 758.625C392.795 759.561 309.48 572.813 238.521 631.457C105.75 745.272 -72.6053 709.295 -190.03 598.18C-235.512 564.751 -222.882 531.133 -254.45 513.793C-279.433 495.327 -288.486 502.367 -303.271 502.401" stroke="url(#paint47_linear)"/>
<path d="M1906.7 583.143C1865.76 549.792 1748.86 514.951 1705.09 562.146C1636.86 635.917 1720.76 789.789 1627.57 844.011C1401.07 963.152 1293.68 607.971 1088.56 606.224C1041.15 604.789 1069.35 721.382 1021.43 736.764C868.465 789.481 751.25 341.912 606.478 432.372C501.194 498.989 566.118 766.436 461.07 767.799C388.714 768.523 303.978 579.513 232.542 639.415C97.836 755.69 -83.4959 717.017 -202.541 603.78C-245.393 570.767 -231.918 541.795 -259.269 523.24C-281.352 503.784 -290.73 505.791 -303.617 503.742" stroke="url(#paint48_linear)"/>
<path d="M1906.53 583.921C1864.73 549.923 1745.33 514.38 1700.64 562.662C1630.96 638.086 1716.68 795.358 1621.62 850.97C1391.81 975.914 1284.24 616.87 1078.54 615.561C1033.25 614.484 1060.71 728.253 1014.27 743.776C862.785 797.261 747.207 349.543 603.703 440.073C498.33 507.189 562.848 775.993 457.477 776.972C384.632 777.484 298.476 586.212 226.563 647.373C89.9223 766.107 -94.3865 724.738 -215.052 609.38C-255.273 576.782 -240.954 552.457 -264.089 532.687C-283.272 512.241 -292.975 509.215 -303.962 505.081" stroke="url(#paint49_linear)"/>
<path d="M1906.36 584.699C1863.7 550.055 1741.8 513.81 1696.19 563.179C1625.07 640.255 1712.61 800.927 1615.67 857.93C1382.54 988.676 1274.8 625.77 1068.53 624.897C1025.34 624.18 1052.08 735.124 1007.11 750.788C857.105 805.04 743.164 357.174 600.927 447.774C495.466 515.39 559.578 785.55 453.885 786.145C380.551 786.446 292.974 592.912 220.584 655.331C82.0086 776.525 -105.277 732.459 -227.562 614.98C-265.154 582.798 -249.991 563.119 -268.908 542.134C-285.191 520.698 -295.22 512.639 -304.308 506.421" stroke="url(#paint50_linear)"/>
<path d="M1906.19 585.477C1862.67 550.186 1738.27 513.24 1691.74 563.695C1619.17 642.424 1708.53 806.496 1609.72 864.889C1373.28 1001.44 1265.35 634.67 1058.51 634.233C1017.44 633.875 1043.44 741.995 999.942 757.8C851.425 812.82 739.121 364.804 598.151 455.475C492.602 523.59 556.308 795.107 450.292 795.318C376.469 795.408 287.472 599.611 214.604 663.289C74.0947 786.943 -116.168 740.18 -240.073 620.58C-275.035 588.813 -259.028 573.781 -273.728 551.581C-287.111 529.155 -297.465 516.063 -304.654 507.761" stroke="url(#paint51_linear)"/>
</g>
</g>
<defs>
<linearGradient id="paint0_linear" x1="813.733" y1="59" x2="813.733" y2="546.576" gradientUnits="userSpaceOnUse">
<stop stop-color="#333399"/>
<stop offset="1" stop-color="#333399" stop-opacity="0"/>
</linearGradient>
<linearGradient id="paint1_linear" x1="800.506" y1="451.003" x2="800.506" y2="904.4" gradientUnits="userSpaceOnUse">
<stop stop-color="#333399"/>
<stop offset="1" stop-color="#333399" stop-opacity="0"/>
</linearGradient>
<linearGradient id="paint2_linear" x1="813.473" y1="66.6865" x2="813.473" y2="547.354" gradientUnits="userSpaceOnUse">
<stop stop-color="#333399"/>
<stop offset="1" stop-color="#333399" stop-opacity="0"/>
</linearGradient>
<linearGradient id="paint3_linear" x1="813.214" y1="74.3726" x2="813.214" y2="548.132" gradientUnits="userSpaceOnUse">
<stop stop-color="#333399"/>
<stop offset="1" stop-color="#333399" stop-opacity="0"/>
</linearGradient>
<linearGradient id="paint4_linear" x1="812.955" y1="82.0591" x2="812.955" y2="548.91" gradientUnits="userSpaceOnUse">
<stop stop-color="#333399"/>
<stop offset="1" stop-color="#333399" stop-opacity="0"/>
</linearGradient>
<linearGradient id="paint5_linear" x1="812.695" y1="89.7454" x2="812.695" y2="549.688" gradientUnits="userSpaceOnUse">
<stop stop-color="#333399"/>
<stop offset="1" stop-color="#333399" stop-opacity="0"/>
</linearGradient>
<linearGradient id="paint6_linear" x1="812.436" y1="97.4316" x2="812.436" y2="552.655" gradientUnits="userSpaceOnUse">
<stop stop-color="#333399"/>
<stop offset="1" stop-color="#333399" stop-opacity="0"/>
</linearGradient>
<linearGradient id="paint7_linear" x1="812.177" y1="105.118" x2="812.177" y2="559.043" gradientUnits="userSpaceOnUse">
<stop stop-color="#333399"/>
<stop offset="1" stop-color="#333399" stop-opacity="0"/>
</linearGradient>
<linearGradient id="paint8_linear" x1="811.917" y1="112.804" x2="811.917" y2="565.728" gradientUnits="userSpaceOnUse">
<stop stop-color="#333399"/>
<stop offset="1" stop-color="#333399" stop-opacity="0"/>
</linearGradient>
<linearGradient id="paint9_linear" x1="811.658" y1="120.491" x2="811.658" y2="572.61" gradientUnits="userSpaceOnUse">
<stop stop-color="#333399"/>
<stop offset="1" stop-color="#333399" stop-opacity="0"/>
</linearGradient>
<linearGradient id="paint10_linear" x1="811.398" y1="128.177" x2="811.398" y2="579.569" gradientUnits="userSpaceOnUse">
<stop stop-color="#333399"/>
<stop offset="1" stop-color="#333399" stop-opacity="0"/>
</linearGradient>
<linearGradient id="paint11_linear" x1="811.139" y1="135.863" x2="811.139" y2="586.528" gradientUnits="userSpaceOnUse">
<stop stop-color="#333399"/>
<stop offset="1" stop-color="#333399" stop-opacity="0"/>
</linearGradient>
<linearGradient id="paint12_linear" x1="810.88" y1="143.55" x2="810.88" y2="593.487" gradientUnits="userSpaceOnUse">
<stop stop-color="#333399"/>
<stop offset="1" stop-color="#333399" stop-opacity="0"/>
</linearGradient>
<linearGradient id="paint13_linear" x1="810.621" y1="151.236" x2="810.621" y2="600.446" gradientUnits="userSpaceOnUse">
<stop stop-color="#333399"/>
<stop offset="1" stop-color="#333399" stop-opacity="0"/>
</linearGradient>
<linearGradient id="paint14_linear" x1="810.361" y1="158.922" x2="810.361" y2="607.405" gradientUnits="userSpaceOnUse">
<stop stop-color="#333399"/>
<stop offset="1" stop-color="#333399" stop-opacity="0"/>
</linearGradient>
<linearGradient id="paint15_linear" x1="810.102" y1="166.609" x2="810.102" y2="614.364" gradientUnits="userSpaceOnUse">
<stop stop-color="#333399"/>
<stop offset="1" stop-color="#333399" stop-opacity="0"/>
</linearGradient>
<linearGradient id="paint16_linear" x1="809.843" y1="174.295" x2="809.843" y2="621.323" gradientUnits="userSpaceOnUse">
<stop stop-color="#333399"/>
<stop offset="1" stop-color="#333399" stop-opacity="0"/>
</linearGradient>
<linearGradient id="paint17_linear" x1="809.583" y1="181.981" x2="809.583" y2="628.282" gradientUnits="userSpaceOnUse">
<stop stop-color="#333399"/>
<stop offset="1" stop-color="#333399" stop-opacity="0"/>
</linearGradient>
<linearGradient id="paint18_linear" x1="809.324" y1="189.668" x2="809.324" y2="635.241" gradientUnits="userSpaceOnUse">
<stop stop-color="#333399"/>
<stop offset="1" stop-color="#333399" stop-opacity="0"/>
</linearGradient>
<linearGradient id="paint19_linear" x1="809.065" y1="197.354" x2="809.065" y2="642.2" gradientUnits="userSpaceOnUse">
<stop stop-color="#333399"/>
<stop offset="1" stop-color="#333399" stop-opacity="0"/>
</linearGradient>
<linearGradient id="paint20_linear" x1="808.805" y1="205.041" x2="808.805" y2="649.159" gradientUnits="userSpaceOnUse">
<stop stop-color="#333399"/>
<stop offset="1" stop-color="#333399" stop-opacity="0"/>
</linearGradient>
<linearGradient id="paint21_linear" x1="808.546" y1="212.727" x2="808.546" y2="656.118" gradientUnits="userSpaceOnUse">
<stop stop-color="#333399"/>
<stop offset="1" stop-color="#333399" stop-opacity="0"/>
</linearGradient>
<linearGradient id="paint22_linear" x1="808.286" y1="220.413" x2="808.286" y2="663.076" gradientUnits="userSpaceOnUse">
<stop stop-color="#333399"/>
<stop offset="1" stop-color="#333399" stop-opacity="0"/>
</linearGradient>
<linearGradient id="paint23_linear" x1="808.027" y1="228.1" x2="808.027" y2="670.035" gradientUnits="userSpaceOnUse">
<stop stop-color="#333399"/>
<stop offset="1" stop-color="#333399" stop-opacity="0"/>
</linearGradient>
<linearGradient id="paint24_linear" x1="807.768" y1="235.786" x2="807.768" y2="676.994" gradientUnits="userSpaceOnUse">
<stop stop-color="#333399"/>
<stop offset="1" stop-color="#333399" stop-opacity="0"/>
</linearGradient>
<linearGradient id="paint25_linear" x1="807.509" y1="243.472" x2="807.509" y2="683.953" gradientUnits="userSpaceOnUse">
<stop stop-color="#333399"/>
<stop offset="1" stop-color="#333399" stop-opacity="0"/>
</linearGradient>
<linearGradient id="paint26_linear" x1="807.249" y1="251.159" x2="807.249" y2="690.912" gradientUnits="userSpaceOnUse">
<stop stop-color="#333399"/>
<stop offset="1" stop-color="#333399" stop-opacity="0"/>
</linearGradient>
<linearGradient id="paint27_linear" x1="806.99" y1="258.845" x2="806.99" y2="697.871" gradientUnits="userSpaceOnUse">
<stop stop-color="#333399"/>
<stop offset="1" stop-color="#333399" stop-opacity="0"/>
</linearGradient>
<linearGradient id="paint28_linear" x1="806.73" y1="266.531" x2="806.73" y2="704.856" gradientUnits="userSpaceOnUse">
<stop stop-color="#333399"/>
<stop offset="1" stop-color="#333399" stop-opacity="0"/>
</linearGradient>
<linearGradient id="paint29_linear" x1="806.471" y1="274.218" x2="806.471" y2="711.995" gradientUnits="userSpaceOnUse">
<stop stop-color="#333399"/>
<stop offset="1" stop-color="#333399" stop-opacity="0"/>
</linearGradient>
<linearGradient id="paint30_linear" x1="806.212" y1="281.904" x2="806.212" y2="719.296" gradientUnits="userSpaceOnUse">
<stop stop-color="#333399"/>
<stop offset="1" stop-color="#333399" stop-opacity="0"/>
</linearGradient>
<linearGradient id="paint31_linear" x1="805.952" y1="289.59" x2="805.952" y2="726.746" gradientUnits="userSpaceOnUse">
<stop stop-color="#333399"/>
<stop offset="1" stop-color="#333399" stop-opacity="0"/>
</linearGradient>
<linearGradient id="paint32_linear" x1="805.693" y1="297.277" x2="805.693" y2="734.333" gradientUnits="userSpaceOnUse">
<stop stop-color="#333399"/>
<stop offset="1" stop-color="#333399" stop-opacity="0"/>
</linearGradient>
<linearGradient id="paint33_linear" x1="805.434" y1="304.963" x2="805.434" y2="742.049" gradientUnits="userSpaceOnUse">
<stop stop-color="#333399"/>
<stop offset="1" stop-color="#333399" stop-opacity="0"/>
</linearGradient>
<linearGradient id="paint34_linear" x1="805.174" y1="312.649" x2="805.174" y2="749.883" gradientUnits="userSpaceOnUse">
<stop stop-color="#333399"/>
<stop offset="1" stop-color="#333399" stop-opacity="0"/>
</linearGradient>
<linearGradient id="paint35_linear" x1="804.915" y1="320.336" x2="804.915" y2="757.827" gradientUnits="userSpaceOnUse">
<stop stop-color="#333399"/>
<stop offset="1" stop-color="#333399" stop-opacity="0"/>
</linearGradient>
<linearGradient id="paint36_linear" x1="804.656" y1="328.022" x2="804.656" y2="765.874" gradientUnits="userSpaceOnUse">
<stop stop-color="#333399"/>
<stop offset="1" stop-color="#333399" stop-opacity="0"/>
</linearGradient>
<linearGradient id="paint37_linear" x1="804.396" y1="335.708" x2="804.396" y2="774.017" gradientUnits="userSpaceOnUse">
<stop stop-color="#333399"/>
<stop offset="1" stop-color="#333399" stop-opacity="0"/>
</linearGradient>
<linearGradient id="paint38_linear" x1="804.137" y1="343.395" x2="804.137" y2="782.249" gradientUnits="userSpaceOnUse">
<stop stop-color="#333399"/>
<stop offset="1" stop-color="#333399" stop-opacity="0"/>
</linearGradient>
<linearGradient id="paint39_linear" x1="803.878" y1="351.081" x2="803.878" y2="790.566" gradientUnits="userSpaceOnUse">
<stop stop-color="#333399"/>
<stop offset="1" stop-color="#333399" stop-opacity="0"/>
</linearGradient>
<linearGradient id="paint40_linear" x1="803.618" y1="358.768" x2="803.618" y2="798.961" gradientUnits="userSpaceOnUse">
<stop stop-color="#333399"/>
<stop offset="1" stop-color="#333399" stop-opacity="0"/>
</linearGradient>
<linearGradient id="paint41_linear" x1="803.359" y1="366.454" x2="803.359" y2="807.43" gradientUnits="userSpaceOnUse">
<stop stop-color="#333399"/>
<stop offset="1" stop-color="#333399" stop-opacity="0"/>
</linearGradient>
<linearGradient id="paint42_linear" x1="803.1" y1="374.14" x2="803.1" y2="815.968" gradientUnits="userSpaceOnUse">
<stop stop-color="#333399"/>
<stop offset="1" stop-color="#333399" stop-opacity="0"/>
</linearGradient>
<linearGradient id="paint43_linear" x1="802.84" y1="381.826" x2="802.84" y2="824.571" gradientUnits="userSpaceOnUse">
<stop stop-color="#333399"/>
<stop offset="1" stop-color="#333399" stop-opacity="0"/>
</linearGradient>
<linearGradient id="paint44_linear" x1="802.581" y1="389.513" x2="802.581" y2="833.236" gradientUnits="userSpaceOnUse">
<stop stop-color="#333399"/>
<stop offset="1" stop-color="#333399" stop-opacity="0"/>
</linearGradient>
<linearGradient id="paint45_linear" x1="802.322" y1="397.199" x2="802.322" y2="841.96" gradientUnits="userSpaceOnUse">
<stop stop-color="#333399"/>
<stop offset="1" stop-color="#333399" stop-opacity="0"/>
</linearGradient>
<linearGradient id="paint46_linear" x1="802.062" y1="404.885" x2="802.062" y2="850.737" gradientUnits="userSpaceOnUse">
<stop stop-color="#333399"/>
<stop offset="1" stop-color="#333399" stop-opacity="0"/>
</linearGradient>
<linearGradient id="paint47_linear" x1="801.803" y1="412.572" x2="801.803" y2="859.567" gradientUnits="userSpaceOnUse">
<stop stop-color="#333399"/>
<stop offset="1" stop-color="#333399" stop-opacity="0"/>
</linearGradient>
<linearGradient id="paint48_linear" x1="801.544" y1="420.258" x2="801.544" y2="868.446" gradientUnits="userSpaceOnUse">
<stop stop-color="#333399"/>
<stop offset="1" stop-color="#333399" stop-opacity="0"/>
</linearGradient>
<linearGradient id="paint49_linear" x1="801.284" y1="427.944" x2="801.284" y2="877.37" gradientUnits="userSpaceOnUse">
<stop stop-color="#333399"/>
<stop offset="1" stop-color="#333399" stop-opacity="0"/>
</linearGradient>
<linearGradient id="paint50_linear" x1="801.025" y1="435.631" x2="801.025" y2="886.339" gradientUnits="userSpaceOnUse">
<stop stop-color="#333399"/>
<stop offset="1" stop-color="#333399" stop-opacity="0"/>
</linearGradient>
<linearGradient id="paint51_linear" x1="800.766" y1="443.317" x2="800.766" y2="895.35" gradientUnits="userSpaceOnUse">
<stop stop-color="#333399"/>
<stop offset="1" stop-color="#333399" stop-opacity="0"/>
</linearGradient>
</defs>
</svg>
