<svg width="770" height="1124" viewBox="0 0 770 1124" fill="none" xmlns="http://www.w3.org/2000/svg">
<g opacity="0.5">
<path d="M1232.3 324.782C1228.06 320.364 1230.97 317.039 1211.13 302.69C1074.14 203.592 902.569 100.926 736.326 169.044C599.71 225.023 776.607 411.535 678.848 476.669C493.014 600.484 107.578 311.957 -27.635 488.186C-94.5743 575.431 78.6052 711.644 9.81446 772.685C-27.9631 806.206 -84.2181 742.994 -126.535 767.702C-164.352 789.783 -157.205 886.833 -201.224 896.098C-372.045 932.05 -516.305 729.406 -693.88 873.721C-818.574 975.059 -696.315 1179.99 -738.225 1313.67" stroke="url(#paint0_linear)" stroke-linecap="round" stroke-linejoin="round"/>
<path d="M1244.09 363.68C1187.8 354.151 1058.76 383.649 1042.72 451.849C1017.7 558.208 1179.34 659.355 1120.97 760.867C981.98 1002.58 705.855 732.752 525.156 834.571C491.205 853.702 564.915 933.029 536.129 967.553C435.418 1088.34 118.996 752.217 41.8303 899.854C-16.5187 1011.49 172.585 1218.15 79.8572 1270.2C15.0557 1306.57 -160.945 1178.41 -192.967 1270.99C-255.156 1450.78 -447.788 1502.56 -616.902 1458.13C-660.46 1446.69 -650.877 1429.37 -671.505 1414.12C-692.133 1398.86 -710.334 1388.32 -720.042 1381.86" stroke="url(#paint1_linear)" stroke-linecap="round" stroke-linejoin="round"/>
<path d="M1232.53 325.545C1229.35 323.192 1226.49 321.873 1223.94 320.095C1221.21 319.066 1220.23 316.717 1209.37 311.673C1072.33 219.258 898.712 113.314 732.185 182.094C597.582 237.35 772.456 421.761 676.05 486.294C491.884 610.049 107.802 320.59 -26.273 496.258C-93.0439 583.981 80.448 721.575 11.1878 782.44C-27.1196 816.017 -85.7227 751.532 -127.838 777.57C-166.132 802.743 -162.903 898.906 -209.374 907.118C-377.7 942.141 -518.944 743.131 -693.442 884.317C-816.095 983.369 -696.59 1184.07 -737.868 1315.01" stroke="url(#paint2_linear)"/>
<path d="M1232.76 326.307C1228.52 323.811 1223.14 323.108 1220.32 322.73C1217.14 323.848 1219.42 323.57 1207.6 320.657C1070.52 234.925 894.854 125.703 728.044 195.143C595.454 249.677 768.305 431.986 673.251 495.919C490.755 619.615 108.026 329.222 -24.9111 504.33C-91.5135 592.531 82.2906 731.506 12.5611 792.195C-26.2763 825.828 -87.2272 760.069 -129.14 787.439C-167.913 815.704 -168.6 910.979 -217.525 918.138C-383.355 952.232 -521.583 756.856 -693.003 894.913C-813.616 991.679 -696.865 1188.16 -737.512 1316.35" stroke="url(#paint3_linear)"/>
<path d="M1232.99 327.07C1227.69 324.43 1219.78 324.344 1216.69 325.365C1213.07 328.631 1218.6 330.422 1205.83 329.641C1068.72 250.591 890.997 138.092 723.904 208.193C593.327 262.004 764.154 442.211 670.453 505.544C489.626 629.181 108.25 337.855 -23.5489 512.402C-89.9829 601.081 84.1333 741.438 13.9345 801.95C-25.4327 835.639 -88.7316 768.607 -130.443 797.307C-169.693 828.665 -174.298 923.052 -225.676 929.159C-389.01 962.323 -524.221 770.58 -692.564 905.509C-811.136 999.988 -697.14 1192.24 -737.155 1317.68" stroke="url(#paint4_linear)"/>
<path d="M1233.22 327.833C1226.86 325.049 1216.43 325.579 1213.07 328C1209 333.414 1217.78 337.275 1204.06 338.625C1066.91 266.257 887.14 150.48 719.763 221.242C591.199 274.331 760.003 452.436 667.654 515.169C488.496 638.746 108.474 346.487 -22.187 520.474C-88.4526 609.631 85.9759 751.369 15.3077 811.705C-24.5894 845.45 -90.2362 777.144 -131.746 807.175C-171.474 841.625 -179.996 935.125 -233.826 940.179C-394.666 972.413 -526.86 784.305 -692.126 916.105C-808.657 1008.3 -697.415 1196.33 -736.799 1319.02" stroke="url(#paint5_linear)"/>
<path d="M1233.45 328.595C1226.03 325.668 1213.07 326.814 1209.44 330.635C1204.93 338.197 1216.96 344.128 1202.29 347.609C1065.1 281.924 883.283 162.869 715.623 234.292C589.072 286.658 755.852 462.662 664.856 524.794C487.367 648.312 108.697 355.12 -20.825 528.545C-86.9221 618.182 87.8186 761.3 16.6811 821.46C-23.7459 855.261 -91.7406 785.681 -133.048 817.043C-173.254 854.586 -185.694 947.198 -241.977 951.199C-400.321 982.504 -529.499 798.03 -691.687 926.701C-806.178 1016.61 -697.69 1200.41 -736.442 1320.36" stroke="url(#paint6_linear)"/>
<path d="M1233.68 329.358C1225.19 326.287 1209.72 328.05 1205.82 333.27C1200.86 342.979 1216.14 350.98 1200.53 356.592C1063.3 297.59 879.426 175.258 711.482 247.341C586.944 298.985 751.701 472.887 662.057 534.419C486.237 657.877 108.921 363.752 -19.463 536.617C-85.3917 626.731 89.6614 771.232 18.0545 831.215C-22.9024 865.072 -93.2452 794.219 -134.351 826.911C-175.035 867.547 -191.391 959.271 -250.127 962.219C-405.976 992.595 -532.138 811.754 -691.248 937.296C-803.699 1024.92 -697.965 1204.5 -736.086 1321.69" stroke="url(#paint7_linear)"/>
<path d="M1233.92 330.12C1224.36 326.907 1206.37 329.285 1202.19 335.905C1196.79 347.762 1215.33 357.833 1198.76 365.576C1061.49 313.256 875.569 187.646 707.341 260.39C584.817 311.312 747.551 483.112 659.259 544.044C485.108 667.443 109.145 372.384 -18.1008 544.689C-83.8611 635.282 91.504 781.163 19.4278 840.97C-22.059 874.883 -94.7497 802.756 -135.653 836.78C-176.816 880.508 -197.089 971.344 -258.278 973.239C-411.631 1002.69 -534.776 825.479 -690.81 947.892C-801.22 1033.23 -698.239 1208.58 -735.729 1323.03" stroke="url(#paint8_linear)"/>
<path d="M1234.15 330.883C1223.53 327.526 1203.01 330.521 1198.57 338.54C1192.72 352.545 1214.51 364.686 1196.99 374.56C1059.68 328.923 871.711 200.035 703.201 273.44C582.689 323.638 743.4 493.338 656.46 553.669C483.979 677.009 109.369 381.017 -16.7389 552.761C-82.3307 643.832 93.3466 791.094 20.801 850.725C-21.2156 884.694 -96.2542 811.294 -136.956 846.648C-178.596 893.468 -202.787 983.417 -266.429 984.259C-417.287 1012.78 -537.415 839.204 -690.371 958.488C-798.741 1041.54 -698.514 1212.67 -735.373 1324.37" stroke="url(#paint9_linear)"/>
<path d="M1234.38 331.646C1222.7 328.145 1199.66 331.756 1194.95 341.175C1188.65 357.328 1213.69 371.538 1195.22 383.544C1057.87 344.589 867.854 212.424 699.06 286.489C580.561 335.965 739.249 503.563 653.662 563.294C482.849 686.574 109.593 389.649 -15.3769 560.833C-80.8003 652.382 95.1894 801.026 22.1744 860.48C-20.3721 894.505 -97.7587 819.831 -138.259 856.516C-180.377 906.429 -208.485 995.49 -274.579 995.28C-422.942 1022.87 -540.054 852.929 -689.932 969.084C-796.261 1049.85 -698.79 1216.75 -735.016 1325.71" stroke="url(#paint10_linear)"/>
<path d="M1234.61 332.408C1221.87 328.764 1196.3 332.992 1191.32 343.81C1184.58 362.111 1212.87 378.391 1193.45 392.527C1056.07 360.256 863.997 224.812 694.919 299.539C578.434 348.292 735.098 513.788 650.863 572.92C481.72 696.14 109.817 398.282 -14.0149 568.905C-79.2699 660.932 97.032 810.957 23.5477 870.235C-19.5287 904.316 -99.2633 828.368 -139.561 866.384C-182.157 919.39 -214.183 1007.56 -282.73 1006.3C-428.597 1032.96 -542.693 866.653 -689.494 979.68C-793.782 1058.16 -699.065 1220.84 -734.66 1327.04" stroke="url(#paint11_linear)"/>
<path d="M1234.84 333.171C1221.04 329.383 1192.95 334.227 1187.7 346.445C1180.51 366.893 1212.06 385.244 1191.69 401.511C1054.26 375.922 860.14 237.201 690.779 312.588C576.306 360.619 730.947 524.014 648.065 582.545C480.591 705.706 110.041 406.914 -12.6528 576.976C-77.7393 669.482 98.8748 820.888 24.9212 879.99C-18.6851 914.127 -100.768 836.906 -140.864 876.253C-183.938 932.351 -219.88 1019.64 -290.88 1017.32C-434.252 1043.05 -545.331 880.378 -689.055 990.276C-791.303 1066.47 -699.339 1224.92 -734.303 1328.38" stroke="url(#paint12_linear)"/>
<path d="M1235.07 333.934C1220.21 330.002 1189.59 335.462 1184.07 349.08C1176.44 371.676 1211.24 392.096 1189.92 410.495C1052.45 391.588 856.283 249.59 686.638 325.638C574.179 372.946 726.796 534.239 645.266 592.17C479.461 715.271 110.264 415.547 -11.2909 585.048C-76.2089 678.032 100.717 830.82 26.2944 889.745C-17.8418 923.938 -102.272 845.443 -142.167 886.121C-185.718 945.311 -225.578 1031.71 -299.031 1028.34C-439.908 1053.14 -547.97 894.103 -688.616 1000.87C-788.824 1074.78 -699.614 1229.01 -733.947 1329.72" stroke="url(#paint13_linear)"/>
<path d="M1235.3 334.696C1219.38 330.621 1186.24 336.698 1180.45 351.715C1172.37 376.459 1210.42 398.949 1188.15 419.479C1050.65 407.255 852.426 261.978 682.498 338.687C572.051 385.273 722.645 544.464 642.468 601.795C478.332 724.837 110.488 424.179 -9.92881 593.12C-74.6785 686.582 102.56 840.751 27.6678 899.5C-16.9982 933.749 -103.777 853.981 -143.469 895.989C-187.499 958.272 -231.276 1043.78 -307.182 1039.36C-445.563 1063.23 -550.609 907.828 -688.178 1011.47C-786.345 1083.09 -699.889 1233.09 -733.59 1331.05" stroke="url(#paint14_linear)"/>
<path d="M1235.53 335.459C1218.55 331.24 1182.88 337.933 1176.82 354.35C1168.3 381.242 1209.6 405.802 1186.38 428.463C1048.84 422.921 848.568 274.367 678.357 351.737C569.924 397.6 718.494 554.689 639.67 611.42C477.202 734.403 110.712 432.812 -8.56676 601.192C-73.148 695.132 104.403 850.682 29.0412 909.255C-16.1547 943.56 -105.281 862.518 -144.772 905.857C-189.279 971.233 -236.973 1055.85 -315.332 1050.38C-451.218 1073.32 -553.247 921.552 -687.739 1022.06C-783.865 1091.4 -700.164 1237.18 -733.234 1332.39" stroke="url(#paint15_linear)"/>
<path d="M1235.77 336.221C1217.71 331.859 1179.53 339.169 1173.2 356.985C1164.23 386.024 1208.78 412.655 1184.61 437.446C1047.03 438.587 844.711 286.756 674.216 364.786C567.796 409.927 714.344 564.915 636.871 621.045C476.073 743.968 110.936 441.444 -7.20471 609.264C-71.6175 703.682 106.246 860.614 30.4146 919.01C-15.3112 953.371 -106.786 871.056 -146.074 915.725C-191.06 984.193 -242.671 1067.93 -323.483 1061.4C-456.873 1083.41 -555.886 935.277 -687.3 1032.66C-781.386 1099.71 -700.439 1241.26 -732.877 1333.73" stroke="url(#paint16_linear)"/>
<path d="M1236 336.984C1216.88 332.478 1176.17 340.404 1169.57 359.62C1160.16 390.807 1207.97 419.507 1182.85 446.43C1045.22 454.254 840.854 299.144 670.076 377.836C565.668 422.254 710.193 575.14 634.073 630.67C474.944 753.534 111.16 450.077 -5.84277 617.336C-70.0871 712.232 108.088 870.545 31.7879 928.765C-14.4678 963.182 -108.29 879.593 -147.377 925.594C-192.84 997.154 -248.369 1080 -331.633 1072.42C-462.529 1093.5 -558.525 949.002 -686.862 1043.26C-778.907 1108.02 -700.714 1245.35 -732.521 1335.06" stroke="url(#paint17_linear)"/>
<path d="M1236.23 337.747C1216.05 333.098 1172.82 341.64 1165.95 362.255C1156.09 395.59 1207.15 426.36 1181.08 455.414C1043.42 469.92 836.997 311.533 665.935 390.885C563.541 434.581 706.042 585.365 631.274 640.295C473.814 763.1 111.384 458.709 -4.48071 625.407C-68.5566 720.782 109.931 880.476 33.1612 938.521C-13.6244 972.993 -109.795 888.13 -148.68 935.462C-194.621 1010.12 -254.067 1092.07 -339.784 1083.44C-468.184 1103.6 -561.163 962.726 -686.423 1053.85C-776.428 1116.33 -700.989 1249.43 -732.164 1336.4" stroke="url(#paint18_linear)"/>
<path d="M1236.46 338.509C1215.22 333.717 1169.46 342.875 1162.32 364.89C1152.02 400.373 1206.33 433.213 1179.31 464.398C1041.61 485.587 833.14 323.922 661.795 403.935C561.413 446.908 701.891 595.591 628.476 649.921C472.685 772.665 111.608 467.342 -3.11853 633.479C-67.026 729.333 111.774 890.408 34.5347 948.276C-12.7807 982.804 -111.299 896.668 -149.982 945.33C-196.401 1023.08 -259.764 1104.15 -347.934 1094.46C-473.839 1113.69 -563.802 976.451 -685.984 1064.45C-773.948 1124.64 -701.264 1253.52 -731.808 1337.74" stroke="url(#paint19_linear)"/>
<path d="M1236.69 339.272C1214.39 334.336 1166.11 344.111 1158.7 367.525C1147.95 405.156 1205.51 440.065 1177.54 473.382C1039.8 501.253 829.283 336.311 657.654 416.984C559.286 459.235 697.74 605.816 625.677 659.546C471.556 782.231 111.831 475.974 -1.75659 641.551C-65.4956 737.883 113.616 900.339 35.908 958.031C-11.9373 992.615 -112.804 905.205 -151.285 955.199C-198.182 1036.04 -265.462 1116.22 -356.085 1105.48C-479.494 1123.78 -566.441 990.176 -685.545 1075.04C-771.469 1132.95 -701.539 1257.6 -731.451 1339.08" stroke="url(#paint20_linear)"/>
<path d="M1236.92 340.035C1213.56 334.955 1162.75 345.346 1155.08 370.16C1143.88 409.939 1204.69 446.918 1175.77 482.366C1038 516.92 825.425 348.699 653.513 430.034C557.158 471.562 693.59 616.041 622.879 669.171C470.426 791.797 112.055 484.607 -0.394416 649.623C-63.965 746.433 115.459 910.271 37.2814 967.786C-11.0938 1002.43 -114.308 913.743 -152.587 965.067C-199.962 1049 -271.16 1128.29 -364.236 1116.5C-485.149 1133.87 -569.079 1003.9 -685.107 1085.64C-768.99 1141.26 -701.814 1261.68 -731.095 1340.41" stroke="url(#paint21_linear)"/>
<path d="M1237.15 340.797C1212.73 335.574 1159.4 346.582 1151.45 372.795C1139.81 414.721 1203.88 453.771 1174.01 491.349C1036.19 532.586 821.568 361.088 649.373 443.083C555.031 483.889 689.439 626.267 620.08 678.796C469.297 801.362 112.279 493.239 0.967654 657.695C-62.4345 754.983 117.302 920.202 38.6548 977.541C-10.2503 1012.24 -115.812 922.28 -153.89 974.935C-201.743 1061.96 -276.858 1140.37 -372.386 1127.52C-490.805 1143.96 -571.718 1017.63 -684.668 1096.24C-766.511 1149.57 -702.088 1265.77 -730.738 1341.75" stroke="url(#paint22_linear)"/>
<path d="M1237.38 341.56C1211.9 336.193 1156.04 347.817 1147.83 375.43C1135.74 419.504 1203.06 460.624 1172.24 500.333C1034.38 548.252 817.711 373.477 645.232 456.133C552.903 496.216 685.288 636.492 617.282 688.421C468.168 810.928 112.503 501.872 2.3296 665.767C-60.9041 763.533 119.145 930.133 40.0281 987.296C-9.40689 1022.05 -117.317 930.818 -155.193 984.803C-203.523 1074.92 -282.555 1152.44 -380.537 1138.54C-496.46 1154.05 -574.357 1031.35 -684.229 1106.83C-764.032 1157.88 -702.363 1269.85 -730.382 1343.09" stroke="url(#paint23_linear)"/>
<path d="M1237.62 342.323C1211.07 336.813 1152.69 349.053 1144.2 378.065C1131.67 424.287 1202.24 467.476 1170.47 509.317C1032.58 563.919 813.854 385.865 641.092 469.182C550.775 508.543 681.137 646.718 614.484 698.046C467.038 820.494 112.727 510.504 3.69168 673.839C-59.3736 772.083 120.987 940.065 41.4015 997.051C-8.56334 1031.86 -118.821 939.355 -156.495 994.672C-205.304 1087.88 -288.253 1164.51 -388.687 1149.56C-502.115 1164.14 -576.995 1045.08 -683.79 1117.43C-761.552 1166.19 -702.638 1273.94 -730.025 1344.42" stroke="url(#paint24_linear)"/>
<path d="M1237.85 343.086C1210.24 337.432 1149.33 350.288 1140.58 380.7C1127.6 429.07 1201.42 474.329 1168.7 518.301C1030.77 579.585 809.997 398.254 636.951 482.232C548.648 520.87 676.986 656.943 611.685 707.672C465.909 830.06 112.951 519.137 5.05376 681.911C-57.8431 780.633 122.83 949.996 42.7749 1006.81C-7.71979 1041.67 -120.326 947.893 -157.798 1004.54C-207.084 1100.84 -293.951 1176.58 -396.838 1160.58C-507.77 1174.23 -579.634 1058.8 -683.352 1128.02C-759.073 1174.49 -702.913 1278.02 -729.669 1345.76" stroke="url(#paint25_linear)"/>
<path d="M1238.08 343.848C1209.4 338.051 1145.98 351.524 1136.95 383.335C1123.53 433.853 1200.61 481.182 1166.94 527.285C1028.96 595.252 806.14 410.643 632.81 495.282C546.52 533.197 672.835 667.168 608.887 717.297C464.78 839.625 113.175 527.769 6.41571 689.983C-56.3127 789.183 124.673 959.928 44.1482 1016.56C-6.87637 1051.48 -121.83 956.43 -159.101 1014.41C-208.865 1113.8 -299.649 1188.66 -404.988 1171.6C-513.426 1184.32 -582.273 1072.52 -682.913 1138.62C-756.594 1182.8 -703.188 1282.11 -729.312 1347.1" stroke="url(#paint26_linear)"/>
<path d="M1238.31 344.611C1208.57 338.67 1142.62 352.759 1133.33 385.97C1119.46 438.636 1199.79 488.035 1165.17 536.269C1027.15 610.918 802.283 423.032 628.67 508.331C544.393 545.524 668.685 677.394 606.088 726.922C463.65 849.191 113.399 536.402 7.77792 698.055C-54.782 797.734 126.516 969.859 45.5217 1026.32C-6.0328 1061.29 -123.335 964.968 -160.403 1024.28C-210.645 1126.76 -305.346 1200.73 -413.139 1182.62C-519.081 1194.41 -584.911 1086.25 -682.474 1149.22C-754.115 1191.11 -703.463 1286.19 -728.956 1348.44" stroke="url(#paint27_linear)"/>
<path d="M1238.54 345.374C1207.74 339.289 1139.27 353.995 1129.7 388.606C1115.39 443.418 1198.97 494.887 1163.4 545.252C1025.35 626.584 798.425 435.42 624.529 521.381C542.265 557.851 664.534 687.619 603.29 736.547C462.521 858.757 113.622 545.034 9.13988 706.126C-53.2516 806.284 128.358 979.79 46.895 1036.07C-5.18936 1071.1 -124.839 973.505 -161.706 1034.14C-212.426 1139.72 -311.044 1212.8 -421.29 1193.64C-524.736 1204.51 -587.55 1099.97 -682.036 1159.81C-751.636 1199.42 -703.738 1290.28 -728.599 1349.77" stroke="url(#paint28_linear)"/>
<path d="M1238.77 346.136C1206.91 339.908 1135.92 355.23 1126.08 391.241C1111.32 448.201 1198.15 501.74 1161.63 554.236C1023.54 642.251 794.568 447.809 620.389 534.43C540.138 570.179 660.383 697.844 600.491 746.172C461.392 868.323 113.846 553.667 10.502 714.198C-51.7211 814.834 130.201 989.722 48.2684 1045.83C-4.3458 1080.91 -126.344 982.043 -163.008 1044.01C-214.206 1152.68 -316.742 1224.88 -429.44 1204.66C-530.391 1214.6 -590.189 1113.7 -681.597 1170.41C-749.156 1207.73 -704.013 1294.36 -728.243 1351.11" stroke="url(#paint29_linear)"/>
<path d="M1239 346.899C1206.08 340.528 1132.56 356.466 1122.45 393.876C1107.25 452.984 1197.33 508.593 1159.86 563.22C1021.73 657.917 790.711 460.198 616.248 547.48C538.01 582.506 656.232 708.07 597.693 755.798C460.262 877.888 114.07 562.3 11.8641 722.27C-50.1906 823.384 132.044 999.653 49.6419 1055.58C-3.50224 1090.73 -127.848 990.58 -164.311 1053.88C-215.987 1165.64 -322.439 1236.95 -437.591 1215.69C-536.046 1224.69 -592.827 1127.42 -681.158 1181C-746.677 1216.04 -704.288 1298.45 -727.886 1352.45" stroke="url(#paint30_linear)"/>
<path d="M1239.24 347.662C1205.25 341.147 1129.21 357.702 1118.83 396.511C1103.18 457.767 1196.52 515.446 1158.1 572.204C1019.93 673.584 786.854 472.587 612.107 560.529C535.883 594.833 652.081 718.295 594.895 765.423C459.133 887.454 114.294 570.932 13.226 730.342C-48.6602 831.934 133.886 1009.58 51.0152 1065.34C-2.6588 1100.54 -129.353 999.118 -165.614 1063.75C-217.767 1178.61 -328.137 1249.02 -445.741 1226.71C-541.702 1234.78 -595.466 1141.15 -680.719 1191.6C-744.198 1224.35 -704.563 1302.53 -727.53 1353.78" stroke="url(#paint31_linear)"/>
<path d="M1239.47 348.424C1204.42 341.766 1125.85 358.937 1115.21 399.146C1099.11 462.55 1195.7 522.298 1156.33 581.188C1018.12 689.25 782.997 484.975 607.967 573.579C533.755 607.16 647.931 728.521 592.096 775.048C458.004 897.02 114.518 579.565 14.5881 738.414C-47.1296 840.484 135.729 1019.52 52.3885 1075.09C-1.81534 1110.35 -130.857 1007.66 -166.916 1073.62C-219.547 1191.57 -333.835 1261.1 -453.892 1237.73C-547.357 1244.87 -598.105 1154.87 -680.28 1202.2C-741.718 1232.66 -704.837 1306.62 -727.173 1355.12" stroke="url(#paint32_linear)"/>
<path d="M1239.7 349.187C1203.59 342.385 1122.5 360.173 1111.58 401.781C1095.03 467.333 1194.88 529.151 1154.56 590.172C1016.31 704.917 779.14 497.364 603.826 586.629C531.628 619.487 643.78 738.746 589.298 784.673C456.874 906.586 114.742 588.197 15.9503 746.486C-45.599 849.035 137.572 1029.45 53.762 1084.85C-0.971762 1120.16 -132.361 1016.19 -168.219 1083.49C-221.328 1204.53 -339.533 1273.17 -462.042 1248.75C-553.012 1254.96 -600.743 1168.6 -679.842 1212.79C-739.239 1240.97 -705.112 1310.7 -726.817 1356.46" stroke="url(#paint33_linear)"/>
<path d="M1239.93 349.95C1202.76 343.004 1119.14 361.408 1107.96 404.416C1090.96 472.116 1194.06 536.004 1152.79 599.156C1014.51 720.583 775.283 509.753 599.686 599.678C529.5 631.814 639.629 748.971 586.499 794.298C455.745 916.151 114.966 596.83 17.3123 754.558C-44.0686 857.585 139.415 1039.38 55.1353 1094.6C-0.128306 1129.97 -133.866 1024.73 -169.521 1093.35C-223.109 1217.49 -345.23 1285.24 -470.193 1259.77C-558.667 1265.05 -603.382 1182.32 -679.403 1223.39C-736.76 1249.28 -705.387 1314.79 -726.46 1357.8" stroke="url(#paint34_linear)"/>
<path d="M1240.16 350.713C1201.93 343.624 1115.79 362.644 1104.33 407.051C1086.89 476.899 1193.25 542.857 1151.02 608.14C1012.7 736.25 771.426 522.142 595.545 612.728C527.373 644.141 635.478 759.197 583.701 803.924C454.616 925.717 115.19 605.462 18.6745 762.63C-42.5379 866.135 141.258 1049.31 56.5089 1104.36C0.715385 1139.78 -135.37 1033.27 -170.824 1103.22C-224.889 1230.45 -350.928 1297.31 -478.343 1270.79C-564.322 1275.14 -606.02 1196.05 -678.964 1233.98C-734.281 1257.59 -705.662 1318.87 -726.103 1359.13" stroke="url(#paint35_linear)"/>
<path d="M1240.39 351.475C1201.09 344.243 1112.43 363.879 1100.71 409.686C1082.82 481.681 1192.43 549.71 1149.26 617.124C1010.89 751.916 767.568 534.531 591.405 625.777C525.245 656.468 631.328 769.422 580.903 813.549C453.487 935.283 115.414 614.095 20.0366 770.702C-41.0074 874.685 143.1 1059.24 57.8822 1114.11C1.55886 1149.59 -136.875 1041.81 -172.126 1113.09C-226.669 1243.41 -356.626 1309.39 -486.494 1281.81C-569.977 1285.23 -608.659 1209.77 -678.525 1244.58C-731.801 1265.9 -705.937 1322.96 -725.747 1360.47" stroke="url(#paint36_linear)"/>
<path d="M1240.62 352.238C1200.26 344.862 1109.08 365.115 1097.08 412.321C1078.75 486.464 1191.61 556.562 1147.49 626.108C1009.08 767.583 763.711 546.919 587.264 638.827C523.118 668.795 627.177 779.648 578.104 823.174C452.357 944.849 115.637 622.728 21.3986 778.774C-39.477 883.235 144.943 1069.17 59.2556 1123.87C2.40233 1159.4 -138.379 1050.34 -173.429 1122.96C-228.45 1256.37 -362.323 1321.46 -494.644 1292.83C-575.633 1295.32 -611.298 1223.5 -678.087 1255.18C-729.322 1274.21 -706.212 1327.04 -725.39 1361.81" stroke="url(#paint37_linear)"/>
<path d="M1240.85 353.001C1199.43 345.481 1105.72 366.35 1093.46 414.957C1074.68 491.247 1190.79 563.415 1145.72 635.091C1007.28 783.249 759.854 559.308 583.123 651.877C520.99 681.122 623.026 789.873 575.306 832.799C451.228 954.414 115.861 631.36 22.7607 786.846C-37.9464 891.786 146.786 1079.1 60.6291 1133.62C3.2459 1169.21 -139.884 1058.88 -174.731 1132.83C-230.23 1269.33 -368.021 1333.53 -502.795 1303.85C-581.288 1305.42 -613.937 1237.22 -677.648 1265.77C-726.843 1282.52 -706.487 1331.13 -725.034 1363.14" stroke="url(#paint38_linear)"/>
<path d="M1241.09 353.764C1198.6 346.1 1102.37 367.586 1089.83 417.592C1070.61 496.03 1189.97 570.268 1143.95 644.075C1005.47 798.916 755.997 571.697 578.983 664.926C518.863 693.449 618.875 800.098 572.507 842.425C450.099 963.98 116.085 639.993 24.1229 794.918C-36.4159 900.336 148.629 1089.04 62.0025 1143.38C4.0895 1179.03 -141.388 1067.42 -176.034 1142.7C-232.011 1282.29 -373.719 1345.61 -510.945 1314.87C-586.943 1315.51 -616.575 1250.95 -677.209 1276.37C-724.364 1290.83 -706.762 1335.21 -724.677 1364.48" stroke="url(#paint39_linear)"/>
<path d="M1241.32 354.527C1197.77 346.72 1099.01 368.822 1086.21 420.227C1066.54 500.813 1189.16 577.121 1142.19 653.059C1003.66 814.582 752.14 584.086 574.842 677.976C516.735 705.776 614.724 810.324 569.709 852.05C448.969 973.546 116.309 648.626 25.485 802.99C-34.8853 908.886 150.471 1098.97 63.376 1153.13C4.93307 1188.84 -142.892 1075.96 -177.336 1152.57C-233.791 1295.25 -379.416 1357.68 -519.096 1325.89C-592.598 1325.6 -619.214 1264.67 -676.77 1286.96C-721.884 1299.14 -707.036 1339.3 -724.321 1365.82" stroke="url(#paint40_linear)"/>
<path d="M1241.55 355.289C1196.94 347.339 1095.66 370.057 1082.59 422.862C1062.47 505.596 1188.34 583.974 1140.42 662.043C1001.86 830.249 748.283 596.475 570.702 691.025C514.607 718.103 610.574 820.549 566.911 861.675C447.84 983.112 116.533 657.258 26.847 811.062C-33.3549 917.436 152.314 1108.9 64.7492 1162.89C5.77644 1198.65 -144.397 1084.49 -178.639 1162.43C-235.572 1308.21 -385.114 1369.75 -527.247 1336.91C-598.253 1335.69 -621.852 1278.4 -676.332 1297.56C-719.405 1307.45 -707.311 1343.38 -723.964 1367.16" stroke="url(#paint41_linear)"/>
<path d="M1241.78 356.052C1196.11 347.958 1092.3 371.293 1078.96 425.497C1058.4 510.379 1187.52 590.827 1138.65 671.027C1000.05 845.915 744.426 608.863 566.561 704.075C512.48 730.431 606.423 830.775 564.112 871.3C446.711 992.677 116.757 665.891 28.2092 819.134C-31.8242 925.987 154.157 1118.83 66.1228 1172.64C6.62015 1208.46 -145.901 1093.03 -179.941 1172.3C-237.352 1321.17 -390.812 1381.83 -535.397 1347.93C-603.908 1345.78 -624.491 1292.12 -675.893 1308.16C-716.926 1315.76 -707.586 1347.47 -723.607 1368.49" stroke="url(#paint42_linear)"/>
<path d="M1242.01 356.815C1195.28 348.577 1088.95 372.528 1075.34 428.132C1054.33 515.162 1186.7 597.679 1136.88 680.011C998.242 861.582 740.569 621.252 562.421 717.125C510.353 742.758 602.272 841 561.314 880.926C445.581 1002.24 116.981 674.523 29.5712 827.206C-30.2937 934.537 156 1128.76 67.4962 1182.4C7.46364 1218.27 -147.406 1101.57 -181.244 1182.17C-239.132 1334.14 -396.509 1393.9 -543.548 1358.95C-609.564 1355.87 -627.129 1305.85 -675.454 1318.75C-714.446 1324.07 -707.861 1351.55 -723.251 1369.83" stroke="url(#paint43_linear)"/>
<path d="M1242.24 357.578C1194.45 349.197 1085.59 373.764 1071.71 430.767C1050.26 519.945 1185.89 604.532 1135.11 688.995C996.435 877.248 736.712 633.641 558.28 730.174C508.225 755.085 598.121 851.226 558.516 890.551C444.452 1011.81 117.205 683.156 30.9333 835.278C-28.7632 943.087 157.842 1138.69 68.8697 1192.15C8.30723 1228.08 -148.91 1110.11 -182.547 1192.04C-240.913 1347.1 -402.207 1405.97 -551.698 1369.97C-615.219 1365.96 -629.768 1319.57 -675.015 1329.35C-711.967 1332.38 -708.136 1355.64 -722.895 1371.17" stroke="url(#paint44_linear)"/>
<path d="M1242.47 358.34C1193.62 349.816 1082.24 375 1068.09 433.403C1046.19 524.728 1185.07 611.385 1133.35 697.979C994.628 892.915 732.854 646.03 554.14 743.224C506.097 767.412 593.97 861.451 555.717 900.176C443.323 1021.37 117.429 691.789 32.2954 843.35C-27.2327 951.637 159.685 1148.63 70.243 1201.91C9.15072 1237.89 -150.415 1118.64 -183.849 1201.91C-242.693 1360.06 -407.905 1418.05 -559.849 1380.99C-620.874 1376.05 -632.407 1333.3 -674.577 1339.94C-709.488 1340.69 -708.411 1359.72 -722.538 1372.5" stroke="url(#paint45_linear)"/>
<path d="M1242.71 359.103C1192.78 350.435 1078.88 376.235 1064.46 436.038C1042.12 529.511 1184.25 618.238 1131.58 706.963C992.821 908.581 728.997 658.419 549.999 756.274C503.97 779.739 589.82 871.677 552.919 909.802C442.194 1030.94 117.653 700.421 33.6576 851.422C-25.7021 960.187 161.528 1158.56 71.6164 1211.66C9.99422 1247.7 -151.919 1127.18 -185.152 1211.78C-244.474 1373.02 -413.602 1430.12 -567.999 1392.01C-626.529 1386.14 -635.045 1347.02 -674.138 1350.54C-707.009 1349 -708.685 1363.81 -722.181 1373.84" stroke="url(#paint46_linear)"/>
<path d="M1242.94 359.866C1191.95 351.055 1075.53 377.471 1060.84 438.673C1038.05 534.293 1183.43 625.091 1129.81 715.947C991.014 924.248 725.14 670.808 545.859 769.323C501.843 792.066 585.669 881.902 550.12 919.427C441.064 1040.51 117.877 709.054 35.0197 859.494C-24.1715 968.738 163.371 1168.49 72.9899 1221.42C10.8378 1257.52 -153.423 1135.72 -186.454 1221.64C-246.254 1385.98 -419.3 1442.19 -576.15 1403.03C-632.184 1396.24 -637.684 1360.75 -673.699 1361.14C-704.529 1357.31 -708.96 1367.89 -721.825 1375.18" stroke="url(#paint47_linear)"/>
<path d="M1243.17 360.629C1191.12 351.674 1072.18 378.707 1057.21 441.308C1033.98 539.076 1182.61 631.944 1128.04 724.931C989.207 939.915 721.283 683.196 541.718 782.373C499.715 804.393 581.518 892.128 547.322 929.052C439.935 1050.07 118.101 717.686 36.3819 867.566C-22.6409 977.288 165.214 1178.42 74.3634 1231.18C11.6814 1267.33 -154.928 1144.26 -187.757 1231.51C-248.034 1398.94 -424.998 1454.26 -584.3 1414.05C-637.84 1406.33 -640.323 1374.47 -673.26 1371.73C-702.05 1365.62 -709.235 1371.98 -721.468 1376.52" stroke="url(#paint48_linear)"/>
<path d="M1243.4 361.391C1190.29 352.293 1068.82 379.942 1053.59 443.943C1029.91 543.859 1181.8 638.796 1126.27 733.915C987.4 955.581 717.426 695.585 537.577 795.422C497.588 816.72 577.367 902.353 544.524 938.677C438.806 1059.64 118.325 726.319 37.7439 875.638C-21.1105 985.838 167.056 1188.35 75.7368 1240.93C12.5249 1277.14 -156.432 1152.79 -189.059 1241.38C-249.815 1411.9 -430.696 1466.34 -592.451 1425.07C-643.495 1416.42 -642.961 1388.2 -672.821 1382.33C-699.571 1373.93 -709.51 1376.06 -721.112 1377.85" stroke="url(#paint49_linear)"/>
<path d="M1243.63 362.154C1189.46 352.912 1065.47 381.178 1049.97 446.578C1025.84 548.642 1180.98 645.649 1124.51 742.899C985.594 971.248 713.569 707.974 533.437 808.472C495.46 829.048 573.217 912.578 541.725 948.303C437.677 1069.2 118.549 734.952 39.1062 883.71C-19.5798 994.388 168.899 1198.28 77.1103 1250.69C13.3685 1286.95 -157.937 1161.33 -190.362 1251.25C-251.595 1424.86 -436.393 1478.41 -600.601 1436.09C-649.15 1426.51 -645.6 1401.92 -672.383 1392.92C-697.092 1382.24 -709.785 1380.15 -720.755 1379.19" stroke="url(#paint50_linear)"/>
<path d="M1243.86 362.917C1188.63 353.532 1062.11 382.413 1046.34 449.214C1021.77 553.425 1180.16 652.502 1122.74 751.883C983.787 986.914 709.712 720.363 529.296 821.522C493.333 841.375 569.066 922.804 538.927 957.928C436.547 1078.77 118.772 743.584 40.4682 891.782C-18.0493 1002.94 170.742 1208.21 78.4837 1260.44C14.212 1296.76 -159.441 1169.87 -191.664 1261.12C-253.376 1437.82 -442.091 1490.48 -608.752 1447.11C-654.805 1436.6 -648.238 1415.65 -671.944 1403.52C-694.612 1390.55 -710.06 1384.23 -720.398 1380.53" stroke="url(#paint51_linear)"/>
</g>
<defs>
<linearGradient id="paint0_linear" x1="33.6532" y1="440.537" x2="273.008" y2="865.319" gradientUnits="userSpaceOnUse">
<stop stop-color="#333399"/>
<stop offset="1" stop-color="#333399" stop-opacity="0"/>
</linearGradient>
<linearGradient id="paint1_linear" x1="214.568" y1="788.548" x2="437.143" y2="1183.55" gradientUnits="userSpaceOnUse">
<stop stop-color="#333399"/>
<stop offset="1" stop-color="#333399" stop-opacity="0"/>
</linearGradient>
<linearGradient id="paint2_linear" x1="37.2006" y1="447.361" x2="273.164" y2="866.124" gradientUnits="userSpaceOnUse">
<stop stop-color="#333399"/>
<stop offset="1" stop-color="#333399" stop-opacity="0"/>
</linearGradient>
<linearGradient id="paint3_linear" x1="40.7478" y1="454.184" x2="273.32" y2="866.929" gradientUnits="userSpaceOnUse">
<stop stop-color="#333399"/>
<stop offset="1" stop-color="#333399" stop-opacity="0"/>
</linearGradient>
<linearGradient id="paint4_linear" x1="44.2952" y1="461.008" x2="273.476" y2="867.734" gradientUnits="userSpaceOnUse">
<stop stop-color="#333399"/>
<stop offset="1" stop-color="#333399" stop-opacity="0"/>
</linearGradient>
<linearGradient id="paint5_linear" x1="47.8425" y1="467.832" x2="273.632" y2="868.539" gradientUnits="userSpaceOnUse">
<stop stop-color="#333399"/>
<stop offset="1" stop-color="#333399" stop-opacity="0"/>
</linearGradient>
<linearGradient id="paint6_linear" x1="51.3899" y1="474.656" x2="274.862" y2="871.252" gradientUnits="userSpaceOnUse">
<stop stop-color="#333399"/>
<stop offset="1" stop-color="#333399" stop-opacity="0"/>
</linearGradient>
<linearGradient id="paint7_linear" x1="54.9373" y1="481.479" x2="277.772" y2="876.944" gradientUnits="userSpaceOnUse">
<stop stop-color="#333399"/>
<stop offset="1" stop-color="#333399" stop-opacity="0"/>
</linearGradient>
<linearGradient id="paint8_linear" x1="58.4846" y1="488.303" x2="280.828" y2="882.895" gradientUnits="userSpaceOnUse">
<stop stop-color="#333399"/>
<stop offset="1" stop-color="#333399" stop-opacity="0"/>
</linearGradient>
<linearGradient id="paint9_linear" x1="62.0319" y1="495.127" x2="283.981" y2="889.019" gradientUnits="userSpaceOnUse">
<stop stop-color="#333399"/>
<stop offset="1" stop-color="#333399" stop-opacity="0"/>
</linearGradient>
<linearGradient id="paint10_linear" x1="65.5792" y1="501.951" x2="287.171" y2="895.209" gradientUnits="userSpaceOnUse">
<stop stop-color="#333399"/>
<stop offset="1" stop-color="#333399" stop-opacity="0"/>
</linearGradient>
<linearGradient id="paint11_linear" x1="69.1264" y1="508.774" x2="290.361" y2="901.399" gradientUnits="userSpaceOnUse">
<stop stop-color="#333399"/>
<stop offset="1" stop-color="#333399" stop-opacity="0"/>
</linearGradient>
<linearGradient id="paint12_linear" x1="72.674" y1="515.598" x2="293.551" y2="907.589" gradientUnits="userSpaceOnUse">
<stop stop-color="#333399"/>
<stop offset="1" stop-color="#333399" stop-opacity="0"/>
</linearGradient>
<linearGradient id="paint13_linear" x1="76.2212" y1="522.422" x2="296.742" y2="913.779" gradientUnits="userSpaceOnUse">
<stop stop-color="#333399"/>
<stop offset="1" stop-color="#333399" stop-opacity="0"/>
</linearGradient>
<linearGradient id="paint14_linear" x1="79.7686" y1="529.245" x2="299.932" y2="919.969" gradientUnits="userSpaceOnUse">
<stop stop-color="#333399"/>
<stop offset="1" stop-color="#333399" stop-opacity="0"/>
</linearGradient>
<linearGradient id="paint15_linear" x1="83.316" y1="536.069" x2="303.122" y2="926.159" gradientUnits="userSpaceOnUse">
<stop stop-color="#333399"/>
<stop offset="1" stop-color="#333399" stop-opacity="0"/>
</linearGradient>
<linearGradient id="paint16_linear" x1="86.8633" y1="542.893" x2="306.312" y2="932.349" gradientUnits="userSpaceOnUse">
<stop stop-color="#333399"/>
<stop offset="1" stop-color="#333399" stop-opacity="0"/>
</linearGradient>
<linearGradient id="paint17_linear" x1="90.4105" y1="549.717" x2="309.503" y2="938.539" gradientUnits="userSpaceOnUse">
<stop stop-color="#333399"/>
<stop offset="1" stop-color="#333399" stop-opacity="0"/>
</linearGradient>
<linearGradient id="paint18_linear" x1="93.9579" y1="556.54" x2="312.693" y2="944.729" gradientUnits="userSpaceOnUse">
<stop stop-color="#333399"/>
<stop offset="1" stop-color="#333399" stop-opacity="0"/>
</linearGradient>
<linearGradient id="paint19_linear" x1="97.5054" y1="563.364" x2="315.883" y2="950.919" gradientUnits="userSpaceOnUse">
<stop stop-color="#333399"/>
<stop offset="1" stop-color="#333399" stop-opacity="0"/>
</linearGradient>
<linearGradient id="paint20_linear" x1="101.053" y1="570.188" x2="319.073" y2="957.109" gradientUnits="userSpaceOnUse">
<stop stop-color="#333399"/>
<stop offset="1" stop-color="#333399" stop-opacity="0"/>
</linearGradient>
<linearGradient id="paint21_linear" x1="104.6" y1="577.012" x2="322.264" y2="963.299" gradientUnits="userSpaceOnUse">
<stop stop-color="#333399"/>
<stop offset="1" stop-color="#333399" stop-opacity="0"/>
</linearGradient>
<linearGradient id="paint22_linear" x1="108.147" y1="583.835" x2="325.454" y2="969.489" gradientUnits="userSpaceOnUse">
<stop stop-color="#333399"/>
<stop offset="1" stop-color="#333399" stop-opacity="0"/>
</linearGradient>
<linearGradient id="paint23_linear" x1="111.695" y1="590.659" x2="328.644" y2="975.679" gradientUnits="userSpaceOnUse">
<stop stop-color="#333399"/>
<stop offset="1" stop-color="#333399" stop-opacity="0"/>
</linearGradient>
<linearGradient id="paint24_linear" x1="115.242" y1="597.483" x2="331.834" y2="981.869" gradientUnits="userSpaceOnUse">
<stop stop-color="#333399"/>
<stop offset="1" stop-color="#333399" stop-opacity="0"/>
</linearGradient>
<linearGradient id="paint25_linear" x1="118.789" y1="604.307" x2="335.025" y2="988.059" gradientUnits="userSpaceOnUse">
<stop stop-color="#333399"/>
<stop offset="1" stop-color="#333399" stop-opacity="0"/>
</linearGradient>
<linearGradient id="paint26_linear" x1="122.337" y1="611.13" x2="338.215" y2="994.249" gradientUnits="userSpaceOnUse">
<stop stop-color="#333399"/>
<stop offset="1" stop-color="#333399" stop-opacity="0"/>
</linearGradient>
<linearGradient id="paint27_linear" x1="125.884" y1="617.954" x2="341.405" y2="1000.44" gradientUnits="userSpaceOnUse">
<stop stop-color="#333399"/>
<stop offset="1" stop-color="#333399" stop-opacity="0"/>
</linearGradient>
<linearGradient id="paint28_linear" x1="129.431" y1="624.778" x2="344.608" y2="1006.65" gradientUnits="userSpaceOnUse">
<stop stop-color="#333399"/>
<stop offset="1" stop-color="#333399" stop-opacity="0"/>
</linearGradient>
<linearGradient id="paint29_linear" x1="132.979" y1="631.602" x2="347.887" y2="1013" gradientUnits="userSpaceOnUse">
<stop stop-color="#333399"/>
<stop offset="1" stop-color="#333399" stop-opacity="0"/>
</linearGradient>
<linearGradient id="paint30_linear" x1="136.526" y1="638.425" x2="351.245" y2="1019.49" gradientUnits="userSpaceOnUse">
<stop stop-color="#333399"/>
<stop offset="1" stop-color="#333399" stop-opacity="0"/>
</linearGradient>
<linearGradient id="paint31_linear" x1="140.073" y1="645.249" x2="354.676" y2="1026.1" gradientUnits="userSpaceOnUse">
<stop stop-color="#333399"/>
<stop offset="1" stop-color="#333399" stop-opacity="0"/>
</linearGradient>
<linearGradient id="paint32_linear" x1="143.621" y1="652.073" x2="358.175" y2="1032.84" gradientUnits="userSpaceOnUse">
<stop stop-color="#333399"/>
<stop offset="1" stop-color="#333399" stop-opacity="0"/>
</linearGradient>
<linearGradient id="paint33_linear" x1="147.168" y1="658.897" x2="361.737" y2="1039.69" gradientUnits="userSpaceOnUse">
<stop stop-color="#333399"/>
<stop offset="1" stop-color="#333399" stop-opacity="0"/>
</linearGradient>
<linearGradient id="paint34_linear" x1="150.715" y1="665.72" x2="365.356" y2="1046.64" gradientUnits="userSpaceOnUse">
<stop stop-color="#333399"/>
<stop offset="1" stop-color="#333399" stop-opacity="0"/>
</linearGradient>
<linearGradient id="paint35_linear" x1="154.263" y1="672.544" x2="369.03" y2="1053.69" gradientUnits="userSpaceOnUse">
<stop stop-color="#333399"/>
<stop offset="1" stop-color="#333399" stop-opacity="0"/>
</linearGradient>
<linearGradient id="paint36_linear" x1="157.81" y1="679.368" x2="372.755" y2="1060.83" gradientUnits="userSpaceOnUse">
<stop stop-color="#333399"/>
<stop offset="1" stop-color="#333399" stop-opacity="0"/>
</linearGradient>
<linearGradient id="paint37_linear" x1="161.357" y1="686.192" x2="376.526" y2="1068.05" gradientUnits="userSpaceOnUse">
<stop stop-color="#333399"/>
<stop offset="1" stop-color="#333399" stop-opacity="0"/>
</linearGradient>
<linearGradient id="paint38_linear" x1="164.905" y1="693.015" x2="380.342" y2="1075.35" gradientUnits="userSpaceOnUse">
<stop stop-color="#333399"/>
<stop offset="1" stop-color="#333399" stop-opacity="0"/>
</linearGradient>
<linearGradient id="paint39_linear" x1="168.452" y1="699.839" x2="384.198" y2="1082.72" gradientUnits="userSpaceOnUse">
<stop stop-color="#333399"/>
<stop offset="1" stop-color="#333399" stop-opacity="0"/>
</linearGradient>
<linearGradient id="paint40_linear" x1="171.999" y1="706.663" x2="388.094" y2="1090.16" gradientUnits="userSpaceOnUse">
<stop stop-color="#333399"/>
<stop offset="1" stop-color="#333399" stop-opacity="0"/>
</linearGradient>
<linearGradient id="paint41_linear" x1="175.547" y1="713.487" x2="392.025" y2="1097.67" gradientUnits="userSpaceOnUse">
<stop stop-color="#333399"/>
<stop offset="1" stop-color="#333399" stop-opacity="0"/>
</linearGradient>
<linearGradient id="paint42_linear" x1="179.094" y1="720.31" x2="395.991" y2="1105.24" gradientUnits="userSpaceOnUse">
<stop stop-color="#333399"/>
<stop offset="1" stop-color="#333399" stop-opacity="0"/>
</linearGradient>
<linearGradient id="paint43_linear" x1="182.642" y1="727.134" x2="399.988" y2="1112.86" gradientUnits="userSpaceOnUse">
<stop stop-color="#333399"/>
<stop offset="1" stop-color="#333399" stop-opacity="0"/>
</linearGradient>
<linearGradient id="paint44_linear" x1="186.189" y1="733.958" x2="404.016" y2="1120.54" gradientUnits="userSpaceOnUse">
<stop stop-color="#333399"/>
<stop offset="1" stop-color="#333399" stop-opacity="0"/>
</linearGradient>
<linearGradient id="paint45_linear" x1="189.736" y1="740.782" x2="408.072" y2="1128.26" gradientUnits="userSpaceOnUse">
<stop stop-color="#333399"/>
<stop offset="1" stop-color="#333399" stop-opacity="0"/>
</linearGradient>
<linearGradient id="paint46_linear" x1="193.283" y1="747.605" x2="412.155" y2="1136.04" gradientUnits="userSpaceOnUse">
<stop stop-color="#333399"/>
<stop offset="1" stop-color="#333399" stop-opacity="0"/>
</linearGradient>
<linearGradient id="paint47_linear" x1="196.831" y1="754.429" x2="416.264" y2="1143.86" gradientUnits="userSpaceOnUse">
<stop stop-color="#333399"/>
<stop offset="1" stop-color="#333399" stop-opacity="0"/>
</linearGradient>
<linearGradient id="paint48_linear" x1="200.378" y1="761.253" x2="420.397" y2="1151.72" gradientUnits="userSpaceOnUse">
<stop stop-color="#333399"/>
<stop offset="1" stop-color="#333399" stop-opacity="0"/>
</linearGradient>
<linearGradient id="paint49_linear" x1="203.925" y1="768.077" x2="424.552" y2="1159.62" gradientUnits="userSpaceOnUse">
<stop stop-color="#333399"/>
<stop offset="1" stop-color="#333399" stop-opacity="0"/>
</linearGradient>
<linearGradient id="paint50_linear" x1="207.473" y1="774.9" x2="428.729" y2="1167.56" gradientUnits="userSpaceOnUse">
<stop stop-color="#333399"/>
<stop offset="1" stop-color="#333399" stop-opacity="0"/>
</linearGradient>
<linearGradient id="paint51_linear" x1="211.02" y1="781.724" x2="432.926" y2="1175.54" gradientUnits="userSpaceOnUse">
<stop stop-color="#333399"/>
<stop offset="1" stop-color="#333399" stop-opacity="0"/>
</linearGradient>
</defs>
</svg>
