<svg width="1920" height="1051" viewBox="0 0 1920 1051" fill="none" xmlns="http://www.w3.org/2000/svg">
<path opacity="0.2" d="M40.8364 97.346C106.922 -14.0373 455.113 -50.1681 455.113 105.459C455.113 150.748 210.356 442.452 271.306 535.432C332.257 628.412 484.86 369.821 507.054 485.095C529.247 600.369 398.485 697.686 530.983 784.117C663.481 870.549 888.912 614.055 1049.16 702.99C1107.78 735.524 1125.34 838.242 1213.51 844.343C1353.48 854.027 1444.82 710.194 1588.15 695.814C1674.09 687.192 1687.49 800.886 1761.39 784.117C1907.29 751.009 2054.51 657.977 2185 583.172" stroke="url(#paint0_linear)" stroke-linecap="round" stroke-linejoin="round"/>
<path opacity="0.2" d="M-189 327.293C-122.915 215.91 225.277 179.779 225.277 335.406C225.277 380.695 -19.4809 672.399 41.47 765.379C102.421 858.359 310.063 650.105 332.257 765.379C354.451 880.653 305.789 949 438.286 1035.43C570.784 1121.86 619.618 791.715 779.865 880.649C838.486 913.183 982.485 1007.96 1070.65 1014.06C1210.63 1023.75 1210.49 895.029 1353.82 880.649C1439.75 872.028 1489.44 998.696 1563.34 981.927C1709.24 948.818 2054.43 657.992 2184.91 583.188" stroke="url(#paint1_linear)" stroke-linecap="round" stroke-linejoin="round"/>
<path opacity="0.2" d="M29.8916 108.296C95.977 -3.08749 444.169 -39.2183 444.169 116.409C444.169 161.698 199.411 453.402 260.362 546.382C321.313 639.362 476.536 383.168 498.73 498.442C520.924 613.716 394.071 709.653 526.568 796.085C659.066 882.516 876.088 622.515 1036.34 711.45C1094.96 743.983 1118.54 846.324 1206.7 852.424C1346.68 862.109 1433.66 718.995 1577 704.615C1662.93 695.994 1678.06 810.306 1751.96 793.537C1897.86 760.428 2054.51 657.977 2185 583.173" stroke="url(#paint2_linear)"/>
<path opacity="0.2" d="M18.9473 119.246C85.0327 7.8624 433.224 -28.2684 433.224 127.358C433.224 172.648 188.466 464.351 249.417 557.332C310.368 650.312 468.213 396.515 490.406 511.789C512.6 627.063 389.657 721.62 522.155 808.052C654.652 894.483 863.265 630.975 1023.51 719.91C1082.13 752.444 1111.73 854.406 1199.9 860.506C1339.87 870.191 1422.5 727.797 1565.84 713.417C1651.77 704.796 1668.63 819.725 1742.53 802.956C1888.43 769.848 2054.51 657.978 2184.99 583.174" stroke="url(#paint3_linear)"/>
<path opacity="0.2" d="M8.0022 130.196C74.0876 18.8122 422.279 -17.3186 422.279 138.308C422.279 183.598 177.521 475.301 238.472 568.281C299.423 661.261 459.888 409.862 482.082 525.136C504.276 640.41 385.242 733.588 517.74 820.019C650.238 906.451 850.441 639.435 1010.69 728.37C1069.31 760.903 1104.93 862.488 1193.1 868.588C1333.07 878.273 1411.34 736.599 1554.68 722.219C1640.61 713.597 1659.2 829.145 1733.1 812.376C1879 779.267 2054.5 657.979 2184.99 583.174" stroke="url(#paint4_linear)"/>
<path opacity="0.2" d="M-2.94165 141.145C63.1438 29.7621 411.335 -6.36873 411.335 149.258C411.335 194.548 166.577 486.251 227.528 579.231C288.479 672.211 451.566 423.209 473.759 538.483C495.953 653.756 380.829 745.555 513.327 831.987C645.824 918.418 837.618 647.895 997.866 736.83C1056.49 769.363 1098.13 870.57 1186.3 876.67C1326.27 886.355 1400.19 745.4 1543.52 731.02C1629.46 722.399 1649.77 838.564 1723.67 821.795C1869.57 788.687 2054.5 657.98 2184.98 583.175" stroke="url(#paint5_linear)"/>
<path opacity="0.2" d="M-13.8865 152.095C52.1989 40.7119 400.391 4.58116 400.391 160.208C400.391 205.498 155.633 497.201 216.584 590.181C277.534 683.161 443.242 436.556 465.436 551.829C487.629 667.103 376.414 757.522 508.912 843.954C641.41 930.385 824.794 656.355 985.042 745.29C1043.66 777.823 1091.33 878.652 1179.49 884.752C1319.47 894.437 1389.03 754.202 1532.36 739.822C1618.3 731.201 1640.34 847.984 1714.24 831.215C1860.14 798.106 2054.49 657.98 2184.98 583.176" stroke="url(#paint6_linear)"/>
<path opacity="0.2" d="M-24.8308 163.045C41.2546 51.6618 389.446 15.531 389.446 171.158C389.446 216.447 144.688 508.151 205.639 601.131C266.59 694.111 434.918 449.902 457.112 565.176C479.306 680.45 372 769.49 504.498 855.921C636.996 942.353 811.971 664.815 972.219 753.75C1030.84 786.283 1084.52 886.734 1172.69 892.834C1312.66 902.519 1377.87 763.004 1521.2 748.624C1607.14 740.002 1630.91 857.403 1704.81 840.634C1850.71 807.526 2054.49 657.981 2184.97 583.176" stroke="url(#paint7_linear)"/>
<path opacity="0.2" d="M-35.7756 173.995C30.3098 62.6116 378.501 26.4808 378.501 182.108C378.501 227.397 133.743 519.101 194.694 612.081C255.645 705.061 426.594 463.249 448.788 578.523C470.982 693.797 367.586 781.457 500.084 867.889C632.582 954.32 799.148 673.275 959.395 762.21C1018.02 794.743 1077.72 894.816 1165.89 900.916C1305.86 910.601 1366.71 771.805 1510.04 757.425C1595.98 748.804 1621.48 866.823 1695.37 850.054C1841.28 816.945 2054.49 657.982 2184.97 583.177" stroke="url(#paint8_linear)"/>
<path opacity="0.2" d="M-46.7207 184.945C19.3647 73.5616 367.556 37.4308 367.556 193.058C367.556 238.347 122.798 530.051 183.749 623.031C244.7 716.011 418.27 476.596 440.464 591.87C462.658 707.144 363.172 793.425 495.669 879.856C628.167 966.288 786.323 681.735 946.571 770.67C1005.19 803.203 1070.92 902.898 1159.08 908.998C1299.06 918.683 1355.55 780.607 1498.88 766.227C1584.82 757.606 1612.04 876.242 1685.94 859.473C1831.84 826.365 2054.48 657.983 2184.97 583.178" stroke="url(#paint9_linear)"/>
<path opacity="0.2" d="M-57.665 195.895C8.42036 84.5114 356.612 48.3806 356.612 204.007C356.612 249.297 111.854 541 172.805 633.981C233.756 726.961 409.947 489.943 432.141 605.217C454.335 720.491 358.758 805.392 491.256 891.823C623.753 978.255 773.5 690.195 933.747 779.13C992.368 811.663 1064.12 910.98 1152.28 917.08C1292.26 926.765 1344.39 789.409 1487.73 775.029C1573.66 766.408 1602.61 885.662 1676.51 868.893C1822.41 835.784 2054.48 657.983 2184.96 583.179" stroke="url(#paint10_linear)"/>
<path opacity="0.2" d="M-68.6099 206.845C-2.52445 95.4612 345.667 59.3304 345.667 214.957C345.667 260.247 100.909 551.95 161.86 644.93C222.811 737.911 401.623 503.29 423.817 618.564C446.011 733.837 354.343 817.359 486.841 903.791C619.339 990.222 760.676 698.655 920.924 787.59C979.544 820.123 1057.31 919.062 1145.48 925.162C1285.45 934.847 1333.23 798.211 1476.57 783.831C1562.5 775.209 1593.18 895.081 1667.08 878.312C1812.98 845.204 2054.47 657.984 2184.96 583.179" stroke="url(#paint11_linear)"/>
<path opacity="0.2" d="M-79.5537 217.794C-13.4683 106.411 334.723 70.2803 334.723 225.907C334.723 271.197 89.9654 562.9 150.916 655.88C211.867 748.86 393.3 516.637 415.494 631.91C437.688 747.184 349.93 829.327 482.428 915.758C614.926 1002.19 747.854 707.115 908.101 796.05C966.721 828.583 1050.51 927.144 1138.68 933.244C1278.65 942.929 1322.07 807.012 1465.41 792.632C1551.34 784.011 1583.75 904.501 1657.65 887.732C1803.55 854.623 2054.47 657.985 2184.95 583.18" stroke="url(#paint12_linear)"/>
<path opacity="0.2" d="M-90.4985 228.744C-24.4131 117.361 323.779 81.2301 323.779 236.857C323.779 282.147 79.0206 573.85 139.971 666.83C200.922 759.81 384.976 529.983 407.17 645.257C429.364 760.531 345.516 841.294 478.014 927.725C610.511 1014.16 735.03 715.575 895.277 804.51C953.898 837.043 1043.71 935.226 1131.88 941.326C1271.85 951.011 1310.91 815.814 1454.25 801.434C1540.18 792.813 1574.32 913.92 1648.22 897.151C1794.12 864.043 2054.46 657.986 2184.95 583.181" stroke="url(#paint13_linear)"/>
<path opacity="0.2" d="M-101.443 239.694C-35.3575 128.311 312.834 92.18 312.834 247.807C312.834 293.096 68.0762 584.8 129.027 677.78C189.978 770.76 376.653 543.33 398.847 658.604C421.041 773.878 341.102 853.261 473.6 939.693C606.098 1026.12 722.207 724.035 882.454 812.97C941.074 845.503 1036.91 943.308 1125.07 949.408C1265.05 959.093 1299.76 824.616 1443.09 810.236C1529.03 801.614 1564.89 923.34 1638.79 906.571C1784.69 873.462 2054.46 657.986 2184.95 583.182" stroke="url(#paint14_linear)"/>
<path opacity="0.2" d="M-112.388 250.644C-46.3025 139.261 301.889 103.13 301.889 258.757C301.889 304.046 57.1312 595.75 118.082 688.73C179.033 781.71 368.329 556.677 390.523 671.951C412.716 787.225 336.687 865.229 469.185 951.66C601.683 1038.09 709.383 732.495 869.63 821.43C928.25 853.963 1030.1 951.39 1118.27 957.49C1258.24 967.175 1288.6 833.417 1431.93 819.037C1517.87 810.416 1555.46 932.759 1629.36 915.99C1775.26 882.882 2054.46 657.987 2184.94 583.182" stroke="url(#paint15_linear)"/>
<path opacity="0.2" d="M-123.333 261.594C-57.2474 150.21 290.944 114.08 290.944 269.707C290.944 314.996 46.1863 606.7 107.137 699.68C168.088 792.66 360.005 570.024 382.199 685.298C404.393 800.572 332.273 877.196 464.771 963.627C597.269 1050.06 696.559 740.955 856.806 829.89C915.426 862.423 1023.3 959.472 1111.47 965.572C1251.44 975.257 1277.44 842.219 1420.77 827.839C1506.71 819.218 1546.03 942.179 1619.93 925.41C1765.83 892.301 2054.45 657.988 2184.94 583.183" stroke="url(#paint16_linear)"/>
<path opacity="0.2" d="M-134.277 272.544C-68.1917 161.16 280 125.03 280 280.656C280 325.946 35.242 617.649 96.1929 710.63C157.144 803.61 351.682 583.371 373.875 698.645C396.069 813.919 327.859 889.163 460.357 975.595C592.855 1062.03 683.736 749.415 843.983 838.35C902.603 870.883 1016.5 967.554 1104.66 973.654C1244.64 983.339 1266.28 851.021 1409.61 836.641C1495.55 828.02 1536.6 951.598 1610.49 934.829C1756.4 901.721 2054.45 657.989 2184.93 583.184" stroke="url(#paint17_linear)"/>
<path opacity="0.2" d="M-145.222 283.494C-79.1366 172.11 269.055 135.979 269.055 291.606C269.055 336.896 24.297 628.599 85.248 721.579C146.199 814.56 343.358 596.718 365.551 711.991C387.745 827.265 323.445 901.131 455.942 987.562C588.44 1073.99 670.912 757.875 831.159 846.81C889.779 879.343 1009.7 975.636 1097.86 981.736C1237.84 991.421 1255.12 859.823 1398.45 845.443C1484.39 836.821 1527.16 961.018 1601.06 944.249C1746.96 911.14 2054.44 657.989 2184.93 583.185" stroke="url(#paint18_linear)"/>
<path opacity="0.2" d="M-156.166 294.443C-90.0805 183.06 258.111 146.929 258.111 302.556C258.111 347.846 13.3532 639.549 74.3041 732.529C135.255 825.509 335.035 610.064 357.228 725.338C379.422 840.612 319.031 913.098 451.529 999.529C584.027 1085.96 658.089 766.335 818.336 855.27C876.957 887.803 1002.89 983.718 1091.06 989.818C1231.03 999.503 1243.96 868.624 1387.3 854.244C1473.23 845.623 1517.73 970.437 1591.63 953.668C1737.53 920.56 2054.44 657.99 2184.92 583.185" stroke="url(#paint19_linear)"/>
<path opacity="0.2" d="M-167.111 305.393C-101.025 194.01 247.166 157.879 247.166 313.506C247.166 358.796 2.40837 650.499 63.3593 743.479C124.31 836.459 326.711 623.411 348.905 738.685C371.098 853.959 314.617 925.065 447.115 1011.5C579.613 1097.93 645.265 774.795 805.513 863.729C864.133 896.263 996.091 991.8 1084.26 997.9C1224.23 1007.58 1232.8 877.426 1376.14 863.046C1462.07 854.425 1508.3 979.857 1582.2 963.088C1728.1 929.979 2054.43 657.991 2184.92 583.186" stroke="url(#paint20_linear)"/>
<path opacity="0.2" d="M-178.055 316.343C-111.97 204.96 236.222 168.829 236.222 324.456C236.222 369.745 -8.53609 661.449 52.4148 754.429C113.366 847.409 318.387 636.758 340.581 752.032C362.775 867.306 310.203 937.033 442.701 1023.46C575.199 1109.9 632.442 783.255 792.689 872.189C851.309 904.723 989.288 999.882 1077.45 1005.98C1217.43 1015.67 1221.64 886.228 1364.98 871.848C1450.91 863.226 1498.87 989.276 1572.77 972.507C1718.67 939.399 2054.43 657.992 2184.92 583.187" stroke="url(#paint21_linear)"/>
<defs>
<linearGradient id="paint0_linear" x1="1112.92" y1="1" x2="1112.92" y2="844.81" gradientUnits="userSpaceOnUse">
<stop stop-color="#333399"/>
<stop offset="1" stop-color="#333399" stop-opacity="0.54"/>
</linearGradient>
<linearGradient id="paint1_linear" x1="997.955" y1="230.947" x2="997.955" y2="1050" gradientUnits="userSpaceOnUse">
<stop stop-color="#333399"/>
<stop offset="1" stop-color="#333399" stop-opacity="0.54"/>
</linearGradient>
<linearGradient id="paint2_linear" x1="1107.44" y1="11.9498" x2="1107.44" y2="852.894" gradientUnits="userSpaceOnUse">
<stop stop-color="#333399"/>
<stop offset="1" stop-color="#333399" stop-opacity="0.54"/>
</linearGradient>
<linearGradient id="paint3_linear" x1="1101.97" y1="22.8997" x2="1101.97" y2="860.979" gradientUnits="userSpaceOnUse">
<stop stop-color="#333399"/>
<stop offset="1" stop-color="#333399" stop-opacity="0.54"/>
</linearGradient>
<linearGradient id="paint4_linear" x1="1096.49" y1="33.8495" x2="1096.49" y2="869.063" gradientUnits="userSpaceOnUse">
<stop stop-color="#333399"/>
<stop offset="1" stop-color="#333399" stop-opacity="0.54"/>
</linearGradient>
<linearGradient id="paint5_linear" x1="1091.02" y1="44.7994" x2="1091.02" y2="877.147" gradientUnits="userSpaceOnUse">
<stop stop-color="#333399"/>
<stop offset="1" stop-color="#333399" stop-opacity="0.54"/>
</linearGradient>
<linearGradient id="paint6_linear" x1="1085.55" y1="55.7493" x2="1085.55" y2="885.231" gradientUnits="userSpaceOnUse">
<stop stop-color="#333399"/>
<stop offset="1" stop-color="#333399" stop-opacity="0.54"/>
</linearGradient>
<linearGradient id="paint7_linear" x1="1080.07" y1="66.6991" x2="1080.07" y2="893.316" gradientUnits="userSpaceOnUse">
<stop stop-color="#333399"/>
<stop offset="1" stop-color="#333399" stop-opacity="0.54"/>
</linearGradient>
<linearGradient id="paint8_linear" x1="1074.6" y1="77.6489" x2="1074.6" y2="901.4" gradientUnits="userSpaceOnUse">
<stop stop-color="#333399"/>
<stop offset="1" stop-color="#333399" stop-opacity="0.54"/>
</linearGradient>
<linearGradient id="paint9_linear" x1="1069.12" y1="88.5989" x2="1069.12" y2="909.484" gradientUnits="userSpaceOnUse">
<stop stop-color="#333399"/>
<stop offset="1" stop-color="#333399" stop-opacity="0.54"/>
</linearGradient>
<linearGradient id="paint10_linear" x1="1063.65" y1="99.5487" x2="1063.65" y2="917.569" gradientUnits="userSpaceOnUse">
<stop stop-color="#333399"/>
<stop offset="1" stop-color="#333399" stop-opacity="0.54"/>
</linearGradient>
<linearGradient id="paint11_linear" x1="1058.17" y1="110.499" x2="1058.17" y2="925.653" gradientUnits="userSpaceOnUse">
<stop stop-color="#333399"/>
<stop offset="1" stop-color="#333399" stop-opacity="0.54"/>
</linearGradient>
<linearGradient id="paint12_linear" x1="1052.7" y1="121.448" x2="1052.7" y2="933.738" gradientUnits="userSpaceOnUse">
<stop stop-color="#333399"/>
<stop offset="1" stop-color="#333399" stop-opacity="0.54"/>
</linearGradient>
<linearGradient id="paint13_linear" x1="1047.23" y1="132.398" x2="1047.23" y2="943.612" gradientUnits="userSpaceOnUse">
<stop stop-color="#333399"/>
<stop offset="1" stop-color="#333399" stop-opacity="0.54"/>
</linearGradient>
<linearGradient id="paint14_linear" x1="1041.75" y1="143.348" x2="1041.75" y2="955.421" gradientUnits="userSpaceOnUse">
<stop stop-color="#333399"/>
<stop offset="1" stop-color="#333399" stop-opacity="0.54"/>
</linearGradient>
<linearGradient id="paint15_linear" x1="1036.28" y1="154.298" x2="1036.28" y2="967.233" gradientUnits="userSpaceOnUse">
<stop stop-color="#333399"/>
<stop offset="1" stop-color="#333399" stop-opacity="0.54"/>
</linearGradient>
<linearGradient id="paint16_linear" x1="1030.8" y1="165.248" x2="1030.8" y2="979.048" gradientUnits="userSpaceOnUse">
<stop stop-color="#333399"/>
<stop offset="1" stop-color="#333399" stop-opacity="0.54"/>
</linearGradient>
<linearGradient id="paint17_linear" x1="1025.33" y1="176.198" x2="1025.33" y2="990.867" gradientUnits="userSpaceOnUse">
<stop stop-color="#333399"/>
<stop offset="1" stop-color="#333399" stop-opacity="0.54"/>
</linearGradient>
<linearGradient id="paint18_linear" x1="1019.85" y1="187.148" x2="1019.85" y2="1002.69" gradientUnits="userSpaceOnUse">
<stop stop-color="#333399"/>
<stop offset="1" stop-color="#333399" stop-opacity="0.54"/>
</linearGradient>
<linearGradient id="paint19_linear" x1="1014.38" y1="198.097" x2="1014.38" y2="1014.51" gradientUnits="userSpaceOnUse">
<stop stop-color="#333399"/>
<stop offset="1" stop-color="#333399" stop-opacity="0.54"/>
</linearGradient>
<linearGradient id="paint20_linear" x1="1008.9" y1="209.047" x2="1008.9" y2="1026.34" gradientUnits="userSpaceOnUse">
<stop stop-color="#333399"/>
<stop offset="1" stop-color="#333399" stop-opacity="0.54"/>
</linearGradient>
<linearGradient id="paint21_linear" x1="1003.43" y1="219.997" x2="1003.43" y2="1038.17" gradientUnits="userSpaceOnUse">
<stop stop-color="#333399"/>
<stop offset="1" stop-color="#333399" stop-opacity="0.54"/>
</linearGradient>
</defs>
</svg>
