<svg fill="none" xmlns="http://www.w3.org/2000/svg" viewBox="0 0 992 2018">
  <mask id="a" maskUnits="userSpaceOnUse" x="0" y="0" width="992" height="2018">
    <path d="M0 0h992v2018H0V0z" fill="#4C4A58"/>
  </mask>
  <g mask="url(#a)">
    <path opacity=".2" d="M240.44-310.87a.5.5 0 00.57.82l-.57-.82zm244.5 213.54l-.4-.32.4.32zm-532 430.87l.47.18-.47-.18zm192.66 54.69l-.41-.28.41.28zM-132 762.35h.5-.5zM262.63 918.3l-.5.03.5-.03zm-38.09 251.95l-.36.34.36-.34zm373.15 3.84l-.24.45.24-.45zm19.15 192.02l.13-.48-.13.48zm454.25-35.15a.5.5 0 00.4-.58.5.5 0 00-.58-.41l.18.99zM-124.12-144.98a.5.5 0 00.56.82l-.56-.83zM120.37 68.55l-.39-.31.39.31zm-532 430.88l.47.17-.47-.17zm176.98 142.7l.42.27-.42-.28zm-199.34 379.29l-.5-.01.5.01zm359.13-19.96l.5-.03-.5.03zm46.62 304.38l.36-.35-.36.35zm302.7-22.73l.23-.44-.23.44zm28.56 225.55l.13-.49-.13.49zm768-177.72a.5.5 0 00.4-.58.49.49 0 00-.58-.4l.18.98zM467.58-89.44l-.4-.3.4.3zm-532 430.88l.47.18-.47-.18zm191.92 58.88l.41.27-.41-.27zM-146.4 774.68l.5.01h-.5zm392.95 147.59l-.5.02.5-.02zM212.5 1176.7l-.36.34.36-.34zm369.8 2.58l-.24.45.24-.45zm19.6 193.62l.12-.48-.12.48zM450.2-81.54l-.38-.3.38.3zm-532 430.88l.48.18-.47-.18zm-78.98 437.68l-.5-.01.5.01zm391.26 139.2l-.5.03.5-.02zm-30.02 256.95l.36-.35-.36.35zm366.43 1.31l.24-.44-.24.44zm20.05 195.22l.13-.48-.13.48zM432.85-73.64l-.39-.31.4.31zm-532 430.88l.48.18-.47-.18zM91.29 424.5l.42.27-.42-.27zm-266.43 374.86l-.5-.01h.5zm389.57 130.83l.5-.03-.5.03zm-26 259.43l.37-.34-.36.34zm363.1.05l.22-.44-.23.44zM572 1386.49l.12-.49-.12.49zM415.5-65.74l-.4-.31.4.31zm-532 430.88l.47.18-.47-.18zm-73.03 446.55l.5.01h-.5zm387.88 122.46l-.5.02.5-.02zm-21.96 261.93l.37-.34-.37.34zm359.73-1.21l-.23.44.23-.44zm20.95 198.4l-.13.49.13-.49zM398.13-57.83l-.38-.32.38.31zm-532 430.87l-.46-.18.47.18zm-70.04 451h.5-.5zM182.28 938.1l.5-.03-.5.03zm-17.93 264.43l.37-.35-.37.35zm356.38-2.48l.23-.45-.23.45zm21.4 200l.12-.48-.13.48zm-161.36-1450l-.38-.31.38.31zm-532 430.88l-.46-.18.47.18zm188.19 79.83l-.42-.28.42.28zm-255.25 375.6h.5-.5zm384.5 105.7l.5-.03-.5.03zm-13.9 266.92l.37-.34-.36.34zm353.03-3.74l-.23.44.23-.44zm21.84 201.6l.12-.48-.12.48zM363.4-42.04l-.39-.31.4.31zm-532 430.88l-.46-.18.47.18zm-64.08 459.86h-.5.5zm382.8 97.32l.5-.02-.5.02zm-9.85 269.43l-.36.34.36-.34zm349.66-5.01l-.23.44.24-.44zm22.3 203.2l-.13.48.12-.48zM346.04-34.14l-.39-.31.4.31zm-532 430.88l-.46-.18.47.18zm186.7 88.2l.41.28-.42-.27zm-247.8 376.1l-.5-.01.5.01zM134.06 950l-.5.02.5-.02zm-5.82 271.92l.37-.35-.37.35zm346.31-6.28l.24-.45-.24.45zm22.74 204.79l.13-.48-.13.48zM328.69-26.24l-.39-.31.4.3zm-532 430.88l.47.17-.46-.17zm-58.12 468.74l-.5-.01h.5zM118 953.95l.5-.03-.5.03zm-1.78 274.41l.36-.34-.36.34zm342.95-7.54l-.23.44.23-.44zm23.19 206.39l-.13.48.13-.48zM311.33-18.34l-.39-.32.4.32zm-532 430.88l-.46-.18.47.18zm-55.14 473.18h.5-.5zm377.73 72.18l-.5.03.5-.03zm2.25 276.92l.36-.35-.36.35zm339.6-8.81l.23-.44-.23.44zM467.4 1434l-.12.48.12-.48zM293.97-10.44l-.39-.32.4.32zm-532 430.88l.47.17-.46-.17zm-52.16 477.61l.5.01h-.5zm376.04 63.82l.5-.03-.5.02zm6.28 279.4l.37-.34-.37.34zm336.25-10.07l.23-.44-.23.44zm24.08 209.59l.12-.49-.12.49zM276.6-2.54l-.39-.32.4.32zm-532 430.87l-.46-.17.47.17zm183.7 104.98l-.41-.28.42.28zm-232.88 377.08l-.5-.01h.5zm374.35 55.43l.5-.03-.5.03zm10.31 281.91l.37-.34-.37.34zm332.9-11.34l.23-.44-.23.44zm24.52 211.18l.13-.48-.13.48zM259.25 5.36l-.39-.32.4.32zm-532 430.87l-.46-.17.47.17zm-46.2 486.5l-.5-.01h.5zm372.66 47.05l.5-.02-.5.02zm14.35 284.41l-.37.34.37-.34zm329.54-12.61l.23-.44-.23.44zm24.97 212.78l-.13.48.13-.48zM241.9 13.26l-.39-.32.4.31zm-532 430.87l-.46-.17.46.17zm-43.22 490.93h-.5.5zm370.97 38.68l.5-.02-.5.02zm18.38 286.9l.36-.34-.36.34zm326.18-13.87l-.23.45.23-.45zm25.43 214.38l.12-.49-.12.49zm-183.1-1440l-.39-.3v-.01l.4.31zm-532 430.88l-.46-.17.46.17zM-347.7 947.4l.5.01-.5-.01zm369.28 30.3l.5-.03-.5.03zm22.41 289.4l.37-.34-.37.34zm322.83-15.14l-.23.45.23-.45zm25.87 215.97l-.12.49.12-.49zM207.18 29.05l-.4-.31.4.31zm-532 430.88l-.47-.18.46.18zm180.7 121.74l.43.27-.42-.27zm-217.97 378.07l-.5-.01h.5zM5.5 981.66l-.5.03.5-.03zm26.45 291.9l.36-.35-.36.35zm319.47-16.41l.23-.44-.23.44zm26.32 217.57l-.13.49.13-.49zM189.8 36.95l-.39-.31.4.31zm-532 430.88l-.46-.18.46.18zm-34.28 504.24l.5.01h-.5zm365.9 13.55l.5-.03-.5.03zm30.48 294.39l.36-.34-.36.34zm316.12-17.66l.23-.45-.23.45zm26.77 219.16l.12-.49-.13.49zM172.45 44.85l-.39-.31.4.31zm-532 430.88l-.46-.18.46.18zm-31.3 508.68l-.5-.01.5.01zm364.2 5.17l.5-.03-.5.03zm34.52 296.89l.37-.34-.37.34zm312.77-18.93l.23-.45-.23.45zm27.21 220.76l-.12.48.12-.48zM155.1 52.75l-.39-.31.4.31zm-532 430.88l-.46-.18.46.18zm-28.32 513.12l-.5-.01h.5zm362.51-3.2l-.5.02.5-.03zm38.56 299.37l.36-.34-.36.34zm309.4-20.19l.24-.45-.24.45zm27.67 222.35l.12-.48-.12.48zM137.73 60.65l-.39-.31.4.31zm-532 430.88l-.46-.18.46.18zm177.73 138.5l.42.27-.42-.27zm-203.07 379.05l-.5-.01.5.01zm360.82-11.58l-.5.03.5-.03zm42.59 301.88l.36-.34-.36.34zm306.05-21.46l-.23.44.23-.44zm28.11 223.95l.13-.48-.13.48zM241.01-310.04c74.35-51.16 173.2-45.04 234.45-2.63 30.63 21.2 51.83 51.44 55.93 88.1 4.1 36.67-8.88 79.84-46.84 126.92l.77.63c38.08-47.22 51.2-90.66 47.07-127.66-4.14-37-25.55-67.48-56.35-88.8-61.6-42.65-160.9-48.79-235.6 2.61l.57.82zm243.54 212.4c-5.49 6.8-17.06 16.41-33.27 28.33-16.2 11.9-36.98 26.07-60.86 41.99C342.68 4.5 282.6 43.28 222.22 84.8c-60.38 41.53-121.07 85.8-170.03 128.6-48.94 42.8-86.23 84.2-99.72 119.97l.94.35c13.39-35.52 50.5-76.77 99.44-119.56 48.91-42.77 109.56-87.02 169.93-128.53C283.15 44.1 343.22 5.34 390.98-26.5c23.87-15.91 44.67-30.1 60.9-42.02 16.2-11.9 27.87-21.6 33.44-28.51l-.77-.63zm-532.08 431c-6.73 17.85-7.28 29.91-3.06 37.54 4.25 7.66 13.2 10.64 24.9 10.67 11.7.02 26.35-2.92 42.23-7.29 15.9-4.37 33.09-10.18 49.9-15.92 16.83-5.75 33.28-11.42 47.73-15.53 14.46-4.12 26.84-6.64 35.56-6.13 4.35.26 7.72 1.28 9.98 3.16 2.23 1.87 3.44 4.65 3.37 8.62-.07 3.99-1.44 9.15-4.35 15.68-2.91 6.53-7.36 14.4-13.54 23.8l.83.54c6.2-9.42 10.68-17.34 13.62-23.93 2.94-6.6 4.37-11.89 4.44-16.07.07-4.2-1.22-7.3-3.73-9.4-2.5-2.09-6.1-3.13-10.56-3.4-8.9-.52-21.44 2.05-35.9 6.16-14.47 4.12-30.95 9.81-47.77 15.55-16.82 5.75-33.98 11.55-49.84 15.9-15.87 4.37-30.4 7.28-41.98 7.26-11.59-.03-20.04-2.98-24.01-10.16-4-7.2-3.6-18.89 3.12-36.69l-.94-.35zm192.72 54.6C95.66 463.17 27.28 514.2-29.3 567.72c-56.56 53.52-101.3 109.52-103.22 194.6l1 .03c1.9-84.68 46.4-140.44 102.9-193.9 56.49-53.44 125.02-104.6 174.63-179.96l-.84-.55zm-277.7 374.38c-.48 21.31 5.2 36.89 15.56 48.14 10.36 11.24 25.34 18.1 43.4 22.13 36.06 8.03 84.6 4.74 133.47 1.97 48.93-2.76 98.2-5 135.9 5.07 18.84 5.03 34.75 13.13 46.28 25.74 11.52 12.6 18.7 29.74 20.03 52.95l1-.06c-1.33-23.4-8.59-40.77-20.3-53.57-11.7-12.79-27.8-20.96-46.75-26.03-37.89-10.12-87.33-7.86-136.21-5.1-48.94 2.77-97.3 6.05-133.21-1.95-17.94-4-32.71-10.8-42.88-21.83-10.15-11.02-15.76-26.32-15.29-47.44l-1-.02zm394.64 156c.97 16.95-3.88 37.98-11 60.83-7.11 22.86-16.45 47.42-24.45 71.53-7.99 24.07-14.62 47.64-16.26 68.37-1.65 20.73 1.7 38.72 13.76 51.53l.72-.69c-11.78-12.51-15.12-30.16-13.49-50.76 1.64-20.61 8.24-44.08 16.22-68.14 7.97-24.02 17.35-48.69 24.46-71.54 7.12-22.87 12.02-44.05 11.04-61.2l-1 .07zm-37.95 252.26c19.06 20.25 45.68 27.25 76.37 27.24 30.68 0 65.51-7 101.09-14.86 35.6-7.85 71.93-16.55 105.71-19.99 33.78-3.44 64.91-1.6 90.1 11.56l.47-.89c-25.45-13.3-56.82-15.11-90.67-11.67-33.85 3.45-70.27 12.17-105.83 20.02-35.59 7.85-70.31 14.83-100.87 14.83-30.55.01-56.85-6.96-75.65-26.93l-.72.69zm373.28 3.95c14.93 7.8 19.86 22.53 19.7 40.69-.14 18.18-5.38 39.63-10.62 60.67-5.23 21-10.47 41.6-10.54 57.95-.04 8.17 1.22 15.34 4.46 20.99 3.25 5.66 8.47 9.74 16.25 11.76l.26-.97c-7.56-1.96-12.54-5.88-15.65-11.29-3.11-5.43-4.36-12.4-4.32-20.49.07-16.2 5.27-36.66 10.51-57.71 5.23-21.01 10.5-42.58 10.66-60.9.15-18.33-4.83-33.53-20.25-41.59l-.46.89zm19.25 192.06c60.67 15.76 136.16 13.49 215.51 3.97s162.63-26.3 238.87-39.61l-.18-.99c-76.27 13.32-159.5 30.09-238.8 39.61-79.33 9.52-154.66 11.76-215.14-3.95l-.26.97zM-123.56-144.16c74.35-51.16 173.2-45.03 234.46-2.62 30.62 21.2 51.83 51.44 55.93 88.1 4.1 36.66-8.89 79.84-46.85 126.92l.78.62c38.07-47.22 51.2-90.65 47.06-127.65-4.14-37-25.54-67.49-56.35-88.82-61.6-42.63-160.89-48.77-235.6 2.63l.57.82zm243.54 212.4c-5.48 6.8-17.05 16.41-33.27 28.33-16.2 11.9-36.98 26.08-60.85 42-47.74 31.81-107.83 70.6-168.2 112.12-60.39 41.52-121.08 85.79-170.04 128.6-48.94 42.8-86.23 84.19-99.72 119.96l.94.35c13.4-35.52 50.5-76.77 99.44-119.56 48.92-42.77 109.57-87.01 169.94-128.53C-81.41 210-21.34 171.23 26.42 139.4c23.87-15.91 44.67-30.1 60.89-42.01 16.2-11.91 27.87-21.6 33.45-28.52l-.78-.62zM-412.1 499.25c-6.73 17.88-7.5 31.26-3.76 41.25 3.75 10 11.98 16.49 22.97 20.67 10.98 4.18 24.77 6.07 39.75 6.86 14.98.8 31.2.49 47.02.25 15.85-.25 31.3-.43 44.82.61 13.53 1.04 25.04 3.3 33 7.89 3.99 2.29 7.07 5.15 9.09 8.72 2.02 3.56 3 7.87 2.71 13.08-.56 10.43-6.19 24.46-18.57 43.27l.84.55c12.4-18.85 18.15-33.06 18.73-43.77.3-5.37-.72-9.87-2.84-13.62-2.13-3.76-5.36-6.74-9.45-9.1-8.18-4.7-19.87-6.97-33.43-8.02-13.57-1.04-29.08-.86-44.91-.62-15.85.25-32.02.55-46.96-.24-14.94-.79-28.61-2.67-39.45-6.8-10.82-4.11-18.77-10.44-22.38-20.08-3.62-9.67-2.94-22.77 3.76-40.55l-.94-.35zm177.03 142.6c-24.77 37.63-49.37 69.53-72.4 98.88-23.03 29.35-44.5 56.16-63 83.57-37.01 54.84-62.1 112.11-64.02 197.11l1 .02c1.9-84.76 26.92-141.85 63.84-196.57 18.47-27.37 39.92-54.14 62.96-83.5 23.04-29.37 47.67-61.3 72.46-98.96l-.84-.55zm-199.42 379.56c-.47 21.28 4.62 34.19 14.12 40.66 9.48 6.46 23.16 6.37 39.52 2.12 16.38-4.25 35.59-12.71 56.24-23.19 20.66-10.48 42.79-22.99 65.01-35.37 22.24-12.37 44.57-24.61 65.65-34.56 21.08-9.95 40.88-17.58 58.05-20.77 17.18-3.19 31.63-1.9 42.1 5.86 10.48 7.76 17.12 22.1 18.44 45.33l1-.06c-1.33-23.37-8.03-38.06-18.84-46.07-10.8-8-25.6-9.25-42.88-6.04-17.3 3.2-37.2 10.89-58.3 20.85-21.11 9.96-43.47 22.21-65.7 34.59-22.24 12.38-44.35 24.88-64.98 35.35-20.64 10.47-39.77 18.89-56.04 23.11-16.3 4.23-29.6 4.22-38.7-1.97-9.08-6.19-14.16-18.66-13.69-39.82l-1-.02zm359.13-19.92c1.94 34.03 1.68 97.55 6.88 158.78 2.6 30.63 6.58 60.73 12.9 86.35 6.3 25.6 14.96 46.8 26.98 59.56l.72-.69c-11.83-12.56-20.44-33.55-26.73-59.11-6.3-25.55-10.27-55.59-12.87-86.2-5.2-61.24-4.93-124.59-6.88-158.75l-1 .06zm46.76 304.69c19.06 20.24 41.28 25.6 65.41 23.09 24.1-2.5 50.15-12.85 76.9-24.02 26.8-11.18 54.33-23.19 81.48-29.11 27.14-5.92 53.86-5.74 79.04 7.41l.46-.88c-25.46-13.3-52.44-13.46-79.71-7.51-27.27 5.95-54.89 18-81.65 29.17-26.78 11.18-52.69 21.46-76.62 23.95-23.9 2.48-45.78-2.82-64.59-22.79l-.72.69zm302.83-22.63c14.93 7.8 20.45 24.61 21.18 45.96.73 21.33-3.34 46.98-7.4 72.21-4.06 25.2-8.11 49.98-7.3 69.45.4 9.74 2.03 18.21 5.52 24.76 3.49 6.56 8.85 11.18 16.66 13.21l.26-.97c-7.53-1.95-12.67-6.38-16.04-12.71-3.39-6.36-5-14.66-5.4-24.33-.8-19.35 3.22-44.02 7.29-69.25 4.06-25.2 8.14-50.96 7.41-72.41-.73-21.42-6.28-38.74-21.72-46.8l-.46.88zm28.66 225.59c15.23 3.96 36.27 4.53 61.7 2.49 25.43-2.05 55.29-6.73 88.18-13.31 65.77-13.15 143.7-33.92 222.58-56.5 78.89-22.58 158.77-46.98 228.43-67.39 69.68-20.41 129.14-36.84 167.24-43.49l-.18-.98c-38.16 6.66-97.67 23.1-167.34 43.51-69.68 20.42-149.54 44.81-228.42 67.39s-156.77 43.34-222.5 56.48c-32.88 6.58-62.7 11.25-88.08 13.29-25.39 2.04-46.3 1.46-61.35-2.46l-.26.97zM223.65-302.15c74.35-51.15 173.2-45.03 234.46-2.62 30.62 21.2 51.82 51.44 55.92 88.1 4.1 36.67-8.88 79.84-46.84 126.92l.77.63c38.08-47.22 51.2-90.66 47.07-127.66-4.14-37-25.55-67.48-56.36-88.81-61.59-42.64-160.88-48.78-235.59 2.62l.57.82zm243.54 212.4c-5.49 6.8-17.06 16.42-33.27 28.34-16.2 11.9-36.98 26.07-60.86 41.99-47.74 31.82-107.82 70.6-168.2 112.12-60.38 41.52-121.07 85.8-170.03 128.6-48.94 42.8-86.23 84.2-99.72 119.97l.94.35c13.39-35.52 50.5-76.77 99.44-119.56 48.91-42.77 109.56-87.02 169.93-128.53C265.8 52 325.86 13.24 373.62-18.6c23.87-15.92 44.68-30.1 60.9-42.02 16.2-11.9 27.87-21.6 33.44-28.51l-.77-.63zM-64.9 341.27c-6.73 17.84-7.3 29.97-3.1 37.7 4.23 7.78 13.14 10.93 24.8 11.15 11.69.22 26.29-2.49 42.13-6.61 15.86-4.12 33-9.67 49.77-15.15 16.77-5.49 33.18-10.9 47.58-14.77 14.42-3.87 26.76-6.16 35.44-5.45 4.33.35 7.69 1.45 9.93 3.42 2.22 1.95 3.42 4.8 3.34 8.83-.07 4.05-1.45 9.25-4.37 15.81-2.92 6.56-7.37 14.44-13.55 23.84l.83.55c6.2-9.42 10.68-17.36 13.63-23.98 2.95-6.62 4.38-11.96 4.46-16.2.09-4.26-1.19-7.42-3.68-9.6-2.48-2.17-6.07-3.3-10.51-3.67-8.87-.73-21.36 1.62-35.78 5.49-14.43 3.87-30.87 9.3-47.63 14.77-16.78 5.49-33.9 11.03-49.71 15.14-15.83 4.12-30.32 6.8-41.85 6.58-11.56-.22-19.99-3.33-23.94-10.62-3.98-7.33-3.56-19.08 3.15-36.88l-.94-.35zm191.97 58.77c-49.52 75.23-116.96 126.3-172.62 179.9-55.63 53.58-99.44 109.65-101.35 194.73l1 .02c1.9-84.68 45.47-140.5 101.05-194.02C10.7 527.17 78.3 475.95 127.9 400.59l-.83-.55zM-146.9 774.67c-.48 21.32 5.17 36.77 15.49 47.79 10.31 11.01 25.24 17.55 43.2 21.18 35.92 7.24 84.25 2.9 132.9-.91 48.72-3.82 97.78-7.1 135.32 2.2 18.76 4.63 34.6 12.4 46.08 24.78 11.48 12.36 18.64 29.38 19.96 52.58l1-.05c-1.33-23.4-8.56-40.64-20.23-53.21-11.65-12.57-27.7-20.4-46.57-25.08-37.73-9.33-86.96-6.03-135.63-2.22-48.73 3.82-96.88 8.14-132.63.93-17.86-3.6-32.56-10.08-42.67-20.88-10.1-10.8-15.7-25.96-15.22-47.09l-1-.02zM246.06 922.3c.97 16.96-3.63 38.15-10.37 61.24-6.74 23.1-15.57 47.96-23.06 72.39-7.49 24.38-13.62 48.26-14.88 69.22-1.26 20.96 2.33 39.1 14.39 51.91l.73-.68c-11.8-12.52-15.38-30.33-14.12-51.17 1.25-20.84 7.35-44.62 14.83-68.99 7.47-24.33 16.34-49.32 23.07-72.4 6.74-23.1 11.39-44.43 10.41-61.57l-1 .05zm-33.92 254.76c19.06 20.25 45.47 27.17 75.85 27.05 30.37-.12 64.78-7.28 99.94-15.29 35.17-8.02 71.1-16.88 104.56-20.44 33.46-3.55 64.38-1.79 89.57 11.37l.47-.89c-25.45-13.3-56.61-15.03-90.15-11.47-33.54 3.56-69.53 12.44-104.68 20.45-35.16 8.01-69.47 15.15-99.71 15.27-30.24.12-56.32-6.77-75.12-26.73l-.73.68zm369.92 2.69c14.94 7.8 19.9 22.63 19.79 40.94-.11 18.33-5.3 39.98-10.48 61.22-5.17 21.2-10.35 42-10.38 58.49-.02 8.26 1.25 15.49 4.5 21.17 3.26 5.71 8.5 9.81 16.28 11.84l.25-.97c-7.55-1.96-12.54-5.91-15.66-11.36-3.13-5.47-4.39-12.51-4.37-20.67.03-16.35 5.17-37.01 10.35-58.26 5.18-21.21 10.4-42.99 10.5-61.45.12-18.47-4.89-33.78-20.31-41.84l-.47.89zm19.71 193.66c60.68 15.76 139.9 11.79 222.98.57 83.08-11.21 170.1-29.7 246.33-43.01l-.17-.98c-76.28 13.32-163.23 31.79-246.29 43-83.06 11.22-162.12 15.16-222.6-.55l-.25.97zM206.3-294.25c74.35-51.15 173.2-45.03 234.46-2.62 30.62 21.2 51.82 51.44 55.92 88.1 4.1 36.67-8.88 79.84-46.84 126.92l.78.63c38.07-47.22 51.2-90.66 47.06-127.66-4.14-37-25.55-67.48-56.36-88.81-61.59-42.64-160.88-48.78-235.59 2.62l.57.82zm243.54 212.4c-5.49 6.8-17.06 16.42-33.27 28.34-16.2 11.9-36.98 26.07-60.86 41.99-47.74 31.82-107.82 70.6-168.2 112.12-60.38 41.52-121.07 85.8-170.03 128.6-48.94 42.8-86.23 84.2-99.72 119.97l.94.35c13.39-35.52 50.5-76.77 99.44-119.56 48.91-42.77 109.56-87.02 169.93-128.53C248.43 59.9 308.5 21.14 356.26-10.7c23.87-15.92 44.68-30.1 60.9-42.02 16.2-11.9 27.87-21.6 33.44-28.51l-.77-.63zM-82.25 349.17c-6.73 17.84-7.3 30.03-3.13 37.88 4.2 7.89 13.08 11.2 24.71 11.62 11.65.42 26.2-2.06 42-5.93 15.82-3.88 32.91-9.17 49.64-14.39 16.73-5.22 33.08-10.37 47.44-14 14.37-3.62 26.67-5.68 35.32-4.78 4.31.45 7.65 1.64 9.88 3.69 2.22 2.02 3.4 4.95 3.32 9.04-.09 4.1-1.48 9.35-4.4 15.95-2.92 6.58-7.37 14.48-13.56 23.88l.84.55c6.2-9.42 10.68-17.37 13.63-24.03 2.95-6.65 4.4-12.04 4.49-16.33.1-4.3-1.17-7.54-3.64-9.8-2.46-2.25-6.04-3.48-10.46-3.94-8.83-.93-21.29 1.18-35.66 4.8-14.4 3.64-30.78 8.8-47.5 14.02-16.73 5.22-33.8 10.5-49.57 14.37-15.78 3.87-30.23 6.32-41.73 5.9-11.52-.4-19.92-3.68-23.86-11.09-3.97-7.45-3.53-19.26 3.18-37.06l-.94-.35zm191.22 62.96C59.45 487.37-7.06 538.5-61.78 592.17c-54.7 53.64-97.58 109.76-99.49 194.84l1 .02c1.9-84.68 44.55-140.57 99.19-194.15C-6.47 539.32 60.2 488.04 109.8 412.68l-.84-.55zm-270.24 374.88c-.48 21.32 5.14 36.63 15.42 47.43 10.27 10.79 25.13 17 43.02 20.23 35.76 6.46 83.88 1.06 132.32-3.8 48.5-4.86 97.35-9.18 134.73-.68 18.68 4.25 34.45 11.7 45.88 23.84s18.57 29.02 19.9 52.23l.99-.06c-1.34-23.4-8.54-40.52-20.16-52.86-11.6-12.33-27.59-19.85-46.38-24.12-37.58-8.55-86.6-4.2-135.06.66-48.51 4.87-96.45 10.23-132.04 3.8-17.78-3.2-32.41-9.36-42.48-19.93-10.05-10.56-15.61-25.6-15.14-46.72l-1-.02zM230 926.26c.97 16.95-3.38 38.3-9.74 61.63-3.18 11.65-6.85 23.79-10.6 36.1-3.76 12.31-7.6 24.8-11.08 37.15-6.98 24.69-12.6 48.88-13.49 70.08-.88 21.19 2.96 39.48 15.02 52.29l.73-.69c-11.8-12.52-15.63-30.48-14.75-51.56.88-21.07 6.47-45.17 13.45-69.85 3.49-12.34 7.32-24.82 11.07-37.13 3.75-12.31 7.43-24.46 10.61-36.13 6.36-23.33 10.76-44.82 9.78-61.95l-1 .05zM200.1 1183.5c19.07 20.25 45.27 27.09 75.33 26.85 30.05-.24 64.05-7.56 98.78-15.73 34.76-8.17 70.26-17.19 103.41-20.87 33.15-3.67 63.86-1.99 89.05 11.17l.47-.89c-25.46-13.3-56.4-14.95-89.63-11.27-33.22 3.68-68.8 12.72-103.52 20.89-34.75 8.17-68.64 15.46-98.57 15.7-29.92.24-55.8-6.57-74.59-26.54l-.73.69zm366.57 1.42c14.94 7.8 19.92 22.73 19.86 41.2-.07 18.47-5.2 40.32-10.33 61.76-5.12 21.4-10.24 42.4-10.23 59.04 0 8.33 1.3 15.62 4.56 21.35 3.27 5.75 8.5 9.88 16.3 11.9l.25-.96c-7.55-1.97-12.55-5.94-15.68-11.43-3.14-5.52-4.42-12.61-4.43-20.86 0-16.49 5.08-37.36 10.2-58.8 5.13-21.41 10.29-43.39 10.36-62 .06-18.62-4.97-34.03-20.4-42.09l-.46.89zm20.16 195.25c60.68 15.77 143.65 10.1 230.46-2.81 86.8-12.92 177.58-33.1 253.79-46.41l-.17-.98c-76.3 13.32-166.97 33.48-253.77 46.4-86.8 12.91-169.6 18.54-230.06 2.84l-.25.96zM188.93-286.35c74.35-51.15 173.19-45.03 234.45-2.62 30.62 21.2 51.83 51.44 55.93 88.1 4.1 36.66-8.89 79.84-46.85 126.92l.78.63c38.08-47.22 51.2-90.66 47.07-127.66-4.14-37-25.55-67.48-56.36-88.81-61.59-42.64-160.88-48.78-235.59 2.62l.57.82zm243.53 212.4c-5.48 6.8-17.05 16.42-33.26 28.33-16.2 11.91-36.98 26.08-60.86 42-47.74 31.82-107.83 70.6-168.2 112.12C109.76 150.02 49.07 194.3.1 237.1c-48.94 42.8-86.23 84.19-99.72 119.97l.94.35c13.39-35.52 50.5-76.77 99.44-119.56 48.91-42.78 109.56-87.02 169.93-128.54C231.07 67.81 291.14 29.04 338.9-2.79c23.87-15.92 44.67-30.1 60.9-42.02 16.2-11.9 27.87-21.6 33.44-28.51l-.78-.63zM-99.6 357.06c-6.73 17.86-7.31 30.1-3.16 38.06 4.17 8 13.02 11.5 24.62 12.1 11.6.62 26.13-1.63 41.88-5.26 15.77-3.63 32.82-8.65 49.5-13.61 16.68-4.96 32.99-9.85 47.3-13.23 14.33-3.37 26.59-5.21 35.2-4.11 4.29.55 7.61 1.82 9.83 3.94 2.21 2.1 3.4 5.11 3.3 9.26-.1 4.16-1.5 9.46-4.43 16.08-2.93 6.62-7.38 14.53-13.57 23.93l.84.55c6.2-9.42 10.69-17.39 13.64-24.08 2.96-6.68 4.4-12.1 4.51-16.46.1-4.36-1.14-7.66-3.6-10-2.43-2.33-6-3.65-10.4-4.22-8.8-1.12-21.22.76-35.55 4.14-14.34 3.38-30.69 8.28-47.36 13.24-16.68 4.96-33.7 9.98-49.43 13.6-15.74 3.63-30.14 5.85-41.61 5.24-11.48-.6-19.86-4.04-23.79-11.57-3.94-7.56-3.5-19.45 3.22-37.24l-.94-.36zm190.47 67.16c-49.52 75.24-115.1 126.44-168.9 180.16-53.76 53.7-95.7 109.9-97.61 194.97l1 .02c1.9-84.69 43.62-140.64 97.33-194.28C-23.64 551.47 42.1 500.12 91.7 424.77l-.84-.55zm-266.51 375.13c-.48 21.31 5.11 36.5 15.35 47.07 10.23 10.56 25.03 16.44 42.84 19.28 35.6 5.67 83.5-.77 131.74-6.68 48.3-5.9 96.92-11.28 134.15-3.56 18.6 3.86 34.3 10.98 45.68 22.9 11.38 11.9 18.49 28.64 19.8 51.86l1-.06c-1.33-23.4-8.5-40.38-20.08-52.5-11.57-12.1-27.48-19.3-46.2-23.18-37.42-7.76-86.23-2.35-134.47 3.55-48.3 5.91-96.04 12.33-131.46 6.68-17.7-2.82-32.27-8.64-42.28-18.99-10-10.32-15.54-25.23-15.07-46.35l-1-.02zm389.57 130.87c.97 16.96-3.13 38.47-9.11 62.02a1450.04 1450.04 0 01-9.96 36.51c-3.52 12.45-7.1 25.1-10.34 37.61-6.47 25-11.6 49.5-12.1 70.93-.5 21.43 3.6 39.87 15.65 52.68l.73-.69c-11.8-12.52-15.88-30.65-15.38-51.96.5-21.31 5.6-45.72 12.07-70.71 3.23-12.5 6.81-25.13 10.33-37.59 3.51-12.46 6.97-24.74 9.97-36.53 5.98-23.56 10.12-45.2 9.14-62.33l-1 .06zm-25.86 259.75c19.07 20.24 45.06 27.01 74.81 26.65 29.74-.36 63.32-7.84 97.63-16.17 34.34-8.33 69.42-17.5 102.26-21.3 32.83-3.79 63.33-2.19 88.52 10.97l.46-.89c-25.45-13.29-56.19-14.87-89.1-11.07-32.9 3.8-68.07 13-102.37 21.32-34.33 8.33-67.8 15.78-97.41 16.14-29.6.36-55.27-6.37-74.07-26.34l-.73.69zm363.22.15c14.94 7.8 19.95 22.83 19.92 41.45-.02 18.62-5.1 40.68-10.17 62.31-5.06 21.6-10.13 42.8-10.07 59.59.03 8.4 1.33 15.76 4.6 21.53 3.29 5.79 8.53 9.95 16.32 11.97l.25-.97c-7.54-1.96-12.55-5.95-15.7-11.49-3.15-5.56-4.44-12.72-4.47-21.04-.06-16.65 4.97-37.71 10.05-59.36 5.06-21.6 10.17-43.78 10.2-62.54.02-18.77-5.04-34.28-20.47-42.34l-.46.89zm20.6 196.85c60.69 15.77 147.4 8.4 237.94-6.21 45.28-7.31 91.54-16.43 136-25.39 44.47-8.96 87.14-17.75 125.26-24.41l-.18-.98c-38.13 6.66-80.82 15.45-125.28 24.41-44.46 8.96-90.7 18.08-135.96 25.38-90.54 14.61-177.06 21.94-237.53 6.23l-.25.97zM171.57-278.45c74.35-51.15 173.2-45.03 234.45-2.62 30.63 21.2 51.83 51.44 55.93 88.1 4.1 36.66-8.88 79.84-46.84 126.92l.77.63c38.08-47.22 51.2-90.66 47.07-127.66-4.14-37-25.55-67.48-56.36-88.81C345-324.53 245.71-330.67 171-279.27l.57.82zM415.1-66.05c-5.49 6.8-17.06 16.42-33.27 28.33-16.2 11.91-36.98 26.08-60.86 42-47.74 31.82-107.83 70.6-168.2 112.12C92.4 157.92 31.7 202.2-17.25 245c-48.94 42.8-86.23 84.19-99.72 119.96l.94.36c13.39-35.52 50.5-76.77 99.44-119.56 48.91-42.78 109.56-87.02 169.93-128.53C213.71 75.7 273.78 36.93 321.54 5.1c23.87-15.92 44.67-30.1 60.9-42.02 16.2-11.9 27.87-21.6 33.44-28.51l-.77-.63zm-532.08 431.01c-6.73 17.86-7.33 30.17-3.2 38.24 4.15 8.11 12.96 11.77 24.53 12.58 11.58.82 26.06-1.2 41.77-4.59 15.72-3.38 32.73-8.15 49.36-12.84 16.63-4.7 32.9-9.33 47.16-12.46 14.29-3.13 26.5-4.74 35.07-3.45 4.28.65 7.59 2 9.8 4.2 2.2 2.2 3.37 5.27 3.26 9.48-.11 4.22-1.51 9.56-4.45 16.21-2.93 6.65-7.39 14.59-13.57 23.98l.83.55c6.2-9.42 10.7-17.4 13.66-24.12 2.96-6.72 4.41-12.2 4.53-16.6.11-4.42-1.12-7.78-3.55-10.2-2.42-2.4-5.97-3.83-10.36-4.49-8.77-1.32-21.14.33-35.43 3.46-14.3 3.14-30.6 7.78-47.23 12.47-16.63 4.7-33.6 9.45-49.29 12.83-15.7 3.38-30.06 5.38-41.49 4.57-11.44-.8-19.8-4.4-23.7-12.03-3.93-7.68-3.47-19.64 3.24-37.43l-.94-.36zm189.73 71.35C23.23 511.55-41.41 562.81-94.28 616.6c-52.84 53.77-93.84 110.01-95.75 195.08l1 .03c1.9-84.7 42.7-140.71 95.47-194.4 52.75-53.69 117.55-105.1 167.15-180.45l-.83-.55zm-262.79 375.37c-.48 21.32 5.09 36.38 15.28 46.72 10.19 10.33 24.92 15.88 42.66 18.33 35.44 4.88 83.13-2.6 131.16-9.56 48.08-6.96 96.5-13.37 133.56-6.44 18.52 3.47 34.15 10.26 45.48 21.94 11.33 11.68 18.42 28.3 19.74 51.5l1-.05c-1.34-23.4-8.49-40.26-20.02-52.14-11.52-11.88-27.38-18.74-46.02-22.23-37.25-6.97-85.85-.52-133.89 6.43-48.1 6.96-95.61 14.42-130.88 9.56-17.62-2.43-32.11-7.93-42.08-18.04-9.95-10.1-15.46-24.87-14.99-46l-1-.02zm387.88 122.5c.97 16.96-2.88 38.63-8.49 62.42-2.8 11.89-6.03 24.3-9.31 36.91-3.28 12.6-6.6 25.4-9.6 38.06-5.97 25.33-10.58 50.14-10.7 71.8-.13 21.66 4.22 40.25 16.28 53.05l.73-.68c-11.8-12.53-16.14-30.81-16.01-52.37.12-21.54 4.71-46.26 10.68-71.57 2.98-12.65 6.3-25.43 9.59-38.04 3.28-12.6 6.51-25.02 9.32-36.93 5.6-23.8 9.48-45.59 8.5-62.71l-1 .05zm-21.82 262.24c19.06 20.25 44.84 26.94 74.28 26.46 29.43-.48 62.59-8.12 96.48-16.6 33.92-8.49 68.58-17.83 101.1-21.74 32.52-3.91 62.8-2.39 88 10.77l.46-.89c-25.45-13.29-55.98-14.79-88.58-10.87s-67.33 13.27-101.22 21.76c-33.9 8.48-66.96 16.09-96.25 16.57-29.29.48-54.75-6.18-73.54-26.14l-.73.68zm359.86-1.11c14.94 7.8 19.98 22.93 20 41.7 0 18.77-5 41.03-10.02 62.87-5.01 21.8-10.02 43.19-9.92 60.13.04 8.48 1.37 15.9 4.65 21.71 3.3 5.83 8.55 10.01 16.34 12.04l.25-.97c-7.55-1.96-12.56-5.98-15.72-11.56-3.16-5.61-4.48-12.83-4.52-21.22-.1-16.8 4.87-38.06 9.9-59.91 5-21.81 10.05-44.18 10.03-63.09-.01-18.92-5.1-34.53-20.53-42.59l-.46.89zm21.05 198.45c60.7 15.77 151.15 6.7 245.41-9.61 47.15-8.15 95.27-18.13 141.14-27.72 45.86-9.6 89.47-18.81 127.58-25.47l-.17-.98c-38.14 6.65-81.76 15.88-127.62 25.47-45.86 9.6-93.97 19.56-141.1 27.72-94.28 16.3-184.53 25.33-244.99 9.62l-.25.97zM154.21-270.54c74.35-51.16 173.19-45.04 234.45-2.63 30.62 21.2 51.83 51.44 55.93 88.1 4.1 36.66-8.89 79.84-46.84 126.92l.77.63c38.08-47.23 51.2-90.66 47.07-127.66-4.14-37-25.55-67.49-56.36-88.81-61.59-42.64-160.88-48.78-235.59 2.62l.57.82zM397.74-58.16c-5.48 6.8-17.05 16.42-33.26 28.33-16.2 11.9-36.98 26.08-60.86 42C255.88 44 195.8 82.77 135.42 124.3 75.04 165.82 14.35 210.1-34.61 252.9c-48.94 42.8-86.23 84.19-99.72 119.96l.94.36c13.39-35.52 50.5-76.78 99.44-119.57 48.91-42.77 109.56-87.01 169.93-128.53 60.37-41.51 120.44-80.28 168.2-112.11 23.87-15.92 44.67-30.1 60.9-42.02 16.2-11.91 27.87-21.6 33.44-28.51l-.77-.63zm-532.07 431.01c-6.73 17.86-7.34 30.23-3.23 38.42 4.13 8.22 12.9 12.04 24.44 13.06 11.54 1 25.98-.78 41.65-3.92 15.68-3.14 32.63-7.64 49.22-12.08 16.59-4.43 32.8-8.8 47.03-11.68 14.24-2.9 26.4-4.27 34.94-2.79 4.26.75 7.55 2.2 9.75 4.47 2.2 2.27 3.35 5.42 3.23 9.69-.24 8.58-5.66 21.55-18.05 40.37l.83.55c12.4-18.82 17.97-32 18.22-40.9.13-4.47-1.1-7.9-3.5-10.4-2.4-2.49-5.93-4-10.3-4.76-8.74-1.52-21.08-.1-35.32 2.79-14.26 2.89-30.51 7.26-47.1 11.7-16.58 4.43-33.5 8.92-49.15 12.06-15.65 3.13-29.97 4.9-41.37 3.9-11.4-1-19.73-4.75-23.63-12.51-3.9-7.8-3.43-19.82 3.27-37.61l-.93-.36zM54.65 448.4C5.12 523.65-58.6 574.97-110.52 628.82c-51.92 53.83-91.98 110.13-93.89 195.2l1 .02c1.9-84.7 41.76-140.77 93.6-194.53C-57.97 575.77 5.9 524.3 55.5 448.95l-.84-.55zm-259.06 375.62c-.48 21.31 5.06 36.25 15.21 46.36 10.14 10.1 24.82 15.33 42.47 17.38 35.29 4.1 82.77-4.45 130.58-12.44 47.87-8 96.08-15.47 132.98-9.32 18.44 3.08 34 9.54 45.29 21 11.28 11.44 18.33 27.92 19.66 51.13l1-.05c-1.34-23.4-8.46-40.13-19.95-51.79-11.48-11.65-27.27-18.18-45.83-21.27-37.1-6.19-85.5 1.31-133.31 9.31-47.89 8-95.2 16.51-130.3 12.43-17.55-2.03-31.97-7.2-41.88-17.09-9.9-9.87-15.4-24.5-14.92-45.63l-1-.02zm386.19 114.11c.97 16.98-2.63 38.8-7.86 62.83-2.61 12.01-5.62 24.56-8.67 37.31-3.04 12.75-6.12 25.7-8.85 38.52-5.47 25.64-9.57 50.76-9.32 72.65.25 21.89 4.86 40.64 16.91 53.44l.73-.69c-11.8-12.53-16.39-30.97-16.64-52.76-.25-21.78 3.83-46.81 9.3-72.43 2.73-12.81 5.8-25.75 8.84-38.5 3.05-12.75 6.06-25.31 8.68-37.33 5.22-24.02 8.85-45.97 7.88-63.1l-1 .06zm-17.79 264.75c19.06 20.25 44.64 26.86 73.76 26.26 29.12-.6 61.86-8.4 95.33-17.04 33.5-8.65 67.75-18.14 99.95-22.17 32.2-4.03 62.28-2.59 87.47 10.57l.46-.89c-25.45-13.29-55.78-14.71-88.06-10.67-32.28 4.04-66.6 13.55-100.07 22.19-33.49 8.65-66.12 16.41-95.1 17.01-28.97.59-54.21-5.98-73.01-25.95l-.73.69zm356.5-2.38c14.94 7.8 20.01 23.03 20.07 41.95.06 18.92-4.9 41.38-9.86 63.42-4.95 22-9.9 43.59-9.77 60.68.07 8.55 1.41 16.03 4.71 21.89 3.3 5.87 8.56 10.08 16.36 12.11l.25-.97c-7.55-1.96-12.57-6-15.74-11.63-3.18-5.65-4.51-12.94-4.58-21.41-.14-16.95 4.78-38.41 9.74-60.45 4.96-22.01 9.95-44.58 9.9-63.64-.07-19.07-5.18-34.78-20.61-42.84l-.46.89zm21.5 200.05c30.37 7.88 69.1 9.13 112.46 6.16 43.38-2.97 91.42-10.16 140.43-19.17 49.02-9 99-19.82 146.27-30.05 47.27-10.23 91.8-19.88 129.92-26.53l-.17-.98c-38.14 6.65-82.7 16.3-129.96 26.53-47.27 10.23-97.24 21.05-146.24 30.05-49 9-97 16.18-140.32 19.15-43.32 2.97-81.92 1.72-112.13-6.13l-.25.97zM136.86-262.65c74.35-51.15 173.19-45.03 234.45-2.62 30.62 21.2 51.83 51.44 55.93 88.1 4.1 36.66-8.89 79.84-46.85 126.92l.78.63c38.08-47.23 51.2-90.66 47.07-127.66-4.15-37-25.55-67.49-56.36-88.81-61.59-42.64-160.88-48.78-235.59 2.62l.57.82zm243.53 212.4c-5.48 6.8-17.05 16.42-33.26 28.33-16.2 11.9-36.98 26.08-60.86 42-47.74 31.82-107.83 70.6-168.2 112.12C57.68 173.72-3.01 218-51.97 260.8c-48.94 42.8-86.23 84.19-99.72 119.96l.94.36c13.39-35.52 50.5-76.78 99.44-119.57 48.91-42.77 109.56-87.01 169.93-128.53C179 91.51 239.06 52.74 286.82 20.91c23.87-15.92 44.67-30.1 60.9-42.02 16.2-11.91 27.86-21.6 33.44-28.51l-.78-.63zm-532.07 431.01c-6.73 17.86-7.35 30.3-3.26 38.6 4.1 8.33 12.84 12.32 24.34 13.53 11.5 1.2 25.9-.35 41.53-3.25 15.64-2.89 32.55-7.13 49.09-11.3 16.54-4.17 32.7-8.28 46.89-10.92 14.2-2.64 26.32-3.8 34.82-2.11 4.24.84 7.52 2.37 9.71 4.73 2.18 2.35 3.33 5.57 3.2 9.9-.26 8.7-5.7 21.73-18.09 40.55l.84.55c12.39-18.82 17.98-32.06 18.25-41.07.13-4.53-1.07-8.03-3.47-10.6-2.38-2.58-5.89-4.18-10.25-5.04-8.7-1.72-21-.53-35.2 2.1-14.21 2.65-30.42 6.77-46.95 10.94-16.54 4.17-33.42 8.4-49.02 11.3-15.6 2.88-29.89 4.42-41.25 3.22-11.36-1.19-19.67-5.1-23.55-12.98-3.89-7.91-3.4-20 3.3-37.8l-.93-.35zM36.54 460.5c-49.53 75.25-112.31 126.63-163.31 180.54-50.98 53.9-90.1 110.26-92.02 195.33l1 .02c1.9-84.7 40.84-140.84 91.75-194.66 50.89-53.8 113.82-105.34 163.42-180.68l-.84-.55zm-255.33 375.87c-.48 21.3 5.03 36.12 15.14 46 10.1 9.88 24.72 14.77 42.29 16.42 35.12 3.32 82.4-6.27 130-15.32 47.66-9.05 95.65-17.56 132.4-12.19 18.35 2.69 33.85 8.83 45.08 20.05 11.23 11.21 18.26 27.56 19.59 50.77l1-.05c-1.34-23.4-8.44-40-19.88-51.43-11.44-11.42-27.17-17.62-45.65-20.33-36.94-5.4-85.12 3.16-132.73 12.2-47.67 9.06-94.77 18.6-129.72 15.31-17.46-1.65-31.81-6.5-41.68-16.14-9.85-9.64-15.31-24.14-14.84-45.27l-1-.02zm384.5 105.73c.97 16.98-2.39 38.97-7.23 63.23-4.84 24.21-11.18 50.77-16.14 76.69-4.96 25.95-8.56 51.38-7.93 73.51.63 22.12 5.5 41.02 17.54 53.82l.73-.69c-11.8-12.53-16.64-31.14-17.27-53.16-.63-22.02 2.96-47.36 7.91-73.29 4.97-25.96 11.28-52.37 16.14-76.68 4.85-24.27 8.22-46.36 7.25-63.48l-1 .05zm-13.76 267.25c19.07 20.24 44.43 26.77 73.24 26.06 28.8-.72 61.12-8.68 94.18-17.48 33.08-8.8 66.9-18.45 98.8-22.6 31.88-4.15 61.75-2.79 86.94 10.37l.46-.89c-25.46-13.29-55.57-14.63-87.54-10.47-31.97 4.15-65.87 13.83-98.92 22.62-33.07 8.81-65.28 16.73-93.94 17.45-28.65.71-53.69-5.78-72.49-25.75l-.73.69zm353.16-3.65c14.93 7.8 20.03 23.13 20.13 42.2.1 19.08-4.8 41.73-9.7 63.97-4.9 22.2-9.8 43.99-9.62 61.23.09 8.62 1.45 16.17 4.76 22.07 3.32 5.92 8.58 10.15 16.37 12.17l.25-.96c-7.54-1.96-12.57-6.03-15.75-11.7-3.2-5.7-4.54-13.05-4.63-21.59-.18-17.1 4.68-38.76 9.59-61.01 4.9-22.2 9.83-44.98 9.73-64.18-.1-19.22-5.24-35.03-20.67-43.09l-.46.89zm21.94 201.64c30.37 7.89 70.04 8.71 114.8 5.1 44.77-3.6 94.68-11.64 145.56-21.5 50.88-9.85 102.74-21.52 151.4-32.38 48.68-10.87 94.14-20.94 132.26-27.59l-.18-.99c-38.14 6.66-83.63 16.73-132.29 27.6-48.67 10.87-100.51 22.53-151.38 32.38-50.86 9.85-100.73 17.88-145.45 21.49-44.73 3.6-84.26 2.77-114.47-5.07l-.25.96zM119.5-254.75c74.35-51.16 173.19-45.03 234.45-2.62 30.62 21.2 51.83 51.44 55.93 88.1 4.1 36.66-8.89 79.84-46.85 126.92l.78.62c38.08-47.22 51.2-90.65 47.07-127.65-4.14-37-25.55-67.49-56.36-88.81-61.59-42.64-160.88-48.78-235.59 2.62l.57.82zm243.53 212.4c-5.48 6.8-17.05 16.41-33.26 28.33-16.2 11.9-36.98 26.08-60.86 42-47.74 31.81-107.83 70.6-168.2 112.12-60.38 41.52-121.07 85.79-170.03 128.6-48.94 42.8-86.23 84.19-99.72 119.96l.94.35c13.39-35.51 50.5-76.77 99.44-119.56 48.91-42.77 109.56-87.01 169.93-128.53C161.63 99.41 221.7 60.64 269.46 28.8c23.87-15.91 44.67-30.1 60.89-42.01 16.2-11.91 27.88-21.6 33.45-28.52l-.78-.62zm-532.07 431.01c-6.73 17.86-7.36 30.36-3.3 38.77 4.08 8.44 12.78 12.6 24.25 14.01 11.48 1.4 25.83.08 41.42-2.57 15.6-2.65 32.46-6.63 48.94-10.54 16.5-3.9 32.62-7.75 46.76-10.14 14.15-2.4 26.24-3.32 34.7-1.45 4.22.94 7.49 2.56 9.67 5 2.17 2.43 3.3 5.72 3.16 10.1-.28 8.82-5.73 21.92-18.12 40.74l.84.55c12.4-18.83 18-32.13 18.28-41.25.15-4.59-1.04-8.15-3.42-10.8-2.37-2.66-5.86-4.35-10.2-5.32-8.66-1.92-20.92-.96-35.08 1.44-14.17 2.4-30.33 6.25-46.82 10.16-16.5 3.91-33.32 7.88-48.88 10.52-15.56 2.65-29.8 3.96-41.12 2.57-11.33-1.4-19.62-5.46-23.48-13.46-3.87-8.03-3.37-20.19 3.33-37.98l-.93-.35zm187.48 83.92c-49.53 75.25-111.38 126.7-161.45 180.67-50.05 53.96-88.24 110.38-90.15 195.44l1 .03c1.9-84.7 39.9-140.91 89.88-194.79 49.96-53.86 111.97-105.46 161.56-180.8l-.84-.55zm-251.6 376.11c-.48 21.31 5 36 15.07 45.65 10.06 9.65 24.61 14.21 42.1 15.47 34.97 2.53 82.03-8.11 129.42-18.2 47.45-10.1 95.24-19.65 131.82-15.07 18.28 2.3 33.7 8.11 44.89 19.1 11.18 10.99 18.18 27.2 19.5 50.41l1-.05c-1.33-23.4-8.4-39.87-19.8-51.07-11.4-11.2-27.06-17.07-45.47-19.38-36.78-4.61-84.75 5-132.15 15.08-47.46 10.1-94.34 20.7-129.13 18.19-17.39-1.26-31.67-5.78-41.48-15.2-9.8-9.4-15.24-23.77-14.77-44.9l-1-.03zm382.8 97.36c.97 16.99-2.13 39.13-6.6 63.63-4.46 24.46-10.29 51.31-14.74 77.55-4.46 26.26-7.56 52-6.55 74.36 1.02 22.35 6.13 41.41 18.18 54.2l.72-.68c-11.8-12.54-16.89-31.3-17.9-53.56-1-22.25 2.08-47.91 6.53-74.15 4.46-26.26 10.28-53.01 14.75-77.54 4.47-24.5 7.6-46.75 6.61-63.86l-1 .05zm-9.71 269.74c19.06 20.25 44.21 26.7 72.71 25.86 28.5-.83 60.4-8.95 93.03-17.91 32.66-8.96 66.06-18.77 97.64-23.04 31.56-4.26 61.22-2.98 86.41 10.18l.47-.89c-25.46-13.29-55.36-14.56-87.02-10.28-31.65 4.28-65.14 14.11-97.76 23.07-32.66 8.96-64.45 17.04-92.8 17.87-28.33.84-53.16-5.58-71.96-25.54l-.72.68zm349.8-4.91c14.93 7.8 20.06 23.23 20.2 42.45.14 19.23-4.71 42.08-9.56 64.52-4.84 22.4-9.68 44.39-9.46 61.78.12 8.7 1.5 16.3 4.81 22.24 3.33 5.97 8.6 10.22 16.4 12.25l.25-.97c-7.54-1.96-12.58-6.05-15.77-11.76-3.2-5.74-4.58-13.15-4.69-21.77-.22-17.25 4.6-39.12 9.44-61.56 4.84-22.41 9.72-45.38 9.58-64.74-.15-19.35-5.31-35.27-20.74-43.33l-.47.89zm22.39 203.24c30.37 7.89 70.97 8.28 117.14 4.04 46.17-4.24 97.95-13.13 150.7-23.83 52.74-10.7 106.47-23.22 156.53-34.72 50.07-11.51 96.47-22 134.58-28.65l-.17-.99c-38.14 6.66-84.57 17.16-134.63 28.66-50.07 11.51-103.78 24.02-156.51 34.72-52.74 10.69-104.48 19.57-150.6 23.81-46.13 4.24-86.59 3.84-116.8-4.01l-.24.97zM102.13-246.85c74.35-51.16 173.19-45.03 234.45-2.62 30.62 21.2 51.83 51.44 55.93 88.1 4.1 36.66-8.89 79.84-46.85 126.92l.78.62c38.08-47.22 51.2-90.65 47.06-127.65-4.14-37-25.54-67.49-56.35-88.82-61.6-42.63-160.88-48.77-235.59 2.63l.57.82zm243.53 212.4c-5.48 6.8-17.05 16.41-33.26 28.33-16.2 11.9-36.98 26.08-60.86 42C203.8 67.68 143.71 106.47 83.34 148 22.96 189.52-37.73 233.79-86.7 276.6c-48.94 42.8-86.24 84.19-99.72 119.96l.93.35c13.4-35.52 50.5-76.77 99.44-119.56 48.92-42.77 109.57-87.02 169.94-128.53 60.37-41.51 120.44-80.28 168.2-112.12C275.97 20.8 296.77 6.6 312.99-5.3c16.2-11.91 27.88-21.6 33.45-28.52l-.78-.62zM-186.4 396.56c-6.74 17.86-7.37 30.42-3.33 38.94 4.05 8.56 12.72 12.89 24.16 14.5 11.44 1.6 25.75.5 41.3-1.9 15.54-2.4 32.36-6.12 48.8-9.77 16.45-3.65 32.53-7.23 46.62-9.38 14.1-2.15 26.15-2.85 34.58-.78 4.2 1.03 7.45 2.75 9.62 5.26 2.16 2.51 3.29 5.88 3.14 10.32-.3 8.94-5.77 22.1-18.15 40.92l.83.55c12.4-18.83 18-32.2 18.32-41.43.15-4.64-1.03-8.27-3.38-11-2.35-2.74-5.82-4.53-10.15-5.59-8.63-2.12-20.85-1.39-34.96.76-14.13 2.16-30.24 5.75-46.68 9.4-16.45 3.64-33.24 7.35-48.75 9.75-15.51 2.4-29.71 3.48-41 1.9-11.3-1.6-19.56-5.82-23.4-13.93-3.86-8.15-3.34-20.38 3.36-38.17l-.93-.35zM.33 484.67c-49.54 75.25-110.46 126.76-159.6 180.8-49.11 54.02-86.37 110.5-88.28 195.56l1 .02c1.9-84.7 38.98-140.97 88.03-194.9 49.02-53.93 110.1-105.6 159.68-180.93l-.83-.55zm-247.88 376.36c-.48 21.3 4.98 35.86 15 45.3 10.02 9.41 24.5 13.64 41.92 14.51 34.81 1.74 81.66-9.95 128.84-21.08C-14.56 888.6 33 878 69.44 881.8c18.2 1.9 33.56 7.4 44.7 18.15 11.12 10.76 18.1 26.84 19.42 50.05l1-.05c-1.33-23.4-8.37-39.74-19.73-50.72-11.36-10.97-26.96-16.5-45.28-18.42-36.63-3.83-84.39 6.82-131.57 17.96-47.25 11.15-93.93 22.8-128.56 21.06-17.3-.86-31.51-5.06-41.28-14.25-9.75-9.17-15.16-23.4-14.69-44.54l-1-.02zm381.12 88.98c.96 16.99-1.88 39.3-5.98 64.03-4.08 24.7-9.4 51.84-13.36 78.41-3.95 26.57-6.54 52.62-5.15 75.22 1.39 22.58 6.75 41.79 18.8 54.58l.73-.69c-11.8-12.54-17.15-31.46-18.54-53.95-1.38-22.49 1.2-48.46 5.15-75.02 3.95-26.56 9.27-53.63 13.36-78.39 4.09-24.73 6.96-47.13 5.98-64.24l-1 .05zm-5.7 272.24c19.07 20.24 44.01 26.62 72.2 25.66 28.18-.95 59.66-9.23 91.88-18.34 32.24-9.13 65.23-19.09 96.48-23.48 31.25-4.38 60.7-3.18 85.9 9.98l.46-.89c-25.46-13.29-55.15-14.48-86.5-10.08-31.34 4.4-64.4 14.39-96.61 23.5-32.24 9.12-63.6 17.36-91.64 18.31-28.02.95-52.63-5.38-71.43-25.35l-.73.69zm346.45-6.18c14.94 7.8 20.1 23.33 20.28 42.7.18 19.38-4.62 42.43-9.4 65.07-4.79 22.6-9.57 44.79-9.31 62.33.13 8.77 1.53 16.43 4.86 22.42 3.34 6.01 8.62 10.29 16.41 12.32l.25-.97c-7.54-1.96-12.58-6.07-15.79-11.84-3.22-5.78-4.6-13.25-4.73-21.95-.26-17.4 4.49-39.46 9.28-62.1 4.79-22.61 9.61-45.78 9.43-65.29-.19-19.5-5.39-35.52-20.81-43.58l-.47.89zm22.84 204.84c30.38 7.89 71.92 7.86 119.48 2.98 47.58-4.89 101.22-14.62 155.84-26.17 109.26-23.11 222.33-53.45 298.58-66.76l-.17-.99c-76.26 13.31-189.46 43.69-298.62 66.77-54.6 11.55-108.2 21.28-155.73 26.15-47.53 4.88-88.93 4.89-119.12-2.95l-.26.97zM84.76-238.95c74.36-51.16 173.2-45.04 234.46-2.62 30.62 21.2 51.83 51.44 55.93 88.1 4.1 36.66-8.89 79.84-46.85 126.92l.78.62c38.08-47.22 51.2-90.65 47.06-127.65-4.14-37-25.54-67.49-56.35-88.82-61.6-42.64-160.89-48.77-235.59 2.62l.57.83zM328.3-26.55c-5.48 6.8-17.05 16.41-33.26 28.33-16.2 11.9-36.99 26.08-60.86 42-47.74 31.81-107.83 70.6-168.2 112.12C5.6 197.42-55.1 241.69-104.06 284.5c-48.94 42.8-86.23 84.19-99.72 119.96l.93.35c13.4-35.52 50.5-76.77 99.45-119.56 48.91-42.77 109.56-87.01 169.93-128.53 60.37-41.51 120.44-80.28 168.2-112.12C258.6 28.7 279.4 14.5 295.63 2.6c16.2-11.91 27.87-21.6 33.45-28.52l-.78-.62zm-532.07 431.01c-6.74 17.86-7.38 30.48-3.37 39.12 4.03 8.67 12.67 13.17 24.07 14.97 11.4 1.8 25.68.93 41.18-1.23 15.5-2.15 32.28-5.6 48.67-9 16.4-3.38 32.43-6.7 46.48-8.6 14.06-1.9 26.07-2.38 34.45-.11 4.19 1.12 7.43 2.92 9.59 5.52 2.15 2.6 3.26 6.03 3.1 10.53-.32 9.05-5.8 22.29-18.18 41.1l.84.55c12.4-18.83 18.01-32.26 18.34-41.61.17-4.7-1-8.4-3.33-11.2-2.34-2.82-5.79-4.7-10.1-5.86-8.6-2.32-20.77-1.82-34.84.09-14.1 1.9-30.16 5.23-46.55 8.62-16.4 3.39-33.14 6.83-48.6 8.98-15.48 2.16-29.64 3-40.9 1.23-11.25-1.78-19.48-6.17-23.3-14.4-3.85-8.27-3.32-20.56 3.38-38.35l-.93-.35zm185.99 92.3c-49.54 75.26-109.53 126.82-157.73 180.93-48.19 54.08-84.5 110.63-86.42 195.68l1 .02c1.9-84.71 38.05-141.04 86.17-195.04 48.09-53.98 108.23-105.7 157.82-181.04l-.84-.55zm-244.15 376.6c-.48 21.31 4.95 35.74 14.94 44.94 9.97 9.2 24.4 13.1 41.73 13.57 34.65.95 81.29-11.79 128.25-23.97 47.03-12.2 94.4-23.84 130.66-20.82 18.11 1.51 33.4 6.68 44.49 17.2 11.08 10.53 18.03 26.48 19.35 49.7l1-.06c-1.33-23.4-8.35-39.61-19.66-50.36-11.31-10.74-26.85-15.95-45.1-17.47-36.47-3.04-84.01 8.66-130.99 20.84-47.04 12.2-93.5 24.89-127.97 23.94-17.23-.47-31.37-4.35-41.09-13.3-9.7-8.95-15.08-23.05-14.6-44.18l-1-.02zm379.42 80.61c.97 17-1.63 39.45-5.34 64.42-3.7 24.95-8.53 52.4-11.98 79.28-3.44 26.88-5.53 53.25-3.76 76.07 1.77 22.82 7.39 42.18 19.43 54.96l.73-.68c-11.8-12.54-17.4-31.62-19.16-54.36-1.76-22.72.31-49 3.76-75.87 3.44-26.87 8.26-54.26 11.97-79.25 3.71-24.96 6.33-47.52 5.35-64.62l-1 .05zm-1.65 274.73c19.06 20.25 43.8 26.55 71.68 25.47 27.86-1.07 58.92-9.51 90.72-18.78 31.82-9.28 64.38-19.4 95.33-23.91 30.93-4.5 60.17-3.37 85.36 9.78l.46-.88c-25.45-13.3-54.94-14.41-85.97-9.89s-63.67 14.67-95.46 23.94c-31.81 9.28-62.76 17.67-90.48 18.74-27.7 1.07-52.11-5.18-70.91-25.15l-.73.68zm343.09-7.44c14.93 7.8 20.12 23.43 20.34 42.95.23 19.53-4.5 42.79-9.24 65.62-4.73 22.8-9.46 45.19-9.15 62.88.15 8.84 1.56 16.57 4.9 22.6 3.36 6.05 8.64 10.36 16.44 12.38l.25-.96c-7.54-1.96-12.6-6.1-15.81-11.91-3.23-5.82-4.63-13.36-4.78-22.13-.3-17.55 4.39-39.81 9.13-62.66 4.72-22.8 9.5-46.17 9.26-65.83-.22-19.65-5.45-35.76-20.88-43.82l-.46.88zm23.29 206.43c30.38 7.9 72.86 7.44 121.82 1.92 48.97-5.52 104.49-16.1 160.97-28.5 113-24.8 229.8-56.84 306.05-70.15l-.18-.99c-76.26 13.31-193.19 45.38-306.09 70.16-56.47 12.4-111.94 22.98-160.86 28.49-48.94 5.51-91.26 5.95-121.46-1.89l-.25.96zM67.41-231.05c74.35-51.16 173.19-45.04 234.45-2.63 30.62 21.2 51.83 51.44 55.93 88.1 4.1 36.67-8.89 79.85-46.85 126.92l.78.63c38.07-47.22 51.2-90.65 47.06-127.66-4.14-37-25.54-67.48-56.35-88.8-61.6-42.65-160.89-48.79-235.59 2.61l.57.83zm243.53 212.4c-5.48 6.8-17.05 16.41-33.26 28.33-16.2 11.9-36.99 26.08-60.86 41.99C169.08 83.49 109 122.27 48.62 163.8c-60.38 41.52-121.07 85.79-170.03 128.6-48.94 42.79-86.24 84.18-99.72 119.96l.93.35c13.4-35.52 50.5-76.77 99.44-119.56 48.92-42.77 109.57-87.02 169.94-128.53 60.37-41.52 120.44-80.28 168.2-112.12 23.87-15.91 44.67-30.1 60.89-42.02 16.2-11.9 27.87-21.59 33.45-28.5l-.78-.64zm-532.07 431.01c-6.74 17.86-7.39 30.55-3.4 39.3 4 8.78 12.6 13.44 23.98 15.44 11.37 2 25.6 1.36 41.06-.55 15.46-1.91 32.18-5.1 48.53-8.23 16.36-3.12 32.34-6.18 46.34-7.84 14.02-1.66 25.98-1.9 34.33.56 4.17 1.22 7.4 3.1 9.54 5.79 2.14 2.67 3.25 6.18 3.08 10.74-.34 9.17-5.83 22.47-18.22 41.28l.84.55c12.4-18.83 18.03-32.33 18.38-41.8.18-4.74-.98-8.5-3.3-11.4-2.31-2.89-5.74-4.86-10.04-6.12-8.56-2.52-20.7-2.25-34.73-.59-14.04 1.66-30.06 4.73-46.4 7.85-16.36 3.13-33.05 6.31-48.48 8.22-15.42 1.9-29.54 2.53-40.76.56-11.22-1.98-19.43-6.53-23.24-14.88-3.82-8.38-3.28-20.74 3.42-38.53l-.93-.35zm185.24 96.5c-49.54 75.25-108.6 126.87-155.87 181.04-47.25 54.15-82.64 110.76-84.55 195.8l1 .03c1.9-84.72 37.13-141.11 84.3-195.17 47.16-54.04 106.37-105.83 155.96-181.16l-.84-.55zM-276.3 885.7c-.48 21.31 4.92 35.6 14.87 44.58 9.93 8.97 24.3 12.54 41.55 12.62 34.49.16 80.91-13.63 127.67-26.85 46.81-13.25 93.96-25.93 130.07-23.7 18.04 1.12 33.26 5.96 44.3 16.26 11.02 10.3 17.95 26.1 19.27 49.32l1-.05c-1.33-23.4-8.32-39.48-19.6-50-11.26-10.52-26.74-15.4-44.9-16.52-36.32-2.25-83.65 10.5-130.42 23.73-46.82 13.24-93.07 26.97-127.39 26.8-17.15-.07-31.22-3.62-40.88-12.35-9.66-8.71-15.01-22.68-14.54-43.81l-1-.03zm377.73 72.23c.97 17-1.38 39.62-4.7 64.82-3.34 25.18-7.66 52.94-10.6 80.13-2.95 27.2-4.52 53.88-2.38 76.93 2.15 23.05 8.03 42.56 20.07 55.35l.72-.69c-11.8-12.54-17.65-31.78-19.8-54.75-2.13-22.95-.56-49.55 2.38-76.73 2.95-27.18 7.26-54.89 10.6-80.11 3.33-25.2 5.69-47.9 4.71-65l-1 .05zm2.39 277.23c19.06 20.25 43.58 26.46 71.15 25.27 27.54-1.19 58.19-9.79 89.57-19.22 31.4-9.44 63.55-19.72 94.17-24.34 30.62-4.62 59.65-3.57 84.84 9.58l.46-.88c-25.45-13.3-54.73-14.33-85.45-9.69-30.71 4.64-62.94 14.94-94.3 24.37-31.4 9.44-61.93 17.99-89.34 19.18-27.38 1.19-51.58-4.99-70.38-24.96l-.72.69zm339.73-8.71c14.93 7.8 20.14 23.53 20.41 43.21.27 19.67-4.41 43.13-9.1 66.16-4.66 23-9.34 45.59-8.99 63.43.18 8.92 1.6 16.7 4.96 22.78 3.37 6.09 8.66 10.43 16.46 12.45l.25-.97c-7.54-1.95-12.6-6.12-15.83-11.97-3.25-5.87-4.66-13.47-4.84-22.31-.34-17.7 4.3-40.17 8.98-63.21 4.67-23 9.38-46.57 9.11-66.38-.27-19.8-5.52-36.01-20.95-44.07l-.46.88zm23.74 208.03c30.38 7.89 73.8 7.01 124.15.86 50.38-6.16 107.76-17.59 166.1-30.84 116.74-26.5 237.28-60.24 313.52-73.55l-.17-.98c-76.27 13.31-196.93 47.08-313.57 73.56-58.33 13.24-115.67 24.67-166 30.82-50.34 6.15-93.6 7.01-123.78-.84l-.25.97zM50.05-223.15c74.35-51.16 173.19-45.04 234.45-2.63 30.62 21.2 51.83 51.44 55.93 88.1 4.1 36.67-8.89 79.84-46.85 126.92l.78.63c38.08-47.22 51.2-90.65 47.06-127.66-4.14-37-25.54-67.48-56.35-88.8-61.6-42.65-160.89-48.79-235.59 2.61l.57.83zm243.53 212.4c-5.48 6.8-17.05 16.41-33.26 28.33-16.2 11.9-36.98 26.08-60.86 41.99-47.74 31.82-107.83 70.6-168.2 112.13-60.38 41.52-121.07 85.79-170.03 128.6-48.94 42.79-86.23 84.18-99.72 119.96l.93.35c13.4-35.52 50.5-76.77 99.44-119.56 48.92-42.77 109.57-87.02 169.94-128.53C92.2 131 152.26 92.24 200.02 60.4c23.87-15.91 44.67-30.1 60.89-42.02 16.2-11.9 27.87-21.59 33.45-28.5l-.78-.64zm-532.07 431c-6.74 17.87-7.4 30.62-3.43 39.48 3.98 8.9 12.55 13.72 23.88 15.92 11.34 2.2 25.53 1.8 40.94.13 15.42-1.67 32.1-4.6 48.4-7.46 16.31-2.86 32.24-5.66 46.2-7.07 13.98-1.42 25.9-1.43 34.21 1.22 4.15 1.32 7.36 3.3 9.5 6.05 2.13 2.76 3.22 6.34 3.04 10.96-.36 9.28-5.86 22.65-18.24 41.46l.83.55c12.4-18.83 18.04-32.4 18.41-41.97.2-4.8-.95-8.63-3.25-11.6-2.3-2.98-5.71-5.04-9.98-6.4-8.53-2.72-20.63-2.68-34.62-1.27-14 1.42-29.97 4.22-46.27 7.08-16.31 2.87-32.95 5.8-48.33 7.45-15.39 1.67-29.47 2.06-40.65-.1-11.18-2.18-19.37-6.89-23.16-15.36-3.8-8.5-3.25-20.93 3.45-38.7l-.93-.36zM-54 520.96c-49.55 75.26-107.67 126.94-154.02 181.17-46.32 54.21-80.77 110.88-82.68 195.92l1 .02c1.9-84.72 36.2-141.17 82.44-195.29 46.23-54.1 104.5-105.95 154.1-181.28l-.84-.55zm-236.7 377.1c-.48 21.3 4.9 35.46 14.8 44.21 9.89 8.74 24.19 11.98 41.36 11.67 34.34-.63 80.55-15.46 127.1-29.74 46.6-14.29 93.54-28.02 129.48-26.57 17.96.73 33.11 5.25 44.1 15.31 10.98 10.07 17.88 25.75 19.2 48.96l1-.05c-1.33-23.39-8.3-39.35-19.53-49.64-11.22-10.3-26.64-14.84-44.73-15.58-36.15-1.46-83.27 12.34-129.82 26.62-46.62 14.3-92.66 29.07-126.81 29.69-17.07.3-31.08-2.92-40.69-11.41-9.6-8.49-14.93-22.32-14.46-43.46l-1-.02zm376.04 63.84c.97 17-1.12 39.78-4.08 65.22-2.95 25.42-6.77 53.48-9.2 80.99-2.45 27.51-3.52 54.5-1 77.79 2.53 23.28 8.66 42.94 20.7 55.73l.73-.69c-11.82-12.54-17.91-31.94-20.43-55.15-2.51-23.19-1.45-50.1 1-77.59 2.43-27.49 6.24-55.52 9.2-80.96 2.95-25.43 5.06-48.3 4.08-65.4l-1 .06zm6.42 279.73c19.06 20.24 43.37 26.38 70.63 25.07 27.23-1.31 57.46-10.07 88.42-19.66 30.98-9.59 62.7-20.03 93.02-24.77 30.3-4.74 59.12-3.77 84.3 9.38l.47-.88c-25.46-13.3-54.52-14.25-84.93-9.49-30.4 4.75-62.2 15.22-93.16 24.81-30.97 9.59-61.08 18.31-88.17 19.61-27.06 1.3-51.05-4.79-69.85-24.76l-.73.69zm336.38-9.98c14.93 7.8 20.17 23.63 20.48 43.46.31 19.82-4.32 43.48-8.94 66.71-4.62 23.2-9.23 45.99-8.84 63.97.2 9 1.64 16.85 5 22.97 3.39 6.13 8.68 10.49 16.48 12.52l.25-.97c-7.53-1.96-12.6-6.14-15.84-12.04-3.26-5.91-4.7-13.58-4.9-22.5-.38-17.85 4.2-40.51 8.83-63.75 4.62-23.21 9.27-46.97 8.96-66.93-.31-19.95-5.59-36.26-21.02-44.32l-.46.88zm24.18 209.63c30.39 7.89 74.74 6.58 126.5-.21 51.77-6.79 111.02-19.07 171.24-33.16 120.46-28.2 244.74-63.64 320.98-76.95l-.17-.98c-76.27 13.31-200.67 48.78-321.04 76.95-60.2 14.1-119.42 26.37-171.14 33.15-51.74 6.79-95.93 8.07-126.12.23l-.25.97zM32.7-215.25c74.35-51.16 173.19-45.04 234.45-2.63 30.62 21.2 51.83 51.44 55.93 88.1 4.1 36.67-8.89 79.84-46.85 126.92l.78.63c38.07-47.22 51.2-90.65 47.06-127.66-4.14-37-25.54-67.48-56.35-88.8-61.6-42.65-160.89-48.79-235.59 2.61l.57.83zM276.22-2.85c-5.48 6.8-17.05 16.41-33.26 28.33-16.2 11.9-36.99 26.07-60.86 41.99-47.74 31.82-107.83 70.6-168.2 112.12-60.38 41.53-121.08 85.8-170.03 128.6-48.94 42.8-86.24 84.2-99.72 119.97l.93.35c13.4-35.52 50.5-76.77 99.44-119.56 48.92-42.77 109.57-87.02 169.94-128.53C74.83 138.9 134.9 100.13 182.66 68.3c23.87-15.91 44.67-30.1 60.89-42.02 16.2-11.9 27.87-21.6 33.45-28.51l-.78-.63zm-532.07 431c-6.74 17.87-7.41 30.68-3.47 39.66 3.96 9 12.5 14 23.8 16.4 11.3 2.4 25.45 2.21 40.82.8 15.37-1.43 32-4.1 48.26-6.7 16.26-2.6 32.15-5.13 46.06-6.3 13.93-1.16 25.81-.95 34.1 1.9 4.12 1.41 7.32 3.47 9.45 6.31 2.12 2.83 3.2 6.5 3 11.17-.37 9.4-5.89 22.83-18.27 41.64l.83.55c12.4-18.83 18.05-32.46 18.45-42.15.2-4.86-.93-8.76-3.21-11.8-2.28-3.06-5.68-5.21-9.93-6.67-8.5-2.92-20.56-3.11-34.5-1.94-13.96 1.17-29.89 3.7-46.14 6.3-16.26 2.61-32.86 5.27-48.2 6.69-15.33 1.41-29.37 1.58-40.52-.78-11.14-2.37-19.3-7.24-23.08-15.82-3.79-8.62-3.22-21.12 3.48-38.9l-.93-.35zM-72.1 533.04c-24.76 37.62-51.45 69.38-77.63 98.52-26.16 29.13-51.84 55.67-74.52 82.79-45.4 54.27-78.9 111-80.82 196.04l1 .02c1.9-84.73 35.27-141.24 80.58-195.42 22.68-27.1 48.3-53.6 74.5-82.76 26.2-29.16 52.92-60.96 77.72-98.64l-.83-.55zm-232.97 377.35c-.48 21.3 4.87 35.34 14.73 43.86 9.85 8.51 24.09 11.42 41.18 10.72 17.1-.71 37.15-5.04 58.7-11.1 21.55-6.06 44.63-13.86 67.8-21.52 46.4-15.34 93.13-30.12 128.92-29.45 17.88.34 32.96 4.53 43.9 14.37 10.92 9.83 17.8 25.37 19.12 48.6l1-.07c-1.33-23.38-8.27-39.21-19.46-49.28-11.18-10.06-26.53-14.28-44.54-14.62-36-.67-82.9 14.17-129.25 29.5-23.19 7.66-46.24 15.46-67.77 21.5-21.52 6.06-41.48 10.36-58.46 11.07-17 .7-30.92-2.2-40.49-10.47-9.55-8.26-14.85-21.95-14.38-43.09l-1-.02zm374.35 55.47c.97 17-.87 39.94-3.45 65.62-2.58 25.65-5.88 54.03-7.82 81.85-1.94 27.82-2.5 55.12.4 78.64 2.9 23.51 9.29 43.33 21.32 56.11l.73-.68c-11.82-12.55-18.16-32.11-21.06-55.55-2.89-23.43-2.33-50.65-.4-78.45 1.94-27.8 5.24-56.14 7.82-81.82 2.58-25.67 4.44-48.68 3.46-65.77l-1 .05zm10.45 282.22c19.06 20.25 43.17 26.31 70.11 24.88 26.92-1.43 56.73-10.35 87.27-20.09 30.56-9.76 61.87-20.36 91.86-25.21 29.99-4.86 58.6-3.97 83.78 9.18l.47-.88c-25.46-13.3-54.32-14.17-84.4-9.29-30.1 4.87-61.49 15.5-92.02 25.24-30.55 9.76-60.24 18.62-87.01 20.05-26.75 1.42-50.53-4.6-69.33-24.56l-.73.68zm333.02-11.24c14.94 7.8 20.2 23.73 20.56 43.71.35 19.97-4.22 43.83-8.79 67.26-4.56 23.4-9.12 46.39-8.69 64.52.22 9.07 1.69 16.98 5.07 23.14 3.39 6.18 8.69 10.57 16.49 12.6l.25-.97c-7.54-1.96-12.61-6.17-15.87-12.11-3.27-5.96-4.72-13.68-4.94-22.68-.43-18 4.1-40.86 8.67-64.3 4.56-23.41 9.16-47.38 8.8-67.48-.34-20.1-5.65-36.51-21.08-44.57l-.47.88zm24.64 211.23c30.39 7.89 75.68 6.15 128.83-1.27 53.18-7.43 114.3-20.56 176.38-35.5 124.2-29.9 252.21-67.03 328.45-80.34l-.18-.98c-76.27 13.31-204.4 50.47-328.5 80.35-62.08 14.94-123.16 28.06-176.28 35.48-53.15 7.42-98.27 9.13-128.45 1.29l-.25.97zM15.33-207.35c74.35-51.16 173.19-45.04 234.45-2.63 30.62 21.2 51.83 51.44 55.93 88.1 4.1 36.67-8.89 79.84-46.85 126.92l.78.63c38.07-47.22 51.2-90.66 47.06-127.66-4.14-37-25.54-67.48-56.35-88.8-61.6-42.65-160.89-48.79-235.59 2.61l.57.83zM258.86 5.04c-5.48 6.8-17.05 16.41-33.26 28.33-16.2 11.9-36.98 26.07-60.86 41.99C117 107.19 56.91 145.97-3.46 187.49c-60.38 41.52-121.08 85.8-170.03 128.6-48.94 42.8-86.24 84.2-99.72 119.97l.93.35c13.4-35.52 50.5-76.77 99.44-119.56 48.92-42.77 109.57-87.02 169.94-128.53C57.47 146.8 117.54 108.03 165.3 76.2c23.87-15.91 44.67-30.1 60.89-42.02 16.2-11.9 27.87-21.6 33.45-28.51l-.78-.63zm-532.07 431c-6.74 17.88-7.42 30.75-3.5 39.83 3.93 9.12 12.43 14.28 23.7 16.88 11.26 2.6 25.38 2.64 40.7 1.47 15.34-1.18 31.92-3.58 48.13-5.92 16.22-2.34 32.05-4.61 45.92-5.53 13.89-.92 25.72-.48 33.97 2.55 4.11 1.52 7.3 3.67 9.41 6.59 2.11 2.91 3.18 6.64 2.98 11.38-.4 9.51-5.92 23.01-18.3 41.82l.83.55c12.4-18.83 18.06-32.52 18.47-42.33.21-4.92-.9-8.88-3.17-12-2.26-3.13-5.63-5.38-9.87-6.94-8.46-3.12-20.48-3.54-34.38-2.62-13.92.92-29.8 3.2-46 5.54-16.22 2.34-32.77 4.74-48.06 5.91-15.3 1.17-29.3 1.11-40.4-1.45-11.11-2.56-19.26-7.59-23.01-16.3-3.77-8.72-3.19-21.29 3.51-39.07l-.93-.35zm183 109.07c-24.76 37.62-51.22 69.4-77.04 98.56-25.82 29.15-51.03 55.72-73.25 82.88-44.46 54.33-77.04 111.12-78.95 196.16l1 .02c1.9-84.73 34.34-141.31 78.72-195.55 22.2-27.14 47.38-53.66 73.22-82.85 25.84-29.17 52.34-60.99 77.14-98.67l-.84-.55zm-229.24 377.6c-.48 21.3 4.84 35.21 14.66 43.5 9.8 8.29 23.99 10.86 41 9.76 17.02-1.1 36.97-5.89 58.42-12.44 21.45-6.55 44.43-14.87 67.5-23.06 46.18-16.39 92.7-32.2 128.33-32.32 17.8-.06 32.81 3.81 43.7 13.42 10.88 9.6 17.73 25.01 19.05 48.23l1-.05c-1.33-23.39-8.24-39.1-19.39-48.93C23.68 911 8.39 907.1-9.54 907.16c-35.84.11-82.53 16.01-128.66 32.38-23.09 8.2-46.04 16.5-67.46 23.05-21.43 6.54-41.29 11.3-58.2 12.4-16.9 1.09-30.77-1.5-40.28-9.53-9.5-8.02-14.78-21.58-14.3-42.72l-1-.02zm372.66 47.1c.97 17-.62 40.1-2.82 66-2.2 25.9-5 54.58-6.43 82.72-1.44 28.13-1.5 55.74 1.78 79.5 3.29 23.74 9.92 43.71 21.95 56.49l.73-.69c-11.82-12.55-18.41-32.26-21.69-55.94-3.27-23.66-3.2-51.2-1.78-79.31 1.43-28.11 4.23-56.77 6.43-82.68 2.2-25.9 3.8-49.07 2.83-66.16l-1 .06zm14.48 284.71c19.07 20.24 42.96 26.23 69.6 24.67 26.6-1.54 55.99-10.62 86.1-20.52 30.15-9.92 61.04-20.67 90.72-25.65 29.67-4.97 58.07-4.16 83.25 9l.47-.89c-25.46-13.3-54.1-14.09-83.89-9.09-29.77 4.99-60.74 15.77-90.85 25.68-30.14 9.91-59.41 18.94-85.87 20.48-26.43 1.54-50-4.4-68.8-24.37l-.73.69zm329.67-12.5c14.94 7.8 20.24 23.82 20.63 43.95.4 20.13-4.13 44.18-8.64 67.82-4.5 23.59-9 46.78-8.53 65.06.24 9.15 1.72 17.12 5.11 23.32 3.4 6.22 8.71 10.64 16.51 12.66l.26-.96c-7.54-1.96-12.62-6.2-15.89-12.18-3.28-6-4.75-13.79-4.99-22.86-.47-18.15 4-41.22 8.52-64.86 4.5-23.6 9.04-47.77 8.65-68.02-.4-20.24-5.73-36.76-21.16-44.82l-.47.89zm25.08 212.81c30.4 7.9 76.63 5.74 131.18-2.32 54.57-8.07 117.55-22.05 181.5-37.84 127.94-31.59 259.69-70.42 335.92-83.73l-.17-.98c-76.27 13.31-208.14 52.17-335.98 83.74-63.94 15.79-126.9 29.76-181.42 37.82-54.55 8.06-100.6 10.19-130.77 2.35l-.25.96zM-2.03-199.46c74.35-51.15 173.19-45.03 234.45-2.62 30.62 21.2 51.83 51.44 55.93 88.1 4.1 36.67-8.89 79.84-46.85 126.92l.78.63c38.08-47.22 51.2-90.66 47.06-127.66-4.14-37-25.54-67.48-56.35-88.81-61.6-42.64-160.89-48.78-235.6 2.62l.58.82zM241.5 12.94c-5.48 6.8-17.05 16.42-33.26 28.34-16.2 11.9-36.99 26.07-60.86 41.99-47.74 31.82-107.83 70.6-168.2 112.12C-81.2 236.91-141.9 281.2-190.86 324c-48.94 42.8-86.24 84.2-99.72 119.97l.93.35c13.4-35.52 50.5-76.77 99.44-119.56 48.92-42.77 109.57-87.02 169.94-128.53 60.37-41.52 120.44-80.29 168.2-112.12C171.8 68.18 192.6 54 208.83 42.08c16.2-11.9 27.87-21.6 33.45-28.51l-.78-.63zm-532.07 431.02c-6.74 17.87-7.43 30.8-3.53 40 3.9 9.23 12.37 14.56 23.6 17.35 11.24 2.79 25.31 3.07 40.6 2.14 15.28-.92 31.82-3.07 47.98-5.14 16.17-2.08 31.96-4.1 45.78-4.77 13.84-.68 25.64 0 33.85 3.22 4.1 1.62 7.27 3.85 9.37 6.86 2.1 3 3.16 6.8 2.95 11.59-.42 9.63-5.96 23.2-18.34 42l.83.55c12.4-18.83 18.07-32.59 18.5-42.5.23-4.98-.87-9.01-3.12-12.22-2.24-3.2-5.6-5.55-9.83-7.2-8.42-3.32-20.4-3.97-34.26-3.3-13.87.68-29.7 2.7-45.86 4.77-16.17 2.08-32.67 4.22-47.92 5.15-15.25.92-29.2.63-40.28-2.12-11.07-2.75-19.2-7.95-22.93-16.77-3.75-8.85-3.16-21.48 3.54-39.26l-.93-.35zm182.25 113.25c-24.76 37.62-50.99 69.42-76.46 98.6-25.47 29.18-50.21 55.78-71.97 82.96-43.53 54.4-75.17 111.25-77.08 196.28l1 .02c1.9-84.73 33.42-141.37 76.86-195.67 21.74-27.17 46.44-53.72 71.94-82.93 25.5-29.2 51.75-61.03 76.55-98.7l-.83-.56zm-225.5 377.84c-.49 21.3 4.8 35.09 14.58 43.16 9.77 8.05 23.88 10.3 40.82 8.8s36.8-6.74 58.15-13.78c21.35-7.05 44.22-15.9 67.19-24.6 45.97-17.44 92.28-34.3 127.75-35.2 17.72-.45 32.66 3.1 43.5 12.47 10.82 9.37 17.65 24.65 18.97 47.87l1-.05c-1.34-23.39-8.22-38.97-19.32-48.58-11.1-9.6-26.33-13.16-44.18-12.71-35.68.9-82.16 17.85-128.08 35.26-22.98 8.72-45.82 17.55-67.15 24.59-21.32 7.03-41.1 12.25-57.92 13.73-16.84 1.49-30.63-.77-40.09-8.58-9.45-7.79-14.7-21.21-14.23-42.36l-1-.02zm370.96 38.72c.97 17.01-.37 40.27-2.2 66.41-1.82 26.13-4.11 55.13-5.04 83.57-.93 28.45-.48 56.37 3.18 80.36 3.66 23.97 10.55 44.1 22.58 56.88l.72-.69c-11.81-12.55-18.66-32.43-22.31-56.34-3.65-23.9-4.1-51.75-3.17-80.18.93-28.42 3.22-57.39 5.04-83.53 1.82-26.13 3.17-49.45 2.2-66.53l-1 .05zM55.66 1261c19.06 20.24 42.74 26.14 69.06 24.47 26.3-1.67 55.27-10.9 84.97-20.96 29.72-10.07 60.19-20.98 89.55-26.08 29.36-5.09 57.55-4.36 82.73 8.8l.46-.89c-25.45-13.3-53.9-14.01-83.36-8.89-29.46 5.11-60.01 16.05-89.7 26.11-29.72 10.07-58.57 19.26-84.71 20.91-26.11 1.66-49.47-4.19-68.28-24.16l-.72.69zm326.31-13.77c14.93 7.8 20.26 23.91 20.7 44.2.43 20.28-4.03 44.53-8.48 68.37-4.45 23.79-8.9 47.18-8.38 65.61.26 9.22 1.76 17.25 5.16 23.5 3.41 6.26 8.72 10.7 16.53 12.73l.25-.97c-7.53-1.95-12.62-6.21-15.9-12.24-3.3-6.05-4.79-13.9-5.04-23.05-.52-18.3 3.9-41.56 8.36-65.4 4.45-23.8 8.93-48.17 8.5-68.57-.44-20.39-5.8-37.01-21.24-45.07l-.46.89zm25.53 214.41c30.4 7.9 77.56 5.31 133.51-3.39 55.98-8.7 120.83-23.53 186.64-40.17 131.67-33.29 267.16-73.81 343.39-87.12l-.17-.99c-76.28 13.32-211.88 53.88-343.46 87.14-65.81 16.64-130.62 31.46-186.55 40.15-55.95 8.7-102.93 11.25-133.1 3.41l-.26.97zM-19.4-191.56c74.36-51.15 173.2-45.03 234.46-2.62 30.62 21.2 51.83 51.44 55.93 88.1 4.1 36.67-8.89 79.84-46.85 126.92l.78.63C263-25.75 276.12-69.2 271.98-106.2c-4.14-37-25.54-67.48-56.35-88.81-61.6-42.64-160.89-48.78-235.6 2.62l.58.82zm243.54 212.4c-5.48 6.8-17.05 16.42-33.26 28.34-16.2 11.9-36.99 26.07-60.86 41.99-47.74 31.82-107.83 70.6-168.2 112.12-60.39 41.52-121.08 85.8-170.03 128.6-48.94 42.8-86.24 84.2-99.72 119.97l.93.35c13.4-35.52 50.5-76.77 99.44-119.56 48.92-42.77 109.57-87.02 169.94-128.53C22.75 162.6 82.82 123.83 130.58 92c23.87-15.92 44.67-30.1 60.89-42.02 16.2-11.9 27.87-21.6 33.45-28.51l-.78-.63zm-532.07 431.02c-6.74 17.87-7.44 30.87-3.57 40.18 3.89 9.33 12.32 14.83 23.52 17.82s25.23 3.5 40.47 2.82c15.24-.68 31.73-2.56 47.84-4.38 16.13-1.81 31.87-3.56 45.65-4 13.8-.42 25.55.47 33.73 3.9 4.08 1.7 7.24 4.03 9.33 7.11s3.13 6.95 2.91 11.8c-.44 9.75-6 23.38-18.37 42.2l.83.54c12.4-18.83 18.09-32.66 18.54-42.69.23-5.03-.86-9.12-3.09-12.4-2.22-3.3-5.56-5.72-9.77-7.49-8.38-3.51-20.32-4.4-34.14-3.96-13.83.43-29.61 2.19-45.73 4-16.12 1.81-32.58 3.69-47.78 4.37-15.2.68-29.12.16-40.16-2.79-11.04-2.94-19.13-8.3-22.85-17.24-3.74-8.96-3.13-21.66 3.57-39.44l-.93-.35zm181.5 117.44c-24.76 37.63-50.75 69.43-75.88 98.64-25.12 29.2-49.4 55.83-70.68 83.05-42.6 54.47-73.3 111.38-75.22 196.4l1 .02c1.9-84.74 32.49-141.44 75-195.8 21.27-27.2 45.51-53.78 70.66-83.01 25.14-29.23 51.16-61.07 75.96-98.75l-.83-.55zM-348.2 947.4c-.48 21.3 4.79 34.96 14.52 42.8 9.73 7.82 23.78 9.73 40.63 7.85 16.87-1.9 36.63-7.6 57.88-15.13 21.25-7.53 44.02-16.9 66.88-26.14 45.76-18.48 91.86-36.4 127.17-38.07 17.65-.84 32.51 2.38 43.3 11.52 10.78 9.15 17.57 24.29 18.9 47.51l1-.06c-1.34-23.38-8.2-38.83-19.25-48.2-11.06-9.38-26.22-12.62-44-11.77-35.51 1.69-81.79 19.68-127.5 38.14-22.87 9.24-45.6 18.6-66.83 26.13-21.23 7.52-40.91 13.2-57.66 15.07-16.76 1.88-30.48-.06-39.89-7.63-9.4-7.56-14.62-20.85-14.15-42l-1-.02zm369.28 30.34c.97 17.02-.12 40.43-1.57 66.81-1.44 26.36-3.23 55.67-3.65 84.43-.43 28.76.52 56.99 4.56 81.21 4.04 24.21 11.18 44.49 23.2 57.26l.74-.68c-11.82-12.56-18.92-32.59-22.95-56.74-4.03-24.14-4.98-52.3-4.55-81.04.42-28.73 2.2-58.01 3.65-84.39 1.44-26.36 2.54-49.83 1.57-66.91l-1 .05zm22.55 289.71c19.06 20.25 42.54 26.07 68.54 24.28 25.98-1.79 54.54-11.18 83.82-21.4 29.3-10.23 59.35-21.3 88.4-26.51 29.04-5.21 57.01-4.56 82.2 8.6l.46-.89c-25.46-13.3-53.69-13.93-82.84-8.7-29.14 5.24-59.28 16.34-88.55 26.56-29.3 10.23-57.73 19.57-83.56 21.34-25.8 1.78-48.94-4-67.74-23.96l-.73.68zm322.96-15.03c14.93 7.8 20.29 24.01 20.76 44.45.48 20.43-3.92 44.89-8.32 68.92-4.4 23.99-8.79 47.58-8.23 66.16.28 9.29 1.8 17.39 5.21 23.68 3.43 6.31 8.75 10.77 16.56 12.8l.25-.97c-7.53-1.96-12.63-6.24-15.93-12.31-3.3-6.09-4.8-14.01-5.09-23.23-.55-18.45 3.81-41.92 8.21-65.95 4.4-24.01 8.82-48.57 8.34-69.12-.48-20.54-5.86-37.26-21.3-45.32l-.46.89zm25.98 216.01c30.4 7.9 78.5 4.88 135.85-4.45 57.37-9.34 124.09-25.02 191.77-42.5 135.4-34.99 274.63-77.21 350.86-90.52l-.18-.99c-76.27 13.32-215.61 55.57-350.93 90.54-67.67 17.48-134.36 33.15-191.68 42.48-57.36 9.33-105.27 12.31-135.44 4.47l-.25.97zM-36.75-183.66c74.35-51.15 173.19-45.03 234.45-2.62 30.62 21.2 51.83 51.44 55.93 88.1 4.1 36.66-8.89 79.84-46.85 126.92l.78.63c38.07-47.22 51.2-90.66 47.06-127.66-4.14-37-25.54-67.48-56.35-88.81-61.6-42.64-160.89-48.78-235.6 2.62l.58.82zm243.53 212.4c-5.48 6.8-17.05 16.42-33.26 28.33-16.2 11.91-36.99 26.08-60.86 42-47.74 31.82-107.83 70.6-168.2 112.12-60.39 41.52-121.08 85.8-170.03 128.6-48.94 42.8-86.24 84.19-99.72 119.96l.93.36c13.4-35.52 50.5-76.78 99.44-119.56C-176 297.77-115.35 253.53-54.98 212 5.39 170.5 65.46 131.73 113.22 99.9c23.87-15.92 44.67-30.1 60.89-42.02 16.2-11.9 27.87-21.6 33.45-28.51l-.78-.63zm-532.07 431.02c-6.74 17.87-7.45 30.93-3.6 40.35 3.86 9.45 12.26 15.11 23.43 18.3 11.15 3.19 25.15 3.93 40.34 3.5 15.2-.44 31.65-2.06 47.71-3.61 16.08-1.55 31.78-3.04 45.51-3.23 13.75-.19 25.47.94 33.6 4.56 4.07 1.8 7.22 4.22 9.3 7.38 2.07 3.16 3.11 7.1 2.88 12.02-.46 9.86-6.03 23.56-18.41 42.37l.84.54c12.4-18.83 18.1-32.72 18.57-42.87.24-5.08-.84-9.25-3.05-12.61-2.2-3.36-5.53-5.89-9.72-7.75-8.35-3.71-20.25-4.83-34.02-4.64-13.79.19-29.53 1.68-45.6 3.23-16.07 1.56-32.48 3.17-47.64 3.6-15.16.44-29.03-.3-40.04-3.45-11-3.14-19.07-8.66-22.78-17.72-3.7-9.08-3.09-21.85 3.61-39.62l-.93-.36zm180.76 121.63c-24.76 37.63-50.53 69.45-75.3 98.69-24.78 29.22-48.59 55.88-69.41 83.13-41.67 54.53-71.44 111.5-73.35 196.51l1 .03c1.9-84.75 31.56-141.52 73.14-195.93 20.8-27.23 44.58-53.84 69.38-83.1 24.79-29.24 50.58-61.1 75.38-98.78l-.84-.55zm-218.06 378.34c-.48 21.29 4.76 34.83 14.46 42.44 9.68 7.59 23.67 9.17 40.44 6.89 16.79-2.28 36.46-8.45 57.6-16.47 21.16-8.02 43.82-17.92 66.58-27.68 45.54-19.53 91.43-38.48 126.59-40.94 17.56-1.24 32.36 1.66 43.1 10.58 10.72 8.9 17.5 23.92 18.82 47.14l1-.06c-1.34-23.38-8.17-38.7-19.19-47.85-11.01-9.15-26.11-12.05-43.8-10.81-35.36 2.47-81.42 21.52-126.92 41.03-22.77 9.76-45.4 19.64-66.53 27.66-21.13 8.01-40.71 14.14-57.38 16.41-16.68 2.27-30.33.65-39.7-6.69-9.34-7.33-14.54-20.49-14.07-41.63l-1-.02zM5 981.69c.97 17.02.13 40.59-.94 67.21-1.06 26.6-2.35 56.21-2.27 85.29.08 29.07 1.54 57.61 5.96 82.06 4.41 24.44 11.8 44.88 23.83 57.65l.73-.69c-11.82-12.55-19.17-32.75-23.58-57.13-4.4-24.37-5.86-52.85-5.94-81.9-.08-29.04 1.2-58.64 2.27-85.24 1.07-26.6 1.91-50.23.94-67.3l-1 .05zm26.58 292.21c19.06 20.24 42.33 25.99 68.03 24.08 25.66-1.91 53.8-11.46 82.66-21.84 28.89-10.39 58.51-21.61 87.24-26.94 28.73-5.33 56.5-4.76 81.68 8.4l.46-.89c-25.46-13.3-53.48-13.85-82.32-8.5-28.83 5.35-58.55 16.62-87.4 26.99-28.88 10.39-56.89 19.89-82.4 21.78-25.48 1.9-48.42-3.8-67.22-23.77l-.73.69zm319.6-16.3c14.94 7.8 20.32 24.11 20.84 44.7.52 20.58-3.83 45.24-8.17 69.47-4.34 24.19-8.67 47.98-8.07 66.71.3 9.37 1.84 17.52 5.26 23.86 3.44 6.35 8.76 10.84 16.57 12.87l.25-.97c-7.53-1.96-12.63-6.27-15.94-12.38-3.32-6.14-4.84-14.12-5.14-23.41-.6-18.6 3.71-42.27 8.05-66.51 4.34-24.2 8.71-48.96 8.2-69.66-.53-20.69-5.95-37.51-21.38-45.57l-.46.89zm26.43 217.61c30.4 7.89 79.44 4.45 138.19-5.52 58.78-9.97 127.36-26.49 196.91-44.83 139.14-36.69 282.1-80.61 358.32-93.91l-.17-.99c-76.28 13.32-219.35 57.27-358.4 93.93-69.55 18.34-138.1 34.85-196.83 44.82-58.75 9.97-107.6 13.37-137.76 5.53l-.26.97zM-54.1-175.76c74.35-51.15 173.19-45.03 234.45-2.62 30.62 21.2 51.83 51.44 55.93 88.1 4.1 36.66-8.89 79.84-46.85 126.92l.78.63C228.27-9.95 241.4-53.4 237.26-90.4c-4.14-37-25.54-67.48-56.35-88.81-61.6-42.64-160.89-48.78-235.6 2.62l.58.82zm243.53 212.4c-5.48 6.8-17.05 16.42-33.26 28.33-16.2 11.91-36.99 26.08-60.86 42-47.74 31.82-107.83 70.6-168.2 112.12-60.39 41.52-121.08 85.8-170.03 128.6-48.94 42.8-86.24 84.19-99.72 119.96l.93.36c13.4-35.52 50.5-76.78 99.44-119.56 48.92-42.78 109.57-87.02 169.94-128.54C-11.97 178.4 48.1 139.63 95.86 107.8c23.87-15.92 44.67-30.1 60.89-42.02 16.2-11.91 27.87-21.6 33.45-28.51l-.78-.63zm-532.07 431.01c-6.74 17.88-7.47 31-3.64 40.54 3.85 9.56 12.21 15.39 23.34 18.77 11.12 3.39 25.08 4.36 40.23 4.17 15.15-.19 31.55-1.54 47.57-2.84 16.03-1.29 31.68-2.51 45.37-2.45 13.71.05 25.38 1.4 33.49 5.22 4.04 1.9 7.18 4.4 9.24 7.65 2.07 3.24 3.1 7.25 2.85 12.23-.48 9.97-6.06 23.74-18.44 42.54l.84.55c12.4-18.83 18.1-32.79 18.6-43.04.25-5.15-.8-9.38-3-12.82-2.2-3.44-5.5-6.06-9.67-8.02-8.31-3.9-20.17-5.25-33.9-5.31-13.74-.07-29.44 1.17-45.46 2.46-16.03 1.29-32.4 2.64-47.5 2.83-15.13.2-28.96-.78-39.93-4.12-10.96-3.34-19.01-9.02-22.7-18.2-3.7-9.19-3.06-22.03 3.64-39.8l-.93-.36zm180.01 125.84c-24.76 37.62-50.3 69.46-74.72 98.72-24.43 29.25-47.77 55.93-68.13 83.22-40.73 54.59-69.57 111.62-71.48 196.63l1 .02c1.9-84.74 30.63-141.58 71.28-196.06 20.34-27.25 43.65-53.9 68.1-83.17 24.43-29.27 50-61.14 74.79-98.82l-.84-.54zm-214.33 378.57c-.47 21.3 4.73 34.7 14.39 42.09 9.64 7.37 23.57 8.61 40.26 5.94 16.7-2.68 36.28-9.3 57.33-17.82 21.06-8.51 43.61-18.93 66.26-29.21 45.34-20.58 91.01-40.58 126.01-43.83 17.49-1.62 32.22.95 42.9 9.64 10.68 8.68 17.42 23.56 18.75 46.78l1-.06c-1.34-23.37-8.14-38.57-19.12-47.5-10.97-8.92-26.01-11.49-43.62-9.85-35.2 3.26-81.05 23.35-126.33 43.9-22.66 10.3-45.2 20.7-66.22 29.21-21.03 8.5-40.53 15.09-57.12 17.75-16.6 2.66-30.18 1.37-39.5-5.75-9.28-7.1-14.46-20.12-13.99-41.27l-1-.02zm365.9 13.6c.97 17.01.38 40.75-.3 67.59-.7 26.84-1.48 56.77-.9 86.15.6 29.38 2.55 58.24 7.35 82.93 4.8 24.67 12.44 45.25 24.46 58.02l.73-.68c-11.82-12.56-19.42-32.91-24.2-57.53-4.8-24.61-6.75-53.4-7.33-82.76-.59-29.35.2-59.26.88-86.1.69-26.83 1.28-50.61.3-67.69l-1 .06zm30.61 294.69c19.07 20.25 42.12 25.92 67.5 23.89 25.36-2.03 53.08-11.74 81.52-22.27 28.47-10.55 57.67-21.94 86.09-27.38 28.4-5.45 55.96-4.96 81.15 8.2l.46-.89c-25.46-13.3-53.27-13.77-81.8-8.3-28.52 5.47-57.81 16.89-86.25 27.43-28.46 10.54-56.05 20.2-81.24 22.21-25.17 2.01-47.9-3.6-66.7-23.57l-.73.68zm316.26-17.56c14.93 7.8 20.34 24.21 20.9 44.95.56 20.73-3.73 45.59-8.02 70.02-4.28 24.39-8.56 48.38-7.91 67.26.32 9.44 1.87 17.66 5.3 24.03 3.46 6.4 8.79 10.91 16.6 12.94l.25-.97c-7.53-1.95-12.64-6.28-15.96-12.44-3.33-6.18-4.88-14.22-5.2-23.6-.63-18.75 3.62-42.61 7.9-67.05 4.29-24.4 8.6-49.36 8.04-70.21-.56-20.84-6-37.76-21.44-45.82l-.46.89zm26.87 219.2c15.22 3.96 35.32 4.96 59.1 3.66 23.8-1.31 51.34-4.93 81.42-10.23 60.18-10.61 130.63-27.98 202.05-47.17 142.87-38.38 289.56-84 365.79-97.3l-.17-.99c-76.28 13.32-223.1 58.97-365.88 97.32-71.41 19.19-141.83 36.55-201.96 47.16-30.06 5.3-57.55 8.91-81.3 10.21-23.75 1.3-43.73.29-58.8-3.63l-.25.97zM-71.47-167.86c74.35-51.15 173.19-45.03 234.45-2.62 30.62 21.2 51.83 51.44 55.93 88.1 4.1 36.66-8.89 79.84-46.85 126.92l.78.63C210.91-2.06 224.04-45.5 219.9-82.5c-4.14-37-25.54-67.49-56.35-88.81-61.6-42.64-160.89-48.78-235.6 2.62l.58.82zm243.53 212.4c-5.48 6.8-17.05 16.42-33.26 28.33-16.2 11.9-36.99 26.08-60.86 42-47.74 31.82-107.83 70.6-168.2 112.12-60.39 41.52-121.08 85.8-170.04 128.6-48.93 42.8-86.23 84.19-99.71 119.96l.93.36c13.4-35.52 50.5-76.78 99.44-119.56 48.92-42.78 109.57-87.02 169.94-128.54C-29.33 186.3 30.74 147.53 78.5 115.7c23.87-15.92 44.67-30.1 60.89-42.02 16.2-11.91 27.87-21.6 33.45-28.51l-.78-.63zM-360 475.55c-6.74 17.88-7.48 31.07-3.67 40.72 3.82 9.67 12.15 15.66 23.25 19.25 11.08 3.58 25 4.78 40.1 4.84 15.12.05 31.47-1.04 47.44-2.07 15.98-1.03 31.59-2 45.23-1.69 13.67.3 25.3 1.88 33.37 5.89 4.03 2 7.15 4.6 9.2 7.91 2.06 3.33 3.07 7.42 2.82 12.45-.5 10.09-6.1 23.92-18.47 42.73l.83.54c12.4-18.84 18.12-32.85 18.64-43.22.26-5.2-.79-9.5-2.97-13.02-2.17-3.52-5.46-6.23-9.6-8.29-8.29-4.1-20.1-5.69-33.8-5.99-13.7-.3-29.34.66-45.31 1.7-15.99 1.02-32.3 2.11-47.37 2.06-15.08-.06-28.87-1.26-39.8-4.8-10.94-3.53-18.96-9.37-22.63-18.66-3.67-9.31-3.03-22.22 3.67-40l-.93-.35zm179.27 130.03c-24.77 37.62-50.07 69.48-74.15 98.76-24.08 29.27-46.95 56-66.84 83.3-39.8 54.66-67.7 111.75-69.62 196.76l1 .02c1.9-84.75 29.7-141.65 69.42-196.19 19.87-27.28 42.72-53.96 66.81-83.26 24.1-29.29 49.41-61.18 74.21-98.85l-.83-.54zm-210.6 378.82c-.49 21.29 4.7 34.57 14.31 41.73 9.6 7.14 23.47 8.05 40.08 4.98 16.62-3.07 36.1-10.15 57.06-19.15 20.95-9.01 43.4-19.95 65.94-30.76 45.13-21.62 90.6-42.67 125.44-46.7 17.4-2.01 32.06.24 42.7 8.7 10.62 8.44 17.34 23.18 18.67 46.41l1-.06c-1.34-23.37-8.11-38.44-19.05-47.14-10.93-8.7-25.9-10.93-43.44-8.9-35.04 4.05-80.67 25.19-125.75 46.8-22.55 10.8-44.98 21.73-65.9 30.73-20.94 9-40.34 16.04-56.85 19.09-16.53 3.05-30.04 2.08-39.3-4.8-9.24-6.87-14.4-19.76-13.92-40.9l-1-.03zm364.2 5.21c.97 17.03.63 40.92.32 68-.3 27.07-.59 57.31.5 87.01 1.1 29.69 3.56 58.86 8.73 83.78 5.18 24.9 13.08 45.64 25.1 58.41l.73-.68c-11.83-12.57-19.68-33.08-24.85-57.93-5.16-24.84-7.62-53.95-8.7-83.62-1.1-29.67-.82-59.89-.5-86.96.3-27.06.64-51-.34-68.07l-1 .06zm34.65 297.2c19.06 20.24 41.9 25.83 66.98 23.69 25.04-2.15 52.34-12.02 80.36-22.71 28.05-10.71 56.83-22.25 84.93-27.82 28.1-5.56 55.44-5.15 80.62 8.01l.47-.89c-25.46-13.3-53.06-13.69-81.28-8.1-28.2 5.59-57.08 17.17-85.1 27.86-28.04 10.71-55.21 20.52-80.09 22.65-24.84 2.13-47.36-3.41-66.16-23.37l-.73.68zm312.9-18.83c14.92 7.8 20.37 24.31 20.97 45.21.6 20.87-3.64 45.93-7.87 70.56-4.22 24.6-8.44 48.78-7.76 67.81.35 9.51 1.92 17.79 5.37 24.21a25.25 25.25 0 0016.6 13.01l.26-.97A24.24 24.24 0 01332 1475.3c-3.35-6.23-4.9-14.33-5.25-23.78-.68-18.9 3.52-42.97 7.75-67.6 4.23-24.6 8.49-49.77 7.88-70.76-.6-20.99-6.08-38-21.51-46.07l-.47.89zm27.32 220.8c15.21 3.95 35.55 4.85 59.75 3.36 24.2-1.49 52.32-5.37 83.1-10.99 61.58-11.25 133.9-29.47 207.19-49.51 146.6-40.08 297.03-87.39 373.26-100.69l-.18-.99c-76.28 13.32-226.82 60.66-373.34 100.72-73.28 20.03-145.57 38.24-207.1 49.48-30.77 5.62-58.84 9.5-83 10.98-24.15 1.49-44.36.59-59.43-3.33l-.25.97zM-88.83-159.96c74.35-51.16 173.19-45.03 234.45-2.62 30.62 21.2 51.83 51.44 55.93 88.1 4.1 36.66-8.89 79.84-46.85 126.92l.78.62c38.07-47.22 51.2-90.65 47.06-127.65-4.14-37-25.54-67.49-56.35-88.81-61.6-42.64-160.89-48.78-235.6 2.62l.58.82zM154.7 52.44c-5.48 6.8-17.05 16.41-33.26 28.33-16.2 11.9-36.99 26.08-60.86 42-47.74 31.81-107.83 70.6-168.2 112.12-60.39 41.52-121.08 85.8-170.03 128.6-48.94 42.8-86.24 84.19-99.72 119.96l.93.36c13.4-35.52 50.5-76.78 99.44-119.57 48.92-42.77 109.57-87.01 169.94-128.53 60.37-41.51 120.44-80.28 168.2-112.12C85 107.69 105.8 93.5 122.02 81.59c16.2-11.91 27.87-21.6 33.45-28.52l-.78-.62zm-532.07 431.01c-6.74 17.88-7.49 31.13-3.7 40.9 3.8 9.77 12.09 15.93 23.15 19.72 11.05 3.78 24.92 5.21 39.99 5.51 15.07.3 31.37-.53 47.3-1.3 15.94-.76 31.49-1.47 45.1-.92 13.61.55 25.2 2.36 33.24 6.56 4 2.1 7.12 4.78 9.16 8.18 2.04 3.4 3.04 7.56 2.78 12.66-.52 10.2-6.12 24.1-18.5 42.9l.83.56c12.4-18.85 18.13-32.93 18.67-43.41.27-5.26-.76-9.62-2.92-13.22-2.16-3.6-5.43-6.4-9.56-8.56-8.24-4.3-20.02-6.12-33.66-6.67-13.66-.55-29.26.16-45.19.92-15.94.77-32.2 1.6-47.23 1.3-15.03-.3-28.78-1.73-39.69-5.46-10.9-3.73-18.89-9.73-22.54-19.14-3.66-9.43-3-22.4 3.7-40.18l-.93-.35zm178.52 134.21c-24.77 37.63-49.83 69.5-73.57 98.81-23.72 29.3-46.13 56.05-65.56 83.4-38.87 54.71-65.84 111.86-67.75 196.87l1 .02c1.9-84.76 28.78-141.72 67.56-196.32 19.4-27.31 41.79-54.02 65.53-83.34 23.74-29.31 48.83-61.22 73.62-98.88l-.83-.56zm-206.88 379.08c-.47 21.28 4.68 34.44 14.26 41.37 9.56 6.91 23.36 7.49 39.89 4.03 16.54-3.46 35.93-11.01 56.78-20.5 20.86-9.5 43.2-20.97 65.64-32.3 44.91-22.67 90.17-44.76 124.85-49.57 17.33-2.4 31.92-.48 42.5 7.75 10.58 8.22 17.27 22.82 18.6 46.05l1-.06c-1.34-23.37-8.09-38.31-18.98-46.78-10.9-8.47-25.8-10.37-43.26-7.95-34.88 4.84-80.3 27.02-125.16 49.67-22.45 11.34-44.77 22.79-65.6 32.28-20.84 9.49-40.15 16.99-56.58 20.43-16.45 3.45-29.9 2.79-39.1-3.86-9.18-6.64-14.31-19.39-13.84-40.54l-1-.02zm362.52-3.17c.97 17.03.88 41.08.95 68.4.07 27.3.3 57.86 1.9 87.87 1.59 30 4.55 59.48 10.1 84.63 5.56 25.14 13.71 46.03 25.73 58.8l.73-.69c-11.83-12.56-19.94-33.23-25.48-58.32-5.53-25.08-8.5-54.49-10.09-84.48-1.6-29.98-1.82-60.51-1.89-87.82-.07-27.29.02-51.38-.96-68.45l-1 .06zm38.68 299.7c19.06 20.24 41.7 25.75 66.46 23.48 24.73-2.26 51.6-12.29 79.2-23.14 27.64-10.87 56-22.56 83.79-28.25 27.77-5.68 54.91-5.34 80.1 7.81l.46-.89c-25.46-13.3-52.86-13.61-80.76-7.9-27.9 5.71-56.35 17.45-83.95 28.3-27.62 10.86-54.37 20.83-78.93 23.08-24.53 2.25-46.84-3.21-65.64-23.18l-.73.69zm309.54-20.1c14.93 7.8 20.4 24.41 21.05 45.46.64 21.02-3.54 46.28-7.71 71.11-4.17 24.8-8.34 49.18-7.61 68.35.36 9.6 1.95 17.94 5.41 24.4a25.29 25.29 0 0016.63 13.08l.25-.97a24.31 24.31 0 01-16-12.58c-3.35-6.27-4.93-14.44-5.3-23.96-.72-19.05 3.43-43.32 7.6-68.15 4.17-24.81 8.38-50.17 7.73-71.31-.65-21.14-6.15-38.25-21.58-46.32l-.47.89zm27.77 222.4c15.22 3.95 35.8 4.74 60.4 3.07 24.62-1.68 53.31-5.83 84.8-11.77 62.98-11.88 137.16-30.95 212.32-51.84 75.15-20.88 151.29-43.58 218.16-62.72 66.88-19.14 124.47-34.72 162.56-41.37l-.17-.98c-38.16 6.66-95.8 22.25-162.67 41.39-66.88 19.15-143 41.84-218.15 62.72-75.15 20.88-149.3 39.94-212.23 51.82-31.47 5.94-60.12 10.08-84.69 11.75s-45.01.87-60.08-3.04l-.25.97zM-106.19-152.06c74.34-51.16 173.19-45.03 234.45-2.62 30.62 21.2 51.83 51.44 55.93 88.1 4.1 36.66-8.89 79.84-46.85 126.92l.78.62c38.07-47.22 51.2-90.65 47.06-127.65-4.14-37-25.54-67.49-56.35-88.81-61.6-42.64-160.89-48.78-235.6 2.62l.58.82zm243.53 212.4c-5.48 6.8-17.05 16.41-33.27 28.33-16.2 11.9-36.98 26.08-60.85 42-47.74 31.81-107.83 70.6-168.2 112.12-60.39 41.52-121.08 85.79-170.04 128.6-48.94 42.8-86.23 84.19-99.71 119.96l.93.35c13.4-35.51 50.5-76.77 99.44-119.56 48.92-42.77 109.57-87.01 169.94-128.53C-64.05 202.1-3.98 163.33 43.78 131.5c23.87-15.91 44.67-30.1 60.89-42.01 16.2-11.91 27.87-21.6 33.45-28.52l-.78-.62zm-532.07 431.01c-6.74 17.88-7.5 31.2-3.73 41.07 3.77 9.9 12.03 16.22 23.06 20.2 11.01 3.98 24.84 5.64 39.86 6.19 15.03.54 31.29-.02 47.17-.53 15.89-.5 31.4-.95 44.95-.15 13.58.8 25.12 2.83 33.13 7.22 4 2.2 7.09 4.96 9.12 8.45 2.03 3.48 3.02 7.72 2.75 12.87-.55 10.32-6.16 24.28-18.54 43.09l.84.54c12.4-18.84 18.14-32.98 18.7-43.58.28-5.31-.74-9.75-2.89-13.42-2.14-3.68-5.39-6.57-9.5-8.83-8.21-4.5-19.95-6.54-33.55-7.34-13.61-.8-29.16-.36-45.04.15-15.9.5-32.12 1.07-47.1.53-14.99-.55-28.7-2.2-39.56-6.13-10.87-3.92-18.84-10.09-22.47-19.62-3.64-9.54-2.97-22.58 3.73-40.35l-.93-.36zm177.77 138.4c-24.77 37.63-49.6 69.52-72.98 98.85-23.38 29.33-45.33 56.1-64.29 83.48-37.94 54.78-63.97 112-65.88 196.99l1 .03c1.9-84.77 27.85-141.79 65.7-196.45 18.94-27.34 40.86-54.08 64.25-83.42 23.39-29.34 48.24-61.26 73.04-98.93l-.84-.54zm-203.15 379.32c-.47 21.29 4.65 34.32 14.19 41.02 9.52 6.68 23.26 6.93 39.7 3.08 16.47-3.86 35.77-11.86 56.52-21.85 20.75-9.99 42.99-21.98 65.32-33.83 22.34-11.85 44.78-23.57 65.95-33.02 21.19-9.46 41.08-16.64 58.32-19.44 17.26-2.8 31.78-1.19 42.3 6.81 10.53 7.99 17.2 22.46 18.52 45.7l1-.07c-1.33-23.37-8.05-38.19-18.9-46.43-10.86-8.23-25.7-9.8-43.08-7-17.37 2.82-37.36 10.04-58.56 19.51-21.21 9.47-43.68 21.2-66.02 33.06-22.34 11.85-44.55 23.83-65.29 33.81-20.73 9.98-39.95 17.94-56.3 21.77-16.38 3.84-29.75 3.51-38.9-2.92-9.14-6.41-14.24-19.02-13.77-40.17l-1-.03zm360.82-11.54c.98 17.04 1.14 41.24 1.59 68.79.45 27.55 1.18 58.41 3.28 88.73 2.1 30.32 5.57 60.11 11.5 85.49 5.93 25.37 14.34 46.42 26.35 59.18l.73-.68c-11.83-12.57-20.19-33.4-26.1-58.72-5.92-25.31-9.39-55.04-11.48-85.34-2.1-30.29-2.83-61.13-3.28-88.67-.45-27.53-.61-51.77-1.59-68.84l-1 .06zm42.72 302.19c19.06 20.25 41.5 25.68 65.94 23.29 24.41-2.38 50.88-12.57 78.06-23.58 27.21-11.02 55.15-22.88 82.63-28.68 27.45-5.8 54.38-5.54 79.56 7.61l.46-.88c-25.45-13.3-52.64-13.54-80.23-7.71-27.58 5.83-55.62 17.72-82.8 28.73-27.2 11.02-53.53 21.15-77.78 23.52-24.2 2.36-46.3-3.01-65.1-22.98l-.74.68zm306.2-21.36c14.92 7.8 20.42 24.51 21.1 45.71.7 21.18-3.43 46.63-7.55 71.66-4.12 25-8.23 49.58-7.45 68.9.38 9.67 1.99 18.07 5.46 24.58a25.31 25.31 0 0016.65 13.14l.25-.96a24.33 24.33 0 01-16.02-12.65c-3.37-6.32-4.96-14.55-5.35-24.15-.76-19.2 3.32-43.66 7.44-68.7 4.12-25 8.26-50.56 7.57-71.85-.68-21.28-6.21-38.5-21.65-46.56l-.46.88zm28.2 223.99c15.23 3.96 36.04 4.64 61.05 2.78 25.03-1.86 54.3-6.27 86.5-12.53 64.37-12.52 140.42-32.44 217.45-54.17 77.01-21.73 155.02-45.28 223.29-65.06 68.28-19.78 126.8-35.78 164.9-42.43l-.17-.98c-38.16 6.66-96.74 22.68-165 42.45-68.3 19.78-146.28 43.32-223.3 65.06-77.01 21.73-153.03 41.64-217.37 54.15-32.16 6.25-61.4 10.66-86.37 12.51-24.98 1.86-45.66 1.17-60.72-2.74l-.25.96z" fill="url(#paint0_linear)"/>
  </g>
  <defs>
    <linearGradient id="paint0_linear" x1="706.74" y1="310.54" x2="-92.7" y2="1302.06" gradientUnits="userSpaceOnUse">
      <stop stop-color="#339"/>
      <stop offset="1" stop-color="#339" stop-opacity=".54"/>
    </linearGradient>
  </defs>
</svg>