<svg width="1920" height="506" viewBox="0 0 1920 506" fill="none" xmlns="http://www.w3.org/2000/svg">
<mask id="mask0" mask-type="alpha" maskUnits="userSpaceOnUse" x="0" y="0" width="1920" height="506">
<path d="M1920 0L492.487 8.8659e-05L0 0V506H1378.06H1920V0Z" fill="#ECECED"/>
</mask>
<g mask="url(#mask0)">
<path opacity="0.2" d="M-117.07 510.772C-47.3274 615.678 320.135 649.708 320.135 503.131C320.135 460.475 61.831 185.734 126.155 98.1609C190.48 10.5876 351.528 254.141 374.95 145.57C398.372 36.9998 260.372 -54.6578 400.204 -136.063C540.035 -217.469 777.943 24.1094 947.059 -59.6539C1008.92 -90.2954 1027.46 -187.041 1120.5 -192.786C1268.22 -201.908 1364.62 -66.4383 1515.89 -52.8946C1606.58 -44.7746 1620.72 -151.857 1698.71 -136.063C1852.69 -104.88 2008.06 -17.2579 2145.76 53.1969" stroke="url(#paint0_linear)" stroke-linecap="round" stroke-linejoin="round"/>
<path opacity="0.2" d="M-359.627 294.197C-289.884 399.103 77.5786 433.133 77.5786 286.556C77.5786 243.9 -180.726 -30.841 -116.401 -118.414C-52.0771 -205.988 167.058 -9.84372 190.48 -118.414C213.902 -226.985 162.546 -291.358 302.377 -372.763C442.208 -454.169 493.745 -143.219 662.861 -226.982C724.726 -257.623 876.695 -346.893 969.742 -352.638C1117.46 -361.76 1117.31 -240.526 1268.58 -226.982C1359.27 -218.862 1411.71 -338.164 1489.7 -322.37C1643.67 -291.186 2007.96 -17.2724 2145.67 53.1824" stroke="url(#paint1_linear)" stroke-linecap="round" stroke-linejoin="round"/>
<path opacity="0.2" d="M-128.621 500.459C-58.8781 605.365 308.584 639.395 308.584 492.818C308.584 450.162 50.2802 175.421 114.604 87.8477C178.929 0.274453 342.743 241.57 366.165 133C389.587 24.4291 255.714 -65.9293 395.545 -147.335C535.376 -228.74 764.409 16.1413 933.525 -67.6219C995.39 -98.2634 1020.28 -194.653 1113.32 -200.399C1261.04 -209.52 1352.84 -74.7283 1504.11 -61.1845C1594.8 -53.0645 1610.77 -160.729 1688.76 -144.935C1842.73 -113.752 2008.05 -17.2587 2145.76 53.1961" stroke="url(#paint2_linear)"/>
<path opacity="0.2" d="M-140.171 490.146C-70.4279 595.052 297.035 629.082 297.035 482.505C297.035 439.849 38.7304 165.108 103.055 77.5346C167.379 -10.0387 333.959 229 357.382 120.429C380.804 11.8583 251.056 -77.2007 390.887 -158.606C530.718 -240.012 750.876 8.17327 919.993 -75.59C981.857 -106.231 1013.1 -202.265 1106.14 -208.011C1253.86 -217.132 1341.07 -83.0181 1492.33 -69.4744C1583.02 -61.3543 1600.82 -169.601 1678.81 -153.807C1832.78 -122.624 2008.05 -17.2594 2145.76 53.1954" stroke="url(#paint3_linear)"/>
<path opacity="0.2" d="M-151.725 479.833C-81.9817 584.739 285.481 618.769 285.481 472.192C285.481 429.536 27.1767 154.795 91.5009 67.2219C155.825 -20.3513 325.172 216.429 348.594 107.859C372.016 -0.711946 246.394 -88.4717 386.225 -169.877C526.056 -251.283 737.34 0.205717 906.456 -83.5575C968.321 -114.199 1005.91 -209.877 1098.96 -215.622C1246.68 -224.744 1329.29 -91.3076 1480.55 -77.7639C1571.24 -69.6438 1590.86 -178.472 1668.85 -162.678C1822.83 -131.495 2008.04 -17.2596 2145.75 53.1952" stroke="url(#paint4_linear)"/>
<path opacity="0.2" d="M-163.271 469.52C-93.5275 574.426 273.935 608.456 273.935 461.879C273.935 419.223 15.6308 144.482 79.9551 56.9089C144.279 -30.6643 316.392 203.859 339.814 95.2881C363.236 -13.2825 241.74 -99.7431 381.571 -181.149C521.402 -262.554 723.811 -7.76221 892.927 -91.5254C954.792 -122.167 998.74 -217.489 1091.79 -223.234C1239.51 -232.355 1317.51 -99.5973 1468.78 -86.0536C1559.47 -77.9335 1580.91 -187.344 1658.9 -171.55C1812.88 -140.367 2008.04 -17.2602 2145.75 53.1946" stroke="url(#paint5_linear)"/>
<path opacity="0.2" d="M-174.819 459.206C-105.076 564.113 262.386 598.142 262.386 451.565C262.386 408.909 4.08193 134.169 68.4062 46.5955C132.731 -40.9778 307.609 191.288 331.031 82.717C354.453 -25.8536 237.083 -111.015 376.914 -192.42C516.745 -273.826 710.279 -15.7306 879.396 -99.4938C941.26 -130.135 991.563 -225.101 1084.61 -230.846C1232.33 -239.968 1305.74 -107.888 1457.01 -94.3438C1547.7 -86.2238 1570.96 -196.216 1648.95 -180.422C1802.93 -149.239 2008.04 -17.2613 2145.74 53.1935" stroke="url(#paint6_linear)"/>
<path opacity="0.2" d="M-186.371 448.893C-116.628 553.8 250.835 587.83 250.835 441.252C250.835 398.596 -7.46981 123.856 56.8545 36.2824C121.179 -51.2909 298.823 178.717 322.245 70.1463C345.668 -38.4243 232.423 -122.286 372.254 -203.692C512.085 -285.097 696.744 -23.6986 865.861 -107.462C927.726 -138.103 984.382 -232.713 1077.43 -238.458C1225.15 -247.58 1293.96 -116.177 1445.23 -102.634C1535.92 -94.5137 1561.01 -205.088 1638.99 -189.294C1792.97 -158.11 2008.03 -17.262 2145.74 53.1928" stroke="url(#paint7_linear)"/>
<path opacity="0.2" d="M-197.923 438.58C-128.18 543.486 239.283 577.516 239.283 430.939C239.283 388.283 -19.0216 113.542 45.3027 25.9688C109.627 -61.6045 290.038 166.146 313.46 57.5751C336.882 -50.9955 227.763 -133.558 367.594 -214.964C507.426 -296.369 683.21 -31.667 852.326 -115.43C914.191 -146.072 977.202 -240.326 1070.25 -246.071C1217.97 -255.192 1282.18 -124.468 1433.45 -110.924C1524.14 -102.804 1551.05 -213.96 1629.04 -198.166C1783.02 -166.983 2008.03 -17.2631 2145.73 53.1917" stroke="url(#paint8_linear)"/>
<path opacity="0.2" d="M-209.47 428.267C-139.727 533.174 227.736 567.203 227.736 420.626C227.736 377.97 -30.5685 103.23 33.7558 15.6563C98.0801 -71.917 281.257 153.576 304.679 45.005C328.101 -63.5656 223.108 -144.829 362.939 -226.235C502.77 -307.64 669.68 -39.6344 838.796 -123.398C900.661 -154.039 970.026 -247.937 1063.07 -253.682C1210.79 -262.804 1270.41 -132.757 1421.68 -119.213C1512.37 -111.093 1541.1 -222.831 1619.09 -207.037C1773.07 -175.854 2008.02 -17.2632 2145.73 53.1916" stroke="url(#paint9_linear)"/>
<path opacity="0.2" d="M-221.023 417.954C-151.28 522.86 216.182 556.89 216.182 410.313C216.182 367.657 -42.1222 92.916 22.2021 5.34264C86.5264 -82.2307 272.469 141.004 295.891 32.4338C319.313 -76.1369 218.447 -156.101 358.278 -237.507C498.109 -318.912 656.143 -47.603 825.26 -131.366C887.124 -162.008 962.844 -255.549 1055.89 -261.295C1203.61 -270.416 1258.63 -141.048 1409.9 -127.504C1500.59 -119.384 1531.15 -231.703 1609.13 -215.909C1763.11 -184.726 2008.02 -17.2645 2145.72 53.1904" stroke="url(#paint10_linear)"/>
<path opacity="0.2" d="M-232.573 407.64C-162.83 512.547 204.632 546.577 204.632 400C204.632 357.344 -53.672 82.6028 10.6523 -4.97046C74.9766 -92.5437 263.685 128.434 287.107 19.8631C310.529 -88.7075 213.789 -167.372 353.62 -248.778C493.451 -330.183 642.611 -55.5709 811.727 -139.334C873.592 -169.976 955.665 -263.161 1048.71 -268.907C1196.43 -278.028 1246.85 -149.337 1398.12 -135.794C1488.81 -127.674 1521.19 -240.575 1599.18 -224.781C1753.16 -193.598 2008.01 -17.2651 2145.72 53.1897" stroke="url(#paint11_linear)"/>
<path opacity="0.2" d="M-244.12 397.328C-174.377 502.234 193.085 536.264 193.085 389.687C193.085 347.031 -65.2189 72.2901 -0.894581 -15.2831C63.4297 -102.856 254.904 115.863 278.326 7.29283C301.749 -101.278 209.134 -178.643 348.965 -260.049C488.796 -341.454 629.081 -63.5386 798.197 -147.302C860.062 -177.943 948.489 -270.773 1041.54 -276.518C1189.26 -285.64 1235.08 -157.627 1386.35 -144.083C1477.04 -135.963 1511.24 -249.446 1589.23 -233.652C1743.21 -202.469 2008.01 -17.2654 2145.72 53.1894" stroke="url(#paint12_linear)"/>
<path opacity="0.2" d="M-255.674 387.014C-185.931 491.921 181.532 525.95 181.532 379.373C181.532 336.717 -76.7725 61.9767 -12.4482 -25.5966C51.8761 -113.17 246.117 103.292 269.539 -5.27823C292.961 -113.849 204.472 -189.915 344.303 -271.321C484.134 -352.726 615.544 -71.5069 784.661 -155.27C846.525 -185.912 941.307 -278.385 1034.35 -284.131C1182.07 -293.252 1223.3 -165.917 1374.57 -152.373C1465.26 -144.253 1501.29 -258.318 1579.27 -242.524C1733.25 -211.341 2008 -17.2664 2145.71 53.1884" stroke="url(#paint13_linear)"/>
<path opacity="0.2" d="M-267.224 376.702C-197.481 481.608 169.982 515.638 169.982 369.061C169.982 326.405 -88.3224 51.6638 -23.9981 -35.9095C40.3262 -123.483 237.333 90.7219 260.755 -17.8487C284.177 -126.419 199.814 -201.186 339.645 -282.592C479.476 -363.998 602.011 -79.4747 771.128 -163.238C832.992 -193.879 934.128 -285.997 1027.17 -291.743C1174.9 -300.864 1211.53 -174.207 1362.79 -160.663C1453.48 -152.543 1491.33 -267.19 1569.32 -251.396C1723.3 -220.213 2008 -17.2669 2145.71 53.1879" stroke="url(#paint14_linear)"/>
<path opacity="0.2" d="M-278.775 366.388C-209.032 471.295 158.43 505.324 158.43 358.747C158.43 316.091 -99.8741 41.3508 -35.5498 -46.2224C28.7745 -133.796 228.547 78.1513 251.969 -30.4193C275.391 -138.99 195.154 -212.458 334.985 -293.863C474.816 -375.269 588.477 -87.4425 757.593 -171.206C819.458 -201.847 926.948 -293.609 1019.99 -299.354C1167.72 -308.476 1199.75 -182.496 1351.02 -168.953C1441.71 -160.833 1481.38 -276.061 1559.37 -260.267C1713.34 -229.084 2007.99 -17.2674 2145.7 53.1873" stroke="url(#paint15_linear)"/>
<path opacity="0.2" d="M-290.326 356.075C-220.583 460.982 146.879 495.011 146.879 348.434C146.879 305.778 -111.425 31.0375 -47.1006 -56.5358C17.2237 -144.109 219.762 65.5804 243.184 -42.9902C266.607 -151.561 190.495 -223.729 330.326 -305.135C470.158 -386.54 574.943 -95.4108 744.06 -179.174C805.924 -209.815 919.769 -301.221 1012.81 -306.967C1160.54 -316.088 1187.97 -190.787 1339.24 -177.243C1429.93 -169.123 1471.43 -284.934 1549.41 -269.139C1703.39 -237.956 2007.99 -17.2684 2145.7 53.1864" stroke="url(#paint16_linear)"/>
<path opacity="0.2" d="M-301.873 345.762C-232.13 450.668 135.332 484.698 135.332 338.121C135.332 295.465 -122.972 20.7238 -58.6475 -66.8495C5.67677 -154.423 210.981 53.0091 234.404 -55.5616C257.826 -164.132 185.84 -235.001 325.671 -316.407C465.502 -397.812 561.413 -103.379 730.53 -187.143C792.394 -217.784 912.593 -308.834 1005.64 -314.579C1153.36 -323.701 1176.2 -199.077 1327.47 -185.533C1418.16 -177.413 1461.48 -293.806 1539.46 -278.012C1693.44 -246.829 2007.99 -17.2697 2145.69 53.1851" stroke="url(#paint17_linear)"/>
<path opacity="0.2" d="M-313.425 335.449C-243.682 440.355 123.781 474.385 123.781 327.808C123.781 285.152 -134.524 10.4112 -70.1992 -77.162C-5.87496 -164.735 202.196 40.4389 225.618 -68.1317C249.04 -176.702 181.181 -246.272 321.012 -327.678C460.843 -409.083 547.879 -111.347 716.995 -195.11C778.86 -225.752 905.412 -316.445 998.459 -322.191C1146.18 -331.312 1164.42 -207.366 1315.69 -193.823C1406.38 -185.703 1451.52 -302.677 1529.51 -286.883C1683.49 -255.7 2007.98 -17.2698 2145.69 53.185" stroke="url(#paint18_linear)"/>
<path opacity="0.2" d="M-324.976 325.136C-255.233 430.042 112.23 464.072 112.23 317.495C112.23 274.839 -146.074 0.0984518 -81.75 -87.4748C-17.4257 -175.048 193.411 27.8686 216.833 -80.702C240.255 -189.273 176.522 -257.543 316.353 -338.949C456.184 -420.354 534.345 -119.314 703.461 -203.078C765.326 -233.719 898.233 -324.057 991.279 -329.802C1139 -338.924 1152.64 -215.656 1303.91 -202.112C1394.6 -193.992 1441.57 -311.548 1519.56 -295.754C1673.53 -264.571 2007.98 -17.2702 2145.68 53.1846" stroke="url(#paint19_linear)"/>
<path opacity="0.2" d="M-336.527 314.823C-266.784 419.729 100.678 453.759 100.678 307.182C100.678 264.526 -157.626 -10.2146 -93.3018 -97.7879C-28.9775 -185.361 184.625 15.2979 208.047 -93.2727C231.469 -201.843 171.862 -268.815 311.693 -350.22C451.524 -431.626 520.81 -127.282 689.927 -211.046C751.791 -241.687 891.052 -331.669 984.099 -337.414C1131.82 -346.536 1140.87 -223.946 1292.13 -210.402C1382.82 -202.282 1431.61 -320.42 1509.6 -304.626C1663.58 -273.443 2007.97 -17.2708 2145.68 53.184" stroke="url(#paint20_linear)"/>
<path opacity="0.2" d="M-348.075 304.51C-278.332 409.416 89.1303 443.446 89.1303 296.869C89.1303 254.213 -169.174 -20.5277 -104.85 -108.101C-40.5254 -195.674 175.843 2.72722 199.265 -105.843C222.688 -214.414 167.206 -280.086 307.037 -361.492C446.868 -442.897 507.279 -135.25 676.396 -219.014C738.26 -249.655 883.876 -339.281 976.922 -345.026C1124.64 -354.148 1129.09 -232.236 1280.36 -218.692C1371.05 -210.572 1421.66 -329.292 1499.65 -313.498C1653.63 -282.314 2007.97 -17.2715 2145.68 53.1833" stroke="url(#paint21_linear)"/>
<path opacity="0.2" d="M1958.55 46.4739C1893.44 -7.25347 1550.38 -24.6817 1550.38 50.3872C1550.38 72.2332 1791.53 212.941 1731.48 257.791C1671.43 302.641 1521.08 177.906 1499.21 233.51C1477.34 289.114 1606.18 336.056 1475.63 377.748C1345.09 419.439 1122.98 295.716 965.096 338.615C907.34 354.308 890.039 403.856 803.172 406.798C665.262 411.47 575.268 342.09 434.047 335.153C349.379 330.995 336.172 385.837 263.363 377.748C119.613 361.777 -25.4375 316.902 -153.999 280.819" stroke="url(#paint22_linear)" stroke-linecap="round" stroke-linejoin="round"/>
<path opacity="0.2" d="M2185 157.392C2119.89 103.665 1776.83 86.2364 1776.83 161.305C1776.83 183.151 2017.98 323.859 1957.93 368.709C1897.88 413.559 1693.29 313.105 1671.43 368.709C1649.56 424.313 1697.51 457.281 1566.96 498.973C1436.42 540.664 1388.3 381.412 1230.42 424.311C1172.66 440.004 1030.79 485.723 943.919 488.666C806.009 493.337 806.148 431.248 664.926 424.311C580.258 420.153 531.305 481.253 458.497 473.164C314.746 457.193 -25.35 316.909 -153.912 280.826" stroke="url(#paint23_linear)" stroke-linecap="round" stroke-linejoin="round"/>
<path opacity="0.2" d="M1969.34 51.7557C1904.22 -1.97161 1561.17 -19.3998 1561.17 55.669C1561.17 77.5151 1802.32 218.222 1742.26 263.073C1682.21 307.923 1529.28 184.344 1507.41 239.948C1485.54 295.552 1610.53 341.829 1479.98 383.52C1349.44 425.212 1135.61 299.797 977.73 342.696C919.974 358.389 896.741 407.754 809.875 410.697C671.964 415.368 586.262 346.335 445.041 339.399C360.373 335.24 345.464 390.38 272.655 382.291C128.905 366.321 -25.4333 316.903 -153.995 280.819" stroke="url(#paint24_linear)"/>
<path opacity="0.2" d="M1980.12 57.0376C1915 3.31025 1571.95 -14.1179 1571.95 60.9509C1571.95 82.797 1813.1 223.504 1753.04 268.355C1692.99 313.205 1537.47 190.782 1515.61 246.386C1493.74 301.99 1614.87 347.602 1484.33 389.293C1353.78 430.985 1148.25 303.878 990.361 346.777C932.605 362.47 903.439 411.653 816.573 414.595C678.663 419.267 597.253 350.581 456.031 343.645C371.363 339.486 354.752 394.924 281.943 386.835C138.193 370.865 -25.433 316.903 -153.995 280.82" stroke="url(#paint25_linear)"/>
<path opacity="0.2" d="M1990.9 62.3193C1925.79 8.59199 1582.73 -8.8362 1582.73 66.2326C1582.73 88.0787 1823.88 228.786 1763.83 273.636C1703.78 318.487 1545.68 197.22 1523.81 252.824C1501.95 308.428 1619.22 353.374 1488.68 395.066C1358.14 436.757 1160.88 307.958 1003 350.857C945.243 366.55 910.146 415.551 823.279 418.494C685.369 423.165 608.251 354.826 467.03 347.89C382.361 343.732 364.048 399.468 291.24 391.379C147.489 375.408 -25.4248 316.903 -153.986 280.82" stroke="url(#paint26_linear)"/>
<path opacity="0.2" d="M2001.68 67.601C1936.57 13.8737 1593.51 -3.55453 1593.51 71.5143C1593.51 93.3604 1834.66 234.068 1774.61 278.918C1714.56 323.768 1553.88 203.658 1532.01 259.262C1510.14 314.866 1623.57 359.147 1493.03 400.838C1362.48 442.53 1173.52 312.039 1015.63 354.938C957.876 370.631 916.846 419.449 829.979 422.392C692.069 427.064 619.243 359.072 478.022 352.136C393.354 347.977 373.338 404.011 300.53 395.922C156.779 379.952 -25.4228 316.903 -153.984 280.82" stroke="url(#paint27_linear)"/>
<path opacity="0.2" d="M2012.47 72.883C1947.36 19.1557 1604.3 1.72745 1604.3 76.7963C1604.3 98.6424 1845.45 239.35 1785.39 284.2C1725.34 329.05 1562.08 210.096 1540.21 265.7C1518.35 321.304 1627.92 364.919 1497.38 406.611C1366.83 448.302 1186.15 316.12 1028.27 359.019C970.51 374.712 923.548 423.348 836.682 426.291C698.771 430.962 630.237 363.318 489.016 356.381C404.348 352.223 382.63 408.555 309.822 400.466C166.071 384.496 -25.4184 316.904 -153.98 280.821" stroke="url(#paint28_linear)"/>
<path opacity="0.2" d="M2023.25 78.1647C1958.14 24.4374 1615.08 7.00919 1615.08 82.078C1615.08 103.924 1856.23 244.631 1796.18 289.482C1736.13 334.332 1570.28 216.534 1548.41 272.138C1526.55 327.742 1632.27 370.692 1501.72 412.383C1371.18 454.075 1198.79 320.201 1040.9 363.1C983.145 378.793 930.25 427.247 843.384 430.189C705.474 434.861 641.232 367.563 500.01 360.627C415.342 356.468 391.922 413.098 319.114 405.009C175.363 389.039 -25.4142 316.904 -153.976 280.821" stroke="url(#paint29_linear)"/>
<path opacity="0.2" d="M2034.04 83.4467C1968.92 29.7194 1625.87 12.2912 1625.87 87.36C1625.87 109.206 1867.02 249.913 1806.96 294.764C1746.91 339.614 1578.48 222.973 1556.62 278.577C1534.75 334.181 1636.62 376.465 1506.08 418.156C1375.53 459.848 1211.42 324.282 1053.54 367.181C995.781 382.874 936.955 431.145 850.088 434.088C712.178 438.759 652.228 371.809 511.007 364.873C426.339 360.714 401.216 417.642 328.408 409.553C184.657 393.583 -25.4081 316.905 -153.97 280.822" stroke="url(#paint30_linear)"/>
<path opacity="0.2" d="M2044.82 88.7283C1979.71 35.001 1636.65 17.5728 1636.65 92.6416C1636.65 114.488 1877.8 255.195 1817.74 300.045C1757.69 344.896 1586.68 229.41 1564.81 285.014C1542.95 340.618 1640.97 382.237 1510.42 423.929C1379.88 465.62 1224.05 328.362 1066.17 371.261C1008.41 386.954 943.655 435.043 856.788 437.986C718.878 442.657 663.22 376.055 521.999 369.118C437.331 364.96 410.507 422.186 337.698 414.097C193.948 398.126 -25.4057 316.905 -153.967 280.822" stroke="url(#paint31_linear)"/>
<path opacity="0.2" d="M2055.6 94.0103C1990.49 40.2829 1647.43 22.8547 1647.43 97.9236C1647.43 119.77 1888.58 260.477 1828.53 305.327C1768.48 350.178 1594.89 235.849 1573.02 291.453C1551.15 347.057 1645.32 388.01 1514.78 429.701C1384.23 471.393 1236.69 332.443 1078.81 375.342C1021.05 391.035 950.361 438.942 863.495 441.885C725.584 446.556 674.219 380.3 532.997 373.364C448.329 369.205 419.803 426.729 346.994 418.641C203.244 402.67 -25.3976 316.905 -153.959 280.822" stroke="url(#paint32_linear)"/>
<path opacity="0.2" d="M2066.39 99.2922C2001.28 45.5649 1658.22 28.1367 1658.22 103.206C1658.22 125.052 1899.37 265.759 1839.31 310.609C1779.26 355.459 1603.09 242.287 1581.22 297.891C1559.35 353.495 1649.67 393.783 1519.12 435.474C1388.58 477.166 1249.33 336.524 1091.44 379.423C1033.69 395.116 957.063 442.841 870.197 445.783C732.286 450.455 685.213 384.546 543.991 377.61C459.323 373.451 429.094 431.273 356.286 423.184C212.535 407.214 -25.3939 316.906 -153.955 280.823" stroke="url(#paint33_linear)"/>
<path opacity="0.2" d="M2077.17 104.574C2012.05 50.8464 1669 33.4182 1669 108.487C1669 130.333 1910.15 271.04 1850.09 315.891C1790.04 360.741 1611.28 248.725 1589.42 304.329C1567.55 359.933 1654.01 399.555 1523.47 441.247C1392.93 482.938 1261.96 340.605 1104.07 383.504C1046.32 399.196 963.762 446.739 876.895 449.681C738.985 454.353 696.203 388.791 554.982 381.855C470.314 377.696 438.383 435.816 365.574 427.728C221.824 411.757 -25.3934 316.906 -153.955 280.823" stroke="url(#paint34_linear)"/>
<path opacity="0.2" d="M2087.95 109.856C2022.84 56.1284 1679.78 38.7002 1679.78 113.769C1679.78 135.615 1920.93 276.322 1860.88 321.173C1800.83 366.023 1619.49 255.163 1597.62 310.767C1575.75 366.371 1658.37 405.328 1527.82 447.019C1397.28 488.711 1274.59 344.685 1116.71 387.584C1058.95 403.277 970.466 450.637 883.599 453.58C745.689 458.251 707.199 393.037 565.978 386.101C481.31 381.942 447.676 440.36 374.868 432.271C231.117 416.301 -25.3877 316.906 -153.949 280.823" stroke="url(#paint35_linear)"/>
<path opacity="0.2" d="M2098.73 115.137C2033.62 61.41 1690.57 43.9818 1690.57 119.051C1690.57 140.897 1931.71 281.604 1871.66 326.454C1811.61 371.305 1627.69 261.601 1605.82 317.205C1583.95 372.809 1662.71 411.1 1532.17 452.792C1401.63 494.483 1287.23 348.766 1129.34 391.665C1071.59 407.358 977.168 454.536 890.302 457.478C752.391 462.15 718.194 397.283 576.973 390.346C492.305 386.188 456.969 444.904 384.16 436.815C240.41 420.844 -25.3829 316.907 -153.944 280.824" stroke="url(#paint36_linear)"/>
<path opacity="0.2" d="M2109.52 120.419C2044.41 66.6921 1701.35 49.2639 1701.35 124.333C1701.35 146.179 1942.5 286.886 1882.45 331.736C1822.4 376.587 1635.89 268.039 1614.02 323.643C1592.16 379.247 1667.07 416.873 1536.52 458.564C1405.98 500.256 1299.86 352.847 1141.98 395.746C1084.22 411.439 983.872 458.434 897.005 461.377C759.095 466.048 729.19 401.528 587.968 394.592C503.3 390.433 466.262 449.447 393.454 441.359C249.703 425.388 -25.3776 316.907 -153.939 280.824" stroke="url(#paint37_linear)"/>
<path opacity="0.2" d="M2120.3 125.701C2055.19 71.9737 1712.13 54.5455 1712.13 129.614C1712.13 151.46 1953.28 292.168 1893.23 337.018C1833.18 381.868 1644.09 274.477 1622.22 330.081C1600.36 385.685 1671.41 422.646 1540.87 464.337C1410.32 506.029 1312.5 356.928 1154.61 399.827C1096.86 415.52 990.573 462.333 903.706 465.275C765.796 469.947 740.182 405.774 598.961 398.838C514.293 394.679 475.553 453.991 402.744 445.902C258.994 429.932 -25.375 316.907 -153.936 280.824" stroke="url(#paint38_linear)"/>
<path opacity="0.2" d="M2131.08 130.983C2065.97 77.2561 1722.91 59.8279 1722.91 134.897C1722.91 156.743 1964.06 297.45 1904.01 342.3C1843.96 387.151 1652.29 280.915 1630.42 336.519C1608.55 392.123 1675.76 428.419 1545.21 470.11C1414.67 511.802 1325.13 361.009 1167.24 403.908C1109.49 419.601 997.273 466.232 910.406 469.174C772.496 473.846 751.175 410.02 609.953 403.084C525.285 398.925 484.843 458.535 412.034 450.446C268.284 434.476 -25.3728 316.908 -153.934 280.825" stroke="url(#paint39_linear)"/>
<path opacity="0.2" d="M2141.87 136.265C2076.75 82.5373 1733.7 65.1091 1733.7 140.178C1733.7 162.024 1974.85 302.731 1914.79 347.582C1854.74 392.432 1660.49 287.353 1638.62 342.957C1616.76 398.561 1680.11 434.191 1549.56 475.882C1419.02 517.574 1337.76 365.089 1179.88 407.988C1122.12 423.681 1003.98 470.129 917.109 473.072C779.198 477.743 762.169 414.265 620.948 407.329C536.28 403.17 494.135 463.078 421.327 454.989C277.576 439.019 -25.3684 316.908 -153.93 280.825" stroke="url(#paint40_linear)"/>
<path opacity="0.2" d="M2152.65 141.546C2087.54 87.8189 1744.48 70.3907 1744.48 145.46C1744.48 167.306 1985.63 308.013 1925.58 352.863C1865.53 397.713 1668.69 293.791 1646.83 349.395C1624.96 404.998 1684.46 439.963 1553.92 481.655C1423.37 523.346 1350.4 369.17 1192.52 412.069C1134.76 427.762 1010.68 474.028 923.815 476.97C785.904 481.642 773.167 418.511 631.946 411.574C547.278 407.416 503.431 467.621 430.622 459.533C286.872 443.562 -25.3605 316.908 -153.922 280.825" stroke="url(#paint41_linear)"/>
<path opacity="0.2" d="M2163.43 146.828C2098.32 93.101 1755.26 75.6728 1755.26 150.742C1755.26 172.588 1996.41 313.295 1936.36 358.145C1876.31 402.995 1676.89 300.229 1655.03 355.833C1633.16 411.437 1688.81 445.736 1558.26 487.427C1427.72 529.119 1363.03 373.251 1205.15 416.15C1147.39 431.843 1017.38 477.926 930.515 480.869C792.605 485.54 784.159 422.756 642.938 415.82C558.27 411.661 512.721 472.165 439.913 464.076C296.162 448.106 -25.3583 316.909 -153.92 280.826" stroke="url(#paint42_linear)"/>
<path opacity="0.2" d="M2174.21 152.11C2109.1 98.3826 1766.05 80.9544 1766.05 156.023C1766.05 177.869 2007.2 318.577 1947.14 363.427C1887.09 408.277 1685.09 306.667 1663.23 362.271C1641.36 417.875 1693.16 451.508 1562.61 493.2C1432.07 534.891 1375.67 377.331 1217.78 420.23C1160.03 435.923 1024.08 481.825 937.215 484.767C799.305 489.439 795.152 427.002 653.93 420.066C569.262 415.907 522.011 476.709 449.203 468.62C305.452 452.65 -25.3559 316.909 -153.917 280.826" stroke="url(#paint43_linear)"/>
</g>
<defs>
<linearGradient id="paint0_linear" x1="1014.35" y1="601.515" x2="1014.35" y2="-193.227" gradientUnits="userSpaceOnUse">
<stop stop-color="#FFCD6B" stop-opacity="0"/>
<stop offset="1" stop-color="#FFCD6B"/>
</linearGradient>
<linearGradient id="paint1_linear" x1="893.021" y1="384.94" x2="893.021" y2="-386.485" gradientUnits="userSpaceOnUse">
<stop stop-color="#FFCD6B" stop-opacity="0"/>
<stop offset="1" stop-color="#FFCD6B"/>
</linearGradient>
<linearGradient id="paint2_linear" x1="1008.57" y1="591.202" x2="1008.57" y2="-200.841" gradientUnits="userSpaceOnUse">
<stop stop-color="#FFCD6B" stop-opacity="0"/>
<stop offset="1" stop-color="#FFCD6B"/>
</linearGradient>
<linearGradient id="paint3_linear" x1="1002.79" y1="580.889" x2="1002.79" y2="-208.455" gradientUnits="userSpaceOnUse">
<stop stop-color="#FFCD6B" stop-opacity="0"/>
<stop offset="1" stop-color="#FFCD6B"/>
</linearGradient>
<linearGradient id="paint4_linear" x1="997.011" y1="570.576" x2="997.011" y2="-216.069" gradientUnits="userSpaceOnUse">
<stop stop-color="#FFCD6B" stop-opacity="0"/>
<stop offset="1" stop-color="#FFCD6B"/>
</linearGradient>
<linearGradient id="paint5_linear" x1="991.238" y1="560.263" x2="991.238" y2="-223.683" gradientUnits="userSpaceOnUse">
<stop stop-color="#FFCD6B" stop-opacity="0"/>
<stop offset="1" stop-color="#FFCD6B"/>
</linearGradient>
<linearGradient id="paint6_linear" x1="985.462" y1="549.95" x2="985.462" y2="-231.297" gradientUnits="userSpaceOnUse">
<stop stop-color="#FFCD6B" stop-opacity="0"/>
<stop offset="1" stop-color="#FFCD6B"/>
</linearGradient>
<linearGradient id="paint7_linear" x1="979.684" y1="539.637" x2="979.684" y2="-238.912" gradientUnits="userSpaceOnUse">
<stop stop-color="#FFCD6B" stop-opacity="0"/>
<stop offset="1" stop-color="#FFCD6B"/>
</linearGradient>
<linearGradient id="paint8_linear" x1="973.905" y1="529.323" x2="973.905" y2="-246.526" gradientUnits="userSpaceOnUse">
<stop stop-color="#FFCD6B" stop-opacity="0"/>
<stop offset="1" stop-color="#FFCD6B"/>
</linearGradient>
<linearGradient id="paint9_linear" x1="968.131" y1="519.011" x2="968.131" y2="-254.14" gradientUnits="userSpaceOnUse">
<stop stop-color="#FFCD6B" stop-opacity="0"/>
<stop offset="1" stop-color="#FFCD6B"/>
</linearGradient>
<linearGradient id="paint10_linear" x1="962.35" y1="508.697" x2="962.35" y2="-261.755" gradientUnits="userSpaceOnUse">
<stop stop-color="#FFCD6B" stop-opacity="0"/>
<stop offset="1" stop-color="#FFCD6B"/>
</linearGradient>
<linearGradient id="paint11_linear" x1="956.573" y1="498.384" x2="956.573" y2="-269.369" gradientUnits="userSpaceOnUse">
<stop stop-color="#FFCD6B" stop-opacity="0"/>
<stop offset="1" stop-color="#FFCD6B"/>
</linearGradient>
<linearGradient id="paint12_linear" x1="950.799" y1="488.071" x2="950.799" y2="-276.983" gradientUnits="userSpaceOnUse">
<stop stop-color="#FFCD6B" stop-opacity="0"/>
<stop offset="1" stop-color="#FFCD6B"/>
</linearGradient>
<linearGradient id="paint13_linear" x1="945.019" y1="477.758" x2="945.019" y2="-286.283" gradientUnits="userSpaceOnUse">
<stop stop-color="#FFCD6B" stop-opacity="0"/>
<stop offset="1" stop-color="#FFCD6B"/>
</linearGradient>
<linearGradient id="paint14_linear" x1="939.241" y1="467.445" x2="939.241" y2="-297.406" gradientUnits="userSpaceOnUse">
<stop stop-color="#FFCD6B" stop-opacity="0"/>
<stop offset="1" stop-color="#FFCD6B"/>
</linearGradient>
<linearGradient id="paint15_linear" x1="933.463" y1="457.132" x2="933.463" y2="-308.531" gradientUnits="userSpaceOnUse">
<stop stop-color="#FFCD6B" stop-opacity="0"/>
<stop offset="1" stop-color="#FFCD6B"/>
</linearGradient>
<linearGradient id="paint16_linear" x1="927.685" y1="446.819" x2="927.685" y2="-319.659" gradientUnits="userSpaceOnUse">
<stop stop-color="#FFCD6B" stop-opacity="0"/>
<stop offset="1" stop-color="#FFCD6B"/>
</linearGradient>
<linearGradient id="paint17_linear" x1="921.911" y1="436.505" x2="921.911" y2="-330.791" gradientUnits="userSpaceOnUse">
<stop stop-color="#FFCD6B" stop-opacity="0"/>
<stop offset="1" stop-color="#FFCD6B"/>
</linearGradient>
<linearGradient id="paint18_linear" x1="916.132" y1="426.192" x2="916.132" y2="-341.924" gradientUnits="userSpaceOnUse">
<stop stop-color="#FFCD6B" stop-opacity="0"/>
<stop offset="1" stop-color="#FFCD6B"/>
</linearGradient>
<linearGradient id="paint19_linear" x1="910.354" y1="415.88" x2="910.354" y2="-353.06" gradientUnits="userSpaceOnUse">
<stop stop-color="#FFCD6B" stop-opacity="0"/>
<stop offset="1" stop-color="#FFCD6B"/>
</linearGradient>
<linearGradient id="paint20_linear" x1="904.575" y1="405.566" x2="904.575" y2="-364.199" gradientUnits="userSpaceOnUse">
<stop stop-color="#FFCD6B" stop-opacity="0"/>
<stop offset="1" stop-color="#FFCD6B"/>
</linearGradient>
<linearGradient id="paint21_linear" x1="898.8" y1="395.253" x2="898.8" y2="-375.341" gradientUnits="userSpaceOnUse">
<stop stop-color="#FFCD6B" stop-opacity="0"/>
<stop offset="1" stop-color="#FFCD6B"/>
</linearGradient>
<linearGradient id="paint22_linear" x1="902.277" y1="0" x2="902.277" y2="407.024" gradientUnits="userSpaceOnUse">
<stop stop-color="#FFCD6B" stop-opacity="0.63"/>
<stop offset="1" stop-color="#FFCD6B" stop-opacity="0.83"/>
</linearGradient>
<linearGradient id="paint23_linear" x1="1015.54" y1="110.918" x2="1015.54" y2="506" gradientUnits="userSpaceOnUse">
<stop stop-color="#FFCD6B" stop-opacity="0.63"/>
<stop offset="1" stop-color="#FFCD6B" stop-opacity="0.83"/>
</linearGradient>
<linearGradient id="paint24_linear" x1="907.671" y1="5.28186" x2="907.671" y2="410.923" gradientUnits="userSpaceOnUse">
<stop stop-color="#FFCD6B" stop-opacity="0.63"/>
<stop offset="1" stop-color="#FFCD6B" stop-opacity="0.83"/>
</linearGradient>
<linearGradient id="paint25_linear" x1="913.06" y1="10.5637" x2="913.06" y2="414.823" gradientUnits="userSpaceOnUse">
<stop stop-color="#FFCD6B" stop-opacity="0.63"/>
<stop offset="1" stop-color="#FFCD6B" stop-opacity="0.83"/>
</linearGradient>
<linearGradient id="paint26_linear" x1="918.458" y1="15.8455" x2="918.458" y2="418.722" gradientUnits="userSpaceOnUse">
<stop stop-color="#FFCD6B" stop-opacity="0.63"/>
<stop offset="1" stop-color="#FFCD6B" stop-opacity="0.83"/>
</linearGradient>
<linearGradient id="paint27_linear" x1="923.85" y1="21.1271" x2="923.85" y2="422.622" gradientUnits="userSpaceOnUse">
<stop stop-color="#FFCD6B" stop-opacity="0.63"/>
<stop offset="1" stop-color="#FFCD6B" stop-opacity="0.83"/>
</linearGradient>
<linearGradient id="paint28_linear" x1="929.243" y1="26.4091" x2="929.243" y2="426.522" gradientUnits="userSpaceOnUse">
<stop stop-color="#FFCD6B" stop-opacity="0.63"/>
<stop offset="1" stop-color="#FFCD6B" stop-opacity="0.83"/>
</linearGradient>
<linearGradient id="paint29_linear" x1="934.637" y1="31.6909" x2="934.637" y2="430.421" gradientUnits="userSpaceOnUse">
<stop stop-color="#FFCD6B" stop-opacity="0.63"/>
<stop offset="1" stop-color="#FFCD6B" stop-opacity="0.83"/>
</linearGradient>
<linearGradient id="paint30_linear" x1="940.033" y1="36.9728" x2="940.033" y2="434.321" gradientUnits="userSpaceOnUse">
<stop stop-color="#FFCD6B" stop-opacity="0.63"/>
<stop offset="1" stop-color="#FFCD6B" stop-opacity="0.83"/>
</linearGradient>
<linearGradient id="paint31_linear" x1="945.425" y1="42.2545" x2="945.425" y2="438.22" gradientUnits="userSpaceOnUse">
<stop stop-color="#FFCD6B" stop-opacity="0.63"/>
<stop offset="1" stop-color="#FFCD6B" stop-opacity="0.83"/>
</linearGradient>
<linearGradient id="paint32_linear" x1="950.822" y1="47.5364" x2="950.822" y2="442.12" gradientUnits="userSpaceOnUse">
<stop stop-color="#FFCD6B" stop-opacity="0.63"/>
<stop offset="1" stop-color="#FFCD6B" stop-opacity="0.83"/>
</linearGradient>
<linearGradient id="paint33_linear" x1="956.216" y1="52.8184" x2="956.216" y2="446.02" gradientUnits="userSpaceOnUse">
<stop stop-color="#FFCD6B" stop-opacity="0.63"/>
<stop offset="1" stop-color="#FFCD6B" stop-opacity="0.83"/>
</linearGradient>
<linearGradient id="paint34_linear" x1="961.606" y1="58.0999" x2="961.606" y2="449.919" gradientUnits="userSpaceOnUse">
<stop stop-color="#FFCD6B" stop-opacity="0.63"/>
<stop offset="1" stop-color="#FFCD6B" stop-opacity="0.83"/>
</linearGradient>
<linearGradient id="paint35_linear" x1="967.001" y1="63.3818" x2="967.001" y2="454.682" gradientUnits="userSpaceOnUse">
<stop stop-color="#FFCD6B" stop-opacity="0.63"/>
<stop offset="1" stop-color="#FFCD6B" stop-opacity="0.83"/>
</linearGradient>
<linearGradient id="paint36_linear" x1="972.395" y1="68.6635" x2="972.395" y2="460.378" gradientUnits="userSpaceOnUse">
<stop stop-color="#FFCD6B" stop-opacity="0.63"/>
<stop offset="1" stop-color="#FFCD6B" stop-opacity="0.83"/>
</linearGradient>
<linearGradient id="paint37_linear" x1="977.79" y1="73.9456" x2="977.79" y2="466.076" gradientUnits="userSpaceOnUse">
<stop stop-color="#FFCD6B" stop-opacity="0.63"/>
<stop offset="1" stop-color="#FFCD6B" stop-opacity="0.83"/>
</linearGradient>
<linearGradient id="paint38_linear" x1="983.182" y1="79.2272" x2="983.182" y2="471.776" gradientUnits="userSpaceOnUse">
<stop stop-color="#FFCD6B" stop-opacity="0.63"/>
<stop offset="1" stop-color="#FFCD6B" stop-opacity="0.83"/>
</linearGradient>
<linearGradient id="paint39_linear" x1="988.574" y1="84.5095" x2="988.574" y2="477.477" gradientUnits="userSpaceOnUse">
<stop stop-color="#FFCD6B" stop-opacity="0.63"/>
<stop offset="1" stop-color="#FFCD6B" stop-opacity="0.83"/>
</linearGradient>
<linearGradient id="paint40_linear" x1="993.968" y1="89.7908" x2="993.968" y2="483.178" gradientUnits="userSpaceOnUse">
<stop stop-color="#FFCD6B" stop-opacity="0.63"/>
<stop offset="1" stop-color="#FFCD6B" stop-opacity="0.83"/>
</linearGradient>
<linearGradient id="paint41_linear" x1="999.365" y1="95.0724" x2="999.365" y2="488.882" gradientUnits="userSpaceOnUse">
<stop stop-color="#FFCD6B" stop-opacity="0.63"/>
<stop offset="1" stop-color="#FFCD6B" stop-opacity="0.83"/>
</linearGradient>
<linearGradient id="paint42_linear" x1="1004.76" y1="100.354" x2="1004.76" y2="494.587" gradientUnits="userSpaceOnUse">
<stop stop-color="#FFCD6B" stop-opacity="0.63"/>
<stop offset="1" stop-color="#FFCD6B" stop-opacity="0.83"/>
</linearGradient>
<linearGradient id="paint43_linear" x1="1010.15" y1="105.636" x2="1010.15" y2="500.293" gradientUnits="userSpaceOnUse">
<stop stop-color="#FFCD6B" stop-opacity="0.63"/>
<stop offset="1" stop-color="#FFCD6B" stop-opacity="0.83"/>
</linearGradient>
</defs>
</svg>
