<svg width="1920" height="894" viewBox="0 0 1920 894" fill="none" xmlns="http://www.w3.org/2000/svg">
<mask id="mask0" mask-type="alpha" maskUnits="userSpaceOnUse" x="-1" y="0" width="1922" height="894">
<path d="M-1 0H376H1921V894H-1V0Z" fill="#EDEDEE"/>
</mask>
<g mask="url(#mask0)">
<path opacity="0.2" d="M2105.69 1081.65C2026.25 1193.04 1607.65 1229.17 1607.65 1073.54C1607.65 1028.25 1901.9 736.548 1828.62 643.568C1755.35 550.588 1571.89 809.179 1545.21 693.905C1518.53 578.631 1675.73 481.314 1516.44 394.883C1357.16 308.451 1086.15 564.945 893.497 476.01C823.025 443.476 801.914 340.758 695.921 334.657C527.646 324.973 417.837 468.806 245.522 483.186C142.212 491.808 126.097 378.114 37.2574 394.883C-138.144 427.991 -315.131 521.023 -471.999 595.828" stroke="url(#paint0_linear)" stroke-linecap="round" stroke-linejoin="round"/>
<path opacity="0.2" d="M2382 851.707C2302.55 963.09 1883.96 999.221 1883.96 843.594C1883.96 798.305 2178.21 506.601 2104.93 413.621C2031.66 320.641 1782.03 528.895 1755.35 413.621C1728.67 298.347 1787.17 230 1627.88 143.569C1468.59 57.137 1409.89 387.285 1217.24 298.351C1146.77 265.817 973.651 171.036 867.658 164.936C699.383 155.251 699.552 283.971 527.237 298.351C423.927 306.972 364.195 180.304 275.355 197.073C99.954 230.182 -315.024 521.008 -471.893 595.812" stroke="url(#paint1_linear)" stroke-linecap="round" stroke-linejoin="round"/>
<path opacity="0.2" d="M2118.85 1070.7C2039.4 1182.09 1620.81 1218.22 1620.81 1062.59C1620.81 1017.3 1915.06 725.598 1841.78 632.618C1768.51 539.638 1581.9 795.832 1555.22 680.558C1528.54 565.284 1681.04 469.347 1521.75 382.915C1362.46 296.484 1101.56 556.485 908.914 467.55C838.442 435.017 810.093 332.676 704.1 326.576C535.825 316.891 431.253 460.005 258.938 474.385C155.627 483.006 137.436 368.694 48.5961 385.463C-126.805 418.572 -315.125 521.023 -471.994 595.827" stroke="url(#paint2_linear)"/>
<path opacity="0.2" d="M2132.01 1059.75C2052.56 1171.14 1633.97 1207.27 1633.97 1051.64C1633.97 1006.35 1928.21 714.649 1854.94 621.668C1781.66 528.688 1591.91 782.485 1565.22 667.211C1538.54 551.937 1686.34 457.38 1527.06 370.948C1367.77 284.517 1116.98 548.025 924.329 459.09C853.857 426.556 818.27 324.594 712.277 318.494C544.001 308.809 444.667 451.203 272.351 465.583C169.041 474.204 148.772 359.275 59.9327 376.044C-115.469 409.152 -315.122 521.022 -471.99 595.826" stroke="url(#paint3_linear)"/>
<path opacity="0.2" d="M2145.17 1048.8C2065.72 1160.19 1647.13 1196.32 1647.13 1040.69C1647.13 995.402 1941.37 703.699 1868.1 610.719C1794.82 517.739 1601.91 769.138 1575.23 653.864C1548.55 538.59 1691.65 445.412 1532.36 358.981C1373.08 272.549 1132.39 539.565 939.746 450.63C869.274 418.097 826.449 316.512 720.456 310.412C552.18 300.727 458.083 442.401 285.767 456.781C182.457 465.403 160.111 349.855 71.2718 366.624C-104.13 399.733 -315.116 521.021 -471.984 595.826" stroke="url(#paint4_linear)"/>
<path opacity="0.2" d="M2158.32 1037.85C2078.88 1149.24 1660.28 1185.37 1660.28 1029.74C1660.28 984.452 1954.53 692.749 1881.25 599.769C1807.98 506.789 1611.92 755.791 1585.24 640.517C1558.56 525.244 1696.96 433.445 1537.67 347.013C1378.38 260.582 1147.81 531.105 955.161 442.17C884.689 409.637 834.625 308.43 728.632 302.33C560.357 292.645 471.496 433.6 299.181 447.98C195.87 456.601 171.448 340.436 82.6084 357.205C-92.7932 390.313 -315.112 521.02 -471.98 595.825" stroke="url(#paint5_linear)"/>
<path opacity="0.2" d="M2171.48 1026.9C2092.03 1138.29 1673.44 1174.42 1673.44 1018.79C1673.44 973.502 1967.69 681.799 1894.41 588.819C1821.14 495.839 1621.93 742.444 1595.24 627.171C1568.56 511.897 1702.26 421.478 1542.98 335.046C1383.69 248.615 1163.23 522.645 970.578 433.71C900.106 401.177 842.804 300.348 736.811 294.248C568.536 284.563 484.912 424.798 312.597 439.178C209.286 447.799 182.787 331.016 93.9473 347.785C-81.4543 380.894 -315.106 521.02 -471.974 595.824" stroke="url(#paint6_linear)"/>
<path opacity="0.2" d="M2184.64 1015.95C2105.19 1127.34 1686.6 1163.47 1686.6 1007.84C1686.6 962.553 1980.84 670.849 1907.57 577.869C1834.29 484.889 1631.93 729.098 1605.25 613.824C1578.57 498.55 1707.57 409.51 1548.28 323.079C1388.99 236.647 1178.64 514.185 985.993 425.25C915.521 392.717 850.981 292.266 744.988 286.166C576.712 276.481 498.326 415.996 326.01 430.376C222.7 438.998 194.123 321.597 105.284 338.366C-70.1177 371.474 -315.102 521.019 -471.97 595.824" stroke="url(#paint7_linear)"/>
<path opacity="0.2" d="M2197.79 1005.01C2118.35 1116.39 1699.76 1152.52 1699.76 996.892C1699.76 951.603 1994 659.899 1920.73 566.919C1847.45 473.939 1641.94 715.751 1615.26 600.477C1588.58 485.203 1712.88 397.543 1553.59 311.111C1394.3 224.68 1194.06 505.725 1001.41 416.79C930.938 384.257 859.159 284.184 753.166 278.084C584.891 268.399 511.741 407.195 339.426 421.575C236.116 430.196 205.462 312.177 116.623 328.946C-58.779 362.055 -315.096 521.018 -471.965 595.823" stroke="url(#paint8_linear)"/>
<path opacity="0.2" d="M2210.95 994.055C2131.51 1105.44 1712.91 1141.57 1712.91 985.942C1712.91 940.653 2007.16 648.949 1933.88 555.969C1860.61 462.989 1651.95 702.404 1625.26 587.13C1598.58 471.856 1718.18 385.575 1558.9 299.144C1399.61 212.712 1209.48 497.265 1016.83 408.33C946.355 375.797 867.338 276.102 761.345 270.002C593.07 260.317 525.157 398.393 352.842 412.773C249.531 421.394 216.801 302.758 127.961 319.527C-47.4401 352.635 -315.091 521.017 -471.959 595.822" stroke="url(#paint9_linear)"/>
<path opacity="0.2" d="M2224.11 983.105C2144.66 1094.49 1726.07 1130.62 1726.07 974.993C1726.07 929.703 2020.32 638 1947.04 545.019C1873.77 452.039 1661.95 689.057 1635.27 573.783C1608.59 458.509 1723.49 373.608 1564.2 287.177C1404.92 200.745 1224.89 488.805 1032.24 399.87C961.772 367.337 875.517 268.02 769.524 261.92C601.249 252.235 538.573 389.591 366.258 403.971C262.948 412.592 228.14 293.338 139.301 310.107C-36.101 343.216 -315.084 521.017 -471.953 595.821" stroke="url(#paint10_linear)"/>
<path opacity="0.2" d="M2237.27 972.155C2157.82 1083.54 1739.23 1119.67 1739.23 964.043C1739.23 918.753 2033.47 627.05 1960.2 534.07C1886.92 441.089 1671.96 675.71 1645.28 560.436C1618.6 445.163 1728.8 361.641 1569.51 275.209C1410.22 188.778 1240.31 480.345 1047.66 391.41C977.187 358.877 883.693 259.938 777.7 253.838C609.425 244.153 551.987 380.789 379.671 395.169C276.361 403.791 239.476 283.919 150.637 300.688C-24.7648 333.796 -315.081 521.016 -471.949 595.821" stroke="url(#paint11_linear)"/>
<path opacity="0.2" d="M2250.42 961.206C2170.98 1072.59 1752.38 1108.72 1752.38 953.093C1752.38 907.803 2046.63 616.1 1973.36 523.12C1900.08 430.14 1681.96 662.363 1655.28 547.09C1628.6 431.816 1734.1 349.673 1574.81 263.242C1415.53 176.81 1255.72 471.885 1063.07 382.95C992.602 350.417 891.87 251.856 785.877 245.756C617.602 236.071 565.401 371.988 393.085 386.368C289.775 394.989 250.813 274.499 161.974 291.268C-13.4279 324.377 -315.077 521.015 -471.945 595.82" stroke="url(#paint12_linear)"/>
<path opacity="0.2" d="M2263.58 950.256C2184.13 1061.64 1765.54 1097.77 1765.54 942.143C1765.54 896.853 2059.79 605.15 1986.51 512.17C1913.24 419.19 1691.97 649.017 1665.29 533.743C1638.61 418.469 1739.41 337.706 1580.12 251.275C1420.83 164.843 1271.14 463.425 1078.49 374.49C1008.02 341.957 900.049 243.774 794.056 237.674C625.781 227.989 578.817 363.186 406.501 377.566C303.191 386.187 262.152 265.08 173.313 281.849C-2.08897 314.957 -315.071 521.014 -471.939 595.819" stroke="url(#paint13_linear)"/>
<path opacity="0.2" d="M2276.74 939.306C2197.29 1050.69 1778.7 1086.82 1778.7 931.193C1778.7 885.904 2072.95 594.2 1999.67 501.22C1926.4 408.24 1701.98 635.67 1675.3 520.396C1648.62 405.122 1744.72 325.739 1585.43 239.307C1426.14 152.876 1286.56 454.965 1093.91 366.03C1023.44 333.497 908.228 235.692 802.235 229.592C633.959 219.907 592.232 354.384 419.917 368.764C316.607 377.386 273.491 255.66 184.651 272.429C9.24974 305.538 -315.065 521.014 -471.934 595.818" stroke="url(#paint14_linear)"/>
<path opacity="0.2" d="M2289.9 928.356C2210.45 1039.74 1791.86 1075.87 1791.86 920.243C1791.86 874.954 2086.1 583.25 2012.83 490.27C1939.55 397.29 1711.98 622.323 1685.3 507.049C1658.62 391.775 1750.02 313.771 1590.73 227.34C1431.45 140.908 1301.97 446.505 1109.32 357.57C1038.85 325.037 916.404 227.61 810.411 221.51C642.136 211.825 605.646 345.583 433.331 359.963C330.02 368.584 284.828 246.241 195.988 263.01C20.5865 296.118 -315.062 521.013 -471.93 595.818" stroke="url(#paint15_linear)"/>
<path opacity="0.2" d="M2303.05 917.406C2223.61 1028.79 1805.01 1064.92 1805.01 909.293C1805.01 864.004 2099.26 572.3 2025.99 479.32C1952.71 386.34 1721.99 608.976 1695.31 493.702C1668.63 378.428 1755.33 301.804 1596.04 215.373C1436.75 128.941 1317.39 438.045 1124.74 349.11C1054.27 316.577 924.583 219.528 818.59 213.428C650.315 203.743 619.062 336.781 446.746 351.161C343.436 359.782 296.166 236.821 207.327 253.59C31.9254 286.699 -315.056 521.012 -471.924 595.817" stroke="url(#paint16_linear)"/>
<path opacity="0.2" d="M2316.21 906.456C2236.77 1017.84 1818.17 1053.97 1818.17 898.344C1818.17 853.054 2112.42 561.351 2039.14 468.37C1965.87 375.39 1732 595.629 1705.32 480.355C1678.64 365.081 1760.64 289.837 1601.35 203.405C1442.06 116.974 1332.81 429.585 1140.16 340.65C1069.69 308.117 932.762 211.446 826.769 205.346C658.493 195.661 632.477 327.979 460.162 342.359C356.852 350.98 307.505 227.402 218.665 244.171C43.2639 277.279 -315.05 521.011 -471.918 595.816" stroke="url(#paint17_linear)"/>
<path opacity="0.2" d="M2329.37 895.506C2249.92 1006.89 1831.33 1043.02 1831.33 887.394C1831.33 842.104 2125.58 550.401 2052.3 457.421C1979.03 364.44 1742.01 582.282 1715.32 467.009C1688.64 351.735 1765.94 277.869 1606.66 191.438C1447.37 105.006 1348.22 421.125 1155.58 332.19C1085.1 299.657 940.941 203.364 834.948 197.264C666.672 187.579 645.893 319.177 473.578 333.557C370.268 342.179 318.844 217.982 230.004 234.751C54.6028 267.86 -315.044 521.011 -471.912 595.815" stroke="url(#paint18_linear)"/>
<path opacity="0.2" d="M2342.53 884.557C2263.08 995.94 1844.49 1032.07 1844.49 876.444C1844.49 831.154 2138.73 539.451 2065.46 446.471C1992.18 353.491 1752.01 568.936 1725.33 453.662C1698.65 338.388 1771.25 265.902 1611.96 179.471C1452.67 93.039 1363.64 412.665 1170.99 323.73C1100.52 291.197 949.117 195.282 843.124 189.182C674.849 179.497 659.307 310.376 486.992 324.756C383.681 333.377 330.18 208.563 241.341 225.332C65.9394 258.44 -315.04 521.01 -471.908 595.815" stroke="url(#paint19_linear)"/>
<path opacity="0.2" d="M2355.69 873.607C2276.24 984.99 1857.65 1021.12 1857.65 865.494C1857.65 820.204 2151.89 528.501 2078.62 435.521C2005.34 342.541 1762.02 555.589 1735.34 440.315C1708.66 325.041 1776.56 253.935 1617.27 167.503C1457.98 81.0717 1379.05 404.205 1186.41 315.271C1115.93 282.737 957.296 187.2 851.303 181.1C683.028 171.415 672.723 301.574 500.407 315.954C397.097 324.575 341.519 199.143 252.68 215.912C77.2783 249.021 -315.034 521.009 -471.903 595.814" stroke="url(#paint20_linear)"/>
<path opacity="0.2" d="M2368.84 862.657C2289.39 974.04 1870.8 1010.17 1870.8 854.544C1870.8 809.255 2165.05 517.551 2091.77 424.571C2018.5 331.591 1772.02 542.242 1745.34 426.968C1718.66 311.694 1781.86 241.967 1622.57 155.536C1463.29 69.1044 1394.47 395.745 1201.82 306.811C1131.35 274.277 965.473 179.118 859.48 173.018C691.204 163.333 686.136 292.772 513.821 307.152C410.511 315.774 352.856 189.724 264.017 206.493C88.6151 239.601 -315.031 521.008 -471.899 595.813" stroke="url(#paint21_linear)"/>
<path opacity="0.2" d="M-327.568 582.346C-250.961 470.963 152.672 434.832 152.672 590.459C152.672 635.748 -131.058 927.452 -60.4018 1020.43C10.254 1113.41 187.155 854.821 212.882 970.095C238.61 1085.37 87.0266 1182.69 240.621 1269.12C394.216 1355.55 655.542 1099.06 841.305 1187.99C909.259 1220.52 929.614 1323.24 1031.82 1329.34C1194.08 1339.03 1299.96 1195.19 1466.12 1180.81C1565.74 1172.19 1581.28 1285.89 1666.94 1269.12C1836.08 1236.01 2006.74 1142.98 2158 1068.17" stroke="url(#paint22_linear)" stroke-linecap="round" stroke-linejoin="round"/>
<path opacity="0.2" d="M-594 812.293C-517.392 700.91 -113.76 664.779 -113.76 820.406C-113.76 865.695 -397.489 1157.4 -326.833 1250.38C-256.178 1343.36 -15.4733 1135.1 10.2543 1250.38C35.9819 1365.65 -20.4288 1434 133.166 1520.43C286.761 1606.86 343.37 1276.71 529.133 1365.65C597.087 1398.18 764.015 1492.96 866.22 1499.06C1028.48 1508.75 1028.32 1380.03 1194.47 1365.65C1294.09 1357.03 1351.69 1483.7 1437.35 1466.93C1606.49 1433.82 2006.63 1142.99 2157.9 1068.19" stroke="url(#paint23_linear)" stroke-linecap="round" stroke-linejoin="round"/>
<path opacity="0.2" d="M-340.256 593.296C-263.648 481.913 139.984 445.782 139.984 601.409C139.984 646.698 -143.745 938.402 -73.0893 1031.38C-2.43348 1124.36 177.505 868.168 203.233 983.442C228.961 1098.72 81.9094 1194.65 235.504 1281.08C389.099 1367.52 640.676 1107.52 826.439 1196.45C894.393 1228.98 921.728 1331.32 1023.93 1337.42C1186.19 1347.11 1287.03 1204 1453.19 1189.62C1552.8 1180.99 1570.35 1295.31 1656.01 1278.54C1825.14 1245.43 2006.73 1142.98 2157.99 1068.17" stroke="url(#paint24_linear)"/>
<path opacity="0.2" d="M-352.943 604.246C-276.336 492.862 127.297 456.732 127.297 612.358C127.297 657.648 -156.433 949.351 -85.7768 1042.33C-15.121 1135.31 167.856 881.515 193.584 996.789C219.311 1112.06 76.7922 1206.62 230.387 1293.05C383.982 1379.48 625.811 1115.98 811.574 1204.91C879.528 1237.44 913.843 1339.41 1016.05 1345.51C1178.31 1355.19 1274.09 1212.8 1440.25 1198.42C1539.87 1189.8 1559.41 1304.73 1645.08 1287.96C1814.21 1254.85 2006.73 1142.98 2157.99 1068.17" stroke="url(#paint25_linear)"/>
<path opacity="0.2" d="M-365.631 615.196C-289.023 503.812 114.609 467.681 114.609 623.308C114.609 668.598 -169.12 960.301 -98.4643 1053.28C-27.8085 1146.26 158.207 894.862 183.935 1010.14C209.662 1125.41 71.675 1218.59 225.27 1305.02C378.865 1391.45 610.945 1124.44 796.708 1213.37C864.662 1245.9 905.956 1347.49 1008.16 1353.59C1170.42 1363.27 1261.16 1221.6 1427.31 1207.22C1526.93 1198.6 1548.48 1314.14 1634.14 1297.38C1803.28 1264.27 2006.72 1142.98 2157.98 1068.17" stroke="url(#paint26_linear)"/>
<path opacity="0.2" d="M-378.316 626.145C-301.709 514.762 101.924 478.631 101.924 634.258C101.924 679.548 -181.806 971.251 -111.15 1064.23C-40.494 1157.21 148.56 908.209 174.287 1023.48C200.015 1138.76 66.5598 1230.56 220.155 1316.99C373.749 1403.42 596.082 1132.9 781.844 1221.83C849.798 1254.36 898.073 1355.57 1000.28 1361.67C1162.54 1371.36 1248.22 1230.4 1414.38 1216.02C1514 1207.4 1537.55 1323.56 1623.21 1306.8C1792.35 1273.69 2006.72 1142.98 2157.98 1068.17" stroke="url(#paint27_linear)"/>
<path opacity="0.2" d="M-391.004 637.095C-314.396 525.712 89.2363 489.581 89.2363 645.208C89.2363 690.498 -194.493 982.201 -123.837 1075.18C-53.1816 1168.16 138.91 921.556 164.638 1036.83C190.366 1152.1 61.4425 1242.52 215.037 1328.95C368.632 1415.39 581.216 1141.36 766.979 1230.29C834.933 1262.82 890.187 1363.65 992.391 1369.75C1154.65 1379.44 1235.29 1239.2 1401.44 1224.82C1501.06 1216.2 1526.62 1332.98 1612.28 1316.21C1781.41 1283.11 2006.71 1142.98 2157.98 1068.18" stroke="url(#paint28_linear)"/>
<path opacity="0.2" d="M-403.691 648.045C-327.084 536.662 76.5489 500.531 76.5489 656.158C76.5489 701.447 -207.181 993.151 -136.525 1086.13C-65.869 1179.11 129.261 934.902 154.989 1050.18C180.717 1165.45 56.3253 1254.49 209.92 1340.92C363.515 1427.35 566.35 1149.82 752.113 1238.75C820.067 1271.28 882.301 1371.73 984.506 1377.83C1146.77 1387.52 1222.35 1248 1388.51 1233.62C1488.13 1225 1515.68 1342.4 1601.35 1325.63C1770.48 1292.53 2006.71 1142.98 2157.97 1068.18" stroke="url(#paint29_linear)"/>
<path opacity="0.2" d="M-416.379 658.995C-339.771 547.612 63.8613 511.481 63.8613 667.108C63.8613 712.397 -219.868 1004.1 -149.212 1097.08C-78.5566 1190.06 119.612 948.249 145.34 1063.52C171.067 1178.8 51.2081 1266.46 204.803 1352.89C358.398 1439.32 551.485 1158.28 737.247 1247.21C805.201 1279.74 874.415 1379.82 976.619 1385.92C1138.88 1395.6 1209.42 1256.81 1375.57 1242.43C1475.19 1233.8 1504.75 1351.82 1590.41 1335.05C1759.55 1301.95 2006.7 1142.98 2157.97 1068.18" stroke="url(#paint30_linear)"/>
<path opacity="0.2" d="M-429.066 669.945C-352.459 558.562 51.1739 522.431 51.1739 678.058C51.1739 723.347 -232.556 1015.05 -161.9 1108.03C-91.244 1201.01 109.963 961.596 135.69 1076.87C161.418 1192.14 46.0909 1278.42 199.686 1364.86C353.281 1451.29 536.619 1166.74 722.382 1255.67C790.336 1288.2 866.529 1387.9 968.734 1394C1130.99 1403.68 1196.48 1265.61 1362.64 1251.23C1462.26 1242.61 1493.82 1361.24 1579.48 1344.47C1748.61 1311.36 2006.7 1142.98 2157.96 1068.18" stroke="url(#paint31_linear)"/>
<path opacity="0.2" d="M-441.754 680.895C-365.146 569.511 38.4863 533.381 38.4863 689.007C38.4863 734.297 -245.243 1026 -174.587 1118.98C-103.932 1211.96 100.313 974.943 126.041 1090.22C151.769 1205.49 40.9737 1290.39 194.568 1376.82C348.163 1463.25 521.753 1175.2 707.516 1264.13C775.47 1296.66 858.643 1395.98 960.848 1402.08C1123.11 1411.77 1183.54 1274.41 1349.7 1260.03C1449.32 1251.41 1482.88 1370.66 1568.55 1353.89C1737.68 1320.78 2006.69 1142.98 2157.95 1068.18" stroke="url(#paint32_linear)"/>
<path opacity="0.2" d="M-454.441 691.845C-377.834 580.461 25.7989 544.33 25.7989 699.957C25.7989 745.247 -257.931 1036.95 -187.275 1129.93C-116.619 1222.91 90.6643 988.29 116.392 1103.56C142.12 1218.84 35.8566 1302.36 189.451 1388.79C343.046 1475.22 506.888 1183.65 692.651 1272.59C760.605 1305.12 850.757 1404.06 952.962 1410.16C1115.22 1419.85 1170.61 1283.21 1336.77 1268.83C1436.38 1260.21 1471.95 1380.08 1557.61 1363.31C1726.75 1330.2 2006.69 1142.98 2157.95 1068.18" stroke="url(#paint33_linear)"/>
<path opacity="0.2" d="M-467.127 702.794C-390.519 591.411 13.1133 555.28 13.1133 710.907C13.1133 756.197 -270.616 1047.9 -199.96 1140.88C-129.305 1233.86 81.0171 1001.64 106.745 1116.91C132.472 1232.18 30.7413 1314.33 184.336 1400.76C337.931 1487.19 492.024 1192.12 677.787 1281.05C745.741 1313.58 842.873 1412.14 945.078 1418.24C1107.34 1427.93 1157.67 1292.01 1323.83 1277.63C1423.45 1269.01 1461.02 1389.5 1546.68 1372.73C1715.82 1339.62 2006.68 1142.98 2157.95 1068.18" stroke="url(#paint34_linear)"/>
<path opacity="0.2" d="M-479.814 713.744C-403.207 602.361 0.425837 566.23 0.425837 721.857C0.425837 767.147 -283.304 1058.85 -212.648 1151.83C-141.992 1244.81 71.3678 1014.98 97.0955 1130.26C122.823 1245.53 25.6241 1326.29 179.219 1412.73C332.814 1499.16 477.159 1200.57 662.922 1289.51C730.875 1322.04 834.987 1420.23 937.192 1426.33C1099.45 1436.01 1144.74 1300.81 1310.9 1286.43C1410.51 1277.81 1450.09 1398.92 1535.75 1382.15C1704.88 1349.04 2006.68 1142.99 2157.94 1068.18" stroke="url(#paint35_linear)"/>
<path opacity="0.2" d="M-492.502 724.694C-415.894 613.311 -12.2617 577.18 -12.2617 732.807C-12.2617 778.096 -295.991 1069.8 -225.335 1162.78C-154.68 1255.76 61.7186 1028.33 87.4462 1143.6C113.174 1258.88 20.5069 1338.26 174.102 1424.69C327.696 1511.12 462.293 1209.03 648.056 1297.97C716.01 1330.5 827.101 1428.31 929.306 1434.41C1091.57 1444.09 1131.8 1309.62 1297.96 1295.24C1397.58 1286.61 1439.15 1408.34 1524.82 1391.57C1693.95 1358.46 2006.67 1142.99 2157.94 1068.18" stroke="url(#paint36_linear)"/>
<path opacity="0.2" d="M-505.189 735.644C-428.582 624.261 -24.9491 588.13 -24.9491 743.757C-24.9491 789.046 -308.679 1080.75 -238.023 1173.73C-167.367 1266.71 52.0694 1041.68 77.797 1156.95C103.525 1272.22 15.3898 1350.23 168.985 1436.66C322.579 1523.09 447.428 1217.49 633.19 1306.43C701.144 1338.96 819.215 1436.39 921.42 1442.49C1083.68 1452.17 1118.87 1318.42 1285.02 1304.04C1384.64 1295.42 1428.22 1417.76 1513.88 1400.99C1683.02 1367.88 2006.67 1142.99 2157.93 1068.18" stroke="url(#paint37_linear)"/>
<path opacity="0.2" d="M-517.877 746.594C-441.269 635.21 -37.6367 599.08 -37.6367 754.707C-37.6367 799.996 -321.366 1091.7 -250.71 1184.68C-180.055 1277.66 42.4201 1055.02 68.1478 1170.3C93.8754 1285.57 10.2725 1362.2 163.867 1448.63C317.462 1535.06 432.562 1225.95 618.325 1314.89C686.279 1347.42 811.329 1444.47 913.534 1450.57C1075.8 1460.26 1105.93 1327.22 1272.09 1312.84C1371.71 1304.22 1417.29 1427.18 1502.95 1410.41C1672.08 1377.3 2006.66 1142.99 2157.93 1068.18" stroke="url(#paint38_linear)"/>
<path opacity="0.2" d="M-530.564 757.544C-453.957 646.16 -50.3242 610.03 -50.3242 765.656C-50.3242 810.946 -334.054 1102.65 -263.398 1195.63C-192.742 1288.61 32.7709 1068.37 58.4986 1183.64C84.2262 1298.92 5.15528 1374.16 158.75 1460.59C312.345 1547.03 417.696 1234.41 603.459 1323.35C671.413 1355.88 803.443 1452.55 905.648 1458.65C1067.91 1468.34 1093 1336.02 1259.15 1321.64C1358.77 1313.02 1406.35 1436.6 1492.02 1419.83C1661.15 1386.72 2006.66 1142.99 2157.92 1068.18" stroke="url(#paint39_linear)"/>
<path opacity="0.2" d="M-543.252 768.494C-466.644 657.11 -63.0117 620.979 -63.0117 776.606C-63.0117 821.896 -346.741 1113.6 -276.085 1206.58C-205.43 1299.56 23.1217 1081.72 48.8493 1196.99C74.5769 1312.27 0.0380422 1386.13 153.633 1472.56C307.228 1558.99 402.831 1242.87 588.593 1331.81C656.547 1364.34 795.557 1460.64 897.762 1466.74C1060.02 1476.42 1080.06 1344.82 1246.22 1330.44C1345.83 1321.82 1395.42 1446.02 1481.08 1429.25C1650.22 1396.14 2006.65 1142.99 2157.92 1068.18" stroke="url(#paint40_linear)"/>
<path opacity="0.2" d="M-555.938 779.443C-479.33 668.06 -75.6972 631.929 -75.6972 787.556C-75.6972 832.846 -359.427 1124.55 -288.771 1217.53C-218.115 1310.51 13.4745 1095.06 39.2021 1210.34C64.9298 1325.61 -5.07711 1398.1 148.518 1484.53C302.113 1570.96 387.967 1251.33 573.73 1340.27C641.684 1372.8 787.673 1468.72 889.878 1474.82C1052.14 1484.5 1067.13 1353.62 1233.28 1339.24C1332.9 1330.62 1384.49 1455.44 1470.15 1438.67C1639.29 1405.56 2006.65 1142.99 2157.91 1068.19" stroke="url(#paint41_linear)"/>
<path opacity="0.2" d="M-568.625 790.393C-492.017 679.01 -88.3847 642.879 -88.3847 798.506C-88.3847 843.796 -372.114 1135.5 -301.458 1228.48C-230.803 1321.46 3.82519 1108.41 29.5528 1223.69C55.2805 1338.96 -10.1944 1410.07 143.4 1496.5C296.995 1582.93 373.101 1259.79 558.864 1348.73C626.818 1381.26 779.787 1476.8 881.992 1482.9C1044.25 1492.58 1054.19 1362.43 1220.35 1348.05C1319.96 1339.42 1373.56 1464.86 1459.22 1448.09C1628.35 1414.98 2006.65 1142.99 2157.91 1068.19" stroke="url(#paint42_linear)"/>
<path opacity="0.2" d="M-581.312 801.343C-504.705 689.96 -101.072 653.829 -101.072 809.456C-101.072 854.745 -384.802 1146.45 -314.146 1239.43C-243.49 1332.41 -5.82403 1121.76 19.9036 1237.03C45.6312 1352.31 -15.3115 1422.03 138.283 1508.46C291.878 1594.9 358.236 1268.25 543.999 1357.19C611.953 1389.72 771.901 1484.88 874.106 1490.98C1036.37 1500.67 1041.25 1371.23 1207.41 1356.85C1307.03 1348.23 1362.62 1474.28 1448.29 1457.51C1617.42 1424.4 2006.64 1142.99 2157.9 1068.19" stroke="url(#paint43_linear)"/>
</g>
<defs>
<linearGradient id="paint0_linear" x1="816.847" y1="1178" x2="816.847" y2="334.19" gradientUnits="userSpaceOnUse">
<stop stop-color="#333399"/>
<stop offset="1" stop-color="#333399" stop-opacity="0.54"/>
</linearGradient>
<linearGradient id="paint1_linear" x1="955.054" y1="948.053" x2="955.054" y2="129" gradientUnits="userSpaceOnUse">
<stop stop-color="#333399"/>
<stop offset="1" stop-color="#333399" stop-opacity="0.54"/>
</linearGradient>
<linearGradient id="paint2_linear" x1="823.429" y1="1167.05" x2="823.429" y2="326.106" gradientUnits="userSpaceOnUse">
<stop stop-color="#333399"/>
<stop offset="1" stop-color="#333399" stop-opacity="0.54"/>
</linearGradient>
<linearGradient id="paint3_linear" x1="830.009" y1="1156.1" x2="830.009" y2="318.021" gradientUnits="userSpaceOnUse">
<stop stop-color="#333399"/>
<stop offset="1" stop-color="#333399" stop-opacity="0.54"/>
</linearGradient>
<linearGradient id="paint4_linear" x1="836.591" y1="1145.15" x2="836.591" y2="309.937" gradientUnits="userSpaceOnUse">
<stop stop-color="#333399"/>
<stop offset="1" stop-color="#333399" stop-opacity="0.54"/>
</linearGradient>
<linearGradient id="paint5_linear" x1="843.171" y1="1134.2" x2="843.171" y2="301.853" gradientUnits="userSpaceOnUse">
<stop stop-color="#333399"/>
<stop offset="1" stop-color="#333399" stop-opacity="0.54"/>
</linearGradient>
<linearGradient id="paint6_linear" x1="849.753" y1="1123.25" x2="849.753" y2="293.769" gradientUnits="userSpaceOnUse">
<stop stop-color="#333399"/>
<stop offset="1" stop-color="#333399" stop-opacity="0.54"/>
</linearGradient>
<linearGradient id="paint7_linear" x1="856.333" y1="1112.3" x2="856.333" y2="285.684" gradientUnits="userSpaceOnUse">
<stop stop-color="#333399"/>
<stop offset="1" stop-color="#333399" stop-opacity="0.54"/>
</linearGradient>
<linearGradient id="paint8_linear" x1="862.915" y1="1101.35" x2="862.915" y2="277.6" gradientUnits="userSpaceOnUse">
<stop stop-color="#333399"/>
<stop offset="1" stop-color="#333399" stop-opacity="0.54"/>
</linearGradient>
<linearGradient id="paint9_linear" x1="869.497" y1="1090.4" x2="869.497" y2="269.516" gradientUnits="userSpaceOnUse">
<stop stop-color="#333399"/>
<stop offset="1" stop-color="#333399" stop-opacity="0.54"/>
</linearGradient>
<linearGradient id="paint10_linear" x1="876.079" y1="1079.45" x2="876.079" y2="261.431" gradientUnits="userSpaceOnUse">
<stop stop-color="#333399"/>
<stop offset="1" stop-color="#333399" stop-opacity="0.54"/>
</linearGradient>
<linearGradient id="paint11_linear" x1="882.659" y1="1068.5" x2="882.659" y2="253.347" gradientUnits="userSpaceOnUse">
<stop stop-color="#333399"/>
<stop offset="1" stop-color="#333399" stop-opacity="0.54"/>
</linearGradient>
<linearGradient id="paint12_linear" x1="889.239" y1="1057.55" x2="889.239" y2="245.262" gradientUnits="userSpaceOnUse">
<stop stop-color="#333399"/>
<stop offset="1" stop-color="#333399" stop-opacity="0.54"/>
</linearGradient>
<linearGradient id="paint13_linear" x1="895.821" y1="1046.6" x2="895.821" y2="235.388" gradientUnits="userSpaceOnUse">
<stop stop-color="#333399"/>
<stop offset="1" stop-color="#333399" stop-opacity="0.54"/>
</linearGradient>
<linearGradient id="paint14_linear" x1="902.403" y1="1035.65" x2="902.403" y2="223.579" gradientUnits="userSpaceOnUse">
<stop stop-color="#333399"/>
<stop offset="1" stop-color="#333399" stop-opacity="0.54"/>
</linearGradient>
<linearGradient id="paint15_linear" x1="908.983" y1="1024.7" x2="908.983" y2="211.767" gradientUnits="userSpaceOnUse">
<stop stop-color="#333399"/>
<stop offset="1" stop-color="#333399" stop-opacity="0.54"/>
</linearGradient>
<linearGradient id="paint16_linear" x1="915.565" y1="1013.75" x2="915.565" y2="199.952" gradientUnits="userSpaceOnUse">
<stop stop-color="#333399"/>
<stop offset="1" stop-color="#333399" stop-opacity="0.54"/>
</linearGradient>
<linearGradient id="paint17_linear" x1="922.147" y1="1002.8" x2="922.147" y2="188.133" gradientUnits="userSpaceOnUse">
<stop stop-color="#333399"/>
<stop offset="1" stop-color="#333399" stop-opacity="0.54"/>
</linearGradient>
<linearGradient id="paint18_linear" x1="928.729" y1="991.852" x2="928.729" y2="176.312" gradientUnits="userSpaceOnUse">
<stop stop-color="#333399"/>
<stop offset="1" stop-color="#333399" stop-opacity="0.54"/>
</linearGradient>
<linearGradient id="paint19_linear" x1="935.309" y1="980.903" x2="935.309" y2="164.488" gradientUnits="userSpaceOnUse">
<stop stop-color="#333399"/>
<stop offset="1" stop-color="#333399" stop-opacity="0.54"/>
</linearGradient>
<linearGradient id="paint20_linear" x1="941.891" y1="969.953" x2="941.891" y2="152.661" gradientUnits="userSpaceOnUse">
<stop stop-color="#333399"/>
<stop offset="1" stop-color="#333399" stop-opacity="0.54"/>
</linearGradient>
<linearGradient id="paint21_linear" x1="948.472" y1="959.003" x2="948.472" y2="140.832" gradientUnits="userSpaceOnUse">
<stop stop-color="#333399"/>
<stop offset="1" stop-color="#333399" stop-opacity="0.54"/>
</linearGradient>
<linearGradient id="paint22_linear" x1="915.216" y1="486" x2="915.216" y2="1329.81" gradientUnits="userSpaceOnUse">
<stop stop-color="#333399"/>
<stop offset="1" stop-color="#333399" stop-opacity="0.54"/>
</linearGradient>
<linearGradient id="paint23_linear" x1="781.948" y1="715.947" x2="781.948" y2="1535" gradientUnits="userSpaceOnUse">
<stop stop-color="#333399"/>
<stop offset="1" stop-color="#333399" stop-opacity="0.54"/>
</linearGradient>
<linearGradient id="paint24_linear" x1="908.869" y1="496.95" x2="908.869" y2="1337.89" gradientUnits="userSpaceOnUse">
<stop stop-color="#333399"/>
<stop offset="1" stop-color="#333399" stop-opacity="0.54"/>
</linearGradient>
<linearGradient id="paint25_linear" x1="902.523" y1="507.9" x2="902.523" y2="1345.98" gradientUnits="userSpaceOnUse">
<stop stop-color="#333399"/>
<stop offset="1" stop-color="#333399" stop-opacity="0.54"/>
</linearGradient>
<linearGradient id="paint26_linear" x1="896.177" y1="518.85" x2="896.177" y2="1354.06" gradientUnits="userSpaceOnUse">
<stop stop-color="#333399"/>
<stop offset="1" stop-color="#333399" stop-opacity="0.54"/>
</linearGradient>
<linearGradient id="paint27_linear" x1="889.832" y1="529.799" x2="889.832" y2="1362.15" gradientUnits="userSpaceOnUse">
<stop stop-color="#333399"/>
<stop offset="1" stop-color="#333399" stop-opacity="0.54"/>
</linearGradient>
<linearGradient id="paint28_linear" x1="883.486" y1="540.749" x2="883.486" y2="1370.23" gradientUnits="userSpaceOnUse">
<stop stop-color="#333399"/>
<stop offset="1" stop-color="#333399" stop-opacity="0.54"/>
</linearGradient>
<linearGradient id="paint29_linear" x1="877.14" y1="551.699" x2="877.14" y2="1378.32" gradientUnits="userSpaceOnUse">
<stop stop-color="#333399"/>
<stop offset="1" stop-color="#333399" stop-opacity="0.54"/>
</linearGradient>
<linearGradient id="paint30_linear" x1="870.793" y1="562.649" x2="870.793" y2="1386.4" gradientUnits="userSpaceOnUse">
<stop stop-color="#333399"/>
<stop offset="1" stop-color="#333399" stop-opacity="0.54"/>
</linearGradient>
<linearGradient id="paint31_linear" x1="864.447" y1="573.599" x2="864.447" y2="1394.48" gradientUnits="userSpaceOnUse">
<stop stop-color="#333399"/>
<stop offset="1" stop-color="#333399" stop-opacity="0.54"/>
</linearGradient>
<linearGradient id="paint32_linear" x1="858.1" y1="584.549" x2="858.1" y2="1402.57" gradientUnits="userSpaceOnUse">
<stop stop-color="#333399"/>
<stop offset="1" stop-color="#333399" stop-opacity="0.54"/>
</linearGradient>
<linearGradient id="paint33_linear" x1="851.754" y1="595.499" x2="851.754" y2="1410.65" gradientUnits="userSpaceOnUse">
<stop stop-color="#333399"/>
<stop offset="1" stop-color="#333399" stop-opacity="0.54"/>
</linearGradient>
<linearGradient id="paint34_linear" x1="845.41" y1="606.448" x2="845.41" y2="1418.74" gradientUnits="userSpaceOnUse">
<stop stop-color="#333399"/>
<stop offset="1" stop-color="#333399" stop-opacity="0.54"/>
</linearGradient>
<linearGradient id="paint35_linear" x1="839.063" y1="617.398" x2="839.063" y2="1428.61" gradientUnits="userSpaceOnUse">
<stop stop-color="#333399"/>
<stop offset="1" stop-color="#333399" stop-opacity="0.54"/>
</linearGradient>
<linearGradient id="paint36_linear" x1="832.717" y1="628.348" x2="832.717" y2="1440.42" gradientUnits="userSpaceOnUse">
<stop stop-color="#333399"/>
<stop offset="1" stop-color="#333399" stop-opacity="0.54"/>
</linearGradient>
<linearGradient id="paint37_linear" x1="826.371" y1="639.298" x2="826.371" y2="1452.23" gradientUnits="userSpaceOnUse">
<stop stop-color="#333399"/>
<stop offset="1" stop-color="#333399" stop-opacity="0.54"/>
</linearGradient>
<linearGradient id="paint38_linear" x1="820.024" y1="650.248" x2="820.024" y2="1464.05" gradientUnits="userSpaceOnUse">
<stop stop-color="#333399"/>
<stop offset="1" stop-color="#333399" stop-opacity="0.54"/>
</linearGradient>
<linearGradient id="paint39_linear" x1="813.678" y1="661.198" x2="813.678" y2="1475.87" gradientUnits="userSpaceOnUse">
<stop stop-color="#333399"/>
<stop offset="1" stop-color="#333399" stop-opacity="0.54"/>
</linearGradient>
<linearGradient id="paint40_linear" x1="807.332" y1="672.148" x2="807.332" y2="1487.69" gradientUnits="userSpaceOnUse">
<stop stop-color="#333399"/>
<stop offset="1" stop-color="#333399" stop-opacity="0.54"/>
</linearGradient>
<linearGradient id="paint41_linear" x1="800.987" y1="683.097" x2="800.987" y2="1499.51" gradientUnits="userSpaceOnUse">
<stop stop-color="#333399"/>
<stop offset="1" stop-color="#333399" stop-opacity="0.54"/>
</linearGradient>
<linearGradient id="paint42_linear" x1="794.641" y1="694.047" x2="794.641" y2="1511.34" gradientUnits="userSpaceOnUse">
<stop stop-color="#333399"/>
<stop offset="1" stop-color="#333399" stop-opacity="0.54"/>
</linearGradient>
<linearGradient id="paint43_linear" x1="788.295" y1="704.997" x2="788.295" y2="1523.17" gradientUnits="userSpaceOnUse">
<stop stop-color="#333399"/>
<stop offset="1" stop-color="#333399" stop-opacity="0.54"/>
</linearGradient>
</defs>
</svg>
