<svg width="768" height="1298" viewBox="0 0 768 1298" fill="none" xmlns="http://www.w3.org/2000/svg">
<mask id="mask0" mask-type="alpha" maskUnits="userSpaceOnUse" x="-112" y="0" width="992" height="1298">
<path d="M-112 0L-62.9167 0H880V1298H-112V0Z" fill="#EDEDEE"/>
</mask>
<g mask="url(#mask0)">
<path opacity="0.2" d="M1767.69 1582.88C1688.25 1751.98 1269.65 1806.83 1269.65 1570.57C1269.65 1501.81 1563.9 1058.97 1490.62 917.813C1417.35 776.657 1233.89 1169.23 1207.21 994.23C1180.53 819.23 1337.73 671.49 1178.44 540.276C1019.16 409.062 748.145 798.452 555.497 663.437C485.025 614.048 463.914 458.107 357.921 448.846C189.646 434.144 79.8373 652.502 -92.4781 674.332C-195.788 687.421 -211.903 514.818 -300.743 540.276C-476.144 590.539 -653.131 731.774 -809.999 845.337" stroke="url(#paint0_linear)" stroke-linecap="round" stroke-linejoin="round"/>
<path opacity="0.2" d="M2044 1233.79C1964.55 1402.89 1545.96 1457.74 1545.96 1221.48C1545.96 1152.72 1840.21 709.878 1766.93 568.723C1693.66 427.567 1444.03 743.723 1417.35 568.723C1390.67 393.722 1449.17 289.962 1289.88 158.748C1130.59 27.5337 1071.89 528.742 879.239 393.727C808.767 344.337 635.651 200.447 529.658 191.186C361.383 176.484 361.552 371.896 189.237 393.727C85.9266 406.815 26.195 214.517 -62.6445 239.975C-238.046 290.238 -653.024 731.749 -809.893 845.312" stroke="url(#paint1_linear)" stroke-linecap="round" stroke-linejoin="round"/>
<path opacity="0.2" d="M1780.85 1566.26C1701.4 1735.35 1282.81 1790.2 1282.81 1553.94C1282.81 1485.19 1577.06 1042.34 1503.78 901.189C1430.51 760.033 1243.9 1148.97 1217.22 973.967C1190.54 798.967 1343.04 653.322 1183.75 522.108C1024.46 390.894 763.561 785.608 570.913 650.594C500.441 601.204 472.092 445.837 366.099 436.576C197.824 421.874 93.2521 639.139 -79.0633 660.97C-182.374 674.058 -200.565 500.518 -289.405 525.976C-464.806 576.239 -653.126 731.772 -809.995 845.335" stroke="url(#paint2_linear)"/>
<path opacity="0.2" d="M1794.01 1549.64C1714.56 1718.73 1295.97 1773.58 1295.97 1537.32C1295.97 1468.56 1590.21 1025.72 1516.94 884.566C1443.66 743.41 1253.91 1128.71 1227.22 953.705C1200.54 778.705 1348.34 635.154 1189.06 503.94C1029.77 372.726 778.977 772.765 586.329 637.751C515.857 588.361 480.27 433.568 374.277 424.307C206.001 409.605 106.667 625.778 -65.6487 647.608C-168.959 660.696 -189.228 486.218 -278.067 511.676C-453.469 561.939 -653.122 731.771 -809.99 845.335" stroke="url(#paint3_linear)"/>
<path opacity="0.2" d="M1807.17 1533.01C1727.72 1702.11 1309.13 1756.96 1309.13 1520.7C1309.13 1451.94 1603.37 1009.1 1530.1 867.942C1456.82 726.787 1263.91 1108.44 1237.23 933.443C1210.55 758.443 1353.65 616.986 1194.36 485.772C1035.08 354.558 794.394 759.922 601.746 624.907C531.274 575.517 488.449 421.298 382.456 412.038C214.18 397.335 120.083 612.415 -52.2328 634.246C-155.543 647.334 -177.889 471.918 -266.728 497.376C-442.13 547.639 -653.116 731.77 -809.984 845.333" stroke="url(#paint4_linear)"/>
<path opacity="0.2" d="M1820.32 1516.39C1740.88 1685.48 1322.28 1740.34 1322.28 1504.07C1322.28 1435.32 1616.53 992.475 1543.25 851.32C1469.98 710.164 1273.92 1088.18 1247.24 913.181C1220.56 738.181 1358.96 598.819 1199.67 467.604C1040.38 336.39 809.809 747.079 617.161 612.064C546.689 562.675 496.625 409.029 390.632 399.769C222.357 385.066 133.496 599.054 -38.8192 620.884C-142.13 633.972 -166.552 457.619 -255.392 483.076C-430.793 533.339 -653.112 731.769 -809.98 845.332" stroke="url(#paint5_linear)"/>
<path opacity="0.2" d="M1833.48 1499.77C1754.03 1668.86 1335.44 1723.71 1335.44 1487.45C1335.44 1418.69 1629.69 975.852 1556.41 834.696C1483.14 693.54 1283.93 1067.92 1257.24 892.919C1230.56 717.918 1364.26 580.65 1204.98 449.436C1045.69 318.222 825.226 734.235 632.578 599.221C562.106 549.831 504.804 396.76 398.811 387.499C230.536 372.796 146.912 585.691 -25.4033 607.522C-128.714 620.61 -155.213 443.318 -244.053 468.776C-419.454 519.039 -653.106 731.768 -809.974 845.331" stroke="url(#paint6_linear)"/>
<path opacity="0.2" d="M1846.64 1483.14C1767.19 1652.24 1348.6 1707.09 1348.6 1470.83C1348.6 1402.07 1642.84 959.228 1569.57 818.072C1496.29 676.917 1293.93 1047.66 1267.25 872.656C1240.57 697.656 1369.57 562.482 1210.28 431.268C1051 300.054 840.642 721.392 647.994 586.377C577.522 536.987 512.982 384.49 406.989 375.229C238.713 360.527 160.327 572.329 -11.9887 594.159C-115.299 607.248 -143.876 429.018 -232.715 454.476C-408.117 504.739 -653.101 731.766 -809.97 845.33" stroke="url(#paint7_linear)"/>
<path opacity="0.2" d="M1859.8 1466.52C1780.35 1635.61 1361.76 1690.46 1361.76 1454.2C1361.76 1385.45 1656 942.605 1582.73 801.449C1509.45 660.293 1303.94 1027.39 1277.26 852.394C1250.58 677.393 1374.88 544.314 1215.59 413.1C1056.3 281.886 856.059 708.548 663.411 573.534C592.939 524.144 521.16 372.22 415.167 362.959C246.892 348.257 173.742 558.966 1.42703 580.797C-101.883 593.885 -132.537 414.718 -221.376 440.176C-396.778 490.439 -653.095 731.765 -809.964 845.328" stroke="url(#paint8_linear)"/>
<path opacity="0.2" d="M1872.95 1449.9C1793.51 1618.99 1374.91 1673.84 1374.91 1437.58C1374.91 1368.83 1669.16 925.982 1595.88 784.826C1522.61 643.67 1313.95 1007.13 1287.26 832.132C1260.58 657.132 1380.18 526.146 1220.9 394.932C1061.61 263.718 871.475 695.705 678.828 560.691C608.355 511.301 529.338 359.951 423.345 350.69C255.07 335.988 187.157 545.605 14.8418 567.435C-88.4685 580.524 -121.199 400.418 -210.039 425.876C-385.44 476.139 -653.091 731.765 -809.959 845.328" stroke="url(#paint9_linear)"/>
<path opacity="0.2" d="M1886.11 1433.27C1806.66 1602.37 1388.07 1657.22 1388.07 1420.96C1388.07 1352.2 1682.32 909.358 1609.04 768.202C1535.77 627.047 1323.95 986.87 1297.27 811.87C1270.59 636.869 1385.49 507.978 1226.2 376.764C1066.92 245.55 886.892 682.862 694.244 547.847C623.771 498.457 537.516 347.681 431.523 338.421C263.248 323.718 200.572 532.242 28.2568 554.073C-75.0535 567.161 -109.861 386.118 -198.7 411.576C-374.102 461.839 -653.085 731.763 -809.954 845.326" stroke="url(#paint10_linear)"/>
<path opacity="0.2" d="M1899.27 1416.65C1819.82 1585.74 1401.23 1640.6 1401.23 1404.33C1401.23 1335.58 1695.47 892.735 1622.2 751.579C1548.93 610.423 1333.96 966.608 1307.28 791.607C1280.6 616.607 1390.8 489.81 1231.51 358.596C1072.22 227.382 902.308 670.018 709.661 535.004C639.188 485.614 545.694 335.412 439.701 326.151C271.426 311.448 213.988 518.88 41.6721 540.711C-61.6382 553.799 -98.5227 371.818 -187.362 397.276C-362.764 447.539 -653.08 731.762 -809.948 845.325" stroke="url(#paint11_linear)"/>
<path opacity="0.2" d="M1912.42 1400.03C1832.98 1569.12 1414.38 1623.97 1414.38 1387.71C1414.38 1318.96 1708.63 876.112 1635.36 734.956C1562.08 593.8 1343.96 946.346 1317.28 771.345C1290.6 596.345 1396.1 471.642 1236.82 340.428C1077.53 209.214 917.724 657.175 725.076 522.161C654.603 472.771 553.871 323.143 447.878 313.882C279.603 299.179 227.402 505.518 55.0862 527.349C-48.2241 540.437 -87.1858 357.518 -176.025 382.976C-351.427 433.239 -653.076 731.761 -809.944 845.324" stroke="url(#paint12_linear)"/>
<path opacity="0.2" d="M1925.58 1383.4C1846.13 1552.5 1427.54 1607.35 1427.54 1371.09C1427.54 1302.33 1721.79 859.489 1648.51 718.333C1575.24 577.178 1353.97 926.084 1327.29 751.084C1300.61 576.083 1401.41 453.475 1242.12 322.261C1082.83 191.047 933.14 644.332 740.492 509.318C670.019 459.928 562.049 310.874 456.056 301.613C287.781 286.91 240.817 492.157 68.5012 513.987C-34.8092 527.076 -75.8479 343.219 -164.687 368.676C-340.089 418.939 -653.071 731.76 -809.939 845.323" stroke="url(#paint13_linear)"/>
<path opacity="0.2" d="M1938.74 1366.78C1859.29 1535.87 1440.7 1590.73 1440.7 1354.46C1440.7 1285.71 1734.95 842.866 1661.67 701.71C1588.4 560.554 1363.98 905.822 1337.3 730.822C1310.61 555.821 1406.72 435.307 1247.43 304.093C1088.14 172.879 948.556 631.489 755.908 496.475C685.435 447.085 570.227 298.604 464.234 289.343C295.958 274.641 254.231 478.795 81.9159 500.625C-21.3944 513.714 -64.5102 328.919 -153.35 354.377C-328.751 404.64 -653.066 731.759 -809.934 845.323" stroke="url(#paint14_linear)"/>
<path opacity="0.2" d="M1951.9 1350.16C1872.45 1519.25 1453.86 1574.1 1453.86 1337.84C1453.86 1269.08 1748.1 826.242 1674.83 685.086C1601.55 543.93 1373.98 885.559 1347.3 710.558C1320.62 535.558 1412.02 417.138 1252.74 285.924C1093.45 154.71 963.973 618.645 771.325 483.63C700.852 434.241 578.405 286.334 472.412 277.073C304.137 262.37 267.647 465.431 95.3315 487.262C-7.97881 500.35 -53.1715 314.618 -142.011 340.075C-317.413 390.338 -653.061 731.757 -809.929 845.32" stroke="url(#paint15_linear)"/>
<path opacity="0.2" d="M1965.06 1333.53C1885.61 1502.63 1467.02 1557.48 1467.02 1321.22C1467.02 1252.46 1761.26 809.619 1687.99 668.463C1614.71 527.308 1383.99 865.297 1357.31 690.297C1330.63 515.296 1417.33 398.971 1258.04 267.757C1098.76 136.543 979.39 605.802 786.742 470.788C716.269 421.398 586.584 274.065 480.591 264.804C312.316 250.102 281.063 452.07 108.747 473.901C5.43708 486.989 -41.8326 300.318 -130.672 325.776C-306.074 376.039 -653.055 731.757 -809.923 845.32" stroke="url(#paint16_linear)"/>
<path opacity="0.2" d="M1978.21 1316.91C1898.77 1486 1480.17 1540.86 1480.17 1304.59C1480.17 1235.84 1774.42 792.996 1701.14 651.84C1627.87 510.684 1394 845.035 1367.32 670.035C1340.64 495.034 1422.64 380.803 1263.35 249.589C1104.06 118.374 994.806 592.959 802.158 457.944C731.685 408.555 594.762 261.795 488.769 252.535C320.493 237.832 294.477 438.708 122.162 460.538C18.8517 473.627 -30.495 286.018 -119.335 311.476C-294.736 361.739 -653.05 731.756 -809.918 845.319" stroke="url(#paint17_linear)"/>
<path opacity="0.2" d="M1991.37 1300.29C1911.92 1469.38 1493.33 1524.23 1493.33 1287.97C1493.33 1219.22 1787.58 776.372 1714.3 635.216C1641.03 494.06 1404.01 824.772 1377.32 649.772C1350.64 474.771 1427.94 362.634 1268.66 231.42C1109.37 100.206 1010.22 580.115 817.575 445.101C747.102 395.711 602.941 249.525 496.948 240.264C328.672 225.562 307.893 425.345 135.578 447.176C32.2676 460.264 -19.1561 271.718 -107.996 297.175C-283.397 347.438 -653.044 731.754 -809.912 845.317" stroke="url(#paint18_linear)"/>
<path opacity="0.2" d="M2004.53 1283.66C1925.08 1452.76 1506.49 1507.61 1506.49 1271.35C1506.49 1202.59 1800.73 759.749 1727.46 618.593C1654.18 477.437 1414.01 804.51 1387.33 629.51C1360.65 454.509 1433.25 344.467 1273.96 213.252C1114.67 82.0382 1025.64 567.272 832.99 432.257C762.517 382.868 611.117 237.256 505.124 227.995C336.849 213.293 321.307 411.983 148.992 433.814C45.6812 446.902 -7.81954 257.418 -96.659 282.876C-272.061 333.139 -653.04 731.753 -809.908 845.316" stroke="url(#paint19_linear)"/>
<path opacity="0.2" d="M2017.69 1267.04C1938.24 1436.14 1519.65 1490.99 1519.65 1254.73C1519.65 1185.97 1813.89 743.126 1740.62 601.971C1667.34 460.815 1424.02 784.249 1397.34 609.248C1370.66 434.248 1438.56 326.299 1279.27 195.085C1119.98 63.8709 1041.05 554.429 848.407 419.415C777.934 370.025 619.296 224.987 513.303 215.726C345.028 201.024 334.723 398.622 162.407 420.452C59.0969 433.541 3.51936 243.119 -85.3201 268.577C-260.722 318.84 -653.034 731.753 -809.903 845.316" stroke="url(#paint20_linear)"/>
<path opacity="0.2" d="M2030.84 1250.42C1951.39 1419.51 1532.8 1474.36 1532.8 1238.1C1532.8 1169.35 1827.05 726.502 1753.77 585.347C1680.5 444.191 1434.02 763.986 1407.34 588.985C1380.66 413.985 1443.86 308.131 1284.57 176.916C1125.29 45.7023 1056.47 541.585 863.822 406.571C793.35 357.181 627.473 212.717 521.48 203.456C353.204 188.754 348.136 385.259 175.821 407.09C72.5107 420.178 14.8561 228.818 -73.9834 254.276C-249.385 304.539 -653.031 731.751 -809.899 845.314" stroke="url(#paint21_linear)"/>
<path opacity="0.2" d="M-665.568 824.869C-588.961 655.774 -185.328 600.923 -185.328 837.185C-185.328 905.94 -469.058 1348.78 -398.402 1489.94C-327.746 1631.1 -150.845 1238.52 -125.118 1413.52C-99.3901 1588.52 -250.973 1736.26 -97.3786 1867.48C56.2162 1998.69 317.542 1609.3 503.305 1744.31C571.259 1793.7 591.614 1949.64 693.819 1958.91C856.081 1973.61 961.965 1755.25 1128.12 1733.42C1227.74 1720.33 1243.28 1892.93 1328.94 1867.48C1498.08 1817.21 1668.74 1675.98 1820 1562.42" stroke="url(#paint22_linear)" stroke-linecap="round" stroke-linejoin="round"/>
<path opacity="0.2" d="M-932 1173.96C-855.392 1004.86 -451.76 950.013 -451.76 1186.27C-451.76 1255.03 -735.489 1697.87 -664.833 1839.03C-594.178 1980.18 -353.473 1664.03 -327.746 1839.03C-302.018 2014.03 -358.429 2117.79 -204.834 2249C-51.2393 2380.22 5.37006 1879.01 191.133 2014.02C259.087 2063.41 426.015 2207.3 528.22 2216.57C690.481 2231.27 690.318 2035.86 856.475 2014.02C956.093 2000.94 1013.69 2193.23 1099.35 2167.78C1268.49 2117.51 1668.63 1676 1819.9 1562.44" stroke="url(#paint23_linear)" stroke-linecap="round" stroke-linejoin="round"/>
<path opacity="0.2" d="M-678.256 841.492C-601.648 672.398 -198.016 617.547 -198.016 853.808C-198.016 922.564 -481.745 1365.41 -411.089 1506.56C-340.433 1647.72 -160.495 1258.78 -134.767 1433.78C-109.039 1608.78 -256.091 1754.43 -102.496 1885.64C51.099 2016.86 302.676 1622.14 488.439 1757.16C556.393 1806.55 583.728 1961.91 685.933 1971.18C848.195 1985.88 949.029 1768.61 1115.19 1746.78C1214.8 1733.69 1232.35 1907.23 1318.01 1881.78C1487.14 1831.51 1668.73 1675.98 1819.99 1562.42" stroke="url(#paint24_linear)"/>
<path opacity="0.2" d="M-690.942 858.116C-614.335 689.022 -210.702 634.171 -210.702 870.432C-210.702 939.188 -494.432 1382.03 -423.776 1523.19C-353.12 1664.34 -170.143 1279.05 -144.415 1454.05C-118.688 1629.05 -261.207 1772.6 -107.612 1903.81C45.9828 2035.03 287.812 1634.99 473.575 1770C541.529 1819.39 575.844 1974.18 678.048 1983.44C840.31 1998.15 936.094 1781.97 1102.25 1760.14C1201.87 1747.06 1221.41 1921.53 1307.08 1896.08C1476.21 1845.81 1668.73 1675.98 1819.99 1562.42" stroke="url(#paint25_linear)"/>
<path opacity="0.2" d="M-703.631 874.739C-627.023 705.645 -223.391 650.794 -223.391 887.055C-223.391 955.811 -507.12 1398.65 -436.464 1539.81C-365.809 1680.97 -179.793 1299.31 -154.065 1474.31C-128.338 1649.31 -266.325 1790.77 -112.73 1921.98C40.8646 2053.19 272.945 1647.83 458.708 1782.84C526.662 1832.23 567.956 1986.45 670.161 1995.71C832.423 2010.42 923.157 1795.34 1089.31 1773.51C1188.93 1760.42 1210.48 1935.83 1296.14 1910.38C1465.28 1860.11 1668.72 1675.98 1819.98 1562.42" stroke="url(#paint26_linear)"/>
<path opacity="0.2" d="M-716.316 891.362C-639.709 722.268 -236.076 667.417 -236.076 903.678C-236.076 972.434 -519.806 1415.28 -449.15 1556.43C-378.494 1697.59 -189.44 1319.57 -163.713 1494.57C-137.985 1669.57 -271.44 1808.93 -117.845 1940.15C35.7494 2071.36 258.082 1660.67 443.844 1795.69C511.798 1845.08 560.073 1998.72 662.278 2007.98C824.539 2022.69 910.224 1808.7 1076.38 1786.87C1176 1773.78 1199.55 1950.13 1285.21 1924.68C1454.35 1874.41 1668.72 1675.98 1819.98 1562.42" stroke="url(#paint27_linear)"/>
<path opacity="0.2" d="M-729.004 907.986C-652.396 738.892 -248.764 684.04 -248.764 920.302C-248.764 989.057 -532.493 1431.9 -461.837 1573.06C-391.182 1714.21 -199.09 1339.83 -173.362 1514.83C-147.634 1689.83 -276.557 1827.1 -122.963 1958.32C30.6321 2089.53 243.216 1673.52 428.979 1808.53C496.933 1857.92 552.187 2010.99 654.391 2020.25C816.653 2034.96 897.288 1822.06 1063.44 1800.23C1163.06 1787.14 1188.62 1964.43 1274.28 1938.98C1443.41 1888.71 1668.71 1675.98 1819.98 1562.42" stroke="url(#paint28_linear)"/>
<path opacity="0.2" d="M-741.691 924.609C-665.084 755.515 -261.451 700.663 -261.451 936.925C-261.451 1005.68 -545.181 1448.52 -474.525 1589.68C-403.869 1730.84 -208.739 1360.1 -183.011 1535.1C-157.283 1710.1 -281.675 1845.27 -128.08 1976.48C25.5149 2107.7 228.35 1686.36 414.113 1821.37C482.067 1870.76 544.301 2023.26 646.506 2032.52C808.767 2047.23 884.352 1835.42 1050.51 1813.59C1150.13 1800.5 1177.68 1978.73 1263.35 1953.28C1432.48 1903.01 1668.71 1675.99 1819.97 1562.42" stroke="url(#paint29_linear)"/>
<path opacity="0.2" d="M-754.379 941.232C-677.771 772.138 -274.139 717.287 -274.139 953.548C-274.139 1022.3 -557.868 1465.15 -487.212 1606.3C-416.557 1747.46 -218.388 1380.36 -192.66 1555.36C-166.933 1730.36 -286.792 1863.44 -133.197 1994.65C20.3977 2125.87 213.485 1699.2 399.247 1834.22C467.201 1883.61 536.415 2035.53 638.619 2044.79C800.881 2059.49 871.416 1848.79 1037.57 1826.95C1137.19 1813.87 1166.75 1993.03 1252.41 1967.58C1421.55 1917.31 1668.7 1675.99 1819.97 1562.42" stroke="url(#paint30_linear)"/>
<path opacity="0.2" d="M-767.066 957.856C-690.459 788.761 -286.826 733.91 -286.826 970.172C-286.826 1038.93 -570.556 1481.77 -499.9 1622.93C-429.244 1764.08 -228.037 1400.62 -202.31 1575.62C-176.582 1750.62 -291.909 1881.61 -138.314 2012.82C15.2805 2144.03 198.619 1712.05 384.382 1847.06C452.336 1896.45 528.529 2047.8 630.734 2057.06C792.995 2071.76 858.48 1862.15 1024.64 1840.32C1124.26 1827.23 1155.82 2007.33 1241.48 1981.88C1410.61 1931.61 1668.7 1675.99 1819.96 1562.42" stroke="url(#paint31_linear)"/>
<path opacity="0.2" d="M-779.754 974.479C-703.146 805.384 -299.514 750.533 -299.514 986.795C-299.514 1055.55 -583.243 1498.39 -512.587 1639.55C-441.932 1780.71 -237.687 1420.88 -211.959 1595.88C-186.231 1770.88 -297.026 1899.77 -143.432 2030.99C10.1633 2162.2 183.753 1724.89 369.516 1859.9C437.47 1909.29 520.643 2060.07 622.848 2069.33C785.109 2084.03 845.544 1875.51 1011.7 1853.68C1111.32 1840.59 1144.88 2021.63 1230.55 1996.18C1399.68 1945.91 1668.69 1675.99 1819.95 1562.43" stroke="url(#paint32_linear)"/>
<path opacity="0.2" d="M-792.44 991.102C-715.833 822.008 -312.2 767.156 -312.2 1003.42C-312.2 1072.17 -595.93 1515.02 -525.274 1656.17C-454.618 1797.33 -247.335 1441.14 -221.607 1616.14C-195.879 1791.14 -302.142 1917.94 -148.548 2049.16C5.04713 2180.37 168.889 1737.73 354.652 1872.75C422.606 1922.14 512.758 2072.34 614.963 2081.6C777.224 2096.3 832.61 1888.87 998.767 1867.04C1098.38 1853.95 1133.95 2035.93 1219.62 2010.48C1388.75 1960.21 1668.69 1675.99 1819.95 1562.43" stroke="url(#paint33_linear)"/>
<path opacity="0.2" d="M-805.127 1007.73C-728.519 838.631 -324.887 783.78 -324.887 1020.04C-324.887 1088.8 -608.616 1531.64 -537.96 1672.8C-467.305 1813.95 -256.983 1461.41 -231.255 1636.41C-205.528 1811.41 -307.259 1936.11 -153.664 2067.32C-0.0690875 2198.54 154.024 1750.58 339.787 1885.59C407.741 1934.98 504.873 2084.61 607.078 2093.87C769.339 2108.57 819.675 1902.23 985.832 1880.4C1085.45 1867.31 1123.02 2050.23 1208.68 2024.78C1377.82 1974.51 1668.68 1675.99 1819.95 1562.43" stroke="url(#paint34_linear)"/>
<path opacity="0.2" d="M-817.814 1024.35C-741.207 855.254 -337.574 800.403 -337.574 1036.66C-337.574 1105.42 -621.304 1548.26 -550.648 1689.42C-479.992 1830.57 -266.632 1481.67 -240.905 1656.67C-215.177 1831.67 -312.376 1954.28 -158.781 2085.49C-5.18628 2216.71 139.159 1763.42 324.922 1898.43C392.875 1947.82 496.987 2096.88 599.192 2106.14C761.453 2120.84 806.739 1915.6 972.896 1893.76C1072.51 1880.68 1112.09 2064.53 1197.75 2039.08C1366.88 1988.81 1668.68 1675.99 1819.94 1562.43" stroke="url(#paint35_linear)"/>
<path opacity="0.2" d="M-830.502 1040.97C-753.894 871.878 -350.262 817.027 -350.262 1053.29C-350.262 1122.04 -633.991 1564.89 -563.335 1706.04C-492.68 1847.2 -276.281 1501.93 -250.554 1676.93C-224.826 1851.93 -317.493 1972.45 -163.898 2103.66C-10.3035 2234.87 124.293 1776.26 310.056 1911.28C378.01 1960.67 489.101 2109.15 591.306 2118.41C753.567 2133.11 793.803 1928.96 959.96 1907.13C1059.58 1894.04 1101.15 2078.83 1186.82 2053.38C1355.95 2003.11 1668.67 1675.99 1819.94 1562.43" stroke="url(#paint36_linear)"/>
<path opacity="0.2" d="M-843.189 1057.59C-766.582 888.501 -362.949 833.65 -362.949 1069.91C-362.949 1138.67 -646.679 1581.51 -576.023 1722.67C-505.367 1863.82 -285.931 1522.19 -260.203 1697.19C-234.475 1872.19 -322.61 1990.61 -169.015 2121.83C-15.4206 2253.04 109.428 1789.11 295.19 1924.12C363.144 1973.51 481.215 2121.42 583.42 2130.68C745.681 2145.38 780.867 1942.32 947.024 1920.49C1046.64 1907.4 1090.22 2093.13 1175.88 2067.68C1345.02 2017.41 1668.67 1675.99 1819.93 1562.43" stroke="url(#paint37_linear)"/>
<path opacity="0.2" d="M-855.876 1074.22C-779.268 905.124 -375.636 850.273 -375.636 1086.53C-375.636 1155.29 -659.365 1598.13 -588.709 1739.29C-518.054 1880.44 -295.579 1542.45 -269.851 1717.46C-244.124 1892.46 -327.727 2008.78 -174.132 2140C-20.5369 2271.21 94.5629 1801.95 280.326 1936.96C348.28 1986.35 473.33 2133.69 575.535 2142.95C737.796 2157.65 767.932 1955.68 934.089 1933.85C1033.71 1920.76 1079.29 2107.43 1164.95 2081.98C1334.08 2031.71 1668.66 1676 1819.93 1562.43" stroke="url(#paint38_linear)"/>
<path opacity="0.2" d="M-868.563 1090.84C-791.956 921.748 -388.323 866.897 -388.323 1103.16C-388.323 1171.91 -672.053 1614.76 -601.397 1755.91C-530.741 1897.07 -305.228 1562.72 -279.5 1737.72C-253.773 1912.72 -332.844 2026.95 -179.249 2158.16C-25.6541 2289.38 79.6972 1814.79 265.46 1949.81C333.414 1999.2 465.444 2145.96 567.649 2155.22C729.91 2169.92 754.996 1969.04 921.153 1947.21C1020.77 1934.13 1068.35 2121.73 1154.02 2096.28C1323.15 2046.01 1668.66 1676 1819.92 1562.43" stroke="url(#paint39_linear)"/>
<path opacity="0.2" d="M-881.251 1107.47C-804.643 938.371 -401.011 883.52 -401.011 1119.78C-401.011 1188.54 -684.74 1631.38 -614.084 1772.54C-543.429 1913.69 -314.877 1582.98 -289.15 1757.98C-263.422 1932.98 -337.961 2045.12 -184.366 2176.33C-30.7714 2307.55 64.8316 1827.64 250.594 1962.65C318.548 2012.04 457.558 2158.23 559.763 2167.49C722.024 2182.19 742.06 1982.41 908.217 1960.58C1007.84 1947.49 1057.42 2136.03 1143.09 2110.58C1312.22 2060.31 1668.65 1676 1819.92 1562.43" stroke="url(#paint40_linear)"/>
<path opacity="0.2" d="M-893.938 1124.09C-817.331 954.994 -413.698 900.143 -413.698 1136.4C-413.698 1205.16 -697.428 1648 -626.772 1789.16C-556.116 1930.31 -324.526 1603.24 -298.799 1778.24C-273.071 1953.24 -343.078 2063.29 -189.483 2194.5C-35.8885 2325.71 49.9661 1840.48 235.729 1975.49C303.683 2024.88 449.672 2170.5 551.877 2179.76C714.138 2194.46 729.125 1995.77 895.282 1973.94C994.9 1960.85 1046.49 2150.33 1132.15 2124.88C1301.29 2074.61 1668.65 1676 1819.91 1562.44" stroke="url(#paint41_linear)"/>
<path opacity="0.2" d="M-906.626 1140.71C-830.018 971.617 -426.386 916.766 -426.386 1153.03C-426.386 1221.78 -710.115 1664.63 -639.459 1805.78C-568.804 1946.94 -334.176 1623.5 -308.448 1798.5C-282.721 1973.5 -348.195 2081.45 -194.601 2212.67C-41.0057 2343.88 35.1005 1853.32 220.863 1988.34C288.817 2037.73 441.786 2182.77 543.991 2192.03C706.252 2206.73 716.189 2009.13 882.346 1987.3C981.964 1974.21 1035.56 2164.63 1121.22 2139.18C1290.35 2088.91 1668.64 1676 1819.91 1562.44" stroke="url(#paint42_linear)"/>
<path opacity="0.2" d="M-919.312 1157.33C-842.705 988.241 -439.072 933.389 -439.072 1169.65C-439.072 1238.41 -722.802 1681.25 -652.146 1822.41C-581.49 1963.56 -343.824 1643.77 -318.096 1818.77C-292.369 1993.77 -353.312 2099.62 -199.717 2230.84C-46.1219 2362.05 20.2358 1866.17 205.999 2001.18C273.953 2050.57 433.901 2195.03 536.106 2204.3C698.367 2219 703.254 2022.49 869.411 2000.66C969.029 1987.57 1024.62 2178.93 1110.29 2153.48C1279.42 2103.21 1668.64 1676 1819.9 1562.44" stroke="url(#paint43_linear)"/>
</g>
<defs>
<linearGradient id="paint0_linear" x1="478.847" y1="1729.15" x2="478.847" y2="448.137" gradientUnits="userSpaceOnUse">
<stop stop-color="#333399"/>
<stop offset="1" stop-color="#333399" stop-opacity="0.54"/>
</linearGradient>
<linearGradient id="paint1_linear" x1="617.054" y1="1380.06" x2="617.054" y2="136.631" gradientUnits="userSpaceOnUse">
<stop stop-color="#333399"/>
<stop offset="1" stop-color="#333399" stop-opacity="0.54"/>
</linearGradient>
<linearGradient id="paint2_linear" x1="485.428" y1="1712.53" x2="485.428" y2="435.863" gradientUnits="userSpaceOnUse">
<stop stop-color="#333399"/>
<stop offset="1" stop-color="#333399" stop-opacity="0.54"/>
</linearGradient>
<linearGradient id="paint3_linear" x1="492.009" y1="1695.9" x2="492.009" y2="423.591" gradientUnits="userSpaceOnUse">
<stop stop-color="#333399"/>
<stop offset="1" stop-color="#333399" stop-opacity="0.54"/>
</linearGradient>
<linearGradient id="paint4_linear" x1="498.591" y1="1679.28" x2="498.591" y2="411.318" gradientUnits="userSpaceOnUse">
<stop stop-color="#333399"/>
<stop offset="1" stop-color="#333399" stop-opacity="0.54"/>
</linearGradient>
<linearGradient id="paint5_linear" x1="505.171" y1="1662.66" x2="505.171" y2="399.045" gradientUnits="userSpaceOnUse">
<stop stop-color="#333399"/>
<stop offset="1" stop-color="#333399" stop-opacity="0.54"/>
</linearGradient>
<linearGradient id="paint6_linear" x1="511.753" y1="1646.03" x2="511.753" y2="386.772" gradientUnits="userSpaceOnUse">
<stop stop-color="#333399"/>
<stop offset="1" stop-color="#333399" stop-opacity="0.54"/>
</linearGradient>
<linearGradient id="paint7_linear" x1="518.334" y1="1629.41" x2="518.334" y2="374.498" gradientUnits="userSpaceOnUse">
<stop stop-color="#333399"/>
<stop offset="1" stop-color="#333399" stop-opacity="0.54"/>
</linearGradient>
<linearGradient id="paint8_linear" x1="524.916" y1="1612.79" x2="524.916" y2="362.225" gradientUnits="userSpaceOnUse">
<stop stop-color="#333399"/>
<stop offset="1" stop-color="#333399" stop-opacity="0.54"/>
</linearGradient>
<linearGradient id="paint9_linear" x1="531.497" y1="1596.16" x2="531.497" y2="349.953" gradientUnits="userSpaceOnUse">
<stop stop-color="#333399"/>
<stop offset="1" stop-color="#333399" stop-opacity="0.54"/>
</linearGradient>
<linearGradient id="paint10_linear" x1="538.078" y1="1579.54" x2="538.078" y2="337.679" gradientUnits="userSpaceOnUse">
<stop stop-color="#333399"/>
<stop offset="1" stop-color="#333399" stop-opacity="0.54"/>
</linearGradient>
<linearGradient id="paint11_linear" x1="544.66" y1="1562.92" x2="544.66" y2="325.406" gradientUnits="userSpaceOnUse">
<stop stop-color="#333399"/>
<stop offset="1" stop-color="#333399" stop-opacity="0.54"/>
</linearGradient>
<linearGradient id="paint12_linear" x1="551.24" y1="1546.29" x2="551.24" y2="313.133" gradientUnits="userSpaceOnUse">
<stop stop-color="#333399"/>
<stop offset="1" stop-color="#333399" stop-opacity="0.54"/>
</linearGradient>
<linearGradient id="paint13_linear" x1="557.821" y1="1529.67" x2="557.821" y2="298.143" gradientUnits="userSpaceOnUse">
<stop stop-color="#333399"/>
<stop offset="1" stop-color="#333399" stop-opacity="0.54"/>
</linearGradient>
<linearGradient id="paint14_linear" x1="564.402" y1="1513.05" x2="564.402" y2="280.216" gradientUnits="userSpaceOnUse">
<stop stop-color="#333399"/>
<stop offset="1" stop-color="#333399" stop-opacity="0.54"/>
</linearGradient>
<linearGradient id="paint15_linear" x1="570.984" y1="1496.42" x2="570.984" y2="262.282" gradientUnits="userSpaceOnUse">
<stop stop-color="#333399"/>
<stop offset="1" stop-color="#333399" stop-opacity="0.54"/>
</linearGradient>
<linearGradient id="paint16_linear" x1="577.566" y1="1479.8" x2="577.566" y2="244.346" gradientUnits="userSpaceOnUse">
<stop stop-color="#333399"/>
<stop offset="1" stop-color="#333399" stop-opacity="0.54"/>
</linearGradient>
<linearGradient id="paint17_linear" x1="584.147" y1="1463.18" x2="584.147" y2="226.404" gradientUnits="userSpaceOnUse">
<stop stop-color="#333399"/>
<stop offset="1" stop-color="#333399" stop-opacity="0.54"/>
</linearGradient>
<linearGradient id="paint18_linear" x1="590.729" y1="1446.55" x2="590.729" y2="208.457" gradientUnits="userSpaceOnUse">
<stop stop-color="#333399"/>
<stop offset="1" stop-color="#333399" stop-opacity="0.54"/>
</linearGradient>
<linearGradient id="paint19_linear" x1="597.309" y1="1429.93" x2="597.309" y2="190.507" gradientUnits="userSpaceOnUse">
<stop stop-color="#333399"/>
<stop offset="1" stop-color="#333399" stop-opacity="0.54"/>
</linearGradient>
<linearGradient id="paint20_linear" x1="603.891" y1="1413.31" x2="603.891" y2="172.553" gradientUnits="userSpaceOnUse">
<stop stop-color="#333399"/>
<stop offset="1" stop-color="#333399" stop-opacity="0.54"/>
</linearGradient>
<linearGradient id="paint21_linear" x1="610.472" y1="1396.68" x2="610.472" y2="154.594" gradientUnits="userSpaceOnUse">
<stop stop-color="#333399"/>
<stop offset="1" stop-color="#333399" stop-opacity="0.54"/>
</linearGradient>
<linearGradient id="paint22_linear" x1="577.216" y1="678.603" x2="577.216" y2="1959.62" gradientUnits="userSpaceOnUse">
<stop stop-color="#333399"/>
<stop offset="1" stop-color="#333399" stop-opacity="0.54"/>
</linearGradient>
<linearGradient id="paint23_linear" x1="443.948" y1="1027.69" x2="443.948" y2="2271.12" gradientUnits="userSpaceOnUse">
<stop stop-color="#333399"/>
<stop offset="1" stop-color="#333399" stop-opacity="0.54"/>
</linearGradient>
<linearGradient id="paint24_linear" x1="570.869" y1="695.227" x2="570.869" y2="1971.89" gradientUnits="userSpaceOnUse">
<stop stop-color="#333399"/>
<stop offset="1" stop-color="#333399" stop-opacity="0.54"/>
</linearGradient>
<linearGradient id="paint25_linear" x1="564.524" y1="711.85" x2="564.524" y2="1984.16" gradientUnits="userSpaceOnUse">
<stop stop-color="#333399"/>
<stop offset="1" stop-color="#333399" stop-opacity="0.54"/>
</linearGradient>
<linearGradient id="paint26_linear" x1="558.177" y1="728.473" x2="558.177" y2="1996.43" gradientUnits="userSpaceOnUse">
<stop stop-color="#333399"/>
<stop offset="1" stop-color="#333399" stop-opacity="0.54"/>
</linearGradient>
<linearGradient id="paint27_linear" x1="551.832" y1="745.096" x2="551.832" y2="2008.71" gradientUnits="userSpaceOnUse">
<stop stop-color="#333399"/>
<stop offset="1" stop-color="#333399" stop-opacity="0.54"/>
</linearGradient>
<linearGradient id="paint28_linear" x1="545.486" y1="761.72" x2="545.486" y2="2020.98" gradientUnits="userSpaceOnUse">
<stop stop-color="#333399"/>
<stop offset="1" stop-color="#333399" stop-opacity="0.54"/>
</linearGradient>
<linearGradient id="paint29_linear" x1="539.14" y1="778.343" x2="539.14" y2="2033.25" gradientUnits="userSpaceOnUse">
<stop stop-color="#333399"/>
<stop offset="1" stop-color="#333399" stop-opacity="0.54"/>
</linearGradient>
<linearGradient id="paint30_linear" x1="532.793" y1="794.967" x2="532.793" y2="2045.53" gradientUnits="userSpaceOnUse">
<stop stop-color="#333399"/>
<stop offset="1" stop-color="#333399" stop-opacity="0.54"/>
</linearGradient>
<linearGradient id="paint31_linear" x1="526.447" y1="811.59" x2="526.447" y2="2057.8" gradientUnits="userSpaceOnUse">
<stop stop-color="#333399"/>
<stop offset="1" stop-color="#333399" stop-opacity="0.54"/>
</linearGradient>
<linearGradient id="paint32_linear" x1="520.1" y1="828.213" x2="520.1" y2="2070.07" gradientUnits="userSpaceOnUse">
<stop stop-color="#333399"/>
<stop offset="1" stop-color="#333399" stop-opacity="0.54"/>
</linearGradient>
<linearGradient id="paint33_linear" x1="513.755" y1="844.836" x2="513.755" y2="2082.35" gradientUnits="userSpaceOnUse">
<stop stop-color="#333399"/>
<stop offset="1" stop-color="#333399" stop-opacity="0.54"/>
</linearGradient>
<linearGradient id="paint34_linear" x1="507.41" y1="861.46" x2="507.41" y2="2094.62" gradientUnits="userSpaceOnUse">
<stop stop-color="#333399"/>
<stop offset="1" stop-color="#333399" stop-opacity="0.54"/>
</linearGradient>
<linearGradient id="paint35_linear" x1="501.063" y1="878.083" x2="501.063" y2="2109.61" gradientUnits="userSpaceOnUse">
<stop stop-color="#333399"/>
<stop offset="1" stop-color="#333399" stop-opacity="0.54"/>
</linearGradient>
<linearGradient id="paint36_linear" x1="494.717" y1="894.707" x2="494.717" y2="2127.54" gradientUnits="userSpaceOnUse">
<stop stop-color="#333399"/>
<stop offset="1" stop-color="#333399" stop-opacity="0.54"/>
</linearGradient>
<linearGradient id="paint37_linear" x1="488.371" y1="911.329" x2="488.371" y2="2145.47" gradientUnits="userSpaceOnUse">
<stop stop-color="#333399"/>
<stop offset="1" stop-color="#333399" stop-opacity="0.54"/>
</linearGradient>
<linearGradient id="paint38_linear" x1="482.025" y1="927.953" x2="482.025" y2="2163.41" gradientUnits="userSpaceOnUse">
<stop stop-color="#333399"/>
<stop offset="1" stop-color="#333399" stop-opacity="0.54"/>
</linearGradient>
<linearGradient id="paint39_linear" x1="475.679" y1="944.576" x2="475.679" y2="2181.35" gradientUnits="userSpaceOnUse">
<stop stop-color="#333399"/>
<stop offset="1" stop-color="#333399" stop-opacity="0.54"/>
</linearGradient>
<linearGradient id="paint40_linear" x1="469.333" y1="961.199" x2="469.333" y2="2199.29" gradientUnits="userSpaceOnUse">
<stop stop-color="#333399"/>
<stop offset="1" stop-color="#333399" stop-opacity="0.54"/>
</linearGradient>
<linearGradient id="paint41_linear" x1="462.986" y1="977.823" x2="462.986" y2="2217.24" gradientUnits="userSpaceOnUse">
<stop stop-color="#333399"/>
<stop offset="1" stop-color="#333399" stop-opacity="0.54"/>
</linearGradient>
<linearGradient id="paint42_linear" x1="456.64" y1="994.446" x2="456.64" y2="2235.2" gradientUnits="userSpaceOnUse">
<stop stop-color="#333399"/>
<stop offset="1" stop-color="#333399" stop-opacity="0.54"/>
</linearGradient>
<linearGradient id="paint43_linear" x1="450.295" y1="1011.07" x2="450.295" y2="2253.16" gradientUnits="userSpaceOnUse">
<stop stop-color="#333399"/>
<stop offset="1" stop-color="#333399" stop-opacity="0.54"/>
</linearGradient>
</defs>
</svg>
