<svg width="770" height="905" viewBox="0 0 770 905" fill="none" xmlns="http://www.w3.org/2000/svg">
<path opacity="0.2" d="M881.164 930.654C815.078 1042.04 466.887 1078.17 466.887 922.541C466.887 877.252 711.644 585.548 650.694 492.568C589.743 399.588 437.14 658.179 414.946 542.905C392.753 427.631 523.515 330.314 391.017 243.883C258.519 157.451 33.088 413.945 -127.159 325.01C-185.78 292.476 -203.339 189.758 -291.506 183.657C-431.48 173.973 -522.82 317.806 -666.155 332.186C-752.09 340.808 -765.495 227.114 -839.393 243.883C-985.294 276.991 -1132.51 370.023 -1263 444.828" stroke="url(#paint0_linear)" stroke-linecap="round" stroke-linejoin="round"/>
<path opacity="0.2" d="M1111 700.707C1044.91 812.09 696.723 848.221 696.723 692.594C696.723 647.305 941.481 355.601 880.53 262.621C819.579 169.641 611.937 377.895 589.743 262.621C567.549 147.347 616.211 79 483.714 -7.43148C351.216 -93.863 302.382 236.285 142.135 147.351C83.5145 114.817 -60.4854 20.036 -148.652 13.9359C-288.626 4.2512 -288.485 132.971 -431.82 147.351C-517.755 155.972 -567.44 29.3042 -641.338 46.0734C-787.24 79.182 -1132.43 370.008 -1262.91 444.812" stroke="url(#paint1_linear)" stroke-linecap="round" stroke-linejoin="round"/>
<path opacity="0.2" d="M892.109 919.704C826.023 1031.09 477.831 1067.22 477.831 911.591C477.831 866.302 722.589 574.598 661.639 481.618C600.688 388.638 445.464 644.832 423.27 529.558C401.077 414.284 527.93 318.347 395.432 231.915C262.934 145.484 45.9119 405.485 -114.336 316.55C-172.956 284.017 -196.536 181.676 -284.703 175.576C-424.677 165.891 -511.661 309.005 -654.996 323.385C-740.931 332.006 -756.063 217.694 -829.961 234.463C-975.863 267.572 -1132.51 370.023 -1263 444.827" stroke="url(#paint2_linear)"/>
<path opacity="0.2" d="M903.053 908.754C836.967 1020.14 488.776 1056.27 488.776 900.642C488.776 855.352 733.534 563.649 672.583 470.668C611.632 377.688 453.787 631.485 431.594 516.211C409.4 400.937 532.343 306.38 399.846 219.948C267.348 133.517 58.7351 397.025 -101.512 308.09C-160.133 275.556 -189.734 173.594 -277.901 167.494C-417.875 157.809 -500.503 300.203 -643.837 314.583C-729.772 323.204 -746.632 208.275 -820.53 225.044C-966.432 258.152 -1132.51 370.022 -1262.99 444.826" stroke="url(#paint3_linear)"/>
<path opacity="0.2" d="M913.998 897.804C847.912 1009.19 499.721 1045.32 499.721 889.692C499.721 844.402 744.479 552.699 683.528 459.719C622.577 366.739 462.112 618.138 439.918 502.864C417.724 387.59 536.758 294.412 404.26 207.981C271.762 121.549 71.559 388.565 -88.6884 299.63C-147.309 267.097 -182.931 165.512 -271.098 159.412C-411.072 149.727 -489.344 291.401 -632.678 305.781C-718.613 314.403 -737.201 198.855 -811.099 215.624C-957 248.733 -1132.5 370.021 -1262.99 444.826" stroke="url(#paint4_linear)"/>
<path opacity="0.2" d="M924.942 886.855C858.856 998.238 510.665 1034.37 510.665 878.742C510.665 833.452 755.423 541.749 694.472 448.769C633.521 355.789 470.434 604.791 448.241 489.517C426.047 374.244 541.171 282.445 408.673 196.013C276.176 109.582 84.3818 380.105 -75.8656 291.17C-134.486 258.637 -176.129 157.43 -264.296 151.33C-404.27 141.645 -478.185 282.6 -621.52 296.98C-707.455 305.601 -727.77 189.436 -801.668 206.205C-947.57 239.313 -1132.5 370.02 -1262.98 444.825" stroke="url(#paint5_linear)"/>
<path opacity="0.2" d="M935.886 875.905C869.801 987.288 521.609 1023.42 521.609 867.792C521.609 822.502 766.367 530.799 705.416 437.819C644.466 344.839 478.758 591.444 456.564 476.171C434.371 360.897 545.586 270.478 413.088 184.046C280.59 97.6145 97.2055 371.645 -63.0419 282.71C-121.662 250.177 -169.327 149.348 -257.493 143.248C-397.467 133.563 -467.026 273.798 -610.361 288.178C-696.296 296.799 -718.339 180.016 -792.237 196.785C-938.139 229.894 -1132.49 370.02 -1262.98 444.824" stroke="url(#paint6_linear)"/>
<path opacity="0.2" d="M946.831 864.955C880.745 976.338 532.554 1012.47 532.554 856.842C532.554 811.553 777.312 519.849 716.361 426.869C655.41 333.889 487.082 578.098 464.888 462.824C442.694 347.55 550 258.51 417.502 172.079C285.004 85.6472 110.029 363.185 -50.2186 274.25C-108.839 241.717 -162.524 141.266 -250.691 135.166C-390.665 125.481 -455.868 264.996 -599.202 279.376C-685.138 287.998 -708.908 170.597 -782.806 187.366C-928.708 220.474 -1132.49 370.019 -1262.97 444.824" stroke="url(#paint7_linear)"/>
<path opacity="0.2" d="M957.776 854.005C891.69 965.388 543.499 1001.52 543.499 845.892C543.499 800.603 788.257 508.899 727.306 415.919C666.355 322.939 495.406 564.751 473.212 449.477C451.018 334.203 554.414 246.543 421.916 160.111C289.418 73.6799 122.853 354.725 -37.3948 265.79C-96.015 233.257 -155.721 133.184 -243.888 127.084C-383.862 117.399 -444.709 256.195 -588.043 270.575C-673.979 279.196 -699.477 161.177 -773.375 177.946C-919.276 211.055 -1132.49 370.018 -1262.97 444.823" stroke="url(#paint8_linear)"/>
<path opacity="0.2" d="M968.721 843.055C902.635 954.438 554.444 990.569 554.444 834.942C554.444 789.653 799.201 497.949 738.251 404.969C677.3 311.989 503.73 551.404 481.536 436.13C459.342 320.856 558.828 234.575 426.33 148.144C293.833 61.7124 135.676 346.265 -24.571 257.33C-83.1912 224.797 -148.919 125.102 -237.085 119.002C-377.059 109.317 -433.55 247.393 -576.884 261.773C-662.819 270.394 -690.045 151.758 -763.943 168.527C-909.845 201.635 -1132.48 370.017 -1262.97 444.822" stroke="url(#paint9_linear)"/>
<path opacity="0.2" d="M979.665 832.105C913.58 943.489 565.388 979.619 565.388 823.993C565.388 778.703 810.146 487 749.195 394.019C688.244 301.039 512.053 538.057 489.859 422.783C467.665 307.509 563.242 222.608 430.744 136.177C298.247 49.7451 148.5 337.805 -11.7474 248.87C-70.3676 216.337 -142.116 117.02 -230.283 110.92C-370.256 101.235 -422.391 238.591 -565.725 252.971C-651.66 261.592 -680.614 142.338 -754.512 159.107C-900.414 192.216 -1132.48 370.017 -1262.96 444.821" stroke="url(#paint10_linear)"/>
<path opacity="0.2" d="M990.61 821.155C924.524 932.539 576.333 968.67 576.333 813.043C576.333 767.753 821.091 476.05 760.14 383.07C699.189 290.089 520.377 524.71 498.183 409.436C475.989 294.163 567.657 210.641 435.159 124.209C302.661 37.7778 161.324 329.345 1.0761 240.41C-57.5441 207.877 -135.313 108.938 -223.48 102.838C-363.454 93.153 -411.232 229.789 -554.567 244.169C-640.502 252.791 -671.183 132.919 -745.081 149.688C-890.983 182.796 -1132.47 370.016 -1262.96 444.821" stroke="url(#paint11_linear)"/>
<path opacity="0.2" d="M1001.55 810.206C935.468 921.589 587.277 957.72 587.277 802.093C587.277 756.803 832.035 465.1 771.084 372.12C710.133 279.14 528.7 511.363 506.506 396.09C484.312 280.816 572.07 198.673 439.572 112.242C307.074 25.8104 174.146 320.885 13.899 231.95C-44.7212 199.417 -128.512 100.856 -216.678 94.7556C-356.652 85.0709 -400.074 220.988 -543.408 235.368C-629.343 243.989 -661.752 123.499 -735.65 140.268C-881.552 173.377 -1132.47 370.015 -1262.95 444.82" stroke="url(#paint12_linear)"/>
<path opacity="0.2" d="M1012.5 799.256C946.413 910.639 598.222 946.77 598.222 791.143C598.222 745.853 842.98 454.15 782.029 361.17C721.078 268.19 537.024 498.017 514.83 382.743C492.636 267.469 576.484 186.706 443.987 100.275C311.489 13.8431 186.97 312.425 26.7228 223.49C-31.8974 190.957 -121.709 92.7738 -209.875 86.6737C-349.849 76.989 -388.915 212.186 -532.249 226.566C-618.184 235.187 -652.321 114.08 -726.219 130.849C-872.121 163.957 -1132.46 370.014 -1262.95 444.819" stroke="url(#paint13_linear)"/>
<path opacity="0.2" d="M1023.44 788.306C957.358 899.689 609.166 935.82 609.166 780.193C609.166 734.904 853.924 443.2 792.973 350.22C732.022 257.24 545.347 484.67 523.153 369.396C500.96 254.122 580.898 174.739 448.4 88.3073C315.903 1.87575 199.794 303.965 39.5461 215.03C-19.0741 182.497 -114.906 84.6919 -203.073 78.5917C-343.047 68.9071 -377.756 203.384 -521.091 217.764C-607.026 226.386 -642.89 104.66 -716.788 121.429C-862.69 154.538 -1132.46 370.014 -1262.95 444.818" stroke="url(#paint14_linear)"/>
<path opacity="0.2" d="M1034.39 777.356C968.302 888.739 620.111 924.87 620.111 769.243C620.111 723.954 864.869 432.25 803.918 339.27C742.967 246.29 553.671 471.323 531.477 356.049C509.283 240.775 585.313 162.771 452.815 76.34C320.317 -10.0916 212.617 295.505 52.3698 206.57C-6.25043 174.037 -108.104 76.6099 -196.27 70.5098C-336.244 60.8251 -366.597 194.583 -509.932 208.963C-595.867 217.584 -633.459 95.2407 -707.357 112.01C-853.258 145.118 -1132.46 370.013 -1262.94 444.818" stroke="url(#paint15_linear)"/>
<path opacity="0.2" d="M1045.33 766.406C979.247 877.79 631.056 913.92 631.056 758.293C631.056 713.004 875.814 421.3 814.863 328.32C753.912 235.34 561.995 457.976 539.801 342.702C517.607 227.428 589.727 150.804 457.229 64.3726C324.731 -22.0589 225.441 287.045 65.1937 198.11C6.57352 165.577 -101.301 68.5279 -189.467 62.4278C-329.441 52.7431 -355.438 185.781 -498.772 200.161C-584.707 208.782 -624.027 85.8212 -697.925 102.59C-843.827 135.699 -1132.45 370.012 -1262.94 444.817" stroke="url(#paint16_linear)"/>
<path opacity="0.2" d="M1056.28 755.456C990.192 866.84 642 902.97 642 747.344C642 702.054 886.758 410.351 825.807 317.37C764.856 224.39 570.318 444.629 548.125 329.355C525.931 214.081 594.141 138.837 461.643 52.4052C329.145 -34.0263 238.264 278.585 78.017 189.65C19.3968 157.117 -94.4983 60.4459 -182.665 54.3457C-322.639 44.661 -344.279 176.979 -487.614 191.359C-573.549 199.98 -614.596 76.4016 -688.494 93.1708C-834.396 126.279 -1132.45 370.011 -1262.93 444.816" stroke="url(#paint17_linear)"/>
<path opacity="0.2" d="M1067.22 744.506C1001.14 855.89 652.945 892.021 652.945 736.394C652.945 691.104 897.703 399.401 836.752 306.421C775.801 213.44 578.642 431.282 556.449 316.009C534.255 200.735 598.555 126.869 466.058 40.4379C333.56 -45.9937 251.088 270.125 90.8409 181.19C32.2207 148.657 -87.6954 52.3639 -175.862 46.2638C-315.836 36.5791 -333.12 168.177 -476.455 182.557C-562.39 191.179 -605.165 66.9822 -679.063 83.7514C-824.964 116.86 -1132.44 370.011 -1262.93 444.815" stroke="url(#paint18_linear)"/>
<path opacity="0.2" d="M1078.17 733.557C1012.08 844.94 663.889 881.071 663.889 725.444C663.889 680.154 908.647 388.451 847.696 295.471C786.745 202.491 586.965 417.935 564.772 302.662C542.578 187.388 602.969 114.902 470.471 28.4705C337.973 -57.961 263.911 261.665 103.664 172.73C45.0434 140.197 -80.8936 44.2819 -169.06 38.1818C-309.034 28.4971 -321.962 159.376 -465.297 173.756C-551.232 182.377 -595.734 57.5626 -669.632 74.3318C-815.534 107.44 -1132.44 370.01 -1262.92 444.815" stroke="url(#paint19_linear)"/>
<path opacity="0.2" d="M1089.11 722.607C1023.03 833.99 674.834 870.121 674.834 714.494C674.834 669.205 919.592 377.501 858.641 284.521C797.69 191.541 595.289 404.589 573.095 289.315C550.902 174.041 607.383 102.935 474.885 16.5033C342.387 -69.9282 276.735 253.205 116.487 164.271C57.8672 131.737 -74.0908 36.2 -162.257 30.0999C-302.231 20.4152 -310.803 150.574 -454.138 164.954C-540.073 173.575 -586.303 48.1433 -660.201 64.9125C-806.103 98.021 -1132.43 370.009 -1262.92 444.814" stroke="url(#paint20_linear)"/>
<path opacity="0.2" d="M1100.06 711.657C1033.97 823.04 685.778 859.171 685.778 703.544C685.778 658.255 930.536 366.551 869.585 273.571C808.634 180.591 603.613 391.242 581.419 275.968C559.225 160.694 611.797 90.9674 479.299 4.53584C346.801 -81.8957 289.558 244.745 129.311 155.811C70.6906 123.277 -67.2884 28.118 -155.455 22.0178C-295.429 12.3331 -299.644 141.772 -442.979 156.152C-528.914 164.774 -576.872 38.7237 -650.77 55.4929C-796.672 88.6014 -1132.43 370.008 -1262.92 444.813" stroke="url(#paint21_linear)"/>
<defs>
<linearGradient id="paint0_linear" x1="-190.918" y1="1027" x2="-190.918" y2="183.19" gradientUnits="userSpaceOnUse">
<stop stop-color="#333399"/>
<stop offset="1" stop-color="#333399" stop-opacity="0.54"/>
</linearGradient>
<linearGradient id="paint1_linear" x1="-75.9553" y1="797.053" x2="-75.9553" y2="-22" gradientUnits="userSpaceOnUse">
<stop stop-color="#333399"/>
<stop offset="1" stop-color="#333399" stop-opacity="0.54"/>
</linearGradient>
<linearGradient id="paint2_linear" x1="-185.443" y1="1016.05" x2="-185.443" y2="175.106" gradientUnits="userSpaceOnUse">
<stop stop-color="#333399"/>
<stop offset="1" stop-color="#333399" stop-opacity="0.54"/>
</linearGradient>
<linearGradient id="paint3_linear" x1="-179.969" y1="1005.1" x2="-179.969" y2="167.021" gradientUnits="userSpaceOnUse">
<stop stop-color="#333399"/>
<stop offset="1" stop-color="#333399" stop-opacity="0.54"/>
</linearGradient>
<linearGradient id="paint4_linear" x1="-174.495" y1="994.15" x2="-174.495" y2="158.937" gradientUnits="userSpaceOnUse">
<stop stop-color="#333399"/>
<stop offset="1" stop-color="#333399" stop-opacity="0.54"/>
</linearGradient>
<linearGradient id="paint5_linear" x1="-169.021" y1="983.201" x2="-169.021" y2="150.853" gradientUnits="userSpaceOnUse">
<stop stop-color="#333399"/>
<stop offset="1" stop-color="#333399" stop-opacity="0.54"/>
</linearGradient>
<linearGradient id="paint6_linear" x1="-163.546" y1="972.251" x2="-163.546" y2="142.769" gradientUnits="userSpaceOnUse">
<stop stop-color="#333399"/>
<stop offset="1" stop-color="#333399" stop-opacity="0.54"/>
</linearGradient>
<linearGradient id="paint7_linear" x1="-158.072" y1="961.301" x2="-158.072" y2="134.684" gradientUnits="userSpaceOnUse">
<stop stop-color="#333399"/>
<stop offset="1" stop-color="#333399" stop-opacity="0.54"/>
</linearGradient>
<linearGradient id="paint8_linear" x1="-152.597" y1="950.351" x2="-152.597" y2="126.6" gradientUnits="userSpaceOnUse">
<stop stop-color="#333399"/>
<stop offset="1" stop-color="#333399" stop-opacity="0.54"/>
</linearGradient>
<linearGradient id="paint9_linear" x1="-147.123" y1="939.401" x2="-147.123" y2="118.516" gradientUnits="userSpaceOnUse">
<stop stop-color="#333399"/>
<stop offset="1" stop-color="#333399" stop-opacity="0.54"/>
</linearGradient>
<linearGradient id="paint10_linear" x1="-141.648" y1="928.451" x2="-141.648" y2="110.431" gradientUnits="userSpaceOnUse">
<stop stop-color="#333399"/>
<stop offset="1" stop-color="#333399" stop-opacity="0.54"/>
</linearGradient>
<linearGradient id="paint11_linear" x1="-136.174" y1="917.501" x2="-136.174" y2="102.347" gradientUnits="userSpaceOnUse">
<stop stop-color="#333399"/>
<stop offset="1" stop-color="#333399" stop-opacity="0.54"/>
</linearGradient>
<linearGradient id="paint12_linear" x1="-130.7" y1="906.552" x2="-130.7" y2="94.2622" gradientUnits="userSpaceOnUse">
<stop stop-color="#333399"/>
<stop offset="1" stop-color="#333399" stop-opacity="0.54"/>
</linearGradient>
<linearGradient id="paint13_linear" x1="-125.225" y1="895.602" x2="-125.225" y2="84.3882" gradientUnits="userSpaceOnUse">
<stop stop-color="#333399"/>
<stop offset="1" stop-color="#333399" stop-opacity="0.54"/>
</linearGradient>
<linearGradient id="paint14_linear" x1="-119.751" y1="884.652" x2="-119.751" y2="72.5792" gradientUnits="userSpaceOnUse">
<stop stop-color="#333399"/>
<stop offset="1" stop-color="#333399" stop-opacity="0.54"/>
</linearGradient>
<linearGradient id="paint15_linear" x1="-114.276" y1="873.702" x2="-114.276" y2="60.767" gradientUnits="userSpaceOnUse">
<stop stop-color="#333399"/>
<stop offset="1" stop-color="#333399" stop-opacity="0.54"/>
</linearGradient>
<linearGradient id="paint16_linear" x1="-108.802" y1="862.752" x2="-108.802" y2="48.9516" gradientUnits="userSpaceOnUse">
<stop stop-color="#333399"/>
<stop offset="1" stop-color="#333399" stop-opacity="0.54"/>
</linearGradient>
<linearGradient id="paint17_linear" x1="-103.328" y1="851.802" x2="-103.328" y2="37.1332" gradientUnits="userSpaceOnUse">
<stop stop-color="#333399"/>
<stop offset="1" stop-color="#333399" stop-opacity="0.54"/>
</linearGradient>
<linearGradient id="paint18_linear" x1="-97.8527" y1="840.852" x2="-97.8527" y2="25.312" gradientUnits="userSpaceOnUse">
<stop stop-color="#333399"/>
<stop offset="1" stop-color="#333399" stop-opacity="0.54"/>
</linearGradient>
<linearGradient id="paint19_linear" x1="-92.379" y1="829.903" x2="-92.379" y2="13.4879" gradientUnits="userSpaceOnUse">
<stop stop-color="#333399"/>
<stop offset="1" stop-color="#333399" stop-opacity="0.54"/>
</linearGradient>
<linearGradient id="paint20_linear" x1="-86.9044" y1="818.953" x2="-86.9044" y2="1.66138" gradientUnits="userSpaceOnUse">
<stop stop-color="#333399"/>
<stop offset="1" stop-color="#333399" stop-opacity="0.54"/>
</linearGradient>
<linearGradient id="paint21_linear" x1="-81.4301" y1="808.003" x2="-81.4301" y2="-10.1681" gradientUnits="userSpaceOnUse">
<stop stop-color="#333399"/>
<stop offset="1" stop-color="#333399" stop-opacity="0.54"/>
</linearGradient>
</defs>
</svg>
