<svg width="1920" height="659" viewBox="0 0 1920 659" fill="none" xmlns="http://www.w3.org/2000/svg">
<mask id="mask0" mask-type="alpha" maskUnits="userSpaceOnUse" x="-2" y="0" width="1922" height="659">
<rect x="-2" width="1922" height="659" fill="#4C4A58"/>
</mask>
<g mask="url(#mask0)">
<path opacity="0.2" d="M1288.16 930.654C1222.08 1042.04 873.887 1078.17 873.887 922.541C873.887 877.252 1118.64 585.548 1057.69 492.568C996.743 399.588 844.14 658.179 821.946 542.905C799.753 427.631 930.515 330.314 798.017 243.883C665.519 157.451 440.088 413.945 279.841 325.01C221.22 292.476 203.661 189.758 115.494 183.657C-24.4798 173.973 -115.82 317.806 -259.155 332.186C-345.09 340.808 -358.495 227.114 -432.393 243.883C-578.294 276.991 -725.515 370.023 -856 444.828" stroke="url(#paint0_linear)" stroke-linecap="round" stroke-linejoin="round"/>
<path opacity="0.2" d="M1299.11 919.704C1233.02 1031.09 884.831 1067.22 884.831 911.591C884.831 866.302 1129.59 574.598 1068.64 481.618C1007.69 388.638 852.464 644.832 830.27 529.558C808.076 414.284 934.929 318.347 802.432 231.915C669.934 145.484 452.912 405.485 292.664 316.55C234.044 284.017 210.464 181.676 122.297 175.576C-17.677 165.891 -104.661 309.005 -247.996 323.385C-333.931 332.006 -349.063 217.694 -422.961 234.463C-568.863 267.572 -725.51 370.023 -855.996 444.827" stroke="url(#paint2_linear)"/>
<path opacity="0.2" d="M1310.05 908.754C1243.97 1020.14 895.776 1056.27 895.776 900.642C895.776 855.352 1140.53 563.649 1079.58 470.668C1018.63 377.688 860.787 631.485 838.594 516.211C816.4 400.937 939.343 306.38 806.845 219.948C674.348 133.517 465.735 397.025 305.488 308.09C246.867 275.557 217.266 173.594 129.099 167.494C-10.8748 157.809 -93.503 300.203 -236.838 314.583C-322.773 323.204 -339.632 208.275 -413.53 225.044C-559.432 258.152 -725.506 370.022 -855.992 444.827" stroke="url(#paint3_linear)"/>
<path opacity="0.2" d="M1321 897.804C1254.91 1009.19 906.721 1045.32 906.721 889.692C906.721 844.402 1151.48 552.699 1090.53 459.719C1029.58 366.738 869.112 618.138 846.918 502.864C824.724 387.59 943.758 294.412 811.26 207.981C678.762 121.549 478.559 388.565 318.312 299.63C259.691 267.097 224.069 165.512 135.902 159.412C-4.07162 149.727 -82.3435 291.401 -225.678 305.781C-311.613 314.403 -330.201 198.855 -404.099 215.624C-550 248.733 -725.502 370.021 -855.987 444.826" stroke="url(#paint4_linear)"/>
<path opacity="0.2" d="M1331.94 886.855C1265.86 998.238 917.665 1034.37 917.665 878.742C917.665 833.452 1162.42 541.749 1101.47 448.769C1040.52 355.789 877.434 604.791 855.241 489.518C833.047 374.244 948.171 282.445 815.673 196.013C683.176 109.582 491.382 380.105 331.134 291.17C272.514 258.637 230.871 157.43 142.704 151.33C2.73015 141.645 -71.1855 282.6 -214.52 296.98C-300.455 305.601 -320.77 189.436 -394.668 206.205C-540.57 239.313 -725.498 370.02 -855.983 444.825" stroke="url(#paint5_linear)"/>
<path opacity="0.2" d="M1342.89 875.905C1276.8 987.288 928.609 1023.42 928.609 867.792C928.609 822.502 1173.37 530.799 1112.42 437.819C1051.47 344.839 885.758 591.444 863.564 476.171C841.371 360.897 952.586 270.478 820.088 184.046C687.59 97.6145 504.206 371.645 343.958 282.71C285.338 250.177 237.673 149.348 149.507 143.248C9.53298 133.563 -60.0264 273.798 -203.361 288.178C-289.296 296.799 -311.339 180.016 -385.237 196.785C-531.139 229.894 -725.494 370.02 -855.979 444.824" stroke="url(#paint6_linear)"/>
<path opacity="0.2" d="M1353.83 864.955C1287.75 976.338 939.554 1012.47 939.554 856.842C939.554 811.553 1184.31 519.849 1123.36 426.869C1062.41 333.889 894.082 578.098 871.888 462.824C849.694 347.55 957 258.51 824.502 172.079C692.004 85.6472 517.029 363.185 356.781 274.25C298.161 241.717 244.476 141.266 156.309 135.166C16.3352 125.481 -48.8679 264.996 -192.202 279.376C-278.138 287.998 -301.908 170.597 -375.806 187.366C-521.708 220.474 -725.49 370.019 -855.975 444.824" stroke="url(#paint7_linear)"/>
<path opacity="0.2" d="M1364.78 854.005C1298.69 965.388 950.499 1001.52 950.499 845.892C950.499 800.603 1195.26 508.899 1134.31 415.919C1073.35 322.939 902.406 564.751 880.212 449.477C858.018 334.203 961.414 246.543 828.916 160.111C696.418 73.6799 529.852 354.725 369.605 265.79C310.985 233.257 251.278 133.184 163.112 127.084C23.1379 117.399 -37.709 256.195 -181.044 270.575C-266.979 279.196 -292.477 161.177 -366.375 177.946C-512.276 211.055 -725.485 370.018 -855.971 444.823" stroke="url(#paint8_linear)"/>
<path opacity="0.2" d="M1375.72 843.055C1309.64 954.438 961.444 990.569 961.444 834.942C961.444 789.653 1206.2 497.949 1145.25 404.969C1084.3 311.989 910.73 551.404 888.536 436.13C866.342 320.856 965.828 234.575 833.331 148.144C700.833 61.7124 542.677 346.265 382.429 257.33C323.809 224.797 258.082 125.102 169.915 119.002C29.9411 109.317 -26.5496 247.393 -169.884 261.773C-255.819 270.394 -283.045 151.758 -356.943 168.527C-502.845 201.635 -725.48 370.017 -855.966 444.822" stroke="url(#paint9_linear)"/>
<path opacity="0.2" d="M1386.67 832.105C1320.58 943.489 972.388 979.619 972.388 823.993C972.388 778.703 1217.15 487 1156.2 394.019C1095.24 301.039 919.053 538.057 896.859 422.783C874.665 307.509 970.242 222.608 837.744 136.177C705.247 49.7451 555.5 337.805 395.253 248.87C336.632 216.337 264.884 117.02 176.717 110.92C36.7435 101.235 -15.3909 238.591 -158.725 252.971C-244.66 261.592 -273.614 142.338 -347.512 159.107C-493.414 192.216 -725.476 370.017 -855.961 444.821" stroke="url(#paint10_linear)"/>
<path opacity="0.2" d="M1397.61 821.155C1331.52 932.539 983.333 968.67 983.333 813.043C983.333 767.753 1228.09 476.05 1167.14 383.07C1106.19 290.089 927.377 524.71 905.183 409.436C882.989 294.163 974.657 210.641 842.159 124.209C709.661 37.7778 568.324 329.345 408.076 240.41C349.456 207.877 271.687 108.938 183.52 102.838C43.5461 93.153 -4.23209 229.789 -147.567 244.169C-233.502 252.791 -264.183 132.919 -338.081 149.688C-483.983 182.796 -725.472 370.016 -855.957 444.821" stroke="url(#paint11_linear)"/>
<path opacity="0.2" d="M1408.55 810.205C1342.47 921.589 994.277 957.72 994.277 802.093C994.277 756.803 1239.03 465.1 1178.08 372.12C1117.13 279.14 935.7 511.363 913.506 396.089C891.312 280.816 979.07 198.673 846.572 112.242C714.074 25.8103 581.146 320.885 420.899 231.95C362.279 199.417 278.488 100.856 190.322 94.7555C50.348 85.0709 6.92626 220.988 -136.408 235.368C-222.343 243.989 -254.752 123.499 -328.65 140.268C-474.552 173.377 -725.468 370.015 -855.954 444.82" stroke="url(#paint12_linear)"/>
<path opacity="0.2" d="M1419.5 799.256C1353.41 910.639 1005.22 946.77 1005.22 791.143C1005.22 745.853 1249.98 454.15 1189.03 361.17C1128.08 268.19 944.024 498.017 921.83 382.743C899.636 267.469 983.484 186.706 850.986 100.275C718.489 13.8431 593.97 312.425 433.723 223.49C375.102 190.957 285.291 92.7739 197.125 86.6737C57.1508 76.9891 18.0853 212.186 -125.249 226.566C-211.184 235.187 -245.321 114.08 -319.219 130.849C-465.121 163.957 -725.464 370.014 -855.949 444.819" stroke="url(#paint13_linear)"/>
<path opacity="0.2" d="M1430.44 788.306C1364.36 899.689 1016.17 935.82 1016.17 780.193C1016.17 734.904 1260.92 443.2 1199.97 350.22C1139.02 257.24 952.347 484.67 930.153 369.396C907.959 254.122 987.898 174.739 855.4 88.3072C722.902 1.87569 606.793 303.965 446.546 215.03C387.926 182.497 292.094 84.6918 203.927 78.5917C63.9531 68.907 29.2439 203.384 -114.091 217.764C-200.026 226.386 -235.89 104.66 -309.788 121.429C-455.69 154.538 -725.46 370.014 -855.945 444.818" stroke="url(#paint14_linear)"/>
<path opacity="0.2" d="M1441.39 777.356C1375.3 888.739 1027.11 924.87 1027.11 769.243C1027.11 723.954 1271.87 432.25 1210.92 339.27C1149.97 246.29 960.671 471.323 938.477 356.049C916.284 240.775 992.313 162.772 859.815 76.34C727.317 -10.0915 619.617 295.505 459.37 206.57C400.75 174.037 298.897 76.61 210.73 70.5098C70.756 60.8252 40.403 194.583 -102.932 208.963C-188.867 217.584 -226.459 95.2407 -300.357 112.01C-446.258 145.118 -725.455 370.013 -855.941 444.818" stroke="url(#paint15_linear)"/>
<path opacity="0.2" d="M1452.33 766.406C1386.25 877.79 1038.06 913.92 1038.06 758.293C1038.06 713.004 1282.81 421.3 1221.86 328.32C1160.91 235.34 968.995 457.976 946.801 342.702C924.607 227.428 996.727 150.804 864.229 64.3726C731.731 -22.0589 632.441 287.045 472.194 198.11C413.574 165.577 305.699 68.5279 217.533 62.4278C77.559 52.7431 51.5622 185.781 -91.7724 200.161C-177.707 208.782 -217.027 85.8212 -290.925 102.59C-436.827 135.699 -725.451 370.012 -855.936 444.817" stroke="url(#paint16_linear)"/>
<path opacity="0.2" d="M1463.28 755.456C1397.19 866.84 1049 902.97 1049 747.344C1049 702.054 1293.76 410.35 1232.81 317.37C1171.86 224.39 977.318 444.629 955.125 329.355C932.931 214.081 1001.14 138.837 868.643 52.4051C736.145 -34.0264 645.264 278.585 485.017 189.65C426.397 157.117 312.502 60.4458 224.335 54.3456C84.3612 44.661 62.7207 176.979 -80.6138 191.359C-166.549 199.98 -207.596 76.4016 -281.494 93.1708C-427.396 126.279 -725.447 370.011 -855.932 444.816" stroke="url(#paint17_linear)"/>
<path opacity="0.2" d="M1474.22 744.507C1408.14 855.89 1059.94 892.021 1059.94 736.394C1059.94 691.104 1304.7 399.401 1243.75 306.421C1182.8 213.441 985.642 431.282 963.448 316.009C941.255 200.735 1005.56 126.869 873.057 40.4379C740.56 -45.9936 658.088 270.125 497.841 181.19C439.221 148.657 319.305 52.364 231.138 46.2638C91.1641 36.5792 73.8798 168.177 -69.4548 182.557C-155.39 191.179 -198.165 66.9822 -272.063 83.7514C-417.965 116.86 -725.442 370.011 -855.928 444.815" stroke="url(#paint18_linear)"/>
<path opacity="0.2" d="M1485.17 733.557C1419.08 844.94 1070.89 881.071 1070.89 725.444C1070.89 680.154 1315.65 388.451 1254.7 295.471C1193.74 202.491 993.965 417.935 971.771 302.662C949.578 187.388 1009.97 114.902 877.471 28.4705C744.973 -57.961 670.911 261.665 510.664 172.73C452.043 140.197 326.106 44.2819 237.94 38.1818C97.9658 28.4971 85.0379 159.376 -58.2967 173.756C-144.232 182.377 -188.734 57.5626 -262.633 74.3318C-408.534 107.44 -725.439 370.01 -855.924 444.815" stroke="url(#paint19_linear)"/>
<path opacity="0.2" d="M1496.11 722.607C1430.03 833.99 1081.83 870.121 1081.83 714.494C1081.83 669.205 1326.59 377.501 1265.64 284.521C1204.69 191.541 1002.29 404.589 980.096 289.315C957.902 174.041 1014.38 102.935 881.885 16.5033C749.388 -69.9282 683.735 253.205 523.487 164.271C464.867 131.737 332.909 36.2 244.743 30.0999C104.769 20.4152 96.1971 150.574 -47.1374 164.954C-133.072 173.575 -179.303 48.1433 -253.201 64.9125C-399.102 98.021 -725.434 370.009 -855.919 444.814" stroke="url(#paint20_linear)"/>
<path opacity="0.2" d="M1507.06 711.657C1440.97 823.04 1092.78 859.171 1092.78 703.544C1092.78 658.255 1337.54 366.551 1276.59 273.571C1215.63 180.591 1010.61 391.242 988.419 275.968C966.225 160.694 1018.8 90.9674 886.299 4.53584C753.801 -81.8957 696.558 244.745 536.311 155.811C477.691 123.277 339.712 28.118 251.545 22.0178C111.571 12.3331 107.356 141.772 -35.9789 156.152C-121.914 164.774 -169.872 38.7237 -243.77 55.4929C-389.672 88.6014 -725.43 370.008 -855.915 444.813" stroke="url(#paint21_linear)"/>
<path opacity="0.2" d="M1518 700.707C1451.91 812.09 1103.72 848.221 1103.72 692.594C1103.72 647.305 1348.48 355.601 1287.53 262.621C1226.58 169.641 1018.94 377.895 996.743 262.621C974.549 147.347 1023.21 79 890.714 -7.43148C758.216 -93.863 709.382 236.285 549.135 147.351C490.514 114.817 346.515 20.036 258.348 13.9359C118.374 4.2512 118.515 132.971 -24.8197 147.351C-110.755 155.972 -160.44 29.3042 -234.338 46.0734C-380.24 79.182 -725.425 370.008 -855.911 444.812" stroke="url(#paint1_linear)" stroke-linecap="round" stroke-linejoin="round"/>
</g>
<defs>
<linearGradient id="paint0_linear" x1="216.082" y1="1027" x2="216.082" y2="183.19" gradientUnits="userSpaceOnUse">
<stop stop-color="#333399"/>
<stop offset="1" stop-color="#333399" stop-opacity="0.54"/>
</linearGradient>
<linearGradient id="paint1_linear" x1="331.045" y1="797.053" x2="331.045" y2="-22" gradientUnits="userSpaceOnUse">
<stop stop-color="#333399"/>
<stop offset="1" stop-color="#333399" stop-opacity="0.54"/>
</linearGradient>
<linearGradient id="paint2_linear" x1="221.556" y1="1016.05" x2="221.556" y2="175.106" gradientUnits="userSpaceOnUse">
<stop stop-color="#333399"/>
<stop offset="1" stop-color="#333399" stop-opacity="0.54"/>
</linearGradient>
<linearGradient id="paint3_linear" x1="227.031" y1="1005.1" x2="227.031" y2="167.022" gradientUnits="userSpaceOnUse">
<stop stop-color="#333399"/>
<stop offset="1" stop-color="#333399" stop-opacity="0.54"/>
</linearGradient>
<linearGradient id="paint4_linear" x1="232.505" y1="994.15" x2="232.505" y2="158.937" gradientUnits="userSpaceOnUse">
<stop stop-color="#333399"/>
<stop offset="1" stop-color="#333399" stop-opacity="0.54"/>
</linearGradient>
<linearGradient id="paint5_linear" x1="237.979" y1="983.201" x2="237.979" y2="150.853" gradientUnits="userSpaceOnUse">
<stop stop-color="#333399"/>
<stop offset="1" stop-color="#333399" stop-opacity="0.54"/>
</linearGradient>
<linearGradient id="paint6_linear" x1="243.454" y1="972.251" x2="243.454" y2="142.769" gradientUnits="userSpaceOnUse">
<stop stop-color="#333399"/>
<stop offset="1" stop-color="#333399" stop-opacity="0.54"/>
</linearGradient>
<linearGradient id="paint7_linear" x1="248.928" y1="961.301" x2="248.928" y2="134.684" gradientUnits="userSpaceOnUse">
<stop stop-color="#333399"/>
<stop offset="1" stop-color="#333399" stop-opacity="0.54"/>
</linearGradient>
<linearGradient id="paint8_linear" x1="254.403" y1="950.351" x2="254.403" y2="126.6" gradientUnits="userSpaceOnUse">
<stop stop-color="#333399"/>
<stop offset="1" stop-color="#333399" stop-opacity="0.54"/>
</linearGradient>
<linearGradient id="paint9_linear" x1="259.878" y1="939.401" x2="259.878" y2="118.516" gradientUnits="userSpaceOnUse">
<stop stop-color="#333399"/>
<stop offset="1" stop-color="#333399" stop-opacity="0.54"/>
</linearGradient>
<linearGradient id="paint10_linear" x1="265.352" y1="928.451" x2="265.352" y2="110.431" gradientUnits="userSpaceOnUse">
<stop stop-color="#333399"/>
<stop offset="1" stop-color="#333399" stop-opacity="0.54"/>
</linearGradient>
<linearGradient id="paint11_linear" x1="270.826" y1="917.501" x2="270.826" y2="102.347" gradientUnits="userSpaceOnUse">
<stop stop-color="#333399"/>
<stop offset="1" stop-color="#333399" stop-opacity="0.54"/>
</linearGradient>
<linearGradient id="paint12_linear" x1="276.3" y1="906.552" x2="276.3" y2="94.2621" gradientUnits="userSpaceOnUse">
<stop stop-color="#333399"/>
<stop offset="1" stop-color="#333399" stop-opacity="0.54"/>
</linearGradient>
<linearGradient id="paint13_linear" x1="281.775" y1="895.602" x2="281.775" y2="84.3883" gradientUnits="userSpaceOnUse">
<stop stop-color="#333399"/>
<stop offset="1" stop-color="#333399" stop-opacity="0.54"/>
</linearGradient>
<linearGradient id="paint14_linear" x1="287.249" y1="884.652" x2="287.249" y2="72.5791" gradientUnits="userSpaceOnUse">
<stop stop-color="#333399"/>
<stop offset="1" stop-color="#333399" stop-opacity="0.54"/>
</linearGradient>
<linearGradient id="paint15_linear" x1="292.724" y1="873.702" x2="292.724" y2="60.767" gradientUnits="userSpaceOnUse">
<stop stop-color="#333399"/>
<stop offset="1" stop-color="#333399" stop-opacity="0.54"/>
</linearGradient>
<linearGradient id="paint16_linear" x1="298.198" y1="862.752" x2="298.198" y2="48.9516" gradientUnits="userSpaceOnUse">
<stop stop-color="#333399"/>
<stop offset="1" stop-color="#333399" stop-opacity="0.54"/>
</linearGradient>
<linearGradient id="paint17_linear" x1="303.672" y1="851.802" x2="303.672" y2="37.1331" gradientUnits="userSpaceOnUse">
<stop stop-color="#333399"/>
<stop offset="1" stop-color="#333399" stop-opacity="0.54"/>
</linearGradient>
<linearGradient id="paint18_linear" x1="309.147" y1="840.853" x2="309.147" y2="25.3121" gradientUnits="userSpaceOnUse">
<stop stop-color="#333399"/>
<stop offset="1" stop-color="#333399" stop-opacity="0.54"/>
</linearGradient>
<linearGradient id="paint19_linear" x1="314.621" y1="829.903" x2="314.621" y2="13.4879" gradientUnits="userSpaceOnUse">
<stop stop-color="#333399"/>
<stop offset="1" stop-color="#333399" stop-opacity="0.54"/>
</linearGradient>
<linearGradient id="paint20_linear" x1="320.096" y1="818.953" x2="320.096" y2="1.66138" gradientUnits="userSpaceOnUse">
<stop stop-color="#333399"/>
<stop offset="1" stop-color="#333399" stop-opacity="0.54"/>
</linearGradient>
<linearGradient id="paint21_linear" x1="325.57" y1="808.003" x2="325.57" y2="-10.1681" gradientUnits="userSpaceOnUse">
<stop stop-color="#333399"/>
<stop offset="1" stop-color="#333399" stop-opacity="0.54"/>
</linearGradient>
</defs>
</svg>
