<svg width="1920" height="784" viewBox="0 0 1920 784" fill="none" xmlns="http://www.w3.org/2000/svg" style="">
<g opacity="0.7">
<path d="M-20.2598 488.282C-18.7412 482.354 -22.905 480.885 -12.6668 458.645C58.0373 305.058 157.11 131.389 335.383 109.125C481.885 90.8285 419.331 340.16 536.474 348.915C759.157 365.556 953.312 -75.0243 1157.62 12.1314C1258.77 55.2791 1174.76 258.964 1264.66 278.374C1314.03 289.033 1332.01 206.346 1381 207.098C1424.79 207.77 1466.21 295.831 1509.1 282.293C1675.57 229.757 1701.78 -17.6067 1927.33 20.949C2085.71 48.0229 2079.8 286.579 2181.94 382.47" stroke="url(#paint0_linear)" stroke-linecap="round" stroke-linejoin="round" class="ePmBRjZU_0"></path>
<path d="M-20.0869 489.06C-18.4726 485.449 -16.6326 482.898 -15.2819 480.097C-13.4106 477.861 -13.7094 475.333 -6.71644 465.604C67.3023 317.819 166.553 140.289 345.397 118.461C489.79 100.523 427.967 347.031 543.637 355.926C764.836 373.336 957.355 -67.3937 1160.4 19.8323C1261.64 63.4794 1178.03 268.521 1268.25 287.547C1318.11 297.994 1337.51 213.046 1386.98 215.056C1432.7 218.188 1477.1 303.552 1521.61 287.893C1685.45 235.772 1710.81 -6.94489 1932.15 30.3957C2087.63 56.4796 2082.04 290.003 2182.28 383.81" stroke="url(#paint2_linear)" class="ePmBRjZU_1"></path>
<path d="M-19.9141 489.837C-17.4447 485.581 -13.1034 482.327 -10.8306 480.613C-7.5166 480.029 -9.63292 480.902 -0.766047 472.562C76.5673 330.581 175.995 149.189 355.41 127.797C497.695 110.218 436.603 353.902 550.8 362.938C770.516 381.115 961.398 -59.7632 1163.18 27.5331C1264.5 71.6795 1181.3 278.078 1271.84 296.72C1322.19 306.956 1343.01 219.745 1392.96 223.014C1440.62 228.605 1487.99 311.273 1534.12 293.492C1695.33 241.788 1719.85 3.71678 1936.97 39.8422C2089.55 64.9361 2084.29 293.426 2182.63 385.15" stroke="url(#paint3_linear)" class="ePmBRjZU_2"></path>
<path d="M-19.7412 490.615C-16.4167 485.712 -9.57424 481.757 -6.37938 481.129C-1.62263 482.198 -5.5564 486.471 5.18435 479.521C85.8324 343.343 185.437 158.088 365.424 137.133C505.6 119.913 445.239 360.772 557.963 369.95C776.196 388.894 965.441 -52.1326 1165.95 35.2341C1267.36 79.8798 1184.57 287.635 1275.44 305.893C1326.27 315.917 1348.51 226.444 1398.94 230.972C1448.53 239.023 1498.88 318.994 1546.64 299.092C1705.22 247.803 1728.89 14.3786 1941.79 49.2889C2091.47 73.3928 2086.53 296.85 2182.97 386.49" stroke="url(#paint4_linear)" class="ePmBRjZU_3"></path>
<path d="M-19.5684 491.393C-15.3888 485.843 -6.04506 481.186 -1.92812 481.645C4.27134 484.367 -1.47989 492.039 11.1347 486.48C95.0974 356.104 194.879 166.988 375.437 146.47C513.505 129.608 453.875 367.643 565.126 376.961C781.875 396.673 969.483 -44.5021 1168.73 42.9349C1270.23 88.0799 1187.84 297.192 1279.03 315.065C1330.35 324.879 1354.01 233.143 1404.92 238.929C1456.44 249.44 1509.77 326.715 1559.15 304.692C1715.1 253.818 1737.92 25.0403 1946.6 58.7355C2093.39 81.8494 2088.78 300.274 2183.32 387.83" stroke="url(#paint5_linear)" class="ePmBRjZU_4"></path>
<path d="M-19.3953 492.171C-14.3607 485.975 -2.51564 480.616 2.52338 482.162C10.1655 486.535 2.59687 497.608 17.0854 493.439C104.363 368.866 204.321 175.887 385.451 155.806C521.41 139.303 462.511 374.514 572.289 383.973C787.555 404.453 973.526 -36.8714 1171.5 50.6358C1273.09 96.2802 1191.11 306.749 1282.62 324.238C1334.44 333.84 1359.52 239.843 1410.9 246.887C1464.36 259.858 1520.66 334.436 1571.66 310.291C1724.98 259.833 1746.96 35.7021 1951.42 68.1822C2095.31 90.3061 2091.02 303.698 2183.66 389.17" stroke="url(#paint6_linear)" class="ePmBRjZU_5"></path>
<path d="M-19.2224 492.949C-13.3328 486.106 1.01355 480.045 6.97464 482.678C16.0595 488.704 6.67338 503.176 23.0358 500.398C113.628 381.627 213.763 184.787 395.464 165.142C529.315 148.998 471.147 381.384 579.452 390.985C793.235 412.232 977.569 -29.2409 1174.28 58.3366C1275.96 104.48 1194.38 316.305 1286.21 333.411C1338.52 342.802 1365.02 246.542 1416.88 254.845C1472.27 270.275 1531.55 342.157 1584.17 315.891C1734.86 265.848 1755.99 46.3638 1956.24 77.6287C2097.23 98.7626 2093.27 307.121 2184.01 390.509" stroke="url(#paint7_linear)" class="ePmBRjZU_6"></path>
<path d="M-19.0496 493.727C-12.3049 486.238 4.54273 479.475 11.4259 483.194C21.9535 490.872 10.7499 508.745 28.9862 507.357C122.893 394.389 223.205 193.687 405.477 174.478C537.22 158.693 479.782 388.255 586.615 397.997C798.915 420.011 981.611 -21.6103 1177.06 66.0376C1278.82 112.681 1197.65 325.862 1289.81 342.584C1342.6 351.763 1370.52 253.241 1422.86 262.803C1480.19 280.693 1542.44 349.878 1596.68 321.491C1744.74 271.863 1765.03 57.0256 1961.06 87.0754C2099.14 107.219 2095.51 310.545 2184.36 391.849" stroke="url(#paint8_linear)" class="ePmBRjZU_7"></path>
<path d="M-18.8765 494.505C-11.2767 486.369 8.07215 478.904 15.8774 483.711C27.8477 493.041 14.8267 514.314 34.9368 514.316C132.158 407.15 232.647 202.586 415.491 183.814C545.125 168.388 488.419 395.126 593.778 405.008C804.595 427.79 985.654 -13.9798 1179.83 73.7384C1281.68 120.881 1200.92 335.419 1293.4 351.757C1346.68 360.725 1376.02 259.941 1428.84 270.761C1488.1 291.11 1553.33 357.599 1609.19 327.091C1754.62 277.878 1774.07 67.6873 1965.88 96.522C2101.06 115.676 2097.76 313.968 2184.7 393.189" stroke="url(#paint9_linear)" class="ePmBRjZU_8"></path>
<path d="M-18.7036 495.283C-10.2488 486.5 11.6013 478.334 20.3287 484.227C33.7416 495.21 18.9032 519.882 40.8872 521.275C141.423 419.912 242.09 211.486 425.504 193.151C553.03 178.083 497.055 401.996 600.941 412.02C810.275 435.57 989.697 -6.34912 1182.61 81.4394C1284.55 129.081 1204.19 344.976 1296.99 360.93C1350.76 369.686 1381.52 266.64 1434.82 278.719C1496.01 301.527 1564.22 365.32 1621.7 332.69C1764.5 283.893 1783.1 78.3491 1970.7 105.969C2102.98 124.133 2100 317.392 2185.05 394.529" stroke="url(#paint10_linear)" class="ePmBRjZU_9"></path>
<path d="M-18.5308 496.061C-9.22088 486.632 15.1305 477.763 24.7799 484.743C39.6356 497.378 22.9797 525.451 46.8376 528.233C150.688 432.674 251.532 220.385 435.518 202.487C560.935 187.778 505.69 408.867 608.105 419.032C815.954 443.349 993.74 1.28141 1185.38 89.1402C1287.41 137.281 1207.46 354.533 1300.58 370.103C1354.84 378.648 1387.03 273.339 1440.8 286.676C1503.93 311.945 1575.11 373.041 1634.21 338.29C1774.38 289.908 1792.14 89.0108 1975.52 115.415C2104.9 132.589 2102.25 320.816 2185.39 395.869" stroke="url(#paint11_linear)" class="ePmBRjZU_10"></path>
<path d="M-18.3579 496.839C-8.19297 486.763 18.6597 477.192 29.2312 485.26C45.5296 499.547 27.0562 531.02 52.788 535.192C159.953 445.435 260.974 229.285 445.531 211.823C568.84 197.473 514.326 415.738 615.268 426.043C821.634 451.128 997.783 8.91207 1188.16 96.8412C1290.27 145.482 1210.73 364.09 1304.18 379.276C1358.92 387.609 1392.53 280.039 1446.78 294.634C1511.84 322.362 1586 380.762 1646.72 343.89C1784.26 295.924 1801.18 99.6727 1980.34 124.862C2106.82 141.046 2104.49 324.24 2185.74 397.209" stroke="url(#paint12_linear)" class="ePmBRjZU_11"></path>
<path d="M-18.1851 497.617C-7.16506 486.894 22.1889 476.622 33.6824 485.776C51.4235 501.716 31.1327 536.588 58.7384 542.151C169.218 458.197 270.416 238.185 455.545 221.159C576.745 207.168 522.962 422.609 622.431 433.055C827.314 458.908 1001.83 16.5426 1190.94 104.542C1293.14 153.682 1214 373.647 1307.77 388.448C1363.01 396.571 1398.03 286.738 1452.75 302.592C1519.75 332.78 1596.89 388.483 1659.23 349.49C1794.14 301.939 1810.21 110.334 1985.16 134.309C2108.74 149.503 2106.73 327.663 2186.08 398.548" stroke="url(#paint13_linear)" class="ePmBRjZU_12"></path>
<path d="M-18.0122 498.395C-6.13715 487.026 25.7181 476.051 38.1337 486.292C57.3175 503.884 35.2092 542.157 64.6888 549.11C178.483 470.959 279.858 247.084 465.558 230.495C584.65 216.863 531.598 429.479 629.594 440.067C832.993 466.687 1005.87 24.1733 1193.71 112.243C1296 161.882 1217.27 383.204 1311.36 397.621C1367.09 405.533 1403.53 293.437 1458.73 310.55C1527.67 343.197 1607.78 396.204 1671.74 355.089C1804.02 307.954 1819.25 120.996 1989.98 143.755C2110.66 157.959 2108.98 331.087 2186.43 399.888" stroke="url(#paint14_linear)" class="ePmBRjZU_13"></path>
<path d="M-17.8394 499.173C-5.10924 487.157 29.2473 475.481 42.585 486.809C63.2115 506.053 39.2857 547.726 70.6392 556.069C187.748 483.72 289.3 255.984 475.571 239.831C592.555 226.558 540.234 436.35 636.757 447.079C838.673 474.466 1009.91 31.8038 1196.49 119.944C1298.87 170.082 1220.54 392.76 1314.95 406.794C1371.17 414.494 1409.03 300.137 1464.71 318.508C1535.58 353.615 1618.67 403.925 1684.25 360.689C1813.9 313.969 1828.29 131.658 1994.8 153.202C2112.58 166.416 2111.22 334.511 2186.78 401.228" stroke="url(#paint15_linear)" class="ePmBRjZU_14"></path>
<path d="M-17.6665 499.951C-4.08133 487.289 32.7764 474.91 47.0362 487.325C69.1054 508.222 43.3622 553.294 76.5896 563.028C197.013 496.482 298.742 264.884 485.585 249.168C600.46 236.253 548.87 443.221 643.92 454.09C844.353 482.246 1013.95 39.4345 1199.26 127.645C1301.73 178.283 1223.81 402.317 1318.55 415.967C1375.25 423.456 1414.53 306.836 1470.69 326.466C1543.5 364.032 1629.57 411.646 1696.77 366.289C1823.78 319.984 1837.32 142.32 1999.62 162.649C2114.5 174.873 2113.47 337.934 2187.12 402.568" stroke="url(#paint16_linear)" class="ePmBRjZU_15"></path>
<path d="M-17.4934 500.728C-3.05317 487.42 36.3059 474.34 51.4877 487.841C74.9997 510.39 47.439 558.863 82.5402 569.987C206.278 509.244 308.184 273.783 495.599 258.504C608.365 245.947 557.506 450.092 651.083 461.102C850.033 490.025 1018 47.0651 1202.04 135.346C1304.59 186.483 1227.08 411.874 1322.14 425.14C1379.33 432.417 1420.04 313.535 1476.67 334.424C1551.41 374.45 1640.46 419.367 1709.28 371.889C1833.66 325.999 1846.36 152.982 2004.44 172.095C2116.42 183.329 2115.71 341.358 2187.47 403.908" stroke="url(#paint17_linear)" class="ePmBRjZU_16"></path>
<path d="M-17.3206 501.507C-2.02526 487.552 39.835 473.769 55.939 488.358C80.8936 512.559 51.5155 564.432 88.4906 576.946C215.543 522.005 317.626 282.683 505.612 267.84C616.27 255.643 566.142 456.962 658.246 468.114C855.713 497.804 1022.04 54.6958 1204.81 143.047C1307.46 194.683 1230.35 421.431 1325.73 434.313C1383.41 441.379 1425.54 320.235 1482.65 342.382C1559.32 384.867 1651.35 427.088 1721.79 377.489C1843.54 332.015 1855.4 163.643 2009.26 181.542C2118.34 191.786 2117.96 344.782 2187.81 405.248" stroke="url(#paint18_linear)" class="ePmBRjZU_17"></path>
<path d="M-17.1477 502.285C-0.997351 487.683 43.3642 473.199 60.3902 488.874C86.7876 514.728 55.592 570 94.441 583.905C224.809 534.767 327.068 291.583 515.625 277.176C624.175 265.338 574.778 463.833 665.409 475.126C861.392 505.584 1026.08 62.3265 1207.59 150.748C1310.32 202.884 1233.62 430.988 1329.32 443.486C1387.49 450.34 1431.04 326.934 1488.63 350.339C1567.24 395.285 1662.24 434.809 1734.3 383.089C1853.42 338.03 1864.43 174.305 2014.08 190.989C2120.26 200.243 2120.2 348.206 2188.16 406.588" stroke="url(#paint19_linear)" class="ePmBRjZU_18"></path>
<path d="M-16.9746 503.062C0.0308037 487.814 46.8936 472.628 64.8417 489.39C92.6818 516.897 59.6688 575.569 100.392 590.864C234.074 547.529 336.511 300.482 525.639 286.513C632.08 275.033 583.414 470.704 672.573 482.137C867.072 513.363 1030.12 69.957 1210.37 158.449C1313.19 211.084 1236.89 440.545 1332.91 452.659C1391.58 459.302 1436.54 333.633 1494.61 358.297C1575.15 405.702 1673.13 442.53 1746.81 388.688C1863.31 344.045 1873.47 184.967 2018.9 200.435C2122.18 208.7 2122.45 351.629 2188.51 407.928" stroke="url(#paint20_linear)" class="ePmBRjZU_19"></path>
<path d="M-16.8018 503.841C1.05871 487.946 50.4228 472.058 69.293 489.907C98.5758 519.065 63.7453 581.138 106.342 597.823C243.339 560.29 345.953 309.382 535.652 295.849C639.985 284.728 592.05 477.575 679.736 489.149C872.752 521.142 1034.17 77.5878 1213.14 166.15C1316.05 219.284 1240.16 450.102 1336.51 461.832C1395.66 468.264 1442.04 340.333 1500.59 366.255C1583.06 416.12 1684.02 450.251 1759.32 394.288C1873.19 350.06 1882.5 195.629 2023.72 209.882C2124.1 217.156 2124.69 355.053 2188.85 409.267" stroke="url(#paint21_linear)" class="ePmBRjZU_20"></path>
<path d="M-16.6289 504.618C2.08662 488.077 53.952 471.487 73.7443 490.423C104.47 521.234 67.8218 586.706 112.292 604.782C252.604 573.052 355.395 318.282 545.666 305.185C647.89 294.423 600.686 484.445 686.899 496.161C878.432 528.922 1038.21 85.2184 1215.92 173.851C1318.91 227.484 1243.43 459.659 1340.1 471.005C1399.74 477.225 1447.55 347.032 1506.57 374.213C1590.98 426.537 1694.91 457.972 1771.83 399.888C1883.07 356.075 1891.54 206.291 2028.53 219.329C2126.02 225.613 2126.94 358.477 2189.2 410.607" stroke="url(#paint22_linear)" class="ePmBRjZU_21"></path>
<path d="M-16.4561 505.397C3.11453 488.209 57.4812 470.917 78.1955 490.94C110.364 523.403 71.8983 592.275 118.243 611.741C261.869 585.814 364.837 327.182 555.679 314.521C655.795 304.118 609.322 491.316 694.062 503.173C884.111 536.701 1042.25 92.8491 1218.69 181.552C1321.78 235.685 1246.7 469.216 1343.69 480.178C1403.82 486.187 1453.05 353.732 1512.55 382.171C1598.89 436.955 1705.8 465.693 1784.34 405.488C1892.95 362.091 1900.58 216.953 2033.35 228.776C2127.94 234.07 2129.18 361.901 2189.54 411.947" stroke="url(#paint23_linear)" class="ePmBRjZU_22"></path>
<path d="M-16.2832 506.174C4.14244 488.34 61.0104 470.346 82.6468 491.456C116.258 525.571 75.9748 597.844 124.193 618.7C271.134 598.575 374.279 336.081 565.693 323.858C663.699 313.813 617.958 498.187 701.225 510.185C889.791 544.48 1046.3 100.48 1221.47 189.252C1324.64 243.885 1249.97 478.773 1347.28 489.351C1407.9 495.148 1458.55 360.431 1518.53 390.129C1606.81 447.372 1716.69 473.414 1796.85 411.088C1902.83 368.106 1909.61 227.614 2038.17 238.222C2129.86 242.526 2131.43 365.324 2189.89 413.287" stroke="url(#paint24_linear)" class="ePmBRjZU_23"></path>
<path d="M-16.1104 506.953C5.17035 488.472 64.5396 469.776 87.098 491.972C122.152 527.74 80.0513 603.413 130.144 625.659C280.399 611.337 383.721 344.981 575.706 333.194C671.604 323.508 626.594 505.058 708.388 517.197C895.471 552.26 1050.34 108.11 1224.25 196.953C1327.51 252.085 1253.24 488.33 1350.88 498.524C1411.98 504.11 1464.05 367.13 1524.51 398.087C1614.72 457.79 1727.58 481.135 1809.36 416.687C1912.71 374.121 1918.65 238.276 2042.99 247.669C2131.78 250.983 2133.67 368.748 2190.23 414.627" stroke="url(#paint25_linear)" class="ePmBRjZU_24"></path>
<path d="M-15.9375 507.73C6.19827 488.603 68.0687 469.205 91.5493 492.489C128.046 529.909 84.1279 608.981 136.094 632.618C289.664 624.099 393.163 353.881 585.719 342.53C679.509 333.203 635.229 511.929 715.551 524.208C901.151 560.039 1054.38 115.741 1227.02 204.654C1330.37 260.286 1256.51 497.887 1354.47 507.697C1416.06 513.071 1469.55 373.83 1530.48 406.045C1622.63 468.208 1738.47 488.856 1821.87 422.287C1922.59 380.136 1927.69 248.938 2047.81 257.116C2133.69 259.44 2135.92 372.172 2190.58 415.967" stroke="url(#paint26_linear)" class="ePmBRjZU_25"></path>
<path d="M-15.7646 508.509C7.22618 488.735 71.5979 468.635 96.0005 493.005C133.94 532.078 88.2044 614.55 142.044 639.577C298.929 636.86 402.605 362.78 595.733 351.867C687.414 342.898 643.865 518.799 722.714 531.22C906.83 567.819 1058.42 123.372 1229.8 212.355C1333.23 268.486 1259.78 507.444 1358.06 516.87C1420.15 522.033 1475.05 380.529 1536.46 414.003C1630.55 478.625 1749.36 496.578 1834.38 427.887C1932.47 386.151 1936.72 259.6 2052.63 266.563C2135.61 267.897 2138.16 375.596 2190.93 417.307" stroke="url(#paint27_linear)" class="ePmBRjZU_26"></path>
<path d="M-15.5916 509.287C8.25433 488.866 75.1274 468.064 100.452 493.521C139.834 534.246 92.2811 620.119 147.995 646.536C308.194 649.622 412.047 371.68 605.746 361.203C695.319 352.593 652.502 525.67 729.877 538.232C912.51 575.598 1062.47 131.002 1232.57 220.056C1336.1 276.686 1263.05 517.001 1361.65 526.043C1424.23 530.995 1480.56 387.229 1542.44 421.961C1638.46 489.043 1760.25 504.299 1846.9 433.487C1942.35 392.167 1945.76 270.262 2057.45 276.009C2137.53 276.353 2140.41 379.02 2191.27 418.647" stroke="url(#paint28_linear)" class="ePmBRjZU_27"></path>
<path d="M-15.4187 510.065C9.28224 488.998 78.6565 467.494 104.903 494.038C145.728 536.415 96.3576 625.688 153.945 653.495C317.459 662.384 421.49 380.58 615.76 370.539C703.224 362.288 661.137 532.541 737.04 545.244C918.19 583.377 1066.51 138.633 1235.35 227.757C1338.96 284.887 1266.32 526.558 1365.25 535.216C1428.31 539.956 1486.06 393.928 1548.42 429.919C1646.37 499.46 1771.14 512.02 1859.41 439.087C1952.23 398.182 1954.8 280.924 2062.27 285.456C2139.45 284.81 2142.65 382.443 2191.62 419.987" stroke="url(#paint29_linear)" class="ePmBRjZU_28"></path>
<path d="M-15.2458 510.843C10.3102 489.129 82.1857 466.923 109.355 494.554C151.622 538.584 100.434 631.256 159.896 660.454C326.724 675.146 430.932 389.48 625.773 379.875C711.129 371.983 669.773 539.412 744.203 552.256C923.87 591.157 1070.55 146.264 1238.13 235.458C1341.83 293.087 1269.59 536.115 1368.84 544.389C1432.39 548.918 1491.56 400.627 1554.4 437.877C1654.29 509.878 1782.03 519.741 1871.92 444.687C1962.11 404.197 1963.83 291.586 2067.09 294.903C2141.37 293.267 2144.9 385.867 2191.96 421.327" stroke="url(#paint30_linear)" class="ePmBRjZU_29"></path>
<path d="M-15.0728 511.621C11.3383 489.261 85.7151 466.353 113.806 495.071C157.516 540.753 104.511 636.825 165.846 667.413C335.99 687.907 440.374 398.379 635.787 389.212C719.035 381.678 678.409 546.283 751.367 559.267C929.55 598.936 1074.59 153.895 1240.9 243.159C1344.69 301.287 1272.86 545.672 1372.43 553.562C1436.47 557.88 1497.06 407.327 1560.38 445.835C1662.2 520.295 1792.93 527.462 1884.43 450.287C1971.99 410.212 1972.87 302.248 2071.91 304.35C2143.29 301.724 2147.14 389.291 2192.31 422.667" stroke="url(#paint31_linear)" class="ePmBRjZU_30"></path>
<path d="M-14.8999 512.399C12.3662 489.392 89.2443 465.783 118.257 495.587C163.41 542.921 108.587 642.394 171.797 674.372C345.255 700.669 449.816 407.279 645.8 398.548C726.939 391.373 687.045 553.153 758.53 566.279C935.229 606.715 1078.64 161.525 1243.68 250.86C1347.55 309.488 1276.13 555.229 1376.02 562.735C1440.55 566.841 1502.56 414.026 1566.36 453.792C1670.11 530.713 1803.82 535.183 1896.94 455.886C1981.87 416.227 1981.91 312.909 2076.73 313.796C2145.21 310.18 2149.38 392.715 2192.65 424.007" stroke="url(#paint32_linear)" class="ePmBRjZU_31"></path>
<path d="M-14.7271 513.177C13.3941 489.524 92.7735 465.212 122.709 496.104C169.304 545.09 112.664 647.963 177.747 681.331C354.52 713.431 459.258 416.179 655.814 407.884C734.844 401.068 695.681 560.024 765.693 573.291C940.909 614.495 1082.68 169.156 1246.45 258.562C1350.42 317.688 1279.4 564.786 1379.62 571.908C1444.64 575.803 1508.07 420.726 1572.34 461.75C1678.03 541.131 1814.71 542.904 1909.45 461.486C1991.75 422.243 1990.94 323.571 2081.55 323.243C2147.13 318.637 2151.63 396.139 2193 425.347" stroke="url(#paint33_linear)" class="ePmBRjZU_32"></path>
<path d="M-14.5542 513.955C14.422 489.655 96.3027 464.642 127.16 496.62C175.198 547.259 116.74 653.531 183.698 688.29C363.785 726.193 468.7 425.079 665.827 417.221C742.749 410.763 704.317 566.895 772.856 580.303C946.589 622.274 1086.72 176.787 1249.23 266.262C1353.28 325.888 1282.67 574.343 1383.21 581.081C1448.72 584.765 1513.57 427.425 1578.32 469.708C1685.94 551.548 1825.6 550.625 1921.96 467.086C2001.63 428.258 1999.98 334.233 2086.37 332.69C2149.05 327.094 2153.87 399.562 2193.35 426.687" stroke="url(#paint34_linear)" class="ePmBRjZU_33"></path>
<path d="M-14.3813 514.733C15.4499 489.787 99.8319 464.071 131.611 497.137C181.092 549.428 120.817 659.1 189.648 695.249C373.05 738.954 478.142 433.978 675.841 426.557C750.654 420.458 712.953 573.766 780.019 587.315C952.269 630.054 1090.77 184.417 1252.01 273.964C1356.15 334.089 1285.94 583.9 1386.8 590.254C1452.8 593.726 1519.07 434.125 1584.3 477.666C1693.86 561.966 1836.49 558.347 1934.47 472.686C2011.52 434.273 2009.01 344.895 2091.19 342.137C2150.97 335.551 2156.12 402.986 2193.69 428.027" stroke="url(#paint35_linear)" class="ePmBRjZU_34"></path>
<path d="M-14.2085 515.511C16.4779 489.918 103.361 463.501 136.062 497.653C186.986 551.597 124.893 664.669 195.598 702.208C382.315 751.716 487.584 442.878 685.854 435.893C758.559 430.153 721.589 580.637 787.182 594.327C957.948 637.833 1094.81 192.048 1254.78 281.665C1359.01 342.289 1289.21 593.457 1390.39 599.427C1456.88 602.688 1524.57 440.824 1590.28 485.624C1701.77 572.383 1847.38 566.068 1946.98 478.286C2021.4 440.289 2018.05 355.557 2096.01 351.583C2152.89 344.008 2158.36 406.41 2194.04 429.367" stroke="url(#paint36_linear)" class="ePmBRjZU_35"></path>
<path d="M-14.0356 516.289C17.5058 490.05 106.89 462.93 140.514 498.169C192.88 553.765 128.97 670.238 201.549 709.167C391.58 764.478 497.026 451.778 695.867 445.23C766.464 439.848 730.225 587.508 794.345 601.339C963.628 645.613 1098.85 199.679 1257.56 289.366C1361.87 350.49 1292.48 603.014 1393.98 608.6C1460.96 611.65 1530.07 447.524 1596.26 493.582C1709.68 582.801 1858.27 573.789 1959.49 483.886C2031.28 446.304 2027.09 366.219 2100.83 361.03C2154.81 352.464 2160.61 409.834 2194.38 430.707" stroke="url(#paint37_linear)" class="ePmBRjZU_36"></path>
<path d="M-13.8628 517.067C18.5337 490.181 110.419 462.36 144.965 498.686C198.774 555.934 133.046 675.806 207.499 716.126C400.845 777.24 506.468 460.678 705.881 454.566C774.369 449.543 738.861 594.379 801.508 608.35C969.308 653.392 1102.89 207.31 1260.33 297.067C1364.74 358.69 1295.75 612.571 1397.58 617.773C1465.04 620.611 1535.57 454.223 1602.24 501.54C1717.6 593.219 1869.16 581.51 1972 489.486C2041.16 452.319 2036.12 376.881 2105.65 370.477C2156.73 360.921 2162.85 413.258 2194.73 432.047" stroke="url(#paint38_linear)" class="ePmBRjZU_37"></path>
<path d="M-13.6899 517.845C19.5616 490.313 113.949 461.79 149.416 499.202C204.668 558.103 137.123 681.375 213.45 723.085C410.11 790.001 515.91 469.578 715.894 463.902C782.274 459.238 747.497 601.249 808.671 615.362C974.987 661.171 1106.94 214.94 1263.11 304.768C1367.6 366.89 1299.02 622.128 1401.17 626.946C1469.12 629.573 1541.08 460.923 1608.21 509.498C1725.51 603.636 1880.05 589.231 1984.51 495.086C2051.04 458.334 2045.16 387.543 2110.46 379.924C2158.65 369.378 2165.1 416.682 2195.07 433.386" stroke="url(#paint39_linear)" class="ePmBRjZU_38"></path>
<path d="M-13.5168 518.623C20.5897 490.444 117.478 461.219 153.868 499.719C210.562 560.272 141.2 686.944 219.4 730.044C419.375 802.763 525.353 478.477 725.908 473.239C790.179 468.934 756.133 608.12 815.834 622.374C980.667 668.951 1110.98 222.571 1265.88 312.469C1370.47 375.091 1302.29 631.685 1404.76 636.119C1473.21 638.535 1546.58 467.622 1614.19 517.456C1733.42 614.054 1890.94 596.952 1997.02 500.686C2060.92 464.35 2054.2 398.205 2115.28 389.371C2160.57 377.835 2167.34 420.105 2195.42 434.727" stroke="url(#paint40_linear)" class="ePmBRjZU_39"></path>
<path d="M-13.344 519.401C21.6177 490.576 121.007 460.649 158.319 500.235C216.456 562.441 145.276 692.513 225.351 737.003C428.64 815.525 534.795 487.377 735.921 482.575C798.084 478.629 764.769 614.991 822.997 629.386C986.347 676.73 1115.02 230.202 1268.66 320.17C1373.33 383.291 1305.56 641.242 1408.35 645.292C1477.29 647.496 1552.08 474.322 1620.17 525.414C1741.34 624.471 1901.83 604.674 2009.54 506.285C2070.8 470.365 2063.23 408.867 2120.1 398.817C2162.49 386.292 2169.59 423.529 2195.77 436.066" stroke="url(#paint41_linear)" class="ePmBRjZU_40"></path>
<path d="M-13.1711 520.18C22.6456 490.708 124.536 460.079 162.77 500.752C222.35 564.61 149.353 698.082 231.301 743.962C437.905 828.287 544.237 496.277 745.935 491.911C805.989 488.324 773.405 621.862 830.16 636.398C992.027 684.51 1119.06 237.833 1271.44 327.871C1376.19 391.492 1308.83 650.799 1411.95 654.465C1481.37 656.458 1557.58 481.021 1626.15 533.372C1749.25 634.889 1912.72 612.395 2022.05 511.885C2080.68 476.38 2072.27 419.529 2124.92 408.264C2164.41 394.749 2171.83 426.953 2196.11 437.407" stroke="url(#paint42_linear)" class="ePmBRjZU_41"></path>
<path d="M-12.998 520.958C23.6737 490.839 128.066 459.508 167.222 501.268C228.244 566.778 153.43 703.65 237.252 750.921C447.17 841.049 553.679 505.177 755.948 501.248C813.894 498.019 782.041 628.733 837.324 643.41C997.707 692.289 1123.11 245.463 1274.21 335.572C1379.06 399.692 1312.1 660.356 1415.54 663.638C1485.45 665.42 1563.08 487.721 1632.13 541.33C1757.17 645.307 1923.61 620.116 2034.56 517.485C2090.56 482.396 2081.31 430.191 2129.74 417.711C2166.33 403.205 2174.08 430.377 2196.46 438.747" stroke="url(#paint43_linear)" class="ePmBRjZU_42"></path>
<path d="M-12.8252 521.736C24.7016 490.971 131.595 458.938 171.673 501.785C234.138 568.947 157.506 709.219 243.202 757.88C456.435 853.81 563.121 514.077 765.962 510.584C821.799 507.714 790.677 635.604 844.487 650.422C1003.39 700.069 1127.15 253.094 1276.99 343.273C1381.92 407.892 1315.37 669.913 1419.13 672.812C1489.53 674.381 1568.59 494.42 1638.11 549.288C1765.08 655.724 1934.5 627.837 2047.07 523.085C2100.44 488.411 2090.34 440.853 2134.56 427.158C2168.25 411.662 2176.32 433.801 2196.8 440.087" stroke="url(#paint44_linear)" class="ePmBRjZU_43"></path>
<path d="M-12.6523 522.514C25.7295 491.102 135.124 458.367 176.124 502.301C240.032 571.116 161.583 714.788 249.152 764.839C465.7 866.572 572.563 522.976 775.975 519.92C829.704 517.409 799.313 642.475 851.65 657.434C1009.07 707.848 1131.19 260.725 1279.76 350.974C1384.79 416.093 1318.64 679.47 1422.72 681.985C1493.61 683.343 1574.09 501.12 1644.09 557.246C1772.99 666.142 1945.39 635.558 2059.58 528.685C2110.32 494.426 2099.38 451.514 2139.38 436.605C2170.16 420.119 2178.57 437.225 2197.15 441.427" stroke="url(#paint45_linear)" class="ePmBRjZU_44"></path>
<path d="M-12.4795 523.292C26.7575 491.234 138.653 457.797 180.575 502.818C245.926 573.285 165.659 720.357 255.103 771.798C474.965 879.334 582.005 531.876 785.988 529.257C837.609 527.104 807.948 649.346 858.813 664.446C1014.75 715.628 1135.24 268.356 1282.54 358.675C1387.65 424.293 1321.91 689.027 1426.32 691.158C1497.69 692.305 1579.59 507.819 1650.07 565.204C1780.91 676.56 1956.28 643.28 2072.09 534.285C2120.2 500.442 2108.42 462.177 2144.2 446.052C2172.08 428.576 2180.81 440.649 2197.5 442.767" stroke="url(#paint46_linear)" class="ePmBRjZU_45"></path>
<path d="M-12.3066 524.07C27.7854 491.365 142.183 457.227 185.027 503.334C251.82 575.454 169.736 725.926 261.053 778.757C484.231 892.096 591.447 540.776 796.002 538.593C845.514 536.799 816.584 656.217 865.976 671.458C1020.43 723.407 1139.28 275.986 1285.32 366.376C1390.51 432.494 1325.18 698.584 1429.91 700.331C1501.78 701.266 1585.09 514.519 1656.05 573.162C1788.82 686.977 1967.18 651.001 2084.6 539.885C2130.08 506.457 2117.45 472.838 2149.02 455.498C2174 437.033 2183.06 444.073 2197.84 444.107" stroke="url(#paint47_linear)" class="ePmBRjZU_46"></path>
<path d="M-12.1338 524.848C28.8133 491.497 145.712 456.656 189.478 503.851C257.714 577.623 173.812 731.495 267.004 785.717C493.496 904.858 600.889 549.676 806.015 547.93C853.419 546.495 825.22 663.087 873.139 678.469C1026.11 731.187 1143.32 283.617 1288.09 374.077C1393.38 440.694 1328.45 708.142 1433.5 709.504C1505.86 710.228 1590.59 521.218 1662.03 581.121C1796.73 697.395 1978.07 658.722 2097.11 545.485C2139.96 512.472 2126.49 483.5 2153.84 464.945C2175.92 445.49 2185.3 447.496 2198.19 445.447" stroke="url(#paint48_linear)" class="ePmBRjZU_47"></path>
<path d="M-11.9609 525.626C29.8412 491.629 149.241 456.086 193.929 504.367C263.608 579.791 177.889 737.063 272.954 792.676C502.761 917.619 610.332 558.576 816.029 557.266C861.324 556.19 833.856 669.958 880.302 685.481C1031.79 738.966 1147.36 291.248 1290.87 381.779C1396.24 448.894 1331.72 717.699 1437.09 718.677C1509.94 719.19 1596.09 527.918 1668.01 589.079C1804.65 707.813 1988.96 666.443 2109.62 551.085C2149.84 518.487 2135.52 494.162 2158.66 474.392C2177.84 453.946 2187.55 450.92 2198.53 446.787" stroke="url(#paint49_linear)" class="ePmBRjZU_48"></path>
<path d="M-11.7881 526.405C30.8691 491.76 152.77 455.516 198.38 504.884C269.502 581.96 181.965 742.632 278.904 799.635C512.026 930.381 619.774 567.476 826.042 566.602C869.229 565.885 842.492 676.829 887.465 692.493C1037.46 746.746 1151.41 298.879 1293.64 389.48C1399.1 457.095 1334.99 727.256 1440.69 727.85C1514.02 728.152 1601.6 534.617 1673.99 597.037C1812.56 718.23 1999.85 674.164 2122.13 556.685C2159.72 524.503 2144.56 504.824 2163.48 483.839C2179.76 462.403 2189.79 454.344 2198.88 448.127" stroke="url(#paint50_linear)" class="ePmBRjZU_49"></path>
<path d="M-11.615 527.183C31.8972 491.892 156.3 454.945 202.832 505.4C275.396 584.129 186.042 748.201 284.855 806.594C521.291 943.143 629.216 576.375 836.056 575.939C877.134 575.58 851.128 683.7 894.628 699.505C1043.14 754.525 1155.45 306.51 1296.42 397.181C1401.97 465.295 1338.26 736.813 1444.28 737.023C1518.1 737.113 1607.1 541.317 1679.97 604.995C1820.48 728.648 2010.74 681.886 2134.64 562.285C2169.61 530.518 2153.6 515.486 2168.3 493.286C2181.68 470.86 2192.04 457.768 2199.22 449.467" stroke="url(#paint51_linear)" class="ePmBRjZU_50"></path>
<path d="M-11.4421 527.961C32.9252 492.023 159.829 454.375 207.283 505.917C281.29 586.298 190.118 753.77 290.805 813.553C530.556 955.905 638.658 585.275 846.069 585.275C885.039 585.275 859.764 690.571 901.791 706.517C1048.82 762.305 1159.49 314.141 1299.2 404.882C1404.83 473.496 1341.53 746.37 1447.87 746.196C1522.18 746.075 1612.6 548.016 1685.95 612.953C1828.39 739.066 2021.63 689.607 2147.15 567.885C2179.49 536.534 2162.63 526.148 2173.12 502.733C2183.6 479.317 2194.28 461.192 2199.57 450.807" stroke="url(#paint1_linear)" stroke-linecap="round" stroke-linejoin="round" class="ePmBRjZU_51"></path>
</g>
<defs>
<linearGradient id="paint0_linear" x1="1080.84" y1="0.705322" x2="1080.84" y2="488.282" gradientUnits="userSpaceOnUse">
<stop stop-color="#333399"></stop>
<stop offset="1" stop-color="#333399" stop-opacity="0"></stop>
</linearGradient>
<linearGradient id="paint1_linear" x1="1094.06" y1="392.709" x2="1094.06" y2="846.106" gradientUnits="userSpaceOnUse">
<stop stop-color="#333399"></stop>
<stop offset="1" stop-color="#333399" stop-opacity="0"></stop>
</linearGradient>
<linearGradient id="paint2_linear" x1="1081.1" y1="8.39172" x2="1081.1" y2="489.06" gradientUnits="userSpaceOnUse">
<stop stop-color="#333399"></stop>
<stop offset="1" stop-color="#333399" stop-opacity="0"></stop>
</linearGradient>
<linearGradient id="paint3_linear" x1="1081.36" y1="16.078" x2="1081.36" y2="489.837" gradientUnits="userSpaceOnUse">
<stop stop-color="#333399"></stop>
<stop offset="1" stop-color="#333399" stop-opacity="0"></stop>
</linearGradient>
<linearGradient id="paint4_linear" x1="1081.62" y1="23.7644" x2="1081.62" y2="490.615" gradientUnits="userSpaceOnUse">
<stop stop-color="#333399"></stop>
<stop offset="1" stop-color="#333399" stop-opacity="0"></stop>
</linearGradient>
<linearGradient id="paint5_linear" x1="1081.87" y1="31.4507" x2="1081.87" y2="491.393" gradientUnits="userSpaceOnUse">
<stop stop-color="#333399"></stop>
<stop offset="1" stop-color="#333399" stop-opacity="0"></stop>
</linearGradient>
<linearGradient id="paint6_linear" x1="1082.13" y1="39.1371" x2="1082.13" y2="494.361" gradientUnits="userSpaceOnUse">
<stop stop-color="#333399"></stop>
<stop offset="1" stop-color="#333399" stop-opacity="0"></stop>
</linearGradient>
<linearGradient id="paint7_linear" x1="1082.39" y1="46.8234" x2="1082.39" y2="500.748" gradientUnits="userSpaceOnUse">
<stop stop-color="#333399"></stop>
<stop offset="1" stop-color="#333399" stop-opacity="0"></stop>
</linearGradient>
<linearGradient id="paint8_linear" x1="1082.65" y1="54.5098" x2="1082.65" y2="507.433" gradientUnits="userSpaceOnUse">
<stop stop-color="#333399"></stop>
<stop offset="1" stop-color="#333399" stop-opacity="0"></stop>
</linearGradient>
<linearGradient id="paint9_linear" x1="1082.91" y1="62.196" x2="1082.91" y2="514.316" gradientUnits="userSpaceOnUse">
<stop stop-color="#333399"></stop>
<stop offset="1" stop-color="#333399" stop-opacity="0"></stop>
</linearGradient>
<linearGradient id="paint10_linear" x1="1083.17" y1="69.8824" x2="1083.17" y2="521.275" gradientUnits="userSpaceOnUse">
<stop stop-color="#333399"></stop>
<stop offset="1" stop-color="#333399" stop-opacity="0"></stop>
</linearGradient>
<linearGradient id="paint11_linear" x1="1083.43" y1="77.5687" x2="1083.43" y2="528.233" gradientUnits="userSpaceOnUse">
<stop stop-color="#333399"></stop>
<stop offset="1" stop-color="#333399" stop-opacity="0"></stop>
</linearGradient>
<linearGradient id="paint12_linear" x1="1083.69" y1="85.2551" x2="1083.69" y2="535.192" gradientUnits="userSpaceOnUse">
<stop stop-color="#333399"></stop>
<stop offset="1" stop-color="#333399" stop-opacity="0"></stop>
</linearGradient>
<linearGradient id="paint13_linear" x1="1083.95" y1="92.9414" x2="1083.95" y2="542.151" gradientUnits="userSpaceOnUse">
<stop stop-color="#333399"></stop>
<stop offset="1" stop-color="#333399" stop-opacity="0"></stop>
</linearGradient>
<linearGradient id="paint14_linear" x1="1084.21" y1="100.628" x2="1084.21" y2="549.11" gradientUnits="userSpaceOnUse">
<stop stop-color="#333399"></stop>
<stop offset="1" stop-color="#333399" stop-opacity="0"></stop>
</linearGradient>
<linearGradient id="paint15_linear" x1="1084.47" y1="108.314" x2="1084.47" y2="556.069" gradientUnits="userSpaceOnUse">
<stop stop-color="#333399"></stop>
<stop offset="1" stop-color="#333399" stop-opacity="0"></stop>
</linearGradient>
<linearGradient id="paint16_linear" x1="1084.73" y1="116" x2="1084.73" y2="563.028" gradientUnits="userSpaceOnUse">
<stop stop-color="#333399"></stop>
<stop offset="1" stop-color="#333399" stop-opacity="0"></stop>
</linearGradient>
<linearGradient id="paint17_linear" x1="1084.99" y1="123.687" x2="1084.99" y2="569.987" gradientUnits="userSpaceOnUse">
<stop stop-color="#333399"></stop>
<stop offset="1" stop-color="#333399" stop-opacity="0"></stop>
</linearGradient>
<linearGradient id="paint18_linear" x1="1085.25" y1="131.373" x2="1085.25" y2="576.946" gradientUnits="userSpaceOnUse">
<stop stop-color="#333399"></stop>
<stop offset="1" stop-color="#333399" stop-opacity="0"></stop>
</linearGradient>
<linearGradient id="paint19_linear" x1="1085.51" y1="139.06" x2="1085.51" y2="583.905" gradientUnits="userSpaceOnUse">
<stop stop-color="#333399"></stop>
<stop offset="1" stop-color="#333399" stop-opacity="0"></stop>
</linearGradient>
<linearGradient id="paint20_linear" x1="1085.77" y1="146.746" x2="1085.77" y2="590.864" gradientUnits="userSpaceOnUse">
<stop stop-color="#333399"></stop>
<stop offset="1" stop-color="#333399" stop-opacity="0"></stop>
</linearGradient>
<linearGradient id="paint21_linear" x1="1086.02" y1="154.432" x2="1086.02" y2="597.823" gradientUnits="userSpaceOnUse">
<stop stop-color="#333399"></stop>
<stop offset="1" stop-color="#333399" stop-opacity="0"></stop>
</linearGradient>
<linearGradient id="paint22_linear" x1="1086.28" y1="162.119" x2="1086.28" y2="604.782" gradientUnits="userSpaceOnUse">
<stop stop-color="#333399"></stop>
<stop offset="1" stop-color="#333399" stop-opacity="0"></stop>
</linearGradient>
<linearGradient id="paint23_linear" x1="1086.54" y1="169.805" x2="1086.54" y2="611.741" gradientUnits="userSpaceOnUse">
<stop stop-color="#333399"></stop>
<stop offset="1" stop-color="#333399" stop-opacity="0"></stop>
</linearGradient>
<linearGradient id="paint24_linear" x1="1086.8" y1="177.491" x2="1086.8" y2="618.7" gradientUnits="userSpaceOnUse">
<stop stop-color="#333399"></stop>
<stop offset="1" stop-color="#333399" stop-opacity="0"></stop>
</linearGradient>
<linearGradient id="paint25_linear" x1="1087.06" y1="185.178" x2="1087.06" y2="625.659" gradientUnits="userSpaceOnUse">
<stop stop-color="#333399"></stop>
<stop offset="1" stop-color="#333399" stop-opacity="0"></stop>
</linearGradient>
<linearGradient id="paint26_linear" x1="1087.32" y1="192.864" x2="1087.32" y2="632.618" gradientUnits="userSpaceOnUse">
<stop stop-color="#333399"></stop>
<stop offset="1" stop-color="#333399" stop-opacity="0"></stop>
</linearGradient>
<linearGradient id="paint27_linear" x1="1087.58" y1="200.55" x2="1087.58" y2="639.577" gradientUnits="userSpaceOnUse">
<stop stop-color="#333399"></stop>
<stop offset="1" stop-color="#333399" stop-opacity="0"></stop>
</linearGradient>
<linearGradient id="paint28_linear" x1="1087.84" y1="208.237" x2="1087.84" y2="646.561" gradientUnits="userSpaceOnUse">
<stop stop-color="#333399"></stop>
<stop offset="1" stop-color="#333399" stop-opacity="0"></stop>
</linearGradient>
<linearGradient id="paint29_linear" x1="1088.1" y1="215.923" x2="1088.1" y2="653.701" gradientUnits="userSpaceOnUse">
<stop stop-color="#333399"></stop>
<stop offset="1" stop-color="#333399" stop-opacity="0"></stop>
</linearGradient>
<linearGradient id="paint30_linear" x1="1088.36" y1="223.609" x2="1088.36" y2="661.001" gradientUnits="userSpaceOnUse">
<stop stop-color="#333399"></stop>
<stop offset="1" stop-color="#333399" stop-opacity="0"></stop>
</linearGradient>
<linearGradient id="paint31_linear" x1="1088.62" y1="231.296" x2="1088.62" y2="668.451" gradientUnits="userSpaceOnUse">
<stop stop-color="#333399"></stop>
<stop offset="1" stop-color="#333399" stop-opacity="0"></stop>
</linearGradient>
<linearGradient id="paint32_linear" x1="1088.88" y1="238.982" x2="1088.88" y2="676.039" gradientUnits="userSpaceOnUse">
<stop stop-color="#333399"></stop>
<stop offset="1" stop-color="#333399" stop-opacity="0"></stop>
</linearGradient>
<linearGradient id="paint33_linear" x1="1089.14" y1="246.668" x2="1089.14" y2="683.754" gradientUnits="userSpaceOnUse">
<stop stop-color="#333399"></stop>
<stop offset="1" stop-color="#333399" stop-opacity="0"></stop>
</linearGradient>
<linearGradient id="paint34_linear" x1="1089.4" y1="254.355" x2="1089.4" y2="691.588" gradientUnits="userSpaceOnUse">
<stop stop-color="#333399"></stop>
<stop offset="1" stop-color="#333399" stop-opacity="0"></stop>
</linearGradient>
<linearGradient id="paint35_linear" x1="1089.66" y1="262.041" x2="1089.66" y2="699.532" gradientUnits="userSpaceOnUse">
<stop stop-color="#333399"></stop>
<stop offset="1" stop-color="#333399" stop-opacity="0"></stop>
</linearGradient>
<linearGradient id="paint36_linear" x1="1089.91" y1="269.727" x2="1089.91" y2="707.579" gradientUnits="userSpaceOnUse">
<stop stop-color="#333399"></stop>
<stop offset="1" stop-color="#333399" stop-opacity="0"></stop>
</linearGradient>
<linearGradient id="paint37_linear" x1="1090.17" y1="277.414" x2="1090.17" y2="715.722" gradientUnits="userSpaceOnUse">
<stop stop-color="#333399"></stop>
<stop offset="1" stop-color="#333399" stop-opacity="0"></stop>
</linearGradient>
<linearGradient id="paint38_linear" x1="1090.43" y1="285.1" x2="1090.43" y2="723.955" gradientUnits="userSpaceOnUse">
<stop stop-color="#333399"></stop>
<stop offset="1" stop-color="#333399" stop-opacity="0"></stop>
</linearGradient>
<linearGradient id="paint39_linear" x1="1090.69" y1="292.786" x2="1090.69" y2="732.271" gradientUnits="userSpaceOnUse">
<stop stop-color="#333399"></stop>
<stop offset="1" stop-color="#333399" stop-opacity="0"></stop>
</linearGradient>
<linearGradient id="paint40_linear" x1="1090.95" y1="300.473" x2="1090.95" y2="740.666" gradientUnits="userSpaceOnUse">
<stop stop-color="#333399"></stop>
<stop offset="1" stop-color="#333399" stop-opacity="0"></stop>
</linearGradient>
<linearGradient id="paint41_linear" x1="1091.21" y1="308.159" x2="1091.21" y2="749.135" gradientUnits="userSpaceOnUse">
<stop stop-color="#333399"></stop>
<stop offset="1" stop-color="#333399" stop-opacity="0"></stop>
</linearGradient>
<linearGradient id="paint42_linear" x1="1091.47" y1="315.845" x2="1091.47" y2="757.673" gradientUnits="userSpaceOnUse">
<stop stop-color="#333399"></stop>
<stop offset="1" stop-color="#333399" stop-opacity="0"></stop>
</linearGradient>
<linearGradient id="paint43_linear" x1="1091.73" y1="323.532" x2="1091.73" y2="766.277" gradientUnits="userSpaceOnUse">
<stop stop-color="#333399"></stop>
<stop offset="1" stop-color="#333399" stop-opacity="0"></stop>
</linearGradient>
<linearGradient id="paint44_linear" x1="1091.99" y1="331.218" x2="1091.99" y2="774.942" gradientUnits="userSpaceOnUse">
<stop stop-color="#333399"></stop>
<stop offset="1" stop-color="#333399" stop-opacity="0"></stop>
</linearGradient>
<linearGradient id="paint45_linear" x1="1092.25" y1="338.904" x2="1092.25" y2="783.665" gradientUnits="userSpaceOnUse">
<stop stop-color="#333399"></stop>
<stop offset="1" stop-color="#333399" stop-opacity="0"></stop>
</linearGradient>
<linearGradient id="paint46_linear" x1="1092.51" y1="346.591" x2="1092.51" y2="792.443" gradientUnits="userSpaceOnUse">
<stop stop-color="#333399"></stop>
<stop offset="1" stop-color="#333399" stop-opacity="0"></stop>
</linearGradient>
<linearGradient id="paint47_linear" x1="1092.77" y1="354.277" x2="1092.77" y2="801.272" gradientUnits="userSpaceOnUse">
<stop stop-color="#333399"></stop>
<stop offset="1" stop-color="#333399" stop-opacity="0"></stop>
</linearGradient>
<linearGradient id="paint48_linear" x1="1093.03" y1="361.964" x2="1093.03" y2="810.151" gradientUnits="userSpaceOnUse">
<stop stop-color="#333399"></stop>
<stop offset="1" stop-color="#333399" stop-opacity="0"></stop>
</linearGradient>
<linearGradient id="paint49_linear" x1="1093.29" y1="369.65" x2="1093.29" y2="819.076" gradientUnits="userSpaceOnUse">
<stop stop-color="#333399"></stop>
<stop offset="1" stop-color="#333399" stop-opacity="0"></stop>
</linearGradient>
<linearGradient id="paint50_linear" x1="1093.55" y1="377.336" x2="1093.55" y2="828.045" gradientUnits="userSpaceOnUse">
<stop stop-color="#333399"></stop>
<stop offset="1" stop-color="#333399" stop-opacity="0"></stop>
</linearGradient>
<linearGradient id="paint51_linear" x1="1093.8" y1="385.022" x2="1093.8" y2="837.055" gradientUnits="userSpaceOnUse">
<stop stop-color="#333399"></stop>
<stop offset="1" stop-color="#333399" stop-opacity="0"></stop>
</linearGradient>
</defs>
<style data-made-with="vivus-instant">.ePmBRjZU_0{stroke-dasharray:3210 3212;stroke-dashoffset:3211;animation:ePmBRjZU_draw 4666ms linear 0ms forwards;}.ePmBRjZU_1{stroke-dasharray:3189 3191;stroke-dashoffset:3190;animation:ePmBRjZU_draw 4666ms linear 45ms forwards;}.ePmBRjZU_2{stroke-dasharray:3171 3173;stroke-dashoffset:3172;animation:ePmBRjZU_draw 4666ms linear 91ms forwards;}.ePmBRjZU_3{stroke-dasharray:3157 3159;stroke-dashoffset:3158;animation:ePmBRjZU_draw 4666ms linear 137ms forwards;}.ePmBRjZU_4{stroke-dasharray:3149 3151;stroke-dashoffset:3150;animation:ePmBRjZU_draw 4666ms linear 183ms forwards;}.ePmBRjZU_5{stroke-dasharray:3142 3144;stroke-dashoffset:3143;animation:ePmBRjZU_draw 4666ms linear 228ms forwards;}.ePmBRjZU_6{stroke-dasharray:3136 3138;stroke-dashoffset:3137;animation:ePmBRjZU_draw 4666ms linear 274ms forwards;}.ePmBRjZU_7{stroke-dasharray:3131 3133;stroke-dashoffset:3132;animation:ePmBRjZU_draw 4666ms linear 320ms forwards;}.ePmBRjZU_8{stroke-dasharray:3126 3128;stroke-dashoffset:3127;animation:ePmBRjZU_draw 4666ms linear 366ms forwards;}.ePmBRjZU_9{stroke-dasharray:3122 3124;stroke-dashoffset:3123;animation:ePmBRjZU_draw 4666ms linear 411ms forwards;}.ePmBRjZU_10{stroke-dasharray:3118 3120;stroke-dashoffset:3119;animation:ePmBRjZU_draw 4666ms linear 457ms forwards;}.ePmBRjZU_11{stroke-dasharray:3115 3117;stroke-dashoffset:3116;animation:ePmBRjZU_draw 4666ms linear 503ms forwards;}.ePmBRjZU_12{stroke-dasharray:3112 3114;stroke-dashoffset:3113;animation:ePmBRjZU_draw 4666ms linear 549ms forwards;}.ePmBRjZU_13{stroke-dasharray:3109 3111;stroke-dashoffset:3110;animation:ePmBRjZU_draw 4666ms linear 594ms forwards;}.ePmBRjZU_14{stroke-dasharray:3107 3109;stroke-dashoffset:3108;animation:ePmBRjZU_draw 4666ms linear 640ms forwards;}.ePmBRjZU_15{stroke-dasharray:3104 3106;stroke-dashoffset:3105;animation:ePmBRjZU_draw 4666ms linear 686ms forwards;}.ePmBRjZU_16{stroke-dasharray:3102 3104;stroke-dashoffset:3103;animation:ePmBRjZU_draw 4666ms linear 732ms forwards;}.ePmBRjZU_17{stroke-dasharray:3101 3103;stroke-dashoffset:3102;animation:ePmBRjZU_draw 4666ms linear 777ms forwards;}.ePmBRjZU_18{stroke-dasharray:3099 3101;stroke-dashoffset:3100;animation:ePmBRjZU_draw 4666ms linear 823ms forwards;}.ePmBRjZU_19{stroke-dasharray:3098 3100;stroke-dashoffset:3099;animation:ePmBRjZU_draw 4666ms linear 869ms forwards;}.ePmBRjZU_20{stroke-dasharray:3097 3099;stroke-dashoffset:3098;animation:ePmBRjZU_draw 4666ms linear 915ms forwards;}.ePmBRjZU_21{stroke-dasharray:3096 3098;stroke-dashoffset:3097;animation:ePmBRjZU_draw 4666ms linear 960ms forwards;}.ePmBRjZU_22{stroke-dasharray:3095 3097;stroke-dashoffset:3096;animation:ePmBRjZU_draw 4666ms linear 1006ms forwards;}.ePmBRjZU_23{stroke-dasharray:3095 3097;stroke-dashoffset:3096;animation:ePmBRjZU_draw 4666ms linear 1052ms forwards;}.ePmBRjZU_24{stroke-dasharray:3094 3096;stroke-dashoffset:3095;animation:ePmBRjZU_draw 4666ms linear 1098ms forwards;}.ePmBRjZU_25{stroke-dasharray:3094 3096;stroke-dashoffset:3095;animation:ePmBRjZU_draw 4666ms linear 1143ms forwards;}.ePmBRjZU_26{stroke-dasharray:3095 3097;stroke-dashoffset:3096;animation:ePmBRjZU_draw 4666ms linear 1189ms forwards;}.ePmBRjZU_27{stroke-dasharray:3095 3097;stroke-dashoffset:3096;animation:ePmBRjZU_draw 4666ms linear 1235ms forwards;}.ePmBRjZU_28{stroke-dasharray:3095 3097;stroke-dashoffset:3096;animation:ePmBRjZU_draw 4666ms linear 1281ms forwards;}.ePmBRjZU_29{stroke-dasharray:3096 3098;stroke-dashoffset:3097;animation:ePmBRjZU_draw 4666ms linear 1326ms forwards;}.ePmBRjZU_30{stroke-dasharray:3097 3099;stroke-dashoffset:3098;animation:ePmBRjZU_draw 4666ms linear 1372ms forwards;}.ePmBRjZU_31{stroke-dasharray:3098 3100;stroke-dashoffset:3099;animation:ePmBRjZU_draw 4666ms linear 1418ms forwards;}.ePmBRjZU_32{stroke-dasharray:3099 3101;stroke-dashoffset:3100;animation:ePmBRjZU_draw 4666ms linear 1464ms forwards;}.ePmBRjZU_33{stroke-dasharray:3101 3103;stroke-dashoffset:3102;animation:ePmBRjZU_draw 4666ms linear 1509ms forwards;}.ePmBRjZU_34{stroke-dasharray:3102 3104;stroke-dashoffset:3103;animation:ePmBRjZU_draw 4666ms linear 1555ms forwards;}.ePmBRjZU_35{stroke-dasharray:3104 3106;stroke-dashoffset:3105;animation:ePmBRjZU_draw 4666ms linear 1601ms forwards;}.ePmBRjZU_36{stroke-dasharray:3106 3108;stroke-dashoffset:3107;animation:ePmBRjZU_draw 4666ms linear 1647ms forwards;}.ePmBRjZU_37{stroke-dasharray:3109 3111;stroke-dashoffset:3110;animation:ePmBRjZU_draw 4666ms linear 1692ms forwards;}.ePmBRjZU_38{stroke-dasharray:3111 3113;stroke-dashoffset:3112;animation:ePmBRjZU_draw 4666ms linear 1738ms forwards;}.ePmBRjZU_39{stroke-dasharray:3114 3116;stroke-dashoffset:3115;animation:ePmBRjZU_draw 4666ms linear 1784ms forwards;}.ePmBRjZU_40{stroke-dasharray:3118 3120;stroke-dashoffset:3119;animation:ePmBRjZU_draw 4666ms linear 1830ms forwards;}.ePmBRjZU_41{stroke-dasharray:3122 3124;stroke-dashoffset:3123;animation:ePmBRjZU_draw 4666ms linear 1875ms forwards;}.ePmBRjZU_42{stroke-dasharray:3126 3128;stroke-dashoffset:3127;animation:ePmBRjZU_draw 4666ms linear 1921ms forwards;}.ePmBRjZU_43{stroke-dasharray:3131 3133;stroke-dashoffset:3132;animation:ePmBRjZU_draw 4666ms linear 1967ms forwards;}.ePmBRjZU_44{stroke-dasharray:3137 3139;stroke-dashoffset:3138;animation:ePmBRjZU_draw 4666ms linear 2013ms forwards;}.ePmBRjZU_45{stroke-dasharray:3144 3146;stroke-dashoffset:3145;animation:ePmBRjZU_draw 4666ms linear 2058ms forwards;}.ePmBRjZU_46{stroke-dasharray:3153 3155;stroke-dashoffset:3154;animation:ePmBRjZU_draw 4666ms linear 2104ms forwards;}.ePmBRjZU_47{stroke-dasharray:3163 3165;stroke-dashoffset:3164;animation:ePmBRjZU_draw 4666ms linear 2150ms forwards;}.ePmBRjZU_48{stroke-dasharray:3176 3178;stroke-dashoffset:3177;animation:ePmBRjZU_draw 4666ms linear 2196ms forwards;}.ePmBRjZU_49{stroke-dasharray:3191 3193;stroke-dashoffset:3192;animation:ePmBRjZU_draw 4666ms linear 2241ms forwards;}.ePmBRjZU_50{stroke-dasharray:3209 3211;stroke-dashoffset:3210;animation:ePmBRjZU_draw 4666ms linear 2287ms forwards;}.ePmBRjZU_51{stroke-dasharray:3228 3230;stroke-dashoffset:3229;animation:ePmBRjZU_draw 4666ms linear 2333ms forwards;}@keyframes ePmBRjZU_draw{100%{stroke-dashoffset:0;}}@keyframes ePmBRjZU_fade{0%{stroke-opacity:1;}96.42857142857143%{stroke-opacity:1;}100%{stroke-opacity:0;}}</style></svg>
