<svg width="1920" height="1587" viewBox="0 0 1920 1587" fill="none" xmlns="http://www.w3.org/2000/svg">
<mask id="mask0" mask-type="alpha" maskUnits="userSpaceOnUse" x="-1" y="0" width="1922" height="1571">
<path d="M-1 0L370 1.52588e-05L1921 0V1571H-1V0Z" fill="#EDEDEE"/>
</mask>
<g mask="url(#mask0)">
<path opacity="0.2" d="M-220.09 252.002C-146.795 107.49 239.384 60.6132 239.384 262.527C239.384 321.287 -32.0765 699.751 35.5241 820.386C103.125 941.021 272.376 605.519 296.991 755.078C321.606 904.637 176.577 1030.9 323.531 1143.04C470.484 1255.18 720.509 922.394 898.24 1037.78C963.255 1079.99 982.731 1213.26 1080.52 1221.17C1235.76 1233.74 1337.07 1047.13 1496.04 1028.47C1591.35 1017.28 1606.22 1164.79 1688.18 1143.04C1850 1100.08 2013.28 979.379 2158 882.325" stroke="url(#paint0_linear)" stroke-linecap="round" stroke-linejoin="round"/>
<path opacity="0.2" d="M-475 550.341C-401.705 405.829 -15.526 358.952 -15.526 560.867C-15.526 619.627 -286.987 998.09 -219.386 1118.73C-151.786 1239.36 78.5104 969.166 103.126 1118.73C127.741 1268.28 73.7692 1356.96 220.722 1469.1C367.676 1581.24 421.837 1152.89 599.567 1268.28C664.583 1310.49 824.293 1433.46 922.078 1441.38C1077.32 1453.94 1077.17 1286.94 1236.14 1268.28C1331.45 1257.09 1386.56 1421.44 1468.52 1399.68C1630.34 1356.72 2013.18 979.399 2157.9 882.345" stroke="url(#paint1_linear)" stroke-linecap="round" stroke-linejoin="round"/>
<path opacity="0.2" d="M-232.229 266.209C-158.933 121.697 227.246 74.8198 227.246 276.734C227.246 335.494 -44.2151 713.958 23.3854 834.593C90.986 955.227 263.144 622.835 287.759 772.394C312.374 921.954 171.682 1046.43 318.635 1158.56C465.588 1270.7 706.287 933.37 884.017 1048.76C949.033 1090.97 975.186 1223.75 1072.97 1231.66C1228.22 1244.23 1324.69 1058.55 1483.66 1039.89C1578.97 1028.7 1595.76 1177.01 1677.72 1155.26C1839.54 1112.3 2013.27 979.38 2157.99 882.326" stroke="url(#paint2_linear)"/>
<path opacity="0.2" d="M-244.367 280.415C-171.072 135.903 215.107 89.0264 215.107 290.941C215.107 349.701 -56.3538 728.164 11.2468 848.799C78.8473 969.434 253.912 640.152 278.527 789.711C303.143 939.27 166.786 1061.95 313.739 1174.09C460.692 1286.23 692.064 944.346 869.795 1059.73C934.81 1101.94 967.641 1234.23 1065.43 1242.15C1220.67 1254.71 1312.31 1069.97 1471.29 1051.31C1566.6 1040.12 1585.3 1189.24 1667.26 1167.48C1829.08 1124.52 2013.27 979.381 2157.99 882.327" stroke="url(#paint3_linear)"/>
<path opacity="0.2" d="M-256.506 294.622C-183.211 150.11 202.968 103.233 202.968 305.147C202.968 363.907 -68.4925 742.371 -0.891932 863.006C66.7086 983.641 244.68 657.468 269.296 807.027C293.911 956.587 161.89 1077.48 308.843 1189.62C455.797 1301.76 677.842 955.323 855.572 1070.71C920.587 1112.92 960.096 1244.72 1057.88 1252.63C1213.13 1265.2 1299.94 1081.38 1458.91 1062.73C1554.22 1051.54 1574.84 1201.46 1656.8 1179.7C1818.62 1136.74 2013.26 979.382 2157.98 882.328" stroke="url(#paint4_linear)"/>
<path opacity="0.2" d="M-268.643 308.828C-195.347 164.317 190.832 117.44 190.832 319.354C190.832 378.114 -80.6292 756.578 -13.0286 877.212C54.5719 997.847 235.451 674.785 260.066 824.344C284.681 973.903 156.997 1093.01 303.95 1205.14C450.903 1317.28 663.621 966.299 841.351 1081.69C906.367 1123.89 952.554 1255.2 1050.34 1263.12C1205.58 1275.68 1287.56 1092.8 1446.54 1074.15C1541.85 1062.96 1564.38 1213.68 1646.34 1191.92C1808.16 1148.97 2013.26 979.383 2157.98 882.329" stroke="url(#paint5_linear)"/>
<path opacity="0.2" d="M-280.781 323.035C-207.486 178.523 178.693 131.646 178.693 333.561C178.693 392.321 -92.7679 770.784 -25.1673 891.419C42.4332 1012.05 226.219 692.101 250.834 841.661C275.449 991.22 152.101 1108.53 299.054 1220.67C446.007 1332.81 649.398 977.275 827.129 1092.66C892.144 1134.87 945.009 1265.69 1042.79 1273.6C1198.04 1286.17 1275.19 1104.22 1434.16 1085.57C1529.47 1074.38 1553.92 1225.9 1635.88 1204.14C1797.7 1161.19 2013.26 979.384 2157.98 882.33" stroke="url(#paint6_linear)"/>
<path opacity="0.2" d="M-292.922 337.242C-219.627 192.73 166.552 145.853 166.552 347.767C166.552 406.527 -104.908 784.991 -37.3079 905.626C30.2926 1026.26 216.985 709.418 241.6 858.977C266.216 1008.54 147.203 1124.06 294.156 1236.2C441.11 1348.34 635.174 988.251 812.904 1103.64C877.92 1145.85 937.462 1276.17 1035.25 1284.09C1190.49 1296.65 1262.81 1115.64 1421.78 1096.99C1517.09 1085.8 1543.46 1238.12 1625.42 1216.36C1787.24 1173.41 2013.25 979.385 2157.97 882.331" stroke="url(#paint7_linear)"/>
<path opacity="0.2" d="M-305.059 351.448C-231.763 206.936 154.415 160.059 154.415 361.974C154.415 420.734 -117.045 799.197 -49.4447 919.832C18.1559 1040.47 207.755 726.734 232.371 876.294C256.986 1025.85 142.309 1139.59 289.263 1251.72C436.216 1363.86 620.953 999.227 798.683 1114.61C863.699 1156.82 929.919 1286.66 1027.7 1294.58C1182.95 1307.14 1250.43 1127.06 1409.41 1108.41C1504.72 1097.22 1533 1250.34 1614.96 1228.58C1776.78 1185.63 2013.25 979.386 2157.97 882.332" stroke="url(#paint8_linear)"/>
<path opacity="0.2" d="M-317.199 365.655C-243.904 221.143 142.275 174.266 142.275 376.181C142.275 434.941 -129.186 813.404 -61.5853 934.039C6.01529 1054.67 198.522 744.051 223.137 893.61C247.752 1043.17 137.412 1155.11 284.365 1267.25C431.318 1379.39 606.729 1010.2 784.459 1125.59C849.475 1167.8 922.373 1297.15 1020.16 1305.06C1175.4 1317.63 1238.06 1138.48 1397.03 1119.83C1492.34 1108.64 1522.54 1262.56 1604.5 1240.81C1766.31 1197.85 2013.24 979.387 2157.96 882.333" stroke="url(#paint9_linear)"/>
<path opacity="0.2" d="M-329.336 379.862C-256.041 235.35 130.138 188.473 130.138 390.387C130.138 449.147 -141.323 827.611 -73.722 948.246C-6.12148 1068.88 189.292 761.368 213.907 910.927C238.522 1060.49 132.518 1170.64 279.471 1282.78C426.424 1394.92 592.508 1021.18 770.238 1136.57C835.254 1178.78 914.83 1307.63 1012.62 1315.55C1167.86 1328.11 1225.68 1149.9 1384.65 1131.25C1479.96 1120.06 1512.08 1274.78 1594.04 1253.03C1755.86 1210.07 2013.24 979.388 2157.96 882.334" stroke="url(#paint10_linear)"/>
<path opacity="0.2" d="M-341.477 394.068C-268.181 249.556 117.998 202.679 117.998 404.594C117.998 463.354 -153.463 841.817 -85.8626 962.452C-18.262 1083.09 180.058 778.684 204.673 928.243C229.288 1077.8 127.62 1186.17 274.573 1298.3C421.527 1410.44 578.284 1032.16 756.014 1147.54C821.029 1189.75 907.283 1318.12 1005.07 1326.03C1160.31 1338.6 1213.3 1161.32 1372.28 1142.66C1467.59 1131.48 1501.62 1287 1583.58 1265.25C1745.39 1222.29 2013.23 979.388 2157.95 882.335" stroke="url(#paint11_linear)"/>
<path opacity="0.2" d="M-353.613 408.275C-280.318 263.763 105.861 216.886 105.861 418.8C105.861 477.56 -165.6 856.024 -97.9993 976.659C-30.3988 1097.29 170.828 796.001 195.443 945.56C220.059 1095.12 122.727 1201.69 269.68 1313.83C416.633 1425.97 564.063 1043.13 741.793 1158.52C806.809 1200.73 899.741 1328.6 997.526 1336.52C1152.77 1349.08 1200.93 1172.74 1359.9 1154.08C1455.21 1142.9 1491.16 1299.23 1573.12 1277.47C1734.94 1234.51 2013.23 979.389 2157.95 882.336" stroke="url(#paint12_linear)"/>
<path opacity="0.2" d="M-365.752 422.481C-292.457 277.97 93.7221 231.093 93.7221 433.007C93.7221 491.767 -177.739 870.231 -110.138 990.866C-42.5375 1111.5 161.596 813.317 186.212 962.876C210.827 1112.44 117.831 1217.22 264.784 1329.36C411.737 1441.5 549.84 1054.11 727.571 1169.49C792.586 1211.7 892.196 1339.09 989.981 1347C1145.23 1359.57 1188.55 1184.16 1347.53 1165.5C1442.84 1154.32 1480.7 1311.45 1562.66 1289.69C1724.48 1246.73 2013.22 979.39 2157.94 882.337" stroke="url(#paint13_linear)"/>
<path opacity="0.2" d="M-377.891 436.688C-304.595 292.176 81.5834 245.299 81.5834 447.214C81.5834 505.974 -189.877 884.437 -122.277 1005.07C-54.6761 1125.71 152.365 830.633 176.98 980.193C201.595 1129.75 112.935 1232.75 259.888 1344.88C406.841 1457.02 535.618 1065.08 713.348 1180.47C778.363 1222.68 884.651 1349.58 982.436 1357.49C1137.68 1370.05 1176.18 1195.58 1335.15 1176.92C1430.46 1165.74 1470.24 1323.67 1552.2 1301.91C1714.02 1258.96 2013.22 979.391 2157.94 882.338" stroke="url(#paint14_linear)"/>
<path opacity="0.2" d="M-390.029 450.895C-316.734 306.383 69.4448 259.506 69.4448 461.42C69.4448 520.18 -202.016 898.644 -134.415 1019.28C-66.8148 1139.91 143.133 847.95 167.748 997.509C192.363 1147.07 108.039 1248.27 254.993 1360.41C401.946 1472.55 521.395 1076.06 699.125 1191.45C764.141 1233.66 877.106 1360.06 974.892 1367.98C1130.14 1380.54 1163.8 1207 1322.77 1188.34C1418.08 1177.16 1459.78 1335.89 1541.74 1314.13C1703.56 1271.18 2013.21 979.392 2157.93 882.339" stroke="url(#paint15_linear)"/>
<path opacity="0.2" d="M-402.168 465.101C-328.873 320.59 57.3061 273.713 57.3061 475.627C57.3061 534.387 -214.155 912.85 -146.554 1033.49C-78.9535 1154.12 133.901 865.267 158.516 1014.83C183.131 1164.39 103.144 1263.8 250.097 1375.94C397.05 1488.08 507.173 1087.04 684.903 1202.42C749.918 1244.63 869.561 1370.55 967.347 1378.46C1122.59 1391.03 1151.42 1218.42 1310.4 1199.76C1405.71 1188.58 1449.32 1348.11 1531.28 1326.35C1693.1 1283.4 2013.21 979.393 2157.93 882.34" stroke="url(#paint16_linear)"/>
<path opacity="0.2" d="M-414.307 479.308C-341.011 334.796 45.1675 287.919 45.1675 489.834C45.1675 548.594 -226.293 927.057 -158.693 1047.69C-91.0921 1168.33 124.669 882.583 149.285 1032.14C173.9 1181.7 98.2479 1279.33 245.201 1391.46C392.154 1503.6 492.95 1098.01 670.68 1213.4C735.696 1255.61 862.017 1381.03 959.802 1388.95C1115.05 1401.51 1139.05 1229.84 1298.02 1211.18C1393.33 1200 1438.86 1360.33 1520.82 1338.57C1682.64 1295.62 2013.2 979.394 2157.92 882.341" stroke="url(#paint17_linear)"/>
<path opacity="0.2" d="M-426.445 493.515C-353.15 349.003 33.0287 302.126 33.0287 504.04C33.0287 562.8 -238.432 941.264 -170.831 1061.9C-103.231 1182.53 115.438 899.9 140.053 1049.46C164.668 1199.02 93.3521 1294.85 240.305 1406.99C387.258 1519.13 478.727 1108.99 656.458 1224.38C721.473 1266.59 854.472 1391.52 952.257 1399.43C1107.5 1412 1126.67 1241.26 1285.64 1222.6C1380.95 1211.42 1428.4 1372.55 1510.36 1350.8C1672.18 1307.84 2013.2 979.395 2157.92 882.342" stroke="url(#paint18_linear)"/>
<path opacity="0.2" d="M-438.584 507.721C-365.289 363.209 20.8901 316.332 20.8901 518.247C20.8901 577.007 -250.571 955.47 -182.97 1076.11C-115.369 1196.74 106.206 917.216 130.821 1066.78C155.436 1216.33 88.4565 1310.38 235.41 1422.52C382.363 1534.66 464.505 1119.97 642.235 1235.35C707.251 1277.56 846.927 1402 944.713 1409.92C1099.96 1422.48 1114.3 1252.68 1273.27 1234.02C1368.58 1222.84 1417.94 1384.77 1499.9 1363.02C1661.72 1320.06 2013.19 979.396 2157.92 882.343" stroke="url(#paint19_linear)"/>
<path opacity="0.2" d="M-450.723 521.928C-377.427 377.416 8.75144 330.539 8.75144 532.453C8.75144 591.213 -262.709 969.677 -195.109 1090.31C-127.508 1210.95 96.9741 934.533 121.589 1084.09C146.204 1233.65 83.5607 1325.91 230.514 1438.05C377.467 1550.18 450.282 1130.94 628.013 1246.33C693.028 1288.54 839.382 1412.49 937.168 1420.4C1092.41 1432.97 1101.92 1264.1 1260.89 1245.44C1356.2 1234.26 1407.48 1396.99 1489.44 1375.24C1651.26 1332.28 2013.19 979.397 2157.91 882.343" stroke="url(#paint20_linear)"/>
<path opacity="0.2" d="M-462.861 536.134C-389.566 391.623 -3.38723 344.746 -3.38723 546.66C-3.38723 605.42 -274.848 983.884 -207.247 1104.52C-139.647 1225.15 87.7423 951.849 112.357 1101.41C136.973 1250.97 78.665 1341.43 225.618 1453.57C372.571 1565.71 436.06 1141.92 613.79 1257.3C678.805 1299.51 831.838 1422.98 929.623 1430.89C1084.87 1443.46 1089.54 1275.52 1248.52 1256.86C1343.83 1245.68 1397.02 1409.22 1478.98 1387.46C1640.8 1344.5 2013.18 979.398 2157.91 882.344" stroke="url(#paint21_linear)"/>
</g>
<defs>
<linearGradient id="paint0_linear" x1="968.954" y1="127" x2="968.954" y2="1221.78" gradientUnits="userSpaceOnUse">
<stop stop-color="#333399"/>
<stop offset="1" stop-color="#333399" stop-opacity="0.54"/>
</linearGradient>
<linearGradient id="paint1_linear" x1="841.45" y1="425.339" x2="841.45" y2="1488" gradientUnits="userSpaceOnUse">
<stop stop-color="#333399"/>
<stop offset="1" stop-color="#333399" stop-opacity="0.54"/>
</linearGradient>
<linearGradient id="paint2_linear" x1="962.883" y1="141.207" x2="962.883" y2="1232.27" gradientUnits="userSpaceOnUse">
<stop stop-color="#333399"/>
<stop offset="1" stop-color="#333399" stop-opacity="0.54"/>
</linearGradient>
<linearGradient id="paint3_linear" x1="956.811" y1="155.413" x2="956.811" y2="1242.76" gradientUnits="userSpaceOnUse">
<stop stop-color="#333399"/>
<stop offset="1" stop-color="#333399" stop-opacity="0.54"/>
</linearGradient>
<linearGradient id="paint4_linear" x1="950.739" y1="169.62" x2="950.739" y2="1253.25" gradientUnits="userSpaceOnUse">
<stop stop-color="#333399"/>
<stop offset="1" stop-color="#333399" stop-opacity="0.54"/>
</linearGradient>
<linearGradient id="paint5_linear" x1="944.67" y1="183.826" x2="944.67" y2="1263.74" gradientUnits="userSpaceOnUse">
<stop stop-color="#333399"/>
<stop offset="1" stop-color="#333399" stop-opacity="0.54"/>
</linearGradient>
<linearGradient id="paint6_linear" x1="938.598" y1="198.033" x2="938.598" y2="1274.22" gradientUnits="userSpaceOnUse">
<stop stop-color="#333399"/>
<stop offset="1" stop-color="#333399" stop-opacity="0.54"/>
</linearGradient>
<linearGradient id="paint7_linear" x1="932.524" y1="212.24" x2="932.524" y2="1284.71" gradientUnits="userSpaceOnUse">
<stop stop-color="#333399"/>
<stop offset="1" stop-color="#333399" stop-opacity="0.54"/>
</linearGradient>
<linearGradient id="paint8_linear" x1="926.454" y1="226.446" x2="926.454" y2="1295.2" gradientUnits="userSpaceOnUse">
<stop stop-color="#333399"/>
<stop offset="1" stop-color="#333399" stop-opacity="0.54"/>
</linearGradient>
<linearGradient id="paint9_linear" x1="920.381" y1="240.653" x2="920.381" y2="1305.69" gradientUnits="userSpaceOnUse">
<stop stop-color="#333399"/>
<stop offset="1" stop-color="#333399" stop-opacity="0.54"/>
</linearGradient>
<linearGradient id="paint10_linear" x1="914.311" y1="254.86" x2="914.311" y2="1316.18" gradientUnits="userSpaceOnUse">
<stop stop-color="#333399"/>
<stop offset="1" stop-color="#333399" stop-opacity="0.54"/>
</linearGradient>
<linearGradient id="paint11_linear" x1="908.237" y1="269.066" x2="908.237" y2="1326.67" gradientUnits="userSpaceOnUse">
<stop stop-color="#333399"/>
<stop offset="1" stop-color="#333399" stop-opacity="0.54"/>
</linearGradient>
<linearGradient id="paint12_linear" x1="902.168" y1="283.273" x2="902.168" y2="1337.16" gradientUnits="userSpaceOnUse">
<stop stop-color="#333399"/>
<stop offset="1" stop-color="#333399" stop-opacity="0.54"/>
</linearGradient>
<linearGradient id="paint13_linear" x1="896.096" y1="297.48" x2="896.096" y2="1349.97" gradientUnits="userSpaceOnUse">
<stop stop-color="#333399"/>
<stop offset="1" stop-color="#333399" stop-opacity="0.54"/>
</linearGradient>
<linearGradient id="paint14_linear" x1="890.024" y1="311.686" x2="890.024" y2="1365.29" gradientUnits="userSpaceOnUse">
<stop stop-color="#333399"/>
<stop offset="1" stop-color="#333399" stop-opacity="0.54"/>
</linearGradient>
<linearGradient id="paint15_linear" x1="883.953" y1="325.893" x2="883.953" y2="1380.62" gradientUnits="userSpaceOnUse">
<stop stop-color="#333399"/>
<stop offset="1" stop-color="#333399" stop-opacity="0.54"/>
</linearGradient>
<linearGradient id="paint16_linear" x1="877.881" y1="340.099" x2="877.881" y2="1395.95" gradientUnits="userSpaceOnUse">
<stop stop-color="#333399"/>
<stop offset="1" stop-color="#333399" stop-opacity="0.54"/>
</linearGradient>
<linearGradient id="paint17_linear" x1="871.809" y1="354.306" x2="871.809" y2="1411.28" gradientUnits="userSpaceOnUse">
<stop stop-color="#333399"/>
<stop offset="1" stop-color="#333399" stop-opacity="0.54"/>
</linearGradient>
<linearGradient id="paint18_linear" x1="865.737" y1="368.513" x2="865.737" y2="1426.62" gradientUnits="userSpaceOnUse">
<stop stop-color="#333399"/>
<stop offset="1" stop-color="#333399" stop-opacity="0.54"/>
</linearGradient>
<linearGradient id="paint19_linear" x1="859.666" y1="382.719" x2="859.666" y2="1441.96" gradientUnits="userSpaceOnUse">
<stop stop-color="#333399"/>
<stop offset="1" stop-color="#333399" stop-opacity="0.54"/>
</linearGradient>
<linearGradient id="paint20_linear" x1="853.594" y1="396.926" x2="853.594" y2="1457.3" gradientUnits="userSpaceOnUse">
<stop stop-color="#333399"/>
<stop offset="1" stop-color="#333399" stop-opacity="0.54"/>
</linearGradient>
<linearGradient id="paint21_linear" x1="847.522" y1="411.132" x2="847.522" y2="1472.65" gradientUnits="userSpaceOnUse">
<stop stop-color="#333399"/>
<stop offset="1" stop-color="#333399" stop-opacity="0.54"/>
</linearGradient>
</defs>
</svg>
