<svg width="1920" height="590" viewBox="0 0 1920 590" fill="none" xmlns="http://www.w3.org/2000/svg" xmlns:xlink="http://www.w3.org/1999/xlink">
<mask id="mask0" mask-type="alpha" maskUnits="userSpaceOnUse" x="0" y="0" width="1920" height="590">
<path d="M0 0H1920V590H1545H0V0Z" fill="url(#pattern0)"/>
<path d="M0 0H1920V590H1545H0V0Z" fill="black" fill-opacity="0.83"/>
</mask>
<g mask="url(#mask0)">
<g opacity="0.7">
<path d="M3326 306.416C3323.72 301.718 3329.96 300.554 3314.62 282.928C3208.65 161.207 3060.16 23.5702 2792.98 5.92519C2573.4 -8.57523 2667.16 189.026 2491.59 195.964C2157.84 209.153 1866.85 -140.018 1560.63 -70.9445C1409.03 -36.7489 1534.94 124.676 1400.21 140.059C1326.22 148.507 1299.27 82.9753 1225.84 83.5714C1160.21 84.1041 1098.14 153.894 1033.85 143.165C784.347 101.529 745.076 -94.5127 407.028 -63.9564C169.651 -42.4997 178.511 146.562 25.4309 222.558" stroke="url(#paint0_linear)" stroke-linecap="round" stroke-linejoin="round"/>
<path d="M3312.79 337.863C3246.29 309.381 3056.09 279.544 2984.97 320.392C2874.05 384.096 3010.69 516.822 2859.79 564.201C2500.46 677.019 2338.44 383.286 2027.58 383.286C1969.17 383.286 2007.05 466.735 1944.06 479.373C1723.7 523.586 1557.83 168.405 1348.45 240.32C1190.12 294.698 1285 510.957 1125.62 510.82C1014.24 510.724 878.731 353.757 768.803 405.221C555.313 505.168 265.693 465.971 77.5599 369.504C29.1031 344.657 54.3594 336.426 38.6477 317.869C22.9359 299.311 6.93037 284.947 -0.998948 276.716" stroke="url(#paint1_linear)" stroke-linecap="round" stroke-linejoin="round"/>
<path d="M3325.74 307.032C3323.32 304.171 3320.57 302.149 3318.54 299.929C3315.74 298.157 3316.18 296.154 3305.7 288.443C3194.77 171.321 3046.01 30.6234 2777.97 13.3244C2561.56 -0.891729 2654.22 194.471 2480.85 201.521C2149.33 215.319 1860.79 -133.97 1556.47 -64.8414C1404.74 -30.25 1530.04 132.251 1394.83 147.329C1320.1 155.609 1291.03 88.2847 1216.88 89.8782C1148.35 92.3602 1081.82 160.013 1015.1 147.603C769.54 106.296 731.534 -86.063 399.807 -56.4697C166.776 -35.7976 175.148 149.275 24.9146 223.62" stroke="url(#paint2_linear)"/>
<path d="M3325.48 307.649C3321.78 304.275 3315.28 301.697 3311.87 300.338C3306.9 299.876 3310.08 300.567 3296.79 293.958C3180.88 181.434 3031.86 37.6765 2762.96 20.7234C2549.71 6.79166 2641.27 199.916 2470.12 207.078C2140.82 221.484 1854.73 -127.923 1552.31 -58.7383C1400.45 -23.7512 1525.14 139.825 1389.44 154.598C1313.99 162.711 1282.78 93.594 1207.92 96.1849C1136.49 100.616 1065.5 166.132 996.348 152.041C754.732 111.063 717.991 -77.6133 392.585 -48.983C163.9 -29.0955 171.785 151.989 24.3974 224.682" stroke="url(#paint3_linear)"/>
<path d="M3325.22 308.265C3320.24 304.379 3309.98 301.245 3305.2 300.747C3298.07 301.594 3303.96 304.981 3287.87 299.473C3166.99 191.548 3017.71 44.7297 2747.95 28.1226C2537.86 14.4752 2628.33 205.362 2459.38 212.635C2132.3 227.649 1848.67 -121.875 1548.15 -52.6351C1396.16 -17.2523 1520.24 147.399 1384.06 161.868C1307.87 169.813 1274.53 98.9034 1198.95 102.492C1124.63 108.872 1049.17 172.251 977.595 156.479C739.921 115.831 704.446 -69.1636 385.36 -41.4963C161.022 -22.3934 168.419 154.702 23.8768 225.744" stroke="url(#paint4_linear)"/>
<path d="M3324.96 308.882C3318.7 304.484 3304.69 300.793 3298.52 301.157C3289.23 303.313 3297.85 309.394 3278.94 304.988C3153.1 201.662 3003.56 51.7828 2732.94 35.5217C2526.01 22.1586 2615.38 210.807 2448.64 218.192C2123.79 233.814 1842.61 -115.828 1543.99 -46.532C1391.86 -10.7535 1515.34 154.973 1378.67 169.138C1301.75 176.915 1266.29 104.213 1189.99 108.798C1112.77 117.128 1032.85 178.37 958.841 160.916C725.11 120.598 690.9 -60.714 378.134 -34.0097C158.142 -15.6914 165.051 157.415 23.3557 226.805" stroke="url(#paint5_linear)"/>
<path d="M3324.7 309.499C3317.16 304.588 3299.4 300.341 3291.85 301.566C3280.4 305.032 3291.74 313.807 3270.03 310.503C3139.22 211.776 2989.41 58.836 2717.94 42.9209C2514.16 29.8421 2602.44 216.252 2437.91 223.749C2115.28 239.98 1836.55 -109.78 1539.83 -40.4289C1387.57 -4.25458 1510.44 162.547 1373.29 176.408C1295.63 184.018 1258.04 109.522 1181.03 115.105C1100.91 125.384 1016.53 184.489 940.091 165.354C710.302 125.365 677.357 -52.2642 370.911 -26.523C155.266 -8.98923 161.688 160.129 22.8383 227.867" stroke="url(#paint6_linear)"/>
<path d="M3324.45 310.115C3315.62 304.692 3294.12 299.888 3285.18 301.975C3271.57 306.75 3285.63 318.22 3261.11 316.018C3125.33 221.89 2975.26 65.8891 2702.93 50.32C2502.32 37.5255 2589.5 221.697 2427.17 229.306C2106.76 246.145 1830.49 -103.733 1535.67 -34.3258C1383.28 2.24423 1505.54 170.121 1367.9 183.677C1289.52 191.12 1249.8 114.831 1172.07 121.412C1089.05 133.64 1000.21 190.608 921.342 169.792C695.495 130.132 663.815 -43.8146 363.689 -19.0363C152.39 -2.2872 158.325 162.842 22.3215 228.929" stroke="url(#paint7_linear)"/>
<path d="M3324.19 310.732C3314.08 304.796 3288.83 299.436 3278.51 302.384C3262.73 308.469 3279.53 322.634 3252.19 321.533C3111.45 232.004 2961.11 72.9424 2687.92 57.7192C2490.47 45.209 2576.56 227.142 2416.44 234.863C2098.25 252.31 1824.43 -97.6856 1531.51 -28.2226C1378.99 8.74316 1500.64 177.695 1362.52 190.947C1283.4 198.222 1241.55 120.141 1163.11 127.719C1077.19 141.897 983.884 196.727 902.593 174.23C680.688 134.899 650.273 -35.3648 356.468 -11.5496C149.516 4.41496 154.962 165.555 21.8051 229.991" stroke="url(#paint8_linear)"/>
<path d="M3323.93 311.348C3312.54 304.9 3283.54 298.984 3271.84 302.793C3253.9 310.188 3273.41 327.047 3243.27 327.049C3097.56 242.118 2946.95 79.9955 2672.91 65.1183C2478.62 52.8924 2563.61 232.588 2405.7 240.42C2089.74 258.475 1818.37 -91.6382 1527.35 -22.1195C1374.69 15.242 1495.73 185.269 1357.14 198.217C1277.28 205.324 1233.3 125.45 1154.15 134.025C1065.33 150.153 967.559 202.846 883.84 178.668C665.876 139.666 636.727 -26.9152 349.242 -4.06295C146.636 11.117 151.596 168.269 21.2843 231.053" stroke="url(#paint9_linear)"/>
<path d="M3323.67 311.965C3311 305.004 3278.25 298.532 3265.17 303.203C3245.06 311.907 3267.3 331.46 3234.36 332.564C3083.68 252.231 2932.8 87.0487 2657.91 72.5175C2466.77 60.576 2550.67 238.033 2394.97 245.977C2081.23 264.641 1812.31 -85.5908 1523.19 -16.0163C1370.4 21.7409 1490.83 192.843 1351.75 205.487C1271.16 212.426 1225.06 130.76 1145.18 140.332C1053.47 158.409 951.237 208.966 865.09 183.106C651.068 144.433 623.184 -18.4654 342.02 3.4238C143.76 17.8192 148.232 170.982 20.7666 232.115" stroke="url(#paint10_linear)"/>
<path d="M3323.41 312.581C3309.45 305.108 3272.96 298.08 3258.5 303.612C3236.23 313.625 3261.19 335.873 3225.44 338.079C3069.79 262.345 2918.65 94.1018 2642.9 79.9166C2454.93 68.2594 2537.72 243.478 2384.23 251.534C2072.71 270.806 1806.25 -79.5434 1519.03 -9.91319C1366.11 28.2398 1485.93 200.417 1346.37 212.756C1265.05 219.529 1216.81 136.069 1136.22 146.639C1041.61 166.665 934.915 215.085 846.339 187.544C636.26 149.2 609.641 -10.0157 334.796 10.9104C140.883 24.5212 144.867 173.695 20.2483 233.176" stroke="url(#paint11_linear)"/>
<path d="M3323.15 313.198C3307.91 305.212 3267.67 297.627 3251.82 304.021C3227.4 315.344 3255.08 340.287 3216.52 343.594C3055.9 272.459 2904.5 101.155 2627.89 87.3158C2443.08 75.9429 2524.78 248.923 2373.49 257.091C2064.2 276.971 1800.19 -73.4959 1514.86 -3.80998C1361.82 34.7387 1481.03 207.991 1340.98 220.026C1258.93 226.631 1208.57 141.378 1127.26 152.946C1029.74 174.921 918.591 221.204 827.587 191.982C621.45 153.968 596.096 -1.56594 327.572 18.3972C138.005 31.2234 141.502 176.409 19.7292 234.238" stroke="url(#paint12_linear)"/>
<path d="M3322.89 313.814C3306.38 305.316 3262.38 297.175 3245.16 304.43C3218.57 317.063 3248.98 344.7 3207.6 349.109C3042.02 282.573 2890.35 108.208 2612.88 94.7148C2431.23 83.6262 2511.84 254.368 2362.76 262.647C2055.69 283.136 1794.14 -67.4486 1510.71 2.293C1357.53 41.2374 1476.13 215.565 1335.6 227.296C1252.81 233.733 1200.32 146.688 1118.3 159.252C1017.89 183.177 902.273 227.323 808.84 196.42C606.645 158.735 582.557 6.8836 320.353 25.8837C135.133 37.9253 138.142 179.122 19.2148 235.3" stroke="url(#paint13_linear)"/>
<path d="M3322.63 314.431C3304.83 305.421 3257.09 296.723 3238.48 304.839C3209.73 318.781 3242.86 349.113 3198.68 354.624C3028.13 292.687 2876.19 115.261 2597.87 102.114C2419.38 91.3098 2498.9 259.814 2352.02 268.205C2047.17 289.302 1788.08 -61.4011 1506.54 8.39623C1353.23 47.7364 1471.23 223.139 1330.22 234.565C1246.69 240.835 1192.07 151.997 1109.34 165.559C1006.02 191.433 885.947 233.442 790.087 200.858C591.834 163.502 569.01 15.3334 313.127 33.3705C132.253 44.6275 134.775 181.835 18.6937 236.362" stroke="url(#paint14_linear)"/>
<path d="M3322.37 315.047C3303.29 305.525 3251.8 296.271 3231.81 305.248C3200.9 320.5 3236.75 353.527 3189.76 360.139C3014.24 302.801 2862.04 122.314 2582.87 109.513C2407.53 98.9932 2485.95 265.259 2341.29 273.761C2038.66 295.467 1782.02 -55.3537 1502.38 14.4993C1348.94 54.2353 1466.33 230.713 1324.83 241.835C1240.58 247.937 1183.83 157.306 1100.38 171.866C994.161 199.689 869.624 239.561 771.335 205.296C577.024 168.269 555.466 23.7831 305.903 40.8572C129.375 51.3296 131.409 184.549 18.1746 237.424" stroke="url(#paint15_linear)"/>
<path d="M3322.11 315.664C3301.75 305.629 3246.51 295.819 3225.14 305.658C3192.06 322.219 3230.64 357.94 3180.84 365.654C3000.36 312.915 2847.89 129.368 2567.86 116.913C2395.69 106.677 2473.01 270.704 2330.55 279.319C2030.15 301.632 1775.96 -49.3061 1498.22 20.6027C1344.65 60.7343 1461.43 238.287 1319.45 249.105C1234.46 255.04 1175.58 162.616 1091.41 178.173C982.3 207.945 853.301 245.68 752.584 209.734C562.214 173.036 541.922 32.233 298.679 48.3441C126.498 58.0319 128.044 187.262 17.6554 238.486" stroke="url(#paint16_linear)"/>
<path d="M3321.85 316.28C3300.21 305.733 3241.22 295.367 3218.47 306.067C3183.23 323.938 3224.54 362.353 3171.93 371.169C2986.47 323.029 2833.74 136.421 2552.85 124.312C2383.84 114.36 2460.07 276.149 2319.82 284.875C2021.64 307.797 1769.9 -43.2588 1494.06 26.7057C1340.36 67.2331 1456.53 245.861 1314.06 256.375C1228.34 262.142 1167.34 167.925 1082.45 184.48C970.44 216.201 836.98 251.799 733.835 214.172C547.407 177.803 528.38 40.6825 291.458 55.8306C123.622 64.7339 124.681 189.975 17.1388 239.548" stroke="url(#paint17_linear)"/>
<path d="M3321.6 316.897C3298.67 305.837 3235.93 294.914 3211.8 306.476C3174.4 325.656 3218.43 366.767 3163.01 376.684C2972.59 333.143 2819.59 143.474 2537.84 131.711C2371.99 122.044 2447.12 281.595 2309.08 290.432C2013.13 313.963 1763.84 -37.2113 1489.9 32.8089C1336.07 73.7321 1451.63 253.435 1308.68 263.645C1222.23 269.244 1159.09 173.235 1073.49 190.787C958.581 224.458 820.659 257.918 715.085 218.61C532.6 182.57 514.838 49.1323 284.236 63.3174C120.747 71.4361 121.318 192.689 16.622 240.61" stroke="url(#paint18_linear)"/>
<path d="M3321.33 317.514C3297.13 305.941 3230.64 294.462 3205.12 306.885C3165.56 327.375 3212.31 371.18 3154.09 382.2C2958.7 343.257 2805.44 150.527 2522.83 139.11C2360.14 129.727 2434.18 287.04 2298.34 295.99C2004.61 320.128 1757.78 -31.1638 1485.74 38.9122C1331.77 80.231 1446.72 261.01 1303.29 270.914C1216.11 276.347 1150.84 178.544 1064.53 197.093C946.718 232.714 804.334 264.038 696.332 223.048C517.789 187.338 501.292 57.5822 277.01 70.8042C117.868 78.1383 117.952 195.402 16.1012 241.671" stroke="url(#paint19_linear)"/>
<path d="M3321.07 318.13C3295.59 306.045 3225.35 294.01 3198.45 307.294C3156.73 329.094 3206.2 375.593 3145.17 387.715C2944.81 353.37 2791.28 157.58 2507.82 146.509C2348.3 137.411 2421.23 292.485 2287.61 301.546C1996.1 326.293 1751.72 -25.1165 1481.58 45.0152C1327.48 86.7298 1441.82 268.583 1297.91 278.184C1209.99 283.449 1142.6 183.853 1055.57 203.4C934.856 240.97 788.01 270.156 677.58 227.486C502.979 192.105 487.747 66.0317 269.786 78.2908C114.99 84.8402 114.586 198.116 15.5821 242.733" stroke="url(#paint20_linear)"/>
<path d="M3320.82 318.747C3294.05 306.15 3220.06 293.558 3191.78 307.704C3147.89 330.813 3200.1 380.006 3136.25 393.23C2930.93 363.484 2777.14 164.634 2492.82 153.908C2336.45 145.094 2408.29 297.93 2276.87 307.103C1987.59 332.459 1745.66 -19.0689 1477.42 51.1185C1323.19 93.2288 1436.93 276.158 1292.53 285.454C1203.88 290.551 1134.35 189.163 1046.61 209.707C922.998 249.226 771.691 276.276 658.833 231.924C488.173 196.872 474.207 74.4816 262.566 85.7776C112.116 91.5424 111.225 200.829 15.0668 243.795" stroke="url(#paint21_linear)"/>
<path d="M3320.56 319.363C3292.51 306.254 3214.77 293.106 3185.11 308.113C3139.06 332.531 3193.99 384.42 3127.33 398.745C2917.04 373.598 2762.98 171.687 2477.81 161.308C2324.6 152.778 2395.35 303.376 2266.14 312.661C1979.07 338.624 1739.6 -13.0214 1473.26 57.2217C1318.89 99.7278 1432.02 283.732 1287.14 292.724C1197.76 297.653 1126.11 194.472 1037.65 216.014C911.135 257.482 755.366 282.395 640.079 236.362C473.362 201.639 460.661 82.9314 255.34 93.2644C109.237 98.2447 107.858 203.543 14.546 244.857" stroke="url(#paint22_linear)"/>
<path d="M3320.3 319.98C3290.97 306.358 3209.48 292.654 3178.44 308.522C3130.22 334.25 3187.87 388.833 3118.42 404.26C2903.15 383.712 2748.83 178.74 2462.8 168.707C2312.75 160.461 2382.4 308.821 2255.4 318.218C1970.56 344.789 1733.54 -6.97386 1469.1 63.325C1314.6 106.227 1427.12 291.306 1281.76 299.994C1191.64 304.756 1117.86 199.782 1028.68 222.321C899.273 265.738 739.043 288.514 621.328 240.8C458.553 206.406 447.117 91.3812 248.116 100.751C106.36 104.947 104.493 206.256 14.0272 245.919" stroke="url(#paint23_linear)"/>
<path d="M3320.04 320.596C3289.43 306.462 3204.2 292.202 3171.77 308.931C3121.39 335.969 3181.77 393.246 3109.5 409.775C2889.27 393.826 2734.68 185.793 2447.8 176.106C2300.91 168.145 2369.46 314.266 2244.67 323.774C1962.05 350.955 1727.49 -0.926549 1464.94 69.428C1310.31 112.726 1422.22 298.88 1276.38 307.263C1185.53 311.858 1109.62 205.091 1019.73 228.627C887.416 273.994 722.724 294.633 602.581 245.238C443.748 211.173 433.577 99.8308 240.897 108.238C103.487 111.649 101.133 208.969 13.5128 246.981" stroke="url(#paint24_linear)"/>
<path d="M3319.78 321.213C3287.88 306.567 3198.9 291.75 3165.09 309.341C3112.56 337.688 3175.66 397.66 3100.58 415.29C2875.38 403.94 2720.53 192.847 2432.79 183.505C2289.06 175.829 2356.52 319.711 2233.93 329.332C1953.53 357.12 1721.43 5.12112 1460.78 75.5314C1306.02 119.225 1417.32 306.454 1270.99 314.533C1179.41 318.96 1101.37 210.401 1010.76 234.934C875.553 282.251 706.399 300.752 583.828 249.676C428.936 215.941 420.031 108.281 233.671 115.725C100.607 118.351 97.7655 211.683 12.9917 248.043" stroke="url(#paint25_linear)"/>
<path d="M3319.52 321.83C3286.35 306.671 3193.62 291.297 3158.42 309.75C3103.72 339.407 3169.55 402.073 3091.66 420.806C2861.5 414.054 2706.38 199.9 2417.78 190.904C2277.21 183.512 2343.58 325.157 2223.19 334.889C1945.02 363.285 1715.37 11.1686 1456.62 81.6346C1301.73 125.724 1412.42 314.028 1265.61 321.803C1173.29 326.062 1093.12 215.71 1001.8 241.241C863.693 290.507 690.077 306.871 565.078 254.114C414.129 220.708 406.489 116.73 226.449 123.211C97.7314 125.053 94.4023 214.396 12.4746 249.105" stroke="url(#paint26_linear)"/>
<path d="M3319.26 322.446C3284.81 306.775 3188.33 290.845 3151.75 310.159C3094.89 341.125 3163.44 406.487 3082.75 426.321C2847.61 424.168 2692.23 206.953 2402.77 198.304C2265.37 191.196 2330.63 330.602 2212.46 340.446C1936.51 369.451 1709.31 17.2161 1452.46 87.7378C1297.43 132.223 1407.52 321.602 1260.22 329.073C1167.17 333.165 1084.88 221.02 992.841 247.548C851.834 298.763 673.756 312.991 546.329 258.552C399.322 225.475 392.947 125.18 219.227 130.698C94.8561 131.756 91.0395 217.11 11.9579 250.167" stroke="url(#paint27_linear)"/>
<path d="M3319 323.063C3283.26 306.879 3183.04 290.393 3145.08 310.569C3086.06 342.844 3157.33 410.9 3073.83 431.836C2833.73 434.282 2678.07 214.006 2387.77 205.703C2253.52 198.879 2317.69 336.047 2201.72 346.003C1928 375.616 1703.25 23.2636 1448.3 93.841C1293.14 138.722 1402.62 329.177 1254.84 336.343C1161.06 340.267 1076.63 226.329 983.879 253.855C839.972 307.019 657.433 319.11 527.577 262.99C384.512 230.242 379.402 133.63 212.003 138.185C91.9785 138.458 87.6743 219.823 11.4388 251.229" stroke="url(#paint28_linear)"/>
<path d="M3318.74 323.679C3281.72 306.983 3177.75 289.941 3138.41 310.978C3077.22 344.563 3151.22 415.313 3064.91 437.351C2819.84 444.396 2663.92 221.06 2372.76 213.102C2241.67 206.563 2304.75 341.492 2190.99 351.56C1919.49 381.781 1697.19 29.311 1444.14 99.9442C1288.85 145.22 1397.72 336.751 1249.45 343.612C1154.94 347.369 1068.39 231.638 974.917 260.162C828.111 315.275 641.11 325.229 508.826 267.428C369.703 235.01 365.858 142.08 204.779 145.672C89.1009 145.16 84.3091 222.536 10.9197 252.291" stroke="url(#paint29_linear)"/>
<path d="M3318.48 324.296C3280.18 307.087 3172.46 289.489 3131.74 311.387C3068.39 346.281 3145.11 419.726 3055.99 442.866C2805.95 454.51 2649.77 228.113 2357.75 220.501C2229.82 214.246 2291.8 346.938 2180.25 357.117C1910.97 387.947 1691.13 35.3583 1439.98 106.047C1284.55 151.719 1392.81 344.325 1244.07 350.882C1148.82 354.471 1060.14 236.948 965.953 266.468C816.248 323.531 624.785 331.348 490.073 271.866C354.892 239.777 352.313 150.529 197.554 153.158C86.2221 151.862 80.9428 225.25 10.3994 253.352" stroke="url(#paint30_linear)"/>
<path d="M3318.23 324.913C3278.64 307.192 3167.17 289.037 3125.07 311.796C3059.56 348.001 3139 424.14 3047.07 448.382C2792.07 464.624 2635.62 235.166 2342.74 227.901C2217.97 221.93 2278.86 352.383 2169.52 362.674C1902.46 394.112 1685.07 41.4062 1435.82 112.151C1280.26 158.218 1387.92 351.899 1238.69 358.152C1142.7 361.574 1051.89 242.257 956.994 272.776C804.39 331.788 608.465 337.467 471.325 276.304C340.086 244.544 338.772 158.979 190.334 160.645C83.3481 158.564 77.5812 227.963 9.88399 254.415" stroke="url(#paint31_linear)"/>
<path d="M3317.97 325.529C3277.1 307.296 3161.88 288.585 3118.4 312.206C3050.72 349.719 3132.89 428.553 3038.15 453.897C2778.18 474.738 2621.47 242.219 2327.73 235.3C2206.13 229.613 2265.92 357.828 2158.78 368.231C1893.95 400.278 1679.01 47.4536 1431.66 118.254C1275.97 164.717 1383.01 359.473 1233.3 365.422C1136.59 368.676 1043.65 247.567 948.032 279.082C792.528 340.044 592.142 343.587 452.573 280.742C325.276 249.311 325.228 167.429 183.11 168.132C80.4705 165.266 74.2161 230.677 9.3649 255.476" stroke="url(#paint32_linear)"/>
<path d="M3317.71 326.146C3275.56 307.4 3156.59 288.133 3111.73 312.615C3041.89 351.438 3126.78 432.967 3029.24 459.412C2764.3 484.852 2607.32 249.273 2312.73 242.699C2194.28 237.297 2252.97 363.274 2148.04 373.788C1885.44 406.443 1672.96 53.5011 1427.5 124.357C1271.68 171.216 1378.11 367.047 1227.92 372.692C1130.47 375.779 1035.4 252.876 939.072 285.389C780.669 348.3 575.821 349.706 433.824 285.18C310.469 254.078 311.685 175.879 175.888 175.619C77.5947 171.969 70.8527 233.39 8.84766 256.538" stroke="url(#paint33_linear)"/>
<path d="M3317.45 326.763C3274.02 307.504 3151.3 287.681 3105.05 313.024C3033.06 353.157 3120.67 437.38 3020.32 464.927C2750.41 494.966 2593.17 256.326 2297.72 250.098C2182.43 244.981 2240.03 368.719 2137.31 379.345C1876.92 412.608 1666.9 59.5487 1423.34 130.46C1267.39 177.715 1373.21 374.621 1222.54 379.962C1124.35 382.881 1027.16 258.186 930.11 291.696C768.808 356.556 559.498 355.825 415.073 289.618C295.66 258.846 298.142 184.329 168.664 183.106C74.7178 178.671 67.4883 236.104 8.32936 257.6" stroke="url(#paint34_linear)"/>
<path d="M3317.19 327.379C3272.48 307.609 3146.01 287.229 3098.38 313.434C3024.22 354.876 3114.56 441.794 3011.4 470.442C2736.52 505.08 2579.01 263.379 2282.71 257.498C2170.58 252.664 2227.09 374.164 2126.57 384.902C1868.41 418.774 1660.84 65.5962 1419.18 136.564C1263.09 184.214 1368.31 382.196 1217.15 387.231C1118.24 389.983 1018.91 263.495 921.148 298.003C756.946 364.812 543.175 361.944 396.321 294.056C280.85 263.613 284.597 192.779 161.44 190.592C71.8402 185.373 64.1232 238.817 7.81026 258.662" stroke="url(#paint35_linear)"/>
<path d="M3316.93 327.996C3270.94 307.713 3140.72 286.777 3091.71 313.843C3015.39 356.595 3108.45 446.207 3002.48 475.958C2722.64 515.194 2564.86 270.433 2267.7 264.897C2158.73 260.348 2214.14 379.61 2115.84 390.459C1859.9 424.939 1654.78 71.6437 1415.01 142.667C1258.8 190.713 1363.41 389.77 1211.77 394.501C1112.12 397.086 1010.66 268.805 912.186 304.31C745.085 373.069 526.852 368.063 377.57 298.494C266.041 268.38 271.054 201.229 154.217 198.079C68.9631 192.075 60.7585 241.531 7.2917 259.724" stroke="url(#paint36_linear)"/>
<path d="M3316.67 328.612C3269.4 307.817 3135.43 286.324 3085.04 314.252C3006.55 358.313 3102.34 450.62 2993.56 481.473C2708.75 525.308 2550.71 277.486 2252.69 272.296C2146.89 268.031 2201.2 385.055 2105.1 396.016C1851.38 431.104 1648.72 77.6912 1410.85 148.77C1254.51 197.212 1358.51 397.344 1206.38 401.771C1106 404.188 1002.42 274.114 903.223 310.617C733.223 381.325 510.529 374.182 358.819 302.932C251.232 273.147 257.509 209.678 146.993 205.566C66.0855 198.777 57.3933 244.244 6.77261 260.786" stroke="url(#paint37_linear)"/>
<path d="M3316.41 329.229C3267.86 307.921 3130.14 285.872 3078.37 314.662C2997.72 360.032 3096.23 455.034 2984.64 486.988C2694.87 535.422 2536.56 284.539 2237.69 279.695C2135.04 275.715 2188.26 390.5 2094.37 401.573C1842.87 437.27 1642.66 83.7388 1406.7 154.874C1250.22 203.711 1353.61 404.918 1201 409.041C1099.89 411.29 994.175 279.424 894.265 316.924C721.366 389.581 494.209 380.302 340.071 307.37C236.426 277.915 243.969 218.128 139.773 213.053C63.2117 205.48 54.0319 246.958 6.25732 261.848" stroke="url(#paint38_linear)"/>
<path d="M3316.15 329.846C3266.32 308.026 3124.85 285.42 3071.69 315.071C2988.89 361.751 3090.12 459.447 2975.72 492.503C2680.98 545.536 2522.41 291.592 2222.68 287.095C2123.19 283.398 2175.31 395.946 2083.63 407.13C1834.36 443.435 1636.6 89.7863 1402.53 160.977C1245.92 210.21 1348.71 412.492 1195.61 416.311C1093.77 418.393 985.926 284.733 885.301 323.231C709.502 397.837 477.884 386.421 321.317 311.808C221.614 282.682 230.423 226.578 132.547 220.54C60.3321 212.182 50.6648 249.671 5.73627 262.91" stroke="url(#paint39_linear)"/>
<path d="M3315.89 330.463C3264.77 308.13 3119.56 284.968 3065.02 315.48C2980.05 363.47 3084.01 463.861 2966.8 498.018C2667.09 555.65 2508.25 298.646 2207.67 294.494C2111.34 291.082 2162.37 401.391 2072.89 412.688C1825.85 449.601 1630.54 95.8341 1398.37 167.08C1241.63 216.71 1343.81 420.067 1190.23 423.581C1087.65 425.495 977.679 290.043 876.339 329.538C697.641 406.094 461.561 392.54 302.566 316.246C206.805 287.449 216.878 235.028 125.323 228.027C57.4547 218.884 47.2999 252.385 5.21744 263.972" stroke="url(#paint40_linear)"/>
<path d="M3315.63 331.079C3263.23 308.234 3114.27 284.516 3058.35 315.889C2971.22 365.189 3077.9 468.274 2957.88 503.534C2653.2 565.764 2494.1 305.699 2192.66 301.893C2099.49 298.766 2149.42 406.836 2062.15 418.245C1817.33 455.766 1624.48 101.881 1394.21 173.183C1237.34 223.208 1338.9 427.641 1184.84 430.851C1081.53 432.597 969.431 295.352 867.375 335.844C685.778 414.35 445.236 398.659 283.813 320.684C191.994 292.216 203.333 243.478 118.098 235.513C54.5759 225.586 43.9335 255.098 4.69719 265.034" stroke="url(#paint41_linear)"/>
<path d="M3315.38 331.696C3261.69 308.338 3108.98 284.064 3051.68 316.299C2962.38 366.907 3071.79 472.687 2948.97 509.049C2639.32 575.878 2479.95 312.752 2177.66 309.292C2087.65 306.449 2136.48 412.281 2051.42 423.802C1808.82 461.931 1618.42 107.929 1390.05 179.286C1233.05 229.707 1334 435.215 1179.46 438.12C1075.41 439.7 961.188 300.662 858.417 342.151C673.92 422.606 428.917 404.778 265.066 325.122C177.189 296.984 189.793 251.927 110.878 243C51.7022 232.289 40.5722 257.812 4.182 266.096" stroke="url(#paint42_linear)"/>
<path d="M3315.12 332.312C3260.15 308.443 3103.69 283.612 3045.01 316.708C2953.55 368.626 3065.68 477.101 2940.05 514.564C2625.43 585.992 2465.8 319.806 2162.65 316.692C2075.8 314.133 2123.54 417.727 2040.68 429.359C1800.31 468.097 1612.36 113.977 1385.89 185.39C1228.75 236.206 1329.1 442.789 1174.08 445.39C1069.3 446.802 952.942 305.971 849.455 348.458C662.059 430.862 412.594 410.898 246.315 329.561C162.38 301.751 176.249 260.377 103.655 250.487C48.8254 238.991 37.2078 260.525 3.6637 267.158" stroke="url(#paint43_linear)"/>
<path d="M3314.86 332.929C3258.62 308.547 3098.41 283.16 3038.34 317.117C2944.72 370.345 3059.57 481.514 2931.14 520.079C2611.55 596.106 2451.65 326.859 2147.64 324.091C2063.96 321.817 2110.6 423.172 2029.95 434.916C1791.8 474.262 1606.31 120.024 1381.73 191.493C1224.46 242.706 1324.2 450.363 1168.7 452.66C1063.18 453.904 944.699 311.281 840.496 354.765C650.201 439.118 396.274 417.017 227.567 333.999C147.574 306.518 162.708 268.827 96.4338 257.974C45.951 245.693 33.8459 263.239 3.14788 268.22" stroke="url(#paint44_linear)"/>
<path d="M3314.6 333.546C3257.07 308.651 3093.12 282.708 3031.67 317.527C2935.88 372.064 3053.46 485.928 2922.21 525.594C2597.66 606.22 2437.5 333.912 2132.63 331.49C2052.1 329.5 2097.65 428.617 2019.21 440.473C1783.28 480.428 1600.24 126.072 1377.57 197.596C1220.17 249.204 1319.3 457.937 1163.31 459.93C1057.06 461.007 936.451 316.59 831.532 361.072C638.338 447.374 379.949 423.136 208.814 338.437C132.763 311.285 149.162 277.277 89.2081 265.461C43.0717 252.395 30.4791 265.952 2.6271 269.282" stroke="url(#paint45_linear)"/>
<path d="M3314.34 334.162C3255.53 308.755 3087.82 282.256 3024.99 317.936C2927.05 373.783 3047.35 490.341 2913.29 531.11C2583.77 616.334 2423.34 340.965 2117.62 338.89C2040.25 337.184 2084.71 434.063 2008.47 446.03C1774.77 486.593 1594.18 132.119 1373.41 203.7C1215.87 255.703 1314.4 465.511 1157.92 467.2C1050.94 468.109 928.202 321.9 822.568 367.379C626.474 455.631 363.624 429.255 190.06 342.875C117.951 316.053 135.616 285.727 81.9824 272.947C40.1924 259.097 27.1122 268.665 2.10632 270.344" stroke="url(#paint46_linear)"/>
<path d="M3314.08 334.779C3253.99 308.86 3082.54 281.804 3018.32 318.345C2918.22 375.502 3041.24 494.755 2904.38 536.625C2569.89 626.448 2409.19 348.019 2102.61 346.289C2028.41 344.867 2071.77 439.508 1997.74 451.587C1766.26 492.759 1588.13 138.167 1369.25 209.803C1211.58 262.203 1309.5 473.086 1152.54 474.47C1044.83 475.212 919.958 327.209 813.608 373.686C614.615 463.887 347.303 435.375 171.31 347.313C103.144 320.82 122.074 294.177 74.7606 280.434C37.317 265.8 23.7492 271.379 1.58944 271.406" stroke="url(#paint47_linear)"/>
<path d="M3313.82 335.396C3252.45 308.964 3077.25 281.352 3011.65 318.755C2909.38 377.221 3035.13 499.168 2895.46 542.14C2556 636.562 2395.05 355.072 2087.61 353.688C2016.56 352.551 2058.83 444.954 1987.01 457.144C1757.75 498.924 1582.07 144.215 1365.09 215.906C1207.29 268.702 1304.6 480.66 1147.16 481.74C1038.71 482.314 911.715 332.519 804.65 379.993C602.757 472.143 330.984 441.494 152.563 351.751C88.3382 325.588 108.534 302.627 67.5408 287.921C34.4435 272.502 20.3882 274.093 1.07452 272.468" stroke="url(#paint48_linear)"/>
<path d="M3313.56 336.012C3250.91 309.068 3071.96 280.9 3004.98 319.164C2900.55 378.939 3029.02 503.581 2886.54 547.655C2542.12 646.676 2380.89 362.126 2072.6 361.088C2004.72 360.235 2045.88 450.399 1976.27 462.701C1749.23 505.089 1576.01 150.262 1360.93 222.01C1203 275.201 1299.7 488.234 1141.77 489.01C1032.6 489.416 903.468 337.828 795.687 386.3C590.895 480.399 314.66 447.613 133.811 356.189C73.5286 330.355 94.9895 311.076 60.3168 295.408C31.5659 279.204 17.023 276.806 0.555425 273.53" stroke="url(#paint49_linear)"/>
<path d="M3313.3 336.629C3249.37 309.173 3066.67 280.448 2998.31 319.573C2891.72 380.658 3022.91 507.995 2877.63 553.171C2528.23 656.79 2366.74 369.179 2057.6 368.487C1992.87 367.918 2032.94 455.844 1965.54 468.258C1740.72 511.255 1569.95 156.31 1356.77 228.113C1198.71 281.7 1294.8 495.808 1136.39 496.28C1026.48 496.519 895.224 343.138 786.728 392.607C579.036 488.656 298.339 453.732 115.063 360.627C58.7217 335.122 81.4475 319.526 53.0951 302.895C28.6906 285.907 13.6602 279.52 0.0387101 274.592" stroke="url(#paint50_linear)"/>
<path d="M3313.04 337.246C3247.83 309.277 3061.38 279.996 2991.64 319.983C2882.88 382.377 3016.8 512.408 2868.71 558.686C2514.35 666.905 2352.59 376.232 2042.59 375.886C1981.02 375.602 2020 461.29 1954.8 473.816C1732.21 517.42 1563.89 162.357 1352.61 234.216C1194.42 288.199 1289.9 503.383 1131.01 503.55C1020.36 503.621 886.977 348.448 777.765 398.914C567.175 496.912 282.016 459.852 96.3107 365.065C43.9119 339.889 67.903 327.976 45.8709 310.382C25.8127 292.609 10.2948 282.233 -0.480646 275.654" stroke="url(#paint51_linear)"/>
</g>
</g>
<defs>
<pattern id="pattern0" patternContentUnits="objectBoundingBox" width="1" height="1">
<use xlink:href="#image0" transform="translate(0 -0.0165666) scale(0.000244141 0.00079391)"/>
</pattern>
<linearGradient id="paint0_linear" x1="1675.72" y1="-80" x2="1675.72" y2="306.416" gradientUnits="userSpaceOnUse">
<stop stop-color="#FFCD6B" stop-opacity="0.21"/>
<stop offset="1" stop-color="#FFCD6B" stop-opacity="0.05"/>
</linearGradient>
<linearGradient id="paint1_linear" x1="1655.89" y1="230.672" x2="1655.89" y2="590" gradientUnits="userSpaceOnUse">
<stop stop-color="#FFCD6B" stop-opacity="0.21"/>
<stop offset="1" stop-color="#FFCD6B" stop-opacity="0.05"/>
</linearGradient>
<linearGradient id="paint2_linear" x1="1675.33" y1="-73.9083" x2="1675.33" y2="307.032" gradientUnits="userSpaceOnUse">
<stop stop-color="#FFCD6B" stop-opacity="0.21"/>
<stop offset="1" stop-color="#FFCD6B" stop-opacity="0.05"/>
</linearGradient>
<linearGradient id="paint3_linear" x1="1674.94" y1="-67.8168" x2="1674.94" y2="307.649" gradientUnits="userSpaceOnUse">
<stop stop-color="#FFCD6B" stop-opacity="0.21"/>
<stop offset="1" stop-color="#FFCD6B" stop-opacity="0.05"/>
</linearGradient>
<linearGradient id="paint4_linear" x1="1674.55" y1="-61.7251" x2="1674.55" y2="308.265" gradientUnits="userSpaceOnUse">
<stop stop-color="#FFCD6B" stop-opacity="0.21"/>
<stop offset="1" stop-color="#FFCD6B" stop-opacity="0.05"/>
</linearGradient>
<linearGradient id="paint5_linear" x1="1674.16" y1="-55.6335" x2="1674.16" y2="308.882" gradientUnits="userSpaceOnUse">
<stop stop-color="#FFCD6B" stop-opacity="0.21"/>
<stop offset="1" stop-color="#FFCD6B" stop-opacity="0.05"/>
</linearGradient>
<linearGradient id="paint6_linear" x1="1673.77" y1="-49.5419" x2="1673.77" y2="311.234" gradientUnits="userSpaceOnUse">
<stop stop-color="#FFCD6B" stop-opacity="0.21"/>
<stop offset="1" stop-color="#FFCD6B" stop-opacity="0.05"/>
</linearGradient>
<linearGradient id="paint7_linear" x1="1673.38" y1="-43.4503" x2="1673.38" y2="316.296" gradientUnits="userSpaceOnUse">
<stop stop-color="#FFCD6B" stop-opacity="0.21"/>
<stop offset="1" stop-color="#FFCD6B" stop-opacity="0.05"/>
</linearGradient>
<linearGradient id="paint8_linear" x1="1673" y1="-37.3586" x2="1673" y2="321.594" gradientUnits="userSpaceOnUse">
<stop stop-color="#FFCD6B" stop-opacity="0.21"/>
<stop offset="1" stop-color="#FFCD6B" stop-opacity="0.05"/>
</linearGradient>
<linearGradient id="paint9_linear" x1="1672.61" y1="-31.2671" x2="1672.61" y2="327.049" gradientUnits="userSpaceOnUse">
<stop stop-color="#FFCD6B" stop-opacity="0.21"/>
<stop offset="1" stop-color="#FFCD6B" stop-opacity="0.05"/>
</linearGradient>
<linearGradient id="paint10_linear" x1="1672.22" y1="-25.1754" x2="1672.22" y2="332.564" gradientUnits="userSpaceOnUse">
<stop stop-color="#FFCD6B" stop-opacity="0.21"/>
<stop offset="1" stop-color="#FFCD6B" stop-opacity="0.05"/>
</linearGradient>
<linearGradient id="paint11_linear" x1="1671.83" y1="-19.0839" x2="1671.83" y2="338.079" gradientUnits="userSpaceOnUse">
<stop stop-color="#FFCD6B" stop-opacity="0.21"/>
<stop offset="1" stop-color="#FFCD6B" stop-opacity="0.05"/>
</linearGradient>
<linearGradient id="paint12_linear" x1="1671.44" y1="-12.9922" x2="1671.44" y2="343.594" gradientUnits="userSpaceOnUse">
<stop stop-color="#FFCD6B" stop-opacity="0.21"/>
<stop offset="1" stop-color="#FFCD6B" stop-opacity="0.05"/>
</linearGradient>
<linearGradient id="paint13_linear" x1="1671.05" y1="-6.90076" x2="1671.05" y2="349.109" gradientUnits="userSpaceOnUse">
<stop stop-color="#FFCD6B" stop-opacity="0.21"/>
<stop offset="1" stop-color="#FFCD6B" stop-opacity="0.05"/>
</linearGradient>
<linearGradient id="paint14_linear" x1="1670.66" y1="-0.809082" x2="1670.66" y2="354.624" gradientUnits="userSpaceOnUse">
<stop stop-color="#FFCD6B" stop-opacity="0.21"/>
<stop offset="1" stop-color="#FFCD6B" stop-opacity="0.05"/>
</linearGradient>
<linearGradient id="paint15_linear" x1="1670.27" y1="5.28247" x2="1670.27" y2="360.139" gradientUnits="userSpaceOnUse">
<stop stop-color="#FFCD6B" stop-opacity="0.21"/>
<stop offset="1" stop-color="#FFCD6B" stop-opacity="0.05"/>
</linearGradient>
<linearGradient id="paint16_linear" x1="1669.88" y1="11.3743" x2="1669.88" y2="365.654" gradientUnits="userSpaceOnUse">
<stop stop-color="#FFCD6B" stop-opacity="0.21"/>
<stop offset="1" stop-color="#FFCD6B" stop-opacity="0.05"/>
</linearGradient>
<linearGradient id="paint17_linear" x1="1669.5" y1="17.4657" x2="1669.5" y2="371.169" gradientUnits="userSpaceOnUse">
<stop stop-color="#FFCD6B" stop-opacity="0.21"/>
<stop offset="1" stop-color="#FFCD6B" stop-opacity="0.05"/>
</linearGradient>
<linearGradient id="paint18_linear" x1="1669.11" y1="23.5574" x2="1669.11" y2="376.684" gradientUnits="userSpaceOnUse">
<stop stop-color="#FFCD6B" stop-opacity="0.21"/>
<stop offset="1" stop-color="#FFCD6B" stop-opacity="0.05"/>
</linearGradient>
<linearGradient id="paint19_linear" x1="1668.72" y1="29.649" x2="1668.72" y2="382.2" gradientUnits="userSpaceOnUse">
<stop stop-color="#FFCD6B" stop-opacity="0.21"/>
<stop offset="1" stop-color="#FFCD6B" stop-opacity="0.05"/>
</linearGradient>
<linearGradient id="paint20_linear" x1="1668.33" y1="35.7405" x2="1668.33" y2="387.715" gradientUnits="userSpaceOnUse">
<stop stop-color="#FFCD6B" stop-opacity="0.21"/>
<stop offset="1" stop-color="#FFCD6B" stop-opacity="0.05"/>
</linearGradient>
<linearGradient id="paint21_linear" x1="1667.94" y1="41.8322" x2="1667.94" y2="393.23" gradientUnits="userSpaceOnUse">
<stop stop-color="#FFCD6B" stop-opacity="0.21"/>
<stop offset="1" stop-color="#FFCD6B" stop-opacity="0.05"/>
</linearGradient>
<linearGradient id="paint22_linear" x1="1667.55" y1="47.9238" x2="1667.55" y2="398.745" gradientUnits="userSpaceOnUse">
<stop stop-color="#FFCD6B" stop-opacity="0.21"/>
<stop offset="1" stop-color="#FFCD6B" stop-opacity="0.05"/>
</linearGradient>
<linearGradient id="paint23_linear" x1="1667.16" y1="54.0155" x2="1667.16" y2="404.26" gradientUnits="userSpaceOnUse">
<stop stop-color="#FFCD6B" stop-opacity="0.21"/>
<stop offset="1" stop-color="#FFCD6B" stop-opacity="0.05"/>
</linearGradient>
<linearGradient id="paint24_linear" x1="1666.78" y1="60.1069" x2="1666.78" y2="409.775" gradientUnits="userSpaceOnUse">
<stop stop-color="#FFCD6B" stop-opacity="0.21"/>
<stop offset="1" stop-color="#FFCD6B" stop-opacity="0.05"/>
</linearGradient>
<linearGradient id="paint25_linear" x1="1666.39" y1="66.1987" x2="1666.39" y2="415.29" gradientUnits="userSpaceOnUse">
<stop stop-color="#FFCD6B" stop-opacity="0.21"/>
<stop offset="1" stop-color="#FFCD6B" stop-opacity="0.05"/>
</linearGradient>
<linearGradient id="paint26_linear" x1="1666" y1="72.2903" x2="1666" y2="420.806" gradientUnits="userSpaceOnUse">
<stop stop-color="#FFCD6B" stop-opacity="0.21"/>
<stop offset="1" stop-color="#FFCD6B" stop-opacity="0.05"/>
</linearGradient>
<linearGradient id="paint27_linear" x1="1665.61" y1="78.382" x2="1665.61" y2="426.321" gradientUnits="userSpaceOnUse">
<stop stop-color="#FFCD6B" stop-opacity="0.21"/>
<stop offset="1" stop-color="#FFCD6B" stop-opacity="0.05"/>
</linearGradient>
<linearGradient id="paint28_linear" x1="1665.22" y1="84.4735" x2="1665.22" y2="431.856" gradientUnits="userSpaceOnUse">
<stop stop-color="#FFCD6B" stop-opacity="0.21"/>
<stop offset="1" stop-color="#FFCD6B" stop-opacity="0.05"/>
</linearGradient>
<linearGradient id="paint29_linear" x1="1664.83" y1="90.5651" x2="1664.83" y2="437.514" gradientUnits="userSpaceOnUse">
<stop stop-color="#FFCD6B" stop-opacity="0.21"/>
<stop offset="1" stop-color="#FFCD6B" stop-opacity="0.05"/>
</linearGradient>
<linearGradient id="paint30_linear" x1="1664.44" y1="96.6565" x2="1664.44" y2="443.3" gradientUnits="userSpaceOnUse">
<stop stop-color="#FFCD6B" stop-opacity="0.21"/>
<stop offset="1" stop-color="#FFCD6B" stop-opacity="0.05"/>
</linearGradient>
<linearGradient id="paint31_linear" x1="1664.06" y1="102.748" x2="1664.06" y2="449.205" gradientUnits="userSpaceOnUse">
<stop stop-color="#FFCD6B" stop-opacity="0.21"/>
<stop offset="1" stop-color="#FFCD6B" stop-opacity="0.05"/>
</linearGradient>
<linearGradient id="paint32_linear" x1="1663.67" y1="108.84" x2="1663.67" y2="455.218" gradientUnits="userSpaceOnUse">
<stop stop-color="#FFCD6B" stop-opacity="0.21"/>
<stop offset="1" stop-color="#FFCD6B" stop-opacity="0.05"/>
</linearGradient>
<linearGradient id="paint33_linear" x1="1663.28" y1="114.932" x2="1663.28" y2="461.332" gradientUnits="userSpaceOnUse">
<stop stop-color="#FFCD6B" stop-opacity="0.21"/>
<stop offset="1" stop-color="#FFCD6B" stop-opacity="0.05"/>
</linearGradient>
<linearGradient id="paint34_linear" x1="1662.89" y1="121.023" x2="1662.89" y2="467.541" gradientUnits="userSpaceOnUse">
<stop stop-color="#FFCD6B" stop-opacity="0.21"/>
<stop offset="1" stop-color="#FFCD6B" stop-opacity="0.05"/>
</linearGradient>
<linearGradient id="paint35_linear" x1="1662.5" y1="127.115" x2="1662.5" y2="473.837" gradientUnits="userSpaceOnUse">
<stop stop-color="#FFCD6B" stop-opacity="0.21"/>
<stop offset="1" stop-color="#FFCD6B" stop-opacity="0.05"/>
</linearGradient>
<linearGradient id="paint36_linear" x1="1662.11" y1="133.206" x2="1662.11" y2="480.215" gradientUnits="userSpaceOnUse">
<stop stop-color="#FFCD6B" stop-opacity="0.21"/>
<stop offset="1" stop-color="#FFCD6B" stop-opacity="0.05"/>
</linearGradient>
<linearGradient id="paint37_linear" x1="1661.72" y1="139.298" x2="1661.72" y2="486.668" gradientUnits="userSpaceOnUse">
<stop stop-color="#FFCD6B" stop-opacity="0.21"/>
<stop offset="1" stop-color="#FFCD6B" stop-opacity="0.05"/>
</linearGradient>
<linearGradient id="paint38_linear" x1="1661.34" y1="145.39" x2="1661.34" y2="493.192" gradientUnits="userSpaceOnUse">
<stop stop-color="#FFCD6B" stop-opacity="0.21"/>
<stop offset="1" stop-color="#FFCD6B" stop-opacity="0.05"/>
</linearGradient>
<linearGradient id="paint39_linear" x1="1660.94" y1="151.481" x2="1660.94" y2="499.783" gradientUnits="userSpaceOnUse">
<stop stop-color="#FFCD6B" stop-opacity="0.21"/>
<stop offset="1" stop-color="#FFCD6B" stop-opacity="0.05"/>
</linearGradient>
<linearGradient id="paint40_linear" x1="1660.56" y1="157.573" x2="1660.56" y2="506.437" gradientUnits="userSpaceOnUse">
<stop stop-color="#FFCD6B" stop-opacity="0.21"/>
<stop offset="1" stop-color="#FFCD6B" stop-opacity="0.05"/>
</linearGradient>
<linearGradient id="paint41_linear" x1="1660.16" y1="163.664" x2="1660.16" y2="513.148" gradientUnits="userSpaceOnUse">
<stop stop-color="#FFCD6B" stop-opacity="0.21"/>
<stop offset="1" stop-color="#FFCD6B" stop-opacity="0.05"/>
</linearGradient>
<linearGradient id="paint42_linear" x1="1659.78" y1="169.756" x2="1659.78" y2="519.915" gradientUnits="userSpaceOnUse">
<stop stop-color="#FFCD6B" stop-opacity="0.21"/>
<stop offset="1" stop-color="#FFCD6B" stop-opacity="0.05"/>
</linearGradient>
<linearGradient id="paint43_linear" x1="1659.39" y1="175.848" x2="1659.39" y2="526.734" gradientUnits="userSpaceOnUse">
<stop stop-color="#FFCD6B" stop-opacity="0.21"/>
<stop offset="1" stop-color="#FFCD6B" stop-opacity="0.05"/>
</linearGradient>
<linearGradient id="paint44_linear" x1="1659" y1="181.939" x2="1659" y2="533.601" gradientUnits="userSpaceOnUse">
<stop stop-color="#FFCD6B" stop-opacity="0.21"/>
<stop offset="1" stop-color="#FFCD6B" stop-opacity="0.05"/>
</linearGradient>
<linearGradient id="paint45_linear" x1="1658.61" y1="188.031" x2="1658.61" y2="540.514" gradientUnits="userSpaceOnUse">
<stop stop-color="#FFCD6B" stop-opacity="0.21"/>
<stop offset="1" stop-color="#FFCD6B" stop-opacity="0.05"/>
</linearGradient>
<linearGradient id="paint46_linear" x1="1658.22" y1="194.122" x2="1658.22" y2="547.471" gradientUnits="userSpaceOnUse">
<stop stop-color="#FFCD6B" stop-opacity="0.21"/>
<stop offset="1" stop-color="#FFCD6B" stop-opacity="0.05"/>
</linearGradient>
<linearGradient id="paint47_linear" x1="1657.83" y1="200.214" x2="1657.83" y2="554.468" gradientUnits="userSpaceOnUse">
<stop stop-color="#FFCD6B" stop-opacity="0.21"/>
<stop offset="1" stop-color="#FFCD6B" stop-opacity="0.05"/>
</linearGradient>
<linearGradient id="paint48_linear" x1="1657.45" y1="206.306" x2="1657.45" y2="561.505" gradientUnits="userSpaceOnUse">
<stop stop-color="#FFCD6B" stop-opacity="0.21"/>
<stop offset="1" stop-color="#FFCD6B" stop-opacity="0.05"/>
</linearGradient>
<linearGradient id="paint49_linear" x1="1657.06" y1="212.397" x2="1657.06" y2="568.578" gradientUnits="userSpaceOnUse">
<stop stop-color="#FFCD6B" stop-opacity="0.21"/>
<stop offset="1" stop-color="#FFCD6B" stop-opacity="0.05"/>
</linearGradient>
<linearGradient id="paint50_linear" x1="1656.67" y1="218.489" x2="1656.67" y2="575.686" gradientUnits="userSpaceOnUse">
<stop stop-color="#FFCD6B" stop-opacity="0.21"/>
<stop offset="1" stop-color="#FFCD6B" stop-opacity="0.05"/>
</linearGradient>
<linearGradient id="paint51_linear" x1="1656.28" y1="224.581" x2="1656.28" y2="582.827" gradientUnits="userSpaceOnUse">
<stop stop-color="#FFCD6B" stop-opacity="0.21"/>
<stop offset="1" stop-color="#FFCD6B" stop-opacity="0.05"/>
</linearGradient>
</defs>
</svg>
