<svg width="1920" height="856" viewBox="0 0 1920 856" fill="none" xmlns="http://www.w3.org/2000/svg">
<mask id="mask0" mask-type="alpha" maskUnits="userSpaceOnUse" x="-2" y="0" width="1922" height="856">
<path d="M-2 0H1548.69H1920V856H-2V0Z" fill="#4C4A58"/>
</mask>
<g mask="url(#mask0)">
<path opacity="0.2" d="M1181.17 877.64C1144.71 968.23 952.571 997.616 952.571 871.041C952.571 834.206 1087.63 596.957 1054 521.334C1020.36 445.711 936.157 656.029 923.91 562.274C911.663 468.519 983.819 389.369 910.706 319.073C837.592 248.776 713.196 457.388 624.77 385.055C592.423 358.595 582.733 275.051 534.082 270.09C456.842 262.213 406.44 379.196 327.346 390.892C279.926 397.904 272.529 305.434 231.752 319.073C151.241 346 70.0035 421.666 -1.99979 482.506" stroke="url(#paint0_linear)" stroke-linecap="round" stroke-linejoin="round"/>
<path opacity="0.2" d="M1308 690.618C1271.53 781.209 1079.4 810.595 1079.4 684.02C1079.4 647.185 1214.46 409.936 1180.82 334.313C1147.19 258.69 1032.61 428.068 1020.36 334.313C1008.12 240.558 1034.97 184.97 961.856 114.673C888.742 44.3761 861.795 312.894 773.369 240.561C741.022 214.101 661.561 137.013 612.91 132.051C535.671 124.175 535.748 228.865 456.655 240.561C409.235 247.573 381.818 144.551 341.04 158.19C260.53 185.118 70.0526 421.653 -1.95071 482.493" stroke="url(#paint1_linear)" stroke-linecap="round" stroke-linejoin="round"/>
<path opacity="0.2" d="M1187.21 868.734C1150.75 959.324 958.61 988.71 958.61 862.136C958.61 825.3 1093.67 588.051 1060.04 512.428C1026.4 436.806 940.749 645.174 928.503 551.419C916.256 457.664 986.255 379.636 913.141 309.339C840.027 239.043 720.272 450.507 631.846 378.174C599.498 351.714 586.486 268.478 537.835 263.517C460.596 255.64 412.597 372.038 333.503 383.733C286.083 390.745 277.733 297.773 236.955 311.411C156.445 338.339 70.0054 421.665 -1.99783 482.505" stroke="url(#paint2_linear)"/>
<path opacity="0.2" d="M1193.25 859.828C1156.79 950.419 964.649 979.805 964.649 853.23C964.649 816.395 1099.71 579.146 1066.08 503.523C1032.44 427.9 945.342 634.318 933.095 540.564C920.849 446.809 988.69 369.903 915.576 299.606C842.463 229.309 727.348 443.626 638.922 371.294C606.574 344.834 590.24 261.905 541.588 256.943C464.349 249.067 418.754 364.879 339.66 376.575C292.24 383.587 282.937 290.112 242.159 303.75C161.649 330.678 70.0074 421.664 -1.99587 482.505" stroke="url(#paint3_linear)"/>
<path opacity="0.2" d="M1199.29 850.922C1162.83 941.513 970.689 970.899 970.689 844.324C970.689 807.489 1105.75 570.24 1072.12 494.617C1038.48 418.994 949.936 623.463 937.689 529.708C925.442 435.953 991.127 360.169 918.013 289.873C844.899 219.576 734.425 436.746 645.998 364.413C613.651 337.953 593.994 255.332 545.343 250.37C468.104 242.493 424.912 357.721 345.819 369.416C298.399 376.428 288.142 282.451 247.364 296.089C166.854 323.017 70.0106 421.664 -1.99263 482.504" stroke="url(#paint4_linear)"/>
<path opacity="0.2" d="M1205.33 842.017C1168.86 932.608 976.728 961.994 976.728 835.419C976.728 798.584 1111.79 561.334 1078.16 485.712C1044.52 410.089 954.529 612.608 942.282 518.853C930.035 425.099 993.562 350.437 920.448 280.14C847.335 209.843 741.501 429.866 653.074 357.533C620.727 331.073 597.748 248.759 549.096 243.797C471.857 235.921 431.07 350.562 351.976 362.258C304.556 369.27 293.346 274.79 252.568 288.429C172.058 315.357 70.0125 421.664 -1.99077 482.504" stroke="url(#paint5_linear)"/>
<path opacity="0.2" d="M1211.37 833.111C1174.9 923.702 982.767 953.088 982.767 826.513C982.767 789.678 1117.83 552.429 1084.19 476.806C1050.56 401.183 959.122 601.753 946.875 507.998C934.628 414.243 995.998 340.703 922.884 270.407C849.77 200.11 748.577 422.985 660.15 350.652C627.803 324.192 601.501 242.186 552.85 237.224C475.611 229.347 437.227 343.404 358.133 355.099C310.713 362.111 298.55 267.129 257.772 280.768C177.262 307.696 70.0148 421.663 -1.9885 482.504" stroke="url(#paint6_linear)"/>
<path opacity="0.2" d="M1217.41 824.204C1180.94 914.795 988.806 944.181 988.806 817.606C988.806 780.771 1123.87 543.522 1090.23 467.899C1056.6 392.276 963.714 590.897 951.468 497.142C939.221 403.387 998.433 330.969 925.319 260.672C852.206 190.375 755.652 416.103 667.226 343.77C634.879 317.31 605.254 235.611 556.603 230.65C479.364 222.773 443.384 336.244 364.291 347.94C316.871 354.952 303.754 259.467 262.976 273.106C182.466 300.034 70.0167 421.662 -1.98654 482.502" stroke="url(#paint7_linear)"/>
<path opacity="0.2" d="M1223.45 815.299C1186.98 905.89 994.846 935.276 994.846 808.701C994.846 771.866 1129.91 534.617 1096.27 458.994C1062.64 383.371 968.308 580.042 956.061 486.287C943.815 392.532 1000.87 321.236 927.756 250.939C854.642 180.643 762.729 409.223 674.303 336.89C641.956 310.43 609.009 229.039 560.358 224.077C483.118 216.2 449.542 329.086 370.449 340.782C323.029 347.794 308.959 251.806 268.181 265.445C187.671 292.373 70.0198 421.661 -1.98351 482.502" stroke="url(#paint8_linear)"/>
<path opacity="0.2" d="M1229.49 806.393C1193.02 896.984 1000.89 926.37 1000.89 799.795C1000.89 762.96 1135.95 525.711 1102.31 450.088C1068.68 374.465 972.901 569.187 960.654 475.432C948.407 381.677 1003.31 311.503 930.191 241.206C857.077 170.909 769.805 402.342 681.379 330.01C649.031 303.55 612.762 222.465 564.111 217.504C486.872 209.627 455.7 321.927 376.606 333.623C329.186 340.635 314.163 244.145 273.385 257.784C192.875 284.712 70.0218 421.661 -1.98144 482.501" stroke="url(#paint9_linear)"/>
<path opacity="0.2" d="M1235.53 797.487C1199.06 888.078 1006.93 917.464 1006.93 790.889C1006.93 754.054 1141.99 516.805 1108.35 441.182C1074.72 365.559 977.495 558.331 965.248 464.576C953.001 370.821 1005.74 301.769 932.628 231.472C859.514 161.176 776.882 395.461 688.456 323.128C656.108 296.668 616.517 215.892 567.866 210.93C490.626 203.053 461.858 314.768 382.764 326.464C335.344 333.476 319.368 236.484 278.59 250.122C198.08 277.05 70.025 421.66 -1.9783 482.5" stroke="url(#paint10_linear)"/>
<path opacity="0.2" d="M1241.57 788.582C1205.1 879.173 1012.96 908.559 1012.96 781.984C1012.96 745.149 1148.02 507.899 1114.39 432.277C1080.76 356.654 982.088 547.476 969.841 453.721C957.594 359.966 1008.18 292.036 935.063 221.739C861.949 151.443 783.958 388.581 695.531 316.248C663.184 289.788 620.27 209.319 571.619 204.357C494.38 196.481 468.015 307.61 388.922 319.306C341.502 326.318 324.571 228.823 283.794 242.462C203.283 269.39 70.0268 421.66 -1.97645 482.5" stroke="url(#paint11_linear)"/>
<path opacity="0.2" d="M1247.61 779.676C1211.14 870.267 1019 899.653 1019 773.078C1019 736.243 1154.06 498.994 1120.43 423.371C1086.8 347.748 986.68 536.621 974.434 442.866C962.187 349.111 1010.61 282.303 937.499 212.006C864.385 141.709 791.034 381.7 702.607 309.368C670.26 282.908 624.024 202.746 575.372 197.784C498.133 189.907 474.173 300.452 395.079 312.147C347.659 319.159 329.775 221.162 288.998 234.801C208.487 261.729 70.0289 421.659 -1.97437 482.499" stroke="url(#paint12_linear)"/>
<path opacity="0.2" d="M1253.65 770.77C1217.18 861.361 1025.04 890.747 1025.04 764.172C1025.04 727.337 1160.1 490.088 1126.47 414.465C1092.84 338.842 991.273 525.766 979.026 432.011C966.78 338.256 1013.05 272.57 939.934 202.273C866.82 131.976 798.11 374.82 709.683 302.487C677.336 276.027 627.777 196.172 579.126 191.211C501.887 183.334 480.33 293.293 401.236 304.989C353.816 312 334.979 213.501 294.202 227.14C213.691 254.068 70.031 421.658 -1.97231 482.499" stroke="url(#paint13_linear)"/>
<path opacity="0.2" d="M1259.68 761.865C1223.22 852.455 1031.08 881.841 1031.08 755.266C1031.08 718.431 1166.14 481.182 1132.51 405.559C1098.88 329.936 995.866 514.91 983.619 421.155C971.372 327.401 1015.48 262.836 942.37 192.54C869.256 122.243 805.185 367.939 716.759 295.606C684.412 269.146 631.53 189.599 582.879 184.638C505.64 176.761 486.487 286.134 407.393 297.83C359.973 304.842 340.183 205.84 299.405 219.478C218.895 246.406 70.0329 421.658 -1.97035 482.498" stroke="url(#paint14_linear)"/>
<path opacity="0.2" d="M1265.72 752.959C1229.26 843.55 1037.12 872.936 1037.12 746.361C1037.12 709.526 1172.18 472.276 1138.55 396.654C1104.92 321.031 1000.46 504.055 988.213 410.3C975.966 316.545 1017.92 253.103 944.806 182.806C871.692 112.51 812.262 361.058 723.836 288.726C691.489 262.266 635.285 183.026 586.634 178.064C509.394 170.188 492.645 278.976 413.552 290.671C366.132 297.683 345.388 198.179 304.61 211.817C224.1 238.745 70.036 421.657 -1.96731 482.498" stroke="url(#paint15_linear)"/>
<path opacity="0.2" d="M1271.76 744.053C1235.3 834.644 1043.16 864.03 1043.16 737.455C1043.16 700.62 1178.22 463.371 1144.59 387.748C1110.95 312.125 1005.05 493.2 992.806 399.445C980.559 305.69 1020.36 243.37 947.241 173.073C874.128 102.776 819.338 354.178 730.912 281.845C698.565 255.385 639.038 176.452 590.387 171.491C513.148 163.614 498.803 271.817 419.709 283.513C372.289 290.525 350.592 190.518 309.814 204.156C229.304 231.084 70.038 421.657 -1.96525 482.497" stroke="url(#paint16_linear)"/>
<path opacity="0.2" d="M1277.8 735.146C1241.34 825.737 1049.2 855.123 1049.2 728.548C1049.2 691.713 1184.26 454.464 1150.63 378.841C1116.99 303.218 1009.65 482.343 997.399 388.589C985.153 294.834 1022.79 233.635 949.678 163.339C876.564 93.0418 826.415 347.296 737.989 274.963C705.641 248.503 642.793 169.878 594.142 164.917C516.902 157.04 504.961 264.657 425.867 276.353C378.447 283.365 355.797 182.855 315.019 196.494C234.509 223.422 70.0412 421.655 -1.96211 482.495" stroke="url(#paint17_linear)"/>
<path opacity="0.2" d="M1283.84 726.241C1247.38 816.831 1055.24 846.217 1055.24 719.642C1055.24 682.807 1190.3 445.558 1156.67 369.935C1123.03 294.312 1014.24 471.488 1001.99 377.733C989.745 283.978 1025.23 223.902 952.113 153.605C879 83.3084 833.491 340.415 745.065 268.083C712.717 241.622 646.546 163.305 597.895 158.344C520.656 150.467 511.118 257.499 432.025 269.194C384.605 276.206 361.001 175.194 320.223 188.833C239.713 215.761 70.0433 421.654 -1.95994 482.495" stroke="url(#paint18_linear)"/>
<path opacity="0.2" d="M1289.88 717.336C1253.42 807.926 1061.28 837.312 1061.28 710.738C1061.28 673.902 1196.34 436.653 1162.71 361.03C1129.07 285.408 1018.83 460.634 1006.59 366.879C994.338 273.124 1027.66 214.17 954.549 143.873C881.435 73.5762 840.567 333.536 752.141 261.203C719.793 234.743 650.3 156.733 601.648 151.771C524.409 143.895 517.275 250.341 438.182 262.037C390.762 269.049 366.205 167.534 325.427 181.173C244.917 208.101 70.0454 421.655 -1.95787 482.495" stroke="url(#paint19_linear)"/>
<path opacity="0.2" d="M1295.92 708.43C1259.45 799.021 1067.32 828.407 1067.32 701.832C1067.32 664.997 1202.38 427.748 1168.74 352.125C1135.11 276.502 1023.42 449.779 1011.18 356.024C998.931 262.269 1030.1 204.436 956.984 134.14C883.871 63.8429 847.643 326.655 759.216 254.322C726.869 227.862 654.053 150.159 605.402 145.198C528.163 137.321 523.433 243.183 444.339 254.878C396.919 261.89 371.409 159.873 330.631 173.512C250.121 200.44 70.0474 421.654 -1.95592 482.495" stroke="url(#paint20_linear)"/>
<path opacity="0.2" d="M1301.96 699.524C1265.49 790.115 1073.36 819.501 1073.36 692.926C1073.36 656.091 1208.42 418.842 1174.79 343.219C1141.15 267.596 1028.02 438.923 1015.77 345.168C1003.52 251.414 1032.53 194.703 959.421 124.406C886.307 54.1096 854.72 319.774 766.293 247.442C733.946 220.981 657.808 143.586 609.156 138.625C531.917 130.748 529.591 236.024 450.497 247.719C403.077 254.731 376.614 152.212 335.836 165.851C255.326 192.779 70.0505 421.654 -1.95277 482.494" stroke="url(#paint21_linear)"/>
</g>
<defs>
<linearGradient id="paint0_linear" x1="589.587" y1="956" x2="589.587" y2="269.71" gradientUnits="userSpaceOnUse">
<stop stop-color="#333399"/>
<stop offset="1" stop-color="#333399" stop-opacity="0.54"/>
</linearGradient>
<linearGradient id="paint1_linear" x1="653.025" y1="768.979" x2="653.025" y2="102.824" gradientUnits="userSpaceOnUse">
<stop stop-color="#333399"/>
<stop offset="1" stop-color="#333399" stop-opacity="0.54"/>
</linearGradient>
<linearGradient id="paint2_linear" x1="592.608" y1="947.094" x2="592.608" y2="263.135" gradientUnits="userSpaceOnUse">
<stop stop-color="#333399"/>
<stop offset="1" stop-color="#333399" stop-opacity="0.54"/>
</linearGradient>
<linearGradient id="paint3_linear" x1="595.628" y1="938.188" x2="595.628" y2="256.56" gradientUnits="userSpaceOnUse">
<stop stop-color="#333399"/>
<stop offset="1" stop-color="#333399" stop-opacity="0.54"/>
</linearGradient>
<linearGradient id="paint4_linear" x1="598.65" y1="929.283" x2="598.65" y2="249.984" gradientUnits="userSpaceOnUse">
<stop stop-color="#333399"/>
<stop offset="1" stop-color="#333399" stop-opacity="0.54"/>
</linearGradient>
<linearGradient id="paint5_linear" x1="601.67" y1="920.377" x2="601.67" y2="243.41" gradientUnits="userSpaceOnUse">
<stop stop-color="#333399"/>
<stop offset="1" stop-color="#333399" stop-opacity="0.54"/>
</linearGradient>
<linearGradient id="paint6_linear" x1="604.691" y1="911.472" x2="604.691" y2="236.835" gradientUnits="userSpaceOnUse">
<stop stop-color="#333399"/>
<stop offset="1" stop-color="#333399" stop-opacity="0.54"/>
</linearGradient>
<linearGradient id="paint7_linear" x1="607.711" y1="902.565" x2="607.711" y2="230.258" gradientUnits="userSpaceOnUse">
<stop stop-color="#333399"/>
<stop offset="1" stop-color="#333399" stop-opacity="0.54"/>
</linearGradient>
<linearGradient id="paint8_linear" x1="610.733" y1="893.66" x2="610.733" y2="223.684" gradientUnits="userSpaceOnUse">
<stop stop-color="#333399"/>
<stop offset="1" stop-color="#333399" stop-opacity="0.54"/>
</linearGradient>
<linearGradient id="paint9_linear" x1="613.753" y1="884.754" x2="613.753" y2="217.109" gradientUnits="userSpaceOnUse">
<stop stop-color="#333399"/>
<stop offset="1" stop-color="#333399" stop-opacity="0.54"/>
</linearGradient>
<linearGradient id="paint10_linear" x1="616.775" y1="875.848" x2="616.775" y2="210.533" gradientUnits="userSpaceOnUse">
<stop stop-color="#333399"/>
<stop offset="1" stop-color="#333399" stop-opacity="0.54"/>
</linearGradient>
<linearGradient id="paint11_linear" x1="619.795" y1="866.942" x2="619.795" y2="203.958" gradientUnits="userSpaceOnUse">
<stop stop-color="#333399"/>
<stop offset="1" stop-color="#333399" stop-opacity="0.54"/>
</linearGradient>
<linearGradient id="paint12_linear" x1="622.816" y1="858.037" x2="622.816" y2="197.383" gradientUnits="userSpaceOnUse">
<stop stop-color="#333399"/>
<stop offset="1" stop-color="#333399" stop-opacity="0.54"/>
</linearGradient>
<linearGradient id="paint13_linear" x1="625.837" y1="849.131" x2="625.837" y2="189.352" gradientUnits="userSpaceOnUse">
<stop stop-color="#333399"/>
<stop offset="1" stop-color="#333399" stop-opacity="0.54"/>
</linearGradient>
<linearGradient id="paint14_linear" x1="628.857" y1="840.225" x2="628.857" y2="179.747" gradientUnits="userSpaceOnUse">
<stop stop-color="#333399"/>
<stop offset="1" stop-color="#333399" stop-opacity="0.54"/>
</linearGradient>
<linearGradient id="paint15_linear" x1="631.879" y1="831.319" x2="631.879" y2="170.14" gradientUnits="userSpaceOnUse">
<stop stop-color="#333399"/>
<stop offset="1" stop-color="#333399" stop-opacity="0.54"/>
</linearGradient>
<linearGradient id="paint16_linear" x1="634.899" y1="822.414" x2="634.899" y2="160.531" gradientUnits="userSpaceOnUse">
<stop stop-color="#333399"/>
<stop offset="1" stop-color="#333399" stop-opacity="0.54"/>
</linearGradient>
<linearGradient id="paint17_linear" x1="637.921" y1="813.507" x2="637.921" y2="150.917" gradientUnits="userSpaceOnUse">
<stop stop-color="#333399"/>
<stop offset="1" stop-color="#333399" stop-opacity="0.54"/>
</linearGradient>
<linearGradient id="paint18_linear" x1="640.941" y1="804.601" x2="640.941" y2="141.303" gradientUnits="userSpaceOnUse">
<stop stop-color="#333399"/>
<stop offset="1" stop-color="#333399" stop-opacity="0.54"/>
</linearGradient>
<linearGradient id="paint19_linear" x1="643.962" y1="795.696" x2="643.962" y2="131.687" gradientUnits="userSpaceOnUse">
<stop stop-color="#333399"/>
<stop offset="1" stop-color="#333399" stop-opacity="0.54"/>
</linearGradient>
<linearGradient id="paint20_linear" x1="646.982" y1="786.791" x2="646.982" y2="122.068" gradientUnits="userSpaceOnUse">
<stop stop-color="#333399"/>
<stop offset="1" stop-color="#333399" stop-opacity="0.54"/>
</linearGradient>
<linearGradient id="paint21_linear" x1="650.004" y1="777.885" x2="650.004" y2="112.447" gradientUnits="userSpaceOnUse">
<stop stop-color="#333399"/>
<stop offset="1" stop-color="#333399" stop-opacity="0.54"/>
</linearGradient>
</defs>
</svg>
