<svg width="1917" height="590" viewBox="0 0 1917 590" fill="none" xmlns="http://www.w3.org/2000/svg" xmlns:xlink="http://www.w3.org/1999/xlink">
<mask id="mask0" mask-type="alpha" maskUnits="userSpaceOnUse" x="0" y="0" width="1920" height="590">
<path d="M0 0H1920V590H1545H0V0Z" fill="url(#pattern0)"/>
</mask>
<g mask="url(#mask0)">
<g opacity="0.7">
<path d="M0 186.28C1.31347 191.188 -2.28798 192.405 6.56736 210.82C67.7216 337.991 153.413 481.791 307.607 500.226C434.321 515.375 380.216 308.926 481.536 301.677C674.141 287.898 842.073 652.703 1018.79 580.537C1106.27 544.811 1033.61 376.157 1111.37 360.086C1154.07 351.26 1169.62 419.726 1212 419.103C1249.87 418.546 1285.69 345.632 1322.79 356.841C1466.78 400.341 1489.44 605.161 1684.53 573.236C1821.52 550.819 1816.4 353.292 1904.75 273.893" stroke="url(#paint0_linear)" stroke-linecap="round" stroke-linejoin="round"/>
<path d="M7.62695 153.425C46.0016 183.182 155.764 214.355 196.809 171.678C260.82 105.122 181.963 -33.5468 269.05 -83.0477C476.418 -200.917 569.919 105.969 749.315 105.969C783.021 105.969 761.16 18.7825 797.511 5.57901C924.684 -40.6136 1020.4 330.471 1141.24 255.336C1232.61 198.523 1177.86 -27.4194 1269.83 -27.2757C1334.11 -27.1754 1412.31 136.819 1475.75 83.0514C1598.95 -21.3714 1766.09 19.5809 1874.66 120.368C1902.63 146.327 1888.05 154.926 1897.12 174.315C1906.19 193.703 1915.42 208.711 1920 217.31" stroke="url(#paint1_linear)" stroke-linecap="round" stroke-linejoin="round"/>
<path d="M0.149414 185.636C1.54572 188.625 3.13715 190.738 4.30542 193.057C5.924 194.909 5.6655 197.001 11.714 205.058C75.7351 327.425 161.58 474.421 316.268 492.495C441.158 507.348 387.685 303.237 487.731 295.872C679.054 281.456 845.569 646.385 1021.19 574.161C1108.75 538.021 1036.44 368.244 1114.47 352.491C1157.6 343.84 1174.38 414.178 1217.17 412.514C1256.71 409.92 1295.11 339.238 1333.61 352.204C1475.32 395.36 1497.26 596.333 1688.7 565.414C1823.18 543.817 1818.35 350.457 1905.05 272.783" stroke="url(#paint2_linear)"/>
<path d="M0.298828 184.992C2.4347 188.517 6.18956 191.21 8.15536 192.63C11.0218 193.113 9.19131 192.391 16.8605 199.296C83.7486 316.858 169.746 467.053 324.928 484.765C447.995 499.32 395.154 297.548 493.927 290.066C683.966 275.015 849.066 640.067 1023.59 567.785C1111.23 531.231 1039.27 360.331 1117.58 344.895C1161.13 336.42 1179.13 408.631 1222.34 405.925C1263.56 401.295 1304.53 332.845 1344.44 347.568C1483.87 390.38 1505.07 587.505 1692.86 557.593C1824.84 536.815 1820.29 347.622 1905.34 271.674" stroke="url(#paint3_linear)"/>
<path d="M0.449707 184.348C3.32514 188.408 9.24343 191.683 12.0068 192.202C16.121 191.317 12.7186 187.78 22.0086 193.534C91.7636 306.291 177.914 459.684 333.591 477.034C454.834 491.293 402.625 291.859 500.124 284.26C688.88 268.574 852.564 633.748 1025.99 561.408C1113.71 524.441 1042.1 352.418 1120.69 337.3C1164.66 328.999 1183.89 403.084 1227.51 399.335C1270.4 392.669 1313.95 326.452 1355.26 342.931C1492.42 385.399 1512.89 578.677 1697.03 549.77C1826.5 529.812 1822.23 344.787 1905.64 270.565" stroke="url(#paint4_linear)"/>
<path d="M0.598633 183.704C4.21364 188.299 12.2954 192.155 15.8562 191.775C21.2183 189.522 16.2439 183.169 27.1547 187.772C99.7766 295.724 186.081 452.315 342.251 469.304C461.67 483.265 410.094 286.17 506.319 278.454C693.792 262.133 856.06 627.43 1028.39 555.032C1116.18 517.651 1044.93 344.505 1123.8 329.705C1168.19 321.579 1188.65 397.537 1232.68 392.746C1277.25 384.043 1323.37 320.059 1366.08 338.294C1500.96 380.419 1520.71 569.849 1701.2 541.949C1828.16 522.81 1824.17 341.953 1905.94 269.455" stroke="url(#paint5_linear)"/>
<path d="M0.746582 183.06C5.10115 188.191 15.3463 192.628 19.7047 191.348C26.3146 187.727 19.7683 178.558 32.2998 182.01C107.789 285.158 194.246 444.946 350.91 461.574C468.506 475.238 417.562 280.482 512.513 272.649C698.703 255.692 859.555 621.113 1030.79 548.656C1118.66 510.862 1047.75 336.592 1126.9 322.11C1171.72 314.159 1193.41 391.991 1237.85 386.157C1284.09 375.418 1332.79 313.667 1376.9 333.658C1509.51 375.438 1528.52 561.021 1705.37 534.127C1829.82 515.808 1826.11 339.118 1906.24 268.346" stroke="url(#paint6_linear)"/>
<path d="M0.896484 182.416C5.99062 188.082 18.3992 193.1 23.5551 190.92C31.4129 185.931 23.2946 173.948 37.4469 176.248C115.803 274.591 202.413 437.577 359.572 453.844C475.344 467.211 425.032 274.793 518.709 266.843C703.616 249.251 863.052 614.795 1033.19 542.279C1121.14 504.072 1050.58 328.679 1130.01 314.515C1175.25 306.739 1198.17 386.444 1243.03 379.568C1290.94 366.792 1342.21 307.274 1387.72 329.022C1518.05 370.458 1536.34 552.193 1709.54 526.305C1831.48 508.806 1828.05 336.283 1906.54 267.237" stroke="url(#paint7_linear)"/>
<path d="M1.0459 181.771C6.8796 187.973 21.4516 193.573 27.4051 190.493C36.5107 184.135 26.8204 169.336 42.5935 170.486C123.816 264.024 210.58 430.208 368.232 446.113C482.181 459.183 432.501 269.103 524.904 261.037C708.529 242.809 866.549 608.476 1035.59 535.903C1123.61 497.282 1053.41 320.765 1133.12 306.919C1178.78 299.319 1202.93 380.896 1248.2 372.979C1297.78 358.166 1351.63 300.88 1398.54 324.385C1526.6 365.477 1544.15 543.365 1713.71 518.483C1833.14 501.804 1829.99 333.448 1906.84 266.127" stroke="url(#paint8_linear)"/>
<path d="M1.19629 181.127C7.76956 187.864 24.505 194.045 31.256 190.065C41.6095 182.339 30.3472 164.725 47.7411 164.724C131.831 253.457 218.747 422.839 376.894 438.382C489.019 451.155 439.972 263.414 531.101 255.231C713.442 236.367 870.046 602.158 1038 529.526C1126.09 490.492 1056.24 312.852 1136.22 299.324C1182.31 291.898 1207.69 375.349 1253.37 366.39C1304.63 349.54 1361.05 294.487 1409.36 319.748C1535.15 360.496 1551.97 534.536 1717.88 510.661C1834.8 494.801 1831.94 330.613 1907.14 265.018" stroke="url(#paint9_linear)"/>
<path d="M1.3457 180.483C8.65854 187.755 27.5574 194.518 35.1059 189.638C46.7072 180.544 33.873 160.115 52.8876 158.962C139.844 242.891 226.914 415.47 385.555 430.652C495.856 443.128 447.441 257.725 537.296 249.426C718.355 229.926 873.543 595.84 1040.4 523.15C1128.57 483.702 1059.07 304.939 1139.33 291.729C1185.84 284.478 1212.45 369.802 1258.54 359.801C1311.47 340.915 1370.47 288.094 1420.18 315.112C1543.69 355.516 1559.79 525.709 1722.04 502.839C1836.46 487.8 1833.88 327.779 1907.44 263.909" stroke="url(#paint10_linear)"/>
<path d="M1.49561 179.839C9.54801 187.646 30.6103 194.99 38.9564 189.21C51.8055 178.748 37.3993 155.504 58.0347 153.2C147.858 232.324 235.081 408.101 394.216 422.921C502.693 435.1 454.911 252.036 543.492 243.62C723.268 223.485 877.04 589.521 1042.8 516.773C1131.05 476.912 1061.9 297.025 1142.44 284.133C1189.37 277.058 1217.2 364.255 1263.71 353.211C1318.32 332.289 1379.89 281.701 1431 310.475C1552.24 350.535 1567.6 516.88 1726.21 495.017C1838.12 480.797 1835.82 324.943 1907.74 262.799" stroke="url(#paint11_linear)"/>
<path d="M1.64453 179.195C10.4365 187.538 33.6622 195.462 42.8058 188.782C56.9028 176.952 40.9246 150.893 63.1808 147.438C155.871 221.757 243.247 400.732 402.877 415.191C509.53 427.073 462.38 246.347 549.687 237.814C728.18 217.043 880.536 583.203 1045.2 510.397C1133.52 470.122 1064.72 289.112 1145.55 276.538C1192.9 269.638 1221.96 358.708 1268.88 346.622C1325.16 323.663 1389.31 275.308 1441.82 305.838C1560.79 345.555 1575.42 508.052 1730.38 487.195C1839.78 473.795 1837.76 322.109 1908.04 261.69" stroke="url(#paint12_linear)"/>
<path d="M1.79443 178.551C11.326 187.429 36.7151 195.935 46.6562 188.355C62.0011 175.157 44.4509 146.282 68.3279 141.676C163.885 211.191 251.414 393.363 411.538 407.46C516.368 419.046 469.849 240.658 555.883 232.008C733.092 210.602 884.033 576.885 1047.6 504.021C1136 463.332 1067.55 281.199 1148.65 268.943C1196.43 262.218 1226.72 353.161 1274.06 340.033C1332.01 315.037 1398.73 268.915 1452.65 301.201C1569.33 340.574 1583.23 499.224 1734.55 479.374C1841.44 466.793 1839.7 319.274 1908.34 260.58" stroke="url(#paint13_linear)"/>
<path d="M1.94336 177.906C12.2145 187.32 39.767 196.407 50.5057 187.927C67.0984 173.361 47.9762 141.671 73.474 135.913C171.898 200.624 259.58 385.994 420.198 399.73C523.204 411.018 477.318 234.969 562.078 226.202C738.004 204.161 887.529 570.567 1050 497.644C1138.48 456.542 1070.38 273.286 1151.76 261.348C1199.96 254.797 1231.48 347.613 1279.23 333.444C1338.85 306.411 1408.14 262.522 1463.47 296.565C1577.88 335.593 1591.05 490.396 1738.72 471.551C1843.1 459.79 1841.64 316.439 1908.63 259.471" stroke="url(#paint14_linear)"/>
<path d="M2.09326 177.262C13.1039 187.211 42.8199 196.879 54.3561 187.5C72.1966 171.565 51.5025 137.06 78.6211 130.151C179.912 190.057 267.748 378.625 428.86 391.999C530.042 402.99 484.788 229.28 568.274 220.397C742.918 197.719 891.026 564.248 1052.4 491.267C1140.95 449.752 1073.21 265.372 1154.87 253.752C1203.49 247.377 1236.24 342.066 1284.4 326.854C1345.7 297.786 1417.56 256.128 1474.29 291.928C1586.42 330.613 1598.86 481.568 1742.89 463.729C1844.76 452.788 1843.59 313.604 1908.93 258.361" stroke="url(#paint15_linear)"/>
<path d="M2.24316 176.618C13.9934 187.103 45.8728 197.352 58.2065 187.073C77.2949 169.77 55.0288 132.449 83.7682 124.39C187.926 179.49 275.915 371.256 437.521 384.269C536.88 394.963 492.258 223.591 574.47 214.591C747.83 191.278 894.523 557.93 1054.8 484.891C1143.43 442.963 1076.04 257.46 1157.97 246.157C1207.02 239.957 1241 336.519 1289.57 320.266C1352.54 289.16 1426.98 249.736 1485.11 287.291C1594.97 325.632 1606.68 472.74 1747.05 455.908C1846.42 445.786 1845.53 310.769 1909.23 257.252" stroke="url(#paint16_linear)"/>
<path d="M2.39307 175.974C14.8829 186.993 48.9257 197.824 62.057 186.645C82.3932 167.974 58.5551 127.838 88.9152 118.627C195.94 168.923 284.082 363.887 446.182 376.538C543.717 386.935 499.728 217.902 580.666 208.785C752.743 184.837 898.02 551.612 1057.2 478.514C1145.91 436.172 1078.87 249.546 1161.08 238.562C1210.55 232.536 1245.76 330.972 1294.74 313.676C1359.39 280.534 1436.41 243.342 1495.93 282.654C1603.52 320.651 1614.5 463.912 1751.22 448.085C1848.08 438.784 1847.47 307.934 1909.53 256.142" stroke="url(#paint17_linear)"/>
<path d="M2.54297 175.33C15.7723 186.884 51.9786 198.296 65.9074 186.217C87.4915 166.178 62.0814 123.227 94.0623 112.865C203.954 158.356 292.249 356.518 454.844 368.808C550.555 378.907 507.198 212.213 586.862 202.979C757.656 178.395 901.517 545.293 1059.61 472.138C1148.39 429.382 1081.69 241.633 1164.19 230.966C1214.08 225.116 1250.52 325.424 1299.91 307.087C1366.23 271.908 1445.83 236.949 1506.75 278.018C1612.06 315.671 1622.31 455.084 1755.39 440.263C1849.74 431.781 1849.41 305.099 1909.83 255.033" stroke="url(#paint18_linear)"/>
<path d="M2.69141 174.686C16.6603 186.776 55.03 198.769 69.7564 185.79C92.5882 164.382 65.6062 118.616 99.2079 107.103C211.967 147.79 300.415 349.149 463.503 361.077C557.391 370.88 514.666 206.524 593.056 197.173C762.568 171.954 905.013 538.975 1062.01 465.762C1150.86 422.593 1084.52 233.72 1167.29 223.371C1217.61 217.696 1255.27 319.877 1305.08 300.498C1373.07 263.282 1455.24 230.556 1517.57 273.381C1620.61 310.69 1630.13 446.256 1759.56 432.442C1851.4 424.779 1851.35 302.264 1910.13 253.923" stroke="url(#paint19_linear)"/>
<path d="M2.8418 174.041C17.5503 186.667 58.0834 199.241 73.6073 185.362C97.687 162.586 69.133 114.005 104.356 101.341C219.981 137.223 308.582 341.779 472.165 353.347C564.229 362.852 522.137 200.834 599.252 191.367C767.481 165.512 908.51 532.657 1064.41 459.385C1153.34 415.803 1087.35 225.806 1170.4 215.776C1221.14 210.275 1260.03 314.33 1310.26 293.908C1379.92 254.656 1464.66 224.163 1528.39 268.744C1629.15 305.709 1637.94 437.427 1763.73 424.619C1853.06 417.777 1853.29 299.429 1910.43 252.814" stroke="url(#paint20_linear)"/>
<path d="M2.99023 173.397C18.4383 186.558 61.1349 199.713 77.4563 184.934C102.784 160.791 72.6579 109.394 109.501 95.5785C227.994 126.656 316.748 334.41 480.825 345.616C571.065 354.825 529.605 195.145 605.447 185.561C772.393 159.071 912.006 526.338 1066.81 453.008C1155.82 409.012 1090.18 217.893 1173.51 208.18C1224.67 202.855 1264.79 308.783 1315.43 287.319C1386.76 246.03 1474.08 217.769 1539.21 264.107C1637.7 300.729 1645.76 428.599 1767.9 416.797C1854.72 410.774 1855.24 296.594 1910.73 251.704" stroke="url(#paint21_linear)"/>
<path d="M3.14062 172.753C19.3283 186.449 64.1882 200.186 81.3072 184.507C107.883 158.995 76.1847 104.783 114.649 89.8168C236.008 116.089 324.915 327.042 489.487 337.886C577.903 346.797 537.075 189.457 611.643 179.756C777.306 152.63 915.503 520.021 1069.21 446.632C1158.29 402.223 1093.01 209.98 1176.62 200.585C1228.2 195.435 1269.55 303.236 1320.6 280.73C1393.61 237.405 1483.5 211.377 1550.03 259.471C1646.25 295.748 1653.58 419.771 1772.07 408.976C1856.38 403.772 1857.18 293.76 1911.03 250.595" stroke="url(#paint22_linear)"/>
<path d="M3.29004 172.108C20.2172 186.34 67.2407 200.658 85.1571 184.079C112.98 157.199 79.7105 100.172 119.795 84.0543C244.022 105.522 333.082 319.672 498.148 330.155C584.74 338.769 544.545 183.767 617.839 173.95C782.219 146.188 919 513.702 1071.61 440.255C1160.77 395.433 1095.84 202.066 1179.72 192.99C1231.73 188.014 1274.31 297.689 1325.77 274.14C1400.45 228.779 1492.92 204.983 1560.86 254.834C1654.79 290.767 1661.39 410.943 1776.23 401.153C1858.04 396.77 1859.12 290.924 1911.33 249.485" stroke="url(#paint23_linear)"/>
<path d="M3.43945 171.465C21.1062 186.232 70.2931 201.131 89.007 183.652C118.078 155.404 83.2363 95.5617 124.942 78.2928C252.035 94.956 341.249 312.304 506.808 322.425C591.577 330.742 552.014 178.079 624.034 168.144C787.131 139.747 922.496 507.384 1074.01 433.879C1163.25 388.643 1098.66 194.154 1182.83 185.395C1235.26 180.595 1279.07 292.142 1330.94 267.552C1407.3 220.154 1502.34 198.591 1571.68 250.198C1663.34 285.787 1669.21 402.115 1780.4 393.332C1859.7 389.768 1861.06 288.09 1911.63 248.376" stroke="url(#paint24_linear)"/>
<path d="M3.58887 170.82C21.9952 186.123 73.3455 201.603 92.857 183.224C123.176 153.608 86.7621 90.9504 130.088 72.5304C260.049 84.3888 349.415 304.934 515.469 314.694C598.415 322.715 559.483 172.389 630.23 162.338C792.044 133.305 925.993 501.066 1076.41 427.503C1165.72 381.853 1101.49 186.24 1185.94 177.799C1238.79 173.174 1283.83 286.594 1336.12 260.962C1414.14 211.527 1511.76 192.197 1582.5 245.561C1671.88 280.806 1677.02 393.287 1784.57 385.51C1861.36 382.765 1863 285.255 1911.92 247.267" stroke="url(#paint25_linear)"/>
<path d="M3.73779 170.176C22.8837 186.014 76.3974 202.076 96.7065 182.797C128.273 151.812 90.2874 86.3398 135.235 66.7686C268.062 73.8223 357.582 297.566 524.13 306.964C605.251 314.687 566.952 166.7 636.425 156.533C796.956 126.864 929.489 494.748 1078.81 421.126C1168.2 375.063 1104.32 178.327 1189.04 170.204C1242.32 165.754 1288.58 281.048 1341.29 254.373C1420.99 202.902 1521.18 185.804 1593.32 240.924C1680.43 275.826 1684.84 384.459 1788.74 377.688C1863.02 375.764 1864.94 282.42 1912.22 246.158" stroke="url(#paint26_linear)"/>
<path d="M3.8877 169.532C23.7732 185.905 79.4503 202.548 100.557 182.369C133.372 150.016 93.8137 81.7284 140.382 61.0061C276.076 63.2551 365.749 290.196 532.791 299.233C612.089 306.659 574.422 161.011 642.621 150.726C801.869 120.423 932.986 488.429 1081.21 414.75C1170.68 368.273 1107.15 170.413 1192.15 162.609C1245.85 158.333 1293.34 275.5 1346.46 247.784C1427.83 194.276 1530.6 179.411 1604.14 236.287C1688.98 270.845 1692.66 375.631 1792.91 369.866C1864.68 368.761 1866.88 279.585 1912.52 245.048" stroke="url(#paint27_linear)"/>
<path d="M4.0376 168.888C24.6626 185.796 82.5032 203.02 104.407 181.942C138.47 148.221 97.34 77.1179 145.529 55.2444C284.09 52.6887 373.916 282.827 541.452 291.503C618.927 298.632 581.892 155.322 648.817 144.921C806.782 113.982 936.483 482.111 1083.61 408.373C1173.16 361.483 1109.98 162.501 1195.26 155.014C1249.38 150.913 1298.1 269.953 1351.63 241.195C1434.68 185.65 1540.02 173.018 1614.96 231.651C1697.52 265.865 1700.47 366.803 1797.08 362.044C1866.34 361.759 1868.83 276.75 1912.82 243.939" stroke="url(#paint28_linear)"/>
<path d="M4.18652 168.244C25.5511 185.687 85.5551 203.493 108.257 181.514C143.567 146.425 100.865 72.5067 150.675 49.4821C292.103 42.1217 382.082 275.458 550.113 283.772C625.763 290.604 589.361 149.633 655.012 139.115C811.694 107.54 939.979 475.793 1086.02 401.997C1175.63 354.693 1112.8 154.587 1198.37 147.418C1252.91 143.493 1302.86 264.406 1356.8 234.605C1441.52 177.024 1549.44 166.625 1625.78 227.014C1706.07 260.884 1708.29 357.975 1801.24 354.222C1868 354.757 1870.77 273.915 1913.12 242.829" stroke="url(#paint29_linear)"/>
<path d="M4.33594 167.6C26.4401 185.579 88.6075 203.965 112.107 181.086C148.665 144.629 104.391 67.8958 155.821 43.7201C300.117 31.555 390.249 268.089 558.773 276.042C632.6 282.577 596.83 143.944 661.207 133.309C816.606 101.099 943.476 469.474 1088.42 395.62C1178.11 347.903 1115.63 146.674 1201.47 139.823C1256.44 136.073 1307.62 258.859 1361.97 228.016C1448.37 168.398 1558.86 160.232 1636.6 222.377C1714.61 255.903 1716.1 349.147 1805.41 346.4C1869.66 347.754 1872.71 271.08 1913.42 241.72" stroke="url(#paint30_linear)"/>
<path d="M4.48633 166.955C27.3301 185.47 91.6609 204.437 115.958 180.659C153.764 142.834 107.918 63.2847 160.969 37.9578C308.131 20.988 398.416 260.72 567.435 268.311C639.438 274.549 604.301 138.255 667.403 127.503C821.52 94.6571 946.973 463.156 1090.82 389.244C1180.59 341.113 1118.46 138.76 1204.58 132.227C1259.97 128.652 1312.38 253.311 1367.15 221.427C1455.21 159.772 1568.28 153.838 1647.42 217.74C1723.16 250.922 1723.92 340.318 1809.58 338.578C1871.32 340.752 1874.65 268.245 1913.72 240.61" stroke="url(#paint31_linear)"/>
<path d="M4.63623 166.312C28.2195 185.361 94.7138 204.91 119.808 180.232C158.862 141.038 111.444 58.6743 166.116 32.1963C316.145 10.4217 406.583 253.352 576.096 260.581C646.276 266.522 611.77 132.566 673.599 121.698C826.433 88.2163 950.47 456.838 1093.22 382.868C1183.06 334.324 1121.29 130.848 1207.69 124.633C1263.5 121.233 1317.14 247.765 1372.32 214.838C1462.06 151.147 1577.7 147.446 1658.24 213.104C1731.71 245.942 1731.74 331.491 1813.75 330.756C1872.98 333.75 1876.59 265.411 1914.02 239.501" stroke="url(#paint32_linear)"/>
<path d="M4.78516 165.667C29.108 185.252 97.7657 205.382 123.658 179.804C163.959 139.242 114.97 54.063 171.262 26.4338C324.158 -0.145459 414.75 245.982 584.757 252.85C653.113 258.494 619.239 126.877 679.794 115.892C831.345 81.7745 953.967 450.52 1095.62 376.491C1185.54 327.534 1124.12 122.934 1210.8 117.037C1267.03 113.812 1321.9 242.217 1377.49 208.248C1468.9 142.521 1587.12 141.052 1669.07 208.467C1740.25 240.961 1739.55 322.662 1817.92 322.934C1874.64 326.748 1878.53 262.576 1914.32 238.391" stroke="url(#paint33_linear)"/>
<path d="M4.93506 165.023C29.9975 185.143 100.819 205.855 127.508 179.376C169.057 137.447 118.496 49.4521 176.409 20.6718C332.172 -10.7122 422.917 238.613 593.418 245.12C659.95 250.467 626.709 121.188 685.99 110.086C836.258 75.3332 957.464 444.201 1098.02 370.115C1188.02 320.744 1126.95 115.021 1213.9 109.442C1270.56 106.392 1326.65 236.67 1382.66 201.659C1475.75 133.895 1596.54 134.659 1679.89 203.831C1748.8 235.981 1747.37 313.834 1822.09 315.112C1876.3 319.745 1880.48 259.741 1914.62 237.282" stroke="url(#paint34_linear)"/>
<path d="M5.08496 164.378C30.887 185.034 103.872 206.327 131.358 178.948C174.156 135.651 122.022 44.841 181.556 14.9095C340.186 -21.2792 431.084 231.244 602.079 237.389C666.788 242.439 634.179 115.498 692.186 104.28C841.17 68.8916 960.961 437.883 1100.42 363.738C1190.5 313.954 1129.78 107.108 1217.01 101.846C1274.09 98.9712 1331.41 231.123 1387.83 195.07C1482.59 125.269 1605.96 128.266 1690.71 199.194C1757.35 231 1755.18 305.006 1826.26 307.29C1877.96 312.743 1882.42 256.906 1914.92 236.172" stroke="url(#paint35_linear)"/>
<path d="M5.23389 163.734C31.7755 184.925 106.923 206.799 135.208 178.521C179.253 133.855 125.547 40.2298 186.702 9.14722C348.199 -31.8462 439.25 223.875 610.74 229.658C673.625 234.411 641.648 109.809 698.381 98.4738C846.082 62.4501 964.457 431.565 1102.82 357.361C1192.97 307.163 1132.6 99.1941 1220.12 94.2507C1277.62 91.5507 1336.17 225.575 1393 188.48C1489.44 116.643 1615.38 121.873 1701.53 194.557C1765.89 226.019 1763 296.177 1830.42 299.468C1879.62 305.741 1884.36 254.071 1915.21 235.063" stroke="url(#paint36_linear)"/>
<path d="M5.38379 163.09C32.6649 184.816 109.976 207.271 139.058 178.093C184.351 132.059 129.074 35.6189 191.849 3.38512C356.213 -42.413 447.417 216.506 619.401 221.928C680.462 226.384 649.118 104.12 704.577 92.668C850.995 56.0087 967.954 425.246 1105.22 350.985C1195.45 300.374 1135.43 91.2808 1223.22 86.6554C1281.15 84.1304 1340.93 220.028 1398.18 181.891C1496.28 108.017 1624.8 115.479 1712.35 189.92C1774.44 221.038 1770.81 287.349 1834.59 291.646C1881.28 298.738 1886.3 251.236 1915.51 233.953" stroke="url(#paint37_linear)"/>
<path d="M5.53223 162.446C33.5529 184.707 113.028 207.744 142.907 177.666C189.448 130.263 132.599 31.008 196.995 -2.37693C364.226 -52.9798 455.583 209.137 628.061 214.197C687.298 218.356 656.586 98.4311 710.772 86.8622C855.907 49.5673 971.449 418.928 1107.62 344.608C1197.93 293.584 1138.26 83.3676 1226.33 79.0601C1284.68 76.7102 1345.69 214.481 1403.35 175.302C1503.13 99.3916 1634.22 109.086 1723.17 185.283C1782.98 216.058 1778.63 278.521 1838.76 283.824C1882.94 291.736 1888.24 248.401 1915.81 232.844" stroke="url(#paint38_linear)"/>
<path d="M5.68262 161.801C34.4429 184.598 116.081 208.216 146.758 177.238C194.547 128.467 136.125 26.3966 202.143 -8.13947C372.24 -63.547 463.75 201.767 636.723 206.466C694.136 210.328 664.057 92.7416 716.968 81.0559C860.82 43.1255 974.947 412.609 1110.03 338.231C1200.4 286.793 1141.09 75.4539 1229.44 71.4644C1288.21 69.2894 1350.45 208.934 1408.52 168.712C1509.97 90.7653 1643.64 102.693 1733.99 180.646C1791.53 211.077 1786.45 269.693 1842.93 276.001C1884.6 284.733 1890.18 245.566 1916.11 231.734" stroke="url(#paint39_linear)"/>
<path d="M5.83203 161.157C35.3319 184.489 119.134 208.688 150.608 176.81C199.645 126.671 139.651 21.7857 207.289 -13.9015C380.254 -74.1138 471.917 194.398 645.383 198.736C700.974 202.301 671.526 87.0525 723.164 75.2502C865.733 36.6842 978.443 406.291 1112.43 331.855C1202.88 280.003 1143.92 67.5407 1232.55 63.8691C1291.74 61.8692 1355.21 203.386 1413.69 162.123C1516.82 82.1395 1653.06 96.2996 1744.81 176.01C1800.08 206.096 1794.26 260.865 1847.1 268.179C1886.26 277.731 1892.13 242.731 1916.41 230.624" stroke="url(#paint40_linear)"/>
<path d="M5.98242 160.512C36.2218 184.38 122.187 209.16 154.459 176.382C204.743 124.875 143.178 17.1743 212.437 -19.6641C388.268 -84.681 480.085 187.029 654.045 191.005C707.812 194.273 678.996 81.363 729.36 69.4439C870.646 30.2423 981.941 399.972 1114.83 325.478C1205.36 273.213 1146.75 59.6271 1235.65 56.2734C1295.28 54.4485 1359.97 197.839 1418.86 155.534C1523.66 73.5133 1662.48 89.9061 1755.63 171.372C1808.62 201.115 1802.08 252.036 1851.27 260.357C1887.93 270.728 1894.07 239.895 1916.71 229.514" stroke="url(#paint41_linear)"/>
<path d="M6.13184 159.869C37.1108 184.272 125.239 209.633 158.309 175.955C209.841 123.08 146.704 12.5639 217.583 -25.4256C396.282 -95.2473 488.251 179.66 662.706 183.275C714.649 186.245 686.466 75.6745 735.556 63.6386C875.559 23.8015 985.438 393.655 1117.23 319.102C1207.84 266.424 1149.57 51.7143 1238.76 48.6786C1298.81 47.0287 1364.72 192.292 1424.03 148.945C1530.51 64.888 1671.9 83.5135 1766.45 166.736C1817.17 196.135 1809.89 243.209 1855.44 252.536C1889.59 263.727 1896.01 237.061 1917.01 228.406" stroke="url(#paint42_linear)"/>
<path d="M6.28125 159.224C37.9998 184.163 128.292 210.105 162.159 175.527C214.939 121.284 150.23 7.95271 222.73 -31.1879C404.295 -105.814 496.418 172.291 671.367 175.544C721.486 178.218 693.935 69.9852 741.751 57.8325C880.471 17.3599 988.934 387.336 1119.63 312.725C1210.31 259.633 1152.4 43.8008 1241.87 41.083C1302.34 39.6082 1369.48 186.745 1429.21 142.355C1537.35 56.2619 1681.32 77.1201 1777.28 162.099C1825.71 191.154 1817.71 234.38 1859.6 244.713C1891.25 256.724 1897.95 234.226 1917.31 227.296" stroke="url(#paint43_linear)"/>
<path d="M6.43066 158.58C38.8888 184.053 131.344 210.577 166.009 175.099C220.037 119.488 153.755 3.34125 227.877 -36.9505C412.309 -116.382 504.585 164.921 680.028 167.813C728.323 170.19 701.404 64.2956 747.946 52.0262C885.384 10.918 992.431 381.018 1122.03 306.348C1212.79 252.843 1155.23 35.8871 1244.97 33.4872C1305.87 32.1874 1374.24 181.197 1434.38 135.766C1544.2 47.6356 1690.74 70.7265 1788.1 157.462C1834.26 186.173 1825.53 225.552 1863.77 236.891C1892.91 249.722 1899.89 231.39 1917.61 226.186" stroke="url(#paint44_linear)"/>
<path d="M6.57959 157.936C39.7773 183.945 134.396 211.05 169.858 174.672C225.134 117.693 157.281 -1.26942 233.023 -42.7123C420.322 -126.948 512.751 157.553 688.688 160.083C735.16 162.162 708.873 58.6068 754.141 46.2206C890.296 4.47688 995.927 374.7 1124.43 299.972C1215.27 246.053 1158.06 27.9741 1248.08 25.8922C1309.39 24.7674 1379 175.65 1439.55 129.177C1551.04 39.0101 1700.15 64.3336 1798.92 152.826C1842.81 181.192 1833.34 216.724 1867.94 229.069C1894.57 242.72 1901.83 228.556 1917.91 225.077" stroke="url(#paint45_linear)"/>
<path d="M6.72949 157.291C40.6667 183.836 137.449 211.522 173.709 174.244C230.232 115.897 160.807 -5.88062 238.17 -48.4747C428.336 -137.515 520.918 150.183 697.349 152.352C741.997 154.135 716.343 52.9174 760.337 40.4145C895.209 -1.96475 999.424 368.381 1126.83 293.595C1217.74 239.263 1160.89 20.0606 1251.19 18.2966C1312.93 17.3468 1383.76 170.103 1444.72 122.587C1557.89 30.384 1709.57 57.9402 1809.74 148.189C1851.35 176.212 1841.16 207.895 1872.11 221.247C1896.23 235.717 1903.77 225.721 1918.21 223.967" stroke="url(#paint46_linear)"/>
<path d="M6.87891 156.647C41.5557 183.727 140.501 211.994 177.559 173.816C235.33 114.101 164.333 -10.4918 243.316 -54.237C436.349 -148.082 529.085 142.814 706.01 144.621C748.834 146.107 723.812 47.2282 766.533 34.6085C900.121 -8.40634 1002.92 362.063 1129.23 287.219C1220.22 232.473 1163.71 12.1472 1254.3 10.7011C1316.46 9.92636 1388.52 164.555 1449.89 115.998C1564.73 21.758 1718.99 51.5469 1820.56 143.552C1859.9 171.231 1848.97 199.067 1876.28 213.425C1897.89 228.715 1905.72 222.886 1918.5 222.857" stroke="url(#paint47_linear)"/>
<path d="M7.02832 156.002C42.4447 183.618 143.554 212.466 181.409 173.388C240.428 112.305 167.859 -15.103 248.463 -59.9993C444.363 -158.649 537.251 135.445 714.671 136.891C755.672 138.079 731.282 41.5389 772.728 28.8024C905.034 -14.848 1006.42 355.744 1131.63 280.842C1222.7 225.683 1166.54 4.23367 1257.4 3.10555C1319.99 2.50583 1393.28 159.008 1455.06 109.408C1571.57 13.1319 1728.41 45.1535 1831.38 138.915C1868.44 166.25 1856.79 190.239 1880.45 205.603C1899.55 221.712 1907.66 220.05 1918.8 221.748" stroke="url(#paint48_linear)"/>
<path d="M7.17773 155.358C43.3337 183.509 146.606 212.938 185.259 172.961C245.526 110.509 171.384 -19.7139 253.61 -65.7614C452.376 -169.216 545.418 128.076 723.332 129.16C762.509 130.051 738.751 35.8498 778.924 22.9966C909.946 -21.2894 1009.91 349.426 1134.03 274.466C1225.17 218.893 1169.37 -3.6796 1260.51 -4.48978C1323.52 -4.91447 1398.03 153.461 1460.23 102.819C1578.42 4.50605 1737.83 38.7604 1842.2 134.278C1876.99 161.269 1864.6 181.411 1884.61 197.781C1901.21 214.71 1909.6 217.215 1919.1 220.638" stroke="url(#paint49_linear)"/>
<path d="M7.32715 154.714C44.2227 183.4 149.659 213.41 189.108 172.533C250.623 108.713 174.91 -24.3251 258.756 -71.5237C460.39 -179.783 553.584 120.706 731.993 121.429C769.346 122.024 746.221 30.1605 785.119 17.1905C914.859 -27.731 1013.41 343.107 1136.44 268.089C1227.65 212.103 1172.2 -11.5931 1263.62 -12.0853C1327.05 -12.335 1402.79 147.913 1465.41 96.2296C1585.26 -4.11999 1747.25 32.367 1853.02 129.641C1885.54 156.288 1872.42 172.582 1888.78 189.958C1902.87 207.707 1911.54 214.38 1919.4 219.528" stroke="url(#paint50_linear)"/>
<path d="M7.47656 154.07C45.1117 183.291 152.711 213.883 192.958 172.106C255.721 106.918 178.436 -28.9356 263.903 -77.2854C468.403 -190.35 561.751 113.338 740.653 113.699C776.183 113.996 753.69 24.4718 791.315 11.3851C919.771 -34.1719 1016.91 336.789 1138.84 261.713C1230.13 205.313 1175.03 -19.5059 1266.72 -19.6802C1330.58 -19.7548 1407.55 142.367 1470.58 89.6408C1592.11 -12.7454 1756.67 25.9743 1863.84 125.005C1894.08 151.308 1880.24 163.755 1892.95 182.137C1904.53 200.705 1913.48 211.546 1919.7 218.419" stroke="url(#paint51_linear)"/>
</g>
</g>
<defs>
<pattern id="pattern0" patternContentUnits="objectBoundingBox" width="1" height="1">
<use xlink:href="#image0" transform="translate(0 -0.863065) scale(0.000244141 0.000794492)"/>
</pattern>
<linearGradient id="paint0_linear" x1="952.373" y1="589.998" x2="952.373" y2="186.28" gradientUnits="userSpaceOnUse">
<stop stop-color="#333399"/>
<stop offset="1" stop-color="#333399" stop-opacity="0"/>
</linearGradient>
<linearGradient id="paint1_linear" x1="963.813" y1="265.416" x2="963.813" y2="-110.002" gradientUnits="userSpaceOnUse">
<stop stop-color="#333399"/>
<stop offset="1" stop-color="#333399" stop-opacity="0"/>
</linearGradient>
<linearGradient id="paint2_linear" x1="952.598" y1="583.634" x2="952.598" y2="185.636" gradientUnits="userSpaceOnUse">
<stop stop-color="#333399"/>
<stop offset="1" stop-color="#333399" stop-opacity="0"/>
</linearGradient>
<linearGradient id="paint3_linear" x1="952.822" y1="577.27" x2="952.822" y2="184.992" gradientUnits="userSpaceOnUse">
<stop stop-color="#333399"/>
<stop offset="1" stop-color="#333399" stop-opacity="0"/>
</linearGradient>
<linearGradient id="paint4_linear" x1="953.047" y1="570.905" x2="953.047" y2="184.348" gradientUnits="userSpaceOnUse">
<stop stop-color="#333399"/>
<stop offset="1" stop-color="#333399" stop-opacity="0"/>
</linearGradient>
<linearGradient id="paint5_linear" x1="953.271" y1="564.541" x2="953.271" y2="183.704" gradientUnits="userSpaceOnUse">
<stop stop-color="#333399"/>
<stop offset="1" stop-color="#333399" stop-opacity="0"/>
</linearGradient>
<linearGradient id="paint6_linear" x1="953.494" y1="558.177" x2="953.494" y2="181.247" gradientUnits="userSpaceOnUse">
<stop stop-color="#333399"/>
<stop offset="1" stop-color="#333399" stop-opacity="0"/>
</linearGradient>
<linearGradient id="paint7_linear" x1="953.719" y1="551.812" x2="953.719" y2="175.958" gradientUnits="userSpaceOnUse">
<stop stop-color="#333399"/>
<stop offset="1" stop-color="#333399" stop-opacity="0"/>
</linearGradient>
<linearGradient id="paint8_linear" x1="953.943" y1="545.448" x2="953.943" y2="170.422" gradientUnits="userSpaceOnUse">
<stop stop-color="#333399"/>
<stop offset="1" stop-color="#333399" stop-opacity="0"/>
</linearGradient>
<linearGradient id="paint9_linear" x1="954.168" y1="539.083" x2="954.168" y2="164.724" gradientUnits="userSpaceOnUse">
<stop stop-color="#333399"/>
<stop offset="1" stop-color="#333399" stop-opacity="0"/>
</linearGradient>
<linearGradient id="paint10_linear" x1="954.392" y1="532.719" x2="954.392" y2="158.962" gradientUnits="userSpaceOnUse">
<stop stop-color="#333399"/>
<stop offset="1" stop-color="#333399" stop-opacity="0"/>
</linearGradient>
<linearGradient id="paint11_linear" x1="954.617" y1="526.354" x2="954.617" y2="153.2" gradientUnits="userSpaceOnUse">
<stop stop-color="#333399"/>
<stop offset="1" stop-color="#333399" stop-opacity="0"/>
</linearGradient>
<linearGradient id="paint12_linear" x1="954.84" y1="519.99" x2="954.84" y2="147.438" gradientUnits="userSpaceOnUse">
<stop stop-color="#333399"/>
<stop offset="1" stop-color="#333399" stop-opacity="0"/>
</linearGradient>
<linearGradient id="paint13_linear" x1="955.065" y1="513.626" x2="955.065" y2="141.676" gradientUnits="userSpaceOnUse">
<stop stop-color="#333399"/>
<stop offset="1" stop-color="#333399" stop-opacity="0"/>
</linearGradient>
<linearGradient id="paint14_linear" x1="955.289" y1="507.261" x2="955.289" y2="135.913" gradientUnits="userSpaceOnUse">
<stop stop-color="#333399"/>
<stop offset="1" stop-color="#333399" stop-opacity="0"/>
</linearGradient>
<linearGradient id="paint15_linear" x1="955.513" y1="500.897" x2="955.513" y2="130.151" gradientUnits="userSpaceOnUse">
<stop stop-color="#333399"/>
<stop offset="1" stop-color="#333399" stop-opacity="0"/>
</linearGradient>
<linearGradient id="paint16_linear" x1="955.738" y1="494.533" x2="955.738" y2="124.39" gradientUnits="userSpaceOnUse">
<stop stop-color="#333399"/>
<stop offset="1" stop-color="#333399" stop-opacity="0"/>
</linearGradient>
<linearGradient id="paint17_linear" x1="955.963" y1="488.168" x2="955.963" y2="118.627" gradientUnits="userSpaceOnUse">
<stop stop-color="#333399"/>
<stop offset="1" stop-color="#333399" stop-opacity="0"/>
</linearGradient>
<linearGradient id="paint18_linear" x1="956.187" y1="481.804" x2="956.187" y2="112.865" gradientUnits="userSpaceOnUse">
<stop stop-color="#333399"/>
<stop offset="1" stop-color="#333399" stop-opacity="0"/>
</linearGradient>
<linearGradient id="paint19_linear" x1="956.41" y1="475.439" x2="956.41" y2="107.103" gradientUnits="userSpaceOnUse">
<stop stop-color="#333399"/>
<stop offset="1" stop-color="#333399" stop-opacity="0"/>
</linearGradient>
<linearGradient id="paint20_linear" x1="956.636" y1="469.075" x2="956.636" y2="101.341" gradientUnits="userSpaceOnUse">
<stop stop-color="#333399"/>
<stop offset="1" stop-color="#333399" stop-opacity="0"/>
</linearGradient>
<linearGradient id="paint21_linear" x1="956.859" y1="462.71" x2="956.859" y2="95.5786" gradientUnits="userSpaceOnUse">
<stop stop-color="#333399"/>
<stop offset="1" stop-color="#333399" stop-opacity="0"/>
</linearGradient>
<linearGradient id="paint22_linear" x1="957.084" y1="456.346" x2="957.084" y2="89.8168" gradientUnits="userSpaceOnUse">
<stop stop-color="#333399"/>
<stop offset="1" stop-color="#333399" stop-opacity="0"/>
</linearGradient>
<linearGradient id="paint23_linear" x1="957.308" y1="449.982" x2="957.308" y2="84.0543" gradientUnits="userSpaceOnUse">
<stop stop-color="#333399"/>
<stop offset="1" stop-color="#333399" stop-opacity="0"/>
</linearGradient>
<linearGradient id="paint24_linear" x1="957.532" y1="443.618" x2="957.532" y2="78.2928" gradientUnits="userSpaceOnUse">
<stop stop-color="#333399"/>
<stop offset="1" stop-color="#333399" stop-opacity="0"/>
</linearGradient>
<linearGradient id="paint25_linear" x1="957.757" y1="437.253" x2="957.757" y2="72.5304" gradientUnits="userSpaceOnUse">
<stop stop-color="#333399"/>
<stop offset="1" stop-color="#333399" stop-opacity="0"/>
</linearGradient>
<linearGradient id="paint26_linear" x1="957.98" y1="430.889" x2="957.98" y2="66.7686" gradientUnits="userSpaceOnUse">
<stop stop-color="#333399"/>
<stop offset="1" stop-color="#333399" stop-opacity="0"/>
</linearGradient>
<linearGradient id="paint27_linear" x1="958.205" y1="424.524" x2="958.205" y2="61.0061" gradientUnits="userSpaceOnUse">
<stop stop-color="#333399"/>
<stop offset="1" stop-color="#333399" stop-opacity="0"/>
</linearGradient>
<linearGradient id="paint28_linear" x1="958.43" y1="418.16" x2="958.43" y2="55.2233" gradientUnits="userSpaceOnUse">
<stop stop-color="#333399"/>
<stop offset="1" stop-color="#333399" stop-opacity="0"/>
</linearGradient>
<linearGradient id="paint29_linear" x1="958.654" y1="411.796" x2="958.654" y2="49.3116" gradientUnits="userSpaceOnUse">
<stop stop-color="#333399"/>
<stop offset="1" stop-color="#333399" stop-opacity="0"/>
</linearGradient>
<linearGradient id="paint30_linear" x1="958.878" y1="405.432" x2="958.878" y2="43.2666" gradientUnits="userSpaceOnUse">
<stop stop-color="#333399"/>
<stop offset="1" stop-color="#333399" stop-opacity="0"/>
</linearGradient>
<linearGradient id="paint31_linear" x1="959.103" y1="399.067" x2="959.103" y2="37.0979" gradientUnits="userSpaceOnUse">
<stop stop-color="#333399"/>
<stop offset="1" stop-color="#333399" stop-opacity="0"/>
</linearGradient>
<linearGradient id="paint32_linear" x1="959.327" y1="392.703" x2="959.327" y2="30.8159" gradientUnits="userSpaceOnUse">
<stop stop-color="#333399"/>
<stop offset="1" stop-color="#333399" stop-opacity="0"/>
</linearGradient>
<linearGradient id="paint33_linear" x1="959.551" y1="386.339" x2="959.551" y2="24.4272" gradientUnits="userSpaceOnUse">
<stop stop-color="#333399"/>
<stop offset="1" stop-color="#333399" stop-opacity="0"/>
</linearGradient>
<linearGradient id="paint34_linear" x1="959.776" y1="379.974" x2="959.776" y2="17.9407" gradientUnits="userSpaceOnUse">
<stop stop-color="#333399"/>
<stop offset="1" stop-color="#333399" stop-opacity="0"/>
</linearGradient>
<linearGradient id="paint35_linear" x1="960" y1="373.61" x2="960" y2="11.3627" gradientUnits="userSpaceOnUse">
<stop stop-color="#333399"/>
<stop offset="1" stop-color="#333399" stop-opacity="0"/>
</linearGradient>
<linearGradient id="paint36_linear" x1="960.224" y1="367.245" x2="960.224" y2="4.69958" gradientUnits="userSpaceOnUse">
<stop stop-color="#333399"/>
<stop offset="1" stop-color="#333399" stop-opacity="0"/>
</linearGradient>
<linearGradient id="paint37_linear" x1="960.449" y1="360.881" x2="960.449" y2="-2.04276" gradientUnits="userSpaceOnUse">
<stop stop-color="#333399"/>
<stop offset="1" stop-color="#333399" stop-opacity="0"/>
</linearGradient>
<linearGradient id="paint38_linear" x1="960.672" y1="354.517" x2="960.672" y2="-8.85925" gradientUnits="userSpaceOnUse">
<stop stop-color="#333399"/>
<stop offset="1" stop-color="#333399" stop-opacity="0"/>
</linearGradient>
<linearGradient id="paint39_linear" x1="960.897" y1="348.152" x2="960.897" y2="-15.7457" gradientUnits="userSpaceOnUse">
<stop stop-color="#333399"/>
<stop offset="1" stop-color="#333399" stop-opacity="0"/>
</linearGradient>
<linearGradient id="paint40_linear" x1="961.121" y1="341.788" x2="961.121" y2="-22.6968" gradientUnits="userSpaceOnUse">
<stop stop-color="#333399"/>
<stop offset="1" stop-color="#333399" stop-opacity="0"/>
</linearGradient>
<linearGradient id="paint41_linear" x1="961.346" y1="335.423" x2="961.346" y2="-29.7095" gradientUnits="userSpaceOnUse">
<stop stop-color="#333399"/>
<stop offset="1" stop-color="#333399" stop-opacity="0"/>
</linearGradient>
<linearGradient id="paint42_linear" x1="961.571" y1="329.059" x2="961.571" y2="-36.7786" gradientUnits="userSpaceOnUse">
<stop stop-color="#333399"/>
<stop offset="1" stop-color="#333399" stop-opacity="0"/>
</linearGradient>
<linearGradient id="paint43_linear" x1="961.795" y1="322.695" x2="961.795" y2="-43.9025" gradientUnits="userSpaceOnUse">
<stop stop-color="#333399"/>
<stop offset="1" stop-color="#333399" stop-opacity="0"/>
</linearGradient>
<linearGradient id="paint44_linear" x1="962.019" y1="316.33" x2="962.019" y2="-51.0777" gradientUnits="userSpaceOnUse">
<stop stop-color="#333399"/>
<stop offset="1" stop-color="#333399" stop-opacity="0"/>
</linearGradient>
<linearGradient id="paint45_linear" x1="962.243" y1="309.966" x2="962.243" y2="-58.3" gradientUnits="userSpaceOnUse">
<stop stop-color="#333399"/>
<stop offset="1" stop-color="#333399" stop-opacity="0"/>
</linearGradient>
<linearGradient id="paint46_linear" x1="962.467" y1="303.602" x2="962.467" y2="-65.5683" gradientUnits="userSpaceOnUse">
<stop stop-color="#333399"/>
<stop offset="1" stop-color="#333399" stop-opacity="0"/>
</linearGradient>
<linearGradient id="paint47_linear" x1="962.692" y1="297.237" x2="962.692" y2="-72.8793" gradientUnits="userSpaceOnUse">
<stop stop-color="#333399"/>
<stop offset="1" stop-color="#333399" stop-opacity="0"/>
</linearGradient>
<linearGradient id="paint48_linear" x1="962.916" y1="290.873" x2="962.916" y2="-80.231" gradientUnits="userSpaceOnUse">
<stop stop-color="#333399"/>
<stop offset="1" stop-color="#333399" stop-opacity="0"/>
</linearGradient>
<linearGradient id="paint49_linear" x1="963.14" y1="284.508" x2="963.14" y2="-87.6208" gradientUnits="userSpaceOnUse">
<stop stop-color="#333399"/>
<stop offset="1" stop-color="#333399" stop-opacity="0"/>
</linearGradient>
<linearGradient id="paint50_linear" x1="963.364" y1="278.144" x2="963.364" y2="-95.0473" gradientUnits="userSpaceOnUse">
<stop stop-color="#333399"/>
<stop offset="1" stop-color="#333399" stop-opacity="0"/>
</linearGradient>
<linearGradient id="paint51_linear" x1="963.589" y1="271.78" x2="963.589" y2="-102.508" gradientUnits="userSpaceOnUse">
<stop stop-color="#333399"/>
<stop offset="1" stop-color="#333399" stop-opacity="0"/>
</linearGradient>
</defs>
</svg>
