<svg width="770" height="478" viewBox="0 0 770 478" fill="none" xmlns="http://www.w3.org/2000/svg">
<g opacity="0.2">
<path d="M-436.83 420.576C-435.311 414.649 -439.475 413.179 -429.237 390.939C-358.533 237.352 -259.46 63.684 -81.187 41.4197C65.3148 23.1232 2.76064 272.455 119.903 281.209C342.586 297.851 536.742 -142.73 741.054 -55.5739C842.201 -12.4262 758.193 191.259 848.09 210.669C897.458 221.328 915.437 138.641 964.433 139.393C1008.22 140.065 1049.64 228.125 1092.53 214.587C1259 162.052 1285.21 -85.312 1510.76 -46.7563C1669.14 -19.6824 1663.23 218.874 1765.36 314.765" stroke="url(#paint0_linear)" stroke-linecap="round" stroke-linejoin="round"/>
<path d="M-428.012 460.255C-383.645 424.318 -256.742 386.669 -209.287 438.211C-135.28 518.593 -226.452 686.065 -125.765 745.848C113.986 888.2 222.088 517.57 429.499 517.57C468.468 517.57 443.194 622.866 485.221 638.812C632.254 694.599 742.921 246.435 882.625 337.177C988.262 405.79 924.962 678.664 1031.3 678.491C1105.61 678.37 1196.03 480.311 1269.37 545.247C1411.82 671.36 1605.06 621.901 1730.58 500.18C1762.92 468.828 1746.06 458.443 1756.55 435.027C1767.03 411.612 1777.71 393.487 1783 383.101" stroke="url(#paint1_linear)" stroke-linecap="round" stroke-linejoin="round"/>
<path d="M-436.657 421.354C-435.043 417.744 -433.203 415.193 -431.852 412.392C-429.981 410.156 -430.28 407.628 -423.287 397.898C-349.268 250.114 -250.018 72.5838 -71.1736 50.756C73.2198 32.8182 11.3965 279.326 127.066 288.221C348.266 305.631 540.785 -135.099 743.83 -47.8729C845.065 -4.22581 761.463 200.816 851.682 219.842C901.539 230.289 920.939 145.34 970.412 147.351C1016.13 150.483 1060.53 235.846 1105.04 220.187C1268.88 168.067 1294.24 -74.6501 1515.58 -37.3095C1671.06 -11.2256 1665.47 222.298 1765.71 316.105" stroke="url(#paint2_linear)"/>
<path d="M-436.484 422.132C-434.015 417.875 -429.674 414.622 -427.401 412.907C-424.087 412.324 -426.203 413.196 -417.336 404.857C-340.003 262.875 -240.576 81.4831 -61.1601 60.0918C81.1248 42.5128 20.0326 286.196 134.229 295.233C353.946 313.409 544.828 -127.469 746.606 -40.1723C847.929 3.97407 764.733 210.373 855.274 229.014C905.621 239.25 926.441 152.039 976.391 155.308C1024.05 160.9 1071.42 243.567 1117.55 225.787C1278.76 174.082 1303.28 -63.9887 1520.4 -27.8632C1672.98 -2.76932 1667.72 225.721 1766.06 317.445" stroke="url(#paint3_linear)"/>
<path d="M-436.311 422.91C-432.987 418.007 -426.144 414.052 -422.95 413.424C-418.193 414.493 -422.127 418.765 -411.386 411.816C-330.738 275.637 -231.134 90.3829 -51.1467 69.4282C89.0298 52.2079 28.6684 293.067 141.392 302.244C359.625 321.189 548.87 -119.838 749.382 -32.4713C850.793 12.1745 768.003 219.93 858.867 238.187C909.702 248.212 931.942 158.739 982.371 163.266C1031.96 171.317 1082.31 251.288 1130.07 231.387C1288.65 180.097 1312.32 -53.3267 1525.21 -18.4164C1674.9 5.68748 1669.96 229.145 1766.4 318.785" stroke="url(#paint4_linear)"/>
<path d="M-436.139 423.688C-431.959 418.138 -422.615 413.481 -418.498 413.94C-412.299 416.661 -418.05 424.334 -405.435 418.775C-321.473 288.399 -221.691 99.2824 -41.1333 78.7643C96.9347 61.9028 37.3044 299.938 148.556 309.256C365.305 328.968 552.913 -112.207 752.157 -24.7704C853.657 20.3746 771.273 229.486 862.459 247.36C913.784 257.174 937.444 165.438 988.35 171.224C1039.87 181.735 1093.2 259.009 1142.58 236.986C1298.53 186.112 1321.35 -42.6651 1530.03 -8.96985C1676.82 14.1441 1672.21 232.568 1766.75 320.124" stroke="url(#paint5_linear)"/>
<path d="M-435.966 424.466C-430.931 418.269 -419.086 412.91 -414.047 414.456C-406.405 418.83 -413.973 429.902 -399.485 425.734C-312.208 301.16 -212.249 108.182 -31.1198 88.1004C104.84 71.5976 45.9404 306.808 155.719 316.268C370.985 336.747 556.956 -104.577 754.933 -17.0696C856.521 28.5748 774.543 239.043 866.052 256.533C917.865 266.135 942.946 172.137 994.329 179.182C1047.79 192.152 1104.09 266.73 1155.09 242.586C1308.41 192.127 1330.39 -32.0034 1534.85 0.476709C1678.74 22.6006 1674.45 235.992 1767.09 321.464" stroke="url(#paint6_linear)"/>
<path d="M-435.793 425.244C-429.903 418.401 -415.557 412.34 -409.596 414.973C-400.511 420.999 -409.897 435.471 -393.535 432.693C-302.943 313.922 -202.807 117.082 -21.1063 97.4367C112.745 81.2927 54.5763 313.679 162.882 323.28C376.665 344.527 560.999 -96.9461 757.709 -9.36857C859.385 36.7752 777.813 248.6 869.644 265.706C921.947 275.097 948.448 178.837 1000.31 187.14C1055.7 202.57 1114.98 274.451 1167.6 248.186C1318.29 198.143 1339.42 -21.3414 1539.67 9.92352C1680.66 31.0574 1676.7 239.416 1767.44 322.804" stroke="url(#paint7_linear)"/>
<path d="M-435.62 426.022C-428.875 418.532 -412.028 411.769 -405.144 415.489C-394.617 423.167 -405.82 441.04 -387.584 439.652C-293.678 326.684 -193.365 125.981 -11.0929 106.773C120.65 90.9876 63.2122 320.55 170.045 330.291C382.345 352.306 565.041 -89.3156 760.485 -1.66775C862.249 44.9753 781.083 258.157 873.236 274.879C926.028 284.058 953.95 185.536 1006.29 195.098C1063.62 212.987 1125.87 282.172 1180.11 253.786C1328.17 204.158 1348.46 -10.6797 1544.49 19.3701C1682.57 39.514 1678.94 242.84 1767.79 324.144" stroke="url(#paint8_linear)"/>
<path d="M-435.447 426.8C-427.847 418.664 -408.498 411.199 -400.693 416.005C-388.723 425.336 -401.744 446.608 -381.634 446.61C-284.412 339.445 -183.923 134.881 -1.07941 116.109C128.555 100.682 71.8482 327.42 177.208 337.303C388.024 360.085 569.084 -81.6851 763.261 6.03308C865.113 53.1755 784.353 267.714 876.829 284.052C930.11 293.02 959.451 192.235 1012.27 203.055C1071.53 223.405 1136.76 289.893 1192.62 259.385C1338.05 210.173 1357.5 -0.0180397 1549.31 28.8167C1684.49 47.9706 1681.19 246.263 1768.13 325.484" stroke="url(#paint9_linear)"/>
<path d="M-435.274 427.578C-426.819 418.795 -404.969 410.628 -396.242 416.522C-382.829 427.505 -397.667 452.177 -375.683 453.569C-275.147 352.207 -174.481 143.781 8.93399 125.445C136.46 110.378 80.4841 334.291 184.371 344.315C393.704 367.865 573.127 -74.0543 766.037 13.7342C867.977 61.3759 787.623 277.271 880.421 293.225C934.191 301.981 964.953 198.935 1018.25 211.013C1079.44 233.822 1147.65 297.614 1205.13 264.985C1347.93 216.188 1366.53 10.6439 1554.13 38.2635C1686.41 56.4275 1683.43 249.687 1768.48 326.824" stroke="url(#paint10_linear)"/>
<path d="M-435.101 428.355C-425.791 418.926 -401.44 410.057 -391.79 417.038C-376.935 429.673 -393.591 457.745 -369.733 460.528C-265.882 364.968 -165.039 152.68 18.9475 134.781C144.365 120.072 89.1202 341.162 191.534 351.326C399.384 375.644 577.17 -66.424 768.813 21.4348C870.841 69.5758 790.893 286.827 884.013 302.397C938.273 310.942 970.455 205.634 1024.23 218.971C1087.36 244.239 1158.54 305.335 1217.64 270.585C1357.81 222.203 1375.57 21.3054 1558.95 47.7098C1688.33 64.8838 1685.67 253.11 1768.82 328.163" stroke="url(#paint11_linear)"/>
<path d="M-434.928 429.133C-424.763 419.058 -397.911 409.487 -387.339 417.554C-371.041 431.842 -389.514 463.314 -363.782 467.487C-256.617 377.73 -155.597 161.58 28.9609 144.118C152.27 129.767 97.756 348.033 198.697 358.338C405.064 383.423 581.212 -58.7933 771.589 29.1358C873.705 77.7763 794.163 296.385 887.606 311.57C942.354 319.904 975.957 212.333 1030.2 226.929C1095.27 254.657 1169.43 313.056 1230.15 276.185C1367.69 228.218 1384.61 31.9673 1563.77 57.1567C1690.25 73.3407 1687.92 256.534 1769.17 329.503" stroke="url(#paint12_linear)"/>
<path d="M-434.755 429.911C-423.735 419.189 -394.381 408.916 -382.888 418.071C-365.147 434.01 -385.438 468.883 -357.832 474.446C-247.352 390.492 -146.155 170.479 38.9743 153.454C160.174 139.462 106.392 354.903 205.86 365.35C410.743 391.202 585.255 -51.1627 774.365 36.8367C876.569 85.9765 797.433 305.941 891.198 320.743C946.435 328.866 981.459 219.033 1036.18 234.887C1103.18 265.074 1180.32 320.777 1242.66 281.784C1377.57 234.233 1393.64 42.6291 1568.59 66.6033C1692.17 81.7973 1690.16 259.958 1769.51 330.843" stroke="url(#paint13_linear)"/>
<path d="M-434.582 430.689C-422.707 419.32 -390.852 408.346 -378.436 418.587C-359.253 436.179 -381.361 474.451 -351.881 481.405C-238.087 403.253 -136.712 179.379 48.9879 162.79C168.08 149.157 115.028 361.774 213.023 372.361C416.423 398.982 589.298 -43.5322 777.141 44.5375C879.433 94.1766 800.703 315.498 894.79 329.916C950.517 337.827 986.961 225.732 1042.16 242.845C1111.1 275.492 1191.21 328.498 1255.17 287.384C1387.45 240.248 1402.68 53.2908 1573.41 76.0499C1694.09 90.2539 1692.41 263.382 1769.86 332.183" stroke="url(#paint14_linear)"/>
<path d="M-434.41 431.467C-421.679 419.452 -387.323 407.776 -373.985 419.103C-353.359 438.348 -377.284 480.02 -345.931 488.364C-228.822 416.015 -127.27 188.279 59.0013 172.126C175.984 158.852 123.664 368.645 220.187 379.373C422.103 406.761 593.34 -35.9014 779.917 52.2387C882.296 102.377 803.973 325.055 898.383 339.089C954.598 346.789 992.462 232.431 1048.14 250.803C1119.01 285.91 1202.1 336.219 1267.68 292.984C1397.33 246.264 1411.72 63.9528 1578.23 85.4967C1696.01 98.7108 1694.65 266.805 1770.21 333.523" stroke="url(#paint15_linear)"/>
<path d="M-434.237 432.245C-420.652 419.583 -383.794 407.205 -369.534 419.62C-347.465 440.516 -373.208 485.589 -339.981 495.323C-219.557 428.777 -117.828 197.178 69.0147 181.462C183.889 168.547 132.3 375.516 227.35 386.385C427.783 414.54 597.383 -28.2708 782.693 59.9395C885.16 110.577 807.243 334.612 901.975 348.262C958.68 355.75 997.964 239.131 1054.12 258.76C1126.92 296.327 1213 343.94 1280.2 298.584C1407.21 252.279 1420.75 74.6145 1583.05 94.9434C1697.93 107.167 1696.9 270.229 1770.55 334.863" stroke="url(#paint16_linear)"/>
<path d="M-434.064 433.023C-419.623 419.715 -380.264 406.634 -365.083 420.136C-341.571 442.685 -369.131 491.158 -334.03 502.282C-210.292 441.538 -108.386 206.078 79.0282 190.799C191.794 178.242 140.936 382.386 234.513 393.397C433.463 422.32 601.426 -20.6402 785.469 67.6404C888.024 118.778 810.513 344.169 905.567 357.435C962.761 364.712 1003.47 245.83 1060.1 266.718C1134.84 306.744 1223.89 351.661 1292.71 304.183C1417.09 258.294 1429.79 85.2763 1587.87 104.39C1699.85 115.624 1699.14 273.653 1770.9 336.202" stroke="url(#paint17_linear)"/>
<path d="M-433.891 433.801C-418.596 419.846 -376.735 406.064 -360.631 420.652C-335.677 444.854 -365.055 496.726 -328.08 509.241C-201.027 454.3 -98.944 214.978 89.0416 200.135C199.699 187.937 149.572 389.257 241.676 400.409C439.142 430.099 605.469 -13.0094 788.244 75.3415C890.888 126.978 813.783 353.726 909.16 366.608C966.843 373.674 1008.97 252.529 1066.08 274.676C1142.75 317.162 1234.78 359.383 1305.22 309.783C1426.97 264.309 1438.83 95.9383 1592.69 113.837C1701.77 124.081 1701.39 277.077 1771.24 337.543" stroke="url(#paint18_linear)"/>
<path d="M-433.718 434.579C-417.568 419.978 -373.206 405.493 -356.18 421.169C-329.783 447.023 -360.978 502.295 -322.129 516.2C-191.762 467.062 -89.502 223.878 99.055 209.471C207.604 197.632 158.208 396.128 248.839 407.42C444.822 437.878 609.511 -5.37885 791.02 83.0424C893.752 135.178 817.053 363.283 912.752 375.781C970.924 382.635 1014.47 259.229 1072.06 282.634C1150.67 327.58 1245.67 367.104 1317.73 315.383C1436.85 270.324 1447.86 106.6 1597.51 123.283C1703.69 132.538 1703.63 280.5 1771.59 338.882" stroke="url(#paint19_linear)"/>
<path d="M-433.545 435.357C-416.54 420.109 -369.677 404.923 -351.729 421.685C-323.889 449.191 -356.902 507.864 -316.179 523.159C-182.497 479.823 -80.0597 232.777 109.069 218.807C215.509 207.327 166.844 402.999 256.002 414.432C450.502 445.658 613.554 2.25172 793.796 90.7433C896.616 143.378 820.323 372.84 916.344 384.954C975.006 391.597 1019.97 265.928 1078.04 290.592C1158.58 337.997 1256.56 374.825 1330.24 320.983C1446.74 276.34 1456.9 117.262 1602.33 132.73C1705.61 140.994 1705.88 283.924 1771.93 340.222" stroke="url(#paint20_linear)"/>
<path d="M-433.372 436.135C-415.512 420.241 -366.148 404.353 -347.277 422.202C-317.995 451.36 -352.825 513.433 -310.228 530.118C-173.232 492.585 -70.6177 241.677 119.082 228.144C223.414 217.022 175.479 409.869 263.165 421.444C456.182 453.437 617.597 9.88256 796.572 98.4444C899.48 151.579 823.593 382.397 919.937 394.127C979.087 400.558 1025.47 272.628 1084.02 298.55C1166.49 348.415 1267.45 382.546 1342.75 326.583C1456.62 282.355 1465.93 127.924 1607.15 142.177C1707.53 149.451 1708.12 287.348 1772.28 341.562" stroke="url(#paint21_linear)"/>
<path d="M-433.199 436.913C-414.484 420.372 -362.618 403.782 -342.826 422.718C-312.101 453.529 -348.749 519.001 -304.278 537.076C-163.967 505.347 -61.1756 250.576 129.095 237.48C231.319 226.717 184.115 416.74 270.328 428.456C461.861 461.216 621.639 17.5129 799.348 106.145C902.344 159.779 826.863 391.954 923.529 403.3C983.169 409.52 1030.97 279.327 1090 306.508C1174.41 358.832 1278.34 390.267 1355.26 332.182C1466.5 288.37 1474.97 138.585 1611.96 151.623C1709.45 157.907 1710.37 290.771 1772.63 342.902" stroke="url(#paint22_linear)"/>
<path d="M-433.026 437.691C-413.456 420.503 -359.089 403.211 -338.375 423.234C-306.207 455.697 -344.672 524.57 -298.327 544.035C-154.701 518.108 -51.7334 259.476 139.109 246.816C239.224 236.412 192.751 423.611 277.491 435.468C467.541 468.996 625.682 25.1437 802.124 113.846C905.208 167.979 830.133 401.511 927.122 412.473C987.25 418.481 1036.48 286.026 1095.98 314.466C1182.32 369.25 1289.23 397.988 1367.77 337.782C1476.38 294.385 1484.01 149.247 1616.78 161.07C1711.37 166.364 1712.61 294.195 1772.97 344.242" stroke="url(#paint23_linear)"/>
<path d="M-432.854 438.469C-412.428 420.635 -355.56 402.641 -333.924 423.751C-300.313 457.866 -340.595 530.138 -292.377 550.994C-145.436 530.87 -42.2914 268.376 149.122 256.152C247.129 246.107 201.387 430.482 284.654 442.479C473.221 476.775 629.725 32.7743 804.9 121.547C908.072 176.18 833.403 411.068 930.714 421.646C991.331 427.443 1041.98 292.726 1101.96 322.424C1190.23 379.667 1300.12 405.709 1380.28 343.382C1486.26 300.4 1493.04 159.909 1621.6 170.517C1713.29 174.821 1714.86 297.619 1773.32 345.582" stroke="url(#paint24_linear)"/>
<path d="M-432.681 439.247C-411.4 420.766 -352.031 402.07 -329.472 424.267C-294.419 460.035 -336.519 535.707 -286.427 557.953C-136.171 543.632 -32.8493 277.276 159.136 265.489C255.034 255.802 210.023 437.352 291.817 449.491C478.901 484.554 633.768 40.405 807.676 129.248C910.936 184.38 836.673 420.625 934.306 430.819C995.413 436.404 1047.48 299.425 1107.93 330.381C1198.15 390.085 1311.01 413.43 1392.79 348.982C1496.14 306.415 1502.08 170.571 1626.42 179.964C1715.21 183.278 1717.1 301.043 1773.66 346.922" stroke="url(#paint25_linear)"/>
<path d="M-432.508 440.025C-410.372 420.898 -348.501 401.5 -325.021 424.783C-288.525 462.204 -332.442 541.276 -280.476 564.912C-126.906 556.394 -23.4071 286.175 169.149 274.825C262.939 265.497 218.659 444.223 298.981 456.503C484.58 492.334 637.81 48.0358 810.452 136.949C913.8 192.58 839.943 430.182 937.899 439.992C999.494 445.366 1052.98 306.125 1113.91 338.34C1206.06 400.502 1321.9 421.151 1405.3 354.582C1506.02 312.431 1511.12 181.233 1631.24 189.411C1717.12 191.735 1719.35 304.467 1774.01 348.262" stroke="url(#paint26_linear)"/>
<path d="M-432.335 440.803C-409.344 421.029 -344.972 400.93 -320.57 425.3C-282.631 464.372 -328.366 546.845 -274.526 571.871C-117.641 569.155 -13.9651 295.075 179.163 284.161C270.844 275.192 227.295 451.094 306.144 463.515C490.26 500.113 641.853 55.6664 813.228 144.65C916.664 200.781 843.213 439.739 941.491 449.165C1003.58 454.328 1058.48 312.824 1119.89 346.297C1213.98 410.92 1332.79 428.872 1417.81 360.182C1515.9 318.446 1520.15 191.895 1636.06 198.857C1719.04 200.191 1721.59 307.891 1774.36 349.602" stroke="url(#paint27_linear)"/>
<path d="M-432.162 441.581C-408.316 421.161 -341.443 400.359 -316.118 425.816C-276.737 466.541 -324.289 552.413 -268.575 578.83C-108.376 581.917 -4.52286 303.975 189.176 293.497C278.749 284.887 235.931 457.965 313.307 470.527C495.94 507.893 645.896 63.2971 816.004 152.351C919.528 208.981 846.483 449.295 945.083 458.338C1007.66 463.289 1063.99 319.523 1125.87 354.255C1221.89 421.337 1343.68 436.593 1430.32 365.782C1525.78 324.461 1529.19 202.557 1640.88 208.304C1720.96 208.648 1723.84 311.314 1774.7 350.941" stroke="url(#paint28_linear)"/>
<path d="M-431.989 442.359C-407.288 421.292 -337.914 399.789 -311.667 426.333C-270.843 468.71 -320.213 557.982 -262.625 585.789C-99.111 594.679 4.91924 312.875 199.19 302.834C286.654 294.583 244.567 464.836 320.47 477.539C501.62 515.672 649.939 70.9279 818.779 160.052C922.392 217.181 849.753 458.853 948.676 467.511C1011.74 472.251 1069.49 326.223 1131.85 362.213C1229.8 431.755 1354.57 444.315 1442.84 371.382C1535.66 330.477 1538.23 213.219 1645.7 217.751C1722.88 217.105 1726.08 314.738 1775.05 352.282" stroke="url(#paint29_linear)"/>
<path d="M-431.816 443.137C-406.26 421.424 -334.385 399.218 -307.216 426.849C-264.949 470.878 -316.136 563.551 -256.674 592.748C-89.846 607.44 14.3613 321.774 209.203 312.17C294.559 304.277 253.203 471.706 327.633 484.55C507.299 523.451 653.981 78.5583 821.555 167.753C925.256 225.381 853.023 468.409 952.268 476.683C1015.82 481.212 1074.99 332.922 1137.83 370.171C1237.72 442.172 1365.46 452.035 1455.35 376.981C1545.54 336.492 1547.26 223.88 1650.52 227.197C1724.8 225.561 1728.32 318.162 1775.39 353.621" stroke="url(#paint30_linear)"/>
<path d="M-431.643 443.915C-405.232 421.555 -330.855 398.648 -302.764 427.365C-259.055 473.047 -312.06 569.12 -250.724 599.707C-80.5808 620.202 23.8035 330.674 219.216 321.506C302.464 313.973 261.839 478.577 334.796 491.562C512.979 531.231 658.024 86.1892 824.331 175.454C928.12 233.582 856.293 477.966 955.86 485.857C1019.9 490.174 1080.49 339.622 1143.81 378.129C1245.63 452.59 1376.35 459.757 1467.86 382.581C1555.42 342.507 1556.3 234.542 1655.34 236.644C1726.72 234.018 1730.57 321.586 1775.74 354.961" stroke="url(#paint31_linear)"/>
<path d="M-431.47 444.693C-404.204 421.687 -327.326 398.077 -298.313 427.882C-253.161 475.216 -307.983 574.688 -244.774 606.666C-71.3158 632.964 33.2455 339.574 229.23 330.843C310.369 323.668 270.475 485.448 341.959 498.574C518.659 539.01 662.067 93.8198 827.107 183.155C930.984 241.782 859.563 487.523 959.453 495.03C1023.98 499.136 1085.99 346.321 1149.79 386.087C1253.54 463.008 1387.25 467.478 1480.37 388.181C1565.3 348.522 1565.34 245.204 1660.16 246.091C1728.64 242.475 1732.81 325.009 1776.08 356.301" stroke="url(#paint32_linear)"/>
<path d="M-431.297 445.471C-403.176 421.818 -323.797 397.507 -293.862 428.398C-247.267 477.385 -303.907 580.257 -238.823 613.625C-62.0508 645.725 42.6876 348.473 239.243 340.179C318.274 333.363 279.111 492.319 349.122 505.586C524.339 546.789 666.109 101.45 829.883 190.856C933.847 249.983 862.833 497.08 963.045 504.203C1028.06 508.097 1091.49 353.02 1155.77 394.045C1261.46 473.425 1398.14 475.199 1492.88 393.781C1575.18 354.537 1574.37 255.866 1664.98 255.538C1730.56 250.932 1735.06 328.433 1776.43 357.641" stroke="url(#paint33_linear)"/>
<path d="M-431.125 446.25C-402.148 421.95 -320.268 396.936 -289.41 428.915C-241.373 479.554 -299.83 585.826 -232.873 620.584C-52.7856 658.487 52.1298 357.373 249.257 349.515C326.179 343.058 287.747 499.19 356.285 512.598C530.019 554.569 670.152 109.081 832.659 198.557C936.711 258.183 866.103 506.638 966.637 513.376C1032.15 517.059 1097 359.72 1161.75 402.003C1269.37 483.843 1409.03 482.92 1505.39 399.381C1585.06 360.553 1583.41 266.528 1669.8 264.985C1732.48 259.389 1737.3 331.857 1776.78 358.981" stroke="url(#paint34_linear)"/>
<path d="M-430.952 447.028C-401.12 422.081 -316.738 396.366 -284.959 429.431C-235.479 481.723 -295.753 591.395 -226.922 627.543C-43.5206 671.249 61.5718 366.273 259.27 358.852C334.084 352.753 296.383 506.061 363.448 519.609C535.698 562.348 674.195 116.712 835.435 206.258C939.575 266.383 869.373 516.194 970.23 522.549C1036.23 526.021 1102.5 366.419 1167.73 409.961C1277.29 494.26 1419.92 490.641 1517.9 404.981C1594.94 366.568 1592.44 277.19 1674.62 274.431C1734.4 267.846 1739.55 335.281 1777.12 360.321" stroke="url(#paint35_linear)"/>
<path d="M-430.779 447.806C-400.092 422.213 -313.209 395.795 -280.508 429.948C-229.585 483.891 -291.677 596.963 -220.972 634.502C-34.2556 684.011 71.0139 375.173 269.284 368.188C341.989 362.448 305.019 512.931 370.612 526.621C541.378 570.128 678.238 124.343 838.211 213.959C942.439 274.584 872.643 525.751 973.822 531.722C1040.31 534.982 1108 373.119 1173.71 417.919C1285.2 504.678 1430.81 498.362 1530.41 410.581C1604.83 372.583 1601.48 287.852 1679.44 283.878C1736.32 276.302 1741.79 338.705 1777.47 361.661" stroke="url(#paint36_linear)"/>
<path d="M-430.606 448.584C-399.064 422.345 -309.68 395.225 -276.057 430.464C-223.69 486.06 -287.6 602.532 -215.021 641.462C-24.9904 696.773 80.4561 384.073 279.297 377.524C349.894 372.143 313.655 519.803 377.775 533.633C547.058 577.907 682.28 131.974 840.987 221.66C945.303 282.784 875.913 535.309 977.415 540.895C1044.39 543.944 1113.5 379.818 1179.69 425.877C1293.11 515.096 1441.7 506.084 1542.92 416.181C1614.71 378.599 1610.52 298.514 1684.26 293.325C1738.24 284.759 1744.04 342.129 1777.81 363.001" stroke="url(#paint37_linear)"/>
<path d="M-430.433 449.362C-398.037 422.476 -306.151 394.655 -271.605 430.981C-217.797 488.229 -283.524 608.101 -209.071 648.421C-15.7254 709.534 89.8981 392.972 289.311 386.861C357.799 381.838 322.291 526.673 384.938 540.645C552.738 585.687 686.323 139.604 843.763 229.361C948.167 290.985 879.183 544.866 981.007 550.068C1048.47 552.906 1119 386.518 1185.67 433.835C1301.03 525.513 1452.59 513.805 1555.43 421.78C1624.59 384.614 1619.55 309.176 1689.08 302.772C1740.16 293.216 1746.28 345.552 1778.16 364.341" stroke="url(#paint38_linear)"/>
<path d="M-430.26 450.14C-397.009 422.607 -302.622 394.084 -267.154 431.497C-211.903 490.398 -279.447 613.67 -203.121 655.38C-6.46039 722.296 99.3402 401.872 299.324 396.197C365.704 391.533 330.926 533.544 392.101 547.657C558.417 593.466 690.366 147.235 846.538 237.062C951.031 299.185 882.452 554.423 984.599 559.241C1052.55 561.868 1124.51 393.217 1191.64 441.793C1308.94 535.931 1463.48 521.526 1567.94 427.38C1634.47 390.629 1628.59 319.838 1693.89 312.218C1742.08 301.673 1748.53 348.976 1778.5 365.681" stroke="url(#paint39_linear)"/>
<path d="M-430.087 450.918C-395.981 422.739 -299.092 393.514 -262.703 432.014C-206.008 492.567 -275.371 619.239 -197.17 662.339C2.80476 735.058 108.782 410.772 309.337 405.534C373.609 401.228 339.562 540.415 399.264 554.669C564.097 601.246 694.409 154.866 849.314 244.764C953.895 307.386 885.722 563.98 988.192 568.414C1056.63 570.829 1130.01 399.917 1197.62 449.751C1316.85 546.349 1474.37 529.247 1580.45 432.98C1644.35 396.645 1637.63 330.5 1698.71 321.665C1744 310.13 1750.77 352.4 1778.85 367.021" stroke="url(#paint40_linear)"/>
<path d="M-429.914 451.696C-394.953 422.87 -295.563 392.943 -258.251 432.53C-200.115 494.735 -271.294 624.807 -191.22 669.298C12.0698 747.82 118.224 419.672 319.351 414.87C381.514 410.923 348.198 547.286 406.427 561.681C569.777 609.025 698.451 162.496 852.09 252.464C956.759 315.586 888.993 573.537 991.784 577.587C1060.72 579.791 1135.51 406.616 1203.6 457.709C1324.77 556.766 1485.26 536.968 1592.97 438.58C1654.23 402.659 1646.66 341.161 1703.53 331.112C1745.92 318.586 1753.02 355.824 1779.2 368.361" stroke="url(#paint41_linear)"/>
<path d="M-429.741 452.474C-393.925 423.002 -292.034 392.373 -253.8 433.046C-194.221 496.904 -267.218 630.376 -185.269 676.257C21.3348 760.581 127.667 428.572 329.364 424.206C389.419 420.619 356.834 554.157 413.59 568.693C575.457 616.805 702.494 170.127 854.866 260.166C959.623 323.786 892.262 583.094 995.376 586.76C1064.8 588.753 1141.01 413.316 1209.58 465.667C1332.68 567.184 1496.15 544.69 1605.48 444.18C1664.11 408.675 1655.7 351.823 1708.35 340.559C1747.84 327.043 1755.26 359.248 1779.54 369.701" stroke="url(#paint42_linear)"/>
<path d="M-429.568 453.252C-392.897 423.134 -288.505 391.803 -249.349 433.563C-188.326 499.073 -263.141 635.945 -179.319 683.216C30.6 773.343 137.109 437.471 339.378 433.542C397.324 430.314 365.47 561.028 420.753 575.705C581.136 624.584 706.537 177.758 857.642 267.867C962.487 331.987 895.532 592.651 998.969 595.933C1068.88 597.714 1146.51 420.015 1215.56 473.625C1340.6 577.601 1507.04 552.411 1617.99 449.78C1673.99 414.69 1664.74 362.485 1713.17 350.006C1749.76 335.5 1757.51 362.672 1779.89 371.041" stroke="url(#paint43_linear)"/>
<path d="M-429.396 454.03C-391.869 423.265 -284.975 391.232 -244.898 434.079C-182.432 501.242 -259.064 641.514 -173.368 690.175C39.865 786.105 146.551 446.371 349.391 442.879C405.229 440.009 374.106 567.898 427.916 582.716C586.816 632.363 710.58 185.389 860.418 275.568C965.351 340.187 898.802 602.208 1002.56 605.106C1072.96 606.676 1152.01 426.715 1221.54 481.583C1348.51 588.019 1517.93 560.132 1630.5 455.38C1683.87 420.705 1673.77 373.147 1717.99 359.453C1751.67 343.957 1759.75 366.096 1780.23 372.381" stroke="url(#paint44_linear)"/>
<path d="M-429.223 454.809C-390.841 423.397 -281.446 390.662 -240.446 434.596C-176.538 503.411 -254.988 647.083 -167.418 697.134C49.1301 798.867 155.993 455.271 359.405 452.215C413.134 449.704 382.742 574.77 435.08 589.728C592.496 640.143 714.622 193.02 863.194 283.269C968.215 348.388 902.072 611.765 1006.15 614.279C1077.04 615.638 1157.52 433.414 1227.52 489.541C1356.42 598.437 1528.82 567.853 1643.01 460.98C1693.75 426.721 1682.81 383.809 1722.81 368.9C1753.59 352.414 1762 369.52 1780.58 373.721" stroke="url(#paint45_linear)"/>
<path d="M-429.05 455.587C-389.813 423.528 -277.917 390.092 -235.995 435.112C-170.644 505.58 -250.911 652.652 -161.467 704.093C58.3952 811.629 165.435 464.171 369.418 461.552C421.039 459.399 391.378 581.64 442.243 596.74C598.176 647.922 718.665 200.65 865.97 290.97C971.079 356.588 905.342 621.322 1009.75 623.452C1081.12 624.599 1163.02 440.114 1233.5 497.499C1364.34 608.854 1539.71 575.574 1655.52 466.58C1703.63 432.736 1691.85 394.471 1727.63 378.346C1755.51 360.871 1764.24 372.943 1780.93 375.061" stroke="url(#paint46_linear)"/>
<path d="M-428.877 456.365C-388.785 423.66 -274.388 389.521 -231.544 435.629C-164.75 507.748 -246.835 658.22 -155.517 711.052C67.6602 824.39 174.877 473.071 379.432 470.888C428.944 469.094 400.014 588.511 449.406 603.752C603.855 655.702 722.708 208.281 868.746 298.671C973.942 364.788 908.612 630.879 1013.34 632.625C1085.21 633.561 1168.52 446.813 1239.48 505.457C1372.25 619.272 1550.61 583.295 1668.03 472.18C1713.51 438.751 1700.88 405.133 1732.45 387.793C1757.43 369.327 1766.49 376.367 1781.27 376.401" stroke="url(#paint47_linear)"/>
<path d="M-428.704 457.143C-387.757 423.792 -270.858 388.951 -227.092 436.146C-158.856 509.917 -242.758 663.789 -149.567 718.011C76.9254 837.152 184.319 481.971 389.445 480.224C436.849 478.789 408.65 595.382 456.569 610.764C609.535 663.481 726.751 215.912 871.522 306.372C976.807 372.989 911.882 640.436 1016.93 641.799C1089.29 642.523 1174.02 453.513 1245.46 513.415C1380.16 629.69 1561.5 591.017 1680.54 477.78C1723.39 444.767 1709.92 415.795 1737.27 397.24C1759.35 377.784 1768.73 379.791 1781.62 377.742" stroke="url(#paint48_linear)"/>
<path d="M-428.531 457.921C-386.729 423.923 -267.329 388.38 -222.641 436.662C-152.962 512.086 -238.682 669.358 -143.616 724.97C86.1904 849.914 193.761 490.87 399.458 489.561C444.754 488.484 417.286 602.253 463.732 617.776C615.215 671.261 730.793 223.543 874.298 314.073C979.67 381.189 915.152 649.993 1020.52 650.972C1093.37 651.484 1179.52 460.212 1251.44 521.373C1388.08 640.107 1572.39 598.738 1693.05 483.38C1733.27 450.782 1718.95 426.457 1742.09 406.687C1761.27 386.241 1770.98 383.215 1781.96 379.081" stroke="url(#paint49_linear)"/>
<path d="M-428.358 458.699C-385.701 424.055 -263.8 387.81 -218.19 437.179C-147.068 514.255 -234.605 674.927 -137.666 731.93C95.4554 862.676 203.203 499.77 409.472 498.897C452.658 498.18 425.922 609.124 470.895 624.788C620.895 679.04 734.836 231.174 877.073 321.774C982.534 389.39 918.422 659.55 1024.12 660.145C1097.45 660.446 1185.03 466.912 1257.42 529.331C1395.99 650.525 1583.28 606.459 1705.56 488.98C1743.15 456.798 1727.99 437.119 1746.91 416.134C1763.19 394.698 1773.22 386.639 1782.31 380.421" stroke="url(#paint50_linear)"/>
<path d="M-428.185 459.477C-384.673 424.186 -260.271 387.24 -213.738 437.695C-141.174 516.424 -230.528 680.496 -131.715 738.889C104.721 875.438 212.646 508.67 419.485 508.233C460.563 507.875 434.558 615.995 478.058 631.8C626.575 686.82 738.879 238.804 879.849 329.475C985.398 397.59 921.692 669.107 1027.71 669.318C1101.53 669.408 1190.53 473.611 1263.4 537.289C1403.91 660.943 1594.17 614.18 1718.07 494.58C1753.03 462.813 1737.03 447.781 1751.73 425.581C1765.11 403.155 1775.46 390.063 1782.65 381.761" stroke="url(#paint51_linear)"/>
</g>
<defs>
<linearGradient id="paint0_linear" x1="664.267" y1="-67" x2="664.267" y2="420.576" gradientUnits="userSpaceOnUse">
<stop stop-color="#fff"/>
<stop offset="1" stop-color="#fff" stop-opacity="0"/>
</linearGradient>
<linearGradient id="paint1_linear" x1="677.494" y1="325.003" x2="677.494" y2="778.4" gradientUnits="userSpaceOnUse">
<stop stop-color="#fff"/>
<stop offset="1" stop-color="#fff" stop-opacity="0"/>
</linearGradient>
<linearGradient id="paint2_linear" x1="664.527" y1="-59.3135" x2="664.527" y2="421.354" gradientUnits="userSpaceOnUse">
<stop stop-color="#fff"/>
<stop offset="1" stop-color="#fff" stop-opacity="0"/>
</linearGradient>
<linearGradient id="paint3_linear" x1="664.786" y1="-51.6274" x2="664.786" y2="422.132" gradientUnits="userSpaceOnUse">
<stop stop-color="#fff"/>
<stop offset="1" stop-color="#fff" stop-opacity="0"/>
</linearGradient>
<linearGradient id="paint4_linear" x1="665.045" y1="-43.9409" x2="665.045" y2="422.91" gradientUnits="userSpaceOnUse">
<stop stop-color="#fff"/>
<stop offset="1" stop-color="#fff" stop-opacity="0"/>
</linearGradient>
<linearGradient id="paint5_linear" x1="665.305" y1="-36.2546" x2="665.305" y2="423.688" gradientUnits="userSpaceOnUse">
<stop stop-color="#fff"/>
<stop offset="1" stop-color="#fff" stop-opacity="0"/>
</linearGradient>
<linearGradient id="paint6_linear" x1="665.564" y1="-28.5684" x2="665.564" y2="426.655" gradientUnits="userSpaceOnUse">
<stop stop-color="#fff"/>
<stop offset="1" stop-color="#fff" stop-opacity="0"/>
</linearGradient>
<linearGradient id="paint7_linear" x1="665.823" y1="-20.8818" x2="665.823" y2="433.043" gradientUnits="userSpaceOnUse">
<stop stop-color="#fff"/>
<stop offset="1" stop-color="#fff" stop-opacity="0"/>
</linearGradient>
<linearGradient id="paint8_linear" x1="666.083" y1="-13.1956" x2="666.083" y2="439.728" gradientUnits="userSpaceOnUse">
<stop stop-color="#fff"/>
<stop offset="1" stop-color="#fff" stop-opacity="0"/>
</linearGradient>
<linearGradient id="paint9_linear" x1="666.342" y1="-5.50928" x2="666.342" y2="446.61" gradientUnits="userSpaceOnUse">
<stop stop-color="#fff"/>
<stop offset="1" stop-color="#fff" stop-opacity="0"/>
</linearGradient>
<linearGradient id="paint10_linear" x1="666.601" y1="2.17725" x2="666.601" y2="453.569" gradientUnits="userSpaceOnUse">
<stop stop-color="#fff"/>
<stop offset="1" stop-color="#fff" stop-opacity="0"/>
</linearGradient>
<linearGradient id="paint11_linear" x1="666.861" y1="9.86328" x2="666.861" y2="460.528" gradientUnits="userSpaceOnUse">
<stop stop-color="#fff"/>
<stop offset="1" stop-color="#fff" stop-opacity="0"/>
</linearGradient>
<linearGradient id="paint12_linear" x1="667.12" y1="17.5498" x2="667.12" y2="467.487" gradientUnits="userSpaceOnUse">
<stop stop-color="#fff"/>
<stop offset="1" stop-color="#fff" stop-opacity="0"/>
</linearGradient>
<linearGradient id="paint13_linear" x1="667.379" y1="25.2361" x2="667.379" y2="474.446" gradientUnits="userSpaceOnUse">
<stop stop-color="#fff"/>
<stop offset="1" stop-color="#fff" stop-opacity="0"/>
</linearGradient>
<linearGradient id="paint14_linear" x1="667.639" y1="32.9224" x2="667.639" y2="481.405" gradientUnits="userSpaceOnUse">
<stop stop-color="#fff"/>
<stop offset="1" stop-color="#fff" stop-opacity="0"/>
</linearGradient>
<linearGradient id="paint15_linear" x1="667.898" y1="40.6089" x2="667.898" y2="488.364" gradientUnits="userSpaceOnUse">
<stop stop-color="#fff"/>
<stop offset="1" stop-color="#fff" stop-opacity="0"/>
</linearGradient>
<linearGradient id="paint16_linear" x1="668.157" y1="48.2952" x2="668.157" y2="495.323" gradientUnits="userSpaceOnUse">
<stop stop-color="#fff"/>
<stop offset="1" stop-color="#fff" stop-opacity="0"/>
</linearGradient>
<linearGradient id="paint17_linear" x1="668.417" y1="55.9814" x2="668.417" y2="502.282" gradientUnits="userSpaceOnUse">
<stop stop-color="#fff"/>
<stop offset="1" stop-color="#fff" stop-opacity="0"/>
</linearGradient>
<linearGradient id="paint18_linear" x1="668.676" y1="63.668" x2="668.676" y2="509.241" gradientUnits="userSpaceOnUse">
<stop stop-color="#fff"/>
<stop offset="1" stop-color="#fff" stop-opacity="0"/>
</linearGradient>
<linearGradient id="paint19_linear" x1="668.935" y1="71.3542" x2="668.935" y2="516.2" gradientUnits="userSpaceOnUse">
<stop stop-color="#fff"/>
<stop offset="1" stop-color="#fff" stop-opacity="0"/>
</linearGradient>
<linearGradient id="paint20_linear" x1="669.195" y1="79.0405" x2="669.195" y2="523.159" gradientUnits="userSpaceOnUse">
<stop stop-color="#fff"/>
<stop offset="1" stop-color="#fff" stop-opacity="0"/>
</linearGradient>
<linearGradient id="paint21_linear" x1="669.454" y1="86.7271" x2="669.454" y2="530.118" gradientUnits="userSpaceOnUse">
<stop stop-color="#fff"/>
<stop offset="1" stop-color="#fff" stop-opacity="0"/>
</linearGradient>
<linearGradient id="paint22_linear" x1="669.714" y1="94.4131" x2="669.714" y2="537.076" gradientUnits="userSpaceOnUse">
<stop stop-color="#fff"/>
<stop offset="1" stop-color="#fff" stop-opacity="0"/>
</linearGradient>
<linearGradient id="paint23_linear" x1="669.973" y1="102.1" x2="669.973" y2="544.035" gradientUnits="userSpaceOnUse">
<stop stop-color="#fff"/>
<stop offset="1" stop-color="#fff" stop-opacity="0"/>
</linearGradient>
<linearGradient id="paint24_linear" x1="670.232" y1="109.786" x2="670.232" y2="550.994" gradientUnits="userSpaceOnUse">
<stop stop-color="#fff"/>
<stop offset="1" stop-color="#fff" stop-opacity="0"/>
</linearGradient>
<linearGradient id="paint25_linear" x1="670.491" y1="117.472" x2="670.491" y2="557.953" gradientUnits="userSpaceOnUse">
<stop stop-color="#fff"/>
<stop offset="1" stop-color="#fff" stop-opacity="0"/>
</linearGradient>
<linearGradient id="paint26_linear" x1="670.751" y1="125.159" x2="670.751" y2="564.912" gradientUnits="userSpaceOnUse">
<stop stop-color="#fff"/>
<stop offset="1" stop-color="#fff" stop-opacity="0"/>
</linearGradient>
<linearGradient id="paint27_linear" x1="671.01" y1="132.845" x2="671.01" y2="571.871" gradientUnits="userSpaceOnUse">
<stop stop-color="#fff"/>
<stop offset="1" stop-color="#fff" stop-opacity="0"/>
</linearGradient>
<linearGradient id="paint28_linear" x1="671.27" y1="140.531" x2="671.27" y2="578.856" gradientUnits="userSpaceOnUse">
<stop stop-color="#fff"/>
<stop offset="1" stop-color="#fff" stop-opacity="0"/>
</linearGradient>
<linearGradient id="paint29_linear" x1="671.529" y1="148.218" x2="671.529" y2="585.995" gradientUnits="userSpaceOnUse">
<stop stop-color="#fff"/>
<stop offset="1" stop-color="#fff" stop-opacity="0"/>
</linearGradient>
<linearGradient id="paint30_linear" x1="671.788" y1="155.904" x2="671.788" y2="593.296" gradientUnits="userSpaceOnUse">
<stop stop-color="#fff"/>
<stop offset="1" stop-color="#fff" stop-opacity="0"/>
</linearGradient>
<linearGradient id="paint31_linear" x1="672.048" y1="163.59" x2="672.048" y2="600.746" gradientUnits="userSpaceOnUse">
<stop stop-color="#fff"/>
<stop offset="1" stop-color="#fff" stop-opacity="0"/>
</linearGradient>
<linearGradient id="paint32_linear" x1="672.307" y1="171.277" x2="672.307" y2="608.333" gradientUnits="userSpaceOnUse">
<stop stop-color="#fff"/>
<stop offset="1" stop-color="#fff" stop-opacity="0"/>
</linearGradient>
<linearGradient id="paint33_linear" x1="672.566" y1="178.963" x2="672.566" y2="616.049" gradientUnits="userSpaceOnUse">
<stop stop-color="#fff"/>
<stop offset="1" stop-color="#fff" stop-opacity="0"/>
</linearGradient>
<linearGradient id="paint34_linear" x1="672.826" y1="186.649" x2="672.826" y2="623.883" gradientUnits="userSpaceOnUse">
<stop stop-color="#fff"/>
<stop offset="1" stop-color="#fff" stop-opacity="0"/>
</linearGradient>
<linearGradient id="paint35_linear" x1="673.085" y1="194.336" x2="673.085" y2="631.827" gradientUnits="userSpaceOnUse">
<stop stop-color="#fff"/>
<stop offset="1" stop-color="#fff" stop-opacity="0"/>
</linearGradient>
<linearGradient id="paint36_linear" x1="673.344" y1="202.022" x2="673.344" y2="639.874" gradientUnits="userSpaceOnUse">
<stop stop-color="#fff"/>
<stop offset="1" stop-color="#fff" stop-opacity="0"/>
</linearGradient>
<linearGradient id="paint37_linear" x1="673.604" y1="209.708" x2="673.604" y2="648.017" gradientUnits="userSpaceOnUse">
<stop stop-color="#fff"/>
<stop offset="1" stop-color="#fff" stop-opacity="0"/>
</linearGradient>
<linearGradient id="paint38_linear" x1="673.863" y1="217.395" x2="673.863" y2="656.249" gradientUnits="userSpaceOnUse">
<stop stop-color="#fff"/>
<stop offset="1" stop-color="#fff" stop-opacity="0"/>
</linearGradient>
<linearGradient id="paint39_linear" x1="674.122" y1="225.081" x2="674.122" y2="664.566" gradientUnits="userSpaceOnUse">
<stop stop-color="#fff"/>
<stop offset="1" stop-color="#fff" stop-opacity="0"/>
</linearGradient>
<linearGradient id="paint40_linear" x1="674.382" y1="232.768" x2="674.382" y2="672.961" gradientUnits="userSpaceOnUse">
<stop stop-color="#fff"/>
<stop offset="1" stop-color="#fff" stop-opacity="0"/>
</linearGradient>
<linearGradient id="paint41_linear" x1="674.641" y1="240.454" x2="674.641" y2="681.43" gradientUnits="userSpaceOnUse">
<stop stop-color="#fff"/>
<stop offset="1" stop-color="#fff" stop-opacity="0"/>
</linearGradient>
<linearGradient id="paint42_linear" x1="674.9" y1="248.14" x2="674.9" y2="689.968" gradientUnits="userSpaceOnUse">
<stop stop-color="#fff"/>
<stop offset="1" stop-color="#fff" stop-opacity="0"/>
</linearGradient>
<linearGradient id="paint43_linear" x1="675.16" y1="255.826" x2="675.16" y2="698.571" gradientUnits="userSpaceOnUse">
<stop stop-color="#fff"/>
<stop offset="1" stop-color="#fff" stop-opacity="0"/>
</linearGradient>
<linearGradient id="paint44_linear" x1="675.419" y1="263.513" x2="675.419" y2="707.236" gradientUnits="userSpaceOnUse">
<stop stop-color="#fff"/>
<stop offset="1" stop-color="#fff" stop-opacity="0"/>
</linearGradient>
<linearGradient id="paint45_linear" x1="675.678" y1="271.199" x2="675.678" y2="715.96" gradientUnits="userSpaceOnUse">
<stop stop-color="#fff"/>
<stop offset="1" stop-color="#fff" stop-opacity="0"/>
</linearGradient>
<linearGradient id="paint46_linear" x1="675.938" y1="278.885" x2="675.938" y2="724.737" gradientUnits="userSpaceOnUse">
<stop stop-color="#fff"/>
<stop offset="1" stop-color="#fff" stop-opacity="0"/>
</linearGradient>
<linearGradient id="paint47_linear" x1="676.197" y1="286.572" x2="676.197" y2="733.567" gradientUnits="userSpaceOnUse">
<stop stop-color="#fff"/>
<stop offset="1" stop-color="#fff" stop-opacity="0"/>
</linearGradient>
<linearGradient id="paint48_linear" x1="676.456" y1="294.258" x2="676.456" y2="742.446" gradientUnits="userSpaceOnUse">
<stop stop-color="#fff"/>
<stop offset="1" stop-color="#fff" stop-opacity="0"/>
</linearGradient>
<linearGradient id="paint49_linear" x1="676.716" y1="301.944" x2="676.716" y2="751.37" gradientUnits="userSpaceOnUse">
<stop stop-color="#fff"/>
<stop offset="1" stop-color="#fff" stop-opacity="0"/>
</linearGradient>
<linearGradient id="paint50_linear" x1="676.975" y1="309.631" x2="676.975" y2="760.339" gradientUnits="userSpaceOnUse">
<stop stop-color="#fff"/>
<stop offset="1" stop-color="#fff" stop-opacity="0"/>
</linearGradient>
<linearGradient id="paint51_linear" x1="677.234" y1="317.317" x2="677.234" y2="769.35" gradientUnits="userSpaceOnUse">
<stop stop-color="#fff"/>
<stop offset="1" stop-color="#fff" stop-opacity="0"/>
</linearGradient>
</defs>
</svg>
