<svg width="1920" height="357" viewBox="0 0 1920 357" fill="none" xmlns="http://www.w3.org/2000/svg">
<path d="M2089.83 420.576C2087.65 414.649 2093.63 413.179 2078.91 390.939C1977.21 237.352 1834.71 63.684 1578.3 41.4197C1367.58 23.1232 1457.56 272.455 1289.07 281.209C968.779 297.851 689.52 -142.73 395.654 -55.5739C250.172 -12.4262 371.003 191.259 241.702 210.669C170.695 221.328 144.836 138.641 74.3635 139.393C11.3851 140.065 -48.1848 228.125 -109.886 214.587C-349.323 162.052 -387.011 -85.312 -711.425 -46.7563C-939.23 -19.6824 -930.727 218.874 -1077.63 314.765" stroke="url(#paint0_linear)" stroke-linecap="round" stroke-linejoin="round"/>
<path d="M2077.15 460.255C2013.33 424.318 1830.8 386.669 1762.55 438.211C1656.1 518.593 1787.24 686.065 1642.42 745.848C1297.58 888.2 1142.09 517.57 843.77 517.57C787.719 517.57 824.072 622.866 763.623 638.812C552.142 694.599 392.967 246.435 192.028 337.177C40.0885 405.79 131.134 678.664 -21.8133 678.491C-128.699 678.37 -258.747 480.311 -364.242 545.247C-569.122 671.36 -847.063 621.901 -1027.61 500.18C-1074.11 468.828 -1049.87 458.443 -1064.95 435.027C-1080.03 411.612 -1095.39 393.487 -1103 383.101" stroke="url(#paint1_linear)" stroke-linecap="round" stroke-linejoin="round"/>
<path d="M2089.58 421.354C2087.26 417.744 2084.61 415.193 2082.67 412.392C2079.98 410.156 2080.41 407.628 2070.35 397.898C1963.89 250.114 1821.13 72.5838 1563.9 50.756C1356.21 32.8182 1445.13 279.326 1278.76 288.221C960.608 305.631 683.704 -135.099 391.661 -47.8729C246.051 -4.22581 366.298 200.816 236.534 219.842C164.823 230.289 136.921 145.34 65.762 147.351C0.00119983 150.483 -63.8504 235.846 -127.881 220.187C-363.536 168.067 -400.009 -74.6501 -718.359 -37.3095C-941.992 -11.2256 -933.957 222.298 -1078.13 316.105" stroke="url(#paint2_linear)"/>
<path d="M2089.33 422.132C2085.78 417.875 2079.54 414.622 2076.27 412.907C2071.5 412.324 2074.54 413.196 2061.79 404.857C1950.56 262.875 1807.55 81.4831 1549.5 60.0918C1344.84 42.5128 1432.71 286.196 1268.46 295.233C952.44 313.409 677.89 -127.469 387.669 -40.1723C241.933 3.97407 361.596 210.373 231.368 229.014C158.954 239.25 129.008 152.039 57.1629 155.308C-11.3804 160.9 -79.5138 243.567 -145.875 225.787C-377.747 174.082 -413.006 -63.9887 -725.29 -27.8632C-944.752 -2.76932 -937.185 225.721 -1078.63 317.445" stroke="url(#paint3_linear)"/>
<path d="M2089.08 422.91C2084.3 418.007 2074.46 414.052 2069.86 413.424C2063.02 414.493 2068.68 418.765 2053.23 411.816C1937.23 275.637 1793.97 90.3829 1535.09 69.4282C1333.47 52.2079 1420.29 293.067 1258.16 302.244C944.269 321.189 672.074 -119.838 383.674 -32.4713C237.812 12.1745 356.891 219.93 226.2 238.187C153.082 248.212 121.093 158.739 48.5612 163.266C-22.7644 171.317 -95.1797 251.288 -163.871 231.387C-391.96 180.097 -426.005 -53.3267 -732.223 -18.4164C-947.514 5.68748 -940.415 229.145 -1079.13 318.785" stroke="url(#paint4_linear)"/>
<path d="M2088.83 423.688C2082.82 418.138 2069.38 413.481 2063.46 413.94C2054.54 416.661 2062.82 424.334 2044.67 418.775C1923.91 288.399 1780.39 99.2824 1520.69 78.7643C1322.1 61.9028 1407.87 299.938 1247.86 309.256C936.1 328.968 666.26 -112.207 379.683 -24.7704C233.694 20.3746 352.188 229.486 221.033 247.36C147.212 257.174 113.181 165.438 39.9619 171.224C-34.1461 181.735 -110.843 259.009 -181.865 236.986C-406.171 186.112 -439.001 -42.6651 -739.154 -8.96985C-950.274 14.1441 -943.643 232.568 -1079.62 320.124" stroke="url(#paint5_linear)"/>
<path d="M2088.59 424.466C2081.34 418.269 2064.31 412.91 2057.06 414.456C2046.07 418.83 2056.95 429.902 2036.12 425.734C1910.58 301.16 1766.81 108.182 1506.29 88.1004C1310.73 71.5976 1395.45 306.808 1237.55 316.268C927.932 336.747 660.446 -104.577 375.691 -17.0696C229.575 28.5748 347.486 239.043 215.867 256.533C141.342 266.135 105.268 172.137 31.3626 179.182C-45.5278 192.152 -126.507 266.73 -199.859 242.586C-420.381 192.127 -451.998 -32.0034 -746.085 0.476709C-953.034 22.6006 -946.871 235.992 -1080.12 321.464" stroke="url(#paint6_linear)"/>
<path d="M2088.34 425.244C2079.87 418.401 2059.23 412.34 2050.66 414.973C2037.59 420.999 2051.09 435.471 2027.56 432.693C1897.26 313.922 1753.23 117.082 1491.89 97.4367C1299.37 81.2927 1383.03 313.679 1227.25 323.28C919.765 344.527 654.634 -96.9461 371.7 -9.36857C225.458 36.7752 342.785 248.6 210.703 265.706C135.474 275.097 97.3572 178.837 22.7648 187.14C-56.908 202.57 -142.169 274.451 -217.851 248.186C-434.591 198.143 -464.993 -21.3414 -753.015 9.92352C-955.792 31.0574 -950.097 239.416 -1080.62 322.804" stroke="url(#paint7_linear)"/>
<path d="M2088.09 426.022C2078.39 418.532 2054.15 411.769 2044.25 415.489C2029.11 423.167 2045.23 441.04 2019 439.652C1883.93 326.684 1739.65 125.981 1477.48 106.773C1287.99 90.9876 1370.61 320.55 1216.95 330.291C911.592 352.306 648.816 -89.3156 367.705 -1.66775C221.336 44.9753 338.078 258.157 205.532 274.879C129.601 284.058 89.4407 185.536 14.1616 195.098C-68.2936 212.987 -157.836 282.172 -235.849 253.786C-448.805 204.158 -477.993 -10.6797 -759.95 19.3701C-958.556 39.514 -953.329 242.84 -1081.12 324.144" stroke="url(#paint8_linear)"/>
<path d="M2087.84 426.8C2076.91 418.664 2049.08 411.199 2037.85 416.005C2020.64 425.336 2039.37 446.608 2010.44 446.61C1870.61 339.445 1726.07 134.881 1463.08 116.109C1276.63 100.682 1358.19 327.42 1206.65 337.303C903.426 360.085 643.004 -81.6851 363.715 6.03308C217.219 53.1755 333.378 267.714 200.368 284.052C123.733 293.02 81.53 192.235 5.5642 203.055C-79.6734 223.405 -173.497 289.893 -253.841 259.385C-463.014 210.173 -490.988 -0.0180397 -766.879 28.8167C-961.315 47.9706 -956.555 246.263 -1081.61 325.484" stroke="url(#paint9_linear)"/>
<path d="M2087.59 427.578C2075.43 418.795 2044 410.628 2031.45 416.522C2012.16 427.505 2033.5 452.177 2001.88 453.569C1857.28 352.207 1712.49 143.781 1448.68 125.445C1265.26 110.378 1345.77 334.291 1196.34 344.315C895.255 367.865 637.187 -74.0543 359.72 13.7342C213.098 61.3759 328.673 277.271 195.2 293.225C117.861 301.981 73.6151 198.935 -3.03743 211.013C-91.0574 233.822 -189.163 297.614 -271.837 264.985C-477.227 216.188 -503.987 10.6439 -773.812 38.2635C-964.077 56.4275 -959.785 249.687 -1082.11 326.824" stroke="url(#paint10_linear)"/>
<path d="M2087.34 428.355C2073.95 418.926 2038.93 410.057 2025.05 417.038C2003.68 429.673 2027.64 457.745 1993.32 460.528C1843.95 364.968 1698.91 152.68 1434.28 134.781C1253.89 120.072 1333.35 341.162 1186.04 351.326C887.086 375.644 631.373 -66.424 355.728 21.4348C208.98 69.5758 323.97 286.827 190.033 302.397C111.991 310.942 65.7023 205.634 -11.6369 218.971C-102.439 244.239 -204.827 305.335 -289.831 270.585C-491.438 222.203 -516.983 21.3054 -780.744 47.7098C-966.837 64.8838 -963.013 253.11 -1082.61 328.163" stroke="url(#paint11_linear)"/>
<path d="M2087.09 429.133C2072.47 419.058 2033.85 409.487 2018.65 417.554C1995.2 431.842 2021.77 463.314 1984.76 467.487C1830.63 377.73 1685.33 161.58 1419.87 144.118C1242.51 129.767 1320.92 348.033 1175.74 358.338C878.915 383.423 625.557 -58.7933 351.734 29.1358C204.859 77.7763 319.266 296.385 184.865 311.57C106.119 319.904 57.7875 212.333 -20.2384 226.929C-113.823 254.657 -220.493 313.056 -307.827 276.185C-505.651 228.218 -529.982 31.9673 -787.677 57.1567C-969.599 73.3407 -966.243 256.534 -1083.11 329.503" stroke="url(#paint12_linear)"/>
<path d="M2086.85 429.911C2071 419.189 2028.78 408.916 2012.24 418.071C1986.73 434.01 2015.91 468.883 1976.21 474.446C1817.3 390.492 1671.75 170.479 1405.47 153.454C1231.15 139.462 1308.5 354.903 1165.43 365.35C870.747 391.202 619.743 -51.1627 347.743 36.8367C200.741 85.9765 314.563 305.941 179.699 320.743C100.25 328.866 49.8751 219.033 -28.8376 234.887C-125.205 265.074 -236.156 320.777 -325.82 281.784C-519.862 234.233 -542.978 42.6291 -794.608 66.6033C-972.359 81.7973 -969.471 259.958 -1083.6 330.843" stroke="url(#paint13_linear)"/>
<path d="M2086.6 430.689C2069.52 419.32 2023.7 408.346 2005.84 418.587C1978.25 436.179 2010.05 474.451 1967.65 481.405C1803.97 403.253 1658.16 179.379 1391.07 162.79C1219.77 149.157 1296.08 361.774 1155.13 372.361C862.576 398.982 613.927 -43.5322 343.748 44.5375C196.62 94.1766 309.858 315.498 174.53 329.916C94.3777 337.827 41.9601 225.732 -37.4392 242.845C-136.589 275.492 -251.822 328.498 -343.816 287.384C-534.075 240.248 -555.977 53.2908 -801.541 76.0499C-975.121 90.2539 -972.701 263.382 -1084.1 332.183" stroke="url(#paint14_linear)"/>
<path d="M2086.35 431.467C2068.04 419.452 2018.62 407.776 1999.44 419.103C1969.77 438.348 2004.19 480.02 1959.09 488.364C1790.65 416.015 1644.58 188.279 1376.67 172.126C1208.41 158.852 1283.66 368.645 1144.83 379.373C854.409 406.761 608.115 -35.9014 339.758 52.2387C192.503 102.377 305.158 325.055 169.366 339.089C88.5099 346.789 34.0493 232.431 -46.0368 250.803C-147.969 285.91 -267.483 336.219 -361.808 292.984C-548.283 246.264 -568.972 63.9528 -808.471 85.4967C-977.88 98.7108 -975.927 266.805 -1084.6 333.523" stroke="url(#paint15_linear)"/>
<path d="M2086.1 432.245C2066.56 419.583 2013.55 407.205 1993.04 419.62C1961.29 440.516 1998.32 485.589 1950.53 495.323C1777.32 428.777 1631 197.178 1362.26 181.462C1197.04 168.547 1271.24 375.516 1134.53 386.385C846.239 414.54 602.299 -28.2708 335.764 59.9395C188.383 110.577 300.453 334.612 164.198 348.262C82.6381 355.75 26.1347 239.131 -54.6381 258.76C-159.352 296.327 -283.149 343.94 -379.804 298.584C-562.496 252.279 -581.971 74.6145 -815.404 94.9434C-980.642 107.167 -979.158 270.229 -1085.09 334.863" stroke="url(#paint16_linear)"/>
<path d="M2085.85 433.023C2065.08 419.715 2008.47 406.634 1986.64 420.136C1952.82 442.685 1992.46 491.158 1941.97 502.282C1764 441.538 1617.42 206.078 1347.86 190.799C1185.67 178.242 1258.82 382.386 1124.23 393.397C838.072 422.32 596.487 -20.6402 331.774 67.6404C184.266 118.778 295.753 344.169 159.033 357.435C76.7703 364.712 18.2239 245.83 -63.2356 266.718C-170.732 306.744 -298.811 351.661 -397.796 304.183C-576.705 258.294 -594.965 85.2763 -822.333 104.39C-983.4 115.624 -982.384 273.653 -1085.59 336.202" stroke="url(#paint17_linear)"/>
<path d="M2085.6 433.801C2063.6 419.846 2003.39 406.064 1980.23 420.652C1944.34 444.854 1986.59 496.726 1933.41 509.241C1750.67 454.3 1603.84 214.978 1333.46 200.135C1174.3 187.937 1246.39 389.257 1113.92 400.409C829.9 430.099 590.669 -13.0094 327.778 75.3415C180.144 126.978 291.046 353.726 153.863 366.608C70.8966 373.674 10.3073 252.529 -71.8389 274.676C-182.118 317.162 -314.478 359.383 -415.794 309.783C-590.92 264.309 -607.966 95.9383 -829.268 113.837C-986.164 124.081 -985.615 277.077 -1086.09 337.543" stroke="url(#paint18_linear)"/>
<path d="M2085.36 434.579C2062.13 419.978 1998.32 405.493 1973.83 421.169C1935.86 447.023 1980.73 502.295 1924.86 516.2C1737.34 467.062 1590.26 223.878 1319.06 209.471C1162.93 197.632 1233.98 396.128 1103.62 407.42C821.733 437.878 584.857 -5.37885 323.788 83.0424C176.027 135.178 286.345 363.283 148.699 375.781C65.0288 382.635 2.39664 259.229 -80.4362 282.634C-193.498 327.58 -330.14 367.104 -433.786 315.383C-605.129 270.324 -620.96 106.6 -836.197 123.283C-988.922 132.538 -988.841 280.5 -1086.58 338.882" stroke="url(#paint19_linear)"/>
<path d="M2085.11 435.357C2060.65 420.109 1993.24 404.923 1967.43 421.685C1927.38 449.191 1974.87 507.864 1916.3 523.159C1724.02 479.823 1576.68 232.777 1304.65 218.807C1151.56 207.327 1221.55 402.999 1093.32 414.432C813.562 445.658 579.04 2.25172 319.794 90.7433C171.906 143.378 281.641 372.84 143.531 384.954C59.1569 391.597 -5.51829 265.928 -89.0379 290.592C-204.882 337.997 -345.805 374.825 -451.782 320.983C-619.342 276.34 -633.959 117.262 -843.131 132.73C-991.684 140.994 -992.071 283.924 -1087.08 340.222" stroke="url(#paint20_linear)"/>
<path d="M2084.86 436.135C2059.17 420.241 1988.17 404.353 1961.03 422.202C1918.91 451.36 1969 513.433 1907.74 530.118C1710.69 492.585 1563.1 241.677 1290.25 228.144C1140.19 217.022 1209.13 409.869 1083.01 421.444C805.393 453.437 573.226 9.88256 315.802 98.4444C167.788 151.579 276.938 382.397 138.364 394.127C53.2871 400.558 -13.4311 272.628 -97.6374 298.55C-216.264 348.415 -361.469 382.546 -469.776 326.583C-633.553 282.355 -646.956 127.924 -850.062 142.177C-994.444 149.451 -995.3 287.348 -1087.58 341.562" stroke="url(#paint21_linear)"/>
<path d="M2084.61 436.913C2057.69 420.372 1983.09 403.782 1954.62 422.718C1910.43 453.529 1963.14 519.001 1899.18 537.076C1697.36 505.347 1549.52 250.576 1275.85 237.48C1128.82 226.717 1196.71 416.74 1072.71 428.456C797.223 461.216 567.41 17.5129 311.809 106.145C163.667 159.779 272.233 391.954 133.196 403.3C47.4154 409.52 -21.3455 279.327 -106.238 306.508C-227.647 358.832 -377.134 390.267 -487.772 332.182C-647.765 288.37 -659.954 138.585 -856.995 151.623C-997.206 157.907 -998.529 290.771 -1088.08 342.902" stroke="url(#paint22_linear)"/>
<path d="M2084.36 437.691C2056.21 420.503 1978.01 403.211 1948.22 423.234C1901.95 455.697 1957.28 524.57 1890.62 544.035C1684.04 518.108 1535.94 259.476 1261.45 246.816C1117.45 236.412 1184.29 423.611 1062.41 435.468C789.054 468.996 561.596 25.1437 307.816 113.846C159.548 167.979 267.531 401.511 128.03 412.473C41.5454 418.481 -29.2585 286.026 -114.838 314.466C-239.029 369.25 -392.798 397.988 -505.766 337.782C-661.977 294.385 -672.951 149.247 -863.927 161.07C-999.967 166.364 -1001.76 294.195 -1088.58 344.242" stroke="url(#paint23_linear)"/>
<path d="M2084.11 438.469C2054.73 420.635 1972.94 402.641 1941.82 423.751C1893.47 457.866 1951.41 530.138 1882.06 550.994C1670.71 530.87 1522.36 268.376 1247.04 256.152C1106.08 246.107 1171.87 430.482 1052.1 442.479C780.885 476.775 555.782 32.7743 303.824 121.547C155.43 176.18 262.828 411.068 122.863 421.646C35.6756 427.443 -37.1713 292.726 -123.438 322.424C-250.411 379.667 -408.462 405.709 -523.76 343.382C-676.187 300.4 -685.948 159.909 -870.858 170.517C-1002.73 174.821 -1004.99 297.619 -1089.07 345.582" stroke="url(#paint24_linear)"/>
<path d="M2083.86 439.247C2053.25 420.766 1967.86 402.07 1935.41 424.267C1885 460.035 1945.55 535.707 1873.5 557.953C1657.39 543.632 1508.78 277.276 1232.64 265.489C1094.71 255.802 1159.45 437.352 1041.8 449.491C772.715 484.554 549.966 40.405 299.83 129.248C151.309 184.38 258.124 420.625 117.695 430.819C29.8041 436.404 -45.0857 299.425 -132.039 330.381C-261.795 390.085 -424.127 413.43 -541.755 348.982C-690.4 306.415 -698.946 170.571 -877.791 179.964C-1005.49 183.278 -1008.22 301.043 -1089.57 346.922" stroke="url(#paint25_linear)"/>
<path d="M2083.61 440.025C2051.77 420.898 1962.79 401.5 1929.01 424.783C1876.52 462.204 1939.69 541.276 1864.94 564.912C1644.06 556.394 1495.2 286.175 1218.24 274.825C1083.34 265.497 1147.03 444.223 1031.5 456.503C764.546 492.334 544.152 48.0358 295.838 136.949C147.191 192.58 253.421 430.182 112.529 439.992C23.9343 445.366 -52.9985 306.125 -140.638 338.34C-273.177 400.502 -439.791 421.151 -559.749 354.582C-704.611 312.431 -711.943 181.233 -884.722 189.411C-1008.25 191.735 -1011.44 304.467 -1090.07 348.262" stroke="url(#paint26_linear)"/>
<path d="M2083.36 440.803C2050.3 421.029 1957.71 400.93 1922.61 425.3C1868.04 464.372 1933.82 546.845 1856.38 571.871C1630.73 569.155 1481.61 295.075 1203.83 284.161C1071.97 275.192 1134.6 451.094 1021.19 463.515C756.375 500.113 538.336 55.6664 291.844 144.65C143.07 200.781 248.716 439.739 107.36 449.165C18.0624 454.328 -60.9132 312.824 -149.24 346.297C-284.56 410.92 -455.456 428.872 -577.745 360.182C-718.824 318.446 -724.942 191.895 -891.655 198.857C-1011.01 200.191 -1014.67 307.891 -1090.57 349.602" stroke="url(#paint27_linear)"/>
<path d="M2083.12 441.581C2048.82 421.161 1952.63 400.359 1916.21 425.816C1859.56 466.541 1927.96 552.413 1847.83 578.83C1617.41 581.917 1468.03 303.975 1189.43 293.497C1060.6 284.887 1122.18 457.965 1010.89 470.527C748.207 507.893 532.522 63.2971 287.852 152.351C138.951 208.981 244.014 449.295 102.194 458.338C12.1926 463.289 -68.826 319.523 -157.839 354.255C-295.942 421.337 -471.12 436.593 -595.739 365.782C-733.035 324.461 -737.938 202.557 -898.586 208.304C-1013.77 208.648 -1017.9 311.314 -1091.06 350.941" stroke="url(#paint28_linear)"/>
<path d="M2082.87 442.359C2047.34 421.292 1947.55 399.789 1909.8 426.333C1851.08 468.71 1922.09 557.982 1839.27 585.789C1604.08 594.679 1454.45 312.875 1175.03 302.834C1049.23 294.583 1109.76 464.836 1000.59 477.539C740.036 515.672 526.706 70.9279 283.858 160.052C134.831 217.181 239.309 458.853 97.0258 467.511C6.32068 472.251 -76.7408 326.223 -166.441 362.213C-307.326 431.755 -486.786 444.315 -613.735 371.382C-747.248 330.477 -750.937 213.219 -905.52 217.751C-1016.53 217.105 -1021.13 314.738 -1091.56 352.282" stroke="url(#paint29_linear)"/>
<path d="M2082.62 443.137C2045.86 421.424 1942.48 399.218 1903.4 426.849C1842.61 470.878 1916.23 563.551 1830.71 592.748C1590.76 607.44 1440.87 321.774 1160.63 312.17C1037.86 304.277 1097.34 471.706 990.287 484.55C731.869 523.451 520.894 78.5583 279.868 167.753C130.714 225.381 234.608 468.409 91.8616 476.683C0.453026 481.212 -84.6515 332.922 -175.038 370.171C-318.706 442.172 -502.447 452.035 -631.727 376.981C-761.456 336.492 -763.931 223.88 -912.449 227.197C-1019.29 225.561 -1024.36 318.162 -1092.06 353.621" stroke="url(#paint30_linear)"/>
<path d="M2082.37 443.915C2044.38 421.555 1937.4 398.648 1897 427.365C1834.13 473.047 1910.37 569.12 1822.15 599.707C1577.43 620.202 1427.29 330.674 1146.22 321.506C1026.49 313.973 1084.92 478.577 979.981 491.562C723.697 531.231 515.075 86.1892 275.872 175.454C126.591 233.582 229.902 477.966 86.6912 485.857C-5.42083 490.174 -92.5683 339.622 -183.642 378.129C-330.092 452.59 -518.115 459.757 -649.725 382.581C-775.671 342.507 -776.932 234.542 -919.384 236.644C-1022.06 234.018 -1027.59 321.586 -1092.56 354.961" stroke="url(#paint31_linear)"/>
<path d="M2082.12 444.693C2042.91 421.687 1932.33 398.077 1890.6 427.882C1825.66 475.216 1904.51 574.688 1813.59 606.666C1564.11 632.964 1413.71 339.574 1131.82 330.843C1015.12 323.668 1072.5 485.448 969.683 498.574C715.532 539.01 509.265 93.8198 271.884 183.155C122.477 241.782 225.203 487.523 81.5287 495.03C-11.2869 499.136 -100.477 346.321 -192.237 386.087C-341.47 463.008 -533.775 467.478 -667.715 388.181C-789.878 348.522 -789.925 245.204 -926.311 246.091C-1024.81 242.475 -1030.81 325.009 -1093.05 356.301" stroke="url(#paint32_linear)"/>
<path d="M2081.87 445.471C2041.43 421.818 1927.25 397.507 1884.2 428.398C1817.18 477.385 1898.64 580.257 1805.03 613.625C1550.78 645.725 1400.13 348.473 1117.42 340.179C1003.75 333.363 1060.08 492.319 959.379 505.586C707.361 546.789 503.449 101.45 267.89 190.856C118.356 249.983 220.498 497.08 76.3604 504.203C-17.1586 508.097 -108.392 353.02 -200.839 394.045C-352.854 473.425 -549.44 475.199 -685.711 393.781C-804.091 354.537 -802.924 255.866 -933.245 255.538C-1027.57 250.932 -1034.04 328.433 -1093.55 357.641" stroke="url(#paint33_linear)"/>
<path d="M2081.62 446.25C2039.95 421.95 1922.18 396.936 1877.79 428.915C1808.7 479.554 1892.78 585.826 1796.48 620.584C1537.45 658.487 1386.55 357.373 1103.02 349.515C992.379 343.058 1047.66 499.19 949.076 512.598C699.192 554.569 497.635 109.081 263.898 198.557C114.237 258.183 215.796 506.638 71.1941 513.376C-23.0284 517.059 -116.305 359.72 -209.438 402.003C-364.235 483.843 -565.104 482.92 -703.705 399.381C-818.302 360.553 -815.92 266.528 -940.176 264.985C-1030.33 259.389 -1037.27 331.857 -1094.05 358.981" stroke="url(#paint34_linear)"/>
<path d="M2081.38 447.028C2038.47 422.081 1917.1 396.366 1871.39 429.431C1800.22 481.723 1886.92 591.395 1787.92 627.543C1524.12 671.249 1372.97 366.273 1088.61 358.852C981.008 352.753 1035.23 506.061 938.772 519.609C691.022 562.348 491.819 116.712 259.904 206.258C110.117 266.383 211.091 516.194 66.026 522.549C-28.9 526.021 -124.219 366.419 -218.039 409.961C-375.619 494.26 -580.769 490.641 -721.7 404.981C-832.515 366.568 -828.919 277.19 -947.109 274.431C-1033.1 267.846 -1040.5 335.281 -1094.54 360.321" stroke="url(#paint35_linear)"/>
<path d="M2081.13 447.806C2036.99 422.213 1912.02 395.795 1864.99 429.948C1791.74 483.891 1881.05 596.963 1779.36 634.502C1510.8 684.011 1359.39 375.173 1074.21 368.188C969.639 362.448 1022.81 512.931 928.47 526.621C682.853 570.128 486.005 124.343 255.912 213.959C105.998 274.584 206.388 525.751 60.8594 531.722C-34.7701 534.982 -132.132 373.119 -226.639 417.919C-387.001 504.678 -596.433 498.362 -739.695 410.581C-846.726 372.583 -841.916 287.852 -954.04 283.878C-1035.86 276.302 -1043.73 338.705 -1095.04 361.661" stroke="url(#paint36_linear)"/>
<path d="M2080.88 448.584C2035.51 422.345 1906.95 395.225 1858.59 430.464C1783.27 486.06 1875.19 602.532 1770.8 641.462C1497.47 696.773 1345.81 384.073 1059.81 377.524C958.268 372.143 1010.39 519.803 918.166 533.633C674.682 577.907 480.189 131.974 251.918 221.66C101.878 282.784 201.684 535.309 55.6912 540.895C-40.6418 543.944 -140.047 379.818 -235.24 425.877C-398.385 515.096 -612.099 506.084 -757.69 416.181C-860.939 378.599 -854.914 298.514 -960.974 293.325C-1038.62 284.759 -1046.96 342.129 -1095.54 363.001" stroke="url(#paint37_linear)"/>
<path d="M2080.63 449.362C2034.03 422.476 1901.87 394.655 1852.18 430.981C1774.79 488.229 1869.33 608.101 1762.24 648.421C1484.15 709.534 1332.23 392.972 1045.41 386.861C946.898 381.838 997.971 526.673 907.864 540.645C666.514 585.687 474.375 139.604 247.926 229.361C97.759 290.985 196.981 544.866 50.5249 550.068C-46.5116 552.906 -147.959 386.518 -243.84 433.835C-409.767 525.513 -627.762 513.805 -775.685 421.78C-875.15 384.614 -867.911 309.176 -967.905 302.772C-1041.38 293.216 -1050.19 345.552 -1096.04 364.341" stroke="url(#paint38_linear)"/>
<path d="M2080.38 450.14C2032.55 422.607 1896.79 394.084 1845.78 431.497C1766.31 490.398 1863.46 613.67 1753.68 655.38C1470.82 722.296 1318.64 401.872 1031 396.197C935.527 391.533 985.548 533.544 897.56 547.657C658.343 593.466 468.559 147.235 243.932 237.062C93.6386 299.185 192.277 554.423 45.3568 559.241C-52.3832 561.868 -155.874 393.217 -252.441 441.793C-421.15 535.931 -643.428 521.526 -793.68 427.38C-889.362 390.629 -880.909 319.838 -974.838 312.218C-1044.14 301.673 -1053.42 348.976 -1096.53 365.681" stroke="url(#paint39_linear)"/>
<path d="M2080.13 450.918C2031.07 422.739 1891.72 393.514 1839.38 432.014C1757.83 492.567 1857.6 619.239 1745.12 662.339C1457.49 735.058 1305.06 410.772 1016.6 405.534C924.158 401.228 973.127 540.415 887.258 554.669C650.175 601.246 462.745 154.866 239.94 244.764C89.5199 307.386 187.574 563.98 40.1905 568.414C-58.2529 570.829 -163.787 399.917 -261.041 449.751C-432.532 546.349 -659.091 529.247 -811.674 432.98C-903.573 396.645 -893.906 330.5 -981.769 321.665C-1046.9 310.13 -1056.65 352.4 -1097.03 367.021" stroke="url(#paint40_linear)"/>
<path d="M2079.88 451.696C2029.6 422.87 1886.64 392.943 1832.98 432.53C1749.36 494.735 1851.74 624.807 1736.56 669.298C1444.17 747.82 1291.48 419.672 1002.2 414.87C912.789 410.923 960.707 547.286 876.955 561.681C642.006 609.025 456.93 162.496 235.948 252.464C85.4013 315.586 182.871 573.537 35.024 577.587C-64.1229 579.791 -171.699 406.616 -269.64 457.709C-443.914 556.766 -674.755 536.968 -829.668 438.58C-917.784 402.659 -906.903 341.161 -988.7 331.112C-1049.66 318.586 -1059.87 355.824 -1097.53 368.361" stroke="url(#paint41_linear)"/>
<path d="M2079.64 452.474C2028.12 423.002 1881.57 392.373 1826.58 433.046C1740.88 496.904 1845.88 630.376 1728.01 676.257C1430.84 760.581 1277.9 428.572 987.799 424.206C901.421 420.619 948.288 554.157 866.655 568.693C633.839 616.805 451.118 170.127 231.958 260.166C81.2844 323.786 178.17 583.094 29.8595 586.76C-69.9909 588.753 -179.61 413.316 -278.238 465.667C-455.294 567.184 -690.417 544.69 -847.66 444.18C-931.993 408.675 -919.898 351.823 -995.63 340.559C-1052.42 327.043 -1063.1 359.248 -1098.02 369.701" stroke="url(#paint42_linear)"/>
<path d="M2079.39 453.252C2026.64 423.134 1876.49 391.803 1820.17 433.563C1732.4 499.073 1840.01 635.945 1719.45 683.216C1417.52 773.343 1264.32 437.471 973.395 433.542C890.05 430.314 935.865 561.028 856.351 575.705C625.668 624.584 445.302 177.758 227.964 267.867C77.1638 331.987 173.466 592.651 24.6913 595.933C-75.8626 597.714 -187.525 420.015 -286.839 473.625C-466.678 577.601 -706.082 552.411 -865.656 449.78C-946.206 414.69 -932.896 362.485 -1002.56 350.006C-1055.18 335.5 -1066.33 362.672 -1098.52 371.041" stroke="url(#paint43_linear)"/>
<path d="M2079.14 454.03C2025.16 423.265 1871.42 391.232 1813.77 434.079C1723.93 501.242 1834.15 641.514 1710.89 690.175C1404.19 786.105 1250.74 446.371 958.993 442.879C878.681 440.009 923.445 567.898 846.049 582.716C617.5 632.363 439.488 185.389 223.972 275.568C73.0453 340.187 168.763 602.208 19.5252 605.106C-81.7322 606.676 -195.438 426.715 -295.438 481.583C-478.06 588.019 -721.746 560.132 -883.65 455.38C-960.417 420.705 -945.893 373.147 -1009.49 359.453C-1057.94 343.957 -1069.56 366.096 -1099.02 372.381" stroke="url(#paint44_linear)"/>
<path d="M2078.89 454.809C2023.68 423.397 1866.34 390.662 1807.37 434.596C1715.45 503.411 1828.28 647.083 1702.33 697.134C1390.86 798.867 1237.16 455.271 944.589 452.215C867.31 449.704 911.022 574.77 835.744 589.728C609.329 640.143 433.672 193.02 219.978 283.269C68.9245 348.388 164.059 611.765 14.3568 614.279C-87.6042 615.638 -203.353 433.414 -304.04 489.541C-489.444 598.437 -737.411 567.853 -901.646 460.98C-974.63 426.721 -958.892 383.809 -1016.43 368.9C-1060.7 352.414 -1072.79 369.52 -1099.52 373.721" stroke="url(#paint45_linear)"/>
<path d="M2078.64 455.587C2022.21 423.528 1861.26 390.092 1800.97 435.112C1706.97 505.58 1822.42 652.652 1693.77 704.093C1377.54 811.629 1223.58 464.171 930.187 461.552C855.94 459.399 898.602 581.64 825.442 596.74C601.16 647.922 427.858 200.65 215.986 290.97C64.8061 356.588 159.356 621.322 9.19029 623.452C-93.4741 624.599 -211.265 440.114 -312.639 497.499C-500.825 608.854 -753.075 575.574 -919.64 466.58C-988.84 432.736 -971.888 394.471 -1023.36 378.346C-1063.46 360.871 -1076.02 372.943 -1100.01 375.061" stroke="url(#paint46_linear)"/>
<path d="M2078.39 456.365C2020.73 423.66 1856.19 389.521 1794.56 435.629C1698.49 507.748 1816.56 658.22 1685.21 711.052C1364.21 824.39 1210 473.071 915.783 470.888C844.569 469.094 886.179 588.511 815.138 603.752C592.99 655.702 422.042 208.281 211.992 298.671C60.6856 364.788 154.651 630.879 4.02222 632.625C-99.3457 633.561 -219.18 446.813 -321.241 505.457C-512.209 619.272 -768.741 583.295 -937.636 472.18C-1003.05 438.751 -984.887 405.133 -1030.29 387.793C-1066.23 369.327 -1079.25 376.367 -1100.51 376.401" stroke="url(#paint47_linear)"/>
<path d="M2078.14 457.143C2019.25 423.792 1851.11 388.951 1788.16 436.146C1690.01 509.917 1810.69 663.789 1676.65 718.011C1350.88 837.152 1196.42 481.971 901.379 480.224C833.198 478.789 873.757 595.382 804.834 610.764C584.819 663.481 416.226 215.912 207.998 306.372C56.565 372.989 149.947 640.436 -1.14603 641.799C-105.217 642.523 -227.095 453.513 -329.842 513.415C-523.593 629.69 -784.406 591.017 -955.631 477.78C-1017.27 444.767 -997.885 415.795 -1037.22 397.24C-1068.99 377.784 -1082.48 379.791 -1101.01 377.742" stroke="url(#paint48_linear)"/>
<path d="M2077.89 457.921C2017.77 423.923 1846.03 388.38 1781.76 436.662C1681.54 512.086 1804.83 669.358 1668.09 724.97C1337.56 849.914 1182.84 490.87 886.977 489.561C821.829 488.484 861.336 602.253 794.532 617.776C576.65 671.261 410.412 223.543 204.006 314.073C52.4462 381.189 145.244 649.993 -6.31249 650.972C-111.087 651.484 -235.007 460.212 -338.442 521.373C-534.975 640.107 -800.07 598.738 -973.626 483.38C-1031.48 450.782 -1010.88 426.457 -1044.16 406.687C-1071.75 386.241 -1085.7 383.215 -1101.51 379.081" stroke="url(#paint49_linear)"/>
<path d="M2077.64 458.699C2016.29 424.055 1840.96 387.81 1775.35 437.179C1673.06 514.255 1798.97 674.927 1659.54 731.93C1324.23 862.676 1169.26 499.77 872.576 498.897C810.459 498.18 848.915 609.124 784.23 624.788C568.482 679.04 404.598 231.174 200.014 321.774C48.3277 389.39 140.541 659.55 -11.4788 660.145C-116.957 660.446 -242.92 466.912 -347.041 529.331C-546.357 650.525 -815.733 606.459 -991.619 488.98C-1045.69 456.798 -1023.88 437.119 -1051.09 416.134C-1074.51 394.698 -1088.93 386.639 -1102 380.421" stroke="url(#paint50_linear)"/>
<path d="M2077.4 459.477C2014.81 424.186 1835.88 387.24 1768.95 437.695C1664.58 516.424 1793.1 680.496 1650.98 738.889C1310.91 875.438 1155.68 508.67 858.174 508.233C799.09 507.875 836.494 615.995 773.927 631.8C560.313 686.82 398.783 238.804 196.022 329.475C44.2089 397.59 135.839 669.107 -16.6452 669.318C-122.827 669.408 -250.833 473.611 -355.64 537.289C-557.738 660.943 -831.397 614.18 -1009.61 494.58C-1059.9 462.813 -1036.88 447.781 -1058.02 425.581C-1077.27 403.155 -1092.16 390.063 -1102.5 381.761" stroke="url(#paint51_linear)"/>
<defs>
<linearGradient id="paint0_linear" x1="506.098" y1="-67" x2="506.098" y2="420.576" gradientUnits="userSpaceOnUse">
<stop stop-color="white" stop-opacity="0.19"/>
<stop offset="0.979167" stop-color="white" stop-opacity="0.33"/>
</linearGradient>
<linearGradient id="paint1_linear" x1="487.073" y1="325.003" x2="487.073" y2="778.4" gradientUnits="userSpaceOnUse">
<stop stop-color="white" stop-opacity="0.19"/>
<stop offset="0.979167" stop-color="white" stop-opacity="0.33"/>
</linearGradient>
<linearGradient id="paint2_linear" x1="505.724" y1="-59.3135" x2="505.724" y2="421.354" gradientUnits="userSpaceOnUse">
<stop stop-color="white" stop-opacity="0.19"/>
<stop offset="0.979167" stop-color="white" stop-opacity="0.33"/>
</linearGradient>
<linearGradient id="paint3_linear" x1="505.352" y1="-51.6274" x2="505.352" y2="422.132" gradientUnits="userSpaceOnUse">
<stop stop-color="white" stop-opacity="0.19"/>
<stop offset="0.979167" stop-color="white" stop-opacity="0.33"/>
</linearGradient>
<linearGradient id="paint4_linear" x1="504.977" y1="-43.9409" x2="504.977" y2="422.91" gradientUnits="userSpaceOnUse">
<stop stop-color="white" stop-opacity="0.19"/>
<stop offset="0.979167" stop-color="white" stop-opacity="0.33"/>
</linearGradient>
<linearGradient id="paint5_linear" x1="504.605" y1="-36.2546" x2="504.605" y2="423.688" gradientUnits="userSpaceOnUse">
<stop stop-color="white" stop-opacity="0.19"/>
<stop offset="0.979167" stop-color="white" stop-opacity="0.33"/>
</linearGradient>
<linearGradient id="paint6_linear" x1="504.232" y1="-28.5684" x2="504.232" y2="426.655" gradientUnits="userSpaceOnUse">
<stop stop-color="white" stop-opacity="0.19"/>
<stop offset="0.979167" stop-color="white" stop-opacity="0.33"/>
</linearGradient>
<linearGradient id="paint7_linear" x1="503.862" y1="-20.8818" x2="503.862" y2="433.043" gradientUnits="userSpaceOnUse">
<stop stop-color="white" stop-opacity="0.19"/>
<stop offset="0.979167" stop-color="white" stop-opacity="0.33"/>
</linearGradient>
<linearGradient id="paint8_linear" x1="503.486" y1="-13.1956" x2="503.486" y2="439.728" gradientUnits="userSpaceOnUse">
<stop stop-color="white" stop-opacity="0.19"/>
<stop offset="0.979167" stop-color="white" stop-opacity="0.33"/>
</linearGradient>
<linearGradient id="paint9_linear" x1="503.115" y1="-5.50928" x2="503.115" y2="446.61" gradientUnits="userSpaceOnUse">
<stop stop-color="white" stop-opacity="0.19"/>
<stop offset="0.979167" stop-color="white" stop-opacity="0.33"/>
</linearGradient>
<linearGradient id="paint10_linear" x1="502.741" y1="2.17725" x2="502.741" y2="453.569" gradientUnits="userSpaceOnUse">
<stop stop-color="white" stop-opacity="0.19"/>
<stop offset="0.979167" stop-color="white" stop-opacity="0.33"/>
</linearGradient>
<linearGradient id="paint11_linear" x1="502.368" y1="9.86328" x2="502.368" y2="460.528" gradientUnits="userSpaceOnUse">
<stop stop-color="white" stop-opacity="0.19"/>
<stop offset="0.979167" stop-color="white" stop-opacity="0.33"/>
</linearGradient>
<linearGradient id="paint12_linear" x1="501.994" y1="17.5498" x2="501.994" y2="467.487" gradientUnits="userSpaceOnUse">
<stop stop-color="white" stop-opacity="0.19"/>
<stop offset="0.979167" stop-color="white" stop-opacity="0.33"/>
</linearGradient>
<linearGradient id="paint13_linear" x1="501.622" y1="25.2361" x2="501.622" y2="474.446" gradientUnits="userSpaceOnUse">
<stop stop-color="white" stop-opacity="0.19"/>
<stop offset="0.979167" stop-color="white" stop-opacity="0.33"/>
</linearGradient>
<linearGradient id="paint14_linear" x1="501.247" y1="32.9224" x2="501.247" y2="481.405" gradientUnits="userSpaceOnUse">
<stop stop-color="white" stop-opacity="0.19"/>
<stop offset="0.979167" stop-color="white" stop-opacity="0.33"/>
</linearGradient>
<linearGradient id="paint15_linear" x1="500.877" y1="40.6089" x2="500.877" y2="488.364" gradientUnits="userSpaceOnUse">
<stop stop-color="white" stop-opacity="0.19"/>
<stop offset="0.979167" stop-color="white" stop-opacity="0.33"/>
</linearGradient>
<linearGradient id="paint16_linear" x1="500.503" y1="48.2952" x2="500.503" y2="495.323" gradientUnits="userSpaceOnUse">
<stop stop-color="white" stop-opacity="0.19"/>
<stop offset="0.979167" stop-color="white" stop-opacity="0.33"/>
</linearGradient>
<linearGradient id="paint17_linear" x1="500.132" y1="55.9814" x2="500.132" y2="502.282" gradientUnits="userSpaceOnUse">
<stop stop-color="white" stop-opacity="0.19"/>
<stop offset="0.979167" stop-color="white" stop-opacity="0.33"/>
</linearGradient>
<linearGradient id="paint18_linear" x1="499.756" y1="63.668" x2="499.756" y2="509.241" gradientUnits="userSpaceOnUse">
<stop stop-color="white" stop-opacity="0.19"/>
<stop offset="0.979167" stop-color="white" stop-opacity="0.33"/>
</linearGradient>
<linearGradient id="paint19_linear" x1="499.386" y1="71.3542" x2="499.386" y2="516.2" gradientUnits="userSpaceOnUse">
<stop stop-color="white" stop-opacity="0.19"/>
<stop offset="0.979167" stop-color="white" stop-opacity="0.33"/>
</linearGradient>
<linearGradient id="paint20_linear" x1="499.011" y1="79.0405" x2="499.011" y2="523.159" gradientUnits="userSpaceOnUse">
<stop stop-color="white" stop-opacity="0.19"/>
<stop offset="0.979167" stop-color="white" stop-opacity="0.33"/>
</linearGradient>
<linearGradient id="paint21_linear" x1="498.639" y1="86.7271" x2="498.639" y2="530.118" gradientUnits="userSpaceOnUse">
<stop stop-color="white" stop-opacity="0.19"/>
<stop offset="0.979167" stop-color="white" stop-opacity="0.33"/>
</linearGradient>
<linearGradient id="paint22_linear" x1="498.264" y1="94.4131" x2="498.264" y2="537.076" gradientUnits="userSpaceOnUse">
<stop stop-color="white" stop-opacity="0.19"/>
<stop offset="0.979167" stop-color="white" stop-opacity="0.33"/>
</linearGradient>
<linearGradient id="paint23_linear" x1="497.892" y1="102.1" x2="497.892" y2="544.035" gradientUnits="userSpaceOnUse">
<stop stop-color="white" stop-opacity="0.19"/>
<stop offset="0.979167" stop-color="white" stop-opacity="0.33"/>
</linearGradient>
<linearGradient id="paint24_linear" x1="497.52" y1="109.786" x2="497.52" y2="550.994" gradientUnits="userSpaceOnUse">
<stop stop-color="white" stop-opacity="0.19"/>
<stop offset="0.979167" stop-color="white" stop-opacity="0.33"/>
</linearGradient>
<linearGradient id="paint25_linear" x1="497.145" y1="117.472" x2="497.145" y2="557.953" gradientUnits="userSpaceOnUse">
<stop stop-color="white" stop-opacity="0.19"/>
<stop offset="0.979167" stop-color="white" stop-opacity="0.33"/>
</linearGradient>
<linearGradient id="paint26_linear" x1="496.773" y1="125.159" x2="496.773" y2="564.912" gradientUnits="userSpaceOnUse">
<stop stop-color="white" stop-opacity="0.19"/>
<stop offset="0.979167" stop-color="white" stop-opacity="0.33"/>
</linearGradient>
<linearGradient id="paint27_linear" x1="496.399" y1="132.845" x2="496.399" y2="571.871" gradientUnits="userSpaceOnUse">
<stop stop-color="white" stop-opacity="0.19"/>
<stop offset="0.979167" stop-color="white" stop-opacity="0.33"/>
</linearGradient>
<linearGradient id="paint28_linear" x1="496.026" y1="140.531" x2="496.026" y2="578.856" gradientUnits="userSpaceOnUse">
<stop stop-color="white" stop-opacity="0.19"/>
<stop offset="0.979167" stop-color="white" stop-opacity="0.33"/>
</linearGradient>
<linearGradient id="paint29_linear" x1="495.652" y1="148.218" x2="495.652" y2="585.995" gradientUnits="userSpaceOnUse">
<stop stop-color="white" stop-opacity="0.19"/>
<stop offset="0.979167" stop-color="white" stop-opacity="0.33"/>
</linearGradient>
<linearGradient id="paint30_linear" x1="495.281" y1="155.904" x2="495.281" y2="593.296" gradientUnits="userSpaceOnUse">
<stop stop-color="white" stop-opacity="0.19"/>
<stop offset="0.979167" stop-color="white" stop-opacity="0.33"/>
</linearGradient>
<linearGradient id="paint31_linear" x1="494.905" y1="163.59" x2="494.905" y2="600.746" gradientUnits="userSpaceOnUse">
<stop stop-color="white" stop-opacity="0.19"/>
<stop offset="0.979167" stop-color="white" stop-opacity="0.33"/>
</linearGradient>
<linearGradient id="paint32_linear" x1="494.537" y1="171.277" x2="494.537" y2="608.333" gradientUnits="userSpaceOnUse">
<stop stop-color="white" stop-opacity="0.19"/>
<stop offset="0.979167" stop-color="white" stop-opacity="0.33"/>
</linearGradient>
<linearGradient id="paint33_linear" x1="494.162" y1="178.963" x2="494.162" y2="616.049" gradientUnits="userSpaceOnUse">
<stop stop-color="white" stop-opacity="0.19"/>
<stop offset="0.979167" stop-color="white" stop-opacity="0.33"/>
</linearGradient>
<linearGradient id="paint34_linear" x1="493.79" y1="186.649" x2="493.79" y2="623.883" gradientUnits="userSpaceOnUse">
<stop stop-color="white" stop-opacity="0.19"/>
<stop offset="0.979167" stop-color="white" stop-opacity="0.33"/>
</linearGradient>
<linearGradient id="paint35_linear" x1="493.416" y1="194.336" x2="493.416" y2="631.827" gradientUnits="userSpaceOnUse">
<stop stop-color="white" stop-opacity="0.19"/>
<stop offset="0.979167" stop-color="white" stop-opacity="0.33"/>
</linearGradient>
<linearGradient id="paint36_linear" x1="493.043" y1="202.022" x2="493.043" y2="639.874" gradientUnits="userSpaceOnUse">
<stop stop-color="white" stop-opacity="0.19"/>
<stop offset="0.979167" stop-color="white" stop-opacity="0.33"/>
</linearGradient>
<linearGradient id="paint37_linear" x1="492.669" y1="209.708" x2="492.669" y2="648.017" gradientUnits="userSpaceOnUse">
<stop stop-color="white" stop-opacity="0.19"/>
<stop offset="0.979167" stop-color="white" stop-opacity="0.33"/>
</linearGradient>
<linearGradient id="paint38_linear" x1="492.296" y1="217.395" x2="492.296" y2="656.249" gradientUnits="userSpaceOnUse">
<stop stop-color="white" stop-opacity="0.19"/>
<stop offset="0.979167" stop-color="white" stop-opacity="0.33"/>
</linearGradient>
<linearGradient id="paint39_linear" x1="491.922" y1="225.081" x2="491.922" y2="664.566" gradientUnits="userSpaceOnUse">
<stop stop-color="white" stop-opacity="0.19"/>
<stop offset="0.979167" stop-color="white" stop-opacity="0.33"/>
</linearGradient>
<linearGradient id="paint40_linear" x1="491.55" y1="232.768" x2="491.55" y2="672.961" gradientUnits="userSpaceOnUse">
<stop stop-color="white" stop-opacity="0.19"/>
<stop offset="0.979167" stop-color="white" stop-opacity="0.33"/>
</linearGradient>
<linearGradient id="paint41_linear" x1="491.177" y1="240.454" x2="491.177" y2="681.43" gradientUnits="userSpaceOnUse">
<stop stop-color="white" stop-opacity="0.19"/>
<stop offset="0.979167" stop-color="white" stop-opacity="0.33"/>
</linearGradient>
<linearGradient id="paint42_linear" x1="490.807" y1="248.14" x2="490.807" y2="689.968" gradientUnits="userSpaceOnUse">
<stop stop-color="white" stop-opacity="0.19"/>
<stop offset="0.979167" stop-color="white" stop-opacity="0.33"/>
</linearGradient>
<linearGradient id="paint43_linear" x1="490.433" y1="255.826" x2="490.433" y2="698.571" gradientUnits="userSpaceOnUse">
<stop stop-color="white" stop-opacity="0.19"/>
<stop offset="0.979167" stop-color="white" stop-opacity="0.33"/>
</linearGradient>
<linearGradient id="paint44_linear" x1="490.06" y1="263.513" x2="490.06" y2="707.236" gradientUnits="userSpaceOnUse">
<stop stop-color="white" stop-opacity="0.19"/>
<stop offset="0.979167" stop-color="white" stop-opacity="0.33"/>
</linearGradient>
<linearGradient id="paint45_linear" x1="489.686" y1="271.199" x2="489.686" y2="715.96" gradientUnits="userSpaceOnUse">
<stop stop-color="white" stop-opacity="0.19"/>
<stop offset="0.979167" stop-color="white" stop-opacity="0.33"/>
</linearGradient>
<linearGradient id="paint46_linear" x1="489.313" y1="278.885" x2="489.313" y2="724.737" gradientUnits="userSpaceOnUse">
<stop stop-color="white" stop-opacity="0.19"/>
<stop offset="0.979167" stop-color="white" stop-opacity="0.33"/>
</linearGradient>
<linearGradient id="paint47_linear" x1="488.939" y1="286.572" x2="488.939" y2="733.567" gradientUnits="userSpaceOnUse">
<stop stop-color="white" stop-opacity="0.19"/>
<stop offset="0.979167" stop-color="white" stop-opacity="0.33"/>
</linearGradient>
<linearGradient id="paint48_linear" x1="488.565" y1="294.258" x2="488.565" y2="742.446" gradientUnits="userSpaceOnUse">
<stop stop-color="white" stop-opacity="0.19"/>
<stop offset="0.979167" stop-color="white" stop-opacity="0.33"/>
</linearGradient>
<linearGradient id="paint49_linear" x1="488.193" y1="301.944" x2="488.193" y2="751.37" gradientUnits="userSpaceOnUse">
<stop stop-color="white" stop-opacity="0.19"/>
<stop offset="0.979167" stop-color="white" stop-opacity="0.33"/>
</linearGradient>
<linearGradient id="paint50_linear" x1="487.82" y1="309.631" x2="487.82" y2="760.339" gradientUnits="userSpaceOnUse">
<stop stop-color="white" stop-opacity="0.19"/>
<stop offset="0.979167" stop-color="white" stop-opacity="0.33"/>
</linearGradient>
<linearGradient id="paint51_linear" x1="487.448" y1="317.317" x2="487.448" y2="769.35" gradientUnits="userSpaceOnUse">
<stop stop-color="white" stop-opacity="0.19"/>
<stop offset="0.979167" stop-color="white" stop-opacity="0.33"/>
</linearGradient>
</defs>
</svg>
