<svg width="768" height="478" viewBox="0 0 768 478" fill="none" xmlns="http://www.w3.org/2000/svg">
<mask id="mask0" mask-type="alpha" maskUnits="userSpaceOnUse" x="-404" y="0" width="1922" height="478">
<path d="M1518 0H69.5H-404V478H1518V0Z" fill="#4C4A58"/>
</mask>
<g mask="url(#mask0)">
<g opacity="0.2">
<path d="M-572.83 420.576C-571.311 414.649 -575.475 413.179 -565.237 390.939C-494.533 237.352 -395.46 63.684 -217.187 41.4197C-70.6852 23.1232 -133.239 272.455 -16.0968 281.209C206.586 297.851 400.742 -142.73 605.054 -55.5739C706.201 -12.4262 622.193 191.259 712.09 210.669C761.458 221.328 779.437 138.641 828.433 139.393C872.219 140.065 913.635 228.125 956.533 214.587C1123 162.052 1149.21 -85.312 1374.76 -46.7563C1533.14 -19.6824 1527.23 218.874 1629.36 314.765" stroke="url(#paint0_linear)" stroke-linecap="round" stroke-linejoin="round"/>
<path d="M-564.012 460.255C-519.645 424.318 -392.742 386.669 -345.287 438.211C-271.28 518.593 -362.452 686.065 -261.765 745.848C-22.0144 888.2 86.0877 517.57 293.499 517.57C332.468 517.57 307.194 622.866 349.221 638.812C496.254 694.599 606.921 246.435 746.625 337.177C852.262 405.79 788.962 678.664 895.3 678.491C969.612 678.37 1060.03 480.311 1133.37 545.247C1275.82 671.36 1469.06 621.901 1594.58 500.18C1626.92 468.828 1610.06 458.443 1620.55 435.027C1631.03 411.612 1641.71 393.487 1647 383.101" stroke="url(#paint1_linear)" stroke-linecap="round" stroke-linejoin="round"/>
<path d="M-572.657 421.354C-571.043 417.744 -569.203 415.193 -567.852 412.392C-565.981 410.156 -566.28 407.628 -559.287 397.898C-485.268 250.114 -386.018 72.5838 -207.174 50.756C-62.7802 32.8182 -124.603 279.326 -8.93378 288.221C212.266 305.631 404.785 -135.099 607.83 -47.8729C709.065 -4.22581 625.463 200.816 715.682 219.842C765.539 230.289 784.939 145.34 834.412 147.351C880.133 150.483 924.526 235.846 969.044 220.187C1132.88 168.067 1158.24 -74.6501 1379.58 -37.3095C1535.06 -11.2256 1529.47 222.298 1629.71 316.105" stroke="url(#paint2_linear)"/>
<path d="M-572.484 422.132C-570.015 417.875 -565.674 414.622 -563.401 412.907C-560.087 412.324 -562.203 413.196 -553.336 404.857C-476.003 262.875 -376.576 81.4831 -197.16 60.0918C-54.8752 42.5128 -115.967 286.196 -1.77057 295.233C217.946 313.409 408.828 -127.469 610.606 -40.1723C711.929 3.97407 628.733 210.373 719.274 229.014C769.621 239.25 790.441 152.039 840.391 155.308C888.046 160.9 935.417 243.567 981.555 225.787C1142.76 174.082 1167.28 -63.9887 1384.4 -27.8632C1536.98 -2.76932 1531.72 225.721 1630.06 317.445" stroke="url(#paint3_linear)"/>
<path d="M-572.311 422.91C-568.987 418.007 -562.144 414.052 -558.95 413.424C-554.193 414.493 -558.127 418.765 -547.386 411.816C-466.738 275.637 -367.134 90.3829 -187.147 69.4282C-46.9702 52.2079 -107.332 293.067 5.39246 302.244C223.625 321.189 412.87 -119.838 613.382 -32.4713C714.793 12.1745 632.003 219.93 722.867 238.187C773.702 248.212 795.942 158.739 846.371 163.266C895.96 171.317 946.307 251.288 994.066 231.387C1152.65 180.097 1176.32 -53.3267 1389.21 -18.4164C1538.9 5.68748 1533.96 229.145 1630.4 318.785" stroke="url(#paint4_linear)"/>
<path d="M-572.139 423.688C-567.959 418.138 -558.615 413.481 -554.498 413.94C-548.299 416.661 -554.05 424.334 -541.435 418.775C-457.473 288.399 -357.691 99.2824 -177.133 78.7643C-39.0653 61.9028 -98.6956 299.938 12.5555 309.256C229.305 328.968 416.913 -112.207 616.157 -24.7704C717.657 20.3746 635.273 229.486 726.459 247.36C777.784 257.174 801.444 165.438 852.35 171.224C903.874 181.735 957.198 259.009 1006.58 236.986C1162.53 186.112 1185.35 -42.6651 1394.03 -8.96985C1540.82 14.1441 1536.21 232.568 1630.75 320.124" stroke="url(#paint5_linear)"/>
<path d="M-571.966 424.466C-566.931 418.269 -555.086 412.91 -550.047 414.456C-542.405 418.83 -549.973 429.902 -535.485 425.734C-448.208 301.16 -348.249 108.182 -167.12 88.1004C-31.1603 71.5976 -90.0596 306.808 19.7187 316.268C234.985 336.747 420.956 -104.577 618.933 -17.0696C720.521 28.5748 638.543 239.043 730.052 256.533C781.865 266.135 806.946 172.137 858.329 179.182C911.788 192.152 968.089 266.73 1019.09 242.586C1172.41 192.127 1194.39 -32.0034 1398.85 0.476709C1542.74 22.6006 1538.45 235.992 1631.09 321.464" stroke="url(#paint6_linear)"/>
<path d="M-571.793 425.244C-565.903 418.401 -551.557 412.34 -545.596 414.973C-536.511 420.999 -545.897 435.471 -529.535 432.693C-438.943 313.922 -338.807 117.082 -157.106 97.4367C-23.2553 81.2927 -81.4237 313.679 26.8818 323.28C240.665 344.527 424.999 -96.9461 621.709 -9.36857C723.385 36.7752 641.813 248.6 733.644 265.706C785.947 275.097 812.448 178.837 864.308 187.14C919.701 202.57 978.979 274.451 1031.6 248.186C1182.29 198.143 1203.42 -21.3414 1403.67 9.92352C1544.66 31.0574 1540.7 239.416 1631.44 322.804" stroke="url(#paint7_linear)"/>
<path d="M-571.62 426.022C-564.875 418.532 -548.028 411.769 -541.144 415.489C-530.617 423.167 -541.82 441.04 -523.584 439.652C-429.678 326.684 -329.365 125.981 -147.093 106.773C-15.3504 90.9876 -72.7878 320.55 34.0448 330.291C246.345 352.306 429.041 -89.3156 624.485 -1.66775C726.249 44.9753 645.083 258.157 737.236 274.879C790.028 284.058 817.95 185.536 870.288 195.098C927.615 212.987 989.87 282.172 1044.11 253.786C1192.17 204.158 1212.46 -10.6797 1408.49 19.3701C1546.57 39.514 1542.94 242.84 1631.79 324.144" stroke="url(#paint8_linear)"/>
<path d="M-571.447 426.8C-563.847 418.664 -544.498 411.199 -536.693 416.005C-524.723 425.336 -537.744 446.608 -517.634 446.61C-420.412 339.445 -319.923 134.881 -137.079 116.109C-7.44537 100.682 -64.1518 327.42 41.208 337.303C252.024 360.085 433.084 -81.6851 627.261 6.03308C729.113 53.1755 648.353 267.714 740.829 284.052C794.11 293.02 823.451 192.235 876.267 203.055C935.529 223.405 1000.76 289.893 1056.62 259.385C1202.05 210.173 1221.5 -0.0180397 1413.31 28.8167C1548.49 47.9706 1545.19 246.263 1632.13 325.484" stroke="url(#paint9_linear)"/>
<path d="M-571.274 427.578C-562.819 418.795 -540.969 410.628 -532.242 416.522C-518.829 427.505 -533.667 452.177 -511.683 453.569C-411.147 352.207 -310.481 143.781 -127.066 125.445C0.459557 110.378 -55.5159 334.291 48.371 344.315C257.704 367.865 437.127 -74.0543 630.037 13.7342C731.977 61.3759 651.623 277.271 744.421 293.225C798.191 301.981 828.953 198.935 882.246 211.013C943.443 233.822 1011.65 297.614 1069.13 264.985C1211.93 216.188 1230.53 10.6439 1418.13 38.2635C1550.41 56.4275 1547.43 249.687 1632.48 326.824" stroke="url(#paint10_linear)"/>
<path d="M-571.101 428.355C-561.791 418.926 -537.44 410.057 -527.79 417.038C-512.935 429.673 -529.591 457.745 -505.733 460.528C-401.882 364.968 -301.039 152.68 -117.052 134.781C8.36463 120.072 -46.8798 341.162 55.5342 351.326C263.384 375.644 441.17 -66.424 632.813 21.4348C734.841 69.5758 654.893 286.827 748.013 302.397C802.273 310.942 834.455 205.634 888.226 218.971C951.356 244.239 1022.54 305.335 1081.64 270.585C1221.81 222.203 1239.57 21.3054 1422.95 47.7098C1552.33 64.8838 1549.67 253.11 1632.82 328.163" stroke="url(#paint11_linear)"/>
<path d="M-570.928 429.133C-560.763 419.058 -533.911 409.487 -523.339 417.554C-507.041 431.842 -525.514 463.314 -499.782 467.487C-392.617 377.73 -291.597 161.58 -107.039 144.118C16.2695 129.767 -38.244 348.033 62.6973 358.338C269.064 383.423 445.212 -58.7933 635.589 29.1358C737.705 77.7763 658.163 296.385 751.606 311.57C806.354 319.904 839.957 212.333 894.205 226.929C959.27 254.657 1033.43 313.056 1094.15 276.185C1231.69 228.218 1248.61 31.9673 1427.77 57.1567C1554.25 73.3407 1551.92 256.534 1633.17 329.503" stroke="url(#paint12_linear)"/>
<path d="M-570.755 429.911C-559.735 419.189 -530.381 408.916 -518.888 418.071C-501.147 434.01 -521.438 468.883 -493.832 474.446C-383.352 390.492 -282.155 170.479 -97.0257 153.454C24.1745 139.462 -29.608 354.903 69.8604 365.35C274.743 391.202 449.255 -51.1627 638.365 36.8367C740.569 85.9765 661.433 305.941 755.198 320.743C810.435 328.866 845.459 219.033 900.184 234.887C967.184 265.074 1044.32 320.777 1106.66 281.784C1241.57 234.233 1257.64 42.6291 1432.59 66.6033C1556.17 81.7973 1554.16 259.958 1633.51 330.843" stroke="url(#paint13_linear)"/>
<path d="M-570.582 430.689C-558.707 419.32 -526.852 408.346 -514.436 418.587C-495.253 436.179 -517.361 474.451 -487.881 481.405C-374.087 403.253 -272.712 179.379 -87.0121 162.79C32.0795 149.157 -20.972 361.774 77.0235 372.361C280.423 398.982 453.298 -43.5322 641.141 44.5375C743.433 94.1766 664.703 315.498 758.79 329.916C814.517 337.827 850.961 225.732 906.163 242.845C975.098 275.492 1055.21 328.498 1119.17 287.384C1251.45 240.248 1266.68 53.2908 1437.41 76.0499C1558.09 90.2539 1556.41 263.382 1633.86 332.183" stroke="url(#paint14_linear)"/>
<path d="M-570.41 431.467C-557.679 419.452 -523.323 407.776 -509.985 419.103C-489.359 438.348 -513.284 480.02 -481.931 488.364C-364.822 416.015 -263.27 188.279 -76.9987 172.126C39.9845 158.852 -12.3361 368.645 84.1866 379.373C286.103 406.761 457.34 -35.9014 643.917 52.2387C746.296 102.377 667.973 325.055 762.383 339.089C818.598 346.789 856.462 232.431 912.143 250.803C983.011 285.91 1066.1 336.219 1131.68 292.984C1261.33 246.264 1275.72 63.9528 1442.23 85.4967C1560.01 98.7108 1558.65 266.805 1634.21 333.523" stroke="url(#paint15_linear)"/>
<path d="M-570.237 432.245C-556.652 419.583 -519.794 407.205 -505.534 419.62C-483.465 440.516 -509.208 485.589 -475.981 495.323C-355.557 428.777 -253.828 197.178 -66.9853 181.462C47.8894 168.547 -3.70023 375.516 91.3496 386.385C291.783 414.54 461.383 -28.2708 646.693 59.9395C749.16 110.577 671.243 334.612 765.975 348.262C822.68 355.75 861.964 239.131 918.122 258.76C990.925 296.327 1077 343.94 1144.2 298.584C1271.21 252.279 1284.75 74.6145 1447.05 94.9434C1561.93 107.167 1560.9 270.229 1634.55 334.863" stroke="url(#paint16_linear)"/>
<path d="M-570.064 433.023C-555.623 419.715 -516.264 406.634 -501.083 420.136C-477.571 442.685 -505.131 491.158 -470.03 502.282C-346.292 441.538 -244.386 206.078 -56.9718 190.799C55.7944 178.242 4.93582 382.386 98.5128 393.397C297.463 422.32 465.426 -20.6402 649.469 67.6404C752.024 118.778 674.513 344.169 769.567 357.435C826.761 364.712 867.466 245.83 924.101 266.718C998.839 306.744 1087.89 351.661 1156.71 304.183C1281.09 258.294 1293.79 85.2763 1451.87 104.39C1563.85 115.624 1563.14 273.653 1634.9 336.202" stroke="url(#paint17_linear)"/>
<path d="M-569.891 433.801C-554.596 419.846 -512.735 406.064 -496.631 420.652C-471.677 444.854 -501.055 496.726 -464.08 509.241C-337.027 454.3 -234.944 214.978 -46.9584 200.135C63.6994 187.937 13.5717 389.257 105.676 400.409C303.142 430.099 469.469 -13.0094 652.244 75.3415C754.888 126.978 677.783 353.726 773.16 366.608C830.843 373.674 872.968 252.529 930.08 274.676C1006.75 317.162 1098.78 359.383 1169.22 309.783C1290.97 264.309 1302.83 95.9383 1456.69 113.837C1565.77 124.081 1565.39 277.077 1635.24 337.543" stroke="url(#paint18_linear)"/>
<path d="M-569.718 434.579C-553.568 419.978 -509.206 405.493 -492.18 421.169C-465.783 447.023 -496.978 502.295 -458.129 516.2C-327.762 467.062 -225.502 223.878 -36.945 209.471C71.6043 197.632 22.2076 396.128 112.839 407.42C308.822 437.878 473.511 -5.37885 655.02 83.0424C757.752 135.178 681.053 363.283 776.752 375.781C834.924 382.635 878.469 259.229 936.059 282.634C1014.67 327.58 1109.67 367.104 1181.73 315.383C1300.85 270.324 1311.86 106.6 1461.51 123.283C1567.69 132.538 1567.63 280.5 1635.59 338.882" stroke="url(#paint19_linear)"/>
<path d="M-569.545 435.357C-552.54 420.109 -505.677 404.923 -487.729 421.685C-459.889 449.191 -492.902 507.864 -452.179 523.159C-318.497 479.823 -216.06 232.777 -26.9315 218.807C79.5093 207.327 30.8436 402.999 120.002 414.432C314.502 445.658 477.554 2.25172 657.796 90.7433C760.616 143.378 684.323 372.84 780.344 384.954C839.006 391.597 883.971 265.928 942.039 290.592C1022.58 337.997 1120.56 374.825 1194.24 320.983C1310.74 276.34 1320.9 117.262 1466.33 132.73C1569.61 140.994 1569.88 283.924 1635.93 340.222" stroke="url(#paint20_linear)"/>
<path d="M-569.372 436.135C-551.512 420.241 -502.148 404.353 -483.277 422.202C-453.995 451.36 -488.825 513.433 -446.228 530.118C-309.232 492.585 -206.618 241.677 -16.918 228.144C87.4143 217.022 39.4795 409.869 127.165 421.444C320.182 453.437 481.597 9.88256 660.572 98.4444C763.48 151.579 687.593 382.397 783.937 394.127C843.087 400.558 889.473 272.628 948.018 298.55C1030.49 348.415 1131.45 382.546 1206.75 326.583C1320.62 282.355 1329.93 127.924 1471.15 142.177C1571.53 149.451 1572.12 287.348 1636.28 341.562" stroke="url(#paint21_linear)"/>
<path d="M-569.199 436.913C-550.484 420.372 -498.618 403.782 -478.826 422.718C-448.101 453.529 -484.749 519.001 -440.278 537.076C-299.967 505.347 -197.176 250.576 -6.90466 237.48C95.3192 226.717 48.1154 416.74 134.328 428.456C325.861 461.216 485.639 17.5129 663.348 106.145C766.344 159.779 690.863 391.954 787.529 403.3C847.169 409.52 894.975 279.327 953.997 306.508C1038.41 358.832 1142.34 390.267 1219.26 332.182C1330.5 288.37 1338.97 138.585 1475.96 151.623C1573.45 157.907 1574.37 290.771 1636.63 342.902" stroke="url(#paint22_linear)"/>
<path d="M-569.026 437.691C-549.456 420.503 -495.089 403.211 -474.375 423.234C-442.207 455.697 -480.672 524.57 -434.327 544.035C-290.701 518.108 -187.733 259.476 3.10889 246.816C103.224 236.412 56.7514 423.611 141.491 435.468C331.541 468.996 489.682 25.1437 666.124 113.846C769.208 167.979 694.133 401.511 791.122 412.473C851.25 418.481 900.477 286.026 959.977 314.466C1046.32 369.25 1153.23 397.988 1231.77 337.782C1340.38 294.385 1348.01 149.247 1480.78 161.07C1575.37 166.364 1576.61 294.195 1636.97 344.242" stroke="url(#paint23_linear)"/>
<path d="M-568.854 438.469C-548.428 420.635 -491.56 402.641 -469.924 423.751C-436.313 457.866 -476.595 530.138 -428.377 550.994C-281.436 530.87 -178.291 268.376 13.1223 256.152C111.129 246.107 65.3874 430.482 148.654 442.479C337.221 476.775 493.725 32.7743 668.9 121.547C772.072 176.18 697.403 411.068 794.714 421.646C855.331 427.443 905.979 292.726 965.956 322.424C1054.23 379.667 1164.12 405.709 1244.28 343.382C1350.26 300.4 1357.04 159.909 1485.6 170.517C1577.29 174.821 1578.86 297.619 1637.32 345.582" stroke="url(#paint24_linear)"/>
<path d="M-568.681 439.247C-547.4 420.766 -488.031 402.07 -465.472 424.267C-430.419 460.035 -472.519 535.707 -422.427 557.953C-272.171 543.632 -168.849 277.276 23.1357 265.489C119.034 255.802 74.0232 437.352 155.817 449.491C342.901 484.554 497.768 40.405 671.676 129.248C774.936 184.38 700.673 420.625 798.306 430.819C859.413 436.404 911.48 299.425 971.935 330.381C1062.15 390.085 1175.01 413.43 1256.79 348.982C1360.14 306.415 1366.08 170.571 1490.42 179.964C1579.21 183.278 1581.1 301.043 1637.66 346.922" stroke="url(#paint25_linear)"/>
<path d="M-568.508 440.025C-546.372 420.898 -484.501 401.5 -461.021 424.783C-424.525 462.204 -468.442 541.276 -416.476 564.912C-262.906 556.394 -159.407 286.175 33.1492 274.825C126.939 265.497 82.6593 444.223 162.981 456.503C348.58 492.334 501.81 48.0358 674.452 136.949C777.8 192.58 703.943 430.182 801.899 439.992C863.494 445.366 916.982 306.125 977.914 338.34C1070.06 400.502 1185.9 421.151 1269.3 354.582C1370.02 312.431 1375.12 181.233 1495.24 189.411C1581.12 191.735 1583.35 304.467 1638.01 348.262" stroke="url(#paint26_linear)"/>
<path d="M-568.335 440.803C-545.344 421.029 -480.972 400.93 -456.57 425.3C-418.631 464.372 -464.366 546.845 -410.526 571.871C-253.641 569.155 -149.965 295.075 43.1626 284.161C134.844 275.192 91.2952 451.094 170.144 463.515C354.26 500.113 505.853 55.6664 677.228 144.65C780.664 200.781 707.213 439.739 805.491 449.165C867.576 454.328 922.484 312.824 983.894 346.297C1077.98 410.92 1196.79 428.872 1281.81 360.182C1379.9 318.446 1384.15 191.895 1500.06 198.857C1583.04 200.191 1585.59 307.891 1638.36 349.602" stroke="url(#paint27_linear)"/>
<path d="M-568.162 441.581C-544.316 421.161 -477.443 400.359 -452.118 425.816C-412.737 466.541 -460.289 552.413 -404.575 578.83C-244.376 581.917 -140.523 303.975 53.1761 293.497C142.749 284.887 99.9312 457.965 177.307 470.527C359.94 507.893 509.896 63.2971 680.004 152.351C783.528 208.981 710.483 449.295 809.083 458.338C871.657 463.289 927.986 319.523 989.873 354.255C1085.89 421.337 1207.68 436.593 1294.32 365.782C1389.78 324.461 1393.19 202.557 1504.88 208.304C1584.96 208.648 1587.84 311.314 1638.7 350.941" stroke="url(#paint28_linear)"/>
<path d="M-567.989 442.359C-543.288 421.292 -473.914 399.789 -447.667 426.333C-406.843 468.71 -456.213 557.982 -398.625 585.789C-235.111 594.679 -131.081 312.875 63.1896 302.834C150.654 294.583 108.567 464.836 184.47 477.539C365.62 515.672 513.939 70.9279 682.779 160.052C786.392 217.181 713.753 458.853 812.676 467.511C875.739 472.251 933.488 326.223 995.852 362.213C1093.8 431.755 1218.57 444.315 1306.84 371.382C1399.66 330.477 1402.23 213.219 1509.7 217.751C1586.88 217.105 1590.08 314.738 1639.05 352.282" stroke="url(#paint29_linear)"/>
<path d="M-567.816 443.137C-542.26 421.424 -470.385 399.218 -443.216 426.849C-400.949 470.878 -452.136 563.551 -392.674 592.748C-225.846 607.44 -121.639 321.774 73.2029 312.17C158.559 304.277 117.203 471.706 191.633 484.55C371.299 523.451 517.981 78.5583 685.555 167.753C789.256 225.381 717.023 468.409 816.268 476.683C879.82 481.212 938.99 332.922 1001.83 370.171C1101.72 442.172 1229.46 452.035 1319.35 376.981C1409.54 336.492 1411.26 223.88 1514.52 227.197C1588.8 225.561 1592.32 318.162 1639.39 353.621" stroke="url(#paint30_linear)"/>
<path d="M-567.643 443.915C-541.232 421.555 -466.855 398.648 -438.764 427.365C-395.055 473.047 -448.06 569.12 -386.724 599.707C-216.581 620.202 -112.197 330.674 83.2165 321.506C166.464 313.973 125.839 478.577 198.796 491.562C376.979 531.231 522.024 86.1892 688.331 175.454C792.12 233.582 720.293 477.966 819.86 485.857C883.902 490.174 944.491 339.622 1007.81 378.129C1109.63 452.59 1240.35 459.757 1331.86 382.581C1419.42 342.507 1420.3 234.542 1519.34 236.644C1590.72 234.018 1594.57 321.586 1639.74 354.961" stroke="url(#paint31_linear)"/>
<path d="M-567.47 444.693C-540.204 421.687 -463.326 398.077 -434.313 427.882C-389.161 475.216 -443.983 574.688 -380.774 606.666C-207.316 632.964 -102.755 339.574 93.2299 330.843C174.369 323.668 134.475 485.448 205.959 498.574C382.659 539.01 526.067 93.8198 691.107 183.155C794.984 241.782 723.563 487.523 823.453 495.03C887.983 499.136 949.993 346.321 1013.79 386.087C1117.54 463.008 1251.25 467.478 1344.37 388.181C1429.3 348.522 1429.34 245.204 1524.16 246.091C1592.64 242.475 1596.81 325.009 1640.08 356.301" stroke="url(#paint32_linear)"/>
<path d="M-567.297 445.471C-539.176 421.818 -459.797 397.507 -429.862 428.398C-383.267 477.385 -439.907 580.257 -374.823 613.625C-198.051 645.725 -93.3124 348.473 103.243 340.179C182.274 333.363 143.111 492.319 213.122 505.586C388.339 546.789 530.109 101.45 693.883 190.856C797.847 249.983 726.833 497.08 827.045 504.203C892.065 508.097 955.495 353.02 1019.77 394.045C1125.46 473.425 1262.14 475.199 1356.88 393.781C1439.18 354.537 1438.37 255.866 1528.98 255.538C1594.56 250.932 1599.06 328.433 1640.43 357.641" stroke="url(#paint33_linear)"/>
<path d="M-567.125 446.25C-538.148 421.95 -456.268 396.936 -425.41 428.915C-377.373 479.554 -435.83 585.826 -368.873 620.584C-188.786 658.487 -83.8702 357.373 113.257 349.515C190.179 343.058 151.747 499.19 220.285 512.598C394.019 554.569 534.152 109.081 696.659 198.557C800.711 258.183 730.103 506.638 830.637 513.376C896.146 517.059 960.997 359.72 1025.75 402.003C1133.37 483.843 1273.03 482.92 1369.39 399.381C1449.06 360.553 1447.41 266.528 1533.8 264.985C1596.48 259.389 1601.3 331.857 1640.78 358.981" stroke="url(#paint34_linear)"/>
<path d="M-566.952 447.028C-537.12 422.081 -452.738 396.366 -420.959 429.431C-371.479 481.723 -431.753 591.395 -362.922 627.543C-179.521 671.249 -74.4282 366.273 123.27 358.852C198.084 352.753 160.383 506.061 227.448 519.609C399.698 562.348 538.195 116.712 699.435 206.258C803.575 266.383 733.373 516.194 834.23 522.549C900.228 526.021 966.499 366.419 1031.73 409.961C1141.29 494.26 1283.92 490.641 1381.9 404.981C1458.94 366.568 1456.44 277.19 1538.62 274.431C1598.4 267.846 1603.55 335.281 1641.12 360.321" stroke="url(#paint35_linear)"/>
<path d="M-566.779 447.806C-536.092 422.213 -449.209 395.795 -416.508 429.948C-365.585 483.891 -427.677 596.963 -356.972 634.502C-170.256 684.011 -64.9861 375.173 133.284 368.188C205.989 362.448 169.019 512.931 234.612 526.621C405.378 570.128 542.238 124.343 702.211 213.959C806.439 274.584 736.643 525.751 837.822 531.722C904.309 534.982 972 373.119 1037.71 417.919C1149.2 504.678 1294.81 498.362 1394.41 410.581C1468.83 372.583 1465.48 287.852 1543.44 283.878C1600.32 276.302 1605.79 338.705 1641.47 361.661" stroke="url(#paint36_linear)"/>
<path d="M-566.606 448.584C-535.064 422.345 -445.68 395.225 -412.057 430.464C-359.69 486.06 -423.6 602.532 -351.021 641.462C-160.99 696.773 -55.5439 384.073 143.297 377.524C213.894 372.143 177.655 519.803 241.775 533.633C411.058 577.907 546.28 131.974 704.987 221.66C809.303 282.784 739.913 535.309 841.415 540.895C908.391 543.944 977.502 379.818 1043.69 425.877C1157.11 515.096 1305.7 506.084 1406.92 416.181C1478.71 378.599 1474.52 298.514 1548.26 293.325C1602.24 284.759 1608.04 342.129 1641.81 363.001" stroke="url(#paint37_linear)"/>
<path d="M-566.433 449.362C-534.037 422.476 -442.151 394.655 -407.605 430.981C-353.797 488.229 -419.524 608.101 -345.071 648.421C-151.725 709.534 -46.1019 392.972 153.311 386.861C221.799 381.838 186.291 526.673 248.938 540.645C416.738 585.687 550.323 139.604 707.763 229.361C812.167 290.985 743.183 544.866 845.007 550.068C912.472 552.906 983.004 386.518 1049.67 433.835C1165.03 525.513 1316.59 513.805 1419.43 421.78C1488.59 384.614 1483.55 309.176 1553.08 302.772C1604.16 293.216 1610.28 345.552 1642.16 364.341" stroke="url(#paint38_linear)"/>
<path d="M-566.26 450.14C-533.009 422.607 -438.622 394.084 -403.154 431.497C-347.903 490.398 -415.447 613.67 -339.121 655.38C-142.46 722.296 -36.6598 401.872 163.324 396.197C229.704 391.533 194.926 533.544 256.101 547.657C422.417 593.466 554.366 147.235 710.538 237.062C815.031 299.185 746.452 554.423 848.599 559.241C916.553 561.868 988.506 393.217 1055.64 441.793C1172.94 535.931 1327.48 521.526 1431.94 427.38C1498.47 390.629 1492.59 319.838 1557.89 312.218C1606.08 301.673 1612.53 348.976 1642.5 365.681" stroke="url(#paint39_linear)"/>
<path d="M-566.087 450.918C-531.981 422.739 -435.092 393.514 -398.703 432.014C-342.008 492.567 -411.371 619.239 -333.17 662.339C-133.195 735.058 -27.2176 410.772 173.337 405.534C237.609 401.228 203.562 540.415 263.264 554.669C428.097 601.246 558.409 154.866 713.314 244.764C817.895 307.386 749.722 563.98 852.192 568.414C920.635 570.829 994.008 399.917 1061.62 449.751C1180.85 546.349 1338.37 529.247 1444.45 432.98C1508.35 396.645 1501.63 330.5 1562.71 321.665C1608 310.13 1614.77 352.4 1642.85 367.021" stroke="url(#paint40_linear)"/>
<path d="M-565.914 451.696C-530.953 422.87 -431.563 392.943 -394.251 432.53C-336.115 494.735 -407.294 624.807 -327.22 669.298C-123.93 747.82 -17.7755 419.672 183.351 414.87C245.514 410.923 212.198 547.286 270.427 561.681C433.777 609.025 562.451 162.496 716.09 252.464C820.759 315.586 752.993 573.537 855.784 577.587C924.716 579.791 999.509 406.616 1067.6 457.709C1188.77 556.766 1349.26 536.968 1456.97 438.58C1518.23 402.659 1510.66 341.161 1567.53 331.112C1609.92 318.586 1617.02 355.824 1643.2 368.361" stroke="url(#paint41_linear)"/>
<path d="M-565.741 452.474C-529.925 423.002 -428.034 392.373 -389.8 433.046C-330.221 496.904 -403.218 630.376 -321.269 676.257C-114.665 760.581 -8.33345 428.572 193.364 424.206C253.419 420.619 220.834 554.157 277.59 568.693C439.457 616.805 566.494 170.127 718.866 260.166C823.623 323.786 756.262 583.094 859.376 586.76C928.798 588.753 1005.01 413.316 1073.58 465.667C1196.68 567.184 1360.15 544.69 1469.48 444.18C1528.11 408.675 1519.7 351.823 1572.35 340.559C1611.84 327.043 1619.26 359.248 1643.54 369.701" stroke="url(#paint42_linear)"/>
<path d="M-565.568 453.252C-528.897 423.134 -424.505 391.803 -385.349 433.563C-324.326 499.073 -399.141 635.945 -315.319 683.216C-105.4 773.343 1.1087 437.471 203.378 433.542C261.324 430.314 229.47 561.028 284.753 575.705C445.136 624.584 570.537 177.758 721.642 267.867C826.487 331.987 759.532 592.651 862.969 595.933C932.879 597.714 1010.51 420.015 1079.56 473.625C1204.6 577.601 1371.04 552.411 1481.99 449.78C1537.99 414.69 1528.74 362.485 1577.17 350.006C1613.76 335.5 1621.51 362.672 1643.89 371.041" stroke="url(#paint43_linear)"/>
<path d="M-565.396 454.03C-527.869 423.265 -420.975 391.232 -380.898 434.079C-318.432 501.242 -395.064 641.514 -309.368 690.175C-96.135 786.105 10.5508 446.371 213.391 442.879C269.229 440.009 238.106 567.898 291.916 582.716C450.816 632.363 574.58 185.389 724.418 275.568C829.351 340.187 762.802 602.208 866.561 605.106C936.961 606.676 1016.01 426.715 1085.54 481.583C1212.51 588.019 1381.93 560.132 1494.5 455.38C1547.87 420.705 1537.77 373.147 1581.99 359.453C1615.67 343.957 1623.75 366.096 1644.23 372.381" stroke="url(#paint44_linear)"/>
<path d="M-565.223 454.809C-526.841 423.397 -417.446 390.662 -376.446 434.596C-312.538 503.411 -390.988 647.083 -303.418 697.134C-86.8699 798.867 19.993 455.271 223.405 452.215C277.134 449.704 246.742 574.77 299.08 589.728C456.496 640.143 578.622 193.02 727.194 283.269C832.215 348.388 766.072 611.765 870.153 614.279C941.042 615.638 1021.52 433.414 1091.52 489.541C1220.42 598.437 1392.82 567.853 1507.01 460.98C1557.75 426.721 1546.81 383.809 1586.81 368.9C1617.59 352.414 1626 369.52 1644.58 373.721" stroke="url(#paint45_linear)"/>
<path d="M-565.05 455.587C-525.813 423.528 -413.917 390.092 -371.995 435.112C-306.644 505.58 -386.911 652.652 -297.467 704.093C-77.6048 811.629 29.435 464.171 233.418 461.552C285.039 459.399 255.378 581.64 306.243 596.74C462.176 647.922 582.665 200.65 729.97 290.97C835.079 356.588 769.342 621.322 873.746 623.452C945.124 624.599 1027.02 440.114 1097.5 497.499C1228.34 608.854 1403.71 575.574 1519.52 466.58C1567.63 432.736 1555.85 394.471 1591.63 378.346C1619.51 360.871 1628.24 372.943 1644.93 375.061" stroke="url(#paint46_linear)"/>
<path d="M-564.877 456.365C-524.785 423.66 -410.388 389.521 -367.544 435.629C-300.75 507.748 -382.835 658.22 -291.517 711.052C-68.3398 824.39 38.8771 473.071 243.432 470.888C292.944 469.094 264.014 588.511 313.406 603.752C467.855 655.702 586.708 208.281 732.746 298.671C837.942 364.788 772.612 630.879 877.338 632.625C949.205 633.561 1032.52 446.813 1103.48 505.457C1236.25 619.272 1414.61 583.295 1532.03 472.18C1577.51 438.751 1564.88 405.133 1596.45 387.793C1621.43 369.327 1630.49 376.367 1645.27 376.401" stroke="url(#paint47_linear)"/>
<path d="M-564.704 457.143C-523.757 423.792 -406.858 388.951 -363.092 436.146C-294.856 509.917 -378.758 663.789 -285.567 718.011C-59.0746 837.152 48.3193 481.971 253.445 480.224C300.849 478.789 272.65 595.382 320.569 610.764C473.535 663.481 590.751 215.912 735.522 306.372C840.807 372.989 775.882 640.436 880.93 641.799C953.287 642.523 1038.02 453.513 1109.46 513.415C1244.16 629.69 1425.5 591.017 1544.54 477.78C1587.39 444.767 1573.92 415.795 1601.27 397.24C1623.35 377.784 1632.73 379.791 1645.62 377.742" stroke="url(#paint48_linear)"/>
<path d="M-564.531 457.921C-522.729 423.923 -403.329 388.38 -358.641 436.662C-288.962 512.086 -374.682 669.358 -279.616 724.97C-49.8096 849.914 57.7614 490.87 263.458 489.561C308.754 488.484 281.286 602.253 327.732 617.776C479.215 671.261 594.793 223.543 738.298 314.073C843.67 381.189 779.152 649.993 884.523 650.972C957.368 651.484 1043.52 460.212 1115.44 521.373C1252.08 640.107 1436.39 598.738 1557.05 483.38C1597.27 450.782 1582.95 426.457 1606.09 406.687C1625.27 386.241 1634.98 383.215 1645.96 379.081" stroke="url(#paint49_linear)"/>
<path d="M-564.358 458.699C-521.701 424.055 -399.8 387.81 -354.19 437.179C-283.068 514.255 -370.605 674.927 -273.666 731.93C-40.5446 862.676 67.2034 499.77 273.472 498.897C316.658 498.18 289.922 609.124 334.895 624.788C484.895 679.04 598.836 231.174 741.073 321.774C846.534 389.39 782.422 659.55 888.115 660.145C961.449 660.446 1049.03 466.912 1121.42 529.331C1259.99 650.525 1447.28 606.459 1569.56 488.98C1607.15 456.798 1591.99 437.119 1610.91 416.134C1627.19 394.698 1637.22 386.639 1646.31 380.421" stroke="url(#paint50_linear)"/>
<path d="M-564.185 459.477C-520.673 424.186 -396.271 387.24 -349.738 437.695C-277.174 516.424 -366.528 680.496 -267.715 738.889C-31.2794 875.438 76.6456 508.67 283.485 508.233C324.563 507.875 298.558 615.995 342.058 631.8C490.575 686.82 602.879 238.804 743.849 329.475C849.398 397.59 785.692 669.107 891.708 669.318C965.531 669.408 1054.53 473.611 1127.4 537.289C1267.91 660.943 1458.17 614.18 1582.07 494.58C1617.03 462.813 1601.03 447.781 1615.73 425.581C1629.11 403.155 1639.46 390.063 1646.65 381.761" stroke="url(#paint51_linear)"/>
</g>
</g>
<defs>
<linearGradient id="paint0_linear" x1="528.267" y1="-67" x2="528.267" y2="420.576" gradientUnits="userSpaceOnUse">
<stop stop-color="#333399"/>
<stop offset="1" stop-color="#333399" stop-opacity="0"/>
</linearGradient>
<linearGradient id="paint1_linear" x1="541.494" y1="325.003" x2="541.494" y2="778.4" gradientUnits="userSpaceOnUse">
<stop stop-color="#333399"/>
<stop offset="1" stop-color="#333399" stop-opacity="0"/>
</linearGradient>
<linearGradient id="paint2_linear" x1="528.527" y1="-59.3135" x2="528.527" y2="421.354" gradientUnits="userSpaceOnUse">
<stop stop-color="#333399"/>
<stop offset="1" stop-color="#333399" stop-opacity="0"/>
</linearGradient>
<linearGradient id="paint3_linear" x1="528.786" y1="-51.6274" x2="528.786" y2="422.132" gradientUnits="userSpaceOnUse">
<stop stop-color="#333399"/>
<stop offset="1" stop-color="#333399" stop-opacity="0"/>
</linearGradient>
<linearGradient id="paint4_linear" x1="529.045" y1="-43.9409" x2="529.045" y2="422.91" gradientUnits="userSpaceOnUse">
<stop stop-color="#333399"/>
<stop offset="1" stop-color="#333399" stop-opacity="0"/>
</linearGradient>
<linearGradient id="paint5_linear" x1="529.305" y1="-36.2546" x2="529.305" y2="423.688" gradientUnits="userSpaceOnUse">
<stop stop-color="#333399"/>
<stop offset="1" stop-color="#333399" stop-opacity="0"/>
</linearGradient>
<linearGradient id="paint6_linear" x1="529.564" y1="-28.5684" x2="529.564" y2="426.655" gradientUnits="userSpaceOnUse">
<stop stop-color="#333399"/>
<stop offset="1" stop-color="#333399" stop-opacity="0"/>
</linearGradient>
<linearGradient id="paint7_linear" x1="529.823" y1="-20.8818" x2="529.823" y2="433.043" gradientUnits="userSpaceOnUse">
<stop stop-color="#333399"/>
<stop offset="1" stop-color="#333399" stop-opacity="0"/>
</linearGradient>
<linearGradient id="paint8_linear" x1="530.083" y1="-13.1956" x2="530.083" y2="439.728" gradientUnits="userSpaceOnUse">
<stop stop-color="#333399"/>
<stop offset="1" stop-color="#333399" stop-opacity="0"/>
</linearGradient>
<linearGradient id="paint9_linear" x1="530.342" y1="-5.50928" x2="530.342" y2="446.61" gradientUnits="userSpaceOnUse">
<stop stop-color="#333399"/>
<stop offset="1" stop-color="#333399" stop-opacity="0"/>
</linearGradient>
<linearGradient id="paint10_linear" x1="530.601" y1="2.17725" x2="530.601" y2="453.569" gradientUnits="userSpaceOnUse">
<stop stop-color="#333399"/>
<stop offset="1" stop-color="#333399" stop-opacity="0"/>
</linearGradient>
<linearGradient id="paint11_linear" x1="530.861" y1="9.86328" x2="530.861" y2="460.528" gradientUnits="userSpaceOnUse">
<stop stop-color="#333399"/>
<stop offset="1" stop-color="#333399" stop-opacity="0"/>
</linearGradient>
<linearGradient id="paint12_linear" x1="531.12" y1="17.5498" x2="531.12" y2="467.487" gradientUnits="userSpaceOnUse">
<stop stop-color="#333399"/>
<stop offset="1" stop-color="#333399" stop-opacity="0"/>
</linearGradient>
<linearGradient id="paint13_linear" x1="531.379" y1="25.2361" x2="531.379" y2="474.446" gradientUnits="userSpaceOnUse">
<stop stop-color="#333399"/>
<stop offset="1" stop-color="#333399" stop-opacity="0"/>
</linearGradient>
<linearGradient id="paint14_linear" x1="531.639" y1="32.9224" x2="531.639" y2="481.405" gradientUnits="userSpaceOnUse">
<stop stop-color="#333399"/>
<stop offset="1" stop-color="#333399" stop-opacity="0"/>
</linearGradient>
<linearGradient id="paint15_linear" x1="531.898" y1="40.6089" x2="531.898" y2="488.364" gradientUnits="userSpaceOnUse">
<stop stop-color="#333399"/>
<stop offset="1" stop-color="#333399" stop-opacity="0"/>
</linearGradient>
<linearGradient id="paint16_linear" x1="532.157" y1="48.2952" x2="532.157" y2="495.323" gradientUnits="userSpaceOnUse">
<stop stop-color="#333399"/>
<stop offset="1" stop-color="#333399" stop-opacity="0"/>
</linearGradient>
<linearGradient id="paint17_linear" x1="532.417" y1="55.9814" x2="532.417" y2="502.282" gradientUnits="userSpaceOnUse">
<stop stop-color="#333399"/>
<stop offset="1" stop-color="#333399" stop-opacity="0"/>
</linearGradient>
<linearGradient id="paint18_linear" x1="532.676" y1="63.668" x2="532.676" y2="509.241" gradientUnits="userSpaceOnUse">
<stop stop-color="#333399"/>
<stop offset="1" stop-color="#333399" stop-opacity="0"/>
</linearGradient>
<linearGradient id="paint19_linear" x1="532.935" y1="71.3542" x2="532.935" y2="516.2" gradientUnits="userSpaceOnUse">
<stop stop-color="#333399"/>
<stop offset="1" stop-color="#333399" stop-opacity="0"/>
</linearGradient>
<linearGradient id="paint20_linear" x1="533.195" y1="79.0405" x2="533.195" y2="523.159" gradientUnits="userSpaceOnUse">
<stop stop-color="#333399"/>
<stop offset="1" stop-color="#333399" stop-opacity="0"/>
</linearGradient>
<linearGradient id="paint21_linear" x1="533.454" y1="86.7271" x2="533.454" y2="530.118" gradientUnits="userSpaceOnUse">
<stop stop-color="#333399"/>
<stop offset="1" stop-color="#333399" stop-opacity="0"/>
</linearGradient>
<linearGradient id="paint22_linear" x1="533.714" y1="94.4131" x2="533.714" y2="537.076" gradientUnits="userSpaceOnUse">
<stop stop-color="#333399"/>
<stop offset="1" stop-color="#333399" stop-opacity="0"/>
</linearGradient>
<linearGradient id="paint23_linear" x1="533.973" y1="102.1" x2="533.973" y2="544.035" gradientUnits="userSpaceOnUse">
<stop stop-color="#333399"/>
<stop offset="1" stop-color="#333399" stop-opacity="0"/>
</linearGradient>
<linearGradient id="paint24_linear" x1="534.232" y1="109.786" x2="534.232" y2="550.994" gradientUnits="userSpaceOnUse">
<stop stop-color="#333399"/>
<stop offset="1" stop-color="#333399" stop-opacity="0"/>
</linearGradient>
<linearGradient id="paint25_linear" x1="534.491" y1="117.472" x2="534.491" y2="557.953" gradientUnits="userSpaceOnUse">
<stop stop-color="#333399"/>
<stop offset="1" stop-color="#333399" stop-opacity="0"/>
</linearGradient>
<linearGradient id="paint26_linear" x1="534.751" y1="125.159" x2="534.751" y2="564.912" gradientUnits="userSpaceOnUse">
<stop stop-color="#333399"/>
<stop offset="1" stop-color="#333399" stop-opacity="0"/>
</linearGradient>
<linearGradient id="paint27_linear" x1="535.01" y1="132.845" x2="535.01" y2="571.871" gradientUnits="userSpaceOnUse">
<stop stop-color="#333399"/>
<stop offset="1" stop-color="#333399" stop-opacity="0"/>
</linearGradient>
<linearGradient id="paint28_linear" x1="535.27" y1="140.531" x2="535.27" y2="578.856" gradientUnits="userSpaceOnUse">
<stop stop-color="#333399"/>
<stop offset="1" stop-color="#333399" stop-opacity="0"/>
</linearGradient>
<linearGradient id="paint29_linear" x1="535.529" y1="148.218" x2="535.529" y2="585.995" gradientUnits="userSpaceOnUse">
<stop stop-color="#333399"/>
<stop offset="1" stop-color="#333399" stop-opacity="0"/>
</linearGradient>
<linearGradient id="paint30_linear" x1="535.788" y1="155.904" x2="535.788" y2="593.296" gradientUnits="userSpaceOnUse">
<stop stop-color="#333399"/>
<stop offset="1" stop-color="#333399" stop-opacity="0"/>
</linearGradient>
<linearGradient id="paint31_linear" x1="536.048" y1="163.59" x2="536.048" y2="600.746" gradientUnits="userSpaceOnUse">
<stop stop-color="#333399"/>
<stop offset="1" stop-color="#333399" stop-opacity="0"/>
</linearGradient>
<linearGradient id="paint32_linear" x1="536.307" y1="171.277" x2="536.307" y2="608.333" gradientUnits="userSpaceOnUse">
<stop stop-color="#333399"/>
<stop offset="1" stop-color="#333399" stop-opacity="0"/>
</linearGradient>
<linearGradient id="paint33_linear" x1="536.566" y1="178.963" x2="536.566" y2="616.049" gradientUnits="userSpaceOnUse">
<stop stop-color="#333399"/>
<stop offset="1" stop-color="#333399" stop-opacity="0"/>
</linearGradient>
<linearGradient id="paint34_linear" x1="536.826" y1="186.649" x2="536.826" y2="623.883" gradientUnits="userSpaceOnUse">
<stop stop-color="#333399"/>
<stop offset="1" stop-color="#333399" stop-opacity="0"/>
</linearGradient>
<linearGradient id="paint35_linear" x1="537.085" y1="194.336" x2="537.085" y2="631.827" gradientUnits="userSpaceOnUse">
<stop stop-color="#333399"/>
<stop offset="1" stop-color="#333399" stop-opacity="0"/>
</linearGradient>
<linearGradient id="paint36_linear" x1="537.344" y1="202.022" x2="537.344" y2="639.874" gradientUnits="userSpaceOnUse">
<stop stop-color="#333399"/>
<stop offset="1" stop-color="#333399" stop-opacity="0"/>
</linearGradient>
<linearGradient id="paint37_linear" x1="537.604" y1="209.708" x2="537.604" y2="648.017" gradientUnits="userSpaceOnUse">
<stop stop-color="#333399"/>
<stop offset="1" stop-color="#333399" stop-opacity="0"/>
</linearGradient>
<linearGradient id="paint38_linear" x1="537.863" y1="217.395" x2="537.863" y2="656.249" gradientUnits="userSpaceOnUse">
<stop stop-color="#333399"/>
<stop offset="1" stop-color="#333399" stop-opacity="0"/>
</linearGradient>
<linearGradient id="paint39_linear" x1="538.122" y1="225.081" x2="538.122" y2="664.566" gradientUnits="userSpaceOnUse">
<stop stop-color="#333399"/>
<stop offset="1" stop-color="#333399" stop-opacity="0"/>
</linearGradient>
<linearGradient id="paint40_linear" x1="538.382" y1="232.768" x2="538.382" y2="672.961" gradientUnits="userSpaceOnUse">
<stop stop-color="#333399"/>
<stop offset="1" stop-color="#333399" stop-opacity="0"/>
</linearGradient>
<linearGradient id="paint41_linear" x1="538.641" y1="240.454" x2="538.641" y2="681.43" gradientUnits="userSpaceOnUse">
<stop stop-color="#333399"/>
<stop offset="1" stop-color="#333399" stop-opacity="0"/>
</linearGradient>
<linearGradient id="paint42_linear" x1="538.9" y1="248.14" x2="538.9" y2="689.968" gradientUnits="userSpaceOnUse">
<stop stop-color="#333399"/>
<stop offset="1" stop-color="#333399" stop-opacity="0"/>
</linearGradient>
<linearGradient id="paint43_linear" x1="539.16" y1="255.826" x2="539.16" y2="698.571" gradientUnits="userSpaceOnUse">
<stop stop-color="#333399"/>
<stop offset="1" stop-color="#333399" stop-opacity="0"/>
</linearGradient>
<linearGradient id="paint44_linear" x1="539.419" y1="263.513" x2="539.419" y2="707.236" gradientUnits="userSpaceOnUse">
<stop stop-color="#333399"/>
<stop offset="1" stop-color="#333399" stop-opacity="0"/>
</linearGradient>
<linearGradient id="paint45_linear" x1="539.678" y1="271.199" x2="539.678" y2="715.96" gradientUnits="userSpaceOnUse">
<stop stop-color="#333399"/>
<stop offset="1" stop-color="#333399" stop-opacity="0"/>
</linearGradient>
<linearGradient id="paint46_linear" x1="539.938" y1="278.885" x2="539.938" y2="724.737" gradientUnits="userSpaceOnUse">
<stop stop-color="#333399"/>
<stop offset="1" stop-color="#333399" stop-opacity="0"/>
</linearGradient>
<linearGradient id="paint47_linear" x1="540.197" y1="286.572" x2="540.197" y2="733.567" gradientUnits="userSpaceOnUse">
<stop stop-color="#333399"/>
<stop offset="1" stop-color="#333399" stop-opacity="0"/>
</linearGradient>
<linearGradient id="paint48_linear" x1="540.456" y1="294.258" x2="540.456" y2="742.446" gradientUnits="userSpaceOnUse">
<stop stop-color="#333399"/>
<stop offset="1" stop-color="#333399" stop-opacity="0"/>
</linearGradient>
<linearGradient id="paint49_linear" x1="540.716" y1="301.944" x2="540.716" y2="751.37" gradientUnits="userSpaceOnUse">
<stop stop-color="#333399"/>
<stop offset="1" stop-color="#333399" stop-opacity="0"/>
</linearGradient>
<linearGradient id="paint50_linear" x1="540.975" y1="309.631" x2="540.975" y2="760.339" gradientUnits="userSpaceOnUse">
<stop stop-color="#333399"/>
<stop offset="1" stop-color="#333399" stop-opacity="0"/>
</linearGradient>
<linearGradient id="paint51_linear" x1="541.234" y1="317.317" x2="541.234" y2="769.35" gradientUnits="userSpaceOnUse">
<stop stop-color="#333399"/>
<stop offset="1" stop-color="#333399" stop-opacity="0"/>
</linearGradient>
</defs>
</svg>
