<svg width="1920" height="357" viewBox="0 0 1920 357" fill="none" xmlns="http://www.w3.org/2000/svg">
<g opacity="0.2">
<path d="M2088.83 420.576C2087.31 414.649 2091.48 413.179 2081.24 390.939C2010.53 237.352 1911.46 63.684 1733.19 41.4197C1586.69 23.1232 1649.24 272.455 1532.1 281.209C1309.41 297.851 1115.26 -142.73 910.946 -55.5739C809.799 -12.4262 893.807 191.259 803.91 210.669C754.542 221.328 736.563 138.641 687.567 139.393C643.781 140.065 602.365 228.125 559.467 214.587C392.997 162.052 366.794 -85.312 141.243 -46.7563C-17.1386 -19.6824 -11.2272 218.874 -113.365 314.765" stroke="url(#paint0_linear)" stroke-linecap="round" stroke-linejoin="round"/>
<path d="M2080.01 460.255C2035.65 424.318 1908.74 386.669 1861.29 438.211C1787.28 518.593 1878.45 686.065 1777.77 745.848C1538.01 888.2 1429.91 517.57 1222.5 517.57C1183.53 517.57 1208.81 622.866 1166.78 638.812C1019.75 694.599 909.079 246.435 769.375 337.177C663.738 405.79 727.038 678.664 620.7 678.491C546.388 678.37 455.971 480.311 382.625 545.247C240.181 671.36 46.9418 621.901 -78.584 500.18C-110.915 468.828 -94.0637 458.443 -104.547 435.027C-115.03 411.612 -125.709 393.487 -131 383.101" stroke="url(#paint1_linear)" stroke-linecap="round" stroke-linejoin="round"/>
<path d="M2088.66 421.354C2087.04 417.744 2085.2 415.193 2083.85 412.392C2081.98 410.156 2082.28 407.628 2075.29 397.898C2001.27 250.114 1902.02 72.5838 1723.17 50.756C1578.78 32.8182 1640.6 279.326 1524.93 288.221C1303.73 305.631 1111.22 -135.099 908.17 -47.8729C806.935 -4.22581 890.537 200.816 800.318 219.842C750.461 230.289 731.061 145.34 681.588 147.351C635.867 150.483 591.474 235.846 546.956 220.187C383.116 168.067 357.758 -74.6501 136.424 -37.3095C-19.058 -11.2256 -13.4719 222.298 -113.71 316.105" stroke="url(#paint2_linear)"/>
<path d="M2088.48 422.132C2086.01 417.875 2081.67 414.622 2079.4 412.907C2076.09 412.324 2078.2 413.196 2069.34 404.857C1992 262.875 1892.58 81.4831 1713.16 60.0918C1570.88 42.5128 1631.97 286.196 1517.77 295.233C1298.05 313.409 1107.17 -127.469 905.394 -40.1723C804.071 3.97407 887.267 210.373 796.726 229.014C746.379 239.25 725.56 152.039 675.609 155.308C627.954 160.9 580.584 243.567 534.445 225.787C373.236 174.082 348.721 -63.9887 131.605 -27.8632C-20.9775 -2.76932 -15.7165 225.721 -114.056 317.445" stroke="url(#paint3_linear)"/>
<path d="M2088.31 422.91C2084.99 418.007 2078.14 414.052 2074.95 413.424C2070.19 414.493 2074.13 418.765 2063.39 411.816C1982.74 275.637 1883.13 90.3829 1703.15 69.4282C1562.97 52.2079 1623.33 293.067 1510.61 302.244C1292.37 321.189 1103.13 -119.838 902.619 -32.4713C801.207 12.1745 883.997 219.93 793.133 238.187C742.298 248.212 720.058 158.739 669.629 163.266C620.04 171.317 569.693 251.288 521.935 231.387C363.355 180.097 339.685 -53.3267 126.785 -18.4164C-22.8968 5.68748 -17.9614 229.145 -114.402 318.785" stroke="url(#paint4_linear)"/>
<path d="M2088.14 423.688C2083.96 418.138 2074.62 413.481 2070.5 413.94C2064.3 416.661 2070.05 424.334 2057.44 418.775C1973.47 288.398 1873.69 99.2822 1693.13 78.764C1555.07 61.9025 1614.7 299.937 1503.44 309.256C1286.69 328.968 1099.09 -112.208 899.843 -24.7707C798.343 20.3744 880.727 229.486 789.541 247.36C738.216 257.173 714.556 165.438 663.65 171.224C612.126 181.735 558.802 259.009 509.424 236.986C353.474 186.112 330.649 -42.6653 121.966 -8.9701C-24.8162 14.1438 -20.2061 232.568 -114.748 320.124" stroke="url(#paint5_linear)"/>
<path d="M2087.97 424.466C2082.93 418.269 2071.09 412.91 2066.05 414.456C2058.41 418.83 2065.97 429.902 2051.49 425.734C1964.21 301.16 1864.25 108.182 1683.12 88.1004C1547.16 71.5976 1606.06 306.808 1496.28 316.268C1281.02 336.747 1095.04 -104.577 897.067 -17.0696C795.479 28.5748 877.457 239.043 785.949 256.533C734.135 266.135 709.054 172.137 657.671 179.182C604.213 192.152 547.912 266.73 496.913 242.586C343.594 192.127 321.612 -32.0034 117.146 0.476709C-26.7357 22.6006 -22.4508 235.992 -115.094 321.464" stroke="url(#paint6_linear)"/>
<path d="M2087.79 425.244C2081.9 418.401 2067.56 412.34 2061.6 414.973C2052.51 420.999 2061.9 435.471 2045.53 432.693C1954.94 313.922 1854.81 117.082 1673.11 97.4367C1539.26 81.2927 1597.42 313.679 1489.12 323.28C1275.34 344.527 1091 -96.9461 894.291 -9.36857C792.615 36.7752 874.187 248.6 782.356 265.706C730.054 275.097 703.552 178.837 651.692 187.14C596.299 202.57 537.021 274.451 484.402 248.186C333.713 198.143 312.576 -21.3414 112.327 9.92352C-28.655 31.0574 -24.6954 239.416 -115.439 322.804" stroke="url(#paint7_linear)"/>
<path d="M2087.62 426.022C2080.88 418.532 2064.03 411.77 2057.14 415.489C2046.62 423.167 2057.82 441.04 2039.58 439.652C1945.68 326.684 1845.37 125.982 1663.09 106.773C1531.35 90.9879 1588.79 320.55 1481.96 330.291C1269.66 352.306 1086.96 -89.3154 891.515 -1.66751C789.751 44.9756 870.917 258.157 778.764 274.879C725.972 284.058 698.051 185.536 645.713 195.098C588.385 212.987 526.13 282.173 471.892 253.786C323.833 204.158 303.54 -10.6795 107.508 19.3703C-30.5744 39.5143 -26.9401 242.84 -115.785 324.144" stroke="url(#paint8_linear)"/>
<path d="M2087.45 426.8C2079.85 418.664 2060.5 411.199 2052.69 416.005C2040.72 425.336 2053.74 446.608 2033.63 446.61C1936.41 339.445 1835.92 134.881 1653.08 116.109C1523.45 100.682 1580.15 327.42 1474.79 337.303C1263.98 360.085 1082.92 -81.6851 888.739 6.03308C786.887 53.1755 867.647 267.714 775.171 284.052C721.89 293.02 692.549 192.235 639.733 203.055C580.471 223.405 515.239 289.893 459.38 259.385C313.952 210.173 294.503 -0.0180397 102.688 28.8167C-32.4943 47.9706 -29.1852 246.263 -116.131 325.484" stroke="url(#paint9_linear)"/>
<path d="M2087.27 427.578C2078.82 418.795 2056.97 410.628 2048.24 416.522C2034.83 427.505 2049.67 452.177 2027.68 453.569C1927.15 352.207 1826.48 143.781 1643.07 125.445C1515.54 110.378 1571.52 334.291 1467.63 344.315C1258.3 367.865 1078.87 -74.0543 885.963 13.7342C784.023 61.3759 864.377 277.271 771.579 293.225C717.809 301.981 687.047 198.935 633.754 211.013C572.557 233.822 504.349 297.614 446.87 264.985C304.071 216.188 285.466 10.6439 97.8685 38.2635C-34.4137 56.4275 -31.4301 249.687 -116.477 326.824" stroke="url(#paint10_linear)"/>
<path d="M2087.1 428.355C2077.79 418.926 2053.44 410.057 2043.79 417.038C2028.93 429.673 2045.59 457.745 2021.73 460.528C1917.88 364.968 1817.04 152.68 1633.05 134.781C1507.64 120.072 1562.88 341.162 1460.47 351.326C1252.62 375.644 1074.83 -66.424 883.187 21.4348C781.159 69.5758 861.107 286.827 767.987 302.397C713.727 310.942 681.545 205.634 627.774 218.971C564.644 244.239 493.458 305.335 434.359 270.585C294.19 222.203 276.43 21.3054 93.0491 47.7098C-36.3332 64.8838 -33.6748 253.11 -116.823 328.163" stroke="url(#paint11_linear)"/>
<path d="M2086.93 429.133C2076.76 419.058 2049.91 409.487 2039.34 417.554C2023.04 431.842 2041.51 463.314 2015.78 467.487C1908.62 377.73 1807.6 161.58 1623.04 144.118C1499.73 129.767 1554.24 348.033 1453.3 358.338C1246.94 383.423 1070.79 -58.7933 880.411 29.1358C778.295 77.7763 857.837 296.385 764.394 311.57C709.646 319.904 676.043 212.333 621.795 226.929C556.73 254.657 482.568 313.056 421.848 276.185C284.31 228.218 267.393 31.9673 88.2297 57.1567C-38.2525 73.3407 -35.9195 256.534 -117.168 329.503" stroke="url(#paint12_linear)"/>
<path d="M2086.76 429.912C2075.74 419.189 2046.38 408.917 2034.89 418.071C2017.15 434.011 2037.44 468.883 2009.83 474.446C1899.35 390.492 1798.15 170.48 1613.03 153.454C1491.83 139.463 1545.61 354.903 1446.14 365.35C1241.26 391.203 1066.75 -51.1625 877.635 36.8369C775.431 85.9767 854.567 305.942 760.802 320.743C705.565 328.866 670.541 219.033 615.816 234.887C548.816 265.075 471.677 320.778 409.337 281.785C274.429 234.234 258.357 42.6293 83.4104 66.6035C-40.1719 81.7975 -38.1641 259.958 -117.514 330.843" stroke="url(#paint13_linear)"/>
<path d="M2086.58 430.689C2074.71 419.32 2042.85 408.346 2030.44 418.587C2011.25 436.179 2033.36 474.451 2003.88 481.405C1890.09 403.253 1788.71 179.379 1603.01 162.79C1483.92 149.157 1536.97 361.774 1438.98 372.361C1235.58 398.982 1062.7 -43.5322 874.859 44.5375C772.568 94.1766 851.297 315.498 757.21 329.916C701.483 337.827 665.04 225.732 609.837 242.845C540.903 275.492 460.786 328.498 396.827 287.384C264.549 240.248 249.321 53.2908 78.5909 76.0499C-42.0914 90.2539 -40.4088 263.382 -117.86 332.183" stroke="url(#paint14_linear)"/>
<path d="M2086.41 431.467C2073.68 419.452 2039.32 407.776 2025.99 419.103C2005.36 438.348 2029.28 480.02 1997.93 488.364C1880.82 416.015 1779.27 188.279 1593 172.126C1476.02 158.852 1528.34 368.645 1431.81 379.373C1229.9 406.761 1058.66 -35.9014 872.083 52.2387C769.704 102.377 848.027 325.055 753.617 339.089C697.402 346.789 659.538 232.431 603.858 250.803C532.989 285.91 449.896 336.219 384.316 292.984C254.668 246.264 240.284 63.9528 73.7716 85.4967C-44.0107 98.7108 -42.6535 266.805 -118.206 333.523" stroke="url(#paint15_linear)"/>
<path d="M2086.24 432.245C2072.65 419.583 2035.79 407.205 2021.53 419.619C1999.46 440.516 2025.21 485.589 1991.98 495.323C1871.56 428.776 1769.83 197.178 1582.99 181.462C1468.11 168.547 1519.7 375.515 1424.65 386.385C1224.22 414.54 1054.62 -28.2711 869.308 59.9393C766.84 110.577 844.757 334.612 750.025 348.262C693.32 355.75 654.036 239.13 597.878 258.76C525.075 296.327 439.005 343.94 371.805 298.583C244.787 252.279 231.248 74.6143 68.9523 94.9431C-45.9301 107.167 -44.8984 270.229 -118.552 334.862" stroke="url(#paint16_linear)"/>
<path d="M2086.06 433.023C2071.62 419.715 2032.26 406.634 2017.08 420.136C1993.57 442.685 2021.13 491.158 1986.03 502.282C1862.29 441.538 1760.39 206.078 1572.97 190.799C1460.21 178.242 1511.06 382.386 1417.49 393.397C1218.54 422.32 1050.57 -20.6402 866.531 67.6404C763.975 118.778 841.487 344.169 746.432 357.435C689.238 364.712 648.534 245.83 591.899 266.718C517.161 306.744 428.114 351.661 359.294 304.183C234.906 258.294 222.211 85.2763 64.1323 104.39C-47.8501 115.624 -47.1435 273.653 -118.898 336.202" stroke="url(#paint17_linear)"/>
<path d="M2085.89 433.801C2070.6 419.846 2028.74 406.064 2012.63 420.652C1987.68 444.854 2017.05 496.726 1980.08 509.241C1853.03 454.3 1750.94 214.978 1562.96 200.135C1452.3 187.937 1502.43 389.257 1410.32 400.409C1212.86 430.099 1046.53 -13.0094 863.755 75.3415C761.111 126.978 838.217 353.726 742.84 366.608C685.157 373.674 643.032 252.529 585.919 274.676C509.247 317.162 417.223 359.383 346.783 309.783C225.026 264.309 213.175 95.9383 59.313 113.837C-49.7694 124.081 -49.3882 277.077 -119.243 337.543" stroke="url(#paint18_linear)"/>
<path d="M2085.72 434.579C2069.57 419.978 2025.21 405.494 2008.18 421.169C1981.78 447.023 2012.98 502.295 1974.13 516.2C1843.76 467.062 1741.5 223.878 1552.94 209.471C1444.4 197.633 1493.79 396.128 1403.16 407.421C1207.18 437.879 1042.49 -5.37861 860.979 83.0426C758.248 135.178 834.947 363.283 739.248 375.781C681.076 382.635 637.53 259.229 579.94 282.634C501.334 327.58 406.333 367.104 334.272 315.383C215.145 270.325 204.138 106.6 54.4937 123.284C-51.6888 132.538 -51.6328 280.501 -119.589 338.883" stroke="url(#paint19_linear)"/>
<path d="M2085.54 435.357C2068.54 420.109 2021.68 404.923 2003.73 421.685C1975.89 449.191 2008.9 507.864 1968.18 523.159C1834.5 479.823 1732.06 232.777 1542.93 218.807C1436.49 207.327 1485.16 402.999 1396 414.432C1201.5 445.658 1038.45 2.25172 858.204 90.7433C755.384 143.378 831.677 372.84 735.655 384.954C676.994 391.597 632.028 265.928 573.961 290.592C493.42 337.997 395.442 374.825 321.761 320.983C205.265 276.34 195.102 117.262 49.6742 132.73C-53.6083 140.994 -53.8775 283.924 -119.935 340.222" stroke="url(#paint20_linear)"/>
<path d="M2085.37 436.135C2067.51 420.241 2018.15 404.353 1999.28 422.202C1969.99 451.36 2004.83 513.433 1962.23 530.118C1825.23 492.585 1722.62 241.677 1532.92 228.144C1428.59 217.022 1476.52 409.869 1388.83 421.444C1195.82 453.437 1034.4 9.88256 855.428 98.4444C752.52 151.579 828.407 382.397 732.063 394.127C672.913 400.558 626.527 272.628 567.982 298.55C485.506 348.415 384.552 382.546 309.251 326.583C195.384 282.355 186.065 127.924 44.8549 142.177C-55.5276 149.451 -56.1224 287.348 -120.281 341.562" stroke="url(#paint21_linear)"/>
<path d="M2085.2 436.913C2066.48 420.372 2014.62 403.782 1994.83 422.718C1964.1 453.529 2000.75 519.001 1956.28 537.076C1815.97 505.347 1713.18 250.576 1522.9 237.48C1420.68 226.717 1467.88 416.74 1381.67 428.456C1190.14 461.216 1030.36 17.5129 852.652 106.145C749.656 159.779 825.137 391.954 728.471 403.3C668.831 409.52 621.025 279.327 562.003 306.508C477.593 358.832 373.661 390.267 296.74 332.182C185.503 288.37 177.029 138.585 40.0355 151.623C-57.447 157.907 -58.3671 290.771 -120.626 342.902" stroke="url(#paint22_linear)"/>
<path d="M2085.03 437.691C2065.46 420.503 2011.09 403.211 1990.37 423.234C1958.21 455.697 1996.67 524.57 1950.33 544.035C1806.7 518.108 1703.73 259.476 1512.89 246.816C1412.78 236.412 1459.25 423.611 1374.51 435.468C1184.46 468.996 1026.32 25.1437 849.876 113.846C746.792 167.979 821.867 401.511 724.878 412.473C664.75 418.481 615.523 286.026 556.023 314.466C469.679 369.25 362.77 397.988 284.229 337.782C175.623 294.385 167.993 149.247 35.2161 161.07C-59.3665 166.364 -60.6117 294.195 -120.972 344.242" stroke="url(#paint23_linear)"/>
<path d="M2084.85 438.469C2064.43 420.635 2007.56 402.641 1985.92 423.751C1952.31 457.866 1992.6 530.139 1944.38 550.995C1797.44 530.87 1694.29 268.376 1502.88 256.153C1404.87 246.107 1450.61 430.482 1367.35 442.48C1178.78 476.775 1022.28 32.7746 847.1 121.547C743.928 176.18 818.597 411.068 721.286 421.646C660.669 427.443 610.021 292.726 550.044 322.424C461.765 379.667 351.88 405.709 271.718 343.382C165.742 300.401 158.956 159.909 30.3967 170.517C-61.2858 174.821 -62.8564 297.619 -121.318 345.582" stroke="url(#paint24_linear)"/>
<path d="M2084.68 439.247C2063.4 420.766 2004.03 402.07 1981.47 424.267C1946.42 460.035 1988.52 535.707 1938.43 557.953C1788.17 543.632 1684.85 277.276 1492.86 265.489C1396.97 255.802 1441.98 437.352 1360.18 449.491C1173.1 484.554 1018.23 40.405 844.324 129.248C741.064 184.38 815.327 420.625 717.694 430.819C656.587 436.404 604.52 299.425 544.065 330.381C453.852 390.085 340.989 413.43 259.208 348.982C155.862 306.415 149.92 170.571 25.5774 179.964C-63.2052 183.278 -65.1011 301.043 -121.664 346.922" stroke="url(#paint25_linear)"/>
<path d="M2084.51 440.025C2062.37 420.898 2000.5 401.5 1977.02 424.783C1940.52 462.204 1984.44 541.276 1932.48 564.912C1778.91 556.394 1675.41 286.175 1482.85 274.825C1389.06 265.497 1433.34 444.223 1353.02 456.503C1167.42 492.334 1014.19 48.0358 841.548 136.949C738.2 192.58 812.057 430.182 714.102 439.992C652.506 445.366 599.018 306.125 538.086 338.34C445.938 400.502 330.099 421.151 246.697 354.582C145.981 312.431 140.884 181.233 20.7581 189.411C-65.1245 191.735 -67.3457 304.467 -122.009 348.262" stroke="url(#paint26_linear)"/>
<path d="M2084.33 440.803C2061.34 421.029 1996.97 400.929 1972.57 425.3C1934.63 464.372 1980.37 546.844 1926.53 571.871C1769.64 569.155 1665.97 295.075 1472.84 284.161C1381.16 275.192 1424.7 451.094 1345.86 463.515C1161.74 500.113 1010.15 55.6662 838.773 144.65C735.336 200.78 808.787 439.738 710.509 449.164C648.424 454.328 593.516 312.824 532.107 346.297C438.024 410.92 319.208 428.872 234.186 360.182C136.1 318.446 131.847 191.895 15.9385 198.857C-67.0441 200.191 -69.5906 307.89 -122.355 349.601" stroke="url(#paint27_linear)"/>
<path d="M2084.16 441.581C2060.32 421.161 1993.44 400.359 1968.12 425.816C1928.74 466.541 1976.29 552.413 1920.58 578.83C1760.38 581.917 1656.52 303.975 1462.82 293.497C1373.25 284.887 1416.07 457.965 1338.69 470.527C1156.06 507.893 1006.1 63.2971 835.997 152.351C732.472 208.981 805.517 449.295 706.917 458.338C644.343 463.289 588.014 319.523 526.127 354.255C430.111 421.337 308.317 436.593 221.675 365.782C126.22 324.461 122.811 202.557 11.1191 208.304C-68.9635 208.648 -71.8353 311.314 -122.701 350.941" stroke="url(#paint28_linear)"/>
<path d="M2083.99 442.359C2059.29 421.292 1989.91 399.789 1963.67 426.333C1922.84 468.71 1972.21 557.982 1914.63 585.789C1751.11 594.679 1647.08 312.875 1452.81 302.834C1365.35 294.583 1407.43 464.836 1331.53 477.539C1150.38 515.672 1002.06 70.9279 833.221 160.052C729.609 217.181 802.248 458.853 703.325 467.511C640.261 472.251 582.513 326.223 520.148 362.213C422.197 431.755 297.427 444.315 209.165 371.382C116.339 330.477 113.774 213.219 6.2998 217.751C-70.8828 217.105 -74.08 314.738 -123.047 352.282" stroke="url(#paint29_linear)"/>
<path d="M2083.82 443.137C2058.26 421.424 1986.38 399.218 1959.22 426.849C1916.95 470.878 1968.14 563.551 1908.67 592.748C1741.85 607.44 1637.64 321.774 1442.8 312.17C1357.44 304.277 1398.8 471.706 1324.37 484.55C1144.7 523.451 998.019 78.5583 830.445 167.753C726.745 225.381 798.978 468.409 699.732 476.683C636.18 481.212 577.011 332.922 514.169 370.171C414.283 442.172 286.536 452.035 196.654 376.981C106.459 336.492 104.738 223.88 1.48047 227.197C-72.8022 225.561 -76.3246 318.162 -123.392 353.621" stroke="url(#paint30_linear)"/>
<path d="M2083.64 443.915C2057.23 421.555 1982.86 398.648 1954.76 427.365C1911.05 473.047 1964.06 569.12 1902.72 599.707C1732.58 620.202 1628.2 330.674 1432.78 321.506C1349.54 313.973 1390.16 478.577 1317.2 491.562C1139.02 531.231 993.976 86.1892 827.669 175.454C723.88 233.582 795.707 477.966 696.14 485.857C632.098 490.174 571.508 339.622 508.189 378.129C406.369 452.59 275.645 459.757 184.143 382.581C96.5777 342.507 95.7011 234.542 -3.33936 236.644C-74.722 234.018 -78.5698 321.586 -123.739 354.961" stroke="url(#paint31_linear)"/>
<path d="M2083.47 444.693C2056.2 421.687 1979.33 398.077 1950.31 427.882C1905.16 475.216 1959.98 574.688 1896.77 606.666C1723.32 632.963 1618.75 339.574 1422.77 330.842C1341.63 323.667 1381.52 485.448 1310.04 498.574C1133.34 539.01 989.933 93.8196 824.893 183.155C721.016 241.782 792.437 487.523 692.547 495.029C628.017 499.136 566.007 346.321 502.21 386.087C398.455 463.007 264.754 467.478 171.632 388.181C86.6971 348.522 86.6647 245.204 -8.15869 246.091C-76.6414 242.475 -80.8144 325.009 -124.084 356.301" stroke="url(#paint32_linear)"/>
<path d="M2083.3 445.471C2055.18 421.818 1975.8 397.507 1945.86 428.398C1899.27 477.385 1955.91 580.257 1890.82 613.625C1714.05 645.725 1609.31 348.473 1412.76 340.179C1333.73 333.363 1372.89 492.319 1302.88 505.586C1127.66 546.789 985.89 101.45 822.117 190.856C718.153 249.983 789.167 497.08 688.955 504.203C623.935 508.097 560.505 353.02 496.231 394.045C390.542 473.425 253.864 475.199 159.121 393.781C76.8164 354.537 77.6281 255.866 -12.9783 255.538C-78.561 250.932 -83.0594 328.433 -124.43 357.641" stroke="url(#paint33_linear)"/>
<path d="M2083.12 446.25C2054.15 421.95 1972.27 396.936 1941.41 428.915C1893.37 479.554 1951.83 585.826 1884.87 620.584C1704.79 658.487 1599.87 357.373 1402.74 349.515C1325.82 343.058 1364.25 499.19 1295.71 512.598C1121.98 554.569 981.848 109.081 819.341 198.557C715.289 258.183 785.897 506.638 685.363 513.376C619.854 517.059 555.003 359.72 490.252 402.003C382.628 483.843 242.973 482.92 146.61 399.381C66.9359 360.553 68.5918 266.528 -17.7976 264.985C-80.4804 259.389 -85.304 331.857 -124.776 358.981" stroke="url(#paint34_linear)"/>
<path d="M2082.95 447.028C2053.12 422.082 1968.74 396.366 1936.96 429.431C1887.48 481.723 1947.75 591.395 1878.92 627.544C1695.52 671.249 1590.43 366.273 1392.73 358.852C1317.92 352.753 1355.62 506.061 1288.55 519.61C1116.3 562.349 977.805 116.712 816.565 206.258C712.425 266.384 782.627 516.195 681.77 522.549C615.772 526.021 549.501 366.42 484.272 409.961C374.714 494.261 232.083 490.642 134.099 404.981C57.0553 366.568 59.5554 277.19 -22.6169 274.432C-82.3997 267.846 -87.5487 335.281 -125.122 360.321" stroke="url(#paint35_linear)"/>
<path d="M2082.78 447.806C2052.09 422.213 1965.21 395.795 1932.51 429.948C1881.58 483.891 1943.68 596.963 1872.97 634.502C1686.26 684.011 1580.99 375.173 1382.72 368.188C1310.01 362.448 1346.98 512.931 1281.39 526.621C1110.62 570.128 973.762 124.343 813.789 213.959C709.561 274.584 779.357 525.751 678.178 531.722C611.691 534.982 544 373.119 478.293 417.919C366.801 504.678 221.192 498.362 121.589 410.581C47.1747 372.583 50.5191 287.852 -27.4363 283.878C-84.3191 276.302 -89.7933 338.705 -125.467 361.661" stroke="url(#paint36_linear)"/>
<path d="M2082.61 448.584C2051.06 422.345 1961.68 395.225 1928.06 430.464C1875.69 486.06 1939.6 602.532 1867.02 641.462C1676.99 696.773 1571.54 384.073 1372.7 377.524C1302.11 372.143 1338.35 519.803 1274.23 533.633C1104.94 577.907 969.72 131.974 811.013 221.66C706.697 282.784 776.088 535.309 674.586 540.895C607.61 543.944 538.498 379.818 472.314 425.877C358.887 515.096 210.301 506.084 109.078 416.181C37.2942 378.599 41.4827 298.514 -32.2556 293.325C-86.2384 284.759 -92.038 342.129 -125.813 363.001" stroke="url(#paint37_linear)"/>
<path d="M2082.43 449.362C2050.04 422.476 1958.15 394.655 1923.61 430.98C1869.8 488.229 1935.52 608.101 1861.07 648.42C1667.73 709.534 1562.1 392.972 1362.69 386.86C1294.2 381.838 1329.71 526.673 1267.06 540.645C1099.26 585.687 965.677 139.604 808.238 229.361C703.833 290.984 772.818 544.865 670.993 550.068C603.528 552.906 532.996 386.518 466.335 433.835C350.973 525.513 199.411 513.805 96.5671 421.78C27.4135 384.614 32.4461 309.175 -37.0752 302.772C-88.158 293.216 -94.2829 345.552 -126.159 364.341" stroke="url(#paint38_linear)"/>
<path d="M2082.26 450.14C2049.01 422.607 1954.62 394.084 1919.15 431.497C1863.9 490.398 1931.45 613.67 1855.12 655.38C1658.46 722.296 1552.66 401.872 1352.68 396.197C1286.3 391.533 1321.07 533.544 1259.9 547.657C1093.58 593.466 961.634 147.235 805.462 237.062C700.969 299.185 769.548 554.423 667.401 559.241C599.447 561.868 527.494 393.217 460.356 441.793C343.06 535.931 188.52 521.526 84.0564 427.38C17.5329 390.629 23.4098 319.838 -41.8945 312.218C-90.0774 301.673 -96.5276 348.976 -126.505 365.681" stroke="url(#paint39_linear)"/>
<path d="M2082.09 450.918C2047.98 422.739 1951.09 393.514 1914.7 432.014C1858.01 492.567 1927.37 619.239 1849.17 662.339C1649.19 735.058 1543.22 410.772 1342.66 405.534C1278.39 401.228 1312.44 540.415 1252.74 554.669C1087.9 601.246 957.591 154.866 802.685 244.764C698.105 307.386 766.277 563.98 663.808 568.414C595.365 570.829 521.992 399.917 454.376 449.751C335.145 546.349 177.629 529.247 71.5452 432.98C7.65185 396.645 14.373 330.5 -46.7144 321.665C-91.9972 310.13 -98.7727 352.4 -126.851 367.021" stroke="url(#paint40_linear)"/>
<path d="M2081.91 451.696C2046.95 422.87 1947.56 392.943 1910.25 432.53C1852.11 494.735 1923.29 624.807 1843.22 669.298C1639.93 747.82 1533.78 419.672 1332.65 414.87C1270.49 410.923 1303.8 547.286 1245.57 561.681C1082.22 609.025 953.548 162.496 799.909 252.464C695.241 315.586 763.007 573.537 660.216 577.587C591.283 579.791 516.49 406.616 448.397 457.709C327.232 556.766 166.738 536.968 59.0344 438.58C-2.22872 402.659 5.3366 341.161 -51.5337 331.112C-93.9166 318.586 -101.017 355.824 -127.197 368.361" stroke="url(#paint41_linear)"/>
<path d="M2081.74 452.474C2045.92 423.002 1944.03 392.373 1905.8 433.046C1846.22 496.904 1919.22 630.376 1837.27 676.257C1630.66 760.581 1524.33 428.572 1322.64 424.206C1262.58 420.619 1295.17 554.157 1238.41 568.693C1076.54 616.805 949.506 170.127 797.134 260.166C692.377 323.786 759.737 583.094 656.624 586.76C587.202 588.753 510.989 413.316 442.417 465.667C319.318 567.184 155.848 544.69 46.5237 444.18C-12.1093 408.675 -3.69975 351.823 -56.353 340.559C-95.836 327.043 -103.262 359.248 -127.542 369.701" stroke="url(#paint42_linear)"/>
<path d="M2081.57 453.252C2044.9 423.133 1940.5 391.803 1901.35 433.563C1840.33 499.073 1915.14 635.945 1831.32 683.216C1621.4 773.343 1514.89 437.471 1312.62 433.542C1254.68 430.313 1286.53 561.027 1231.25 575.704C1070.86 624.584 945.463 177.758 794.358 267.866C689.513 331.986 756.467 592.651 653.031 595.933C583.121 597.714 505.487 420.015 436.438 473.625C311.404 577.601 144.957 552.41 34.0129 449.78C-21.9898 414.69 -12.7361 362.485 -61.1724 350.006C-97.7553 335.5 -105.507 362.671 -127.888 371.041" stroke="url(#paint43_linear)"/>
<path d="M2081.4 454.03C2043.87 423.265 1936.98 391.232 1896.9 434.079C1834.43 501.242 1911.06 641.514 1825.37 690.175C1612.13 786.105 1505.45 446.371 1302.61 442.879C1246.77 440.009 1277.89 567.898 1224.08 582.716C1065.18 632.363 941.42 185.389 791.582 275.568C686.649 340.187 753.197 602.208 649.439 605.106C579.039 606.676 499.985 426.715 430.459 481.583C303.491 588.019 134.067 560.132 21.5022 455.38C-31.8704 420.705 -21.7727 373.147 -65.9919 359.453C-99.6749 343.957 -107.752 366.096 -128.234 372.381" stroke="url(#paint44_linear)"/>
<path d="M2081.22 454.809C2042.84 423.397 1933.45 390.662 1892.45 434.596C1828.54 503.411 1906.99 647.083 1819.42 697.134C1602.87 798.867 1496.01 455.271 1292.6 452.215C1238.87 449.704 1269.26 574.77 1216.92 589.728C1059.5 640.143 937.378 193.02 788.806 283.269C683.785 348.388 749.928 611.765 645.847 614.279C574.958 615.638 494.483 433.414 424.48 489.541C295.577 598.437 123.176 567.853 8.99146 460.98C-41.751 426.721 -30.809 383.809 -70.8113 368.9C-101.594 352.414 -109.996 369.52 -128.58 373.721" stroke="url(#paint45_linear)"/>
<path d="M2081.05 455.587C2041.81 423.529 1929.92 390.092 1887.99 435.113C1822.64 505.58 1902.91 652.652 1813.47 704.093C1593.6 811.629 1486.56 464.171 1282.58 461.552C1230.96 459.399 1260.62 581.641 1209.76 596.741C1053.82 647.923 933.335 200.651 786.03 290.97C680.921 356.588 746.658 621.322 642.254 623.453C570.876 624.6 488.981 440.114 418.501 497.499C287.663 608.855 112.286 575.575 -3.51929 466.58C-51.6315 432.736 -39.8454 394.471 -75.6306 378.347C-103.514 360.871 -112.241 372.944 -128.925 375.062" stroke="url(#paint46_linear)"/>
<path d="M2080.88 456.365C2040.78 423.66 1926.39 389.521 1883.54 435.629C1816.75 507.748 1898.83 658.22 1807.52 711.052C1584.34 824.39 1477.12 473.071 1272.57 470.888C1223.06 469.094 1251.99 588.511 1202.59 603.752C1048.14 655.702 929.292 208.281 783.254 298.671C678.058 364.788 743.388 630.879 638.662 632.625C566.795 633.561 483.48 446.813 412.521 505.457C279.75 619.272 101.395 583.295 -16.0303 472.18C-61.5124 438.751 -48.8817 405.133 -80.45 387.793C-105.433 369.327 -114.486 376.367 -129.271 376.401" stroke="url(#paint47_linear)"/>
<path d="M2080.7 457.143C2039.76 423.792 1922.86 388.951 1879.09 436.146C1810.86 509.917 1894.76 663.789 1801.57 718.011C1575.07 837.152 1467.68 481.971 1262.56 480.224C1215.15 478.789 1243.35 595.382 1195.43 610.764C1042.46 663.481 925.25 215.912 780.478 306.372C675.194 372.989 740.118 640.436 635.07 641.799C562.714 642.523 477.978 453.513 406.542 513.415C271.836 629.69 90.5041 591.017 -28.541 477.78C-71.3929 444.767 -57.9181 415.795 -85.2693 397.24C-107.352 377.784 -116.73 379.791 -129.617 377.742" stroke="url(#paint48_linear)"/>
<path d="M2080.53 457.921C2038.73 423.923 1919.33 388.38 1874.64 436.662C1804.96 512.086 1890.68 669.358 1795.62 724.97C1565.81 849.914 1458.24 490.87 1252.54 489.561C1207.25 488.484 1234.71 602.253 1188.27 617.776C1036.79 671.261 921.207 223.543 777.703 314.073C672.33 381.189 736.848 649.993 631.477 650.972C558.632 651.484 472.476 460.212 400.563 521.373C263.922 640.107 79.6135 598.738 -41.0518 483.38C-81.2735 450.782 -66.9544 426.457 -90.0886 406.687C-109.272 386.241 -118.975 383.215 -129.962 379.081" stroke="url(#paint49_linear)"/>
<path d="M2080.36 458.699C2037.7 424.055 1915.8 387.81 1870.19 437.179C1799.07 514.255 1886.61 674.927 1789.67 731.93C1556.54 862.676 1448.8 499.77 1242.53 498.897C1199.34 498.18 1226.08 609.124 1181.11 624.788C1031.11 679.04 917.164 231.174 774.927 321.774C669.466 389.39 733.578 659.55 627.885 660.145C554.551 660.446 466.974 466.912 394.584 529.331C256.009 650.525 68.7229 606.459 -53.5625 488.98C-91.1541 456.798 -75.991 437.119 -94.9082 416.134C-111.191 394.698 -121.22 386.639 -130.308 380.421" stroke="url(#paint50_linear)"/>
<path d="M2080.19 459.478C2036.67 424.187 1912.27 387.24 1865.74 437.695C1793.17 516.424 1882.53 680.496 1783.72 738.889C1547.28 875.438 1439.35 508.67 1232.51 508.234C1191.44 507.875 1217.44 615.995 1173.94 631.8C1025.43 686.82 913.122 238.805 772.151 329.476C666.602 397.59 730.308 669.108 624.293 669.318C550.469 669.408 461.473 473.612 388.605 537.29C248.095 660.943 57.8324 614.181 -66.0732 494.58C-101.035 462.813 -85.0274 447.781 -99.7275 425.581C-113.111 403.155 -123.465 390.063 -130.654 381.762" stroke="url(#paint51_linear)"/>
</g>
<defs>
<linearGradient id="paint0_linear" x1="987.733" y1="-67" x2="987.733" y2="420.576" gradientUnits="userSpaceOnUse">
<stop stop-color="#333399"/>
<stop offset="1" stop-color="#333399" stop-opacity="0"/>
</linearGradient>
<linearGradient id="paint1_linear" x1="974.506" y1="325.003" x2="974.506" y2="778.4" gradientUnits="userSpaceOnUse">
<stop stop-color="#333399"/>
<stop offset="1" stop-color="#333399" stop-opacity="0"/>
</linearGradient>
<linearGradient id="paint2_linear" x1="987.473" y1="-59.3135" x2="987.473" y2="421.354" gradientUnits="userSpaceOnUse">
<stop stop-color="#333399"/>
<stop offset="1" stop-color="#333399" stop-opacity="0"/>
</linearGradient>
<linearGradient id="paint3_linear" x1="987.214" y1="-51.6274" x2="987.214" y2="422.132" gradientUnits="userSpaceOnUse">
<stop stop-color="#333399"/>
<stop offset="1" stop-color="#333399" stop-opacity="0"/>
</linearGradient>
<linearGradient id="paint4_linear" x1="986.955" y1="-43.9409" x2="986.955" y2="422.91" gradientUnits="userSpaceOnUse">
<stop stop-color="#333399"/>
<stop offset="1" stop-color="#333399" stop-opacity="0"/>
</linearGradient>
<linearGradient id="paint5_linear" x1="986.695" y1="-36.2549" x2="986.695" y2="423.688" gradientUnits="userSpaceOnUse">
<stop stop-color="#333399"/>
<stop offset="1" stop-color="#333399" stop-opacity="0"/>
</linearGradient>
<linearGradient id="paint6_linear" x1="986.436" y1="-28.5684" x2="986.436" y2="426.655" gradientUnits="userSpaceOnUse">
<stop stop-color="#333399"/>
<stop offset="1" stop-color="#333399" stop-opacity="0"/>
</linearGradient>
<linearGradient id="paint7_linear" x1="986.177" y1="-20.8818" x2="986.177" y2="433.043" gradientUnits="userSpaceOnUse">
<stop stop-color="#333399"/>
<stop offset="1" stop-color="#333399" stop-opacity="0"/>
</linearGradient>
<linearGradient id="paint8_linear" x1="985.918" y1="-13.1953" x2="985.918" y2="439.728" gradientUnits="userSpaceOnUse">
<stop stop-color="#333399"/>
<stop offset="1" stop-color="#333399" stop-opacity="0"/>
</linearGradient>
<linearGradient id="paint9_linear" x1="985.658" y1="-5.50928" x2="985.658" y2="446.61" gradientUnits="userSpaceOnUse">
<stop stop-color="#333399"/>
<stop offset="1" stop-color="#333399" stop-opacity="0"/>
</linearGradient>
<linearGradient id="paint10_linear" x1="985.398" y1="2.17725" x2="985.398" y2="453.569" gradientUnits="userSpaceOnUse">
<stop stop-color="#333399"/>
<stop offset="1" stop-color="#333399" stop-opacity="0"/>
</linearGradient>
<linearGradient id="paint11_linear" x1="985.139" y1="9.86328" x2="985.139" y2="460.528" gradientUnits="userSpaceOnUse">
<stop stop-color="#333399"/>
<stop offset="1" stop-color="#333399" stop-opacity="0"/>
</linearGradient>
<linearGradient id="paint12_linear" x1="984.88" y1="17.5498" x2="984.88" y2="467.487" gradientUnits="userSpaceOnUse">
<stop stop-color="#333399"/>
<stop offset="1" stop-color="#333399" stop-opacity="0"/>
</linearGradient>
<linearGradient id="paint13_linear" x1="984.621" y1="25.2363" x2="984.621" y2="474.446" gradientUnits="userSpaceOnUse">
<stop stop-color="#333399"/>
<stop offset="1" stop-color="#333399" stop-opacity="0"/>
</linearGradient>
<linearGradient id="paint14_linear" x1="984.361" y1="32.9224" x2="984.361" y2="481.405" gradientUnits="userSpaceOnUse">
<stop stop-color="#333399"/>
<stop offset="1" stop-color="#333399" stop-opacity="0"/>
</linearGradient>
<linearGradient id="paint15_linear" x1="984.102" y1="40.6089" x2="984.102" y2="488.364" gradientUnits="userSpaceOnUse">
<stop stop-color="#333399"/>
<stop offset="1" stop-color="#333399" stop-opacity="0"/>
</linearGradient>
<linearGradient id="paint16_linear" x1="983.843" y1="48.2949" x2="983.843" y2="495.323" gradientUnits="userSpaceOnUse">
<stop stop-color="#333399"/>
<stop offset="1" stop-color="#333399" stop-opacity="0"/>
</linearGradient>
<linearGradient id="paint17_linear" x1="983.583" y1="55.9814" x2="983.583" y2="502.282" gradientUnits="userSpaceOnUse">
<stop stop-color="#333399"/>
<stop offset="1" stop-color="#333399" stop-opacity="0"/>
</linearGradient>
<linearGradient id="paint18_linear" x1="983.324" y1="63.668" x2="983.324" y2="509.241" gradientUnits="userSpaceOnUse">
<stop stop-color="#333399"/>
<stop offset="1" stop-color="#333399" stop-opacity="0"/>
</linearGradient>
<linearGradient id="paint19_linear" x1="983.064" y1="71.3545" x2="983.064" y2="516.2" gradientUnits="userSpaceOnUse">
<stop stop-color="#333399"/>
<stop offset="1" stop-color="#333399" stop-opacity="0"/>
</linearGradient>
<linearGradient id="paint20_linear" x1="982.805" y1="79.0405" x2="982.805" y2="523.159" gradientUnits="userSpaceOnUse">
<stop stop-color="#333399"/>
<stop offset="1" stop-color="#333399" stop-opacity="0"/>
</linearGradient>
<linearGradient id="paint21_linear" x1="982.546" y1="86.7271" x2="982.546" y2="530.118" gradientUnits="userSpaceOnUse">
<stop stop-color="#333399"/>
<stop offset="1" stop-color="#333399" stop-opacity="0"/>
</linearGradient>
<linearGradient id="paint22_linear" x1="982.286" y1="94.4131" x2="982.286" y2="537.076" gradientUnits="userSpaceOnUse">
<stop stop-color="#333399"/>
<stop offset="1" stop-color="#333399" stop-opacity="0"/>
</linearGradient>
<linearGradient id="paint23_linear" x1="982.027" y1="102.1" x2="982.027" y2="544.035" gradientUnits="userSpaceOnUse">
<stop stop-color="#333399"/>
<stop offset="1" stop-color="#333399" stop-opacity="0"/>
</linearGradient>
<linearGradient id="paint24_linear" x1="981.768" y1="109.786" x2="981.768" y2="550.995" gradientUnits="userSpaceOnUse">
<stop stop-color="#333399"/>
<stop offset="1" stop-color="#333399" stop-opacity="0"/>
</linearGradient>
<linearGradient id="paint25_linear" x1="981.509" y1="117.472" x2="981.509" y2="557.953" gradientUnits="userSpaceOnUse">
<stop stop-color="#333399"/>
<stop offset="1" stop-color="#333399" stop-opacity="0"/>
</linearGradient>
<linearGradient id="paint26_linear" x1="981.249" y1="125.159" x2="981.249" y2="564.912" gradientUnits="userSpaceOnUse">
<stop stop-color="#333399"/>
<stop offset="1" stop-color="#333399" stop-opacity="0"/>
</linearGradient>
<linearGradient id="paint27_linear" x1="980.99" y1="132.845" x2="980.99" y2="571.871" gradientUnits="userSpaceOnUse">
<stop stop-color="#333399"/>
<stop offset="1" stop-color="#333399" stop-opacity="0"/>
</linearGradient>
<linearGradient id="paint28_linear" x1="980.731" y1="140.531" x2="980.731" y2="578.856" gradientUnits="userSpaceOnUse">
<stop stop-color="#333399"/>
<stop offset="1" stop-color="#333399" stop-opacity="0"/>
</linearGradient>
<linearGradient id="paint29_linear" x1="980.471" y1="148.218" x2="980.471" y2="585.995" gradientUnits="userSpaceOnUse">
<stop stop-color="#333399"/>
<stop offset="1" stop-color="#333399" stop-opacity="0"/>
</linearGradient>
<linearGradient id="paint30_linear" x1="980.212" y1="155.904" x2="980.212" y2="593.296" gradientUnits="userSpaceOnUse">
<stop stop-color="#333399"/>
<stop offset="1" stop-color="#333399" stop-opacity="0"/>
</linearGradient>
<linearGradient id="paint31_linear" x1="979.952" y1="163.59" x2="979.952" y2="600.746" gradientUnits="userSpaceOnUse">
<stop stop-color="#333399"/>
<stop offset="1" stop-color="#333399" stop-opacity="0"/>
</linearGradient>
<linearGradient id="paint32_linear" x1="979.693" y1="171.276" x2="979.693" y2="608.333" gradientUnits="userSpaceOnUse">
<stop stop-color="#333399"/>
<stop offset="1" stop-color="#333399" stop-opacity="0"/>
</linearGradient>
<linearGradient id="paint33_linear" x1="979.434" y1="178.963" x2="979.434" y2="616.049" gradientUnits="userSpaceOnUse">
<stop stop-color="#333399"/>
<stop offset="1" stop-color="#333399" stop-opacity="0"/>
</linearGradient>
<linearGradient id="paint34_linear" x1="979.174" y1="186.649" x2="979.174" y2="623.883" gradientUnits="userSpaceOnUse">
<stop stop-color="#333399"/>
<stop offset="1" stop-color="#333399" stop-opacity="0"/>
</linearGradient>
<linearGradient id="paint35_linear" x1="978.915" y1="194.336" x2="978.915" y2="631.827" gradientUnits="userSpaceOnUse">
<stop stop-color="#333399"/>
<stop offset="1" stop-color="#333399" stop-opacity="0"/>
</linearGradient>
<linearGradient id="paint36_linear" x1="978.656" y1="202.022" x2="978.656" y2="639.874" gradientUnits="userSpaceOnUse">
<stop stop-color="#333399"/>
<stop offset="1" stop-color="#333399" stop-opacity="0"/>
</linearGradient>
<linearGradient id="paint37_linear" x1="978.396" y1="209.708" x2="978.396" y2="648.017" gradientUnits="userSpaceOnUse">
<stop stop-color="#333399"/>
<stop offset="1" stop-color="#333399" stop-opacity="0"/>
</linearGradient>
<linearGradient id="paint38_linear" x1="978.137" y1="217.395" x2="978.137" y2="656.249" gradientUnits="userSpaceOnUse">
<stop stop-color="#333399"/>
<stop offset="1" stop-color="#333399" stop-opacity="0"/>
</linearGradient>
<linearGradient id="paint39_linear" x1="977.878" y1="225.081" x2="977.878" y2="664.566" gradientUnits="userSpaceOnUse">
<stop stop-color="#333399"/>
<stop offset="1" stop-color="#333399" stop-opacity="0"/>
</linearGradient>
<linearGradient id="paint40_linear" x1="977.618" y1="232.768" x2="977.618" y2="672.961" gradientUnits="userSpaceOnUse">
<stop stop-color="#333399"/>
<stop offset="1" stop-color="#333399" stop-opacity="0"/>
</linearGradient>
<linearGradient id="paint41_linear" x1="977.359" y1="240.454" x2="977.359" y2="681.43" gradientUnits="userSpaceOnUse">
<stop stop-color="#333399"/>
<stop offset="1" stop-color="#333399" stop-opacity="0"/>
</linearGradient>
<linearGradient id="paint42_linear" x1="977.099" y1="248.14" x2="977.099" y2="689.968" gradientUnits="userSpaceOnUse">
<stop stop-color="#333399"/>
<stop offset="1" stop-color="#333399" stop-opacity="0"/>
</linearGradient>
<linearGradient id="paint43_linear" x1="976.84" y1="255.826" x2="976.84" y2="698.571" gradientUnits="userSpaceOnUse">
<stop stop-color="#333399"/>
<stop offset="1" stop-color="#333399" stop-opacity="0"/>
</linearGradient>
<linearGradient id="paint44_linear" x1="976.581" y1="263.513" x2="976.581" y2="707.236" gradientUnits="userSpaceOnUse">
<stop stop-color="#333399"/>
<stop offset="1" stop-color="#333399" stop-opacity="0"/>
</linearGradient>
<linearGradient id="paint45_linear" x1="976.322" y1="271.199" x2="976.322" y2="715.96" gradientUnits="userSpaceOnUse">
<stop stop-color="#333399"/>
<stop offset="1" stop-color="#333399" stop-opacity="0"/>
</linearGradient>
<linearGradient id="paint46_linear" x1="976.062" y1="278.886" x2="976.062" y2="724.738" gradientUnits="userSpaceOnUse">
<stop stop-color="#333399"/>
<stop offset="1" stop-color="#333399" stop-opacity="0"/>
</linearGradient>
<linearGradient id="paint47_linear" x1="975.803" y1="286.572" x2="975.803" y2="733.567" gradientUnits="userSpaceOnUse">
<stop stop-color="#333399"/>
<stop offset="1" stop-color="#333399" stop-opacity="0"/>
</linearGradient>
<linearGradient id="paint48_linear" x1="975.544" y1="294.258" x2="975.544" y2="742.446" gradientUnits="userSpaceOnUse">
<stop stop-color="#333399"/>
<stop offset="1" stop-color="#333399" stop-opacity="0"/>
</linearGradient>
<linearGradient id="paint49_linear" x1="975.284" y1="301.944" x2="975.284" y2="751.37" gradientUnits="userSpaceOnUse">
<stop stop-color="#333399"/>
<stop offset="1" stop-color="#333399" stop-opacity="0"/>
</linearGradient>
<linearGradient id="paint50_linear" x1="975.025" y1="309.631" x2="975.025" y2="760.339" gradientUnits="userSpaceOnUse">
<stop stop-color="#333399"/>
<stop offset="1" stop-color="#333399" stop-opacity="0"/>
</linearGradient>
<linearGradient id="paint51_linear" x1="974.766" y1="317.317" x2="974.766" y2="769.35" gradientUnits="userSpaceOnUse">
<stop stop-color="#333399"/>
<stop offset="1" stop-color="#333399" stop-opacity="0"/>
</linearGradient>
</defs>
</svg>
