<svg width="1920" height="603" viewBox="0 0 1920 603" fill="none" xmlns="http://www.w3.org/2000/svg">
<mask id="mask0" mask-type="alpha" maskUnits="userSpaceOnUse" x="-1" y="0" width="1922" height="603">
<path d="M-1 0H1545H1921V603H375H-1V0Z" fill="#4C4A58"/>
</mask>
<g mask="url(#mask0)">
<g opacity="0.2">
<path d="M2069.83 499.273C2068.31 496.461 2072.48 495.764 2062.24 485.215C1991.53 412.364 1892.46 329.988 1714.19 319.427C1567.69 310.748 1630.24 429.014 1513.1 433.167C1290.41 441.06 1096.26 232.079 891.946 273.42C790.799 293.886 874.807 390.5 784.91 399.707C735.542 404.763 717.563 365.542 668.567 365.899C624.781 366.218 583.365 407.987 540.467 401.566C373.997 376.647 347.794 259.314 122.243 277.602C-36.1386 290.444 -30.2272 403.599 -132.365 449.083" stroke="url(#paint0_linear)" stroke-linecap="round" stroke-linejoin="round"/>
<path d="M2061.01 518.094C2016.64 501.048 1889.74 483.19 1842.29 507.638C1768.28 545.765 1859.45 625.202 1758.76 653.559C1519.01 721.081 1410.91 545.28 1203.5 545.28C1164.53 545.28 1189.81 595.225 1147.78 602.789C1000.74 629.251 890.078 416.672 750.374 459.714C644.737 492.26 708.037 621.692 601.699 621.61C527.387 621.553 436.97 527.607 363.624 558.408C221.18 618.228 27.9408 594.768 -97.585 537.031C-129.916 522.16 -113.065 517.234 -123.548 506.128C-134.031 495.021 -144.71 486.423 -150.001 481.497" stroke="url(#paint1_linear)" stroke-linecap="round" stroke-linejoin="round"/>
<path d="M2069.66 499.642C2068.04 497.93 2066.2 496.719 2064.85 495.391C2062.98 494.33 2063.28 493.131 2056.29 488.516C1982.27 418.417 1883.02 334.209 1704.17 323.855C1559.78 315.347 1621.6 432.273 1505.93 436.493C1284.73 444.75 1092.21 235.699 889.169 277.073C787.934 297.776 871.536 395.034 781.317 404.058C731.46 409.014 712.06 368.72 662.587 369.673C616.866 371.159 572.473 411.65 527.955 404.222C364.115 379.5 338.757 264.371 117.423 282.083C-38.059 294.456 -32.4728 405.223 -132.711 449.719" stroke="url(#paint2_linear)"/>
<path d="M2069.48 500.011C2067.01 497.992 2062.67 496.449 2060.4 495.635C2057.09 495.358 2059.2 495.772 2050.34 491.817C1973 424.47 1873.58 338.43 1694.16 328.284C1551.88 319.945 1612.97 435.532 1498.77 439.818C1279.05 448.44 1088.17 239.318 886.394 280.725C785.071 301.665 868.267 399.567 777.726 408.409C727.379 413.264 706.56 371.897 656.609 373.448C608.954 376.1 561.584 415.312 515.445 406.878C354.236 382.353 329.721 269.428 112.605 286.564C-39.9775 298.467 -34.7165 406.847 -133.056 450.354" stroke="url(#paint3_linear)"/>
<path d="M2069.31 500.38C2065.99 498.054 2059.14 496.178 2055.95 495.88C2051.19 496.387 2055.13 498.414 2044.38 495.118C1963.74 430.524 1864.13 342.652 1684.15 332.712C1543.97 324.544 1604.33 438.791 1491.61 443.144C1273.37 452.13 1084.13 242.937 883.618 284.378C782.206 305.555 864.996 404.1 774.132 412.76C723.297 417.515 701.057 375.075 650.628 377.223C601.039 381.042 550.692 418.974 502.934 409.534C344.354 385.206 320.684 274.486 107.784 291.045C-41.8978 302.478 -36.9624 408.471 -133.403 450.99" stroke="url(#paint4_linear)"/>
<path d="M2069.14 500.749C2064.96 498.116 2055.62 495.907 2051.5 496.125C2045.3 497.416 2051.05 501.055 2038.44 498.418C1954.47 436.577 1854.69 346.873 1674.13 337.141C1536.07 329.143 1595.7 442.05 1484.44 446.47C1267.69 455.82 1080.09 246.557 880.843 288.031C779.343 309.445 861.727 408.633 770.541 417.111C719.216 421.766 695.556 378.253 644.65 380.997C593.126 385.983 539.802 422.636 490.424 412.19C334.474 388.059 311.649 279.543 102.966 295.526C-43.8162 306.489 -39.2061 410.095 -133.748 451.625" stroke="url(#paint5_linear)"/>
<path d="M2068.96 501.118C2063.93 498.178 2052.09 495.637 2047.05 496.37C2039.4 498.444 2046.97 503.696 2032.48 501.719C1945.21 442.63 1845.25 351.094 1664.12 341.569C1528.16 333.741 1587.06 445.309 1477.28 449.796C1262.01 459.51 1076.04 250.176 878.066 291.683C776.478 313.334 858.456 413.166 766.948 421.462C715.134 426.016 690.053 381.43 638.67 384.772C585.212 390.924 528.911 426.299 477.912 414.846C324.593 390.912 302.611 284.6 98.1455 300.006C-45.7366 310.5 -41.4517 411.719 -134.094 452.261" stroke="url(#paint6_linear)"/>
<path d="M2068.79 501.487C2062.9 498.241 2048.56 495.366 2042.6 496.615C2033.51 499.473 2042.9 506.338 2026.53 505.02C1935.94 448.683 1835.81 355.316 1654.11 345.997C1520.26 338.34 1578.42 448.568 1470.12 453.122C1256.34 463.2 1072 253.796 875.291 295.336C773.615 317.224 855.187 417.699 763.356 425.813C711.054 430.267 684.552 384.608 632.692 388.547C577.299 395.865 518.021 429.961 465.402 417.503C314.713 393.766 293.576 289.657 93.3271 304.487C-47.655 314.512 -43.6954 413.343 -134.439 452.896" stroke="url(#paint7_linear)"/>
<path d="M2068.62 501.856C2061.87 498.303 2045.03 495.095 2038.14 496.86C2027.62 500.502 2038.82 508.979 2020.58 508.321C1926.68 454.736 1826.36 359.537 1644.09 350.426C1512.35 342.938 1569.79 451.827 1462.95 456.448C1250.65 466.89 1067.96 257.415 872.514 298.989C770.751 321.113 851.916 422.232 759.763 430.164C706.971 434.518 679.05 387.786 626.712 392.321C569.384 400.807 507.129 433.623 452.891 420.159C304.832 396.619 284.539 294.714 88.5068 308.968C-49.5753 318.523 -45.9411 414.967 -134.786 453.532" stroke="url(#paint8_linear)"/>
<path d="M2068.45 502.225C2060.85 498.366 2041.5 494.825 2033.69 497.105C2021.72 501.53 2034.74 511.621 2014.63 511.622C1917.41 460.79 1816.92 363.758 1634.08 354.854C1504.45 347.537 1561.15 455.086 1455.79 459.774C1244.98 470.58 1063.92 261.034 869.739 302.642C767.888 325.003 848.647 426.765 756.172 434.515C702.891 438.769 673.549 390.963 620.733 396.096C561.472 405.748 496.24 437.286 440.381 422.815C294.952 399.472 275.503 299.772 83.6884 313.449C-51.4939 322.534 -48.1847 416.591 -135.131 454.167" stroke="url(#paint9_linear)"/>
<path d="M2068.27 502.594C2059.82 498.428 2037.97 494.554 2029.24 497.35C2015.83 502.559 2030.67 514.262 2008.68 514.923C1908.15 466.843 1807.48 367.98 1624.07 359.283C1496.54 352.136 1552.52 458.345 1448.63 463.1C1239.3 474.27 1059.87 264.654 866.962 306.295C765.023 328.893 845.376 431.299 752.578 438.866C698.808 443.02 668.046 394.141 614.753 399.871C553.557 410.69 485.348 440.948 427.869 425.471C285.07 402.325 266.466 304.829 78.868 317.93C-53.4142 326.546 -50.4306 418.215 -135.478 454.803" stroke="url(#paint10_linear)"/>
<path d="M2068.1 502.963C2058.79 498.49 2034.44 494.283 2024.79 497.594C2009.94 503.588 2026.59 516.903 2002.73 518.223C1898.88 472.896 1798.04 372.201 1614.05 363.711C1488.64 356.734 1543.88 461.604 1441.47 466.425C1233.62 477.96 1055.83 268.273 864.188 309.947C762.16 332.782 842.108 435.832 748.987 443.217C694.728 447.27 662.545 397.319 608.775 403.645C545.644 415.631 474.459 444.61 415.359 428.127C275.191 405.178 257.43 309.886 74.0496 322.411C-55.3327 330.557 -52.6743 419.839 -135.822 455.438" stroke="url(#paint11_linear)"/>
<path d="M2067.93 503.332C2057.76 498.553 2030.91 494.013 2020.34 497.84C2004.04 504.617 2022.51 519.545 1996.78 521.524C1889.62 478.95 1788.6 376.423 1604.04 368.14C1480.73 361.333 1535.24 464.863 1434.3 469.751C1227.94 481.65 1051.79 271.893 861.411 313.6C759.295 336.672 838.837 440.365 745.394 447.568C690.646 451.521 657.043 400.497 602.795 407.42C537.729 420.572 463.567 448.273 402.848 430.783C265.309 408.031 248.393 314.943 69.2292 326.892C-57.253 334.568 -54.92 421.463 -136.169 456.074" stroke="url(#paint12_linear)"/>
<path d="M2067.76 503.701C2056.74 498.615 2027.38 493.742 2015.89 498.084C1998.15 505.645 2018.44 522.186 1990.83 524.825C1880.35 485.003 1779.16 380.644 1594.03 372.568C1472.83 365.932 1526.61 468.122 1427.14 473.077C1222.26 485.34 1047.75 275.512 858.636 317.253C756.432 340.562 835.568 444.898 741.802 451.919C686.565 455.772 651.542 403.674 596.817 411.194C529.817 425.513 452.677 451.935 390.338 433.439C255.43 410.884 239.358 320.001 64.4109 331.372C-59.1714 338.579 -57.1636 423.086 -136.514 456.71" stroke="url(#paint13_linear)"/>
<path d="M2067.58 504.07C2055.71 498.677 2023.85 493.472 2011.44 498.329C1992.25 506.674 2014.36 524.828 1984.88 528.126C1871.09 491.056 1769.71 384.865 1584.01 376.997C1464.92 370.53 1517.97 471.381 1419.98 476.403C1216.58 489.03 1043.7 279.132 855.859 320.906C753.567 344.451 832.297 449.431 738.209 456.27C682.483 460.022 646.039 406.852 590.836 414.969C521.902 430.455 441.786 455.597 377.826 436.096C245.548 413.738 230.32 325.058 59.5905 335.853C-61.0919 342.591 -59.4093 424.711 -136.86 457.345" stroke="url(#paint14_linear)"/>
<path d="M2067.41 504.439C2054.68 498.74 2020.32 493.201 2006.99 498.574C1986.36 507.702 2010.29 527.469 1978.93 531.427C1861.82 497.109 1760.27 389.087 1574 381.425C1457.02 375.129 1509.34 474.64 1412.81 479.729C1210.9 492.72 1039.66 282.751 853.084 324.559C750.704 348.341 829.028 453.964 734.618 460.621C678.402 464.273 640.538 410.03 584.858 418.744C513.989 435.396 430.896 459.26 365.316 438.752C235.669 416.591 221.285 330.115 54.7721 340.334C-63.0102 346.602 -61.653 426.334 -137.205 457.981" stroke="url(#paint15_linear)"/>
<path d="M2067.24 504.808C2053.65 498.802 2016.79 492.93 2002.53 498.819C1980.46 508.731 2006.21 530.11 1972.98 534.728C1852.56 503.163 1750.83 393.308 1563.98 385.854C1449.11 379.728 1500.7 477.899 1405.65 483.055C1205.22 496.41 1035.62 286.371 850.307 328.212C747.839 352.231 825.757 458.497 731.025 464.972C674.32 468.524 635.036 413.208 578.878 422.519C506.075 440.338 420.005 462.922 352.804 441.408C225.787 419.444 212.247 335.172 49.9518 344.815C-64.9306 350.613 -63.8988 427.959 -137.552 458.616" stroke="url(#paint16_linear)"/>
<path d="M2067.06 505.177C2052.62 498.864 2013.27 492.66 1998.08 499.064C1974.57 509.76 2002.13 532.752 1967.03 538.028C1843.29 509.216 1741.39 397.53 1553.97 390.282C1441.21 384.326 1492.06 481.158 1398.49 486.381C1199.54 500.1 1031.57 289.99 847.532 331.864C744.976 356.12 822.488 463.03 727.433 469.323C670.239 472.775 629.535 416.385 572.9 426.293C498.162 445.279 409.115 466.584 340.295 444.064C215.907 422.297 203.212 340.229 45.1333 349.296C-66.8491 354.624 -66.1425 429.582 -137.897 459.252" stroke="url(#paint17_linear)"/>
<path d="M2066.89 505.546C2051.6 498.927 2009.74 492.389 1993.63 499.309C1968.68 510.789 1998.05 535.393 1961.08 541.329C1834.03 515.269 1731.94 401.751 1543.96 394.711C1433.3 388.925 1483.43 484.417 1391.32 489.707C1193.86 503.79 1027.53 293.609 844.755 335.517C742.111 360.01 819.217 467.564 723.84 473.674C666.157 477.025 624.032 419.563 566.919 430.068C490.247 450.22 398.223 470.247 327.783 446.72C206.026 425.151 194.175 345.287 40.313 353.777C-68.7694 358.636 -68.3882 431.207 -138.243 459.887" stroke="url(#paint18_linear)"/>
<path d="M2066.72 505.915C2050.57 498.989 2006.21 492.119 1989.18 499.554C1962.78 511.817 1993.98 538.035 1955.13 544.63C1824.76 521.322 1722.5 405.972 1533.95 399.139C1425.4 393.523 1474.79 487.676 1384.16 493.033C1188.18 507.48 1023.49 297.229 841.98 339.17C739.249 363.899 815.948 472.097 720.249 478.025C662.077 481.276 618.531 422.741 560.941 433.842C482.335 455.161 387.334 473.909 315.273 449.376C196.146 428.004 185.139 350.344 35.4946 358.257C-70.6878 362.647 -70.6319 432.83 -138.588 460.523" stroke="url(#paint19_linear)"/>
<path d="M2066.54 506.284C2049.54 499.051 2002.68 491.848 1984.73 499.799C1956.89 512.846 1989.9 540.676 1949.18 547.931C1815.5 527.376 1713.06 410.194 1523.93 403.568C1417.49 398.122 1466.16 490.935 1377 496.359C1182.5 511.17 1019.45 300.848 839.204 342.823C736.384 367.789 812.677 476.63 716.655 482.376C657.994 485.527 613.028 425.918 554.961 437.617C474.42 460.103 376.442 477.571 302.761 452.033C186.265 430.857 176.102 355.401 30.6742 362.738C-72.6083 366.658 -72.8775 434.454 -138.935 461.158" stroke="url(#paint20_linear)"/>
<path d="M2066.37 506.653C2048.51 499.114 1999.15 491.578 1980.28 500.044C1951 513.875 1985.83 543.318 1943.23 551.232C1806.23 533.429 1703.62 414.415 1513.92 407.996C1409.59 402.721 1457.52 494.194 1369.84 499.685C1176.82 514.86 1015.4 304.468 836.429 346.476C733.521 371.679 809.408 481.163 713.064 486.727C653.914 489.778 607.528 429.096 548.983 441.392C466.507 465.044 365.552 481.234 290.252 454.689C176.385 433.71 167.066 360.459 25.8558 367.219C-74.5266 370.67 -75.1214 436.079 -139.28 461.794" stroke="url(#paint21_linear)"/>
<path d="M2066.2 507.022C2047.48 499.176 1995.62 491.307 1975.83 500.288C1945.1 514.903 1981.75 545.959 1937.28 554.532C1796.97 539.482 1694.18 418.636 1503.9 412.424C1401.68 407.319 1448.88 497.453 1362.67 503.01C1171.14 518.55 1011.36 308.087 833.652 350.128C730.656 375.568 806.137 485.696 709.471 491.078C649.831 494.028 602.025 432.274 543.003 445.166C458.593 469.985 354.661 484.896 277.74 457.345C166.503 436.563 158.029 365.516 21.0355 371.7C-76.447 374.681 -77.3671 437.702 -139.626 462.429" stroke="url(#paint22_linear)"/>
<path d="M2066.03 507.391C2046.46 499.238 1992.09 491.036 1971.38 500.534C1939.21 515.932 1977.67 548.6 1931.33 557.833C1787.7 545.535 1684.73 422.858 1493.89 416.853C1393.78 411.918 1440.25 500.712 1355.51 506.336C1165.46 522.24 1007.32 311.707 830.877 353.781C727.793 379.458 802.868 490.229 705.879 495.429C645.751 498.279 596.524 435.451 537.024 448.941C450.68 474.927 343.771 488.558 265.23 460.001C156.624 439.416 148.994 370.573 16.217 376.181C-78.3655 378.692 -79.6108 439.326 -139.971 463.065" stroke="url(#paint23_linear)"/>
<path d="M2065.85 507.76C2045.43 499.3 1988.56 490.765 1966.92 500.778C1933.31 516.96 1973.6 551.241 1925.38 561.134C1778.44 551.588 1675.29 427.079 1483.88 421.281C1385.87 416.516 1431.61 503.971 1348.35 509.662C1159.78 525.93 1003.28 315.326 828.1 357.434C724.928 383.348 799.597 494.762 702.286 499.78C641.669 502.53 591.021 438.629 531.044 452.716C442.765 479.868 332.88 492.221 252.718 462.657C146.742 442.269 139.956 375.63 11.3967 380.662C-80.2858 382.703 -81.8564 440.95 -140.318 463.7" stroke="url(#paint24_linear)"/>
<path d="M2065.68 508.129C2044.4 499.363 1985.03 490.495 1962.47 501.023C1927.42 517.989 1969.52 553.883 1919.43 564.435C1769.17 557.642 1665.85 431.301 1473.86 425.71C1377.96 421.115 1422.98 507.23 1341.18 512.988C1154.1 529.62 999.231 318.946 825.323 361.087C722.063 387.237 796.326 499.296 698.693 504.131C637.586 506.781 585.519 441.807 525.064 456.491C434.851 484.81 321.988 495.883 240.207 465.313C136.861 445.123 130.919 380.687 6.57642 385.143C-82.2061 386.715 -84.102 442.574 -140.665 464.336" stroke="url(#paint25_linear)"/>
<path d="M2065.51 508.498C2043.37 499.425 1981.5 490.224 1958.02 501.268C1921.52 519.018 1965.44 556.525 1913.48 567.736C1759.91 563.695 1656.41 435.522 1463.85 430.138C1370.06 425.714 1414.34 510.489 1334.02 516.314C1148.42 533.31 995.19 322.565 822.548 364.74C719.2 391.127 793.057 503.829 695.102 508.482C633.506 511.032 580.018 444.985 519.086 460.265C426.938 489.751 311.099 499.546 227.697 467.97C126.981 447.976 121.884 385.745 1.75806 389.624C-84.1245 390.726 -86.3457 444.198 -141.009 464.972" stroke="url(#paint26_linear)"/>
<path d="M2065.33 508.867C2042.34 499.488 1977.97 489.954 1953.57 501.513C1915.63 520.047 1961.36 559.166 1907.52 571.037C1750.64 569.748 1646.96 439.744 1453.84 434.567C1362.16 430.313 1405.7 513.748 1326.86 519.64C1142.74 537 991.146 326.185 819.772 368.392C716.335 395.017 789.786 508.362 691.508 512.833C629.423 515.282 574.515 448.162 513.106 464.04C419.023 494.692 300.207 503.208 215.185 470.626C117.099 450.829 112.846 390.802 -3.0625 394.104C-86.0451 394.737 -88.5916 445.822 -141.356 465.607" stroke="url(#paint27_linear)"/>
<path d="M2065.16 509.236C2041.32 499.55 1974.44 489.683 1949.12 501.758C1909.74 521.076 1957.29 561.807 1901.58 574.338C1741.38 575.802 1637.52 443.965 1443.82 438.995C1354.25 434.911 1397.07 517.007 1319.69 522.966C1137.06 540.69 987.104 329.804 816.997 372.045C713.472 398.907 786.517 512.895 687.917 517.184C625.343 519.533 569.014 451.34 507.127 467.815C411.111 499.634 289.317 506.87 202.675 473.282C107.22 453.683 103.811 395.859 -7.88086 398.585C-87.9635 398.749 -90.8353 447.446 -141.701 466.243" stroke="url(#paint28_linear)"/>
<path d="M2064.99 509.605C2040.29 499.612 1970.91 489.413 1944.67 502.003C1903.84 522.104 1953.21 564.449 1895.62 577.639C1732.11 581.855 1628.08 448.186 1433.81 443.424C1346.35 439.51 1388.43 520.266 1312.53 526.292C1131.38 544.38 983.061 333.423 814.22 375.698C710.608 402.796 783.247 517.428 684.324 521.535C621.26 523.784 563.512 454.518 501.147 471.589C403.196 504.575 278.426 510.533 190.164 475.938C97.3383 456.536 94.7733 400.916 -12.7012 403.066C-89.8838 402.76 -93.0809 449.07 -142.048 466.878" stroke="url(#paint29_linear)"/>
<path d="M2064.82 509.974C2039.26 499.675 1967.38 489.142 1940.22 502.248C1897.95 523.133 1949.14 567.09 1889.67 580.94C1722.85 587.908 1618.64 452.408 1423.8 447.852C1338.44 444.109 1379.8 523.526 1305.37 529.618C1125.7 548.07 979.019 337.043 811.445 379.351C707.745 406.686 779.978 521.962 680.732 525.886C617.18 528.035 558.011 457.696 495.169 475.364C395.283 509.517 267.536 514.195 177.654 478.594C87.4587 459.389 85.7379 405.974 -17.5195 407.547C-91.8022 406.771 -95.3246 450.695 -142.392 467.514" stroke="url(#paint30_linear)"/>
<path d="M2064.64 510.343C2038.23 499.737 1963.85 488.871 1935.76 502.493C1892.05 524.161 1945.06 569.732 1883.72 584.24C1713.58 593.962 1609.2 456.629 1413.78 452.281C1330.54 448.707 1371.16 526.784 1298.2 532.944C1120.02 551.76 974.975 340.662 808.668 383.004C704.88 410.575 776.707 526.495 677.139 530.237C613.098 532.285 552.508 460.873 489.189 479.139C387.369 514.458 256.645 517.857 165.142 481.251C77.5772 462.242 76.7006 411.031 -22.3398 412.028C-93.7225 410.782 -97.5703 452.318 -142.739 468.15" stroke="url(#paint31_linear)"/>
<path d="M2064.47 510.712C2037.2 499.8 1960.33 488.601 1931.31 502.738C1886.16 525.19 1940.98 572.373 1877.77 587.541C1704.32 600.015 1599.75 460.851 1403.77 456.709C1322.63 453.306 1362.53 530.044 1291.04 536.27C1114.34 555.45 970.934 344.282 805.893 386.657C702.017 414.465 773.438 531.028 673.548 534.588C609.017 536.536 547.007 464.051 483.211 482.914C379.456 519.399 245.755 521.52 152.632 483.907C67.6976 465.095 67.6652 416.088 -27.1582 416.509C-95.6409 414.794 -99.814 453.943 -143.084 468.785" stroke="url(#paint32_linear)"/>
<path d="M2064.3 511.081C2036.18 499.862 1956.8 488.33 1926.86 502.983C1880.27 526.219 1936.91 575.014 1871.82 590.842C1695.05 606.068 1590.31 465.072 1393.76 461.138C1314.73 457.905 1353.89 533.303 1283.88 539.595C1108.66 559.14 966.89 347.901 803.116 390.309C699.152 418.355 770.167 535.561 669.954 538.939C604.935 540.787 541.504 467.229 477.23 486.688C371.541 524.341 234.863 525.182 140.12 486.563C57.8159 467.948 58.6276 421.145 -31.9788 420.99C-97.5615 418.805 -102.06 455.566 -143.431 469.421" stroke="url(#paint33_linear)"/>
<path d="M2064.12 511.451C2035.15 499.924 1953.27 488.06 1922.41 503.228C1874.37 527.248 1932.83 577.656 1865.87 594.143C1685.79 612.122 1580.87 469.294 1383.74 465.566C1306.82 462.503 1345.25 536.562 1276.72 542.922C1102.98 562.83 962.848 351.521 800.342 393.962C696.289 422.245 766.898 540.094 666.363 543.291C600.854 545.038 536.004 470.407 471.252 490.463C363.628 529.282 223.974 528.845 127.611 489.219C47.9363 470.802 49.5923 426.203 -36.7971 425.471C-99.4799 422.817 -104.304 457.191 -143.775 470.056" stroke="url(#paint34_linear)"/>
<path d="M2063.95 511.82C2034.12 499.987 1949.74 487.789 1917.96 503.473C1868.48 528.277 1928.75 580.298 1859.92 597.444C1676.52 618.175 1571.43 473.515 1373.73 469.995C1298.92 467.102 1336.62 539.821 1269.55 546.248C1097.3 566.52 958.805 355.141 797.565 397.615C693.424 426.134 763.627 544.628 662.77 547.642C596.772 549.289 530.501 473.585 465.272 494.238C355.714 534.224 213.082 532.507 115.099 491.876C38.0548 473.655 40.5549 431.26 -41.6174 429.952C-101.4 426.828 -106.549 458.815 -144.122 470.692" stroke="url(#paint35_linear)"/>
<path d="M2063.78 512.189C2033.09 500.049 1946.21 487.519 1913.51 503.718C1862.59 529.305 1924.68 582.939 1853.97 600.745C1667.26 624.228 1561.99 477.737 1363.72 474.423C1291.01 471.701 1327.98 543.08 1262.39 549.573C1091.62 570.21 954.763 358.76 794.79 401.268C690.561 430.024 760.358 549.161 659.178 551.993C592.691 553.539 525 476.762 459.294 498.012C347.801 539.165 202.192 536.169 102.589 494.532C28.1752 476.508 31.5196 436.317 -46.4358 434.433C-103.319 430.839 -108.793 460.439 -144.467 471.328" stroke="url(#paint36_linear)"/>
<path d="M2063.61 512.558C2032.06 500.112 1942.68 487.248 1909.06 503.963C1856.69 530.334 1920.6 585.581 1848.02 604.046C1657.99 630.282 1552.54 481.958 1353.7 478.852C1283.11 476.3 1319.34 546.339 1255.22 552.9C1085.94 573.9 950.719 362.38 792.013 404.921C687.696 433.914 757.087 553.694 655.585 556.344C588.609 557.79 519.497 479.94 453.313 501.787C339.886 544.107 191.301 539.832 90.0775 497.188C18.2937 479.362 22.4822 441.375 -51.2561 438.914C-105.239 434.851 -111.038 462.063 -144.813 471.963" stroke="url(#paint37_linear)"/>
<path d="M2063.43 512.927C2031.04 500.174 1939.15 486.977 1904.61 504.208C1850.8 531.363 1916.52 588.222 1842.07 607.347C1648.73 636.335 1543.1 486.18 1343.69 483.281C1275.2 480.898 1310.71 549.598 1248.06 556.225C1080.26 577.59 946.677 365.999 789.238 408.574C684.834 437.803 753.818 558.227 651.994 560.695C584.529 562.041 513.997 483.118 447.335 505.562C331.974 549.048 180.411 543.494 77.5676 499.844C8.41396 482.215 13.4466 446.432 -56.0747 443.394C-107.158 438.862 -113.282 463.687 -145.158 472.599" stroke="url(#paint38_linear)"/>
<path d="M2063.26 513.296C2030.01 500.236 1935.62 486.707 1900.15 504.453C1844.9 532.391 1912.45 590.863 1836.12 610.647C1639.46 642.388 1533.66 490.401 1333.68 487.709C1267.3 485.497 1302.07 552.857 1240.9 559.551C1074.58 581.28 942.634 369.618 786.461 412.226C681.969 441.693 750.547 562.76 648.401 565.046C580.446 566.292 508.494 486.296 441.355 509.337C324.059 553.989 169.52 547.156 65.0559 502.5C-1.46758 485.068 4.4093 451.489 -60.895 447.875C-109.078 442.873 -115.528 465.311 -145.505 473.234" stroke="url(#paint39_linear)"/>
<path d="M2063.09 513.665C2028.98 500.299 1932.09 486.436 1895.7 504.698C1839.01 533.42 1908.37 593.505 1830.17 613.948C1630.2 648.441 1524.22 494.622 1323.66 492.138C1259.39 490.096 1293.44 556.116 1233.74 562.877C1068.9 584.97 938.592 373.238 783.686 415.879C679.106 445.583 747.278 567.294 644.809 569.397C576.366 570.543 502.993 489.473 435.377 513.111C316.146 558.931 158.63 550.819 52.5461 505.156C-11.3472 487.921 -4.62607 456.547 -65.7134 452.356C-110.996 446.885 -117.772 466.935 -145.85 473.87" stroke="url(#paint40_linear)"/>
<path d="M2062.91 514.034C2027.95 500.361 1928.56 486.166 1891.25 504.943C1833.11 534.449 1904.29 596.146 1824.22 617.249C1620.93 654.495 1514.78 498.844 1313.65 496.566C1251.49 494.694 1284.8 559.375 1226.57 566.203C1063.22 588.66 934.548 376.857 780.909 419.532C676.241 449.472 744.007 571.827 641.216 573.748C572.283 574.793 497.49 492.651 429.397 516.886C308.232 563.872 147.738 554.481 40.0344 507.813C-21.2287 490.774 -13.6634 461.604 -70.5337 456.837C-112.917 450.896 -120.017 468.559 -146.197 474.506" stroke="url(#paint41_linear)"/>
<path d="M2062.74 514.403C2026.93 500.424 1925.03 485.895 1886.8 505.188C1827.22 535.478 1900.22 598.788 1818.27 620.55C1611.67 660.548 1505.33 503.065 1303.64 500.995C1243.58 499.293 1276.17 562.634 1219.41 569.529C1057.54 592.35 930.507 380.477 778.135 423.185C673.378 453.362 740.738 576.36 637.625 578.099C568.203 579.044 491.989 495.829 423.418 520.661C300.319 568.813 136.849 558.144 27.5247 510.469C-31.1083 493.628 -22.6988 466.661 -75.3521 461.318C-114.835 454.907 -122.261 470.183 -146.541 475.141" stroke="url(#paint42_linear)"/>
<path d="M2062.57 514.772C2025.9 500.486 1921.5 485.625 1882.35 505.433C1821.33 536.506 1896.14 601.429 1812.32 623.851C1602.4 666.601 1495.89 507.287 1293.62 505.423C1235.68 503.892 1267.53 565.893 1212.25 572.855C1051.86 596.04 926.463 384.096 775.358 426.838C670.513 457.252 737.467 580.893 634.031 582.45C564.121 583.295 486.487 499.007 417.438 524.435C292.404 573.755 125.957 561.806 15.0129 513.125C-40.9898 496.481 -31.7361 471.718 -80.1724 465.799C-116.755 458.918 -124.507 471.807 -146.888 475.777" stroke="url(#paint43_linear)"/>
<path d="M2062.4 515.141C2024.87 500.548 1917.98 485.354 1877.9 505.678C1815.43 537.535 1892.07 604.07 1806.37 627.152C1593.14 672.654 1486.45 511.508 1283.61 509.851C1227.77 508.49 1258.89 569.152 1205.08 576.181C1046.18 599.73 922.421 387.716 772.583 430.491C667.65 461.141 734.198 585.426 630.44 586.801C560.04 587.546 480.986 502.184 411.46 528.21C284.492 578.696 115.068 565.468 2.50317 515.781C-50.8694 499.334 -40.7717 476.776 -84.991 470.28C-118.674 462.93 -126.751 473.431 -147.233 476.412" stroke="url(#paint44_linear)"/>
<path d="M2062.22 515.51C2023.84 500.611 1914.45 485.083 1873.45 505.923C1809.54 538.564 1887.99 606.712 1800.42 630.453C1583.87 678.708 1477.01 515.73 1273.6 514.28C1219.87 513.089 1250.26 572.411 1197.92 579.507C1040.5 603.42 918.378 391.335 769.806 434.144C664.785 465.031 730.928 589.96 626.847 591.152C555.958 591.797 475.483 505.362 405.48 531.985C276.577 583.638 104.176 569.131 -10.0085 518.437C-60.751 502.187 -49.809 481.833 -89.8113 474.761C-120.594 466.941 -128.996 475.055 -147.58 477.048" stroke="url(#paint45_linear)"/>
<path d="M2062.05 515.879C2022.81 500.673 1910.92 484.813 1869 506.168C1803.65 539.593 1883.91 609.354 1794.47 633.754C1574.61 684.761 1467.57 519.951 1263.58 518.709C1211.96 517.688 1241.62 575.671 1190.76 582.833C1034.83 607.11 914.336 394.955 767.031 437.797C661.922 468.921 727.658 594.493 623.255 595.503C551.877 596.048 469.982 508.54 399.502 535.76C268.664 588.579 93.2865 572.793 -22.5183 521.094C-70.6306 505.041 -58.8444 486.89 -94.6296 479.242C-122.513 470.953 -131.24 476.679 -147.924 477.684" stroke="url(#paint46_linear)"/>
<path d="M2061.88 516.248C2021.78 500.735 1907.39 484.542 1864.54 506.413C1797.75 540.621 1879.83 611.995 1788.52 637.055C1565.34 690.815 1458.12 524.173 1253.57 523.137C1204.06 522.286 1232.99 578.93 1183.59 586.159C1029.14 610.8 910.292 398.574 764.254 441.449C659.058 472.811 724.388 599.026 619.662 599.854C547.795 600.298 464.48 511.718 393.521 539.534C260.75 593.52 82.3947 576.456 -35.0303 523.75C-80.5124 507.894 -67.8817 491.948 -99.45 483.723C-124.433 474.964 -133.486 478.303 -148.271 478.319" stroke="url(#paint47_linear)"/>
<path d="M2061.7 516.618C2020.76 500.798 1903.86 484.272 1860.09 506.658C1791.86 541.65 1875.76 614.637 1782.57 640.356C1556.07 696.868 1448.68 528.394 1243.55 527.566C1196.15 526.885 1224.35 582.189 1176.43 589.485C1023.46 614.49 906.249 402.194 761.477 445.102C656.193 476.701 721.117 603.559 616.069 604.206C543.713 604.549 458.977 514.896 387.541 543.309C252.835 598.462 71.5031 580.118 -47.542 526.406C-90.3939 510.747 -76.9191 497.005 -104.27 488.204C-126.353 478.975 -135.731 479.927 -148.618 478.955" stroke="url(#paint48_linear)"/>
<path d="M2061.53 516.987C2019.73 500.86 1900.33 484.001 1855.64 506.903C1785.96 542.679 1871.68 617.278 1776.62 643.656C1546.81 702.921 1439.24 532.615 1233.54 531.994C1188.25 531.484 1215.71 585.448 1169.27 592.811C1017.79 618.18 902.207 405.814 758.703 448.755C653.33 480.59 717.848 608.092 612.477 608.557C539.632 608.8 453.476 518.073 381.563 547.084C244.922 603.403 60.6135 583.78 -60.0518 529.062C-100.273 513.6 -85.9544 502.062 -109.089 492.685C-128.272 482.987 -137.975 481.551 -148.962 479.59" stroke="url(#paint49_linear)"/>
<path d="M2061.36 517.356C2018.7 500.923 1896.8 483.731 1851.19 507.148C1780.07 543.708 1867.6 619.919 1770.66 646.958C1537.54 708.975 1429.8 536.837 1223.53 536.423C1180.34 536.083 1207.08 588.707 1162.1 596.137C1012.1 621.871 898.163 409.433 755.926 452.408C650.465 484.48 714.577 612.626 608.884 612.908C535.55 613.051 447.973 521.251 375.583 550.859C237.008 608.345 49.722 587.443 -72.5635 531.719C-110.155 516.454 -94.992 507.12 -113.909 497.166C-130.192 486.998 -140.221 483.175 -149.309 480.226" stroke="url(#paint50_linear)"/>
<path d="M2061.19 517.725C2017.67 500.985 1893.27 483.46 1846.74 507.393C1774.17 544.737 1863.53 622.561 1764.72 650.259C1528.28 715.028 1420.35 541.059 1213.51 540.852C1172.44 540.681 1198.44 591.966 1154.94 599.463C1006.43 625.561 894.122 413.053 753.151 456.061C647.602 488.37 711.308 617.159 605.293 617.259C531.469 617.302 442.473 524.429 369.605 554.634C229.095 613.286 38.8324 591.106 -85.0732 534.375C-120.035 519.307 -104.027 512.177 -118.728 501.647C-132.111 491.01 -142.465 484.8 -149.654 480.862" stroke="url(#paint51_linear)"/>
</g>
</g>
<defs>
<linearGradient id="paint0_linear" x1="968.733" y1="268" x2="968.733" y2="499.273" gradientUnits="userSpaceOnUse">
<stop stop-color="#FFCD6B"/>
<stop offset="1" stop-color="#FFCD6B" stop-opacity="0"/>
</linearGradient>
<linearGradient id="paint1_linear" x1="955.505" y1="453.94" x2="955.505" y2="669" gradientUnits="userSpaceOnUse">
<stop stop-color="#FFCD6B"/>
<stop offset="1" stop-color="#FFCD6B" stop-opacity="0"/>
</linearGradient>
<linearGradient id="paint2_linear" x1="968.472" y1="271.646" x2="968.472" y2="499.642" gradientUnits="userSpaceOnUse">
<stop stop-color="#FFCD6B"/>
<stop offset="1" stop-color="#FFCD6B" stop-opacity="0"/>
</linearGradient>
<linearGradient id="paint3_linear" x1="968.214" y1="275.292" x2="968.214" y2="500.011" gradientUnits="userSpaceOnUse">
<stop stop-color="#FFCD6B"/>
<stop offset="1" stop-color="#FFCD6B" stop-opacity="0"/>
</linearGradient>
<linearGradient id="paint4_linear" x1="967.954" y1="278.938" x2="967.954" y2="500.38" gradientUnits="userSpaceOnUse">
<stop stop-color="#FFCD6B"/>
<stop offset="1" stop-color="#FFCD6B" stop-opacity="0"/>
</linearGradient>
<linearGradient id="paint5_linear" x1="967.695" y1="282.583" x2="967.695" y2="500.749" gradientUnits="userSpaceOnUse">
<stop stop-color="#FFCD6B"/>
<stop offset="1" stop-color="#FFCD6B" stop-opacity="0"/>
</linearGradient>
<linearGradient id="paint6_linear" x1="967.435" y1="286.229" x2="967.435" y2="502.156" gradientUnits="userSpaceOnUse">
<stop stop-color="#FFCD6B"/>
<stop offset="1" stop-color="#FFCD6B" stop-opacity="0"/>
</linearGradient>
<linearGradient id="paint7_linear" x1="967.177" y1="289.875" x2="967.177" y2="505.186" gradientUnits="userSpaceOnUse">
<stop stop-color="#FFCD6B"/>
<stop offset="1" stop-color="#FFCD6B" stop-opacity="0"/>
</linearGradient>
<linearGradient id="paint8_linear" x1="966.917" y1="293.521" x2="966.917" y2="508.357" gradientUnits="userSpaceOnUse">
<stop stop-color="#FFCD6B"/>
<stop offset="1" stop-color="#FFCD6B" stop-opacity="0"/>
</linearGradient>
<linearGradient id="paint9_linear" x1="966.658" y1="297.167" x2="966.658" y2="511.622" gradientUnits="userSpaceOnUse">
<stop stop-color="#FFCD6B"/>
<stop offset="1" stop-color="#FFCD6B" stop-opacity="0"/>
</linearGradient>
<linearGradient id="paint10_linear" x1="966.398" y1="300.813" x2="966.398" y2="514.923" gradientUnits="userSpaceOnUse">
<stop stop-color="#FFCD6B"/>
<stop offset="1" stop-color="#FFCD6B" stop-opacity="0"/>
</linearGradient>
<linearGradient id="paint11_linear" x1="966.14" y1="304.459" x2="966.14" y2="518.223" gradientUnits="userSpaceOnUse">
<stop stop-color="#FFCD6B"/>
<stop offset="1" stop-color="#FFCD6B" stop-opacity="0"/>
</linearGradient>
<linearGradient id="paint12_linear" x1="965.879" y1="308.105" x2="965.879" y2="521.524" gradientUnits="userSpaceOnUse">
<stop stop-color="#FFCD6B"/>
<stop offset="1" stop-color="#FFCD6B" stop-opacity="0"/>
</linearGradient>
<linearGradient id="paint13_linear" x1="965.621" y1="311.75" x2="965.621" y2="524.825" gradientUnits="userSpaceOnUse">
<stop stop-color="#FFCD6B"/>
<stop offset="1" stop-color="#FFCD6B" stop-opacity="0"/>
</linearGradient>
<linearGradient id="paint14_linear" x1="965.361" y1="315.396" x2="965.361" y2="528.126" gradientUnits="userSpaceOnUse">
<stop stop-color="#FFCD6B"/>
<stop offset="1" stop-color="#FFCD6B" stop-opacity="0"/>
</linearGradient>
<linearGradient id="paint15_linear" x1="965.103" y1="319.042" x2="965.103" y2="531.427" gradientUnits="userSpaceOnUse">
<stop stop-color="#FFCD6B"/>
<stop offset="1" stop-color="#FFCD6B" stop-opacity="0"/>
</linearGradient>
<linearGradient id="paint16_linear" x1="964.842" y1="322.688" x2="964.842" y2="534.728" gradientUnits="userSpaceOnUse">
<stop stop-color="#FFCD6B"/>
<stop offset="1" stop-color="#FFCD6B" stop-opacity="0"/>
</linearGradient>
<linearGradient id="paint17_linear" x1="964.584" y1="326.334" x2="964.584" y2="538.028" gradientUnits="userSpaceOnUse">
<stop stop-color="#FFCD6B"/>
<stop offset="1" stop-color="#FFCD6B" stop-opacity="0"/>
</linearGradient>
<linearGradient id="paint18_linear" x1="964.324" y1="329.98" x2="964.324" y2="541.329" gradientUnits="userSpaceOnUse">
<stop stop-color="#FFCD6B"/>
<stop offset="1" stop-color="#FFCD6B" stop-opacity="0"/>
</linearGradient>
<linearGradient id="paint19_linear" x1="964.065" y1="333.626" x2="964.065" y2="544.63" gradientUnits="userSpaceOnUse">
<stop stop-color="#FFCD6B"/>
<stop offset="1" stop-color="#FFCD6B" stop-opacity="0"/>
</linearGradient>
<linearGradient id="paint20_linear" x1="963.805" y1="337.272" x2="963.805" y2="547.931" gradientUnits="userSpaceOnUse">
<stop stop-color="#FFCD6B"/>
<stop offset="1" stop-color="#FFCD6B" stop-opacity="0"/>
</linearGradient>
<linearGradient id="paint21_linear" x1="963.547" y1="340.918" x2="963.547" y2="551.232" gradientUnits="userSpaceOnUse">
<stop stop-color="#FFCD6B"/>
<stop offset="1" stop-color="#FFCD6B" stop-opacity="0"/>
</linearGradient>
<linearGradient id="paint22_linear" x1="963.286" y1="344.563" x2="963.286" y2="554.532" gradientUnits="userSpaceOnUse">
<stop stop-color="#FFCD6B"/>
<stop offset="1" stop-color="#FFCD6B" stop-opacity="0"/>
</linearGradient>
<linearGradient id="paint23_linear" x1="963.028" y1="348.209" x2="963.028" y2="557.833" gradientUnits="userSpaceOnUse">
<stop stop-color="#FFCD6B"/>
<stop offset="1" stop-color="#FFCD6B" stop-opacity="0"/>
</linearGradient>
<linearGradient id="paint24_linear" x1="962.768" y1="351.855" x2="962.768" y2="561.134" gradientUnits="userSpaceOnUse">
<stop stop-color="#FFCD6B"/>
<stop offset="1" stop-color="#FFCD6B" stop-opacity="0"/>
</linearGradient>
<linearGradient id="paint25_linear" x1="962.508" y1="355.501" x2="962.508" y2="564.435" gradientUnits="userSpaceOnUse">
<stop stop-color="#FFCD6B"/>
<stop offset="1" stop-color="#FFCD6B" stop-opacity="0"/>
</linearGradient>
<linearGradient id="paint26_linear" x1="962.249" y1="359.147" x2="962.249" y2="567.736" gradientUnits="userSpaceOnUse">
<stop stop-color="#FFCD6B"/>
<stop offset="1" stop-color="#FFCD6B" stop-opacity="0"/>
</linearGradient>
<linearGradient id="paint27_linear" x1="961.989" y1="362.793" x2="961.989" y2="571.037" gradientUnits="userSpaceOnUse">
<stop stop-color="#FFCD6B"/>
<stop offset="1" stop-color="#FFCD6B" stop-opacity="0"/>
</linearGradient>
<linearGradient id="paint28_linear" x1="961.731" y1="366.439" x2="961.731" y2="574.35" gradientUnits="userSpaceOnUse">
<stop stop-color="#FFCD6B"/>
<stop offset="1" stop-color="#FFCD6B" stop-opacity="0"/>
</linearGradient>
<linearGradient id="paint29_linear" x1="961.47" y1="370.084" x2="961.47" y2="577.736" gradientUnits="userSpaceOnUse">
<stop stop-color="#FFCD6B"/>
<stop offset="1" stop-color="#FFCD6B" stop-opacity="0"/>
</linearGradient>
<linearGradient id="paint30_linear" x1="961.212" y1="373.73" x2="961.212" y2="581.199" gradientUnits="userSpaceOnUse">
<stop stop-color="#FFCD6B"/>
<stop offset="1" stop-color="#FFCD6B" stop-opacity="0"/>
</linearGradient>
<linearGradient id="paint31_linear" x1="960.952" y1="377.376" x2="960.952" y2="584.733" gradientUnits="userSpaceOnUse">
<stop stop-color="#FFCD6B"/>
<stop offset="1" stop-color="#FFCD6B" stop-opacity="0"/>
</linearGradient>
<linearGradient id="paint32_linear" x1="960.693" y1="381.022" x2="960.693" y2="588.332" gradientUnits="userSpaceOnUse">
<stop stop-color="#FFCD6B"/>
<stop offset="1" stop-color="#FFCD6B" stop-opacity="0"/>
</linearGradient>
<linearGradient id="paint33_linear" x1="960.433" y1="384.668" x2="960.433" y2="591.992" gradientUnits="userSpaceOnUse">
<stop stop-color="#FFCD6B"/>
<stop offset="1" stop-color="#FFCD6B" stop-opacity="0"/>
</linearGradient>
<linearGradient id="paint34_linear" x1="960.175" y1="388.314" x2="960.175" y2="595.708" gradientUnits="userSpaceOnUse">
<stop stop-color="#FFCD6B"/>
<stop offset="1" stop-color="#FFCD6B" stop-opacity="0"/>
</linearGradient>
<linearGradient id="paint35_linear" x1="959.915" y1="391.96" x2="959.915" y2="599.476" gradientUnits="userSpaceOnUse">
<stop stop-color="#FFCD6B"/>
<stop offset="1" stop-color="#FFCD6B" stop-opacity="0"/>
</linearGradient>
<linearGradient id="paint36_linear" x1="959.656" y1="395.606" x2="959.656" y2="603.293" gradientUnits="userSpaceOnUse">
<stop stop-color="#FFCD6B"/>
<stop offset="1" stop-color="#FFCD6B" stop-opacity="0"/>
</linearGradient>
<linearGradient id="paint37_linear" x1="959.396" y1="399.252" x2="959.396" y2="607.155" gradientUnits="userSpaceOnUse">
<stop stop-color="#FFCD6B"/>
<stop offset="1" stop-color="#FFCD6B" stop-opacity="0"/>
</linearGradient>
<linearGradient id="paint38_linear" x1="959.138" y1="402.897" x2="959.138" y2="611.06" gradientUnits="userSpaceOnUse">
<stop stop-color="#FFCD6B"/>
<stop offset="1" stop-color="#FFCD6B" stop-opacity="0"/>
</linearGradient>
<linearGradient id="paint39_linear" x1="958.877" y1="406.543" x2="958.877" y2="615.005" gradientUnits="userSpaceOnUse">
<stop stop-color="#FFCD6B"/>
<stop offset="1" stop-color="#FFCD6B" stop-opacity="0"/>
</linearGradient>
<linearGradient id="paint40_linear" x1="958.619" y1="410.189" x2="958.619" y2="618.987" gradientUnits="userSpaceOnUse">
<stop stop-color="#FFCD6B"/>
<stop offset="1" stop-color="#FFCD6B" stop-opacity="0"/>
</linearGradient>
<linearGradient id="paint41_linear" x1="958.359" y1="413.835" x2="958.359" y2="623.004" gradientUnits="userSpaceOnUse">
<stop stop-color="#FFCD6B"/>
<stop offset="1" stop-color="#FFCD6B" stop-opacity="0"/>
</linearGradient>
<linearGradient id="paint42_linear" x1="958.1" y1="417.481" x2="958.1" y2="627.054" gradientUnits="userSpaceOnUse">
<stop stop-color="#FFCD6B"/>
<stop offset="1" stop-color="#FFCD6B" stop-opacity="0"/>
</linearGradient>
<linearGradient id="paint43_linear" x1="957.84" y1="421.127" x2="957.84" y2="631.135" gradientUnits="userSpaceOnUse">
<stop stop-color="#FFCD6B"/>
<stop offset="1" stop-color="#FFCD6B" stop-opacity="0"/>
</linearGradient>
<linearGradient id="paint44_linear" x1="957.582" y1="424.772" x2="957.582" y2="635.245" gradientUnits="userSpaceOnUse">
<stop stop-color="#FFCD6B"/>
<stop offset="1" stop-color="#FFCD6B" stop-opacity="0"/>
</linearGradient>
<linearGradient id="paint45_linear" x1="957.322" y1="428.418" x2="957.322" y2="639.382" gradientUnits="userSpaceOnUse">
<stop stop-color="#FFCD6B"/>
<stop offset="1" stop-color="#FFCD6B" stop-opacity="0"/>
</linearGradient>
<linearGradient id="paint46_linear" x1="957.063" y1="432.064" x2="957.063" y2="643.546" gradientUnits="userSpaceOnUse">
<stop stop-color="#FFCD6B"/>
<stop offset="1" stop-color="#FFCD6B" stop-opacity="0"/>
</linearGradient>
<linearGradient id="paint47_linear" x1="956.803" y1="435.71" x2="956.803" y2="647.734" gradientUnits="userSpaceOnUse">
<stop stop-color="#FFCD6B"/>
<stop offset="1" stop-color="#FFCD6B" stop-opacity="0"/>
</linearGradient>
<linearGradient id="paint48_linear" x1="956.543" y1="439.356" x2="956.543" y2="651.946" gradientUnits="userSpaceOnUse">
<stop stop-color="#FFCD6B"/>
<stop offset="1" stop-color="#FFCD6B" stop-opacity="0"/>
</linearGradient>
<linearGradient id="paint49_linear" x1="956.284" y1="443.002" x2="956.284" y2="656.179" gradientUnits="userSpaceOnUse">
<stop stop-color="#FFCD6B"/>
<stop offset="1" stop-color="#FFCD6B" stop-opacity="0"/>
</linearGradient>
<linearGradient id="paint50_linear" x1="956.024" y1="446.648" x2="956.024" y2="660.433" gradientUnits="userSpaceOnUse">
<stop stop-color="#FFCD6B"/>
<stop offset="1" stop-color="#FFCD6B" stop-opacity="0"/>
</linearGradient>
<linearGradient id="paint51_linear" x1="955.766" y1="450.294" x2="955.766" y2="664.707" gradientUnits="userSpaceOnUse">
<stop stop-color="#FFCD6B"/>
<stop offset="1" stop-color="#FFCD6B" stop-opacity="0"/>
</linearGradient>
</defs>
</svg>
