<svg width="768" height="892" viewBox="0 0 768 892" fill="none" xmlns="http://www.w3.org/2000/svg">
<mask id="mask0" mask-type="alpha" maskUnits="userSpaceOnUse" x="-119" y="0" width="1000" height="892">
<path d="M-119 0H-84.7623H881V892H-119V0Z" fill="#EDEDEE"/>
</mask>
<g mask="url(#mask0)">
<path opacity="0.2" d="M880.788 96.4855C824.084 -16.2253 525.32 -52.7867 525.32 104.695C525.32 150.524 735.333 445.704 683.034 539.792C630.736 633.88 499.796 372.208 480.753 488.856C461.709 605.503 573.91 703.98 460.221 791.441C346.531 878.903 153.101 619.353 15.6015 709.348C-34.6972 742.269 -49.7643 846.211 -125.415 852.384C-245.519 862.184 -323.893 716.637 -446.881 702.085C-520.617 693.361 -532.119 808.41 -595.527 791.441C-720.717 757.938 -847.039 663.798 -959.001 588.101" stroke="url(#paint0_linear)" stroke-linecap="round" stroke-linejoin="round"/>
<path opacity="0.2" d="M1078 329.173C1021.3 216.462 722.532 179.901 722.532 337.382C722.532 383.211 932.545 678.391 880.246 772.479C827.948 866.568 649.781 655.832 630.738 772.479C611.695 889.127 653.449 958.289 539.76 1045.75C426.071 1133.21 384.169 799.129 246.67 889.124C196.371 922.045 72.8127 1017.96 -2.83811 1024.13C-122.942 1033.93 -122.821 903.675 -245.809 889.124C-319.545 880.4 -362.177 1008.58 -425.585 991.608C-550.775 958.105 -846.96 663.813 -958.922 588.117" stroke="url(#paint1_linear)" stroke-linecap="round" stroke-linejoin="round"/>
<path opacity="0.2" d="M890.18 107.566C833.475 -5.14475 534.711 -41.7061 534.711 115.775C534.711 161.605 744.725 456.785 692.426 550.873C640.127 644.961 506.939 385.714 487.895 502.362C468.852 619.009 577.698 716.09 464.009 803.551C350.32 891.013 164.105 627.914 26.6054 717.908C-23.6933 750.829 -43.9266 854.39 -119.577 860.563C-239.681 870.363 -314.318 725.543 -437.305 710.992C-511.042 702.268 -524.026 817.942 -587.433 800.973C-712.624 767.47 -847.034 663.798 -958.996 588.102" stroke="url(#paint2_linear)"/>
<path opacity="0.2" d="M899.574 118.646C842.87 5.93533 544.106 -30.626 544.106 126.855C544.106 172.685 754.119 467.864 701.821 561.953C649.522 656.041 514.084 399.22 495.041 515.867C475.998 632.515 581.489 728.199 467.8 815.661C354.111 903.122 175.111 636.474 37.6119 726.469C-12.6868 759.39 -38.0864 862.568 -113.737 868.741C-233.841 878.541 -304.74 734.449 -427.727 719.898C-501.464 711.174 -515.93 827.474 -579.338 810.504C-704.528 777.001 -847.027 663.799 -958.99 588.103" stroke="url(#paint3_linear)"/>
<path opacity="0.2" d="M908.963 129.726C852.259 17.0157 553.494 -19.5457 553.494 137.936C553.494 183.765 763.508 478.945 711.209 573.033C658.911 667.121 521.224 412.726 502.181 529.373C483.137 646.021 585.274 740.309 471.585 827.771C357.896 915.232 186.112 645.035 48.6129 735.029C-1.68589 767.95 -32.2517 870.746 -107.903 876.919C-228.006 886.719 -295.167 743.356 -418.155 728.805C-491.891 720.081 -507.84 837.005 -571.248 820.036C-696.438 786.533 -847.026 663.799 -958.988 588.103" stroke="url(#paint4_linear)"/>
<path opacity="0.2" d="M918.354 140.807C861.649 28.096 562.885 -8.46539 562.885 149.016C562.885 194.845 772.898 490.025 720.6 584.113C668.301 678.202 528.366 426.231 509.322 542.879C490.279 659.527 589.061 752.419 475.372 839.881C361.683 927.342 197.115 653.596 59.6156 743.59C9.31683 776.511 -26.4153 878.924 -102.066 885.097C-222.17 894.897 -285.593 752.263 -408.581 737.711C-482.317 728.987 -499.748 846.537 -563.156 829.568C-688.346 796.065 -847.023 663.8 -958.985 588.104" stroke="url(#paint5_linear)"/>
<path opacity="0.2" d="M927.744 151.887C871.04 39.1768 572.276 2.61543 572.276 160.097C572.276 205.926 782.289 501.106 729.99 595.194C677.692 689.282 535.508 439.738 516.464 556.385C497.421 673.033 592.848 764.53 479.159 851.991C365.47 939.453 208.118 662.157 70.6185 752.151C20.3197 785.072 -20.5785 887.103 -96.2294 893.276C-216.333 903.076 -276.018 761.17 -399.006 746.618C-472.742 737.894 -491.656 856.069 -555.064 839.1C-680.254 805.597 -847.019 663.801 -958.982 588.105" stroke="url(#paint6_linear)"/>
<path opacity="0.2" d="M937.135 162.968C880.431 50.2571 581.666 13.6957 581.666 171.177C581.666 217.007 791.68 512.186 739.381 606.275C687.082 700.363 542.649 453.244 523.606 569.891C504.563 686.539 596.636 776.64 482.946 864.101C369.257 951.563 219.121 670.718 81.6214 760.712C31.3226 793.633 -14.742 895.281 -90.3929 901.454C-210.497 911.254 -266.444 770.076 -389.432 755.525C-463.168 746.801 -483.564 865.601 -546.972 848.632C-672.162 815.129 -847.016 663.802 -958.978 588.106" stroke="url(#paint7_linear)"/>
<path opacity="0.2" d="M946.525 174.048C889.821 61.3369 591.057 24.7756 591.057 182.257C591.057 228.086 801.07 523.266 748.772 617.354C696.473 711.443 549.791 466.749 530.748 583.397C511.704 700.044 600.423 788.749 486.734 876.211C373.045 963.672 230.124 679.278 92.6242 769.273C42.3254 802.194 -8.9054 903.459 -84.5563 909.632C-204.66 919.432 -256.87 778.982 -379.857 764.431C-453.593 755.707 -475.472 875.132 -538.88 858.163C-664.07 824.66 -847.013 663.802 -958.975 588.106" stroke="url(#paint8_linear)"/>
<path opacity="0.2" d="M955.918 185.128C899.214 72.4175 600.45 35.8561 600.45 193.338C600.45 239.167 810.463 534.347 758.164 628.435C705.866 722.523 556.935 480.255 537.891 596.903C518.848 713.55 604.212 800.859 490.523 888.321C376.834 975.782 241.128 687.839 103.629 777.834C53.3302 810.755 -3.06685 911.638 -78.7177 917.81C-198.822 927.611 -247.293 787.889 -370.281 773.338C-444.017 764.614 -467.378 884.664 -530.786 867.695C-655.976 834.192 -847.007 663.803 -958.97 588.107" stroke="url(#paint9_linear)"/>
<path opacity="0.2" d="M965.307 196.209C908.602 83.4978 609.838 46.9365 609.838 204.418C609.838 250.247 819.852 545.427 767.553 639.515C715.254 733.603 564.074 493.761 545.031 610.409C525.988 727.056 607.997 812.969 494.308 900.431C380.619 987.892 252.129 696.4 114.63 786.394C64.331 819.315 2.76763 919.816 -72.8832 925.989C-192.987 935.789 -237.721 796.796 -360.708 782.245C-434.445 773.521 -459.288 894.196 -522.696 877.227C-647.886 843.724 -847.006 663.804 -958.968 588.108" stroke="url(#paint10_linear)"/>
<path opacity="0.2" d="M974.699 207.289C917.995 94.5781 619.231 58.0168 619.231 215.498C619.231 261.328 829.244 556.507 776.946 650.596C724.647 744.684 571.218 507.267 552.175 623.915C533.131 740.562 611.786 825.079 498.097 912.541C384.408 1000 263.134 704.96 125.635 794.955C75.3358 827.876 8.60619 927.994 -67.0447 934.167C-187.149 943.967 -228.144 805.702 -351.132 791.151C-424.868 782.427 -451.194 903.728 -514.602 886.759C-639.792 853.256 -847.001 663.805 -958.963 588.109" stroke="url(#paint11_linear)"/>
<path opacity="0.2" d="M984.092 218.369C927.388 105.659 628.623 69.0974 628.623 226.579C628.623 272.408 838.637 567.588 786.338 661.676C734.04 755.764 578.362 520.773 559.319 637.421C540.275 754.068 615.575 837.189 501.886 924.651C388.197 1012.11 274.139 713.521 136.639 803.516C86.3407 836.437 14.4448 936.173 -61.2061 942.346C-181.31 952.146 -218.568 814.609 -341.555 800.058C-415.292 791.334 -443.1 913.26 -506.508 896.29C-631.698 862.787 -846.996 663.806 -958.958 588.11" stroke="url(#paint12_linear)"/>
<path opacity="0.2" d="M993.477 229.449C936.772 116.739 638.008 80.1772 638.008 237.659C638.008 283.488 848.022 578.668 795.723 672.756C743.424 766.844 585.498 534.278 566.454 650.926C547.411 767.574 619.357 849.299 505.668 936.76C391.978 1024.22 285.136 722.082 147.636 812.076C97.3376 844.997 20.2755 944.35 -55.3753 950.523C-175.479 960.323 -208.999 823.515 -331.987 808.964C-405.723 800.24 -435.014 922.791 -498.422 905.822C-623.612 872.319 -846.998 663.806 -958.96 588.11" stroke="url(#paint13_linear)"/>
<path opacity="0.2" d="M1002.87 240.53C946.165 127.819 647.401 91.2577 647.401 248.739C647.401 294.569 857.414 589.748 805.115 683.837C752.817 777.925 592.641 547.785 573.598 664.432C554.555 781.08 623.146 861.409 509.457 948.871C395.768 1036.33 296.141 730.643 158.641 820.638C108.342 853.559 26.114 952.529 -49.5368 958.702C-169.641 968.502 -199.423 832.422 -322.41 817.871C-396.147 809.147 -426.92 932.323 -490.328 915.354C-615.518 881.851 -846.993 663.807 -958.955 588.111" stroke="url(#paint14_linear)"/>
<path opacity="0.2" d="M1012.26 251.61C955.556 138.9 656.791 102.338 656.791 259.82C656.791 305.649 866.805 600.829 814.506 694.917C762.208 789.005 599.783 561.291 580.74 677.938C561.697 794.586 626.933 873.519 513.244 960.981C399.555 1048.44 307.144 739.204 169.644 829.198C119.345 862.119 31.9507 960.707 -43.7001 966.88C-163.804 976.68 -189.848 841.329 -312.836 826.778C-386.572 818.053 -418.828 941.855 -482.235 924.886C-607.426 891.382 -846.989 663.808 -958.952 588.112" stroke="url(#paint15_linear)"/>
<path opacity="0.2" d="M1021.65 262.691C964.95 149.98 666.186 113.419 666.186 270.9C666.186 316.729 876.199 611.909 823.901 705.997C771.602 800.086 606.929 574.796 587.885 691.444C568.842 808.092 630.724 885.629 517.035 973.091C403.346 1060.55 318.15 747.764 180.651 837.759C130.352 870.68 37.7912 968.886 -37.8596 975.059C-157.964 984.859 -180.27 850.235 -303.257 835.684C-376.994 826.96 -410.732 951.386 -474.139 934.417C-599.33 900.914 -846.982 663.809 -958.944 588.112" stroke="url(#paint16_linear)"/>
<path opacity="0.2" d="M1031.04 273.771C974.341 161.06 675.576 124.499 675.576 281.98C675.576 327.81 885.59 622.989 833.291 717.078C780.993 811.166 614.07 588.302 595.027 704.95C575.984 821.597 634.511 897.739 520.822 985.2C407.133 1072.66 329.153 756.325 191.654 846.32C141.355 879.241 43.6276 977.064 -32.0233 983.237C-152.127 993.037 -170.696 859.142 -293.683 844.591C-367.42 835.867 -402.64 960.918 -466.048 943.949C-591.238 910.446 -846.979 663.809 -958.941 588.113" stroke="url(#paint17_linear)"/>
<path opacity="0.2" d="M1040.44 284.851C983.731 172.141 684.967 135.579 684.967 293.061C684.967 338.89 894.981 634.07 842.682 728.158C790.383 822.246 621.212 601.808 602.169 718.456C583.126 835.104 638.298 909.849 524.609 997.311C410.92 1084.77 340.156 764.886 202.657 854.881C152.358 887.802 49.4644 985.243 -26.1865 991.415C-146.29 1001.22 -161.121 868.049 -284.109 853.498C-357.845 844.773 -394.548 970.45 -457.955 953.481C-583.146 919.978 -846.975 663.81 -958.938 588.114" stroke="url(#paint18_linear)"/>
<path opacity="0.2" d="M1049.83 295.931C993.122 183.221 694.358 146.659 694.358 304.141C694.358 349.97 904.371 645.15 852.073 739.238C799.774 833.326 628.354 615.314 609.311 731.961C590.267 848.609 642.086 921.959 528.396 1009.42C414.707 1096.88 351.159 773.446 213.659 863.441C163.36 896.362 55.3008 993.42 -20.35 999.593C-140.454 1009.39 -151.547 876.955 -274.534 862.404C-348.27 853.68 -386.456 979.981 -449.864 963.012C-575.054 929.509 -846.972 663.811 -958.935 588.114" stroke="url(#paint19_linear)"/>
<path opacity="0.2" d="M1059.22 307.012C1002.51 194.301 703.75 157.74 703.75 315.221C703.75 361.051 913.764 656.23 861.465 750.319C809.166 844.407 635.498 628.82 616.454 745.468C597.411 862.115 645.875 934.069 532.186 1021.53C418.496 1108.99 362.163 782.007 224.664 872.002C174.365 904.923 61.1393 1001.6 -14.5116 1007.77C-134.616 1017.57 -141.971 885.862 -264.958 871.31C-338.694 862.586 -378.362 989.513 -441.77 972.544C-566.96 939.041 -846.967 663.812 -958.93 588.115" stroke="url(#paint20_linear)"/>
<path opacity="0.2" d="M1068.61 318.092C1011.9 205.381 713.139 168.82 713.139 326.301C713.139 372.131 923.152 667.311 870.854 761.399C818.555 855.487 642.637 642.326 623.594 758.973C604.551 875.621 649.66 946.179 535.971 1033.64C422.282 1121.1 373.164 790.568 235.665 880.563C185.366 913.484 66.9738 1009.78 -8.67702 1015.95C-128.781 1025.75 -132.398 894.768 -255.386 880.217C-329.122 871.493 -370.272 999.045 -433.68 982.076C-558.87 948.573 -846.966 663.812 -958.928 588.116" stroke="url(#paint21_linear)"/>
</g>
<defs>
<linearGradient id="paint0_linear" x1="-39.1064" y1="-1.00879" x2="-39.1064" y2="852.857" gradientUnits="userSpaceOnUse">
<stop stop-color="#FFCD6B" stop-opacity="0.24"/>
<stop offset="1" stop-color="#FFCD6B"/>
</linearGradient>
<linearGradient id="paint1_linear" x1="59.5389" y1="231.678" x2="59.5389" y2="1060.49" gradientUnits="userSpaceOnUse">
<stop stop-color="#FFCD6B" stop-opacity="0.24"/>
<stop offset="1" stop-color="#FFCD6B"/>
</linearGradient>
<linearGradient id="paint2_linear" x1="-34.4084" y1="10.0718" x2="-34.4084" y2="861.038" gradientUnits="userSpaceOnUse">
<stop stop-color="#FFCD6B" stop-opacity="0.24"/>
<stop offset="1" stop-color="#FFCD6B"/>
</linearGradient>
<linearGradient id="paint3_linear" x1="-29.7078" y1="21.1519" x2="-29.7078" y2="869.218" gradientUnits="userSpaceOnUse">
<stop stop-color="#FFCD6B" stop-opacity="0.24"/>
<stop offset="1" stop-color="#FFCD6B"/>
</linearGradient>
<linearGradient id="paint4_linear" x1="-25.0127" y1="32.2322" x2="-25.0127" y2="877.399" gradientUnits="userSpaceOnUse">
<stop stop-color="#FFCD6B" stop-opacity="0.24"/>
<stop offset="1" stop-color="#FFCD6B"/>
</linearGradient>
<linearGradient id="paint5_linear" x1="-20.3158" y1="43.3125" x2="-20.3158" y2="885.58" gradientUnits="userSpaceOnUse">
<stop stop-color="#FFCD6B" stop-opacity="0.24"/>
<stop offset="1" stop-color="#FFCD6B"/>
</linearGradient>
<linearGradient id="paint6_linear" x1="-15.6187" y1="54.3933" x2="-15.6187" y2="893.76" gradientUnits="userSpaceOnUse">
<stop stop-color="#FFCD6B" stop-opacity="0.24"/>
<stop offset="1" stop-color="#FFCD6B"/>
</linearGradient>
<linearGradient id="paint7_linear" x1="-10.9218" y1="65.4736" x2="-10.9218" y2="901.941" gradientUnits="userSpaceOnUse">
<stop stop-color="#FFCD6B" stop-opacity="0.24"/>
<stop offset="1" stop-color="#FFCD6B"/>
</linearGradient>
<linearGradient id="paint8_linear" x1="-6.22479" y1="76.5535" x2="-6.22479" y2="910.122" gradientUnits="userSpaceOnUse">
<stop stop-color="#FFCD6B" stop-opacity="0.24"/>
<stop offset="1" stop-color="#FFCD6B"/>
</linearGradient>
<linearGradient id="paint9_linear" x1="-1.52588" y1="87.634" x2="-1.52588" y2="918.302" gradientUnits="userSpaceOnUse">
<stop stop-color="#FFCD6B" stop-opacity="0.24"/>
<stop offset="1" stop-color="#FFCD6B"/>
</linearGradient>
<linearGradient id="paint10_linear" x1="3.16913" y1="98.7144" x2="3.16913" y2="926.483" gradientUnits="userSpaceOnUse">
<stop stop-color="#FFCD6B" stop-opacity="0.24"/>
<stop offset="1" stop-color="#FFCD6B"/>
</linearGradient>
<linearGradient id="paint11_linear" x1="7.86798" y1="109.795" x2="7.86798" y2="934.664" gradientUnits="userSpaceOnUse">
<stop stop-color="#FFCD6B" stop-opacity="0.24"/>
<stop offset="1" stop-color="#FFCD6B"/>
</linearGradient>
<linearGradient id="paint12_linear" x1="12.567" y1="120.875" x2="12.567" y2="942.845" gradientUnits="userSpaceOnUse">
<stop stop-color="#FFCD6B" stop-opacity="0.24"/>
<stop offset="1" stop-color="#FFCD6B"/>
</linearGradient>
<linearGradient id="paint13_linear" x1="17.2581" y1="131.955" x2="17.2581" y2="952.836" gradientUnits="userSpaceOnUse">
<stop stop-color="#FFCD6B" stop-opacity="0.24"/>
<stop offset="1" stop-color="#FFCD6B"/>
</linearGradient>
<linearGradient id="paint14_linear" x1="21.957" y1="143.036" x2="21.957" y2="964.786" gradientUnits="userSpaceOnUse">
<stop stop-color="#FFCD6B" stop-opacity="0.24"/>
<stop offset="1" stop-color="#FFCD6B"/>
</linearGradient>
<linearGradient id="paint15_linear" x1="26.6541" y1="154.116" x2="26.6541" y2="976.739" gradientUnits="userSpaceOnUse">
<stop stop-color="#FFCD6B" stop-opacity="0.24"/>
<stop offset="1" stop-color="#FFCD6B"/>
</linearGradient>
<linearGradient id="paint16_linear" x1="31.355" y1="165.197" x2="31.355" y2="988.695" gradientUnits="userSpaceOnUse">
<stop stop-color="#FFCD6B" stop-opacity="0.24"/>
<stop offset="1" stop-color="#FFCD6B"/>
</linearGradient>
<linearGradient id="paint17_linear" x1="36.0518" y1="176.277" x2="36.0518" y2="1000.65" gradientUnits="userSpaceOnUse">
<stop stop-color="#FFCD6B" stop-opacity="0.24"/>
<stop offset="1" stop-color="#FFCD6B"/>
</linearGradient>
<linearGradient id="paint18_linear" x1="40.7489" y1="187.357" x2="40.7489" y2="1012.62" gradientUnits="userSpaceOnUse">
<stop stop-color="#FFCD6B" stop-opacity="0.24"/>
<stop offset="1" stop-color="#FFCD6B"/>
</linearGradient>
<linearGradient id="paint19_linear" x1="45.4457" y1="198.437" x2="45.4457" y2="1024.58" gradientUnits="userSpaceOnUse">
<stop stop-color="#FFCD6B" stop-opacity="0.24"/>
<stop offset="1" stop-color="#FFCD6B"/>
</linearGradient>
<linearGradient id="paint20_linear" x1="50.1447" y1="209.518" x2="50.1447" y2="1036.55" gradientUnits="userSpaceOnUse">
<stop stop-color="#FFCD6B" stop-opacity="0.24"/>
<stop offset="1" stop-color="#FFCD6B"/>
</linearGradient>
<linearGradient id="paint21_linear" x1="54.8396" y1="220.598" x2="54.8396" y2="1048.52" gradientUnits="userSpaceOnUse">
<stop stop-color="#FFCD6B" stop-opacity="0.24"/>
<stop offset="1" stop-color="#FFCD6B"/>
</linearGradient>
</defs>
</svg>
