<svg width="1920" height="900" viewBox="0 0 1920 900" fill="none" xmlns="http://www.w3.org/2000/svg">
<mask id="mask0" mask-type="alpha" maskUnits="userSpaceOnUse" x="0" y="0" width="1920" height="900">
<path d="M0 0H840.125H1920V900H0V0Z" fill="#EDEDEE"/>
</mask>
<g mask="url(#mask0)">
<path opacity="0.2" d="M2032.79 97.3667C1976.08 -16.3527 1677.32 -53.2412 1677.32 105.65C1677.32 151.889 1887.33 449.71 1835.03 544.64C1782.73 639.571 1651.8 375.557 1632.75 493.248C1613.71 610.94 1725.91 710.297 1612.22 798.541C1498.53 886.786 1305.1 624.913 1167.6 715.713C1117.3 748.929 1102.23 853.802 1026.58 860.03C906.48 869.918 828.106 723.067 705.118 708.386C631.382 699.584 619.88 815.662 556.472 798.541C431.282 764.738 304.96 669.755 192.998 593.382" stroke="url(#paint0_linear)" stroke-linecap="round" stroke-linejoin="round"/>
<path opacity="0.2" d="M2230 332.136C2173.3 218.417 1874.53 181.528 1874.53 340.419C1874.53 386.658 2084.54 684.479 2032.25 779.41C1979.95 874.34 1801.78 661.718 1782.74 779.41C1763.69 897.101 1805.45 966.882 1691.76 1055.13C1578.07 1143.37 1536.17 806.298 1398.67 897.098C1348.37 930.313 1224.81 1027.08 1149.16 1033.31C1029.06 1043.2 1029.18 911.779 906.191 897.098C832.455 888.296 789.823 1017.62 726.415 1000.5C601.225 966.696 305.04 669.771 193.078 593.397" stroke="url(#paint1_linear)" stroke-linecap="round" stroke-linejoin="round"/>
<path opacity="0.2" d="M2042.18 108.546C1985.48 -5.17313 1686.71 -42.0617 1686.71 116.829C1686.71 163.069 1896.72 460.89 1844.43 555.82C1792.13 650.75 1658.94 389.183 1639.9 506.875C1620.85 624.566 1729.7 722.515 1616.01 810.76C1502.32 899.004 1316.1 633.55 1178.61 724.35C1128.31 757.566 1108.07 862.053 1032.42 868.281C912.319 878.169 837.682 732.054 714.695 717.372C640.958 708.57 627.974 825.279 564.567 808.158C439.376 774.356 304.966 669.756 193.004 593.383" stroke="url(#paint2_linear)"/>
<path opacity="0.2" d="M2051.57 119.725C1994.87 6.00607 1696.11 -30.8825 1696.11 128.008C1696.11 174.248 1906.12 472.069 1853.82 566.999C1801.52 661.929 1666.08 402.81 1647.04 520.501C1628 638.193 1733.49 734.733 1619.8 822.978C1506.11 911.222 1327.11 642.187 1189.61 732.987C1139.31 766.203 1113.91 870.304 1038.26 876.532C918.159 886.42 847.26 741.039 724.273 726.358C650.536 717.556 636.07 834.896 572.662 817.775C447.472 783.972 304.973 669.756 193.01 593.383" stroke="url(#paint3_linear)"/>
<path opacity="0.2" d="M2060.96 130.905C2004.26 17.1857 1705.49 -19.7029 1705.49 139.188C1705.49 185.427 1915.51 483.248 1863.21 578.179C1810.91 673.109 1673.22 416.437 1654.18 534.128C1635.14 651.819 1737.27 746.952 1623.58 835.196C1509.9 923.44 1338.11 650.825 1200.61 741.625C1150.31 774.84 1119.75 878.556 1044.1 884.784C923.994 894.671 856.833 750.026 733.845 735.344C660.109 726.542 644.16 844.513 580.752 827.392C455.562 793.589 304.974 669.757 193.012 593.384" stroke="url(#paint4_linear)"/>
<path opacity="0.2" d="M2070.35 142.084C2013.65 28.3651 1714.89 -8.5234 1714.89 150.367C1714.89 196.607 1924.9 494.428 1872.6 589.358C1820.3 684.288 1680.37 430.063 1661.32 547.755C1642.28 665.446 1741.06 759.17 1627.37 847.414C1513.68 935.659 1349.12 659.462 1211.62 750.262C1161.32 783.478 1125.58 886.807 1049.93 893.035C929.83 902.923 866.407 759.012 743.419 744.331C669.683 735.528 652.252 854.13 588.844 837.009C463.654 803.206 304.977 669.758 193.015 593.385" stroke="url(#paint5_linear)"/>
<path opacity="0.2" d="M2079.74 153.264C2023.04 39.5449 1724.28 2.65637 1724.28 161.547C1724.28 207.786 1934.29 505.608 1881.99 600.538C1829.69 695.468 1687.51 443.69 1668.46 561.382C1649.42 679.073 1744.85 771.388 1631.16 859.633C1517.47 947.877 1360.12 668.1 1222.62 758.9C1172.32 792.115 1131.42 895.059 1055.77 901.287C935.667 911.175 875.982 767.998 752.994 753.317C679.258 744.515 660.344 863.747 596.936 846.626C471.746 812.823 304.981 669.759 193.018 593.385" stroke="url(#paint6_linear)"/>
<path opacity="0.2" d="M2089.13 164.444C2032.43 50.7244 1733.67 13.8359 1733.67 172.727C1733.67 218.966 1943.68 516.787 1891.38 611.717C1839.08 706.648 1694.65 457.317 1675.61 575.009C1656.56 692.7 1748.64 783.607 1634.95 871.851C1521.26 960.096 1371.12 676.737 1233.62 767.537C1183.32 800.753 1137.26 903.311 1061.61 909.539C941.503 919.426 885.556 776.985 762.568 762.304C688.832 753.501 668.436 873.365 605.028 856.244C479.838 822.441 304.984 669.76 193.022 593.386" stroke="url(#paint7_linear)"/>
<path opacity="0.2" d="M2098.53 175.623C2041.82 61.9037 1743.06 25.0152 1743.06 183.906C1743.06 230.145 1953.07 527.967 1900.77 622.897C1848.47 717.827 1701.79 470.944 1682.75 588.635C1663.7 706.327 1752.42 795.825 1638.73 884.07C1525.04 972.314 1382.12 685.374 1244.62 776.175C1194.33 809.39 1143.09 911.562 1067.44 917.79C947.34 927.678 895.13 785.971 772.143 771.29C698.407 762.488 676.528 882.981 613.12 865.861C487.93 832.058 304.987 669.761 193.025 593.387" stroke="url(#paint8_linear)"/>
<path opacity="0.2" d="M2107.92 186.802C2051.21 73.0832 1752.45 36.1946 1752.45 195.085C1752.45 241.325 1962.46 539.146 1910.16 634.076C1857.87 729.006 1708.93 484.57 1689.89 602.262C1670.85 719.953 1756.21 808.043 1642.52 896.288C1528.83 984.532 1393.13 694.012 1255.63 784.812C1205.33 818.027 1148.93 919.813 1073.28 926.041C953.178 935.929 904.707 794.957 781.719 780.276C707.983 771.474 684.622 892.598 621.214 875.477C496.024 841.674 304.993 669.761 193.03 593.388" stroke="url(#paint9_linear)"/>
<path opacity="0.2" d="M2117.31 197.982C2060.6 84.2628 1761.84 47.3742 1761.84 206.265C1761.84 252.504 1971.85 550.326 1919.55 645.256C1867.25 740.186 1716.07 498.197 1697.03 615.889C1677.99 733.58 1760 820.262 1646.31 908.506C1532.62 996.751 1404.13 702.649 1266.63 793.449C1216.33 826.665 1154.77 928.065 1079.12 934.293C959.013 944.181 914.279 803.944 791.292 789.262C717.555 780.46 692.712 902.216 629.304 885.095C504.114 851.292 304.994 669.762 193.032 593.389" stroke="url(#paint10_linear)"/>
<path opacity="0.2" d="M2126.7 209.162C2069.99 95.4422 1771.23 58.5537 1771.23 217.444C1771.23 263.684 1981.24 561.505 1928.95 656.435C1876.65 751.365 1723.22 511.824 1704.17 629.515C1685.13 747.207 1763.79 832.48 1650.1 920.724C1536.41 1008.97 1415.13 711.287 1277.63 802.087C1227.34 835.302 1160.61 936.316 1084.96 942.544C964.851 952.432 923.856 812.93 800.868 798.249C727.132 789.446 700.806 911.833 637.398 894.712C512.208 860.909 304.999 669.763 193.037 593.389" stroke="url(#paint11_linear)"/>
<path opacity="0.2" d="M2136.09 220.341C2079.39 106.622 1780.62 69.7333 1780.62 228.624C1780.62 274.863 1990.64 572.685 1938.34 667.615C1886.04 762.545 1730.36 525.451 1711.32 643.142C1692.28 760.834 1767.58 844.699 1653.89 932.943C1540.2 1021.19 1426.14 719.924 1288.64 810.724C1238.34 843.94 1166.44 944.568 1090.79 950.796C970.69 960.684 933.432 821.916 810.445 807.235C736.708 798.433 708.9 921.449 645.492 904.329C520.302 870.526 305.004 669.763 193.042 593.39" stroke="url(#paint12_linear)"/>
<path opacity="0.2" d="M2145.48 231.52C2088.77 117.801 1790.01 80.9125 1790.01 239.803C1790.01 286.043 2000.02 583.864 1947.72 678.794C1895.42 773.724 1737.5 539.077 1718.45 656.769C1699.41 774.46 1771.36 856.917 1657.67 945.161C1543.98 1033.41 1437.14 728.561 1299.64 819.361C1249.34 852.577 1172.28 952.819 1096.62 959.047C976.521 968.935 943.001 830.902 820.013 816.221C746.277 807.419 716.986 931.066 653.578 913.945C528.388 880.142 305.002 669.764 193.04 593.39" stroke="url(#paint13_linear)"/>
<path opacity="0.2" d="M2154.87 242.7C2098.16 128.981 1799.4 92.0921 1799.4 250.983C1799.4 297.222 2009.41 595.044 1957.12 689.974C1904.82 784.904 1744.64 552.704 1725.6 670.396C1706.55 788.087 1775.15 869.135 1661.46 957.38C1547.77 1045.62 1448.14 737.199 1310.64 827.999C1260.34 861.214 1178.11 961.071 1102.46 967.299C982.359 977.187 952.577 839.889 829.59 825.207C755.853 816.405 725.08 940.684 661.672 923.563C536.482 889.76 305.007 669.765 193.045 593.391" stroke="url(#paint14_linear)"/>
<path opacity="0.2" d="M2164.26 253.88C2107.56 140.16 1808.79 103.272 1808.79 262.162C1808.79 308.402 2018.8 606.223 1966.51 701.153C1914.21 796.083 1751.78 566.331 1732.74 684.022C1713.7 801.714 1778.93 881.353 1665.24 969.598C1551.55 1057.84 1459.14 745.836 1321.64 836.636C1271.35 869.852 1183.95 969.322 1108.3 975.55C988.196 985.438 962.152 848.875 839.164 834.194C765.428 825.392 733.172 950.301 669.765 933.18C544.574 899.377 305.011 669.766 193.048 593.392" stroke="url(#paint15_linear)"/>
<path opacity="0.2" d="M2173.65 265.059C2116.95 151.34 1818.19 114.451 1818.19 273.342C1818.19 319.582 2028.2 617.403 1975.9 712.333C1923.6 807.263 1758.93 579.958 1739.89 697.649C1720.84 815.341 1782.72 893.572 1669.03 981.816C1555.35 1070.06 1470.15 754.474 1332.65 845.274C1282.35 878.489 1189.79 977.574 1114.14 983.802C994.036 993.69 971.73 857.862 848.743 843.18C775.006 834.378 741.268 959.918 677.861 942.797C552.67 908.994 305.018 669.767 193.056 593.393" stroke="url(#paint16_linear)"/>
<path opacity="0.2" d="M2183.04 276.239C2126.34 162.519 1827.58 125.631 1827.58 284.521C1827.58 330.761 2037.59 628.582 1985.29 723.512C1932.99 818.442 1766.07 593.585 1747.03 711.276C1727.98 828.967 1786.51 905.79 1672.82 994.034C1559.13 1082.28 1481.15 763.111 1343.65 853.911C1293.35 887.127 1195.63 985.825 1119.98 992.053C999.873 1001.94 981.304 866.848 858.317 852.166C784.58 843.364 749.36 969.535 685.952 952.414C560.762 918.611 305.021 669.767 193.059 593.394" stroke="url(#paint17_linear)"/>
<path opacity="0.2" d="M2192.44 287.418C2135.73 173.699 1836.97 136.81 1836.97 295.701C1836.97 341.941 2046.98 639.762 1994.68 734.692C1942.38 829.622 1773.21 607.212 1754.17 724.903C1735.13 842.594 1790.3 918.009 1676.61 1006.25C1562.92 1094.5 1492.16 771.749 1354.66 862.549C1304.36 895.764 1201.46 994.077 1125.81 1000.31C1005.71 1010.19 990.879 875.835 867.891 861.153C794.155 852.351 757.452 979.152 694.045 962.031C568.854 928.228 305.025 669.768 193.062 593.395" stroke="url(#paint18_linear)"/>
<path opacity="0.2" d="M2201.83 298.597C2145.12 184.878 1846.36 147.99 1846.36 306.88C1846.36 353.12 2056.37 650.941 2004.07 745.871C1951.77 840.801 1780.35 620.838 1761.31 738.529C1742.27 856.221 1794.09 930.227 1680.4 1018.47C1566.71 1106.72 1503.16 780.385 1365.66 871.185C1315.36 904.401 1207.3 1002.33 1131.65 1008.56C1011.55 1018.44 1000.45 884.82 877.466 870.139C803.73 861.337 765.544 988.769 702.136 971.648C576.946 937.845 305.028 669.769 193.065 593.395" stroke="url(#paint19_linear)"/>
<path opacity="0.2" d="M2211.22 309.777C2154.51 196.058 1855.75 159.169 1855.75 318.06C1855.75 364.299 2065.76 662.12 2013.47 757.05C1961.17 851.981 1787.5 634.465 1768.45 752.156C1749.41 869.847 1797.87 942.445 1684.19 1030.69C1570.5 1118.93 1514.16 789.023 1376.66 879.823C1326.37 913.038 1213.14 1010.58 1137.49 1016.81C1017.38 1026.7 1010.03 893.807 887.042 879.125C813.306 870.323 773.638 998.386 710.23 981.265C585.04 947.462 305.033 669.769 193.07 593.396" stroke="url(#paint20_linear)"/>
<path opacity="0.2" d="M2220.61 320.956C2163.9 207.237 1865.14 170.348 1865.14 329.239C1865.14 375.479 2075.15 673.3 2022.85 768.23C1970.56 863.16 1794.64 648.091 1775.59 765.783C1756.55 883.474 1801.66 954.663 1687.97 1042.91C1574.28 1131.15 1525.16 797.66 1387.66 888.46C1337.37 921.676 1218.97 1018.83 1143.32 1025.06C1023.22 1034.95 1019.6 902.793 896.614 888.111C822.878 879.309 781.728 1008 718.32 990.882C593.13 957.079 305.034 669.77 193.072 593.397" stroke="url(#paint21_linear)"/>
</g>
<defs>
<linearGradient id="paint0_linear" x1="1112.89" y1="-1" x2="1112.89" y2="860.507" gradientUnits="userSpaceOnUse">
<stop stop-color="#FFCD6B" stop-opacity="0.24"/>
<stop offset="1" stop-color="#FFCD6B"/>
</linearGradient>
<linearGradient id="paint1_linear" x1="1211.54" y1="233.769" x2="1211.54" y2="1070" gradientUnits="userSpaceOnUse">
<stop stop-color="#FFCD6B" stop-opacity="0.24"/>
<stop offset="1" stop-color="#FFCD6B"/>
</linearGradient>
<linearGradient id="paint2_linear" x1="1117.59" y1="10.1796" x2="1117.59" y2="868.761" gradientUnits="userSpaceOnUse">
<stop stop-color="#FFCD6B" stop-opacity="0.24"/>
<stop offset="1" stop-color="#FFCD6B"/>
</linearGradient>
<linearGradient id="paint3_linear" x1="1122.29" y1="21.3588" x2="1122.29" y2="877.014" gradientUnits="userSpaceOnUse">
<stop stop-color="#FFCD6B" stop-opacity="0.24"/>
<stop offset="1" stop-color="#FFCD6B"/>
</linearGradient>
<linearGradient id="paint4_linear" x1="1126.99" y1="32.5384" x2="1126.99" y2="885.268" gradientUnits="userSpaceOnUse">
<stop stop-color="#FFCD6B" stop-opacity="0.24"/>
<stop offset="1" stop-color="#FFCD6B"/>
</linearGradient>
<linearGradient id="paint5_linear" x1="1131.68" y1="43.7178" x2="1131.68" y2="893.522" gradientUnits="userSpaceOnUse">
<stop stop-color="#FFCD6B" stop-opacity="0.24"/>
<stop offset="1" stop-color="#FFCD6B"/>
</linearGradient>
<linearGradient id="paint6_linear" x1="1136.38" y1="54.8976" x2="1136.38" y2="901.776" gradientUnits="userSpaceOnUse">
<stop stop-color="#FFCD6B" stop-opacity="0.24"/>
<stop offset="1" stop-color="#FFCD6B"/>
</linearGradient>
<linearGradient id="paint7_linear" x1="1141.08" y1="66.0771" x2="1141.08" y2="910.03" gradientUnits="userSpaceOnUse">
<stop stop-color="#FFCD6B" stop-opacity="0.24"/>
<stop offset="1" stop-color="#FFCD6B"/>
</linearGradient>
<linearGradient id="paint8_linear" x1="1145.78" y1="77.2564" x2="1145.78" y2="918.284" gradientUnits="userSpaceOnUse">
<stop stop-color="#FFCD6B" stop-opacity="0.24"/>
<stop offset="1" stop-color="#FFCD6B"/>
</linearGradient>
<linearGradient id="paint9_linear" x1="1150.47" y1="88.4359" x2="1150.47" y2="926.537" gradientUnits="userSpaceOnUse">
<stop stop-color="#FFCD6B" stop-opacity="0.24"/>
<stop offset="1" stop-color="#FFCD6B"/>
</linearGradient>
<linearGradient id="paint10_linear" x1="1155.17" y1="99.6155" x2="1155.17" y2="934.792" gradientUnits="userSpaceOnUse">
<stop stop-color="#FFCD6B" stop-opacity="0.24"/>
<stop offset="1" stop-color="#FFCD6B"/>
</linearGradient>
<linearGradient id="paint11_linear" x1="1159.87" y1="110.795" x2="1159.87" y2="943.046" gradientUnits="userSpaceOnUse">
<stop stop-color="#FFCD6B" stop-opacity="0.24"/>
<stop offset="1" stop-color="#FFCD6B"/>
</linearGradient>
<linearGradient id="paint12_linear" x1="1164.57" y1="121.974" x2="1164.57" y2="951.3" gradientUnits="userSpaceOnUse">
<stop stop-color="#FFCD6B" stop-opacity="0.24"/>
<stop offset="1" stop-color="#FFCD6B"/>
</linearGradient>
<linearGradient id="paint13_linear" x1="1169.26" y1="133.154" x2="1169.26" y2="961.38" gradientUnits="userSpaceOnUse">
<stop stop-color="#FFCD6B" stop-opacity="0.24"/>
<stop offset="1" stop-color="#FFCD6B"/>
</linearGradient>
<linearGradient id="paint14_linear" x1="1173.96" y1="144.333" x2="1173.96" y2="973.438" gradientUnits="userSpaceOnUse">
<stop stop-color="#FFCD6B" stop-opacity="0.24"/>
<stop offset="1" stop-color="#FFCD6B"/>
</linearGradient>
<linearGradient id="paint15_linear" x1="1178.65" y1="155.513" x2="1178.65" y2="985.497" gradientUnits="userSpaceOnUse">
<stop stop-color="#FFCD6B" stop-opacity="0.24"/>
<stop offset="1" stop-color="#FFCD6B"/>
</linearGradient>
<linearGradient id="paint16_linear" x1="1183.35" y1="166.693" x2="1183.35" y2="997.561" gradientUnits="userSpaceOnUse">
<stop stop-color="#FFCD6B" stop-opacity="0.24"/>
<stop offset="1" stop-color="#FFCD6B"/>
</linearGradient>
<linearGradient id="paint17_linear" x1="1188.05" y1="177.872" x2="1188.05" y2="1009.63" gradientUnits="userSpaceOnUse">
<stop stop-color="#FFCD6B" stop-opacity="0.24"/>
<stop offset="1" stop-color="#FFCD6B"/>
</linearGradient>
<linearGradient id="paint18_linear" x1="1192.75" y1="189.052" x2="1192.75" y2="1021.7" gradientUnits="userSpaceOnUse">
<stop stop-color="#FFCD6B" stop-opacity="0.24"/>
<stop offset="1" stop-color="#FFCD6B"/>
</linearGradient>
<linearGradient id="paint19_linear" x1="1197.45" y1="200.231" x2="1197.45" y2="1033.77" gradientUnits="userSpaceOnUse">
<stop stop-color="#FFCD6B" stop-opacity="0.24"/>
<stop offset="1" stop-color="#FFCD6B"/>
</linearGradient>
<linearGradient id="paint20_linear" x1="1202.14" y1="211.41" x2="1202.14" y2="1045.84" gradientUnits="userSpaceOnUse">
<stop stop-color="#FFCD6B" stop-opacity="0.24"/>
<stop offset="1" stop-color="#FFCD6B"/>
</linearGradient>
<linearGradient id="paint21_linear" x1="1206.84" y1="222.59" x2="1206.84" y2="1057.92" gradientUnits="userSpaceOnUse">
<stop stop-color="#FFCD6B" stop-opacity="0.24"/>
<stop offset="1" stop-color="#FFCD6B"/>
</linearGradient>
</defs>
</svg>
