<svg width="1920" height="819" viewBox="0 0 1920 819" fill="none" xmlns="http://www.w3.org/2000/svg">
<mask id="mask0" mask-type="alpha" maskUnits="userSpaceOnUse" x="-2" y="0" width="1922" height="819">
<path d="M-2 818.447H839H1920V6.10352e-05H-2V818.447Z" fill="#EDEDEE"/>
</mask>
<g mask="url(#mask0)">
<path opacity="0.2" d="M2104.69 149.071C2025.25 72.3234 1606.65 47.4279 1606.65 154.661C1606.65 185.867 1900.9 386.861 1827.62 450.928C1754.35 514.995 1570.89 336.816 1544.21 416.244C1517.53 495.672 1674.73 562.727 1515.44 622.282C1356.16 681.836 1085.15 505.103 892.497 566.382C822.025 588.799 800.914 659.576 694.921 663.779C526.646 670.452 416.837 571.346 244.522 561.437C141.212 555.497 125.097 633.836 36.2574 622.282C-139.144 599.469 -316.131 535.366 -472.999 483.823" stroke="url(#paint0_linear)" stroke-linecap="round" stroke-linejoin="round"/>
<path opacity="0.2" d="M2381 307.513C2301.55 230.766 1882.96 205.87 1882.96 313.103C1882.96 344.309 2177.21 545.304 2103.93 609.37C2030.66 673.437 1781.03 529.942 1754.35 609.37C1727.67 688.798 1786.17 735.892 1626.88 795.447C1467.59 855.001 1408.89 627.517 1216.24 688.796C1145.77 711.213 972.651 776.521 866.658 780.724C698.383 787.397 698.552 698.705 526.237 688.796C422.927 682.856 363.195 770.135 274.355 758.58C98.954 735.767 -316.024 535.377 -472.893 483.834" stroke="url(#paint1_linear)" stroke-linecap="round" stroke-linejoin="round"/>
<path opacity="0.2" d="M2117.85 156.616C2038.4 79.8684 1619.81 54.9729 1619.81 162.206C1619.81 193.412 1914.06 394.407 1840.78 458.473C1767.51 522.54 1580.9 346.013 1554.22 425.441C1527.54 504.869 1680.04 570.973 1520.75 630.528C1361.46 690.083 1100.56 510.932 907.913 572.212C837.441 594.628 809.092 665.145 703.099 669.348C534.824 676.021 430.252 577.411 257.937 567.502C154.626 561.562 136.435 640.327 47.5952 628.772C-127.806 605.959 -316.126 535.367 -472.995 483.824" stroke="url(#paint2_linear)"/>
<path opacity="0.2" d="M2131.01 164.16C2051.56 87.4128 1632.97 62.5174 1632.97 169.75C1632.97 200.956 1927.21 401.951 1853.94 466.018C1780.66 530.084 1590.91 355.209 1564.22 434.637C1537.54 514.065 1685.34 579.219 1526.06 638.773C1366.77 698.328 1115.98 516.761 923.329 578.04C852.857 600.457 817.27 670.713 711.277 674.917C543.001 681.59 443.667 583.475 271.351 573.566C168.041 567.626 147.772 646.817 58.9326 635.262C-116.469 612.449 -316.122 535.367 -472.99 483.824" stroke="url(#paint3_linear)"/>
<path opacity="0.2" d="M2144.17 171.705C2064.72 94.9573 1646.13 70.0619 1646.13 177.295C1646.13 208.501 1940.37 409.495 1867.1 473.562C1793.82 537.629 1600.91 364.405 1574.23 443.833C1547.55 523.261 1690.65 587.464 1531.36 647.019C1372.08 706.574 1131.39 522.59 938.746 583.869C868.274 606.286 825.449 676.282 719.456 680.485C551.18 687.158 457.083 589.539 284.767 579.631C181.457 573.69 159.111 653.307 70.2718 641.752C-105.13 618.939 -316.116 535.367 -472.984 483.824" stroke="url(#paint4_linear)"/>
<path opacity="0.2" d="M2157.32 179.25C2077.88 102.502 1659.28 77.6068 1659.28 184.84C1659.28 216.046 1953.53 417.04 1880.25 481.107C1806.98 545.174 1610.92 373.602 1584.24 453.03C1557.56 532.458 1695.96 595.711 1536.67 655.265C1377.38 714.82 1146.81 528.419 954.161 589.699C883.689 612.115 833.625 681.851 727.632 686.054C559.357 692.727 470.496 595.604 298.181 585.696C194.87 579.755 170.448 659.797 81.6084 648.243C-93.7932 625.43 -316.112 535.368 -472.98 483.825" stroke="url(#paint5_linear)"/>
<path opacity="0.2" d="M2170.48 186.795C2091.03 110.047 1672.44 85.1518 1672.44 192.384C1672.44 223.591 1966.69 424.585 1893.41 488.652C1820.14 552.719 1620.93 382.798 1594.24 462.226C1567.56 541.654 1701.26 603.957 1541.98 663.511C1382.69 723.066 1162.23 534.249 969.578 595.528C899.106 617.945 841.804 687.42 735.811 691.623C567.536 698.296 483.912 601.669 311.597 591.76C208.286 585.82 181.787 666.288 92.9473 654.733C-82.4543 631.92 -316.106 535.368 -472.974 483.825" stroke="url(#paint6_linear)"/>
<path opacity="0.2" d="M2183.64 194.34C2104.19 117.592 1685.6 92.6967 1685.6 199.929C1685.6 231.136 1979.84 432.13 1906.57 496.197C1833.29 560.264 1630.93 391.995 1604.25 471.423C1577.57 550.851 1706.57 612.203 1547.28 671.757C1388 731.312 1177.64 540.078 984.994 601.357C914.522 623.774 849.982 692.989 743.989 697.192C575.713 703.865 497.327 607.734 325.011 597.825C221.701 591.885 193.124 672.779 104.285 661.224C-71.1167 638.411 -316.101 535.369 -472.97 483.826" stroke="url(#paint7_linear)"/>
<path opacity="0.2" d="M2196.79 201.884C2117.35 125.137 1698.76 100.242 1698.76 207.474C1698.76 238.681 1993 439.675 1919.73 503.742C1846.45 567.809 1640.94 401.192 1614.26 480.62C1587.58 560.048 1711.88 620.449 1552.59 680.003C1393.3 739.558 1193.06 545.907 1000.41 607.187C929.938 629.603 858.159 698.557 752.166 702.761C583.891 709.434 510.741 613.798 338.426 603.89C235.116 597.95 204.462 679.269 115.623 667.714C-59.779 644.901 -316.096 535.37 -472.965 483.826" stroke="url(#paint8_linear)"/>
<path opacity="0.2" d="M2209.95 209.429C2130.51 132.682 1711.91 107.787 1711.91 215.019C1711.91 246.226 2006.16 447.22 1932.88 511.287C1859.61 575.354 1650.95 410.388 1624.26 489.816C1597.58 569.244 1717.18 628.695 1557.9 688.249C1398.61 747.804 1208.48 551.737 1015.83 613.016C945.355 635.433 866.338 704.126 760.345 708.329C592.07 715.003 524.157 619.863 351.842 609.955C248.531 604.014 215.801 685.759 126.961 674.205C-48.4401 651.392 -316.091 535.37 -472.959 483.827" stroke="url(#paint9_linear)"/>
<path opacity="0.2" d="M2223.11 216.974C2143.66 140.227 1725.07 115.332 1725.07 222.564C1725.07 253.771 2019.32 454.765 1946.04 518.832C1872.77 582.899 1660.95 419.585 1634.27 499.013C1607.59 578.441 1722.49 636.941 1563.2 696.495C1403.92 756.05 1223.89 557.566 1031.24 618.845C960.771 641.262 874.516 709.695 768.523 713.898C600.248 720.571 537.572 625.928 365.257 616.02C261.947 610.079 227.139 692.25 138.3 680.695C-37.102 657.882 -316.085 535.371 -472.954 483.828" stroke="url(#paint10_linear)"/>
<path opacity="0.2" d="M2236.27 224.519C2156.82 147.772 1738.23 122.876 1738.23 230.109C1738.23 261.315 2032.47 462.31 1959.2 526.376C1885.92 590.443 1670.96 428.781 1644.28 508.209C1617.6 587.637 1727.8 645.186 1568.51 704.741C1409.22 764.296 1239.31 563.395 1046.66 624.674C976.187 647.091 882.693 715.264 776.7 719.467C608.425 726.14 550.987 631.992 378.671 622.084C275.361 616.144 238.476 698.74 149.637 687.185C-25.7648 664.372 -316.081 535.371 -472.949 483.828" stroke="url(#paint11_linear)"/>
<path opacity="0.2" d="M2249.42 232.064C2169.98 155.316 1751.38 130.421 1751.38 237.654C1751.38 268.86 2045.63 469.855 1972.36 533.921C1899.08 597.988 1680.96 437.977 1654.28 517.405C1627.6 596.833 1733.1 653.432 1573.82 712.987C1414.53 772.542 1254.72 569.224 1062.08 630.503C991.603 652.92 890.871 720.832 784.878 725.036C616.603 731.709 564.402 638.057 392.086 628.149C288.776 622.208 249.814 705.23 160.975 693.676C-14.4269 670.863 -316.076 535.372 -472.944 483.828" stroke="url(#paint12_linear)"/>
<path opacity="0.2" d="M2262.58 239.609C2183.13 162.861 1764.54 137.966 1764.54 245.199C1764.54 276.405 2058.79 477.4 1985.51 541.466C1912.24 605.533 1690.97 447.174 1664.29 526.602C1637.61 606.03 1738.41 661.678 1579.12 721.233C1419.83 780.788 1270.14 575.053 1077.49 636.333C1007.02 658.749 899.049 726.401 793.056 730.605C624.781 737.278 577.817 644.122 405.501 634.214C302.191 628.273 261.152 711.721 172.313 700.166C-3.08897 677.353 -316.071 535.372 -472.939 483.829" stroke="url(#paint13_linear)"/>
<path opacity="0.2" d="M2275.74 247.154C2196.29 170.406 1777.7 145.511 1777.7 252.744C1777.7 283.95 2071.95 484.945 1998.67 549.011C1925.4 613.078 1700.98 456.37 1674.3 535.798C1647.62 615.226 1743.72 669.924 1584.43 729.479C1425.14 789.034 1285.56 580.883 1092.91 642.162C1022.44 664.579 907.228 731.97 801.235 736.173C632.959 742.847 591.232 650.187 418.917 640.278C315.607 634.338 272.491 718.211 183.651 706.657C8.24974 683.844 -316.065 535.373 -472.934 483.83" stroke="url(#paint14_linear)"/>
<path opacity="0.2" d="M2288.9 254.699C2209.45 177.951 1790.86 153.056 1790.86 260.289C1790.86 291.495 2085.1 492.489 2011.83 556.556C1938.55 620.623 1710.98 465.567 1684.3 544.995C1657.62 624.423 1749.02 678.17 1589.74 737.725C1430.45 797.28 1300.97 586.712 1108.32 647.991C1037.85 670.408 915.405 737.539 809.412 741.742C641.137 748.415 604.647 656.251 432.331 646.343C329.021 640.403 283.829 724.702 194.989 713.147C19.5875 690.334 -316.061 535.373 -472.929 483.83" stroke="url(#paint15_linear)"/>
<path opacity="0.2" d="M2302.05 262.244C2222.61 185.496 1804.01 160.601 1804.01 267.834C1804.01 299.04 2098.26 500.034 2024.99 564.101C1951.71 628.168 1720.99 474.764 1694.31 554.192C1667.63 633.62 1754.33 686.417 1595.04 745.971C1435.75 805.526 1316.39 592.541 1123.74 653.821C1053.27 676.238 923.583 743.108 817.59 747.311C649.315 753.984 618.062 662.316 445.746 652.408C342.436 646.468 295.166 731.192 206.327 719.638C30.9254 696.825 -316.056 535.374 -472.924 483.831" stroke="url(#paint16_linear)"/>
<path opacity="0.2" d="M2315.21 269.788C2235.77 193.041 1817.17 168.145 1817.17 275.378C1817.17 306.584 2111.42 507.579 2038.14 571.646C1964.87 635.712 1731 483.96 1704.32 563.388C1677.64 642.816 1759.64 694.662 1600.35 754.217C1441.06 813.771 1331.81 598.37 1139.16 659.65C1068.69 682.066 931.762 748.676 825.769 752.88C657.493 759.553 631.477 668.381 459.162 658.472C355.852 652.532 306.505 737.682 217.665 726.128C42.2639 703.315 -316.05 535.374 -472.918 483.831" stroke="url(#paint17_linear)"/>
<path opacity="0.2" d="M2328.37 277.333C2248.92 200.586 1830.33 175.69 1830.33 282.923C1830.33 314.129 2124.58 515.124 2051.3 579.191C1978.03 643.257 1741.01 493.156 1714.32 572.584C1687.64 652.012 1764.94 702.908 1605.66 762.463C1446.37 822.017 1347.22 604.199 1154.58 665.479C1084.1 687.896 939.941 754.245 833.948 758.448C665.672 765.122 644.893 674.445 472.578 664.537C369.268 658.597 317.844 744.173 229.004 732.618C53.6028 709.805 -316.044 535.375 -472.912 483.831" stroke="url(#paint18_linear)"/>
<path opacity="0.2" d="M2341.53 284.878C2262.08 208.131 1843.49 183.235 1843.49 290.468C1843.49 321.674 2137.73 522.669 2064.46 586.736C1991.18 650.802 1751.01 502.353 1724.33 581.781C1697.65 661.209 1770.25 711.154 1610.96 770.709C1451.67 830.263 1362.64 610.029 1169.99 671.308C1099.52 693.725 948.117 759.814 842.124 764.017C673.849 770.69 658.307 680.51 485.992 670.602C382.681 664.661 329.18 750.663 240.341 739.109C64.9394 716.296 -316.04 535.375 -472.908 483.832" stroke="url(#paint19_linear)"/>
<path opacity="0.2" d="M2354.69 292.423C2275.24 215.676 1856.65 190.78 1856.65 298.013C1856.65 329.219 2150.89 530.214 2077.62 594.281C2004.34 658.347 1761.02 511.549 1734.34 590.977C1707.66 670.405 1775.56 719.4 1616.27 778.955C1456.98 838.509 1378.05 615.858 1185.41 677.138C1114.93 699.554 956.296 765.383 850.303 769.586C682.028 776.259 671.723 686.575 499.407 676.667C396.097 670.726 340.519 757.154 251.68 745.599C76.2783 722.786 -316.034 535.376 -472.903 483.833" stroke="url(#paint20_linear)"/>
<path opacity="0.2" d="M2367.84 299.968C2288.39 223.221 1869.8 198.325 1869.8 305.558C1869.8 336.764 2164.05 537.759 2090.77 601.826C2017.5 665.892 1771.02 520.746 1744.34 600.174C1717.66 679.602 1780.86 727.646 1621.57 787.201C1462.29 846.755 1393.47 621.688 1200.82 682.967C1130.35 705.384 964.473 770.952 858.48 775.155C690.204 781.828 685.136 692.64 512.821 682.731C409.511 676.791 351.856 763.644 263.017 752.09C87.6151 729.277 -316.031 535.377 -472.899 483.833" stroke="url(#paint21_linear)"/>
<path opacity="0.2" d="M-328.568 493.113C-251.961 569.86 151.672 594.755 151.672 487.523C151.672 456.316 -132.058 255.322 -61.4018 191.255C9.25402 127.188 186.155 305.367 211.882 225.939C237.61 146.511 86.0266 79.456 239.621 19.9014C393.216 -39.6531 654.542 137.08 840.305 75.801C908.259 53.3843 928.614 -17.3928 1030.82 -21.596C1193.08 -28.2691 1298.96 70.8377 1465.12 80.746C1564.74 86.6864 1580.28 8.34683 1665.94 19.9014C1835.08 42.7145 2005.74 106.817 2157 158.36" stroke="url(#paint22_linear)" stroke-linecap="round" stroke-linejoin="round"/>
<path opacity="0.2" d="M-595 334.67C-518.392 411.417 -114.76 436.313 -114.76 329.08C-114.76 297.874 -398.489 96.8793 -327.833 32.8125C-257.178 -31.2543 -16.4733 112.241 9.25429 32.8125C34.9819 -46.6155 -21.4288 -93.7094 132.166 -153.264C285.761 -212.818 342.37 14.6662 528.133 -46.6133C596.087 -69.0299 763.015 -134.338 865.22 -138.541C1027.48 -145.214 1027.32 -56.5216 1193.47 -46.6133C1293.09 -40.6728 1350.69 -127.952 1436.35 -116.397C1605.49 -93.584 2005.63 106.806 2156.9 158.349" stroke="url(#paint23_linear)" stroke-linecap="round" stroke-linejoin="round"/>
<path opacity="0.2" d="M-341.256 485.568C-264.648 562.315 138.984 587.211 138.984 479.978C138.984 448.772 -144.745 247.777 -74.0893 183.71C-3.43348 119.643 176.505 296.17 202.233 216.742C227.961 137.314 80.9094 71.2101 234.504 11.6556C388.099 -47.899 639.676 131.251 825.439 69.9718C893.393 47.5552 920.728 -22.9615 1022.93 -27.1648C1185.19 -33.8379 1286.03 64.773 1452.19 74.6813C1551.8 80.6217 1569.35 1.85651 1655.01 13.4111C1824.14 36.2241 2005.73 106.817 2156.99 158.36" stroke="url(#paint24_linear)"/>
<path opacity="0.2" d="M-353.942 478.023C-277.335 554.77 126.298 579.666 126.298 472.433C126.298 441.227 -157.432 240.232 -86.7758 176.165C-16.12 112.098 166.857 286.974 192.585 207.546C218.312 128.118 75.7932 62.9641 229.388 3.4095C382.983 -56.1451 624.812 125.422 810.575 64.1425C878.529 41.7258 912.844 -28.5304 1015.05 -32.7336C1177.31 -39.4067 1273.09 58.7082 1439.25 68.6165C1538.87 74.5569 1558.41 -4.63399 1644.08 6.92063C1813.21 29.7336 2005.73 106.816 2156.99 158.359" stroke="url(#paint25_linear)"/>
<path opacity="0.2" d="M-366.631 470.478C-290.023 547.225 113.609 572.121 113.609 464.888C113.609 433.682 -170.12 232.687 -99.4643 168.62C-28.8085 104.554 157.207 277.777 182.935 198.349C208.662 118.921 70.675 54.718 224.27 -4.83652C377.865 -64.3911 609.945 119.593 795.708 58.3132C863.662 35.8965 904.956 -34.0993 1007.16 -38.3025C1169.42 -44.9756 1260.16 52.6434 1426.31 62.5517C1525.93 68.4922 1547.48 -11.1244 1633.14 0.430183C1802.28 23.2432 2005.72 106.815 2156.98 158.359" stroke="url(#paint26_linear)"/>
<path opacity="0.2" d="M-379.316 462.933C-302.709 539.68 100.924 564.576 100.924 457.343C100.924 426.137 -182.806 225.142 -112.15 161.075C-41.494 97.0085 147.56 268.581 173.287 189.153C199.015 109.725 65.5598 46.4719 219.155 -13.0826C372.749 -72.6372 595.082 113.763 780.844 52.4838C848.798 30.0671 897.073 -39.6682 999.278 -43.8715C1161.54 -50.5446 1247.22 46.5786 1413.38 56.4869C1513 62.4273 1536.55 -17.615 1622.21 -6.06037C1791.35 16.7526 2005.72 106.815 2156.98 158.358" stroke="url(#paint27_linear)"/>
<path opacity="0.2" d="M-392.004 455.389C-315.396 532.136 88.2363 557.031 88.2363 449.799C88.2363 418.592 -195.493 217.598 -124.837 153.531C-54.1816 89.4641 137.91 259.385 163.638 179.957C189.366 100.529 60.4425 38.2265 214.037 -21.3281C367.632 -80.8827 580.216 107.934 765.979 46.655C833.933 24.2384 889.187 -45.2365 991.391 -49.4398C1153.65 -56.1129 1234.29 40.5143 1400.44 50.4226C1500.06 56.3631 1525.62 -24.1049 1611.28 -12.5503C1780.41 10.2628 2005.71 106.815 2156.98 158.358" stroke="url(#paint28_linear)"/>
<path opacity="0.2" d="M-404.691 447.843C-328.084 524.591 75.5489 549.486 75.5489 442.253C75.5489 411.047 -208.181 210.053 -137.525 145.986C-66.869 81.919 128.261 250.188 153.989 170.76C179.717 91.3319 55.3253 29.9802 208.92 -29.5743C362.515 -89.1289 565.35 102.105 751.113 40.8255C819.067 18.4088 881.301 -50.8056 983.506 -55.0088C1145.77 -61.6819 1221.35 34.4493 1387.51 44.3576C1487.13 50.2981 1514.68 -30.5956 1600.35 -19.0409C1769.48 3.77209 2005.71 106.814 2156.97 158.357" stroke="url(#paint29_linear)"/>
<path opacity="0.2" d="M-417.379 440.299C-340.771 517.046 62.8613 541.941 62.8613 434.709C62.8613 403.502 -220.868 202.508 -150.212 138.441C-79.5566 74.3741 118.612 240.991 144.34 161.563C170.067 82.1355 50.2081 21.7343 203.803 -37.8203C357.398 -97.3748 550.485 96.2758 736.247 34.9963C804.201 12.5796 873.415 -56.3744 975.619 -60.5777C1137.88 -67.2507 1208.42 28.3847 1374.57 38.293C1474.19 44.2334 1503.75 -37.0859 1589.41 -25.5313C1758.55 -2.71829 2005.7 106.813 2156.97 158.357" stroke="url(#paint30_linear)"/>
<path opacity="0.2" d="M-430.066 432.754C-353.459 509.501 50.1739 534.396 50.1739 427.164C50.1739 395.957 -233.556 194.963 -162.9 130.896C-92.244 66.8293 108.963 231.795 134.69 152.367C160.418 72.939 45.0909 13.4884 198.686 -46.0662C352.281 -105.621 535.619 90.4465 721.382 29.1671C789.336 6.75043 865.529 -61.9432 967.734 -66.1464C1129.99 -72.8195 1195.48 22.3199 1361.64 32.2282C1461.26 38.1687 1492.82 -43.5763 1578.48 -32.0217C1747.61 -9.20867 2005.7 106.813 2156.96 158.356" stroke="url(#paint31_linear)"/>
<path opacity="0.2" d="M-442.754 425.209C-366.146 501.956 37.4863 526.851 37.4863 419.619C37.4863 388.412 -246.243 187.418 -175.587 123.351C-104.932 59.2842 99.3135 222.598 125.041 143.17C150.769 63.7423 39.9737 5.24215 193.568 -54.3124C347.163 -113.867 520.753 84.617 706.516 23.3376C774.47 0.920923 857.643 -67.5122 959.848 -71.7154C1122.11 -78.3885 1182.54 16.255 1348.7 26.1633C1448.32 32.1037 1481.88 -50.0669 1567.55 -38.5123C1736.68 -15.6993 2005.69 106.812 2156.95 158.355" stroke="url(#paint32_linear)"/>
<path opacity="0.2" d="M-455.441 417.664C-378.834 494.411 24.7989 519.306 24.7989 412.074C24.7989 380.867 -258.931 179.873 -188.275 115.806C-117.619 51.7392 89.6643 213.402 115.392 133.974C141.12 54.5457 34.8566 -3.00386 188.451 -62.5584C342.046 -122.113 505.888 78.7878 691.651 17.5083C759.605 -4.90835 849.757 -73.081 951.962 -77.2843C1114.22 -83.9574 1169.61 10.1902 1335.77 20.0985C1435.38 26.039 1470.95 -56.5574 1556.61 -45.0028C1725.75 -22.1897 2005.69 106.812 2156.95 158.355" stroke="url(#paint33_linear)"/>
<path opacity="0.2" d="M-468.127 410.119C-391.519 486.866 12.1133 511.762 12.1133 404.529C12.1133 373.323 -271.616 172.328 -200.96 108.261C-130.305 44.1943 80.0171 204.205 105.745 124.777C131.472 45.3492 29.7413 -11.2499 183.336 -70.8044C336.931 -130.359 491.024 72.9584 676.787 11.679C744.741 -10.7377 841.873 -78.6499 944.078 -82.8532C1106.34 -89.5263 1156.67 4.12545 1322.83 14.0338C1422.45 19.9742 1460.02 -63.0478 1545.68 -51.4932C1714.82 -28.6802 2005.68 106.811 2156.95 158.354" stroke="url(#paint34_linear)"/>
<path opacity="0.2" d="M-480.814 402.574C-404.207 479.322 -0.574163 504.217 -0.574163 396.984C-0.574163 365.778 -284.304 164.783 -213.648 100.717C-142.992 36.6499 70.3678 195.009 96.0955 115.581C121.823 36.1532 24.6241 -19.4954 178.219 -79.05C331.814 -138.605 476.159 67.1297 661.922 5.85022C729.875 -16.5665 833.987 -84.2183 936.192 -88.4215C1098.45 -95.0946 1143.74 -1.9388 1309.9 7.96951C1409.51 13.9099 1449.09 -69.5378 1534.75 -57.9832C1703.88 -35.1702 2005.68 106.811 2156.94 158.354" stroke="url(#paint35_linear)"/>
<path opacity="0.2" d="M-493.502 395.029C-416.894 471.777 -13.2617 496.672 -13.2617 389.439C-13.2617 358.233 -296.991 157.238 -226.335 93.1717C-155.68 29.1049 60.7186 185.813 86.4462 106.385C112.174 26.9565 19.5069 -27.7415 173.102 -87.2961C326.696 -146.851 461.293 61.3003 647.056 0.0208024C715.01 -22.3959 826.101 -89.7872 928.306 -93.9905C1090.57 -100.664 1130.8 -8.00367 1296.96 1.90463C1396.58 7.84507 1438.15 -76.0283 1523.82 -64.4737C1692.95 -41.6607 2005.67 106.81 2156.94 158.353" stroke="url(#paint36_linear)"/>
<path opacity="0.2" d="M-506.189 387.484C-429.582 464.232 -25.9491 489.127 -25.9491 381.894C-25.9491 350.688 -309.679 149.694 -239.023 85.6268C-168.367 21.56 51.0694 176.616 76.797 97.1881C102.525 17.7601 14.3898 -35.9874 167.985 -95.542C321.579 -155.097 446.428 55.471 632.19 -5.8084C700.144 -28.2251 818.215 -95.356 920.42 -99.5592C1082.68 -106.232 1117.87 -14.0684 1284.02 -4.1601C1383.64 1.78034 1427.22 -82.5187 1512.88 -70.9641C1682.02 -48.1511 2005.67 106.81 2156.93 158.353" stroke="url(#paint37_linear)"/>
<path opacity="0.2" d="M-518.877 379.939C-442.269 456.687 -38.6367 481.582 -38.6367 374.349C-38.6367 343.143 -322.366 142.149 -251.71 78.0818C-181.055 14.015 41.4201 167.419 67.1478 87.9914C92.8754 8.56343 9.27252 -44.2336 162.867 -103.788C316.462 -163.343 431.562 49.6417 617.325 -11.6378C685.279 -34.0545 810.329 -100.925 912.534 -105.128C1074.8 -111.801 1104.93 -20.1333 1271.09 -10.225C1370.71 -4.28451 1416.29 -89.0093 1501.95 -77.4547C1671.08 -54.6416 2005.66 106.809 2156.93 158.352" stroke="url(#paint38_linear)"/>
<path opacity="0.2" d="M-531.564 372.394C-454.957 449.142 -51.3242 474.037 -51.3242 366.804C-51.3242 335.598 -335.054 134.604 -264.398 70.5368C-193.742 6.47001 31.7709 158.223 57.4986 78.7948C83.2262 -0.633152 4.15528 -52.4796 157.75 -112.034C311.345 -171.589 416.696 43.8123 602.459 -17.4672C670.413 -39.8838 802.443 -106.494 904.648 -110.697C1066.91 -117.37 1092 -26.1981 1258.15 -16.2898C1357.77 -10.3493 1405.35 -95.4997 1491.02 -83.9451C1660.15 -61.1321 2005.66 106.808 2156.92 158.352" stroke="url(#paint39_linear)"/>
<path opacity="0.2" d="M-544.251 364.849C-467.643 441.597 -64.0107 466.492 -64.0107 359.259C-64.0107 328.053 -347.74 127.059 -277.084 62.9918C-206.429 -1.07494 22.1226 149.026 47.8503 69.5983C73.5779 -9.82971 -0.960981 -60.7257 152.634 -120.28C306.229 -179.835 401.832 37.983 587.594 -23.2965C655.548 -45.7131 794.558 -112.063 896.763 -116.266C1059.02 -122.939 1079.06 -32.2629 1245.22 -22.3546C1344.84 -16.4141 1394.42 -101.99 1480.09 -90.4356C1649.22 -67.6226 2005.65 106.808 2156.92 158.351" stroke="url(#paint40_linear)"/>
<path opacity="0.2" d="M-556.938 357.305C-480.331 434.052 -76.6981 458.948 -76.6981 351.715C-76.6981 320.509 -360.428 119.514 -289.772 55.4474C-219.116 -8.61937 12.4735 139.83 38.2012 60.4023C63.9288 -19.0257 -6.07809 -68.9712 147.517 -128.526C301.112 -188.08 386.966 32.1542 572.729 -29.1253C640.683 -51.5419 786.672 -117.631 888.877 -121.834C1051.14 -128.507 1066.12 -38.3271 1232.28 -28.4188C1331.9 -22.4784 1383.49 -108.48 1469.15 -96.9256C1638.29 -74.1126 2005.65 106.808 2156.91 158.351" stroke="url(#paint41_linear)"/>
<path opacity="0.2" d="M-569.626 349.76C-493.018 426.507 -89.3857 451.403 -89.3857 344.17C-89.3857 312.964 -373.115 111.969 -302.459 47.9025C-231.804 -16.1643 2.82421 130.634 28.5518 51.2058C54.2795 -28.2222 -11.1953 -77.2172 142.399 -136.772C295.994 -196.326 372.1 26.3249 557.863 -34.9545C625.817 -57.3712 778.786 -123.2 880.991 -127.403C1043.25 -134.076 1053.19 -44.3919 1219.35 -34.4836C1318.96 -28.5432 1372.56 -114.971 1458.22 -103.416C1627.35 -80.603 2005.64 106.807 2156.91 158.35" stroke="url(#paint42_linear)"/>
<path opacity="0.2" d="M-582.312 342.215C-505.705 418.962 -102.072 443.858 -102.072 336.625C-102.072 305.419 -385.802 104.424 -315.146 40.3574C-244.49 -23.7093 -6.82403 121.437 18.9036 42.0091C44.6312 -37.4189 -16.3115 -85.4633 137.283 -145.018C290.878 -204.572 357.236 20.4955 542.999 -40.784C610.953 -63.2006 770.901 -128.769 873.106 -132.972C1035.37 -139.645 1040.25 -50.4568 1206.41 -40.5485C1306.03 -34.6081 1361.62 -121.461 1447.29 -109.907C1616.42 -87.0936 2005.64 106.806 2156.9 158.35" stroke="url(#paint43_linear)"/>
</g>
<defs>
<linearGradient id="paint0_linear" x1="815.847" y1="82.6846" x2="815.847" y2="664.102" gradientUnits="userSpaceOnUse">
<stop stop-color="#333399"/>
<stop offset="1" stop-color="#333399" stop-opacity="0.54"/>
</linearGradient>
<linearGradient id="paint1_linear" x1="954.054" y1="241.127" x2="954.054" y2="805.485" gradientUnits="userSpaceOnUse">
<stop stop-color="#333399"/>
<stop offset="1" stop-color="#333399" stop-opacity="0.54"/>
</linearGradient>
<linearGradient id="paint2_linear" x1="822.428" y1="90.2297" x2="822.428" y2="669.672" gradientUnits="userSpaceOnUse">
<stop stop-color="#333399"/>
<stop offset="1" stop-color="#333399" stop-opacity="0.54"/>
</linearGradient>
<linearGradient id="paint3_linear" x1="829.009" y1="97.7741" x2="829.009" y2="675.242" gradientUnits="userSpaceOnUse">
<stop stop-color="#333399"/>
<stop offset="1" stop-color="#333399" stop-opacity="0.54"/>
</linearGradient>
<linearGradient id="paint4_linear" x1="835.591" y1="105.319" x2="835.591" y2="680.812" gradientUnits="userSpaceOnUse">
<stop stop-color="#333399"/>
<stop offset="1" stop-color="#333399" stop-opacity="0.54"/>
</linearGradient>
<linearGradient id="paint5_linear" x1="842.171" y1="112.864" x2="842.171" y2="686.382" gradientUnits="userSpaceOnUse">
<stop stop-color="#333399"/>
<stop offset="1" stop-color="#333399" stop-opacity="0.54"/>
</linearGradient>
<linearGradient id="paint6_linear" x1="848.753" y1="120.409" x2="848.753" y2="691.953" gradientUnits="userSpaceOnUse">
<stop stop-color="#333399"/>
<stop offset="1" stop-color="#333399" stop-opacity="0.54"/>
</linearGradient>
<linearGradient id="paint7_linear" x1="855.334" y1="127.953" x2="855.334" y2="697.523" gradientUnits="userSpaceOnUse">
<stop stop-color="#333399"/>
<stop offset="1" stop-color="#333399" stop-opacity="0.54"/>
</linearGradient>
<linearGradient id="paint8_linear" x1="861.915" y1="135.498" x2="861.915" y2="703.094" gradientUnits="userSpaceOnUse">
<stop stop-color="#333399"/>
<stop offset="1" stop-color="#333399" stop-opacity="0.54"/>
</linearGradient>
<linearGradient id="paint9_linear" x1="868.497" y1="143.043" x2="868.497" y2="708.664" gradientUnits="userSpaceOnUse">
<stop stop-color="#333399"/>
<stop offset="1" stop-color="#333399" stop-opacity="0.54"/>
</linearGradient>
<linearGradient id="paint10_linear" x1="875.078" y1="150.588" x2="875.078" y2="714.235" gradientUnits="userSpaceOnUse">
<stop stop-color="#333399"/>
<stop offset="1" stop-color="#333399" stop-opacity="0.54"/>
</linearGradient>
<linearGradient id="paint11_linear" x1="881.659" y1="158.133" x2="881.659" y2="719.805" gradientUnits="userSpaceOnUse">
<stop stop-color="#333399"/>
<stop offset="1" stop-color="#333399" stop-opacity="0.54"/>
</linearGradient>
<linearGradient id="paint12_linear" x1="888.24" y1="165.678" x2="888.24" y2="725.376" gradientUnits="userSpaceOnUse">
<stop stop-color="#333399"/>
<stop offset="1" stop-color="#333399" stop-opacity="0.54"/>
</linearGradient>
<linearGradient id="paint13_linear" x1="894.821" y1="173.223" x2="894.821" y2="732.179" gradientUnits="userSpaceOnUse">
<stop stop-color="#333399"/>
<stop offset="1" stop-color="#333399" stop-opacity="0.54"/>
</linearGradient>
<linearGradient id="paint14_linear" x1="901.403" y1="180.768" x2="901.403" y2="740.316" gradientUnits="userSpaceOnUse">
<stop stop-color="#333399"/>
<stop offset="1" stop-color="#333399" stop-opacity="0.54"/>
</linearGradient>
<linearGradient id="paint15_linear" x1="907.984" y1="188.313" x2="907.984" y2="748.455" gradientUnits="userSpaceOnUse">
<stop stop-color="#333399"/>
<stop offset="1" stop-color="#333399" stop-opacity="0.54"/>
</linearGradient>
<linearGradient id="paint16_linear" x1="914.565" y1="195.858" x2="914.565" y2="756.597" gradientUnits="userSpaceOnUse">
<stop stop-color="#333399"/>
<stop offset="1" stop-color="#333399" stop-opacity="0.54"/>
</linearGradient>
<linearGradient id="paint17_linear" x1="921.147" y1="203.402" x2="921.147" y2="764.74" gradientUnits="userSpaceOnUse">
<stop stop-color="#333399"/>
<stop offset="1" stop-color="#333399" stop-opacity="0.54"/>
</linearGradient>
<linearGradient id="paint18_linear" x1="927.729" y1="210.947" x2="927.729" y2="772.885" gradientUnits="userSpaceOnUse">
<stop stop-color="#333399"/>
<stop offset="1" stop-color="#333399" stop-opacity="0.54"/>
</linearGradient>
<linearGradient id="paint19_linear" x1="934.309" y1="218.492" x2="934.309" y2="781.032" gradientUnits="userSpaceOnUse">
<stop stop-color="#333399"/>
<stop offset="1" stop-color="#333399" stop-opacity="0.54"/>
</linearGradient>
<linearGradient id="paint20_linear" x1="940.891" y1="226.037" x2="940.891" y2="789.181" gradientUnits="userSpaceOnUse">
<stop stop-color="#333399"/>
<stop offset="1" stop-color="#333399" stop-opacity="0.54"/>
</linearGradient>
<linearGradient id="paint21_linear" x1="947.472" y1="233.582" x2="947.472" y2="797.332" gradientUnits="userSpaceOnUse">
<stop stop-color="#333399"/>
<stop offset="1" stop-color="#333399" stop-opacity="0.54"/>
</linearGradient>
<linearGradient id="paint22_linear" x1="914.216" y1="559.499" x2="914.216" y2="-21.9182" gradientUnits="userSpaceOnUse">
<stop stop-color="#333399"/>
<stop offset="1" stop-color="#333399" stop-opacity="0.54"/>
</linearGradient>
<linearGradient id="paint23_linear" x1="780.948" y1="401.056" x2="780.948" y2="-163.302" gradientUnits="userSpaceOnUse">
<stop stop-color="#333399"/>
<stop offset="1" stop-color="#333399" stop-opacity="0.54"/>
</linearGradient>
<linearGradient id="paint24_linear" x1="907.869" y1="551.954" x2="907.869" y2="-27.4885" gradientUnits="userSpaceOnUse">
<stop stop-color="#333399"/>
<stop offset="1" stop-color="#333399" stop-opacity="0.54"/>
</linearGradient>
<linearGradient id="paint25_linear" x1="901.524" y1="544.409" x2="901.524" y2="-33.0589" gradientUnits="userSpaceOnUse">
<stop stop-color="#333399"/>
<stop offset="1" stop-color="#333399" stop-opacity="0.54"/>
</linearGradient>
<linearGradient id="paint26_linear" x1="895.177" y1="536.864" x2="895.177" y2="-38.6293" gradientUnits="userSpaceOnUse">
<stop stop-color="#333399"/>
<stop offset="1" stop-color="#333399" stop-opacity="0.54"/>
</linearGradient>
<linearGradient id="paint27_linear" x1="888.832" y1="529.319" x2="888.832" y2="-44.1999" gradientUnits="userSpaceOnUse">
<stop stop-color="#333399"/>
<stop offset="1" stop-color="#333399" stop-opacity="0.54"/>
</linearGradient>
<linearGradient id="paint28_linear" x1="882.486" y1="521.775" x2="882.486" y2="-49.7698" gradientUnits="userSpaceOnUse">
<stop stop-color="#333399"/>
<stop offset="1" stop-color="#333399" stop-opacity="0.54"/>
</linearGradient>
<linearGradient id="paint29_linear" x1="876.14" y1="514.229" x2="876.14" y2="-55.3405" gradientUnits="userSpaceOnUse">
<stop stop-color="#333399"/>
<stop offset="1" stop-color="#333399" stop-opacity="0.54"/>
</linearGradient>
<linearGradient id="paint30_linear" x1="869.793" y1="506.685" x2="869.793" y2="-60.9109" gradientUnits="userSpaceOnUse">
<stop stop-color="#333399"/>
<stop offset="1" stop-color="#333399" stop-opacity="0.54"/>
</linearGradient>
<linearGradient id="paint31_linear" x1="863.447" y1="499.14" x2="863.447" y2="-66.4813" gradientUnits="userSpaceOnUse">
<stop stop-color="#333399"/>
<stop offset="1" stop-color="#333399" stop-opacity="0.54"/>
</linearGradient>
<linearGradient id="paint32_linear" x1="857.1" y1="491.595" x2="857.1" y2="-72.0521" gradientUnits="userSpaceOnUse">
<stop stop-color="#333399"/>
<stop offset="1" stop-color="#333399" stop-opacity="0.54"/>
</linearGradient>
<linearGradient id="paint33_linear" x1="850.754" y1="484.05" x2="850.754" y2="-77.6226" gradientUnits="userSpaceOnUse">
<stop stop-color="#333399"/>
<stop offset="1" stop-color="#333399" stop-opacity="0.54"/>
</linearGradient>
<linearGradient id="paint34_linear" x1="844.41" y1="476.505" x2="844.41" y2="-83.1932" gradientUnits="userSpaceOnUse">
<stop stop-color="#333399"/>
<stop offset="1" stop-color="#333399" stop-opacity="0.54"/>
</linearGradient>
<linearGradient id="paint35_linear" x1="838.063" y1="468.96" x2="838.063" y2="-89.9963" gradientUnits="userSpaceOnUse">
<stop stop-color="#333399"/>
<stop offset="1" stop-color="#333399" stop-opacity="0.54"/>
</linearGradient>
<linearGradient id="paint36_linear" x1="831.717" y1="461.415" x2="831.717" y2="-98.1334" gradientUnits="userSpaceOnUse">
<stop stop-color="#333399"/>
<stop offset="1" stop-color="#333399" stop-opacity="0.54"/>
</linearGradient>
<linearGradient id="paint37_linear" x1="825.371" y1="453.87" x2="825.371" y2="-106.272" gradientUnits="userSpaceOnUse">
<stop stop-color="#333399"/>
<stop offset="1" stop-color="#333399" stop-opacity="0.54"/>
</linearGradient>
<linearGradient id="paint38_linear" x1="819.024" y1="446.325" x2="819.024" y2="-114.414" gradientUnits="userSpaceOnUse">
<stop stop-color="#333399"/>
<stop offset="1" stop-color="#333399" stop-opacity="0.54"/>
</linearGradient>
<linearGradient id="paint39_linear" x1="812.678" y1="438.78" x2="812.678" y2="-122.557" gradientUnits="userSpaceOnUse">
<stop stop-color="#333399"/>
<stop offset="1" stop-color="#333399" stop-opacity="0.54"/>
</linearGradient>
<linearGradient id="paint40_linear" x1="806.333" y1="431.235" x2="806.333" y2="-130.703" gradientUnits="userSpaceOnUse">
<stop stop-color="#333399"/>
<stop offset="1" stop-color="#333399" stop-opacity="0.54"/>
</linearGradient>
<linearGradient id="paint41_linear" x1="799.986" y1="423.691" x2="799.986" y2="-138.849" gradientUnits="userSpaceOnUse">
<stop stop-color="#333399"/>
<stop offset="1" stop-color="#333399" stop-opacity="0.54"/>
</linearGradient>
<linearGradient id="paint42_linear" x1="793.64" y1="416.146" x2="793.64" y2="-146.998" gradientUnits="userSpaceOnUse">
<stop stop-color="#333399"/>
<stop offset="1" stop-color="#333399" stop-opacity="0.54"/>
</linearGradient>
<linearGradient id="paint43_linear" x1="787.295" y1="408.601" x2="787.295" y2="-155.149" gradientUnits="userSpaceOnUse">
<stop stop-color="#333399"/>
<stop offset="1" stop-color="#333399" stop-opacity="0.54"/>
</linearGradient>
</defs>
</svg>
