<svg width="1920" height="991" viewBox="0 0 1920 991" fill="none" xmlns="http://www.w3.org/2000/svg">
<mask id="mask0" mask-type="alpha" maskUnits="userSpaceOnUse" x="0" y="0" width="1922" height="991">
<path d="M0 0.487244H841H1922V991H0V0.487244Z" fill="#EDEDEE"/>
</mask>
<g mask="url(#mask0)">
<path opacity="0.2" d="M2106.69 803.962C2027.25 900.257 1608.65 931.493 1608.65 796.949C1608.65 757.794 1902.9 505.608 1829.62 425.224C1756.35 344.84 1572.89 568.399 1546.21 468.741C1519.53 369.084 1676.73 284.95 1517.44 210.228C1358.16 135.505 1087.15 357.251 894.497 280.365C824.025 252.238 802.914 163.435 696.921 158.161C528.646 149.789 418.837 274.137 246.522 286.569C143.212 294.022 127.097 195.73 38.2574 210.228C-137.144 238.851 -314.131 319.28 -470.999 383.951" stroke="url(#paint0_linear)" stroke-linecap="round" stroke-linejoin="round"/>
<path opacity="0.2" d="M2383 605.166C2303.55 701.461 1884.96 732.697 1884.96 598.153C1884.96 558.998 2179.21 306.812 2105.93 226.428C2032.66 146.044 1783.03 326.086 1756.35 226.428C1729.67 126.77 1788.17 67.682 1628.88 -7.04069C1469.59 -81.7633 1410.89 203.66 1218.24 126.773C1147.77 98.6471 974.651 16.7058 868.658 11.432C700.383 3.05934 700.552 114.341 528.237 126.773C424.927 134.226 365.195 24.7184 276.355 39.2159C100.954 67.8392 -314.024 319.267 -470.893 383.938" stroke="url(#paint1_linear)" stroke-linecap="round" stroke-linejoin="round"/>
<path opacity="0.2" d="M2119.85 794.496C2040.4 890.79 1621.81 922.026 1621.81 787.482C1621.81 748.328 1916.06 496.141 1842.78 415.757C1769.51 335.373 1582.9 556.86 1556.22 457.203C1529.54 357.545 1682.04 274.604 1522.75 199.882C1363.46 125.159 1102.56 349.938 909.913 273.051C839.441 244.925 811.092 156.448 705.099 151.174C536.824 142.801 432.252 266.528 259.937 278.96C156.626 286.413 138.435 187.587 49.5952 202.084C-125.806 230.708 -314.126 319.279 -470.995 383.95" stroke="url(#paint2_linear)"/>
<path opacity="0.2" d="M2133.01 785.029C2053.56 881.324 1634.97 912.56 1634.97 778.016C1634.97 738.862 1929.21 486.675 1855.94 406.291C1782.66 325.907 1592.91 545.322 1566.22 445.664C1539.54 346.006 1687.34 264.258 1528.06 189.536C1368.77 114.813 1117.98 342.624 925.329 265.737C854.857 237.611 819.27 149.461 713.277 144.187C545.001 135.815 445.667 258.919 273.351 271.35C170.041 278.804 149.772 179.444 60.9326 193.941C-114.469 222.564 -314.122 319.279 -470.99 383.95" stroke="url(#paint3_linear)"/>
<path opacity="0.2" d="M2146.17 775.563C2066.72 871.857 1648.13 903.093 1648.13 768.549C1648.13 729.395 1942.37 477.209 1869.1 396.825C1795.82 316.441 1602.91 533.783 1576.23 434.125C1549.55 334.468 1692.65 253.912 1533.36 179.19C1374.08 104.467 1133.39 335.31 940.746 258.423C870.274 230.297 827.449 142.474 721.456 137.2C553.18 128.827 459.083 251.309 286.767 263.741C183.457 271.195 161.111 171.3 72.2718 185.798C-103.13 214.421 -314.116 319.278 -470.984 383.949" stroke="url(#paint4_linear)"/>
<path opacity="0.2" d="M2159.32 766.096C2079.88 862.391 1661.28 893.627 1661.28 759.083C1661.28 719.929 1955.53 467.742 1882.25 387.358C1808.98 306.974 1612.92 522.244 1586.24 422.587C1559.56 322.929 1697.96 243.566 1538.67 168.843C1379.38 94.1208 1148.81 327.996 956.161 251.109C885.689 222.983 835.625 135.487 729.632 130.213C561.357 121.84 472.496 243.7 300.181 256.132C196.87 263.585 172.448 163.157 83.6084 177.654C-91.7932 206.278 -314.112 319.278 -470.98 383.949" stroke="url(#paint5_linear)"/>
<path opacity="0.2" d="M2172.48 756.63C2093.03 852.924 1674.44 884.16 1674.44 749.616C1674.44 710.462 1968.69 458.276 1895.41 377.892C1822.14 297.507 1622.93 510.705 1596.24 411.048C1569.56 311.39 1703.26 233.22 1543.98 158.497C1384.69 83.7747 1164.23 320.682 971.578 243.795C901.106 215.669 843.804 128.5 737.811 123.226C569.536 114.853 485.912 236.091 313.597 248.522C210.286 255.976 183.787 155.013 94.9473 169.511C-80.4543 198.134 -314.106 319.277 -470.974 383.948" stroke="url(#paint6_linear)"/>
<path opacity="0.2" d="M2185.64 747.163C2106.19 843.458 1687.6 874.694 1687.6 740.15C1687.6 700.995 1981.84 448.809 1908.57 368.425C1835.29 288.041 1632.93 499.167 1606.25 399.509C1579.57 299.851 1708.57 222.874 1549.28 148.151C1390 73.4283 1179.64 313.368 986.994 236.481C916.522 208.355 851.982 121.512 745.989 116.239C577.713 107.866 499.327 228.481 327.011 240.913C223.701 248.366 195.124 146.87 106.285 161.367C-69.1167 189.99 -314.101 319.276 -470.97 383.947" stroke="url(#paint7_linear)"/>
<path opacity="0.2" d="M2198.79 737.697C2119.35 833.991 1700.76 865.227 1700.76 730.683C1700.76 691.529 1995 439.343 1921.73 358.959C1848.45 278.574 1642.94 487.628 1616.26 387.97C1589.58 288.313 1713.88 212.528 1554.59 137.805C1395.3 63.0824 1195.06 306.054 1002.41 229.167C931.938 201.041 860.159 114.525 754.166 109.252C585.891 100.879 512.741 220.872 340.426 233.304C237.116 240.757 206.462 138.726 117.623 153.224C-57.779 181.847 -314.096 319.276 -470.965 383.947" stroke="url(#paint8_linear)"/>
<path opacity="0.2" d="M2211.95 728.23C2132.51 824.525 1713.91 855.761 1713.91 721.217C1713.91 682.063 2008.16 429.876 1934.88 349.492C1861.61 269.108 1652.95 476.089 1626.26 376.431C1599.58 276.774 1719.18 202.181 1559.9 127.459C1400.61 52.7361 1210.48 298.74 1017.83 221.853C947.355 193.727 868.338 107.538 762.345 102.264C594.07 93.8917 526.157 213.262 353.842 225.694C250.531 233.148 217.801 130.583 128.961 145.08C-46.4401 173.704 -314.091 319.275 -470.959 383.946" stroke="url(#paint9_linear)"/>
<path opacity="0.2" d="M2225.11 718.764C2145.66 815.058 1727.07 846.294 1727.07 711.75C1727.07 672.596 2021.32 420.41 1948.04 340.026C1874.77 259.641 1662.95 464.55 1636.27 364.893C1609.59 265.235 1724.49 191.835 1565.2 117.113C1405.92 42.3901 1225.89 291.426 1033.24 214.54C962.771 186.414 876.516 100.551 770.523 95.2773C602.248 86.9046 539.572 205.653 367.257 218.085C263.947 225.538 229.139 122.44 140.3 136.937C-35.102 165.56 -314.085 319.274 -470.954 383.945" stroke="url(#paint10_linear)"/>
<path opacity="0.2" d="M2238.27 709.298C2158.82 805.592 1740.23 836.828 1740.23 702.284C1740.23 663.13 2034.47 410.943 1961.2 330.559C1887.92 250.175 1672.96 453.012 1646.28 353.354C1619.6 253.696 1729.8 181.489 1570.51 106.767C1411.22 32.0439 1241.31 284.113 1048.66 207.226C978.187 179.1 884.693 93.5639 778.7 88.2901C610.425 79.9174 552.987 198.044 380.671 210.476C277.361 217.929 240.476 114.296 151.637 128.793C-23.7648 157.417 -314.081 319.274 -470.949 383.945" stroke="url(#paint11_linear)"/>
<path opacity="0.2" d="M2251.42 699.831C2171.98 796.125 1753.38 827.361 1753.38 692.817C1753.38 653.663 2047.63 401.477 1974.36 321.093C1901.08 240.709 1682.96 441.473 1656.28 341.815C1629.6 242.158 1735.1 171.143 1575.82 96.4204C1416.53 21.6978 1256.72 276.799 1064.08 199.912C993.603 171.786 892.871 86.5768 786.878 81.303C618.603 72.9303 566.402 190.434 394.086 202.866C290.776 210.32 251.814 106.153 162.975 120.65C-12.4269 149.273 -314.076 319.273 -470.944 383.944" stroke="url(#paint12_linear)"/>
<path opacity="0.2" d="M2264.58 690.365C2185.13 786.659 1766.54 817.895 1766.54 683.351C1766.54 644.197 2060.79 392.01 1987.51 311.626C1914.24 231.242 1692.97 429.934 1666.29 330.277C1639.61 230.619 1740.41 160.797 1581.12 86.0744C1421.83 11.3518 1272.14 269.485 1079.49 192.598C1009.02 164.472 901.049 79.5898 795.056 74.316C626.781 65.9433 579.817 182.825 407.501 195.257C304.191 202.711 263.152 98.0093 174.313 112.507C-1.08897 141.13 -314.071 319.273 -470.939 383.944" stroke="url(#paint13_linear)"/>
<path opacity="0.2" d="M2277.74 680.898C2198.29 777.192 1779.7 808.429 1779.7 673.885C1779.7 634.73 2073.95 382.544 2000.67 302.16C1927.4 221.776 1702.98 418.396 1676.3 318.738C1649.62 219.08 1745.72 150.451 1586.43 75.7283C1427.14 1.00561 1287.56 262.171 1094.91 185.284C1024.44 157.158 909.228 72.6027 803.235 67.3289C634.959 58.9562 593.232 175.216 420.917 187.648C317.607 195.101 274.491 89.8658 185.651 104.363C10.2497 132.987 -314.065 319.272 -470.934 383.943" stroke="url(#paint14_linear)"/>
<path opacity="0.2" d="M2290.9 671.432C2211.45 767.726 1792.86 798.962 1792.86 664.418C1792.86 625.264 2087.1 373.077 2013.83 292.693C1940.55 212.309 1712.98 406.857 1686.3 307.199C1659.62 207.541 1751.02 140.105 1591.74 65.3821C1432.45 -9.34055 1302.97 254.857 1110.32 177.97C1039.85 149.844 917.405 65.6155 811.412 60.3417C643.137 51.9691 606.647 167.606 434.331 180.038C331.021 187.492 285.829 81.7223 196.989 96.2198C21.5875 124.843 -314.061 319.271 -470.929 383.942" stroke="url(#paint15_linear)"/>
<path opacity="0.2" d="M2304.05 661.965C2224.61 758.259 1806.01 789.496 1806.01 654.951C1806.01 615.797 2100.26 363.611 2026.99 283.227C1953.71 202.843 1722.99 395.318 1696.31 295.66C1669.63 196.003 1756.33 129.759 1597.04 55.0359C1437.75 -19.6868 1318.39 247.543 1125.74 170.656C1055.27 142.53 925.583 58.6282 819.59 53.3545C651.315 44.9818 620.062 159.997 447.746 172.429C344.436 179.882 297.166 73.5788 208.327 88.0763C32.9254 116.7 -314.056 319.271 -470.924 383.941" stroke="url(#paint16_linear)"/>
<path opacity="0.2" d="M2317.21 652.499C2237.77 748.793 1819.17 780.029 1819.17 645.485C1819.17 606.331 2113.42 354.144 2040.14 273.76C1966.87 193.376 1733 383.779 1706.32 284.121C1679.64 184.464 1761.64 119.412 1602.35 44.6897C1443.06 -30.0329 1333.81 240.229 1141.16 163.342C1070.69 135.216 933.762 51.6411 827.769 46.3674C659.493 37.9947 633.477 152.388 461.162 164.82C357.852 172.273 308.505 65.4354 219.665 79.9329C44.2639 108.556 -314.05 319.27 -470.918 383.941" stroke="url(#paint17_linear)"/>
<path opacity="0.2" d="M2330.37 643.032C2250.92 739.326 1832.33 770.563 1832.33 636.018C1832.33 596.864 2126.58 344.678 2053.3 264.294C1980.03 183.91 1743.01 372.24 1716.32 272.583C1689.64 172.925 1766.94 109.066 1607.66 34.3436C1448.37 -40.3791 1349.22 232.915 1156.58 156.028C1086.1 127.902 941.941 44.654 835.948 39.3802C667.672 31.0075 646.893 144.778 474.578 157.21C371.268 164.664 319.844 57.2919 231.004 71.7894C55.6028 100.413 -314.044 319.269 -470.912 383.94" stroke="url(#paint18_linear)"/>
<path opacity="0.2" d="M2343.53 633.566C2264.08 729.86 1845.49 761.096 1845.49 626.552C1845.49 587.398 2139.73 335.212 2066.46 254.827C1993.18 174.443 1753.01 360.702 1726.33 261.044C1699.65 161.387 1772.25 98.7204 1612.96 23.9978C1453.67 -50.7249 1364.64 225.602 1171.99 148.715C1101.52 120.589 950.117 37.6672 844.124 32.3935C675.849 24.0208 660.307 137.169 487.992 149.601C384.681 157.055 331.18 49.1488 242.341 63.6463C66.9394 92.2696 -314.04 319.269 -470.908 383.94" stroke="url(#paint19_linear)"/>
<path opacity="0.2" d="M2356.69 624.099C2277.24 720.394 1858.65 751.63 1858.65 617.086C1858.65 577.931 2152.89 325.745 2079.62 245.361C2006.34 164.977 1763.02 349.163 1736.34 249.506C1709.66 149.848 1777.56 88.3743 1618.27 13.6517C1458.98 -61.071 1380.05 218.288 1187.41 141.401C1116.93 113.275 958.296 30.6801 852.303 25.4063C684.028 17.0336 673.723 129.56 501.407 141.992C398.097 149.445 342.519 41.0054 253.68 55.5029C78.2783 84.1262 -314.034 319.268 -470.903 383.939" stroke="url(#paint20_linear)"/>
<path opacity="0.2" d="M2369.84 614.633C2290.39 710.927 1871.8 742.163 1871.8 607.619C1871.8 568.465 2166.05 316.279 2092.77 235.894C2019.5 155.51 1773.02 337.624 1746.34 237.967C1719.66 138.309 1782.86 78.0281 1623.57 3.30539C1464.29 -71.4173 1395.47 210.974 1202.82 134.087C1132.35 105.961 966.473 23.6929 860.48 18.4191C692.204 10.0464 687.136 121.95 514.821 134.382C411.511 141.836 353.856 32.8618 265.017 47.3593C89.6151 75.9826 -314.031 319.267 -470.899 383.938" stroke="url(#paint21_linear)"/>
<path opacity="0.2" d="M-326.568 372.296C-249.96 276.001 153.672 244.765 153.672 379.309C153.672 418.464 -130.057 670.65 -59.4013 751.034C11.2545 831.418 188.155 607.859 213.883 707.517C239.61 807.174 88.0271 891.307 241.622 966.03C395.217 1040.75 656.542 819.007 842.305 895.893C910.259 924.019 930.615 1012.82 1032.82 1018.1C1195.08 1026.47 1300.97 902.121 1467.12 889.689C1566.74 882.236 1582.28 980.528 1667.94 966.03C1837.08 937.407 2007.74 856.978 2159 792.307" stroke="url(#paint22_linear)" stroke-linecap="round" stroke-linejoin="round"/>
<path opacity="0.2" d="M-593 571.092C-516.392 474.797 -112.76 443.561 -112.76 578.105C-112.76 617.26 -396.489 869.446 -325.833 949.83C-255.178 1030.21 -14.4733 850.172 11.2543 949.83C36.9819 1049.49 -19.4288 1108.58 134.166 1183.3C287.761 1258.02 344.37 972.598 530.133 1049.48C598.087 1077.61 765.015 1159.55 867.22 1164.83C1029.48 1173.2 1029.32 1061.92 1195.47 1049.48C1295.09 1042.03 1352.69 1151.54 1438.35 1137.04C1607.49 1108.42 2007.63 856.991 2158.9 792.32" stroke="url(#paint23_linear)" stroke-linecap="round" stroke-linejoin="round"/>
<path opacity="0.2" d="M-339.256 381.762C-262.648 285.468 140.984 254.232 140.984 388.776C140.984 427.93 -142.745 680.116 -72.0893 760.501C-1.43348 840.885 178.505 619.398 204.233 719.055C229.961 818.713 82.9094 901.654 236.504 976.376C390.099 1051.1 641.676 826.32 827.439 903.207C895.393 931.333 922.728 1019.81 1024.93 1025.08C1187.19 1033.46 1288.03 909.73 1454.19 897.298C1553.8 889.845 1571.35 988.671 1657.01 974.174C1826.14 945.55 2007.73 856.978 2158.99 792.307" stroke="url(#paint24_linear)"/>
<path opacity="0.2" d="M-351.942 391.229C-275.335 294.934 128.298 263.698 128.298 398.242C128.298 437.397 -155.432 689.583 -84.7758 769.967C-14.12 850.351 168.857 630.936 194.585 730.594C220.312 830.252 77.7932 912 231.388 986.722C384.983 1061.44 626.812 833.634 812.575 910.521C880.529 938.647 914.844 1026.8 1017.05 1032.07C1179.31 1040.44 1275.09 917.339 1441.25 904.908C1540.87 897.454 1560.41 996.814 1646.08 982.317C1815.21 953.694 2007.73 856.979 2158.99 792.308" stroke="url(#paint25_linear)"/>
<path opacity="0.2" d="M-364.631 400.695C-288.023 304.401 115.609 273.164 115.609 407.708C115.609 446.863 -168.12 699.049 -97.4643 779.433C-26.8085 859.817 159.207 642.475 184.935 742.132C210.662 841.79 72.675 922.345 226.27 997.068C379.865 1071.79 611.945 840.948 797.708 917.835C865.662 945.961 906.956 1033.78 1009.16 1039.06C1171.42 1047.43 1262.16 924.949 1428.31 912.517C1527.93 905.063 1549.48 1004.96 1635.14 990.46C1804.28 961.837 2007.72 856.979 2158.98 792.308" stroke="url(#paint26_linear)"/>
<path opacity="0.2" d="M-377.316 410.161C-300.709 313.867 102.924 282.631 102.924 417.175C102.924 456.329 -180.806 708.516 -110.15 788.9C-39.494 869.284 149.56 654.014 175.287 753.671C201.015 853.329 67.5598 932.692 221.155 1007.41C374.749 1082.14 597.082 848.262 782.844 925.149C850.798 953.275 899.073 1040.77 1001.28 1046.04C1163.54 1054.42 1249.22 932.558 1415.38 920.126C1515 912.673 1538.55 1013.1 1624.21 998.604C1793.35 969.98 2007.72 856.98 2158.98 792.309" stroke="url(#paint27_linear)"/>
<path opacity="0.2" d="M-390.004 419.628C-313.396 323.334 90.2363 292.098 90.2363 426.642C90.2363 465.796 -193.493 717.982 -122.837 798.366C-52.1816 878.75 139.91 665.552 165.638 765.21C191.366 864.868 62.4425 943.038 216.037 1017.76C369.632 1092.48 582.216 855.576 767.979 932.463C835.933 960.589 891.187 1047.76 993.391 1053.03C1155.65 1061.4 1236.29 940.167 1402.44 927.735C1502.06 920.282 1527.62 1021.24 1613.28 1006.75C1782.41 978.124 2007.71 856.981 2158.98 792.31" stroke="url(#paint28_linear)"/>
<path opacity="0.2" d="M-402.691 429.094C-326.084 332.8 77.5489 301.564 77.5489 436.108C77.5489 475.262 -206.181 727.449 -135.525 807.833C-64.869 888.217 130.261 677.091 155.989 776.749C181.717 876.407 57.3253 953.384 210.92 1028.11C364.515 1102.83 567.35 862.89 753.113 939.777C821.067 967.903 883.301 1054.75 985.506 1060.02C1147.77 1068.39 1223.35 947.777 1389.51 935.345C1489.13 927.892 1516.68 1029.39 1602.35 1014.89C1771.48 986.267 2007.71 856.982 2158.97 792.311" stroke="url(#paint29_linear)"/>
<path opacity="0.2" d="M-415.379 438.561C-338.771 342.267 64.8613 311.03 64.8613 445.575C64.8613 484.729 -218.868 736.915 -148.212 817.299C-77.5566 897.683 120.612 688.63 146.34 788.288C172.067 887.945 52.2081 963.73 205.803 1038.45C359.398 1113.18 552.485 870.204 738.247 947.091C806.201 975.217 875.415 1061.73 977.619 1067.01C1139.88 1075.38 1210.42 955.386 1376.57 942.954C1476.19 935.501 1505.75 1037.53 1591.41 1023.03C1760.55 994.411 2007.7 856.982 2158.97 792.311" stroke="url(#paint30_linear)"/>
<path opacity="0.2" d="M-428.066 448.027C-351.459 351.733 52.1739 320.497 52.1739 455.041C52.1739 494.195 -231.556 746.382 -160.9 826.766C-90.244 907.15 110.963 700.169 136.69 799.826C162.418 899.484 47.0909 974.076 200.686 1048.8C354.281 1123.52 537.619 877.517 723.382 954.404C791.336 982.53 867.529 1068.72 969.734 1073.99C1131.99 1082.37 1197.48 962.995 1363.64 950.564C1463.26 943.11 1494.82 1045.67 1580.48 1031.18C1749.61 1002.55 2007.7 856.983 2158.96 792.312" stroke="url(#paint31_linear)"/>
<path opacity="0.2" d="M-440.754 457.494C-364.146 361.199 39.4863 329.963 39.4863 464.507C39.4863 503.662 -244.243 755.848 -173.587 836.232C-102.932 916.616 101.313 711.707 127.041 811.365C152.769 911.023 41.9737 984.422 195.568 1059.15C349.163 1133.87 522.753 884.831 708.516 961.718C776.47 989.844 859.643 1075.71 961.848 1080.98C1124.11 1089.35 1184.54 970.605 1350.7 958.173C1450.32 950.719 1483.88 1053.82 1569.55 1039.32C1738.68 1010.7 2007.69 856.983 2158.95 792.312" stroke="url(#paint32_linear)"/>
<path opacity="0.2" d="M-453.441 466.96C-376.834 370.666 26.7989 339.43 26.7989 473.974C26.7989 513.128 -256.931 765.315 -186.275 845.699C-115.619 926.083 91.6643 723.246 117.392 822.904C143.12 922.562 36.8566 994.769 190.451 1069.49C344.046 1144.21 507.888 892.145 693.651 969.032C761.605 997.158 851.757 1082.69 953.962 1087.97C1116.22 1096.34 1171.61 978.214 1337.77 965.782C1437.38 958.329 1472.95 1061.96 1558.61 1047.46C1727.75 1018.84 2007.69 856.984 2158.95 792.313" stroke="url(#paint33_linear)"/>
<path opacity="0.2" d="M-466.127 476.427C-389.519 380.133 14.1133 348.896 14.1133 483.441C14.1133 522.595 -269.616 774.781 -198.96 855.165C-128.305 935.549 82.0171 734.785 107.745 834.443C133.472 934.1 31.7413 1005.11 185.336 1079.84C338.931 1154.56 493.024 899.459 678.787 976.346C746.741 1004.47 843.873 1089.68 946.078 1094.95C1108.34 1103.33 1158.67 985.824 1324.83 973.392C1424.45 965.938 1462.02 1070.11 1547.68 1055.61C1716.82 1026.98 2007.68 856.985 2158.95 792.314" stroke="url(#paint34_linear)"/>
<path opacity="0.2" d="M-478.814 485.893C-402.207 389.599 1.42584 358.363 1.42584 492.907C1.42584 532.061 -282.304 784.248 -211.648 864.632C-140.992 945.016 72.3678 746.324 98.0955 845.981C123.823 945.639 26.6241 1015.46 180.219 1090.18C333.814 1164.91 478.159 906.773 663.922 983.66C731.875 1011.79 835.987 1096.67 938.192 1101.94C1100.45 1110.31 1145.74 993.433 1311.9 981.001C1411.51 973.547 1451.09 1078.25 1536.75 1063.75C1705.88 1035.13 2007.68 856.985 2158.94 792.314" stroke="url(#paint35_linear)"/>
<path opacity="0.2" d="M-491.502 495.36C-414.894 399.065 -11.2617 367.829 -11.2617 502.373C-11.2617 541.528 -294.991 793.714 -224.335 874.098C-153.68 954.482 62.7186 757.862 88.4462 857.52C114.174 957.178 21.5069 1025.81 175.102 1100.53C328.696 1175.25 463.293 914.087 649.056 990.974C717.01 1019.1 828.101 1103.66 930.306 1108.93C1092.57 1117.3 1132.8 1001.04 1298.96 988.61C1398.58 981.157 1440.15 1086.39 1525.82 1071.89C1694.95 1043.27 2007.67 856.986 2158.94 792.315" stroke="url(#paint36_linear)"/>
<path opacity="0.2" d="M-504.189 504.826C-427.582 408.532 -23.9491 377.296 -23.9491 511.84C-23.9491 550.994 -307.679 803.181 -237.023 883.565C-166.367 963.949 53.0694 769.401 78.797 869.059C104.525 968.716 16.3898 1036.15 169.985 1110.88C323.579 1185.6 448.428 921.401 634.19 998.288C702.144 1026.41 820.215 1110.64 922.42 1115.92C1084.68 1124.29 1119.87 1008.65 1286.02 996.22C1385.64 988.766 1429.22 1094.54 1514.88 1080.04C1684.02 1051.41 2007.67 856.987 2158.93 792.316" stroke="url(#paint37_linear)"/>
<path opacity="0.2" d="M-516.877 514.293C-440.269 417.998 -36.6367 386.762 -36.6367 521.306C-36.6367 560.46 -320.366 812.647 -249.71 893.031C-179.055 973.415 43.4201 780.94 69.1478 880.597C94.8754 980.255 11.2725 1046.5 164.867 1121.22C318.462 1195.94 433.562 928.715 619.325 1005.6C687.279 1033.73 812.329 1117.63 914.534 1122.9C1076.8 1131.28 1106.93 1016.26 1273.09 1003.83C1372.71 996.375 1418.29 1102.68 1503.95 1088.18C1673.08 1059.56 2007.66 856.987 2158.93 792.316" stroke="url(#paint38_linear)"/>
<path opacity="0.2" d="M-529.564 523.759C-452.957 427.465 -49.3242 396.229 -49.3242 530.773C-49.3242 569.927 -333.054 822.114 -262.398 902.498C-191.742 982.882 33.7709 792.479 59.4986 892.136C85.2262 991.794 6.15528 1056.85 159.75 1131.57C313.345 1206.29 418.696 936.029 604.459 1012.92C672.413 1041.04 804.443 1124.62 906.648 1129.89C1068.91 1138.26 1094 1023.87 1260.15 1011.44C1359.77 1003.98 1407.35 1110.82 1493.02 1096.32C1662.15 1067.7 2007.66 856.988 2158.92 792.317" stroke="url(#paint39_linear)"/>
<path opacity="0.2" d="M-542.251 533.226C-465.643 436.932 -62.0107 405.695 -62.0107 540.239C-62.0107 579.394 -345.74 831.58 -275.084 911.964C-204.429 992.348 24.1226 804.018 49.8503 903.675C75.5779 1003.33 1.03902 1067.19 154.634 1141.91C308.229 1216.64 403.832 943.343 589.594 1020.23C657.548 1048.36 796.558 1131.6 898.763 1136.88C1061.02 1145.25 1081.06 1031.48 1247.22 1019.05C1346.84 1011.59 1396.42 1118.97 1482.09 1104.47C1651.22 1075.85 2007.65 856.989 2158.92 792.318" stroke="url(#paint40_linear)"/>
<path opacity="0.2" d="M-554.938 542.692C-478.331 446.398 -74.6981 415.162 -74.6981 549.706C-74.6981 588.86 -358.428 841.046 -287.772 921.43C-217.116 1001.81 14.4735 815.556 40.2012 915.214C65.9288 1014.87 -4.07809 1077.54 149.517 1152.26C303.112 1226.98 388.966 950.656 574.729 1027.54C642.683 1055.67 788.672 1138.59 890.877 1143.86C1053.14 1152.24 1068.12 1039.09 1234.28 1026.66C1333.9 1019.2 1385.49 1127.11 1471.15 1112.61C1640.29 1083.99 2007.65 856.989 2158.91 792.318" stroke="url(#paint41_linear)"/>
<path opacity="0.2" d="M-567.626 552.159C-491.018 455.864 -87.3857 424.628 -87.3857 559.172C-87.3857 598.326 -371.115 850.513 -300.459 930.897C-229.804 1011.28 4.82421 827.095 30.5518 926.752C56.2795 1026.41 -9.19533 1087.88 144.399 1162.61C297.994 1237.33 374.1 957.97 559.863 1034.86C627.817 1062.98 780.786 1145.58 882.991 1150.85C1045.25 1159.22 1055.19 1046.7 1221.35 1034.27C1320.96 1026.81 1374.56 1135.25 1460.22 1120.76C1629.35 1092.13 2007.64 856.99 2158.91 792.319" stroke="url(#paint42_linear)"/>
<path opacity="0.2" d="M-580.312 561.625C-503.705 465.331 -100.072 434.095 -100.072 568.639C-100.072 607.793 -383.802 859.979 -313.146 940.363C-242.49 1020.75 -4.82403 838.633 20.9036 938.291C46.6312 1037.95 -14.3115 1098.23 139.283 1172.95C292.878 1247.68 359.236 965.284 544.999 1042.17C612.953 1070.3 772.901 1152.56 875.106 1157.84C1037.37 1166.21 1042.25 1054.31 1208.41 1041.88C1308.03 1034.42 1363.62 1143.4 1449.29 1128.9C1618.42 1100.28 2007.64 856.99 2158.9 792.319" stroke="url(#paint43_linear)"/>
</g>
<defs>
<linearGradient id="paint0_linear" x1="817.847" y1="887.256" x2="817.847" y2="157.757" gradientUnits="userSpaceOnUse">
<stop stop-color="#333399"/>
<stop offset="1" stop-color="#333399" stop-opacity="0.54"/>
</linearGradient>
<linearGradient id="paint1_linear" x1="956.054" y1="688.46" x2="956.054" y2="-19.6356" gradientUnits="userSpaceOnUse">
<stop stop-color="#333399"/>
<stop offset="1" stop-color="#333399" stop-opacity="0.54"/>
</linearGradient>
<linearGradient id="paint2_linear" x1="824.428" y1="877.79" x2="824.428" y2="150.768" gradientUnits="userSpaceOnUse">
<stop stop-color="#333399"/>
<stop offset="1" stop-color="#333399" stop-opacity="0.54"/>
</linearGradient>
<linearGradient id="paint3_linear" x1="831.009" y1="868.323" x2="831.009" y2="143.779" gradientUnits="userSpaceOnUse">
<stop stop-color="#333399"/>
<stop offset="1" stop-color="#333399" stop-opacity="0.54"/>
</linearGradient>
<linearGradient id="paint4_linear" x1="837.591" y1="858.857" x2="837.591" y2="136.79" gradientUnits="userSpaceOnUse">
<stop stop-color="#333399"/>
<stop offset="1" stop-color="#333399" stop-opacity="0.54"/>
</linearGradient>
<linearGradient id="paint5_linear" x1="844.171" y1="849.391" x2="844.171" y2="129.801" gradientUnits="userSpaceOnUse">
<stop stop-color="#333399"/>
<stop offset="1" stop-color="#333399" stop-opacity="0.54"/>
</linearGradient>
<linearGradient id="paint6_linear" x1="850.753" y1="839.924" x2="850.753" y2="122.812" gradientUnits="userSpaceOnUse">
<stop stop-color="#333399"/>
<stop offset="1" stop-color="#333399" stop-opacity="0.54"/>
</linearGradient>
<linearGradient id="paint7_linear" x1="857.334" y1="830.457" x2="857.334" y2="115.822" gradientUnits="userSpaceOnUse">
<stop stop-color="#333399"/>
<stop offset="1" stop-color="#333399" stop-opacity="0.54"/>
</linearGradient>
<linearGradient id="paint8_linear" x1="863.915" y1="820.991" x2="863.915" y2="108.833" gradientUnits="userSpaceOnUse">
<stop stop-color="#333399"/>
<stop offset="1" stop-color="#333399" stop-opacity="0.54"/>
</linearGradient>
<linearGradient id="paint9_linear" x1="870.497" y1="811.525" x2="870.497" y2="101.844" gradientUnits="userSpaceOnUse">
<stop stop-color="#333399"/>
<stop offset="1" stop-color="#333399" stop-opacity="0.54"/>
</linearGradient>
<linearGradient id="paint10_linear" x1="877.078" y1="802.058" x2="877.078" y2="94.8549" gradientUnits="userSpaceOnUse">
<stop stop-color="#333399"/>
<stop offset="1" stop-color="#333399" stop-opacity="0.54"/>
</linearGradient>
<linearGradient id="paint11_linear" x1="883.659" y1="792.592" x2="883.659" y2="87.8656" gradientUnits="userSpaceOnUse">
<stop stop-color="#333399"/>
<stop offset="1" stop-color="#333399" stop-opacity="0.54"/>
</linearGradient>
<linearGradient id="paint12_linear" x1="890.24" y1="783.125" x2="890.24" y2="80.8764" gradientUnits="userSpaceOnUse">
<stop stop-color="#333399"/>
<stop offset="1" stop-color="#333399" stop-opacity="0.54"/>
</linearGradient>
<linearGradient id="paint13_linear" x1="896.821" y1="773.659" x2="896.821" y2="72.3401" gradientUnits="userSpaceOnUse">
<stop stop-color="#333399"/>
<stop offset="1" stop-color="#333399" stop-opacity="0.54"/>
</linearGradient>
<linearGradient id="paint14_linear" x1="903.403" y1="764.192" x2="903.403" y2="62.1308" gradientUnits="userSpaceOnUse">
<stop stop-color="#333399"/>
<stop offset="1" stop-color="#333399" stop-opacity="0.54"/>
</linearGradient>
<linearGradient id="paint15_linear" x1="909.984" y1="754.726" x2="909.984" y2="51.9188" gradientUnits="userSpaceOnUse">
<stop stop-color="#333399"/>
<stop offset="1" stop-color="#333399" stop-opacity="0.54"/>
</linearGradient>
<linearGradient id="paint16_linear" x1="916.565" y1="745.259" x2="916.565" y2="41.7039" gradientUnits="userSpaceOnUse">
<stop stop-color="#333399"/>
<stop offset="1" stop-color="#333399" stop-opacity="0.54"/>
</linearGradient>
<linearGradient id="paint17_linear" x1="923.147" y1="735.793" x2="923.147" y2="31.4866" gradientUnits="userSpaceOnUse">
<stop stop-color="#333399"/>
<stop offset="1" stop-color="#333399" stop-opacity="0.54"/>
</linearGradient>
<linearGradient id="paint18_linear" x1="929.729" y1="726.326" x2="929.729" y2="21.2668" gradientUnits="userSpaceOnUse">
<stop stop-color="#333399"/>
<stop offset="1" stop-color="#333399" stop-opacity="0.54"/>
</linearGradient>
<linearGradient id="paint19_linear" x1="936.309" y1="716.86" x2="936.309" y2="11.0449" gradientUnits="userSpaceOnUse">
<stop stop-color="#333399"/>
<stop offset="1" stop-color="#333399" stop-opacity="0.54"/>
</linearGradient>
<linearGradient id="paint20_linear" x1="942.891" y1="707.393" x2="942.891" y2="0.820374" gradientUnits="userSpaceOnUse">
<stop stop-color="#333399"/>
<stop offset="1" stop-color="#333399" stop-opacity="0.54"/>
</linearGradient>
<linearGradient id="paint21_linear" x1="949.472" y1="697.927" x2="949.472" y2="-9.40662" gradientUnits="userSpaceOnUse">
<stop stop-color="#333399"/>
<stop offset="1" stop-color="#333399" stop-opacity="0.54"/>
</linearGradient>
<linearGradient id="paint22_linear" x1="916.216" y1="289.002" x2="916.216" y2="1018.5" gradientUnits="userSpaceOnUse">
<stop stop-color="#333399"/>
<stop offset="1" stop-color="#333399" stop-opacity="0.54"/>
</linearGradient>
<linearGradient id="paint23_linear" x1="782.948" y1="487.798" x2="782.948" y2="1195.89" gradientUnits="userSpaceOnUse">
<stop stop-color="#333399"/>
<stop offset="1" stop-color="#333399" stop-opacity="0.54"/>
</linearGradient>
<linearGradient id="paint24_linear" x1="909.869" y1="298.468" x2="909.869" y2="1025.49" gradientUnits="userSpaceOnUse">
<stop stop-color="#333399"/>
<stop offset="1" stop-color="#333399" stop-opacity="0.54"/>
</linearGradient>
<linearGradient id="paint25_linear" x1="903.524" y1="307.935" x2="903.524" y2="1032.48" gradientUnits="userSpaceOnUse">
<stop stop-color="#333399"/>
<stop offset="1" stop-color="#333399" stop-opacity="0.54"/>
</linearGradient>
<linearGradient id="paint26_linear" x1="897.177" y1="317.401" x2="897.177" y2="1039.47" gradientUnits="userSpaceOnUse">
<stop stop-color="#333399"/>
<stop offset="1" stop-color="#333399" stop-opacity="0.54"/>
</linearGradient>
<linearGradient id="paint27_linear" x1="890.832" y1="326.867" x2="890.832" y2="1046.46" gradientUnits="userSpaceOnUse">
<stop stop-color="#333399"/>
<stop offset="1" stop-color="#333399" stop-opacity="0.54"/>
</linearGradient>
<linearGradient id="paint28_linear" x1="884.486" y1="336.334" x2="884.486" y2="1053.45" gradientUnits="userSpaceOnUse">
<stop stop-color="#333399"/>
<stop offset="1" stop-color="#333399" stop-opacity="0.54"/>
</linearGradient>
<linearGradient id="paint29_linear" x1="878.14" y1="345.8" x2="878.14" y2="1060.44" gradientUnits="userSpaceOnUse">
<stop stop-color="#333399"/>
<stop offset="1" stop-color="#333399" stop-opacity="0.54"/>
</linearGradient>
<linearGradient id="paint30_linear" x1="871.793" y1="355.267" x2="871.793" y2="1067.42" gradientUnits="userSpaceOnUse">
<stop stop-color="#333399"/>
<stop offset="1" stop-color="#333399" stop-opacity="0.54"/>
</linearGradient>
<linearGradient id="paint31_linear" x1="865.447" y1="364.733" x2="865.447" y2="1074.41" gradientUnits="userSpaceOnUse">
<stop stop-color="#333399"/>
<stop offset="1" stop-color="#333399" stop-opacity="0.54"/>
</linearGradient>
<linearGradient id="paint32_linear" x1="859.1" y1="374.2" x2="859.1" y2="1081.4" gradientUnits="userSpaceOnUse">
<stop stop-color="#333399"/>
<stop offset="1" stop-color="#333399" stop-opacity="0.54"/>
</linearGradient>
<linearGradient id="paint33_linear" x1="852.754" y1="383.666" x2="852.754" y2="1088.39" gradientUnits="userSpaceOnUse">
<stop stop-color="#333399"/>
<stop offset="1" stop-color="#333399" stop-opacity="0.54"/>
</linearGradient>
<linearGradient id="paint34_linear" x1="846.41" y1="393.133" x2="846.41" y2="1095.38" gradientUnits="userSpaceOnUse">
<stop stop-color="#333399"/>
<stop offset="1" stop-color="#333399" stop-opacity="0.54"/>
</linearGradient>
<linearGradient id="paint35_linear" x1="840.063" y1="402.599" x2="840.063" y2="1103.92" gradientUnits="userSpaceOnUse">
<stop stop-color="#333399"/>
<stop offset="1" stop-color="#333399" stop-opacity="0.54"/>
</linearGradient>
<linearGradient id="paint36_linear" x1="833.717" y1="412.066" x2="833.717" y2="1114.13" gradientUnits="userSpaceOnUse">
<stop stop-color="#333399"/>
<stop offset="1" stop-color="#333399" stop-opacity="0.54"/>
</linearGradient>
<linearGradient id="paint37_linear" x1="827.371" y1="421.532" x2="827.371" y2="1124.34" gradientUnits="userSpaceOnUse">
<stop stop-color="#333399"/>
<stop offset="1" stop-color="#333399" stop-opacity="0.54"/>
</linearGradient>
<linearGradient id="paint38_linear" x1="821.024" y1="430.999" x2="821.024" y2="1134.55" gradientUnits="userSpaceOnUse">
<stop stop-color="#333399"/>
<stop offset="1" stop-color="#333399" stop-opacity="0.54"/>
</linearGradient>
<linearGradient id="paint39_linear" x1="814.678" y1="440.465" x2="814.678" y2="1144.77" gradientUnits="userSpaceOnUse">
<stop stop-color="#333399"/>
<stop offset="1" stop-color="#333399" stop-opacity="0.54"/>
</linearGradient>
<linearGradient id="paint40_linear" x1="808.333" y1="449.932" x2="808.333" y2="1154.99" gradientUnits="userSpaceOnUse">
<stop stop-color="#333399"/>
<stop offset="1" stop-color="#333399" stop-opacity="0.54"/>
</linearGradient>
<linearGradient id="paint41_linear" x1="801.986" y1="459.398" x2="801.986" y2="1165.21" gradientUnits="userSpaceOnUse">
<stop stop-color="#333399"/>
<stop offset="1" stop-color="#333399" stop-opacity="0.54"/>
</linearGradient>
<linearGradient id="paint42_linear" x1="795.64" y1="468.865" x2="795.64" y2="1175.44" gradientUnits="userSpaceOnUse">
<stop stop-color="#333399"/>
<stop offset="1" stop-color="#333399" stop-opacity="0.54"/>
</linearGradient>
<linearGradient id="paint43_linear" x1="789.295" y1="478.331" x2="789.295" y2="1185.66" gradientUnits="userSpaceOnUse">
<stop stop-color="#333399"/>
<stop offset="1" stop-color="#333399" stop-opacity="0.54"/>
</linearGradient>
</defs>
</svg>
