<svg width="768" height="1872" viewBox="0 0 768 1872" fill="none" xmlns="http://www.w3.org/2000/svg">
<mask id="mask0" mask-type="alpha" maskUnits="userSpaceOnUse" x="-98" y="0" width="992" height="1872">
<path d="M-98 0H384.197H894V1872H-98V0Z" fill="#EDEDEE"/>
</mask>
<g mask="url(#mask0)">
<path opacity="0.2" d="M1044.76 1521.91C1001.37 1702.15 772.76 1760.62 772.76 1508.78C772.76 1435.5 933.459 963.464 893.441 813.005C853.423 662.545 753.229 1080.99 738.657 894.459C724.086 707.924 809.94 550.447 722.947 410.584C635.953 270.722 487.943 685.777 382.73 541.863C344.242 489.218 332.713 323 274.825 313.128C182.923 297.457 122.952 530.207 28.8439 553.476C-27.5781 567.427 -36.379 383.449 -84.8979 410.584C-180.692 464.16 -277.352 614.704 -363.024 735.752" stroke="url(#paint0_linear)" stroke-linecap="round" stroke-linejoin="round"/>
<path opacity="0.2" d="M1195.66 1149.81C1152.27 1330.05 923.662 1388.52 923.662 1136.69C923.662 1063.4 1084.36 591.366 1044.34 440.907C1004.33 290.447 867.994 627.442 853.422 440.907C838.851 254.372 870.801 143.773 783.807 3.90992C696.814 -135.953 664.751 398.29 559.538 254.377C521.05 201.732 426.505 48.3576 368.618 38.4864C276.716 22.8147 276.808 231.107 182.7 254.377C126.278 268.328 93.656 63.3553 45.1371 90.4911C-50.6569 144.067 -277.294 614.678 -362.966 735.727" stroke="url(#paint1_linear)" stroke-linecap="round" stroke-linejoin="round"/>
<path opacity="0.2" d="M1051.95 1504.19C1008.56 1684.43 779.945 1742.9 779.945 1491.06C779.945 1417.78 940.645 945.745 900.627 795.285C860.608 644.826 758.694 1059.4 744.122 872.861C729.551 686.326 812.838 531.081 725.845 391.219C638.851 251.356 496.362 672.087 391.149 528.173C352.661 475.528 337.179 309.921 279.292 300.05C187.39 284.378 130.279 515.964 36.1702 539.233C-20.2518 553.184 -30.187 368.206 -78.7059 395.342C-174.5 448.917 -277.349 614.702 -363.021 735.751" stroke="url(#paint2_linear)"/>
<path opacity="0.2" d="M1059.13 1486.47C1015.74 1666.71 787.131 1725.18 787.131 1473.35C787.131 1400.06 947.83 928.026 907.812 777.567C867.794 627.107 764.159 1037.8 749.587 851.263C735.015 664.728 815.736 511.716 728.742 371.854C641.749 231.991 504.781 658.397 399.568 514.484C361.08 461.839 341.645 296.843 283.758 286.972C191.856 271.3 137.605 501.721 43.4964 524.991C-12.9256 538.942 -23.9952 352.964 -72.5141 380.099C-168.308 433.675 -277.347 614.701 -363.019 735.75" stroke="url(#paint3_linear)"/>
<path opacity="0.2" d="M1066.32 1468.75C1022.93 1648.99 794.317 1707.46 794.317 1455.63C794.317 1382.34 955.017 910.307 914.998 759.848C874.98 609.388 769.624 1016.2 755.052 829.666C740.481 643.131 818.634 492.351 731.641 352.488C644.647 212.625 513.201 644.707 407.988 500.794C369.5 448.149 346.111 283.765 288.224 273.894C196.322 258.222 144.932 487.478 50.8231 510.748C-5.59888 524.699 -17.8027 337.721 -66.3216 364.857C-162.116 418.433 -277.344 614.7 -363.016 735.748" stroke="url(#paint4_linear)"/>
<path opacity="0.2" d="M1073.5 1451.04C1030.11 1631.27 801.502 1689.74 801.502 1437.91C801.502 1364.62 962.202 892.589 922.184 742.129C882.165 591.669 775.089 994.603 760.517 808.068C745.945 621.533 821.532 472.985 734.538 333.123C647.545 193.26 521.62 631.018 416.407 487.104C377.919 434.459 350.577 270.687 292.69 260.816C200.788 245.144 152.258 473.236 58.1491 496.505C1.72715 510.456 -11.611 322.479 -60.1299 349.614C-155.924 403.19 -277.341 614.699 -363.013 735.747" stroke="url(#paint5_linear)"/>
<path opacity="0.2" d="M1080.69 1433.32C1037.3 1613.56 808.689 1672.02 808.689 1420.19C808.689 1346.9 969.388 874.869 929.37 724.41C889.352 573.95 780.554 973.005 765.983 786.47C751.411 599.935 824.431 453.62 737.437 313.757C650.444 173.895 530.04 617.328 424.827 473.414C386.339 420.769 355.044 257.609 297.157 247.738C205.255 232.066 159.585 458.993 65.4763 482.262C9.05432 496.213 -5.4182 307.236 -53.9371 334.372C-149.731 387.948 -277.338 614.698 -363.01 735.746" stroke="url(#paint6_linear)"/>
<path opacity="0.2" d="M1087.87 1415.6C1044.48 1595.84 815.874 1654.3 815.874 1402.47C815.874 1329.18 976.574 857.15 936.556 706.691C896.537 556.231 786.019 951.407 771.447 764.872C756.876 578.337 827.329 434.254 740.335 294.392C653.342 154.529 538.459 603.638 433.246 459.724C394.758 407.079 359.51 244.53 301.623 234.659C209.721 218.988 166.911 444.75 72.8025 468.019C16.3805 481.97 0.773646 291.993 -47.7452 319.129C-143.539 372.705 -277.335 614.696 -363.007 735.745" stroke="url(#paint7_linear)"/>
<path opacity="0.2" d="M1095.06 1397.88C1051.67 1578.12 823.061 1636.58 823.061 1384.75C823.061 1311.46 983.76 839.431 943.742 688.972C903.724 538.512 791.484 929.81 776.913 743.275C762.341 556.74 830.227 414.889 743.234 275.026C656.24 135.163 546.879 589.948 441.666 446.034C403.178 393.389 363.977 231.452 306.09 221.581C214.188 205.909 174.238 430.507 80.1294 453.776C23.7074 467.727 6.96615 276.751 -41.5527 303.886C-137.347 357.462 -277.332 614.695 -363.004 735.743" stroke="url(#paint8_linear)"/>
<path opacity="0.2" d="M1102.25 1380.16C1058.86 1560.4 830.246 1618.87 830.246 1367.03C830.246 1293.74 990.946 821.712 950.928 671.253C910.909 520.793 796.949 908.212 782.378 721.677C767.806 535.142 833.125 395.523 746.132 255.661C659.138 115.798 555.298 576.258 450.085 432.344C411.597 379.699 368.443 218.374 310.556 208.503C218.654 192.831 181.564 416.264 87.4556 439.534C31.0337 453.485 13.1582 261.508 -35.3607 288.644C-131.155 342.22 -277.33 614.694 -363.002 735.742" stroke="url(#paint9_linear)"/>
<path opacity="0.2" d="M1109.43 1362.44C1066.04 1542.68 837.432 1601.15 837.432 1349.31C837.432 1276.03 998.131 803.994 958.113 653.534C918.095 503.075 802.414 886.614 787.842 700.079C773.27 513.544 836.023 376.158 749.029 236.295C662.036 96.4327 563.717 562.568 458.505 418.655C420.017 366.01 372.909 205.296 315.022 195.425C223.12 179.753 188.89 402.021 94.7817 425.291C38.3598 439.242 19.3499 246.266 -29.1689 273.402C-124.963 326.977 -277.327 614.693 -362.999 735.741" stroke="url(#paint10_linear)"/>
<path opacity="0.2" d="M1116.62 1344.72C1073.23 1524.96 844.618 1583.43 844.618 1331.59C844.618 1258.31 1005.32 786.275 965.299 635.815C925.281 485.355 807.879 865.017 793.307 678.482C778.736 491.946 838.921 356.792 751.928 216.93C664.934 77.067 572.137 548.878 466.924 404.965C428.436 352.32 377.375 192.218 319.488 182.346C227.586 166.675 196.217 387.778 102.108 411.048C45.6863 424.999 25.5421 231.023 -22.9768 258.159C-118.771 311.735 -277.324 614.692 -362.996 735.74" stroke="url(#paint11_linear)"/>
<path opacity="0.2" d="M1123.8 1327C1080.41 1507.24 851.803 1565.71 851.803 1313.87C851.803 1240.59 1012.5 768.556 972.485 618.096C932.467 467.637 813.344 843.419 798.772 656.884C784.201 470.349 841.819 337.427 754.826 197.565C667.832 57.702 580.556 535.189 475.344 391.275C436.856 338.63 381.842 179.14 323.955 169.268C232.053 153.597 203.543 373.536 109.435 396.805C53.0129 410.756 31.7343 215.781 -16.7846 242.917C-112.579 296.493 -277.322 614.691 -362.994 735.739" stroke="url(#paint12_linear)"/>
<path opacity="0.2" d="M1130.99 1309.28C1087.6 1489.52 858.99 1547.99 858.99 1296.16C858.99 1222.87 1019.69 750.837 979.671 600.377C939.653 449.918 818.809 821.821 804.238 635.286C789.666 448.751 844.718 318.061 757.724 178.199C670.731 38.3361 588.976 521.499 483.763 377.585C445.275 324.94 386.308 166.061 328.421 156.19C236.519 140.518 210.87 359.293 116.762 382.562C60.3398 396.513 37.9268 200.538 -10.5921 227.674C-106.386 281.25 -277.318 614.689 -362.991 735.737" stroke="url(#paint13_linear)"/>
<path opacity="0.2" d="M1138.17 1291.56C1094.79 1471.8 866.175 1530.27 866.175 1278.44C866.175 1205.15 1026.87 733.118 986.856 582.658C946.838 432.199 824.274 800.224 809.702 613.689C795.13 427.154 847.615 298.696 760.622 158.834C673.628 18.971 597.395 507.809 492.182 363.896C453.694 311.25 390.774 152.983 332.887 143.112C240.985 127.44 218.196 345.05 124.088 368.32C67.6655 382.271 44.1182 185.296 -4.40065 212.431C-100.195 266.007 -277.316 614.688 -362.989 735.736" stroke="url(#paint14_linear)"/>
<path opacity="0.2" d="M1145.36 1273.85C1101.97 1454.09 873.361 1512.55 873.361 1260.72C873.361 1187.43 1034.06 715.399 994.042 564.939C954.024 414.48 829.739 778.626 815.167 592.091C800.596 405.556 850.514 279.331 763.52 139.468C676.527 -0.394428 605.815 494.119 500.602 350.206C462.114 297.561 395.241 139.905 337.354 130.034C245.452 114.362 225.523 330.807 131.414 354.077C74.9925 368.028 50.3109 170.053 1.79204 197.189C-94.0019 250.765 -277.313 614.687 -362.985 735.735" stroke="url(#paint15_linear)"/>
<path opacity="0.2" d="M1152.55 1256.13C1109.16 1436.37 880.547 1494.83 880.547 1243C880.547 1169.71 1041.25 697.68 1001.23 547.22C961.21 396.761 835.204 757.028 820.633 570.493C806.061 383.958 853.412 259.965 766.419 120.103C679.425 -19.7599 614.235 480.429 509.022 336.516C470.534 283.871 399.708 126.827 341.82 116.956C249.918 101.284 232.85 316.565 138.741 339.834C82.3194 353.785 56.5035 154.811 7.98462 181.946C-87.8093 235.522 -277.31 614.686 -362.982 735.734" stroke="url(#paint16_linear)"/>
<path opacity="0.2" d="M1159.73 1238.41C1116.34 1418.65 887.733 1477.11 887.733 1225.28C887.733 1151.99 1048.43 679.961 1008.41 529.501C968.396 379.042 840.669 735.43 826.098 548.895C811.526 362.36 856.31 240.6 769.317 100.737C682.323 -39.1255 622.654 466.739 517.441 322.826C478.953 270.181 404.174 113.749 346.286 103.877C254.384 88.2057 240.176 302.322 146.068 325.591C89.6455 339.542 62.6953 139.568 14.1764 166.704C-81.6176 220.28 -277.307 614.684 -362.98 735.733" stroke="url(#paint17_linear)"/>
<path opacity="0.2" d="M1166.92 1220.69C1123.53 1400.93 894.918 1459.39 894.918 1207.56C894.918 1134.27 1055.62 662.242 1015.6 511.782C975.582 361.323 846.134 713.832 831.562 527.297C816.991 340.762 859.208 221.234 772.215 81.3714C685.221 -58.4913 631.073 453.049 525.86 309.136C487.372 256.491 408.64 100.67 350.753 90.7988C258.851 75.1272 247.502 288.078 153.394 311.348C96.9718 325.299 68.8872 124.325 20.3683 151.461C-75.4257 205.037 -277.305 614.683 -362.977 735.731" stroke="url(#paint18_linear)"/>
<path opacity="0.2" d="M1174.1 1202.97C1130.71 1383.21 902.104 1441.68 902.104 1189.84C902.104 1116.55 1062.8 644.523 1022.79 494.064C982.767 343.604 851.599 692.235 837.027 505.7C822.456 319.165 862.106 201.869 775.113 62.0064C688.119 -77.8563 639.493 439.36 534.28 295.446C495.792 242.801 413.106 87.5923 355.219 77.7211C263.317 62.0495 254.829 273.836 160.72 297.105C104.298 311.056 75.0793 109.083 26.5604 136.219C-69.2336 189.795 -277.302 614.682 -362.974 735.73" stroke="url(#paint19_linear)"/>
<path opacity="0.2" d="M1181.29 1185.25C1137.9 1365.49 909.29 1423.96 909.29 1172.12C909.29 1098.84 1069.99 626.804 1029.97 476.345C989.953 325.885 857.064 670.637 842.492 484.102C827.921 297.567 865.004 182.504 778.011 42.6412C691.017 -97.2214 647.912 425.67 542.699 281.757C504.211 229.112 417.572 74.5143 359.685 64.6431C267.783 48.9715 262.155 259.593 168.047 282.863C111.625 296.814 81.2716 93.8408 32.7527 120.977C-63.0413 174.552 -277.299 614.681 -362.971 735.729" stroke="url(#paint20_linear)"/>
<path opacity="0.2" d="M1188.48 1167.53C1145.09 1347.77 916.476 1406.24 916.476 1154.4C916.476 1081.12 1077.18 609.085 1037.16 458.626C997.139 308.166 862.529 649.039 847.957 462.504C833.385 275.97 867.902 163.138 780.909 23.2756C693.915 -116.587 656.331 411.98 551.118 268.067C512.63 215.422 422.038 61.436 364.151 51.5648C272.249 35.8931 269.481 245.35 175.373 268.62C118.951 282.571 87.4633 78.5981 38.9444 105.734C-56.8496 159.31 -277.297 614.68 -362.969 735.728" stroke="url(#paint21_linear)"/>
<path opacity="0.2" d="M-123.34 713.936C-86.4571 533.696 107.87 475.23 107.87 727.064C107.87 800.351 -28.7304 1272.38 5.28657 1422.84C39.3035 1573.3 124.472 1154.85 136.858 1341.39C149.244 1527.92 76.2653 1685.4 150.213 1825.26C224.16 1965.12 349.975 1550.07 439.409 1693.98C472.125 1746.63 481.926 1912.85 531.132 1922.72C609.252 1938.39 660.229 1705.64 740.225 1682.37C788.185 1668.42 795.666 1852.4 836.909 1825.26C918.337 1771.69 1000.5 1621.14 1073.33 1500.09" stroke="url(#paint22_linear)" stroke-linecap="round" stroke-linejoin="round"/>
<path opacity="0.2" d="M-251.612 1086.03C-214.73 905.794 -20.4026 847.328 -20.4026 1099.16C-20.4026 1172.45 -157.003 1644.48 -122.986 1794.94C-88.969 1945.4 26.917 1608.41 39.3035 1794.94C51.6899 1981.48 24.5312 2092.07 98.4787 2231.94C172.426 2371.8 199.681 1837.56 289.115 1981.47C321.831 2034.12 402.198 2187.49 451.404 2197.36C529.524 2213.03 529.446 2004.74 609.441 1981.47C657.402 1967.52 685.132 2172.49 726.374 2145.36C807.803 2091.78 1000.45 1621.17 1073.28 1500.12" stroke="url(#paint23_linear)" stroke-linecap="round" stroke-linejoin="round"/>
<path opacity="0.2" d="M-129.448 731.655C-92.565 551.415 101.762 492.949 101.762 744.783C101.762 818.07 -34.8383 1290.1 -0.821359 1440.56C33.1956 1591.02 119.826 1176.45 132.213 1362.99C144.599 1549.52 73.8021 1704.77 147.75 1844.63C221.697 1984.49 342.818 1563.76 432.253 1707.67C464.969 1760.32 478.129 1925.93 527.335 1935.8C605.455 1951.47 654.002 1719.88 733.997 1696.61C781.958 1682.66 790.403 1867.64 831.646 1840.51C913.074 1786.93 1000.5 1621.14 1073.32 1500.1" stroke="url(#paint24_linear)"/>
<path opacity="0.2" d="M-135.556 749.374C-98.6734 569.134 95.6537 510.668 95.6537 762.502C95.6537 835.789 -40.9467 1307.82 -6.92974 1458.28C27.0872 1608.74 115.181 1198.05 127.567 1384.58C139.954 1571.12 71.3384 1724.13 145.286 1863.99C219.233 2003.86 335.661 1577.45 425.096 1721.36C457.812 1774.01 474.333 1939 523.539 1948.87C601.659 1964.55 647.774 1734.13 727.769 1710.86C775.73 1696.91 785.14 1882.88 826.382 1855.75C907.811 1802.17 1000.5 1621.15 1073.32 1500.1" stroke="url(#paint25_linear)"/>
<path opacity="0.2" d="M-141.665 767.092C-104.782 586.853 89.545 528.386 89.545 780.22C89.545 853.507 -47.0553 1325.54 -13.0384 1476C20.9785 1626.46 110.535 1219.65 122.921 1406.18C135.308 1592.72 68.8744 1743.5 142.822 1883.36C216.769 2023.22 328.504 1591.14 417.938 1735.05C450.654 1787.7 470.536 1952.08 519.742 1961.95C597.862 1977.62 641.545 1748.37 721.541 1725.1C769.502 1711.15 779.875 1898.13 821.118 1870.99C902.546 1817.41 1000.49 1621.15 1073.32 1500.1" stroke="url(#paint26_linear)"/>
<path opacity="0.2" d="M-147.772 784.811C-110.89 604.572 83.4371 546.105 83.4371 797.939C83.4371 871.226 -53.1632 1343.26 -19.1463 1493.72C14.8706 1644.18 105.89 1241.24 118.276 1427.78C130.663 1614.31 66.4112 1762.86 140.359 1902.72C214.306 2042.59 321.347 1604.83 410.782 1748.74C443.498 1801.39 466.739 1965.16 515.945 1975.03C594.065 1990.7 635.318 1762.61 715.314 1739.34C763.274 1725.39 774.612 1913.37 815.855 1886.23C897.283 1832.66 1000.49 1621.15 1073.32 1500.1" stroke="url(#paint27_linear)"/>
<path opacity="0.2" d="M-153.88 802.53C-116.998 622.291 77.3292 563.824 77.3292 815.658C77.3292 888.945 -59.2711 1360.98 -25.2542 1511.44C8.7627 1661.9 101.245 1262.84 113.631 1449.38C126.017 1635.91 63.948 1782.23 137.895 1922.09C211.843 2061.95 314.191 1618.52 403.625 1762.43C436.341 1815.08 462.943 1978.24 512.149 1988.11C590.269 2003.78 629.09 1776.85 709.086 1753.58C757.047 1739.63 769.349 1928.61 810.592 1901.47C892.02 1847.9 1000.49 1621.15 1073.31 1500.1" stroke="url(#paint28_linear)"/>
<path opacity="0.2" d="M-159.989 820.249C-123.106 640.01 71.2211 581.543 71.2211 833.377C71.2211 906.664 -65.3793 1378.7 -31.3623 1529.16C2.65461 1679.62 96.5992 1284.44 108.986 1470.97C121.372 1657.51 61.4846 1801.59 135.432 1941.45C209.38 2081.32 307.034 1632.21 396.469 1776.12C429.185 1828.77 459.147 1991.32 508.353 2001.19C586.473 2016.86 622.863 1791.1 702.859 1767.83C750.819 1753.88 764.086 1943.85 805.328 1916.72C886.757 1863.14 1000.49 1621.15 1073.31 1500.1" stroke="url(#paint29_linear)"/>
<path opacity="0.2" d="M-166.097 837.968C-129.215 657.729 65.1124 599.262 65.1124 851.096C65.1124 924.383 -71.4879 1396.42 -37.471 1546.87C-3.45409 1697.33 91.9533 1306.04 104.34 1492.57C116.726 1679.11 59.0205 1820.96 132.968 1960.82C206.916 2100.68 299.876 1645.9 389.311 1789.81C422.027 1842.46 455.35 2004.39 504.556 2014.27C582.676 2029.94 616.635 1805.34 696.63 1782.07C744.591 1768.12 758.821 1959.1 800.064 1931.96C881.492 1878.38 1000.48 1621.15 1073.31 1500.1" stroke="url(#paint30_linear)"/>
<path opacity="0.2" d="M-172.206 855.687C-135.323 675.448 59.004 616.981 59.004 868.815C59.004 942.102 -77.5963 1414.13 -43.5794 1564.59C-9.56245 1715.05 87.3077 1327.63 99.6941 1514.17C112.081 1700.7 56.5569 1840.32 130.504 1980.19C204.452 2120.05 292.72 1659.59 382.154 1803.5C414.87 1856.15 451.553 2017.47 500.759 2027.34C578.879 2043.02 610.407 1819.58 690.402 1796.31C738.363 1782.36 753.558 1974.34 794.801 1947.2C876.229 1893.63 1000.48 1621.15 1073.31 1500.1" stroke="url(#paint31_linear)"/>
<path opacity="0.2" d="M-178.313 873.406C-141.431 693.167 52.896 634.7 52.896 886.534C52.896 959.821 -83.7043 1431.85 -49.6873 1582.31C-15.6704 1732.77 82.6625 1349.23 95.0489 1535.77C107.435 1722.3 54.0936 1859.69 128.041 1999.55C201.989 2139.41 285.563 1673.28 374.997 1817.19C407.714 1869.84 447.757 2030.55 496.963 2040.42C575.083 2056.09 604.179 1833.83 684.175 1810.56C732.135 1796.6 748.294 1989.58 789.537 1962.45C870.965 1908.87 1000.48 1621.15 1073.3 1500.11" stroke="url(#paint32_linear)"/>
<path opacity="0.2" d="M-184.422 891.125C-147.539 710.886 46.7877 652.419 46.7877 904.253C46.7877 977.54 -89.8126 1449.57 -55.7957 1600.03C-21.7788 1750.49 78.0169 1370.83 90.4033 1557.37C102.79 1743.9 51.6299 1879.05 125.577 2018.92C199.525 2158.78 278.406 1686.97 367.841 1830.88C400.557 1883.53 443.96 2043.63 493.166 2053.5C571.286 2069.17 597.951 1848.07 677.947 1824.8C725.908 1810.85 743.031 2004.82 784.274 1977.69C865.702 1924.11 1000.48 1621.15 1073.3 1500.11" stroke="url(#paint33_linear)"/>
<path opacity="0.2" d="M-190.53 908.844C-153.647 728.605 40.68 670.138 40.68 921.972C40.68 995.259 -95.9203 1467.29 -61.9034 1617.75C-27.8864 1768.21 73.372 1392.43 85.7584 1578.96C98.1449 1765.5 49.167 1898.42 123.114 2038.28C197.062 2178.14 271.25 1700.66 360.684 1844.57C393.4 1897.22 440.164 2056.71 489.37 2066.58C567.49 2082.25 591.724 1862.31 671.72 1839.04C719.68 1825.09 737.768 2020.07 779.011 1992.93C860.439 1939.35 1000.48 1621.16 1073.3 1500.11" stroke="url(#paint34_linear)"/>
<path opacity="0.2" d="M-196.638 926.563C-159.755 746.323 34.5716 687.857 34.5716 939.691C34.5716 1012.98 -102.029 1485.01 -68.0118 1635.47C-33.9948 1785.93 68.7264 1414.03 81.1128 1600.56C93.4993 1787.1 46.7032 1917.78 120.651 2057.65C194.598 2197.51 264.093 1714.35 353.527 1858.26C386.243 1910.91 436.367 2069.79 485.573 2079.66C563.693 2095.33 585.496 1876.55 665.492 1853.28C713.452 1839.33 732.504 2035.31 773.747 2008.17C855.175 1954.6 1000.47 1621.16 1073.3 1500.11" stroke="url(#paint35_linear)"/>
<path opacity="0.2" d="M-202.746 944.282C-165.864 764.042 28.4632 705.576 28.4632 957.41C28.4632 1030.7 -108.137 1502.73 -74.1202 1653.19C-40.1032 1803.65 64.0807 1435.62 76.4672 1622.16C88.8536 1808.69 44.2395 1937.15 118.187 2077.01C192.135 2216.88 256.935 1728.04 346.37 1871.95C379.086 1924.6 432.571 2082.86 481.777 2092.73C559.897 2108.41 579.268 1890.8 659.264 1867.53C707.224 1853.58 727.24 2050.55 768.483 2023.41C849.911 1969.84 1000.47 1621.16 1073.3 1500.11" stroke="url(#paint36_linear)"/>
<path opacity="0.2" d="M-208.854 962.001C-171.971 781.761 22.3556 723.295 22.3556 975.129C22.3556 1048.42 -114.245 1520.45 -80.2278 1670.91C-46.2109 1821.37 59.4358 1457.22 71.8222 1643.76C84.2087 1830.29 41.7765 1956.52 115.724 2096.38C189.672 2236.24 249.779 1741.73 339.214 1885.64C371.93 1938.29 428.775 2095.94 477.981 2105.81C556.101 2121.48 573.041 1905.04 653.036 1881.77C700.997 1867.82 721.977 2065.79 763.22 2038.66C844.648 1985.08 1000.47 1621.16 1073.29 1500.11" stroke="url(#paint37_linear)"/>
<path opacity="0.2" d="M-214.963 979.72C-178.081 799.48 16.2464 741.014 16.2464 992.848C16.2464 1066.14 -120.354 1538.17 -86.337 1688.63C-52.32 1839.09 54.7894 1478.82 67.1759 1665.35C79.5623 1851.89 39.3121 1975.88 113.26 2115.74C187.207 2255.61 242.621 1755.42 332.056 1899.33C364.772 1951.98 424.977 2109.02 474.183 2118.89C552.303 2134.56 566.812 1919.28 646.808 1896.01C694.768 1882.06 716.713 2081.04 757.956 2053.9C839.384 2000.32 1000.47 1621.16 1073.29 1500.11" stroke="url(#paint38_linear)"/>
<path opacity="0.2" d="M-221.071 997.439C-184.189 817.199 10.1383 758.733 10.1383 1010.57C10.1383 1083.85 -126.462 1555.89 -92.4451 1706.35C-58.4282 1856.8 50.1441 1500.42 62.5305 1686.95C74.917 1873.49 36.8487 1995.25 110.796 2135.11C184.744 2274.97 235.465 1769.11 324.899 1913.02C357.616 1965.67 421.181 2122.1 470.387 2131.97C548.507 2147.64 560.585 1933.52 640.58 1910.26C688.541 1896.3 711.449 2096.28 752.692 2069.14C834.121 2015.57 1000.46 1621.16 1073.29 1500.11" stroke="url(#paint39_linear)"/>
<path opacity="0.2" d="M-227.179 1015.16C-190.297 834.918 4.03012 776.452 4.03012 1028.29C4.03012 1101.57 -132.57 1573.6 -98.5533 1724.06C-64.5364 1874.52 45.4987 1522.01 57.8851 1708.55C70.2716 1895.08 34.3851 2014.61 108.333 2154.48C182.28 2294.34 228.308 1782.8 317.743 1926.71C350.459 1979.36 417.384 2135.18 466.59 2145.05C544.71 2160.72 554.357 1947.77 634.352 1924.5C682.313 1910.55 706.186 2111.52 747.429 2084.39C828.857 2030.81 1000.46 1621.16 1073.29 1500.12" stroke="url(#paint40_linear)"/>
<path opacity="0.2" d="M-233.288 1032.88C-196.405 852.637 -2.07804 794.171 -2.07804 1046C-2.07804 1119.29 -138.678 1591.32 -104.661 1741.78C-70.6445 1892.24 40.8533 1543.61 53.2397 1730.15C65.6262 1916.68 31.9217 2033.98 105.869 2173.84C179.817 2313.7 221.151 1796.49 310.586 1940.4C343.302 1993.05 413.588 2148.25 462.794 2158.13C540.914 2173.8 548.129 1962.01 628.125 1938.74C676.085 1924.79 700.922 2126.76 742.165 2099.63C823.593 2046.05 1000.46 1621.16 1073.28 1500.12" stroke="url(#paint41_linear)"/>
<path opacity="0.2" d="M-239.396 1050.6C-202.513 870.356 -8.18643 811.89 -8.18643 1063.72C-8.18643 1137.01 -144.787 1609.04 -110.77 1759.5C-76.7529 1909.96 36.2076 1565.21 48.5941 1751.74C60.9805 1938.28 29.458 2053.34 103.406 2193.21C177.353 2333.07 213.994 1810.18 303.429 1954.09C336.145 2006.73 409.791 2161.33 458.997 2171.2C537.117 2186.88 541.901 1976.25 621.897 1952.98C669.857 1939.03 695.659 2142.01 736.901 2114.87C818.33 2061.29 1000.46 1621.17 1073.28 1500.12" stroke="url(#paint42_linear)"/>
<path opacity="0.2" d="M-245.503 1068.31C-208.621 888.075 -14.2938 829.608 -14.2938 1081.44C-14.2938 1154.73 -150.894 1626.76 -116.877 1777.22C-82.8603 1927.68 31.563 1586.81 43.9494 1773.34C56.3359 1959.88 26.9953 2072.71 100.943 2212.57C174.89 2352.43 206.838 1823.87 296.273 1967.78C328.989 2020.42 405.995 2174.41 455.201 2184.28C533.321 2199.95 535.674 1990.5 615.67 1967.23C663.63 1953.28 690.396 2157.25 731.639 2130.11C813.067 2076.54 1000.45 1621.17 1073.28 1500.12" stroke="url(#paint43_linear)"/>
</g>
<defs>
<linearGradient id="paint0_linear" x1="340.868" y1="1677.82" x2="340.868" y2="312.372" gradientUnits="userSpaceOnUse">
<stop stop-color="#333399"/>
<stop offset="1" stop-color="#333399" stop-opacity="0.54"/>
</linearGradient>
<linearGradient id="paint1_linear" x1="416.348" y1="1305.72" x2="416.348" y2="-19.6647" gradientUnits="userSpaceOnUse">
<stop stop-color="#333399"/>
<stop offset="1" stop-color="#333399" stop-opacity="0.54"/>
</linearGradient>
<linearGradient id="paint2_linear" x1="344.462" y1="1660.1" x2="344.462" y2="299.29" gradientUnits="userSpaceOnUse">
<stop stop-color="#333399"/>
<stop offset="1" stop-color="#333399" stop-opacity="0.54"/>
</linearGradient>
<linearGradient id="paint3_linear" x1="348.056" y1="1642.38" x2="348.056" y2="286.208" gradientUnits="userSpaceOnUse">
<stop stop-color="#333399"/>
<stop offset="1" stop-color="#333399" stop-opacity="0.54"/>
</linearGradient>
<linearGradient id="paint4_linear" x1="351.651" y1="1624.66" x2="351.651" y2="273.126" gradientUnits="userSpaceOnUse">
<stop stop-color="#333399"/>
<stop offset="1" stop-color="#333399" stop-opacity="0.54"/>
</linearGradient>
<linearGradient id="paint5_linear" x1="355.244" y1="1606.94" x2="355.244" y2="260.044" gradientUnits="userSpaceOnUse">
<stop stop-color="#333399"/>
<stop offset="1" stop-color="#333399" stop-opacity="0.54"/>
</linearGradient>
<linearGradient id="paint6_linear" x1="358.839" y1="1589.22" x2="358.839" y2="246.963" gradientUnits="userSpaceOnUse">
<stop stop-color="#333399"/>
<stop offset="1" stop-color="#333399" stop-opacity="0.54"/>
</linearGradient>
<linearGradient id="paint7_linear" x1="362.433" y1="1571.5" x2="362.433" y2="233.88" gradientUnits="userSpaceOnUse">
<stop stop-color="#333399"/>
<stop offset="1" stop-color="#333399" stop-opacity="0.54"/>
</linearGradient>
<linearGradient id="paint8_linear" x1="366.028" y1="1553.78" x2="366.028" y2="220.798" gradientUnits="userSpaceOnUse">
<stop stop-color="#333399"/>
<stop offset="1" stop-color="#333399" stop-opacity="0.54"/>
</linearGradient>
<linearGradient id="paint9_linear" x1="369.622" y1="1536.07" x2="369.622" y2="207.716" gradientUnits="userSpaceOnUse">
<stop stop-color="#333399"/>
<stop offset="1" stop-color="#333399" stop-opacity="0.54"/>
</linearGradient>
<linearGradient id="paint10_linear" x1="373.216" y1="1518.35" x2="373.216" y2="194.634" gradientUnits="userSpaceOnUse">
<stop stop-color="#333399"/>
<stop offset="1" stop-color="#333399" stop-opacity="0.54"/>
</linearGradient>
<linearGradient id="paint11_linear" x1="376.811" y1="1500.63" x2="376.811" y2="181.552" gradientUnits="userSpaceOnUse">
<stop stop-color="#333399"/>
<stop offset="1" stop-color="#333399" stop-opacity="0.54"/>
</linearGradient>
<linearGradient id="paint12_linear" x1="380.405" y1="1482.91" x2="380.405" y2="168.47" gradientUnits="userSpaceOnUse">
<stop stop-color="#333399"/>
<stop offset="1" stop-color="#333399" stop-opacity="0.54"/>
</linearGradient>
<linearGradient id="paint13_linear" x1="384" y1="1465.19" x2="384" y2="152.492" gradientUnits="userSpaceOnUse">
<stop stop-color="#333399"/>
<stop offset="1" stop-color="#333399" stop-opacity="0.54"/>
</linearGradient>
<linearGradient id="paint14_linear" x1="387.593" y1="1447.47" x2="387.593" y2="133.383" gradientUnits="userSpaceOnUse">
<stop stop-color="#333399"/>
<stop offset="1" stop-color="#333399" stop-opacity="0.54"/>
</linearGradient>
<linearGradient id="paint15_linear" x1="391.188" y1="1429.75" x2="391.188" y2="114.268" gradientUnits="userSpaceOnUse">
<stop stop-color="#333399"/>
<stop offset="1" stop-color="#333399" stop-opacity="0.54"/>
</linearGradient>
<linearGradient id="paint16_linear" x1="394.783" y1="1412.03" x2="394.783" y2="95.1487" gradientUnits="userSpaceOnUse">
<stop stop-color="#333399"/>
<stop offset="1" stop-color="#333399" stop-opacity="0.54"/>
</linearGradient>
<linearGradient id="paint17_linear" x1="398.377" y1="1394.31" x2="398.377" y2="76.0242" gradientUnits="userSpaceOnUse">
<stop stop-color="#333399"/>
<stop offset="1" stop-color="#333399" stop-opacity="0.54"/>
</linearGradient>
<linearGradient id="paint18_linear" x1="401.971" y1="1376.59" x2="401.971" y2="56.8949" gradientUnits="userSpaceOnUse">
<stop stop-color="#333399"/>
<stop offset="1" stop-color="#333399" stop-opacity="0.54"/>
</linearGradient>
<linearGradient id="paint19_linear" x1="405.565" y1="1358.88" x2="405.565" y2="37.7618" gradientUnits="userSpaceOnUse">
<stop stop-color="#333399"/>
<stop offset="1" stop-color="#333399" stop-opacity="0.54"/>
</linearGradient>
<linearGradient id="paint20_linear" x1="409.159" y1="1341.16" x2="409.159" y2="18.6241" gradientUnits="userSpaceOnUse">
<stop stop-color="#333399"/>
<stop offset="1" stop-color="#333399" stop-opacity="0.54"/>
</linearGradient>
<linearGradient id="paint21_linear" x1="412.753" y1="1323.44" x2="412.753" y2="-0.518188" gradientUnits="userSpaceOnUse">
<stop stop-color="#333399"/>
<stop offset="1" stop-color="#333399" stop-opacity="0.54"/>
</linearGradient>
<linearGradient id="paint22_linear" x1="474.993" y1="558.029" x2="474.993" y2="1923.47" gradientUnits="userSpaceOnUse">
<stop stop-color="#333399"/>
<stop offset="1" stop-color="#333399" stop-opacity="0.54"/>
</linearGradient>
<linearGradient id="paint23_linear" x1="410.832" y1="930.127" x2="410.832" y2="2255.51" gradientUnits="userSpaceOnUse">
<stop stop-color="#333399"/>
<stop offset="1" stop-color="#333399" stop-opacity="0.54"/>
</linearGradient>
<linearGradient id="paint24_linear" x1="471.938" y1="575.749" x2="471.938" y2="1936.56" gradientUnits="userSpaceOnUse">
<stop stop-color="#333399"/>
<stop offset="1" stop-color="#333399" stop-opacity="0.54"/>
</linearGradient>
<linearGradient id="paint25_linear" x1="468.883" y1="593.468" x2="468.883" y2="1949.64" gradientUnits="userSpaceOnUse">
<stop stop-color="#333399"/>
<stop offset="1" stop-color="#333399" stop-opacity="0.54"/>
</linearGradient>
<linearGradient id="paint26_linear" x1="465.827" y1="611.186" x2="465.827" y2="1962.72" gradientUnits="userSpaceOnUse">
<stop stop-color="#333399"/>
<stop offset="1" stop-color="#333399" stop-opacity="0.54"/>
</linearGradient>
<linearGradient id="paint27_linear" x1="462.772" y1="628.905" x2="462.772" y2="1975.8" gradientUnits="userSpaceOnUse">
<stop stop-color="#333399"/>
<stop offset="1" stop-color="#333399" stop-opacity="0.54"/>
</linearGradient>
<linearGradient id="paint28_linear" x1="459.717" y1="646.624" x2="459.717" y2="1988.88" gradientUnits="userSpaceOnUse">
<stop stop-color="#333399"/>
<stop offset="1" stop-color="#333399" stop-opacity="0.54"/>
</linearGradient>
<linearGradient id="paint29_linear" x1="456.662" y1="664.343" x2="456.662" y2="2001.97" gradientUnits="userSpaceOnUse">
<stop stop-color="#333399"/>
<stop offset="1" stop-color="#333399" stop-opacity="0.54"/>
</linearGradient>
<linearGradient id="paint30_linear" x1="453.606" y1="682.062" x2="453.606" y2="2015.05" gradientUnits="userSpaceOnUse">
<stop stop-color="#333399"/>
<stop offset="1" stop-color="#333399" stop-opacity="0.54"/>
</linearGradient>
<linearGradient id="paint31_linear" x1="450.551" y1="699.781" x2="450.551" y2="2028.13" gradientUnits="userSpaceOnUse">
<stop stop-color="#333399"/>
<stop offset="1" stop-color="#333399" stop-opacity="0.54"/>
</linearGradient>
<linearGradient id="paint32_linear" x1="447.496" y1="717.5" x2="447.496" y2="2041.21" gradientUnits="userSpaceOnUse">
<stop stop-color="#333399"/>
<stop offset="1" stop-color="#333399" stop-opacity="0.54"/>
</linearGradient>
<linearGradient id="paint33_linear" x1="444.44" y1="735.219" x2="444.44" y2="2054.29" gradientUnits="userSpaceOnUse">
<stop stop-color="#333399"/>
<stop offset="1" stop-color="#333399" stop-opacity="0.54"/>
</linearGradient>
<linearGradient id="paint34_linear" x1="441.386" y1="752.938" x2="441.386" y2="2067.38" gradientUnits="userSpaceOnUse">
<stop stop-color="#333399"/>
<stop offset="1" stop-color="#333399" stop-opacity="0.54"/>
</linearGradient>
<linearGradient id="paint35_linear" x1="438.33" y1="770.657" x2="438.33" y2="2083.35" gradientUnits="userSpaceOnUse">
<stop stop-color="#333399"/>
<stop offset="1" stop-color="#333399" stop-opacity="0.54"/>
</linearGradient>
<linearGradient id="paint36_linear" x1="435.275" y1="788.375" x2="435.275" y2="2102.46" gradientUnits="userSpaceOnUse">
<stop stop-color="#333399"/>
<stop offset="1" stop-color="#333399" stop-opacity="0.54"/>
</linearGradient>
<linearGradient id="paint37_linear" x1="432.22" y1="806.095" x2="432.22" y2="2121.58" gradientUnits="userSpaceOnUse">
<stop stop-color="#333399"/>
<stop offset="1" stop-color="#333399" stop-opacity="0.54"/>
</linearGradient>
<linearGradient id="paint38_linear" x1="429.164" y1="823.814" x2="429.164" y2="2140.7" gradientUnits="userSpaceOnUse">
<stop stop-color="#333399"/>
<stop offset="1" stop-color="#333399" stop-opacity="0.54"/>
</linearGradient>
<linearGradient id="paint39_linear" x1="426.108" y1="841.533" x2="426.108" y2="2159.82" gradientUnits="userSpaceOnUse">
<stop stop-color="#333399"/>
<stop offset="1" stop-color="#333399" stop-opacity="0.54"/>
</linearGradient>
<linearGradient id="paint40_linear" x1="423.053" y1="859.252" x2="423.053" y2="2178.95" gradientUnits="userSpaceOnUse">
<stop stop-color="#333399"/>
<stop offset="1" stop-color="#333399" stop-opacity="0.54"/>
</linearGradient>
<linearGradient id="paint41_linear" x1="419.998" y1="876.97" x2="419.998" y2="2198.08" gradientUnits="userSpaceOnUse">
<stop stop-color="#333399"/>
<stop offset="1" stop-color="#333399" stop-opacity="0.54"/>
</linearGradient>
<linearGradient id="paint42_linear" x1="416.942" y1="894.689" x2="416.942" y2="2217.22" gradientUnits="userSpaceOnUse">
<stop stop-color="#333399"/>
<stop offset="1" stop-color="#333399" stop-opacity="0.54"/>
</linearGradient>
<linearGradient id="paint43_linear" x1="413.888" y1="912.408" x2="413.888" y2="2236.36" gradientUnits="userSpaceOnUse">
<stop stop-color="#333399"/>
<stop offset="1" stop-color="#333399" stop-opacity="0.54"/>
</linearGradient>
</defs>
</svg>
