<svg width="230" height="172" viewBox="0 0 230 172" fill="none" xmlns="http://www.w3.org/2000/svg">
<path d="M217.128 161.078C217.128 168.801 214.362 171.565 206.641 171.565H10.4872C2.76539 171.565 0 168.801 0 161.078V36.3944C0 28.6734 2.76539 24.7424 10.4872 24.7424H206.641C214.362 24.7424 217.128 28.6734 217.128 36.3944V161.078Z" fill="#242424"/>
<path d="M210.678 156.152C210.678 163.273 208.077 165.821 200.819 165.821H16.4288C9.16944 165.821 6.56982 163.273 6.56982 156.152V41.2104C6.56982 34.0914 9.16944 30.4679 16.4288 30.4679H200.819C208.077 30.4679 210.678 34.0914 210.678 41.2104V156.152Z" fill="#4C4A58"/>
<path d="M207.983 154.535C207.983 161.456 205.453 163.934 198.383 163.934H18.8656C11.7975 163.934 9.26709 161.456 9.26709 154.535V42.7982C9.26709 35.877 11.7975 32.3553 18.8656 32.3553H198.383C205.453 32.3553 207.983 35.877 207.983 42.7982V154.535Z" fill="#E5E4FF"/>
<path opacity="0.1" d="M11.7937 162.316C22.6546 160.91 33.5082 157.596 43.9238 155.294C57.924 152.198 72.1973 149.012 85.3166 143.562C108.028 134.128 129.656 122.355 148.261 107.339C173.35 87.0898 191.293 62.6575 206.904 36.8017C205.592 33.8552 202.926 32.3553 198.331 32.3553H18.8629C11.7968 32.3553 9.26709 35.8815 9.26709 42.8116V154.691C9.26709 158.425 10.0123 160.857 11.7937 162.316Z" fill="white"/>
<path d="M230 36.2384C230 56.2528 213.776 72.4783 193.761 72.4783C173.747 72.4783 157.521 56.2528 157.521 36.2384C157.521 16.2242 173.747 0 193.761 0C213.776 0 230 16.2242 230 36.2384Z" fill="#4C4A58"/>
<path d="M224.995 36.2384C224.995 53.4897 211.012 67.4729 193.762 67.4729C176.512 67.4729 162.527 53.4897 162.527 36.2384C162.527 18.9884 176.512 5.00537 193.762 5.00537C211.012 5.00537 224.995 18.9884 224.995 36.2384Z" fill="#E5E4FF"/>
<path d="M195.262 8.10842C195.262 8.93798 194.59 9.61003 193.761 9.61003C192.93 9.61003 192.259 8.93798 192.259 8.10842C192.259 7.27872 192.93 6.60681 193.761 6.60681C194.59 6.60681 195.262 7.27872 195.262 8.10842Z" fill="#7575CD"/>
<path d="M195.262 63.6689C195.262 64.4974 194.59 65.1694 193.761 65.1694C192.93 65.1694 192.259 64.4974 192.259 63.6689C192.259 62.8393 192.93 62.1672 193.761 62.1672C194.59 62.1672 195.262 62.8393 195.262 63.6689Z" fill="#7575CD"/>
<path d="M221.539 37.3897C220.711 37.3897 220.039 36.7177 220.039 35.888C220.039 35.0584 220.711 34.3875 221.539 34.3875C222.37 34.3875 223.042 35.0584 223.042 35.888C223.042 36.7177 222.37 37.3897 221.539 37.3897Z" fill="#7575CD"/>
<path d="M165.98 37.3897C165.151 37.3897 164.479 36.7177 164.479 35.888C164.479 35.0584 165.151 34.3875 165.98 34.3875C166.81 34.3875 167.482 35.0584 167.482 35.888C167.482 36.7177 166.81 37.3897 165.98 37.3897Z" fill="#7575CD"/>
<path d="M214.466 17.3069C213.879 17.8933 212.929 17.8933 212.343 17.3069C211.756 16.7196 211.756 15.7699 212.343 15.1837C212.929 14.5973 213.879 14.5973 214.466 15.1837C215.052 15.7699 215.052 16.7196 214.466 17.3069Z" fill="#7575CD"/>
<path d="M175.179 56.5937C174.593 57.1799 173.642 57.1799 173.056 56.5937C172.468 56.0075 172.468 55.0567 173.056 54.4705C173.642 53.883 174.593 53.883 175.179 54.4705C175.765 55.0567 175.765 56.0075 175.179 56.5937Z" fill="#7575CD"/>
<path d="M212.343 56.5937C211.756 56.0075 211.756 55.0567 212.343 54.4705C212.929 53.883 213.879 53.883 214.466 54.4705C215.052 55.0567 215.052 56.0075 214.466 56.5937C213.879 57.1799 212.929 57.1799 212.343 56.5937Z" fill="#7575CD"/>
<path d="M173.056 17.3069C172.468 16.7196 172.468 15.7699 173.056 15.1837C173.642 14.5973 174.593 14.5973 175.179 15.1837C175.765 15.7699 175.765 16.7196 175.179 17.3069C174.593 17.8933 173.642 17.8933 173.056 17.3069Z" fill="#7575CD"/>
<path d="M195.262 12.2124H192.259V44.4476H195.262V12.2124Z" fill="#333399"/>
<path d="M205.647 25.6398L186.258 39.8925L188.037 42.3116L207.426 28.0589L205.647 25.6398Z" fill="#333399"/>
<path d="M196.765 36.2384C196.765 37.8978 195.42 39.2418 193.762 39.2418C192.102 39.2418 190.758 37.8978 190.758 36.2384C190.758 34.5793 192.102 33.2352 193.762 33.2352C195.42 33.2352 196.765 34.5793 196.765 36.2384Z" fill="#242424"/>
<path d="M157.658 145.585L153.873 139.573C153.218 138.532 151.843 138.22 150.802 138.875C149.762 139.53 149.449 140.905 150.105 141.946L151.741 144.544H54.4654V47.2689L57.0642 48.9052C57.4327 49.1372 57.8431 49.2479 58.2485 49.2479C58.988 49.2479 59.7116 48.8794 60.1349 48.2074C60.7899 47.1667 60.4777 45.792 59.4371 45.1368L53.4254 41.3516C52.7004 40.8952 51.7777 40.8952 51.0527 41.3516L45.041 45.1368C44.0003 45.792 43.6879 47.1667 44.3432 48.2074C44.9985 49.2481 46.3734 49.5605 47.4139 48.9052L50.0127 47.2689V57.0406H47.3965C46.1668 57.0406 45.1699 58.0374 45.1699 59.2672C45.1699 60.4969 46.1668 61.4937 47.3965 61.4937H50.0127V74.8531H47.3965C46.1668 74.8531 45.1699 75.8499 45.1699 77.0796C45.1699 78.3094 46.1668 79.3062 47.3965 79.3062H50.0127V92.6655H47.3965C46.1668 92.6655 45.1699 93.6624 45.1699 94.8921C45.1699 96.1218 46.1668 97.1187 47.3965 97.1187H50.0127V110.478H47.3965C46.1668 110.478 45.1699 111.475 45.1699 112.705C45.1699 113.934 46.1668 114.931 47.3965 114.931H50.0127V128.29H47.3965C46.1668 128.29 45.1699 129.287 45.1699 130.517C45.1699 131.747 46.1668 132.744 47.3965 132.744H50.0127V144.544H46.2276C44.9978 144.544 44.001 145.541 44.001 146.771C44.001 148.001 44.9978 148.997 46.2276 148.997H50.0127V152.783C50.0127 154.012 51.0095 155.009 52.2393 155.009C53.469 155.009 54.4658 154.012 54.4658 152.783V148.997H66.2666V151.614C66.2666 152.843 67.2634 153.84 68.4931 153.84C69.7229 153.84 70.7197 152.843 70.7197 151.614V148.997H84.079V151.614C84.079 152.843 85.0759 153.84 86.3056 153.84C87.5353 153.84 88.5322 152.843 88.5322 151.614V148.997H101.892V151.614C101.892 152.843 102.888 153.84 104.118 153.84C105.348 153.84 106.345 152.843 106.345 151.614V148.997H119.704V151.614C119.704 152.843 120.701 153.84 121.931 153.84C123.16 153.84 124.157 152.843 124.157 151.614V148.997H137.516V151.614C137.516 152.843 138.513 153.84 139.743 153.84C140.973 153.84 141.97 152.843 141.97 151.614V148.997H151.741L150.105 151.596C149.45 152.637 149.762 154.012 150.803 154.667C151.171 154.899 151.582 155.01 151.987 155.01C152.727 155.01 153.45 154.641 153.873 153.969L157.659 147.957C158.115 147.232 158.115 146.31 157.658 145.585Z" fill="#242424"/>
<path d="M58.9175 79.752V106.471C58.9175 107.7 59.9143 108.697 61.144 108.697H63.3706V113.67C63.3706 114.9 64.3674 115.896 65.5972 115.896C66.8269 115.896 67.8237 114.9 67.8237 113.67V108.697H70.0503C71.28 108.697 72.2769 107.7 72.2769 106.471V79.752C72.2769 78.5222 71.28 77.5254 70.0503 77.5254H67.8237V64.834C67.8237 63.6043 66.8269 62.6074 65.5972 62.6074C64.3674 62.6074 63.3706 63.6043 63.3706 64.834V77.5254H61.144C59.9143 77.5254 58.9175 78.5222 58.9175 79.752ZM63.3706 81.9785H67.8237V104.244H63.3706V81.9785Z" fill="#7575CD"/>
<path d="M63.3706 81.9785H67.8237V104.244H63.3706V81.9785Z" fill="#7575CD"/>
<path d="M114.583 108.697H116.809V115.896C116.809 117.126 117.806 118.123 119.036 118.123C120.265 118.123 121.262 117.126 121.262 115.896V108.697H123.489C124.719 108.697 125.715 107.7 125.715 106.471V75.2988C125.715 74.0691 124.719 73.0723 123.489 73.0723H121.262V53.7012C121.262 52.4714 120.265 51.4746 119.036 51.4746C117.806 51.4746 116.809 52.4714 116.809 53.7012V73.0723H114.583C113.353 73.0723 112.356 74.0691 112.356 75.2988V106.471C112.356 107.7 113.353 108.697 114.583 108.697ZM116.809 77.5254H121.262V104.244H116.809V77.5254Z" fill="#333399"/>
<path d="M116.809 77.5254H121.262V104.244H116.809V77.5254Z" fill="#333399"/>
<path d="M132.395 106.471H134.622V109.217C134.622 110.446 135.618 111.443 136.848 111.443C138.078 111.443 139.075 110.446 139.075 109.217V106.471H141.301C141.887 106.471 142.461 106.232 142.875 105.818C143.29 105.404 143.528 104.83 143.528 104.244V95.3379C143.528 94.1111 142.528 93.1113 141.301 93.1113C140.074 93.1113 139.075 94.1111 139.075 95.3379V102.018H134.622V68.6191H139.075V75.2988C139.075 76.5279 140.074 77.5254 141.301 77.5254C142.53 77.5254 143.528 76.5279 143.528 75.2988V75.2966V66.3926C143.528 65.807 143.29 65.2325 142.875 64.8184C142.461 64.4043 141.887 64.166 141.301 64.166H139.075V43.2363C139.075 42.0066 138.078 41.0098 136.848 41.0098C135.618 41.0098 134.622 42.0066 134.622 43.2363V64.166H132.395C131.809 64.166 131.235 64.4043 130.821 64.8184C130.407 65.2325 130.168 65.807 130.168 66.3926V104.244C130.168 104.83 130.407 105.404 130.821 105.818C131.235 106.232 131.809 106.471 132.395 106.471Z" fill="#1F1F82"/>
<path d="M141.301 93.1113C142.528 93.1113 143.528 94.1111 143.528 95.3379V75.2988C143.528 76.5279 142.53 77.5254 141.301 77.5254C140.074 77.5254 139.075 76.5279 139.075 75.2988V95.3379C139.075 94.1111 140.074 93.1113 141.301 93.1113Z" fill="#1F1F82"/>
<path d="M139.075 102.018V95.3379V75.2988V68.6191H134.622V102.018H139.075Z" fill="#1F1F82"/>
<path d="M78.9565 112.111H81.1831V127.029C81.1831 128.259 82.1799 129.256 83.4097 129.256C84.6394 129.256 85.6362 128.259 85.6362 127.029V112.111H87.8628C89.0925 112.111 90.0894 111.114 90.0894 109.885V94.2988C90.0894 93.069 89.0925 92.0722 87.8628 92.0722H85.6362V87.0996C85.6362 85.8699 84.6394 84.873 83.4097 84.873C82.1799 84.873 81.1831 85.8699 81.1831 87.0996V92.0722H78.9565C77.7268 92.0722 76.73 93.069 76.73 94.2988V109.885C76.73 111.114 77.7268 112.111 78.9565 112.111ZM81.1831 96.5253H85.6362V107.658H81.1831V96.5253Z" fill="#6262C0"/>
<path d="M81.1831 96.5253H85.6362V107.658H81.1831V96.5253Z" fill="#6262C0"/>
<path d="M96.769 125.471H98.9956V135.935C98.9956 137.165 99.9924 138.162 101.222 138.162C102.452 138.162 103.449 137.165 103.449 135.935V125.471H105.675C106.905 125.471 107.902 124.474 107.902 123.244V103.205C107.902 101.975 106.905 100.978 105.675 100.978H103.449V98.2324C103.449 97.0027 102.452 96.0059 101.222 96.0059C99.9924 96.0059 98.9956 97.0027 98.9956 98.2324V100.978H96.769C95.5393 100.978 94.5425 101.975 94.5425 103.205V123.244C94.5425 124.474 95.5393 125.471 96.769 125.471ZM98.9956 105.432H103.449V121.018H98.9956V105.432Z" fill="#4C4CAE"/>
<path d="M98.9956 105.432H103.449V121.018H98.9956V105.432Z" fill="#4C4CAE"/>
</svg>
