<svg width="230" height="173" viewBox="0 0 230 173" fill="none" xmlns="http://www.w3.org/2000/svg">
<mask id="mask0" mask-type="alpha" maskUnits="userSpaceOnUse" x="113" y="0" width="117" height="155">
<path d="M113 0.00976562H229.812V154.093H139.875L143.458 150.958L113 0.00976562Z" fill="#C4C4C4"/>
</mask>
<g mask="url(#mask0)">
<path d="M218.281 144.3C218.281 151.218 215.803 153.695 208.886 153.695H33.1653C26.2478 153.695 23.7705 151.218 23.7705 144.3V32.6043C23.7705 25.6875 26.2478 22.166 33.1653 22.166H208.886C215.803 22.166 218.281 25.6875 218.281 32.6043V144.3Z" fill="#242424"/>
<path d="M212.502 139.887C212.502 146.267 210.173 148.549 203.67 148.549H38.4873C31.9841 148.549 29.6553 146.267 29.6553 139.887V36.9186C29.6553 30.5411 31.9841 27.295 38.4873 27.295H203.67C210.173 27.295 212.502 30.5411 212.502 36.9186V139.887Z" fill="#4C4A58"/>
<path d="M210.087 138.438C210.087 144.638 207.821 146.858 201.488 146.858H40.6699C34.3382 146.858 32.0713 144.638 32.0713 138.438V38.3409C32.0713 32.1406 34.3382 28.9858 40.6699 28.9858H201.488C207.821 28.9858 210.087 32.1406 210.087 38.3409V138.438Z" fill="#E5E4FF"/>
<path opacity="0.1" d="M34.3347 145.409C44.0643 144.15 53.7873 141.18 63.1179 139.118C75.6598 136.345 88.4463 133.491 100.199 128.608C120.545 120.157 139.92 109.611 156.587 96.159C179.062 78.0188 195.136 56.1315 209.121 32.969C207.946 30.3295 205.557 28.9858 201.441 28.9858H40.6676C34.3375 28.9858 32.0713 32.1447 32.0713 38.3529V138.578C32.0713 141.923 32.7388 144.102 34.3347 145.409Z" fill="white"/>
<path d="M229.812 32.4646C229.812 50.3941 215.278 64.9294 197.349 64.9294C179.419 64.9294 164.884 50.3941 164.884 32.4646C164.884 14.5352 179.419 0.000976562 197.349 0.000976562C215.278 0.000976562 229.812 14.5352 229.812 32.4646Z" fill="#242424"/>
<path d="M225.329 32.4645C225.329 47.9188 212.802 60.4453 197.349 60.4453C181.896 60.4453 169.368 47.9188 169.368 32.4645C169.368 17.0113 181.896 4.48486 197.349 4.48486C212.802 4.48486 225.329 17.0113 225.329 32.4645Z" fill="#E5E4FF"/>
<path d="M197.563 1.80151C180.811 1.80151 167.104 15.5078 167.104 32.2598C167.104 49.0119 180.811 62.7182 197.563 62.7182C214.315 62.7182 228.021 49.0119 228.021 32.2598C228.021 15.5078 214.315 1.80151 197.563 1.80151ZM197.563 10.939C202.741 10.939 206.7 14.8986 206.7 20.0765C206.7 25.2544 202.741 29.214 197.563 29.214C192.385 29.214 188.425 25.2544 188.425 20.0765C188.425 14.8986 192.385 10.939 197.563 10.939ZM197.563 54.1898C189.948 54.1898 183.247 50.2304 179.288 44.4432C179.288 38.3515 191.471 35.0011 197.563 35.0011C203.654 35.0011 215.838 38.3515 215.838 44.4432C211.878 50.2303 205.177 54.1898 197.563 54.1898Z" fill="#242424"/>
<circle cx="183" cy="46" r="6.5" fill="#333399" stroke="#E5E4FF"/>
<path d="M165.007 130.421L161.616 125.035C161.029 124.103 159.797 123.823 158.865 124.41C157.933 124.997 157.653 126.228 158.24 127.161L159.706 129.489H72.5633V42.3461L74.8914 43.812C75.2215 44.0198 75.5891 44.1189 75.9523 44.1189C76.6148 44.1189 77.263 43.7888 77.6422 43.1868C78.229 42.2546 77.9494 41.0231 77.0171 40.4361L71.6316 37.0452C70.9821 36.6363 70.1556 36.6363 69.5061 37.0452L64.1206 40.4361C63.1883 41.0231 62.9085 42.2546 63.4955 43.1868C64.0825 44.1191 65.3142 44.399 66.2463 43.812L68.5744 42.3461V51.0999H66.2307C65.1291 51.0999 64.2361 51.9929 64.2361 53.0946C64.2361 54.1962 65.1291 55.0892 66.2307 55.0892H68.5744V67.0569H66.2307C65.1291 67.0569 64.2361 67.9499 64.2361 69.0516C64.2361 70.1532 65.1291 71.0462 66.2307 71.0462H68.5744V83.0139H66.2307C65.1291 83.0139 64.2361 83.9069 64.2361 85.0086C64.2361 86.1102 65.1291 87.0032 66.2307 87.0032H68.5744V98.9709H66.2307C65.1291 98.9709 64.2361 99.8639 64.2361 100.966C64.2361 102.067 65.1291 102.96 66.2307 102.96H68.5744V114.928H66.2307C65.1291 114.928 64.2361 115.821 64.2361 116.923C64.2361 118.024 65.1291 118.917 66.2307 118.917H68.5744V129.489H65.1836C64.0819 129.489 63.1889 130.382 63.1889 131.483C63.1889 132.585 64.0819 133.478 65.1836 133.478H68.5744V136.869C68.5744 137.97 69.4674 138.863 70.569 138.863C71.6707 138.863 72.5637 137.97 72.5637 136.869V133.478H83.1352V135.822C83.1352 136.923 84.0282 137.816 85.1298 137.816C86.2314 137.816 87.1244 136.923 87.1244 135.822V133.478H99.0922V135.822C99.0922 136.923 99.9852 137.816 101.087 137.816C102.188 137.816 103.081 136.923 103.081 135.822V133.478H115.049V135.822C115.049 136.923 115.942 137.816 117.044 137.816C118.145 137.816 119.038 136.923 119.038 135.822V133.478H131.006V135.822C131.006 136.923 131.899 137.816 133.001 137.816C134.102 137.816 134.995 136.923 134.995 135.822V133.478H146.963V135.822C146.963 136.923 147.856 137.816 148.958 137.816C150.059 137.816 150.952 136.923 150.952 135.822V133.478H159.706L158.24 135.806C157.654 136.738 157.933 137.97 158.866 138.557C159.196 138.765 159.563 138.864 159.926 138.864C160.589 138.864 161.237 138.534 161.616 137.932L165.007 132.546C165.416 131.897 165.416 131.07 165.007 130.421Z" fill="#242424"/>
<path d="M126.418 97.3757H128.413V103.825C128.413 104.927 129.306 105.82 130.408 105.82C131.509 105.82 132.402 104.927 132.402 103.825V97.3757H134.397C135.499 97.3757 136.392 96.4827 136.392 95.3811V67.4563C136.392 66.3547 135.499 65.4617 134.397 65.4617H132.402V48.1084C132.402 47.0068 131.509 46.1138 130.408 46.1138C129.306 46.1138 128.413 47.0068 128.413 48.1084V65.4617H126.418C125.317 65.4617 124.424 66.3547 124.424 67.4563V95.3811C124.424 96.4827 125.317 97.3757 126.418 97.3757ZM128.413 69.4509H132.402V93.3865H128.413V69.4509Z" fill="#333399"/>
<path d="M128.413 69.4509H132.402V93.3865H128.413V69.4509Z" fill="#333399"/>
<path d="M142.375 95.3811H144.37V97.8411C144.37 98.9427 145.263 99.8357 146.365 99.8357C147.466 99.8357 148.359 98.9427 148.359 97.8411V95.3811H150.354C150.879 95.3811 151.393 95.1677 151.764 94.7967C152.135 94.4257 152.349 93.9111 152.349 93.3865V85.408C152.349 84.3089 151.453 83.4133 150.354 83.4133C149.255 83.4133 148.359 84.3089 148.359 85.408V91.3918H144.37V61.4724H148.359V67.4563C148.359 68.5573 149.255 69.4509 150.354 69.4509C151.455 69.4509 152.349 68.5573 152.349 67.4563V67.4543V59.4778C152.349 58.9532 152.135 58.4386 151.764 58.0676C151.393 57.6966 150.879 57.4832 150.354 57.4832H148.359V38.7336C148.359 37.632 147.466 36.739 146.365 36.739C145.263 36.739 144.37 37.632 144.37 38.7336V57.4832H142.375C141.851 57.4832 141.336 57.6966 140.965 58.0676C140.594 58.4386 140.381 58.9532 140.381 59.4778V93.3865C140.381 93.9111 140.594 94.4257 140.965 94.7967C141.336 95.1677 141.851 95.3811 142.375 95.3811Z" fill="#1F1F82"/>
<path d="M150.354 83.4133C151.453 83.4133 152.349 84.3089 152.349 85.408V67.4563C152.349 68.5573 151.455 69.4509 150.354 69.4509C149.255 69.4509 148.359 68.5573 148.359 67.4563V85.408C148.359 84.3089 149.255 83.4133 150.354 83.4133Z" fill="#1F1F82"/>
<path d="M148.359 91.3918V85.408V67.4563V61.4724H144.37V91.3918H148.359Z" fill="#1F1F82"/>
<path d="M110.46 112.402H112.455V121.777C112.455 122.878 113.348 123.771 114.45 123.771C115.551 123.771 116.444 122.878 116.444 121.777V112.402H118.439C119.541 112.402 120.434 111.509 120.434 110.407V92.4555C120.434 91.3539 119.541 90.4609 118.439 90.4609H116.444V88.0009C116.444 86.8993 115.551 86.0063 114.45 86.0063C113.348 86.0063 112.455 86.8993 112.455 88.0009V90.4609H110.46C109.359 90.4609 108.466 91.3539 108.466 92.4555V110.407C108.466 111.509 109.359 112.402 110.46 112.402ZM112.455 94.4501H116.444V108.413H112.455V94.4501Z" fill="#4C4CAE"/>
<path d="M112.455 94.4501H116.444V108.413H112.455V94.4501Z" fill="#4C4CAE"/>
</g>
<mask id="mask1" mask-type="alpha" maskUnits="userSpaceOnUse" x="0" y="17" width="127" height="156">
<path d="M0 17.9265H100.021L126.896 150.51L100.021 172.01H0V17.9265Z" fill="#C4C4C4"/>
</mask>
<g mask="url(#mask1)">
<path d="M205.26 162.225C205.26 169.144 202.783 171.62 195.866 171.62H20.1448C13.2273 171.62 10.75 169.144 10.75 162.225V50.5298C10.75 43.6131 13.2273 40.0916 20.1448 40.0916H195.866C202.783 40.0916 205.26 43.6131 205.26 50.5298V162.225Z" fill="#242424"/>
<path d="M199.482 157.813C199.482 164.192 197.152 166.474 190.65 166.474H25.4667C18.9636 166.474 16.6348 164.192 16.6348 157.813V54.8441C16.6348 48.4666 18.9636 45.2206 25.4667 45.2206H190.65C197.152 45.2206 199.482 48.4666 199.482 54.8441V157.813Z" fill="#4C4A58"/>
<path d="M197.067 156.364C197.067 162.564 194.8 164.784 188.467 164.784H27.6494C21.3176 164.784 19.0508 162.564 19.0508 156.364V56.2665C19.0508 50.0662 21.3176 46.9114 27.6494 46.9114H188.467C194.8 46.9114 197.067 50.0662 197.067 56.2665V156.364Z" fill="#E5E4FF"/>
<path opacity="0.1" d="M21.3142 163.334C31.0438 162.075 40.7668 159.106 50.0974 157.044C62.6393 154.27 75.4258 151.417 87.1785 146.534C107.524 138.083 126.9 127.536 143.567 114.085C166.041 95.9443 182.115 74.0571 196.101 50.8946C194.925 48.255 192.536 46.9114 188.421 46.9114H27.6471C21.317 46.9114 19.0508 50.0702 19.0508 56.2785V156.504C19.0508 159.849 19.7183 162.027 21.3142 163.334Z" fill="white"/>
<path d="M151.985 148.346L148.594 142.961C148.007 142.028 146.776 141.748 145.844 142.336C144.911 142.923 144.631 144.154 145.219 145.086L146.684 147.414H59.5418V60.2717L61.8699 61.7375C62.2 61.9453 62.5676 62.0445 62.9309 62.0445C63.5933 62.0445 64.2415 61.7144 64.6207 61.1124C65.2075 60.1801 64.9279 58.9486 63.9956 58.3616L58.6101 54.9707C57.9606 54.5618 57.1341 54.5618 56.4846 54.9707L51.0991 58.3616C50.1668 58.9486 49.887 60.1801 50.474 61.1124C51.061 62.0447 52.2927 62.3245 53.2248 61.7375L55.5529 60.2717V69.0255H53.2093C52.1076 69.0255 51.2146 69.9185 51.2146 71.0201C51.2146 72.1217 52.1076 73.0147 53.2093 73.0147H55.5529V84.9825H53.2093C52.1076 84.9825 51.2146 85.8755 51.2146 86.9771C51.2146 88.0787 52.1076 88.9717 53.2093 88.9717H55.5529V100.939H53.2093C52.1076 100.939 51.2146 101.832 51.2146 102.934C51.2146 104.036 52.1076 104.929 53.2093 104.929H55.5529V116.896H53.2093C52.1076 116.896 51.2146 117.789 51.2146 118.891C51.2146 119.993 52.1076 120.886 53.2093 120.886H55.5529V132.853H53.2093C52.1076 132.853 51.2146 133.746 51.2146 134.848C51.2146 135.95 52.1076 136.843 53.2093 136.843H55.5529V147.414H52.1621C51.0604 147.414 50.1674 148.307 50.1674 149.409C50.1674 150.51 51.0604 151.403 52.1621 151.403H55.5529V154.794C55.5529 155.896 56.4459 156.789 57.5476 156.789C58.6492 156.789 59.5422 155.896 59.5422 154.794V151.403H70.1137V153.747C70.1137 154.849 71.0067 155.742 72.1083 155.742C73.21 155.742 74.1029 154.849 74.1029 153.747V151.403H86.0707V153.747C86.0707 154.849 86.9637 155.742 88.0653 155.742C89.167 155.742 90.0599 154.849 90.0599 153.747V151.403H102.028V153.747C102.028 154.849 102.921 155.742 104.022 155.742C105.124 155.742 106.017 154.849 106.017 153.747V151.403H117.985V153.747C117.985 154.849 118.878 155.742 119.979 155.742C121.081 155.742 121.974 154.849 121.974 153.747V151.403H133.942V153.747C133.942 154.849 134.835 155.742 135.936 155.742C137.038 155.742 137.931 154.849 137.931 153.747V151.403H146.685L145.219 153.732C144.632 154.664 144.912 155.895 145.844 156.482C146.174 156.69 146.542 156.789 146.905 156.789C147.567 156.789 148.216 156.459 148.595 155.857L151.986 150.472C152.394 149.822 152.394 148.996 151.985 148.346Z" fill="#242424"/>
<path d="M63.5303 89.3711V113.307C63.5303 114.408 64.4233 115.301 65.5249 115.301H67.5195V119.756C67.5195 120.858 68.4125 121.75 69.5142 121.75C70.6158 121.75 71.5088 120.858 71.5088 119.756V115.301H73.5034C74.6051 115.301 75.498 114.408 75.498 113.307V89.3711C75.498 88.2695 74.6051 87.3765 73.5034 87.3765H71.5088V76.0071C71.5088 74.9054 70.6158 74.0125 69.5142 74.0125C68.4125 74.0125 67.5195 74.9054 67.5195 76.0071V87.3765H65.5249C64.4233 87.3765 63.5303 88.2695 63.5303 89.3711ZM67.5195 91.3657H71.5088V111.312H67.5195V91.3657Z" fill="#7575CD"/>
<path d="M67.5195 91.3657H71.5088V111.312H67.5195V91.3657Z" fill="#7575CD"/>
<path d="M113.397 115.301H115.392V121.751C115.392 122.852 116.285 123.745 117.386 123.745C118.488 123.745 119.381 122.852 119.381 121.751V115.301H121.375C122.477 115.301 123.37 114.408 123.37 113.307V85.3818C123.37 84.2802 122.477 83.3872 121.375 83.3872H119.381V66.0339C119.381 64.9323 118.488 64.0393 117.386 64.0393C116.285 64.0393 115.392 64.9323 115.392 66.0339V83.3872H113.397C112.295 83.3872 111.402 84.2802 111.402 85.3818V113.307C111.402 114.408 112.295 115.301 113.397 115.301ZM115.392 87.3765H119.381V111.312H115.392V87.3765Z" fill="#333399"/>
<path d="M115.392 87.3765H119.381V111.312H115.392V87.3765Z" fill="#333399"/>
<path d="M81.4819 118.36H83.4766V131.724C83.4766 132.825 84.3696 133.718 85.4712 133.718C86.5728 133.718 87.4658 132.825 87.4658 131.724V118.36H89.4604C90.5621 118.36 91.4551 117.467 91.4551 116.365V102.403C91.4551 101.301 90.5621 100.408 89.4604 100.408H87.4658V95.9534C87.4658 94.8517 86.5728 93.9587 85.4712 93.9587C84.3696 93.9587 83.4766 94.8517 83.4766 95.9534V100.408H81.4819C80.3803 100.408 79.4873 101.301 79.4873 102.403V116.365C79.4873 117.467 80.3803 118.36 81.4819 118.36ZM83.4766 104.397H87.4658V114.37H83.4766V104.397Z" fill="#6262C0"/>
<path d="M83.4766 104.397H87.4658V114.37H83.4766V104.397Z" fill="#6262C0"/>
<path d="M97.439 130.327H99.4336V139.702C99.4336 140.804 100.327 141.697 101.428 141.697C102.53 141.697 103.423 140.804 103.423 139.702V130.327H105.417C106.519 130.327 107.412 129.434 107.412 128.333V110.381C107.412 109.279 106.519 108.386 105.417 108.386H103.423V105.927C103.423 104.825 102.53 103.932 101.428 103.932C100.327 103.932 99.4336 104.825 99.4336 105.927V108.386H97.439C96.3373 108.386 95.4443 109.279 95.4443 110.381V128.333C95.4443 129.434 96.3373 130.327 97.439 130.327ZM99.4336 112.376H103.423V126.338H99.4336V112.376Z" fill="#4C4CAE"/>
<path d="M99.4336 112.376H103.423V126.338H99.4336V112.376Z" fill="#4C4CAE"/>
<path d="M64.9284 50.3901C64.9284 68.3197 50.3943 82.8549 32.4648 82.8549C14.5353 82.8549 0 68.3197 0 50.3901C0 32.4607 14.5353 17.9265 32.4648 17.9265C50.3943 17.9265 64.9284 32.4607 64.9284 50.3901Z" fill="#4C4A58"/>
<path d="M60.4447 50.39C60.4447 65.8443 47.9183 78.3709 32.4651 78.3709C17.0119 78.3709 4.48438 65.8443 4.48438 50.39C4.48438 34.9369 17.0119 22.4104 32.4651 22.4104C47.9183 22.4104 60.4447 34.9369 60.4447 50.39Z" fill="#E5E4FF"/>
<path d="M33.8087 25.1903C33.8087 25.9334 33.2075 26.5355 32.4645 26.5355C31.7202 26.5355 31.1191 25.9334 31.1191 25.1903C31.1191 24.447 31.7202 23.8451 32.4645 23.8451C33.2075 23.8451 33.8087 24.447 33.8087 25.1903Z" fill="#7575CD"/>
<path d="M33.8087 74.9632C33.8087 75.7054 33.2075 76.3074 32.4645 76.3074C31.7202 76.3074 31.1191 75.7054 31.1191 74.9632C31.1191 74.22 31.7202 73.618 32.4645 73.618C33.2075 73.618 33.8087 74.22 33.8087 74.9632Z" fill="#7575CD"/>
<path d="M57.3493 51.4215C56.607 51.4215 56.0049 50.8194 56.0049 50.0762C56.0049 49.333 56.607 48.7319 57.3493 48.7319C58.0934 48.7319 58.6954 49.333 58.6954 50.0762C58.6954 50.8194 58.0934 51.4215 57.3493 51.4215Z" fill="#7575CD"/>
<path d="M7.5775 51.4215C6.83448 51.4215 6.23242 50.8194 6.23242 50.0762C6.23242 49.333 6.83448 48.7319 7.5775 48.7319C8.32076 48.7319 8.92281 49.333 8.92281 50.0762C8.92281 50.8194 8.32076 51.4215 7.5775 51.4215Z" fill="#7575CD"/>
<path d="M51.0128 33.4305C50.4875 33.9558 49.6359 33.9558 49.1108 33.4305C48.5855 32.9044 48.5855 32.0536 49.1108 31.5285C49.6359 31.0032 50.4875 31.0032 51.0128 31.5285C51.5381 32.0536 51.5381 32.9044 51.0128 33.4305Z" fill="#7575CD"/>
<path d="M15.8182 68.6251C15.2929 69.1502 14.4414 69.1502 13.9161 68.6251C13.39 68.0999 13.39 67.2482 13.9161 66.723C14.4414 66.1967 15.2929 66.1967 15.8182 66.723C16.3435 67.2482 16.3435 68.0999 15.8182 68.6251Z" fill="#7575CD"/>
<path d="M49.1108 68.6251C48.5855 68.0999 48.5855 67.2482 49.1108 66.723C49.6359 66.1967 50.4875 66.1967 51.0128 66.723C51.5381 67.2482 51.5381 68.0999 51.0128 68.6251C50.4875 69.1502 49.6359 69.1502 49.1108 68.6251Z" fill="#7575CD"/>
<path d="M13.9161 33.4305C13.39 32.9044 13.39 32.0536 13.9161 31.5285C14.4414 31.0032 15.2929 31.0032 15.8182 31.5285C16.3435 32.0536 16.3435 32.9044 15.8182 33.4305C15.2929 33.9558 14.4414 33.9558 13.9161 33.4305Z" fill="#7575CD"/>
<path d="M33.8087 28.8667H31.1191V57.7441H33.8087V28.8667Z" fill="#333399"/>
<path d="M43.1116 40.8955L25.7422 53.6636L27.3352 55.8307L44.7046 43.0627L43.1116 40.8955Z" fill="#333399"/>
<path d="M35.1543 50.3901C35.1543 51.8766 33.9493 53.0806 32.4639 53.0806C30.9774 53.0806 29.7734 51.8766 29.7734 50.3901C29.7734 48.9038 30.9774 47.6997 32.4639 47.6997C33.9493 47.6997 35.1543 48.9038 35.1543 50.3901Z" fill="#242424"/>
</g>
</svg>
