<svg width="100" height="100" viewBox="0 0 100 100" fill="none" xmlns="http://www.w3.org/2000/svg">
<path d="M85.1562 11.717C66.9916 11.717 51.8969 0.687744 51.7481 0.576221C51.2303 0.192822 50.615 0.0012207 50 0.0012207C49.385 0.0012207 48.7697 0.192822 48.252 0.576221C48.1031 0.68794 33.0084 11.717 14.8438 11.717C13.2244 11.717 11.9141 13.0274 11.9141 14.6467V48.6536C11.9141 48.6737 11.9256 49.2543 11.9256 49.2745C12.4178 72.1655 27.3465 92.6053 49.073 99.8467C49.3734 99.9469 49.6881 99.9983 50 99.9983C50.3119 99.9983 50.6266 99.9467 50.927 99.8467C72.8738 92.534 87.8055 71.8823 88.0859 48.4077V14.6467C88.0859 13.0274 86.7756 11.717 85.1562 11.717Z" fill="#242424"/>
<path d="M73.9781 22.3688C64.4851 20.5807 56.4658 16.8984 51.4103 14.1232C50.9697 13.883 50.4847 13.7627 49.9998 13.7627C49.5148 13.7627 49.0298 13.8828 48.5892 14.1232C43.5337 16.8984 35.5144 20.5807 26.0214 22.3688C24.6367 22.6291 23.6326 23.8365 23.6326 25.2469V48.708C23.8207 49.2941 23.2142 75.5266 48.8009 86.9885C49.1843 87.1572 49.5906 87.2432 49.9998 87.2432C50.4089 87.2432 50.8152 87.1574 51.1986 86.9885C77.8333 75.0549 76.1982 47.5758 76.3669 46.9885V25.2471C76.3671 23.8365 75.3628 22.6291 73.9781 22.3688Z" fill="#333399"/>
<path d="M60.3359 57.1016C60.3359 61.3692 57.2031 64.9785 52.9219 66.1328V69.3945H47.0625V66.1328C42.7813 64.9785 39.6484 61.3692 39.6484 57.1016H45.5078C45.5078 59.0645 47.5195 60.6602 49.9922 60.6602C52.4649 60.6602 54.4766 59.0645 54.4766 57.1016C54.4766 55.1406 52.4649 53.5449 49.9922 53.5449C44.2891 53.5449 39.6484 49.3203 39.6484 44.127C39.6484 39.8613 42.7813 36.25 47.0625 35.0957V31.8359H52.9219V35.0957C57.2031 36.25 60.3359 39.8613 60.3359 44.127H54.4766C54.4766 42.1641 52.4649 40.5684 49.9922 40.5684C47.5195 40.5684 45.5078 42.1641 45.5078 44.127C45.5078 46.0879 47.5195 47.6856 49.9922 47.6856C55.6953 47.6856 60.3359 51.9102 60.3359 57.1016Z" fill="white"/>
</svg>
