<svg width="100" height="100" viewBox="0 0 100 100" fill="none" xmlns="http://www.w3.org/2000/svg">
<rect x="31" width="69" height="11" rx="5.5" fill="#FFCD6B"/>
<rect x="25" y="11" width="69" height="11" rx="5.5" fill="#FFC147"/>
<rect x="28" y="22" width="69" height="11" rx="5.5" fill="#FFCD6B"/>
<rect x="25" y="33" width="69" height="11" rx="5.5" fill="#FFC147"/>
<rect x="28" y="44" width="69" height="12" rx="6" fill="#FFCD6B"/>
<rect x="31" y="56" width="69" height="11" rx="5.5" fill="#FFC147"/>
<rect x="31" y="67" width="69" height="11" rx="5.5" fill="#FFCD6B"/>
<rect x="28" y="78" width="69" height="11" rx="5.5" fill="#FFC147"/>
<rect x="31" y="89" width="69" height="11" rx="5.5" fill="#FFCD6B"/>
<circle cx="26.5" cy="73.5" r="26.5" fill="#F2B43A"/>
<path d="M37.6875 79.2656C37.6875 83.5332 34.5547 87.1426 30.2734 88.2969V91.5586H24.4141V88.2969C20.1328 87.1426 17 83.5332 17 79.2656H22.8594C22.8594 81.2285 24.8711 82.8242 27.3438 82.8242C29.8164 82.8242 31.8281 81.2285 31.8281 79.2656C31.8281 77.3047 29.8164 75.709 27.3438 75.709C21.6406 75.709 17 71.4844 17 66.291C17 62.0254 20.1328 58.4141 24.4141 57.2598V54H30.2734V57.2598C34.5547 58.4141 37.6875 62.0254 37.6875 66.291H31.8281C31.8281 64.3281 29.8164 62.7324 27.3438 62.7324C24.8711 62.7324 22.8594 64.3281 22.8594 66.291C22.8594 68.252 24.8711 69.8496 27.3438 69.8496C33.0469 69.8496 37.6875 74.0742 37.6875 79.2656Z" fill="white"/>
<path d="M78.0229 10.0953L78.5273 10.3213C80.8323 11.3545 82.6768 13.199 83.71 15.504L83.9363 16.0085C84.5474 17.3723 86.4834 17.3723 87.0948 16.0085L87.3208 15.504C88.3538 13.1988 90.1985 11.3543 92.5035 10.321L93.008 10.095C94.3718 9.48368 94.3718 7.54765 93.008 6.93631L92.5035 6.71028C90.1985 5.67732 88.3538 3.83257 87.3208 1.52732L87.0948 1.02286C86.4837 -0.340954 84.5474 -0.340954 83.9363 1.02286L83.71 1.52732C82.6771 3.83231 80.8323 5.67707 78.5273 6.71003L78.0229 6.93605C76.659 7.54791 76.659 9.48394 78.0229 10.0953Z" fill="#333399"/>
<path d="M8.02267 12.095L8.52713 12.321C10.8321 13.3543 12.6766 15.1988 13.7098 17.504L13.9361 18.0085C14.5472 19.3723 16.4832 19.3723 17.0946 18.0085L17.3206 17.504C18.3536 15.1988 20.1983 13.3543 22.5033 12.321L23.0078 12.095C24.3716 11.4837 24.3716 9.54765 23.0078 8.93631L22.5033 8.71029C20.1983 7.67733 18.3536 5.83257 17.3206 3.52733L17.0946 3.02286C16.4835 1.65905 14.5475 1.65905 13.9361 3.02286L13.7098 3.52733C12.6769 5.83231 10.8321 7.67707 8.52713 8.71003L8.02267 8.93605C6.65911 9.54765 6.65911 11.4839 8.02267 12.095Z" fill="#333399"/>
<path d="M55.0229 43.0953L55.5273 43.3213C57.8323 44.3545 59.6768 46.199 60.71 48.504L60.9363 49.0085C61.5474 50.3723 63.4837 50.3723 64.0948 49.0085L64.3208 48.504C65.3538 46.199 67.1985 44.3543 69.5035 43.3211L70.008 43.095C71.3718 42.4837 71.3718 40.5477 70.008 39.9363L69.5035 39.7103C67.1985 38.6773 65.3538 36.8326 64.3208 34.5273L64.0948 34.0229C63.4837 32.659 61.5474 32.659 60.9363 34.0229L60.71 34.5273C59.6771 36.8323 57.8323 38.6771 55.5273 39.71L55.0229 39.9361C53.659 40.5479 53.659 42.4839 55.0229 43.0953Z" fill="#333399"/>
</svg>
