<svg width="100" height="100" viewBox="0 0 100 100" fill="none" xmlns="http://www.w3.org/2000/svg">
<g clip-path="url(#clip0)">
<path d="M47.0703 85.3359H52.9297V97.0705H47.0703V85.3359Z" fill="#242424"/>
<path d="M24.3989 7.76353C16.1128 16.0497 11.5493 27.0854 11.5493 38.8376C11.5493 50.5897 16.1128 61.6254 24.3989 69.9116C32.6851 78.1977 43.7208 82.7612 55.4729 82.7612C67.2253 82.7612 78.2608 78.1977 86.5472 69.9116L90.6903 74.0547C81.2974 83.4477 68.7903 88.6206 55.4729 88.6206C42.1556 88.6206 29.6485 83.4477 20.2558 74.0547C10.8628 64.662 5.68994 52.1549 5.68994 38.8376C5.68994 25.5202 10.8628 13.0131 20.2558 3.62036L24.3989 7.76353Z" fill="#333399"/>
<path d="M63.6719 100H36.3281C34.7102 100 33.3984 98.6883 33.3984 97.0703C33.3984 95.4523 34.7102 94.1406 36.3281 94.1406H63.6719C65.2898 94.1406 66.6016 95.4523 66.6016 97.0703C66.6016 98.6883 65.2898 100 63.6719 100Z" fill="#333399"/>
<path d="M30.6135 16.9079C29.8637 16.9079 29.1139 16.622 28.542 16.0497L17.4934 5.00127C16.3492 3.85713 16.3492 2.00225 17.4934 0.858105C18.6373 -0.286035 20.4924 -0.286035 21.6365 0.858105L32.685 11.9065C33.8291 13.0507 33.8291 14.9056 32.685 16.0497C32.1131 16.6218 31.3633 16.9079 30.6135 16.9079Z" fill="#242424"/>
<path d="M91.3806 77.675C90.6308 77.675 89.881 77.3891 89.3091 76.8168L78.2607 65.7684C77.1166 64.6242 77.1166 62.7693 78.2607 61.6252C79.4046 60.4811 81.2597 60.4811 82.4039 61.6252L93.4523 72.6736C94.5964 73.8178 94.5964 75.6727 93.4523 76.8168C92.8802 77.3889 92.1304 77.675 91.3806 77.675Z" fill="#242424"/>
<path d="M18.4413 47.6925C16.9298 41.3275 17.0728 34.6472 18.8689 28.3417L44.9782 2.23214C53.1816 -0.104575 62.0198 0.356948 69.9712 3.61867L93.521 39.9587C93.2466 49.3337 89.5417 58.6259 82.4021 65.7655C76.339 71.8286 68.7232 75.415 60.8228 76.5271L18.4413 47.6925Z" fill="#8BD7E8"/>
<path d="M68.7751 28.8452C65.8493 29.2632 62.855 28.2651 60.765 26.1751C57.0843 22.4944 57.0841 16.5056 60.765 12.8247L69.971 3.61865C74.4956 5.47451 78.7331 8.23525 82.4019 11.9038C90.1121 19.614 93.8171 29.8345 93.5208 39.9587L88.2675 41.5038C84.9619 42.4761 81.3915 41.9843 78.472 40.1546C75.5523 38.3249 73.5529 35.3265 72.9865 31.9276C72.6556 29.9435 70.7663 28.5606 68.7751 28.8452Z" fill="#339950"/>
<path d="M28.5401 65.7656C23.38 60.6054 20.0149 54.3203 18.4409 47.6925L20.3339 46.5568C27.4767 42.271 35.9356 40.6648 44.1522 42.0343C46.286 42.39 48.4735 41.689 50.0032 40.1593L51.9433 38.2193C56.1731 33.9894 63.0554 33.9894 67.2853 38.2193C69.5925 40.5265 70.7313 43.7123 70.4099 46.9593C70.0886 50.2062 68.3474 53.1062 65.6319 54.9168C61.302 57.8039 59.0298 62.8027 59.703 67.9632L60.8226 76.5271C49.3735 78.1384 37.3269 74.5521 28.5401 65.7656Z" fill="#339950"/>
<path d="M28.5401 11.9041C33.2739 7.17031 38.9547 3.94805 44.978 2.23242C50.9389 9.51367 50.5237 20.3041 43.7319 27.0959C36.9401 33.8877 26.1497 34.3029 18.8684 28.342C20.5842 22.3188 23.8063 16.6379 28.5401 11.9041Z" fill="#339950"/>
<path d="M51.9432 38.2195L50.0031 40.1595C50.0021 40.1605 50.001 40.1615 50 40.1625V76.5101C53.5871 77.0263 57.2342 77.0324 60.8225 76.5273L59.7029 67.9635C59.0297 62.8027 61.3019 57.8041 65.6318 54.917C68.3473 53.1066 70.0885 50.2064 70.4098 46.9597C70.7312 43.7127 69.5924 40.5269 67.2852 38.2197C63.0553 33.9896 56.1729 33.9896 51.9432 38.2195Z" fill="#339950"/>
</g>
<defs>
<clipPath id="clip0">
<rect width="100" height="100" fill="white"/>
</clipPath>
</defs>
</svg>
