<svg width="100" height="100" viewBox="0 0 100 100" fill="none" xmlns="http://www.w3.org/2000/svg">
<path d="M40.2344 10.9375L11.7188 7.8125H10.7422C4.81895 7.8125 0 12.6314 0 18.5547V89.2578C0 95.1811 4.81895 100 10.7422 100H69.7266C75.6498 100 80.4688 95.1811 80.4688 89.2578V18.5547C80.4688 12.6314 75.6498 7.8125 69.7266 7.8125H68.75L40.2344 10.9375Z" fill="#333399"/>
<path d="M11.7188 7.8125V68.75L18.75 82.0312L31.25 88.2812H65.8203C67.4383 88.2812 68.75 86.9695 68.75 85.3516V7.8125H11.7188Z" fill="#E5E4FF"/>
<path d="M11.7188 68.75V85.3516C11.7188 86.9695 13.0305 88.2812 14.6484 88.2812H31.25L11.7188 68.75Z" fill="#E5E4FF"/>
<path d="M54.1016 15.625H26.3672C24.7492 15.625 23.4375 14.3133 23.4375 12.6953V2.92969C23.4375 1.31172 24.7492 0 26.3672 0H54.1016C55.7195 0 57.0312 1.31172 57.0312 2.92969V12.6953C57.0312 14.3133 55.7195 15.625 54.1016 15.625Z" fill="#333399"/>
<path d="M54.1016 29.2969H26.3672C24.7492 29.2969 23.4375 27.9852 23.4375 26.3672C23.4375 24.7492 24.7492 23.4375 26.3672 23.4375H54.1016C55.7195 23.4375 57.0312 24.7492 57.0312 26.3672C57.0312 27.9852 55.7195 29.2969 54.1016 29.2969Z" fill="#333399"/>
<path d="M52.7445 41.0156H26.3672C24.7492 41.0156 23.4375 39.7039 23.4375 38.0859C23.4375 36.468 24.7492 35.1562 26.3672 35.1562H52.7445C54.3625 35.1562 55.6742 36.468 55.6742 38.0859C55.6742 39.7039 54.3625 41.0156 52.7445 41.0156Z" fill="#333399"/>
<path d="M48.2422 52.7344H26.3672C24.7492 52.7344 23.4375 51.4227 23.4375 49.8047C23.4375 48.1867 24.7492 46.875 26.3672 46.875H48.2422C49.8602 46.875 51.1719 48.1867 51.1719 49.8047C51.1719 51.4227 49.8602 52.7344 48.2422 52.7344Z" fill="#333399"/>
<path d="M52.7447 64.4531H38.0859C36.468 64.4531 35.1562 63.1414 35.1562 61.5234C35.1562 59.9055 36.468 58.5938 38.0859 58.5938H52.7447C54.3627 58.5938 55.6744 59.9055 55.6744 61.5234C55.6744 63.1414 54.3627 64.4531 52.7447 64.4531Z" fill="#333399"/>
<path d="M31.25 88.2812L11.7188 68.75H28.3203C29.9383 68.75 31.25 70.0617 31.25 71.6797V88.2812Z" fill="#BDBBEF"/>
<path d="M80.4563 56.1543L72.1699 64.4408L89.9975 82.2683C92.2857 84.5566 95.9955 84.5566 98.2838 82.2683C100.572 79.9801 100.572 76.2703 98.2838 73.982L80.4563 56.1543Z" fill="#4C4A58"/>
<path d="M65.8206 70.3125C54.5126 70.3125 45.3127 61.1127 45.3127 49.8047C45.3127 38.4967 54.5126 29.2969 65.8206 29.2969C77.1286 29.2969 86.3284 38.4967 86.3284 49.8047C86.3284 61.1127 77.1286 70.3125 65.8206 70.3125Z" fill="#242424"/>
<path d="M65.8198 64.4531C73.9099 64.4531 80.4683 57.8948 80.4683 49.8047C80.4683 41.7146 73.9099 35.1562 65.8198 35.1562C57.7297 35.1562 51.1714 41.7146 51.1714 49.8047C51.1714 57.8948 57.7297 64.4531 65.8198 64.4531Z" fill="white"/>
</svg>
