<svg width="100" height="100" viewBox="0 0 100 100" fill="none" xmlns="http://www.w3.org/2000/svg">
<path d="M16.8587 11.2889V15.4212L16.8421 28.0929C16.8399 29.6493 17.4057 31.1532 18.4332 32.324L22.4609 36.9141L7.22656 32.1098V8.10029C7.22873 7.24528 7.57124 6.42559 8.17966 5.82218C8.78736 5.21877 9.61039 4.88066 10.4681 4.88282C14.0037 4.89508 16.863 7.76146 16.8587 11.2889Z" fill="#F0DED0"/>
<path d="M29.3918 17.0833L23.0625 23.1948L22.1999 23.9666L14.3045 31.1235C13.9815 31.4616 13.8283 31.9293 13.8894 32.394C13.9592 32.8407 13.9916 33.2925 13.9851 33.7449V33.8253H13.3779C10.6615 33.8159 8.23491 35.5302 7.32056 38.1038L4.33216 46.5313L3.42068 53.125L2.95739 48.9594C2.13511 43.5255 1.73441 38.035 1.75887 32.5388C1.73801 31.3067 2.19051 30.1143 3.02142 29.2094L7.33638 24.4972H7.35221V24.4813L16.9095 15.4906L16.9418 15.4587L24.8689 7.98035C25.4667 7.37295 26.2804 7.03125 27.13 7.03125C27.9796 7.03125 28.794 7.37295 29.3918 7.98035C29.4544 8.04043 29.5134 8.10486 29.5673 8.17292C29.881 8.52548 30.1594 8.90772 30.3982 9.3153C31.8356 11.8383 31.4234 15.0157 29.3918 17.0833Z" fill="#E4CEBC"/>
<path d="M31.2202 11.8656C31.4034 13.7695 30.7342 15.6567 29.3942 17.0157L23.0493 23.1316L22.1846 23.9039L14.2696 31.0658C13.9458 31.4041 13.7922 31.8721 13.8535 32.3372C13.9235 32.7842 13.9559 33.2363 13.9494 33.6891V33.7695H13.3408C10.6176 33.7601 8.18506 35.4756 7.26844 38.051L4.27266 46.4844C3.87169 42.2833 3.74332 37.2135 3.71158 34.5099C3.69139 33.2776 4.14429 32.0844 4.97725 31.1788L9.30289 26.4626H9.31875V26.4467L18.8996 17.4504L18.9321 17.4178L26.8787 9.9342C27.4809 9.32566 28.2995 8.98372 29.1533 8.98444C29.5781 8.98155 29.9993 9.06921 30.3873 9.24235H30.4032L30.4515 9.3387C30.4515 9.35464 30.4673 9.35464 30.4673 9.37058C30.5423 9.48577 30.6015 9.61037 30.6433 9.74077C30.6931 9.82916 30.7356 9.92044 30.7717 10.0146C30.8575 10.2001 30.9217 10.3942 30.9642 10.5942C30.9873 10.634 31.0032 10.6775 31.0118 10.7231C31.0702 10.9122 31.1128 11.1056 31.1402 11.302C31.1835 11.4874 31.2109 11.6758 31.2202 11.8656Z" fill="#F0DED0"/>
<path d="M38.4766 42.5848C38.4766 42.731 38.4606 42.8765 38.4288 43.0191C38.389 43.3839 38.2683 43.7356 38.0751 44.0483C37.7808 44.5275 37.4242 44.9654 37.0148 45.3504L36.7739 45.6885L32.9491 42.9387C31.8591 42.1664 30.5572 41.751 29.2213 41.7488H16.5759C13.8577 41.7437 11.434 43.4599 10.5342 46.0258L4.04187 64.4531L2.11428 63.1351C1.97324 63.0424 1.83943 62.9404 1.71213 62.8296C0.175126 61.5536 -0.396278 59.4502 0.282174 57.5712L3.28675 49.0809L4.20316 46.4926L7.20774 38.0668C8.12705 35.4937 10.5667 33.7797 13.2979 33.7891H27.0846C27.7522 33.7913 28.4025 33.999 28.9486 34.3841L37.2715 40.2853C38.0216 40.8115 38.4708 41.6684 38.4766 42.5848Z" fill="#E4CEBC"/>
<path d="M35.6183 41.8466C37.228 43.4537 37.5497 44.9797 37.1476 45.3652L36.9064 45.703L33.0753 42.9554C31.9836 42.1837 30.6795 41.7685 29.3414 41.7664H16.6754C13.9528 41.7613 11.5251 43.4761 10.6239 46.04L4.12097 64.4531L2.19025 63.1361C2.04897 63.0435 1.91495 62.9415 1.78744 62.8309C1.70557 62.1026 1.79396 61.3656 2.04535 60.6778L5.05482 52.1941L8.9822 41.1878C9.90229 38.6166 12.3467 36.9047 15.0816 36.9141H27.4266C28.0953 36.9163 28.7466 37.1238 29.2936 37.5086C29.2936 37.5086 35.3531 41.5812 35.6183 41.8466Z" fill="#F0DED0"/>
<path d="M59.475 94.7266H36.0786C34.3077 94.7172 32.8765 93.2835 32.8765 91.5168C32.875 90.4586 32.3513 89.4691 31.4771 88.8696L5.42613 71.0591C3.62189 69.8226 2.87079 67.5359 3.59147 65.4745L3.99346 64.3514L10.4948 45.963C11.3958 43.4025 13.823 41.69 16.5449 41.6951H29.2079C30.5457 41.6973 31.8494 42.1118 32.9409 42.8825L36.771 45.6264L37.0122 45.2891C37.4222 44.9049 37.7793 44.4679 38.0741 43.9897C38.8375 42.7214 38.4855 41.0812 37.2693 40.2346L28.9348 34.346C28.388 33.9617 27.7368 33.7544 27.0683 33.7522H22.0474V33.6721C21.4339 30.4551 21.4781 27.1478 22.1763 23.9488L22.1445 23.9163L23.0129 23.1464L29.3853 17.049C31.8081 14.6055 31.8856 10.6973 29.562 8.15921L29.6584 8.07904C29.6584 8.07904 34.4699 4.86998 37.688 9.68393C40.9061 14.4979 31.2678 19.2309 36.0786 28.8581C38.7339 34.1538 45.8784 39.4163 47.3263 40.4918C55.6543 48.0099 60.1254 58.8801 59.4909 70.0638C59.1223 74.0847 59.3772 78.1388 60.2471 82.0824L62.6127 90.7952C62.8336 91.7486 62.6062 92.7497 61.9949 93.5153C61.3835 94.2809 60.4557 94.7266 59.475 94.7266Z" fill="#F0DED0"/>
<path d="M31.7984 9.22716L31.7022 9.30743C34.0219 11.8476 33.9445 15.7602 31.5258 18.2064L25.1641 24.3107L24.2971 25.0822L24.3289 25.114C23.7078 27.9587 23.6044 30.8915 24.0238 33.7723H22.112V33.692C21.4995 30.4714 21.5436 27.1604 22.2407 23.9578L22.2088 23.9253L23.0758 23.1545L29.4375 17.0502C30.781 15.6937 31.452 13.8101 31.2684 11.9098C31.2561 11.7204 31.2293 11.5324 31.1881 11.3472C31.1686 11.1506 31.1252 10.9561 31.0594 10.7695C31.0507 10.7239 31.0348 10.6806 31.0117 10.6408C30.9618 10.4434 30.8974 10.2503 30.8186 10.0623C30.7825 9.96833 30.7398 9.87722 30.6899 9.789C30.6407 9.66174 30.5822 9.53809 30.5135 9.41951C30.5135 9.4036 30.4976 9.4036 30.4976 9.38769L30.4491 9.29152H30.4332C30.204 8.88153 29.9292 8.49902 29.614 8.15049L29.7101 8.07023C29.7101 8.07023 33.5013 5.5322 36.6019 8.34356C34.9467 8.01094 33.2272 8.32693 31.7984 9.22716Z" fill="#E4CEBC"/>
<path d="M42.5341 83.4815C41.6468 83.4815 40.9274 82.7628 40.9274 81.8756C40.9274 76.2529 31.3075 71.7921 27.5951 70.5492C26.7911 70.2404 26.3731 69.3532 26.6472 68.5368C26.9219 67.7212 27.7911 67.2664 28.6183 67.5064C29.2525 67.7183 44.1408 72.7965 44.1408 81.8806C44.1379 82.7657 43.4191 83.4815 42.5341 83.4815Z" fill="#E4CEBC"/>
<path d="M48.945 70.6305C43.4402 70.6305 39.3634 66.7931 36.9121 63.5717C36.5643 63.1155 36.487 62.5074 36.709 61.9781C36.9309 61.4488 37.4183 61.0786 37.9874 61.0055C38.5572 60.9332 39.1219 61.1697 39.469 61.6267C41.4806 64.2674 44.7554 67.4099 48.9464 67.4099C49.8337 67.4099 50.5531 68.1286 50.5531 69.0159C50.5531 69.9031 49.8337 70.6225 48.9464 70.6225L48.945 70.6305Z" fill="#E4CEBC"/>
<path d="M40.2461 4.88281C39.6163 4.88281 39.0476 4.49758 38.7994 3.90447C38.5512 3.31135 38.6717 2.62375 39.1057 2.15566L40.6071 0.540584C40.9893 0.100111 41.5758 -0.091052 42.1368 0.0412354C42.697 0.172796 43.1431 0.608182 43.2999 1.17513C43.4566 1.7428 43.2984 2.35263 42.8885 2.76621L41.3865 4.38056C41.09 4.7011 40.6773 4.88281 40.2461 4.88281Z" fill="#333399"/>
<path d="M44.5649 10.3516C43.767 10.3509 43.0921 9.77281 42.9835 8.99644C42.8757 8.22007 43.3674 7.48463 44.1358 7.2736L46.2117 6.69979C47.0606 6.46476 47.9433 6.95105 48.1819 7.78459C48.4213 8.61884 47.926 9.48485 47.0771 9.71988L45.0012 10.2916C44.8596 10.3318 44.7123 10.3516 44.5649 10.3516Z" fill="#333399"/>
<path d="M45.2782 17.9687C45.1315 17.9694 44.9855 17.9497 44.8439 17.9108L42.7673 17.3369C42.218 17.1852 41.7923 16.7574 41.6514 16.2145C41.5097 15.671 41.6751 15.0957 42.0835 14.7039C42.4919 14.3128 43.0823 14.1646 43.6316 14.3164L45.7081 14.8903C46.4768 15.1013 46.9686 15.8369 46.86 16.6134C46.7515 17.3899 46.0763 17.968 45.2782 17.9687Z" fill="#333399"/>
<path d="M41.5516 54.1749C40.4217 56.0432 38.5757 57.3708 36.4403 57.8516C34.3042 58.3324 32.0646 57.9237 30.2381 56.7207L27.0083 54.5591C26.7442 54.3904 26.4375 54.3017 26.1243 54.3025H21.175C20.4842 54.301 19.8693 54.7393 19.648 55.3916C19.5518 55.7282 19.3912 56.1441 19.2147 56.6248C17.8483 60.4032 16.5787 64.1822 19.6646 68.0737H19.648C19.8042 68.2186 19.8534 68.4457 19.771 68.6417C19.6885 68.8385 19.4917 68.9625 19.2784 68.9545C19.2082 68.9524 19.138 68.9416 19.07 68.9221C19.0216 68.9055 18.9774 68.8781 18.9413 68.8421C18.6837 68.7138 18.5232 68.6179 18.4754 68.6021C12.3687 66.1521 15.0524 58.7223 16.1932 55.5357C16.3538 55.1033 16.4825 54.7349 16.5787 54.4149C17.2225 52.4306 19.0816 51.0899 21.175 51.1H26.1243C27.0784 51.1022 28.0109 51.3804 28.808 51.9008L32.0219 54.0466C33.1128 54.7702 34.4539 55.0175 35.7321 54.7299C37.0103 54.4423 38.1149 53.6458 38.7876 52.525C39.1334 51.9823 38.9923 51.2644 38.4664 50.8917L37.9036 50.4917L34.8669 48.3301L34.7867 48.2659L31.5402 45.976C30.4558 45.1961 29.1494 44.7809 27.8119 44.791L18.3307 44.8393C15.6094 44.8249 13.1804 46.5368 12.2884 49.0984L5.18496 69.1787L4.78349 70.2836C4.75456 70.3557 4.73286 70.4307 4.71911 70.5078C3.41705 69.1996 2.98013 67.265 3.59427 65.5272L3.99574 64.4064L10.4887 46.056C11.3886 43.5008 13.8126 41.7918 16.531 41.7969H29.1777C30.5137 41.799 31.8158 42.2128 32.9059 42.9819L36.7311 45.7201L39.5754 47.7534L40.3306 48.2818C42.2142 49.6304 42.7452 52.1927 41.5516 54.1749Z" fill="#E4CEBC"/>
<path d="M16.4062 8.85671C15.3508 8.16002 14.1133 7.78715 12.8476 7.78282C11.0708 7.78859 9.63185 9.21948 9.62605 10.9872V22.1869L7.22656 24.4141V8.08718C7.23236 6.31947 8.67133 4.88858 10.4474 4.88281C12.156 4.8857 13.7936 5.55931 15.005 6.75725C15.6023 7.36235 16.0779 8.07491 16.4062 8.85671Z" fill="#E4CEBC"/>
<rect x="32.0312" y="91.2109" width="32.8125" height="8.78906" rx="4.39453" fill="#333399"/>
</svg>
