<svg width="100" height="100" viewBox="0 0 100 100" fill="none" xmlns="http://www.w3.org/2000/svg">
<g clip-path="url(#clip0)">
<path d="M50 100C77.6142 100 100 77.6142 100 50C100 22.3858 77.6142 0 50 0C22.3858 0 0 22.3858 0 50C0 77.6142 22.3858 100 50 100Z" fill="#333399"/>
<path d="M49.9999 86.2069C69.9964 86.2069 86.2068 69.9965 86.2068 50C86.2068 30.0035 69.9964 13.7931 49.9999 13.7931C30.0033 13.7931 13.793 30.0035 13.793 50C13.793 69.9965 30.0033 86.2069 49.9999 86.2069Z" fill="#7575CD"/>
<path d="M10.6461 81.5433L0 87.9311L8.62069 89.6552L8.06099 100L22.4138 91.3793L18.2761 85.1729L10.6461 81.5433Z" fill="#F9BE4B"/>
<path d="M88.7928 81.2069L99.9997 87.9311L91.379 89.6552L91.9387 100L77.5859 91.3793L82.0855 84.63L88.7928 81.2069Z" fill="#F9BE4B"/>
<path d="M31.0352 43.7499C31.0352 40.8933 33.3509 38.5775 36.2076 38.5775C39.0642 38.5775 41.38 40.8933 41.38 43.7499V54.5258C41.38 57.3824 39.0642 59.6982 36.2076 59.6982C33.3509 59.6982 31.0352 57.3824 31.0352 54.5258V43.7499Z" fill="#242424"/>
<path d="M68.9651 40.5172C68.9651 39.8313 68.6927 39.1735 68.2076 38.6885C67.7226 38.2035 67.0648 37.931 66.3789 37.931H56.8962C55.9816 37.931 55.1045 37.5677 54.4579 36.9211C53.8112 36.2744 53.4479 35.3973 53.4479 34.4828V29.3103C53.4479 28.3958 53.0846 27.5187 52.4379 26.872C51.7912 26.2254 50.9141 25.8621 49.9996 25.8621H46.5513V29.6621C46.5513 31.1904 46.2503 32.7037 45.6655 34.1157C45.0806 35.5277 44.2234 36.8107 43.1427 37.8914L41.3789 39.6552V58.6207H61.2065C61.8924 58.6207 62.5502 58.3482 63.0352 57.8632C63.5202 57.3782 63.7927 56.7204 63.7927 56.0345C63.7927 55.3486 63.5202 54.6908 63.0352 54.2058C62.5502 53.7207 61.8924 53.4483 61.2065 53.4483H62.9306C63.6165 53.4483 64.2744 53.1758 64.7594 52.6908C65.2444 52.2058 65.5168 51.548 65.5168 50.8621C65.5168 50.1762 65.2444 49.5183 64.7594 49.0333C64.2744 48.5483 63.6165 48.2759 62.9306 48.2759H64.6548C65.3407 48.2759 65.9985 48.0034 66.4835 47.5184C66.9685 47.0334 67.241 46.3756 67.241 45.6896C67.241 45.0037 66.9685 44.3459 66.4835 43.8609C65.9985 43.3759 65.3407 43.1034 64.6548 43.1034H66.3789C67.0648 43.1034 67.7226 42.831 68.2076 42.346C68.6927 41.861 68.9651 41.2031 68.9651 40.5172Z" fill="#F0DED0"/>
<path d="M13.5575 74.389L6.89648 77.5862L13.793 87.9311C25.1033 82.5452 37.4727 79.7504 49.9999 79.7504C62.5271 79.7504 74.8965 82.5452 86.2068 87.9311L93.1034 77.5862L86.4424 74.389C75.0694 68.9299 62.6153 66.0957 49.9999 66.0957C37.3846 66.0957 24.9305 68.9299 13.5575 74.389Z" fill="#FFCD6B"/>
<path d="M50.615 69.4123L51.2243 71.2873H53.1956C53.3322 71.2874 53.4652 71.3306 53.5756 71.4109C53.6861 71.4911 53.7683 71.6043 53.8105 71.7341C53.8526 71.864 53.8526 72.0039 53.8104 72.1337C53.7682 72.2635 53.686 72.3767 53.5756 72.457L51.9808 73.6158L52.59 75.4908C52.6322 75.6207 52.6322 75.7606 52.59 75.8904C52.5479 76.0203 52.4656 76.1335 52.3551 76.2137C52.2447 76.294 52.1116 76.3372 51.975 76.3372C51.8385 76.3372 51.7054 76.2939 51.595 76.2136L50.0001 75.0548L48.4053 76.2136C48.2949 76.2939 48.1618 76.3372 48.0253 76.3372C47.8887 76.3372 47.7556 76.294 47.6452 76.2137C47.5347 76.1335 47.4524 76.0203 47.4102 75.8904C47.368 75.7606 47.3681 75.6207 47.4103 75.4908L48.0195 73.6158L46.4247 72.457C46.3143 72.3767 46.232 72.2635 46.1898 72.1337C46.1477 72.0039 46.1477 71.864 46.1898 71.7341C46.232 71.6043 46.3142 71.4911 46.4247 71.4109C46.5351 71.3306 46.6681 71.2874 46.8047 71.2873H48.776L49.3853 69.4123C49.4275 69.2825 49.5097 69.1694 49.6202 69.0891C49.7306 69.0089 49.8636 68.9657 50.0001 68.9657C50.1367 68.9657 50.2697 69.0089 50.3801 69.0891C50.4906 69.1694 50.5728 69.2825 50.615 69.4123Z" fill="#F7B64C"/>
<path d="M40.6658 70.659L41.275 72.534H43.2464C43.3829 72.534 43.5159 72.5772 43.6264 72.6575C43.7368 72.7377 43.819 72.8509 43.8612 72.9807C43.9034 73.1106 43.9034 73.2505 43.8612 73.3803C43.819 73.5102 43.7368 73.6233 43.6263 73.7036L42.0315 74.8624L42.6406 76.7374C42.6827 76.8672 42.6827 77.0071 42.6405 77.1369C42.5983 77.2667 42.5161 77.3799 42.4057 77.4601C42.2952 77.5404 42.1622 77.5836 42.0257 77.5836C41.8892 77.5836 41.7562 77.5405 41.6457 77.4602L40.0509 76.3016L38.4561 77.4602C38.3456 77.5405 38.2126 77.5838 38.076 77.5838C37.9395 77.5838 37.8064 77.5406 37.6959 77.4604C37.5854 77.3801 37.5032 77.2669 37.461 77.137C37.4188 77.0072 37.4188 76.8673 37.461 76.7374L38.0703 74.8624L36.4755 73.7036C36.365 73.6233 36.2828 73.5101 36.2406 73.3803C36.1984 73.2504 36.1984 73.1105 36.2406 72.9806C36.2829 72.8508 36.3651 72.7376 36.4756 72.6574C36.5861 72.5771 36.7191 72.5339 36.8557 72.534H38.827L39.4363 70.659C39.4785 70.5292 39.5607 70.4162 39.6712 70.336C39.7816 70.2558 39.9146 70.2126 40.051 70.2126C40.1875 70.2126 40.3204 70.2558 40.4309 70.336C40.5413 70.4162 40.6235 70.5292 40.6658 70.659Z" fill="#F7B64C"/>
<path d="M60.566 70.659L61.1752 72.534H63.1466C63.2831 72.5339 63.4162 72.5771 63.5266 72.6574C63.6371 72.7376 63.7194 72.8508 63.7616 72.9806C63.8038 73.1105 63.8038 73.2504 63.7616 73.3803C63.7194 73.5101 63.6372 73.6233 63.5267 73.7036L61.9319 74.8624L62.5412 76.7374C62.5834 76.8673 62.5834 77.0072 62.5412 77.137C62.499 77.2669 62.4168 77.3801 62.3063 77.4604C62.1958 77.5406 62.0628 77.5838 61.9262 77.5838C61.7896 77.5838 61.6566 77.5405 61.5461 77.4602L59.9513 76.3016L58.3565 77.4602C58.246 77.5405 58.113 77.5836 57.9765 77.5836C57.84 77.5836 57.707 77.5404 57.5965 77.4601C57.4861 77.3799 57.4039 77.2667 57.3617 77.1369C57.3195 77.0071 57.3195 76.8672 57.3617 76.7374L57.9707 74.8624L56.3759 73.7036C56.2654 73.6233 56.1832 73.5102 56.141 73.3803C56.0988 73.2505 56.0988 73.1106 56.141 72.9807C56.1832 72.8509 56.2654 72.7377 56.3758 72.6575C56.4863 72.5772 56.6193 72.534 56.7558 72.534H58.7272L59.3364 70.659C59.3787 70.5292 59.4609 70.4162 59.5714 70.336C59.6818 70.2558 59.8147 70.2126 59.9512 70.2126C60.0877 70.2126 60.2206 70.2558 60.3311 70.336C60.4415 70.4162 60.5237 70.5292 60.566 70.659Z" fill="#F7B64C"/>
</g>
<defs>
<clipPath id="clip0">
<rect width="100" height="100" fill="white"/>
</clipPath>
</defs>
</svg>
