<svg width="100" height="100" viewBox="0 0 100 100" fill="none" xmlns="http://www.w3.org/2000/svg">
<g clip-path="url(#clip0)">
<path d="M6.45161 52.9678C10.0097 52.9678 12.9032 50.0743 12.9032 46.5162C12.9032 46.3162 12.8613 46.1259 12.8435 45.9307L33.4 35.6533C34.5645 37.3404 36.5081 38.4517 38.7097 38.4517C40.779 38.4517 42.6016 37.4565 43.7839 35.9372L52.4629 43.3759C51.9371 44.3098 51.6129 45.3711 51.6129 46.5162C51.6129 50.0743 54.5065 52.9678 58.0645 52.9678C61.6226 52.9678 64.5161 50.0743 64.5161 46.5162C64.5161 46.2372 64.4677 45.9727 64.4339 45.7033L90.1984 22.9711C91.1774 23.5711 92.3177 23.9356 93.5484 23.9356C97.1065 23.9356 100 21.042 100 17.484C100 13.9259 97.1065 11.0323 93.5484 11.0323C89.9903 11.0323 87.0968 13.9259 87.0968 17.484C87.0968 18.6388 87.4258 19.7065 87.9581 20.6452L63.1226 42.5598C61.9403 41.0517 60.1242 40.0646 58.0645 40.0646C56.8242 40.0646 55.6758 40.4323 54.6919 41.042L45.0806 32.8033C45.1129 32.5372 45.1613 32.2743 45.1613 32.0001C45.1613 28.442 42.2677 25.5485 38.7097 25.5485C35.1516 25.5485 32.2581 28.442 32.2581 32.0001C32.2581 32.2001 32.3 32.3904 32.3177 32.5856L11.7613 42.8646C10.5968 41.1759 8.65323 40.0646 6.45161 40.0646C2.89355 40.0646 0 42.9582 0 46.5162C0 50.0743 2.89355 52.9678 6.45161 52.9678ZM93.5484 14.2582C95.3274 14.2582 96.7742 15.7049 96.7742 17.484C96.7742 19.263 95.3274 20.7098 93.5484 20.7098C91.7694 20.7098 90.3226 19.263 90.3226 17.484C90.3226 15.7049 91.7694 14.2582 93.5484 14.2582ZM61.2903 46.5162C61.2903 48.2952 59.8435 49.742 58.0645 49.742C56.2855 49.742 54.8387 48.2952 54.8387 46.5162C54.8387 44.7372 56.2855 43.2904 58.0645 43.2904C59.8435 43.2904 61.2903 44.7372 61.2903 46.5162ZM38.7097 28.7743C40.4887 28.7743 41.9355 30.2211 41.9355 32.0001C41.9355 33.7791 40.4887 35.2259 38.7097 35.2259C36.9306 35.2259 35.4839 33.7791 35.4839 32.0001C35.4839 30.2211 36.9306 28.7743 38.7097 28.7743ZM6.45161 43.2904C8.23065 43.2904 9.67742 44.7372 9.67742 46.5162C9.67742 48.2952 8.23065 49.742 6.45161 49.742C4.67258 49.742 3.22581 48.2952 3.22581 46.5162C3.22581 44.7372 4.67258 43.2904 6.45161 43.2904Z" fill="#FFCD6B"/>
<path d="M0 98.2179C0 97.3271 0.722122 96.605 1.6129 96.605H98.3871C99.2779 96.605 100 97.3271 100 98.2179C100 99.1087 99.2779 99.8308 98.3871 99.8308H1.6129C0.72212 99.8308 0 99.1087 0 98.2179Z" fill="#333399"/>
<path d="M22.582 40.6451C22.582 38.9883 23.9252 37.6451 25.582 37.6451H26.0336C27.6905 37.6451 29.0336 38.9883 29.0336 40.6451V57.2258C29.0336 58.8826 27.6905 60.2258 26.0336 60.2258H25.582C23.9252 60.2258 22.582 58.8826 22.582 57.2258V40.6451Z" fill="#7575CD"/>
<path d="M54.8398 53.5483C54.8398 51.8915 56.183 50.5483 57.8398 50.5483H58.2915C59.9483 50.5483 61.2915 51.8915 61.2915 53.5483V70.129C61.2915 71.7858 59.9483 73.129 58.2915 73.129H57.8398C56.183 73.129 54.8398 71.7858 54.8398 70.129V53.5483Z" fill="#7575CD"/>
<path d="M70.9688 18.0647C70.9688 16.4078 72.3119 15.0647 73.9687 15.0647H74.4204C76.0772 15.0647 77.4204 16.4078 77.4204 18.0647V34.6453C77.4204 36.3022 76.0772 37.6453 74.4204 37.6453H73.9687C72.3119 37.6453 70.9688 36.3022 70.9688 34.6453V18.0647Z" fill="#7575CD"/>
<path d="M6.45312 24.5162C6.45312 22.8594 7.79627 21.5162 9.45312 21.5162H9.90474C11.5616 21.5162 12.9047 22.8594 12.9047 24.5162V41.0969C12.9047 42.7537 11.5616 44.0969 9.90474 44.0969H9.45312C7.79627 44.0969 6.45312 42.7537 6.45312 41.0969V24.5162Z" fill="#333399"/>
<path d="M38.7109 18.0647C38.7109 16.4078 40.0541 15.0647 41.7109 15.0647H42.1626C43.8194 15.0647 45.1626 16.4078 45.1626 18.0647V34.6453C45.1626 36.3022 43.8194 37.6453 42.1626 37.6453H41.7109C40.0541 37.6453 38.7109 36.3022 38.7109 34.6453V18.0647Z" fill="#333399"/>
<path d="M87.0977 24.5162C87.0977 22.8594 88.4408 21.5162 90.0977 21.5162H90.5493C92.2061 21.5162 93.5493 22.8594 93.5493 24.5162V41.0969C93.5493 42.7537 92.2061 44.0969 90.5493 44.0969H90.0977C88.4408 44.0969 87.0977 42.7537 87.0977 41.0969V24.5162Z" fill="#333399"/>
<path d="M8.87305 14.258C8.87305 13.8126 9.23411 13.4515 9.6795 13.4515C10.1249 13.4515 10.486 13.8126 10.486 14.258V28.1693C10.486 28.6147 10.1249 28.9757 9.6795 28.9757C9.23411 28.9757 8.87305 28.6147 8.87305 28.1693V14.258Z" fill="#333399"/>
<path d="M8.87305 35.4274C8.87305 34.982 9.23411 34.621 9.6795 34.621C10.1249 34.621 10.486 34.982 10.486 35.4274V51.3548C10.486 51.8002 10.1249 52.1613 9.6795 52.1613C9.23411 52.1613 8.87305 51.8002 8.87305 51.3548V35.4274Z" fill="#333399"/>
<path d="M25.002 30.3871C25.002 29.9417 25.363 29.5807 25.8084 29.5807C26.2538 29.5807 26.6149 29.9417 26.6149 30.3871V43.8952C26.6149 44.3406 26.2538 44.7017 25.8084 44.7017C25.363 44.7017 25.002 44.3406 25.002 43.8952V30.3871Z" fill="#7575CD"/>
<path d="M25.002 56.1937C25.002 55.7483 25.363 55.3872 25.8084 55.3872C26.2538 55.3872 26.6149 55.7483 26.6149 56.1937V67.484C26.6149 67.9294 26.2538 68.2904 25.8084 68.2904C25.363 68.2904 25.002 67.9294 25.002 67.484V56.1937Z" fill="#7575CD"/>
<path d="M41.1309 7.80645C41.1309 7.36106 41.4919 7 41.9373 7C42.3827 7 42.7438 7.36106 42.7438 7.80645V23.5323C42.7438 23.9776 42.3827 24.3387 41.9373 24.3387C41.4919 24.3387 41.1309 23.9776 41.1309 23.5323V7.80645Z" fill="#333399"/>
<path d="M41.1309 30.3871C41.1309 29.9417 41.4919 29.5807 41.9373 29.5807C42.3827 29.5807 42.7438 29.9417 42.7438 30.3871V44.9033C42.7438 45.3487 42.3827 45.7097 41.9373 45.7097C41.4919 45.7097 41.1309 45.3487 41.1309 44.9033V30.3871Z" fill="#333399"/>
<path d="M57.2598 43.2903C57.2598 42.8449 57.6208 42.4839 58.0662 42.4839C58.5116 42.4839 58.8727 42.8449 58.8727 43.2903V54.5807C58.8727 55.0261 58.5116 55.3871 58.0662 55.3871C57.6208 55.3871 57.2598 55.0261 57.2598 54.5807V43.2903Z" fill="#7575CD"/>
<path d="M57.2598 70.3065C57.2598 69.8611 57.6208 69.5 58.0662 69.5C58.5116 69.5 58.8727 69.8611 58.8727 70.3065V80.3871C58.8727 80.8325 58.5116 81.1935 58.0662 81.1935C57.6208 81.1935 57.2598 80.8325 57.2598 80.3871V70.3065Z" fill="#7575CD"/>
<path d="M73.3906 7.80645C73.3906 7.36106 73.7517 7 74.1971 7C74.6425 7 75.0035 7.36106 75.0035 7.80645V18.0887C75.0035 18.5341 74.6425 18.8952 74.1971 18.8952C73.7517 18.8952 73.3906 18.5341 73.3906 18.0887V7.80645Z" fill="#7575CD"/>
<path d="M73.3906 34.8226C73.3906 34.3772 73.7517 34.0161 74.1971 34.0161C74.6425 34.0161 75.0035 34.3772 75.0035 34.8226V44.9032C75.0035 45.3486 74.6425 45.7097 74.1971 45.7097C73.7517 45.7097 73.3906 45.3486 73.3906 44.9032V34.8226Z" fill="#7575CD"/>
<path d="M89.5176 14.258C89.5176 13.8126 89.8786 13.4515 90.324 13.4515C90.7694 13.4515 91.1305 13.8126 91.1305 14.258V24.7419C91.1305 25.1873 90.7694 25.5483 90.324 25.5483C89.8786 25.5483 89.5176 25.1873 89.5176 24.7419V14.258Z" fill="#333399"/>
<path d="M89.5176 40.6694C89.5176 40.224 89.8786 39.8629 90.324 39.8629C90.7694 39.8629 91.1305 40.224 91.1305 40.6694V51.3549C91.1305 51.8002 90.7694 52.1613 90.324 52.1613C89.8786 52.1613 89.5176 51.8002 89.5176 51.3548V40.6694Z" fill="#333399"/>
<path d="M86.5489 75C90.7348 71.0125 92.5471 66.4424 93.331 63.1826C94.2629 59.3073 93.9867 56.4193 93.9745 56.2982C93.8992 55.55 93.2693 54.9805 92.5172 54.9805H67.5225C66.7704 54.9805 66.1406 55.55 66.0651 56.2982C66.0529 56.4193 65.7767 59.3073 66.7086 63.1826C67.4925 66.4424 69.3048 71.0125 73.4908 75C69.3048 78.9875 67.4925 83.5576 66.7086 86.8174C65.7767 90.6927 66.0529 93.5807 66.0651 93.7018C66.1406 94.45 66.7704 95.0195 67.5225 95.0195H92.5171C93.2692 95.0195 93.8991 94.45 93.9745 93.7018C93.9867 93.5807 94.2629 90.6927 93.331 86.8174C92.5471 83.5576 90.7349 78.9875 86.5489 75Z" fill="#E5E4FF"/>
<path d="M86.5055 92.6088L81.1382 86.2611C80.8599 85.932 80.4507 85.7422 80.0196 85.7422C79.5886 85.7422 79.1794 85.932 78.9011 86.2611L73.5338 92.6088C73.1655 93.0443 73.0836 93.6539 73.3236 94.1712C73.5637 94.6885 74.0819 95.0195 74.6522 95.0195H85.3869C85.9572 95.0195 86.4756 94.6885 86.7156 94.1712C86.9557 93.6539 86.8736 93.0443 86.5055 92.6088Z" fill="#333399"/>
<path d="M92.6317 63.6137C92.3558 63.2366 91.9166 63.0135 91.4493 63.0135H68.5899C68.1226 63.0135 67.6834 63.2365 67.4075 63.6137C67.1316 63.991 67.0523 64.4772 67.1939 64.9224C68.6034 69.3533 71.1378 73.1141 74.7278 76.1014L78.5547 79.6467V82.4758C78.5547 83.2847 79.2106 83.9406 80.0196 83.9406C80.8286 83.9406 81.4844 83.2847 81.4844 82.4758V79.6467L85.3113 76.1015C88.9012 73.1142 91.4357 69.3535 92.8452 64.9225C92.9869 64.4772 92.9076 63.9911 92.6317 63.6137Z" fill="#333399"/>
<path d="M98.5742 92.0898H61.4648C60.6559 92.0898 60 92.7457 60 93.5547V98.5352C60 99.3441 60.6559 100 61.4648 100H98.5742C99.3832 100 100.039 99.3441 100.039 98.5352V93.5547C100.039 92.7457 99.3832 92.0898 98.5742 92.0898Z" fill="#242424"/>
<path d="M98.5742 50H61.4648C60.6559 50 60 50.6559 60 51.4648V56.4453C60 57.2543 60.6559 57.9102 61.4648 57.9102H98.5742C99.3832 57.9102 100.039 57.2543 100.039 56.4453V51.4648C100.039 50.6559 99.3832 50 98.5742 50Z" fill="#242424"/>
</g>
<defs>
<clipPath id="clip0">
<rect width="100" height="100" fill="white"/>
</clipPath>
</defs>
</svg>
