<svg width="58" height="45" viewBox="0 0 58 45" fill="none" xmlns="http://www.w3.org/2000/svg">
<g clip-path="url(#clip0)">
<path d="M57.4758 28.9646V28.2712H57.2946L57.0849 28.7475L56.8764 28.2712H56.694V28.9646H56.8228V28.4417L57.0188 28.893H57.1521L57.3481 28.4406V28.9646H57.4758ZM56.3259 28.9646V28.3894H56.5584V28.2723H55.9658V28.3894H56.1983V28.9646H56.3259Z" fill="#0099DF"/>
<path d="M36.8721 31.9474H21.1895V3.83325H36.8721V31.9474Z" fill="#6C6BBD"/>
<path d="M22.1937 17.8881C22.1937 12.185 24.8706 7.10486 29.0392 3.83101C25.9908 1.43702 22.1436 0.00811768 17.9624 0.00811768C8.0639 0.00811768 0.0400391 8.01313 0.0400391 17.8881C0.0400391 27.7631 8.0639 35.7681 17.9624 35.7681C22.1436 35.7681 25.9908 34.3392 29.0392 31.9452C24.8706 28.6713 22.1937 23.5912 22.1937 17.8881Z" fill="#EB001B"/>
<path d="M58.0228 17.8881C58.0228 27.7631 49.9989 35.7681 40.1004 35.7681C35.9193 35.7681 32.072 34.3392 29.0225 31.9452C33.1922 28.6713 35.8691 23.5912 35.8691 17.8881C35.8691 12.185 33.1922 7.10486 29.0225 3.83101C32.072 1.43702 35.9193 0.00811768 40.1004 0.00811768C49.9989 0.00811768 58.0228 8.01313 58.0228 17.8881Z" fill="#0099DF"/>
<path d="M42.1589 39.8864C42.3674 39.8864 42.6671 39.9262 42.8962 40.016L42.5771 40.9891C42.3583 40.8993 42.1395 40.8697 41.9298 40.8697C41.2529 40.8697 40.9145 41.3062 40.9145 42.0906V44.7529H39.8786V40.0058H40.9042V40.5821C41.1731 40.1649 41.5617 39.8864 42.1589 39.8864ZM38.3321 40.9493H36.6398V43.0943C36.6398 43.5706 36.8085 43.8889 37.327 43.8889C37.596 43.8889 37.9344 43.7991 38.2421 43.6207L38.5407 44.5039C38.2125 44.7324 37.6951 44.8722 37.2472 44.8722C36.0222 44.8722 35.5948 44.2163 35.5948 43.1137V40.9493H34.6285V40.0058H35.5948V38.5655H36.6398V40.0058H38.3321V40.9493ZM25.0798 41.9621C25.1904 41.2767 25.6075 40.8095 26.3448 40.8095C27.0114 40.8095 27.4399 41.2267 27.5493 41.9621H25.0798ZM28.6251 42.3793C28.6148 40.8993 27.6986 39.8864 26.3642 39.8864C24.9704 39.8864 23.9949 40.8993 23.9949 42.3793C23.9949 43.8878 25.0103 44.8711 26.4348 44.8711C27.1516 44.8711 27.808 44.6926 28.3858 44.2061L27.8775 43.4411C27.4798 43.7593 26.9716 43.9378 26.4941 43.9378C25.8274 43.9378 25.22 43.6298 25.0707 42.7761H28.6046C28.6148 42.6465 28.6251 42.518 28.6251 42.3793ZM33.1744 41.2176C32.886 41.038 32.2991 40.8095 31.6917 40.8095C31.1242 40.8095 30.7858 41.0186 30.7858 41.3665C30.7858 41.6836 31.1436 41.7734 31.5915 41.8325L32.0792 41.9019C33.1151 42.0519 33.7419 42.4885 33.7419 43.3228C33.7419 44.2265 32.9453 44.8722 31.5721 44.8722C30.7949 44.8722 30.0781 44.6733 29.5106 44.2561L29.9983 43.4513C30.347 43.7196 30.8655 43.948 31.5823 43.948C32.2889 43.948 32.6672 43.74 32.6672 43.3717C32.6672 43.1046 32.3983 42.9545 31.8308 42.8761L31.343 42.8067C30.2775 42.6567 29.6997 42.1804 29.6997 41.4063C29.6997 40.4628 30.4769 39.8864 31.6815 39.8864C32.4382 39.8864 33.1253 40.0558 33.6222 40.3832L33.1744 41.2176ZM45.9435 40.8674C45.7304 40.8674 45.5332 40.905 45.3497 40.9788C45.1674 41.0539 45.009 41.1585 44.8757 41.2926C44.7423 41.4267 44.6375 41.5881 44.5611 41.7757C44.4848 41.9633 44.4472 42.1702 44.4472 42.3952C44.4472 42.6215 44.4848 42.8272 44.5611 43.0148C44.6375 43.2023 44.7423 43.3638 44.8757 43.4979C45.009 43.632 45.1674 43.7366 45.3497 43.8116C45.5332 43.8867 45.7304 43.923 45.9435 43.923C46.1566 43.923 46.3549 43.8867 46.5372 43.8116C46.7207 43.7366 46.8802 43.632 47.0135 43.4979C47.1492 43.3638 47.254 43.2023 47.3315 43.0148C47.4078 42.8272 47.4454 42.6215 47.4454 42.3952C47.4454 42.1702 47.4078 41.9633 47.3315 41.7757C47.254 41.5881 47.1492 41.4267 47.0135 41.2926C46.8802 41.1585 46.7207 41.0539 46.5372 40.9788C46.3549 40.905 46.1566 40.8674 45.9435 40.8674ZM45.9435 39.8864C46.3127 39.8864 46.6546 39.9501 46.9691 40.0785C47.2836 40.2059 47.556 40.3821 47.785 40.606C48.0152 40.8299 48.1942 41.0948 48.3241 41.3994C48.454 41.7052 48.5189 42.0372 48.5189 42.3952C48.5189 42.7533 48.454 43.0852 48.3241 43.391C48.1942 43.6957 48.0152 43.9617 47.785 44.1856C47.556 44.4096 47.2836 44.5846 46.9691 44.7131C46.6546 44.8404 46.3127 44.9041 45.9435 44.9041C45.5742 44.9041 45.2324 44.8404 44.9178 44.7131C44.6033 44.5846 44.3332 44.4096 44.1053 44.1856C43.8774 43.9617 43.6985 43.6957 43.5686 43.391C43.4386 43.0852 43.3737 42.7533 43.3737 42.3952C43.3737 42.0372 43.4386 41.7052 43.5686 41.3994C43.6985 41.0948 43.8774 40.8299 44.1053 40.606C44.3332 40.3821 44.6033 40.2059 44.9178 40.0785C45.2324 39.9501 45.5742 39.8864 45.9435 39.8864ZM19.0309 42.3793C19.0309 41.5449 19.579 40.8595 20.4747 40.8595C21.3306 40.8595 21.9084 41.5154 21.9084 42.3793C21.9084 43.2433 21.3306 43.898 20.4747 43.898C19.579 43.898 19.0309 43.2137 19.0309 42.3793ZM22.8838 42.3793V40.0058H21.8491V40.5821C21.5198 40.1547 21.0229 39.8864 20.346 39.8864C19.0115 39.8864 17.9665 40.9288 17.9665 42.3793C17.9665 43.8287 19.0115 44.8722 20.346 44.8722C21.0229 44.8722 21.5198 44.6039 21.8491 44.1765V44.7529H22.8838V42.3793ZM17.0503 44.7529V41.7734C17.0503 40.6515 16.3335 39.8967 15.1791 39.8864C14.5717 39.8762 13.9438 40.0649 13.5062 40.731C13.1779 40.2047 12.6594 39.8864 11.9324 39.8864C11.4253 39.8864 10.9273 40.0353 10.5387 40.5912V40.0058H9.50391V44.7529H10.5489V42.1213C10.5489 41.2971 11.007 40.8595 11.7136 40.8595C12.4007 40.8595 12.7495 41.3062 12.7495 42.1111V44.7529H13.7945V42.1213C13.7945 41.2971 14.2731 40.8595 14.9591 40.8595C15.6668 40.8595 16.0053 41.3062 16.0053 42.1111V44.7529H17.0503Z" fill="#231F20"/>
<path d="M49.6349 44.3971V44.5142H49.7431C49.7671 44.5142 49.7876 44.5085 49.8012 44.4994C49.8161 44.4903 49.824 44.4744 49.824 44.4551C49.824 44.4358 49.8161 44.421 49.8012 44.4119C49.7876 44.4017 49.7671 44.3971 49.7431 44.3971H49.6349ZM49.7443 44.3153C49.8001 44.3153 49.8434 44.3278 49.8742 44.3528C49.9049 44.3778 49.9198 44.4119 49.9198 44.4551C49.9198 44.4915 49.9084 44.521 49.8833 44.5449C49.8594 44.5676 49.824 44.5824 49.7796 44.5881L49.9232 44.7529H49.8115L49.6782 44.5892H49.6349V44.7529H49.5414V44.3153H49.7443ZM49.7158 44.903C49.7671 44.903 49.8149 44.8939 49.8582 44.8746C49.9027 44.8552 49.9414 44.8291 49.9745 44.7961C50.0075 44.7632 50.0337 44.7245 50.0531 44.679C50.0713 44.6347 50.0816 44.587 50.0816 44.5358C50.0816 44.4847 50.0713 44.4369 50.0531 44.3926C50.0337 44.3482 50.0075 44.3085 49.9745 44.2755C49.9414 44.2425 49.9027 44.2164 49.8582 44.1982C49.8149 44.1789 49.7671 44.1698 49.7158 44.1698C49.6645 44.1698 49.6155 44.1789 49.571 44.1982C49.5255 44.2164 49.4856 44.2425 49.4525 44.2755C49.4195 44.3085 49.3933 44.3482 49.375 44.3926C49.3557 44.4369 49.3465 44.4847 49.3465 44.5358C49.3465 44.587 49.3557 44.6347 49.375 44.679C49.3933 44.7245 49.4195 44.7632 49.4525 44.7961C49.4856 44.8291 49.5255 44.8552 49.571 44.8746C49.6155 44.8939 49.6645 44.903 49.7158 44.903ZM49.7158 44.0641C49.783 44.0641 49.8445 44.0766 49.9027 44.1016C49.9619 44.1254 50.0121 44.1595 50.0565 44.2027C50.0998 44.2448 50.134 44.2948 50.1591 44.3528C50.1841 44.4096 50.1967 44.471 50.1967 44.5358C50.1967 44.6006 50.1841 44.662 50.1591 44.7188C50.134 44.7757 50.0998 44.8257 50.0565 44.8677C50.0121 44.9109 49.9619 44.945 49.9027 44.9701C49.8445 44.9951 49.783 45.0076 49.7158 45.0076C49.6474 45.0076 49.5847 44.9951 49.5255 44.9701C49.4662 44.945 49.4149 44.9109 49.3716 44.8677C49.3283 44.8257 49.2941 44.7757 49.2691 44.7188C49.244 44.662 49.2314 44.6006 49.2314 44.5358C49.2314 44.471 49.244 44.4096 49.2691 44.3528C49.2941 44.2948 49.3283 44.2448 49.3716 44.2027C49.4149 44.1595 49.4662 44.1254 49.5255 44.1016C49.5847 44.0766 49.6474 44.0641 49.7158 44.0641Z" fill="#231F20"/>
</g>
<defs>
<clipPath id="clip0">
<rect width="58" height="45" fill="white"/>
</clipPath>
</defs>
</svg>
