<svg width="53" height="42" viewBox="0 0 53 42" fill="none" xmlns="http://www.w3.org/2000/svg">
<path d="M9.63339 40.9267V38.2016C9.64928 37.9724 9.61612 37.7425 9.53612 37.5271C9.45611 37.3117 9.33109 37.1158 9.16939 36.9525C9.0077 36.7892 8.81303 36.6622 8.59837 36.58C8.3837 36.4978 8.15397 36.4622 7.92447 36.4757C7.62407 36.456 7.32389 36.5172 7.05526 36.6531C6.78664 36.7889 6.55943 36.9943 6.39735 37.2478C6.2496 37.0019 6.0382 36.8003 5.78543 36.6645C5.53266 36.5286 5.24789 36.4633 4.96113 36.4757C4.71116 36.463 4.46223 36.5159 4.23901 36.629C4.01579 36.7422 3.82602 36.9116 3.68853 37.1206V36.5847H2.74316V40.9267H3.69762V38.5377C3.67731 38.3892 3.69009 38.2381 3.73502 38.0951C3.77996 37.9521 3.85595 37.8208 3.95756 37.7106C4.05917 37.6004 4.18389 37.514 4.3228 37.4575C4.46172 37.4011 4.6114 37.376 4.76115 37.384C5.38836 37.384 5.70651 37.7928 5.70651 38.5286V40.9449H6.66096V38.5377C6.64149 38.3894 6.65484 38.2386 6.70008 38.0959C6.74533 37.9533 6.82135 37.8224 6.92279 37.7124C7.02422 37.6023 7.1486 37.5159 7.28713 37.4592C7.42565 37.4024 7.57496 37.3768 7.72449 37.384C8.36988 37.384 8.67894 37.7928 8.67894 38.5286V40.9449L9.63339 40.9267ZM23.7547 36.5847H22.2003V35.2675H21.2459V36.5847H20.3823V37.4476H21.2641V39.4461C21.2641 40.4544 21.6549 41.0539 22.773 41.0539C23.1907 41.0553 23.6003 40.9388 23.9547 40.7178L23.682 39.9093C23.4285 40.0605 23.1407 40.1448 22.8457 40.1546C22.3912 40.1546 22.2185 39.8639 22.2185 39.4279V37.4476H23.7638L23.7547 36.5847ZM31.8176 36.4757C31.5871 36.4689 31.359 36.5244 31.1574 36.6363C30.9559 36.7482 30.7882 36.9124 30.6722 37.1115V36.5847H29.7359V40.9267H30.6813V38.4923C30.6813 37.7746 30.9904 37.375 31.5903 37.375C31.7925 37.3722 31.9933 37.4092 32.1812 37.484L32.472 36.5756C32.2561 36.4984 32.0287 36.4585 31.7994 36.4575L31.8176 36.4757ZM19.6279 36.9299C19.0927 36.6119 18.4775 36.4543 17.8553 36.4757C16.7554 36.4757 16.0373 37.0025 16.0373 37.8655C16.0373 38.574 16.5645 39.01 17.5372 39.1463L17.9917 39.2099C18.5098 39.2826 18.7552 39.4188 18.7552 39.6641C18.7552 40.0002 18.4098 40.1909 17.7644 40.1909C17.2453 40.206 16.7362 40.046 16.3191 39.7367L15.8646 40.4725C16.4153 40.8568 17.0748 41.0542 17.7462 41.0357C19.0006 41.0357 19.7278 40.4453 19.7278 39.6187C19.7278 38.792 19.1552 38.4559 18.2098 38.3197L17.7553 38.2561C17.3463 38.2016 17.019 38.1198 17.019 37.8291C17.019 37.5385 17.3281 37.3205 17.8462 37.3205C18.3251 37.326 18.7946 37.4542 19.2097 37.6929L19.6279 36.9299ZM44.9481 36.4757C44.7176 36.4689 44.4895 36.5244 44.288 36.6363C44.0864 36.7482 43.9188 36.9124 43.8027 37.1115V36.5847H42.8665V40.9267H43.8118V38.4923C43.8118 37.7746 44.1209 37.375 44.7208 37.375C44.923 37.3722 45.1238 37.4092 45.3117 37.484L45.6026 36.5756C45.3867 36.4984 45.1592 36.4585 44.9299 36.4575L44.9481 36.4757ZM32.7675 38.7466C32.7562 39.0517 32.8088 39.3559 32.922 39.6395C33.0351 39.9232 33.2062 40.1801 33.4244 40.3938C33.6426 40.6076 33.903 40.7735 34.189 40.8809C34.4751 40.9883 34.7804 41.0348 35.0854 41.0176C35.653 41.0464 36.2109 40.8617 36.6489 40.4998L36.1944 39.7367C35.8676 39.9858 35.4691 40.1228 35.0581 40.1274C34.7087 40.0991 34.3827 39.9404 34.145 39.6829C33.9073 39.4254 33.7754 39.0879 33.7754 38.7375C33.7754 38.3872 33.9073 38.0497 34.145 37.7922C34.3827 37.5346 34.7087 37.376 35.0581 37.3477C35.4691 37.3523 35.8676 37.4893 36.1944 37.7383L36.6489 36.9753C36.2109 36.6134 35.653 36.4286 35.0854 36.4575C34.7804 36.4402 34.4751 36.4868 34.189 36.5942C33.903 36.7016 33.6426 36.8675 33.4244 37.0812C33.2062 37.295 33.0351 37.5519 32.922 37.8356C32.8088 38.1192 32.7562 38.4233 32.7675 38.7284V38.7466ZM41.6211 38.7466V36.5847H40.6758V37.1115C40.5152 36.9051 40.3079 36.7398 40.0708 36.6292C39.8337 36.5187 39.5737 36.466 39.3123 36.4757C38.7096 36.4757 38.1315 36.7149 37.7054 37.1408C37.2792 37.5667 37.0398 38.1443 37.0398 38.7466C37.0398 39.3489 37.2792 39.9265 37.7054 40.3524C38.1315 40.7783 38.7096 41.0176 39.3123 41.0176C39.5737 41.0272 39.8337 40.9746 40.0708 40.864C40.3079 40.7534 40.5152 40.5881 40.6758 40.3817V40.9086H41.6211V38.7466ZM38.1033 38.7466C38.1184 38.491 38.2079 38.2454 38.3609 38.0401C38.5139 37.8347 38.7236 37.6785 38.9643 37.5907C39.205 37.503 39.4661 37.4875 39.7155 37.5462C39.9649 37.6048 40.1917 37.7351 40.3679 37.9209C40.5441 38.1068 40.6622 38.34 40.7074 38.5921C40.7526 38.8441 40.7231 39.1038 40.6225 39.3393C40.5219 39.5747 40.3546 39.7756 40.1412 39.9173C39.9278 40.0589 39.6776 40.1351 39.4214 40.1364C39.2414 40.1387 39.0629 40.1037 38.8971 40.0337C38.7314 39.9637 38.5819 39.8602 38.4581 39.7297C38.3343 39.5991 38.2388 39.4444 38.1778 39.2752C38.1167 39.106 38.0914 38.9261 38.1033 38.7466ZM26.6953 36.4757C26.0926 36.4841 25.518 36.7314 25.0978 37.1633C24.6775 37.5951 24.4462 38.1761 24.4547 38.7784C24.4631 39.3807 24.7106 39.955 25.1427 40.3749C25.5749 40.7948 26.1563 41.026 26.759 41.0176C27.4129 41.0511 28.0559 40.8407 28.5633 40.4271L28.1088 39.7277C27.7499 40.0153 27.3053 40.1751 26.8453 40.1819C26.5328 40.2087 26.2222 40.1127 25.9794 39.9142C25.7367 39.7157 25.581 39.4305 25.5455 39.119H28.7724C28.7724 39.001 28.7724 38.8829 28.7724 38.7557C28.7724 37.3931 27.927 36.4847 26.709 36.4847L26.6953 36.4757ZM26.6953 37.3205C26.8368 37.3174 26.9775 37.3423 27.1093 37.3936C27.2412 37.445 27.3616 37.5218 27.4637 37.6196C27.5659 37.7175 27.6477 37.8345 27.7046 37.9639C27.7615 38.0934 27.7923 38.2328 27.7952 38.3742H25.5227C25.5392 38.0826 25.6692 37.8091 25.885 37.6121C26.1008 37.4152 26.3851 37.3105 26.6772 37.3205H26.6953ZM50.3794 38.7557V34.8406H49.4704V37.1115C49.3098 36.9051 49.1024 36.7398 48.8654 36.6292C48.6283 36.5187 48.3683 36.466 48.1069 36.4757C47.5042 36.4757 46.9261 36.7149 46.5 37.1408C46.0738 37.5667 45.8344 38.1443 45.8344 38.7466C45.8344 39.3489 46.0738 39.9265 46.5 40.3524C46.9261 40.7783 47.5042 41.0176 48.1069 41.0176C48.3683 41.0272 48.6283 40.9746 48.8654 40.864C49.1024 40.7534 49.3098 40.5881 49.4704 40.3817V40.9086H50.3794V38.7557ZM51.9565 40.2954C52.0156 40.2947 52.0742 40.3055 52.1292 40.3272C52.1814 40.3485 52.2292 40.3793 52.2701 40.418C52.31 40.4572 52.3424 40.5034 52.3655 40.5543C52.3885 40.6073 52.4004 40.6645 52.4004 40.7223C52.4004 40.7802 52.3885 40.8374 52.3655 40.8904C52.3424 40.9413 52.31 40.9875 52.2701 41.0267C52.2292 41.0654 52.1814 41.0962 52.1292 41.1175C52.0748 41.1415 52.0159 41.1539 51.9565 41.1538C51.8703 41.1532 51.7861 41.1281 51.7137 41.0814C51.6413 41.0348 51.5836 40.9685 51.5474 40.8904C51.5247 40.8373 51.5129 40.7801 51.5129 40.7223C51.5129 40.6646 51.5247 40.6074 51.5474 40.5543C51.5706 40.5034 51.6029 40.4572 51.6429 40.418C51.6838 40.3793 51.7316 40.3485 51.7838 40.3272C51.843 40.3037 51.9065 40.2928 51.9701 40.2954H51.9565ZM51.9565 41.063C52.0018 41.0633 52.0467 41.054 52.0883 41.0357C52.1274 41.0183 52.1629 40.9936 52.1928 40.9631C52.2497 40.9011 52.2812 40.82 52.2812 40.736C52.2812 40.6519 52.2497 40.5709 52.1928 40.5089C52.1629 40.4782 52.1274 40.4536 52.0883 40.4362C52.0467 40.4181 52.0018 40.4088 51.9565 40.409C51.9112 40.4092 51.8664 40.4185 51.8247 40.4362C51.7838 40.4529 51.7468 40.4776 51.7156 40.5089C51.6587 40.5709 51.6272 40.6519 51.6272 40.736C51.6272 40.82 51.6587 40.9011 51.7156 40.9631C51.7468 40.9942 51.7839 41.0189 51.8247 41.0357C51.8705 41.0555 51.9202 41.0648 51.9701 41.063H51.9565ZM51.9837 40.5225C52.0262 40.5204 52.068 40.5333 52.1019 40.5588C52.1158 40.5703 52.1268 40.585 52.1339 40.6016C52.141 40.6182 52.1441 40.6362 52.1428 40.6542C52.1435 40.6693 52.141 40.6844 52.1355 40.6984C52.13 40.7125 52.1217 40.7253 52.111 40.736C52.0847 40.7599 52.0511 40.7743 52.0156 40.7768L52.1474 40.9267H52.0428L51.9201 40.7768H51.8792V40.9267H51.7929V40.527L51.9837 40.5225ZM51.8838 40.5997V40.7087H51.9837C52.0015 40.714 52.0205 40.714 52.0383 40.7087C52.0415 40.7024 52.0431 40.6954 52.0431 40.6883C52.0431 40.6812 52.0415 40.6742 52.0383 40.6678C52.0415 40.6615 52.0431 40.6545 52.0431 40.6474C52.0431 40.6403 52.0415 40.6333 52.0383 40.627C52.0205 40.6217 52.0015 40.6217 51.9837 40.627L51.8838 40.5997ZM46.8843 38.7557C46.8993 38.5001 46.9889 38.2545 47.1419 38.0491C47.2948 37.8438 47.5046 37.6876 47.7453 37.5998C47.986 37.5121 48.2471 37.4966 48.4965 37.5552C48.7458 37.6139 48.9726 37.7442 49.1489 37.93C49.3251 38.1158 49.4431 38.3491 49.4883 38.6011C49.5336 38.8531 49.5041 39.1129 49.4035 39.3483C49.3029 39.5838 49.1356 39.7847 48.9221 39.9264C48.7087 40.068 48.4585 40.1442 48.2023 40.1455C48.0223 40.1478 47.8439 40.1128 47.6781 40.0428C47.5123 39.9728 47.3628 39.8693 47.239 39.7388C47.1152 39.6082 47.0198 39.4535 46.9587 39.2843C46.8977 39.1151 46.8723 38.9352 46.8843 38.7557ZM14.9647 38.7557V36.5847H14.0193V37.1115C13.8588 36.9051 13.6514 36.7398 13.4143 36.6292C13.1773 36.5187 12.9173 36.466 12.6558 36.4757C12.0531 36.4757 11.4751 36.7149 11.0489 37.1408C10.6227 37.5667 10.3833 38.1443 10.3833 38.7466C10.3833 39.3489 10.6227 39.9265 11.0489 40.3524C11.4751 40.7783 12.0531 41.0176 12.6558 41.0176C12.9173 41.0272 13.1773 40.9746 13.4143 40.864C13.6514 40.7534 13.8588 40.5881 14.0193 40.3817V40.9086H14.9647V38.7557ZM11.4468 38.7557C11.4619 38.5001 11.5515 38.2545 11.7045 38.0491C11.8574 37.8438 12.0672 37.6876 12.3079 37.5998C12.5486 37.5121 12.8097 37.4966 13.0591 37.5552C13.3084 37.6139 13.5352 37.7442 13.7115 37.93C13.8877 38.1158 14.0057 38.3491 14.0509 38.6011C14.0962 38.8531 14.0667 39.1129 13.9661 39.3483C13.8655 39.5838 13.6982 39.7847 13.4847 39.9264C13.2713 40.068 13.0211 40.1442 12.7649 40.1455C12.5842 40.1491 12.4047 40.115 12.2378 40.0456C12.071 39.9762 11.9204 39.8728 11.7956 39.7422C11.6708 39.6115 11.5746 39.4563 11.513 39.2865C11.4514 39.1167 11.4258 38.9359 11.4378 38.7557H11.4468Z" fill="#231F20"/>
<path d="M33.6302 3.49707H19.3135V29.2088H33.6302V3.49707Z" fill="#FF5F00"/>
<path d="M20.2229 16.3563C20.2202 13.8797 20.7815 11.435 21.8642 9.2073C22.947 6.97958 24.5228 5.02726 26.4722 3.49818C24.0585 1.60249 21.1596 0.423668 18.1071 0.0964511C15.0547 -0.230765 11.9716 0.306821 9.21038 1.64777C6.44915 2.98872 4.12115 5.07893 2.49243 7.67951C0.863715 10.2801 0 13.2861 0 16.354C0 19.422 0.863715 22.428 2.49243 25.0286C4.12115 27.6291 6.44915 29.7194 9.21038 31.0603C11.9716 32.4013 15.0547 32.9388 18.1071 32.6116C21.1596 32.2844 24.0585 31.1056 26.4722 29.2099C24.5234 27.6813 22.9479 25.7297 21.8652 23.5028C20.7825 21.2759 20.2209 18.8321 20.2229 16.3563Z" fill="#EB001B"/>
<path d="M52.9463 16.355C52.9463 19.4232 52.0823 22.4294 50.4533 25.0301C48.8243 27.6307 46.496 29.7209 43.7344 31.0617C40.9728 32.4024 37.8895 32.9397 34.8368 32.612C31.7841 32.2843 28.8853 31.1049 26.4717 29.2086C28.4198 27.6786 29.9948 25.7265 31.0778 23.4995C32.1607 21.2725 32.7235 18.8288 32.7235 16.3528C32.7235 13.8767 32.1607 11.433 31.0778 9.20599C29.9948 6.97899 28.4198 5.02686 26.4717 3.49689C28.8853 1.60061 31.7841 0.421219 34.8368 0.0935322C37.8895 -0.234154 40.9728 0.303086 43.7344 1.64384C46.496 2.9846 48.8243 5.07478 50.4533 7.67545C52.0823 10.2761 52.9463 13.2823 52.9463 16.3505V16.355Z" fill="#F79E1B"/>
<path d="M51.3839 26.4835V25.9567H51.5975V25.8477H51.0566V25.9567H51.2884V26.4835H51.3839ZM52.4338 26.4835V25.8477H52.2702L52.0793 26.3018L51.8884 25.8477H51.7429V26.4835H51.8611V26.0066L52.0384 26.4199H52.1611L52.3383 26.0066V26.4881L52.4338 26.4835Z" fill="#F79E1B"/>
</svg>
