<svg width="232" height="40" viewBox="0 0 232 40" fill="none" xmlns="http://www.w3.org/2000/svg">
<g clip-path="url(#clip0)">
<path d="M227.754 3.04C224.798 1.01917 220.323 -2.18884e-06 214.458 -2.18884e-06H199.098L193.388 30.9301H173.266L174.559 23.9127H186.68L188.116 16.0311L176.002 16.0485L177.299 9.06241H189.784L191.446 0.0018033H166.09L160.669 29.341H151.365L156.822 0.000260147H143.568L138.147 29.3394H129.083L134.546 0.000260147H121.299L115.581 30.9304H95.3144L96.5956 23.913H108.766L110.204 16.0761L98.0453 16.0639L99.3352 9.06398H111.961L113.611 -0.000488281H34.5999L30.1027 24.5094L21.1467 -0.000488281H7.39533L-0.00585938 39.9995H13.1269L17.6067 14.8138L26.2974 39.9995H73.364L79.0866 9.06012H86.4476L80.7251 39.9995H204.567L208.157 20.4694L213.965 39.9995H227.105L221.086 24.041L222.463 23.7454C225.496 23.0967 227.862 21.7036 229.509 19.615C231.154 17.5072 231.993 14.801 231.993 11.5505C231.993 7.76613 230.605 4.98182 227.75 3.03768L227.754 3.04ZM61.9357 30.9301H41.8329L43.1315 23.9127H55.7407L57.1701 16.0087H44.6823L45.8851 9.06439H65.9585L61.9319 30.9301L61.9357 30.9301ZM216.927 17.4569C215.606 18.3786 213.69 18.8273 211.07 18.8273H208.473L210.466 8.09313H212.376C214.551 8.09313 216.138 8.44095 217.232 9.15049C218.086 9.70702 219.103 10.8079 219.103 12.8896C219.099 15.4079 217.917 16.7609 216.924 17.4566L216.927 17.4569Z" fill="#83BA3B"/>
</g>
<defs>
<clipPath id="clip0">
<rect width="232" height="40" fill="white"/>
</clipPath>
</defs>
</svg>
