<svg width="120" height="41" viewBox="0 0 120 41" fill="none" xmlns="http://www.w3.org/2000/svg">
<path fill-rule="evenodd" clip-rule="evenodd" d="M86.1098 10.0675C88.8275 10.0675 91.0303 7.87825 91.0303 5.17856C91.0303 2.47729 88.8275 0.285889 86.1098 0.285889C83.3952 0.285889 81.1935 2.47729 81.1935 5.17856C81.1935 7.87825 83.3952 10.0675 86.1098 10.0675ZM48.425 12.7078C48.203 13.2624 46.6049 17.7508 42.7401 22.4028V2.51198L32.4423 4.5357V40.5899H42.7401V29.4453C45.7226 33.8933 47.1954 40.5899 47.1954 40.5899H59.53C58.31 35.5464 52.9729 26.2468 52.9729 26.2468C57.7628 20.2082 59.8668 13.7738 60.2014 12.7078H48.425ZM75.4974 12.3315C66.2738 12.6258 61.5917 16.7406 61.5917 24.9201V40.5899H71.6543V27.8116C71.6543 22.9137 72.2992 20.8143 78.1443 20.614V12.475C77.1605 12.2674 75.4974 12.3315 75.4974 12.3315ZM15.1718 16.678C13.9105 16.5955 10.9903 16.4078 10.9903 13.7938C10.9903 10.6394 15.1945 10.6394 16.7715 10.6394C19.5441 10.6394 23.1352 11.4542 25.6996 12.2169C25.6996 12.2169 27.13 12.7184 28.3475 13.2319L28.4606 13.2624V4.62348L28.3052 4.57775C25.2788 3.52489 21.7596 2.51198 15.2352 2.51198C3.9859 2.51198 0 9.02835 0 14.6107C0 17.8286 1.38714 25.4021 14.2705 26.2757C15.3626 26.3424 18.2611 26.5085 18.2611 29.2098C18.2611 31.4401 15.8881 32.7553 11.8969 32.7553C7.52299 32.7553 3.28018 31.6462 0.703084 30.5944V39.4919C4.56106 40.4974 8.91013 40.9999 14.0072 40.9999C25.0065 40.9999 29.9329 34.8347 29.9329 28.7241C29.9329 21.7956 24.4203 17.2941 15.1718 16.678ZM81.1216 40.5899H91.1027V12.7394H81.1216V40.5899ZM109.897 4.28759V40.5899H119.879V2.51198L109.897 4.28759ZM95.3307 4.28759L105.304 2.51198V40.5899H95.3307V4.28759Z" fill="url(#paint0_linear)"/>
<defs>
<linearGradient id="paint0_linear" x1="32.4202" y1="0.285889" x2="41.3294" y2="50.5219" gradientUnits="userSpaceOnUse">
<stop stop-color="#6B195F"/>
<stop offset="1" stop-color="#4C255B"/>
</linearGradient>
</defs>
</svg>
