<svg width="128" height="41" viewBox="0 0 128 41" fill="none" xmlns="http://www.w3.org/2000/svg">
<g clip-path="url(#clip0)">
<path d="M55.4666 40.4083H45.0977L51.5831 0.719238H61.9514L55.4666 40.4083Z" fill="#00579F"/>
<path d="M93.055 1.68972C91.0098 0.88667 87.766 0 83.755 0C73.5153 0 66.3047 5.40419 66.2604 13.1306C66.1754 18.831 71.4231 21.9972 75.3479 23.898C79.3595 25.8402 80.7232 27.1079 80.7232 28.8392C80.6823 31.4981 77.4816 32.7237 74.4963 32.7237C70.3565 32.7237 68.1384 32.0918 64.7675 30.6125L63.4021 29.9784L61.9512 38.8877C64.3831 39.9843 68.8636 40.9574 73.5153 41C84.3951 41 91.4782 35.6794 91.5621 27.4458C91.6035 22.9277 88.8325 19.4657 82.8585 16.6368C79.2319 14.8208 77.0109 13.5963 77.0109 11.7383C77.0535 10.0491 78.8894 8.31897 82.9832 8.31897C86.3541 8.23423 88.8308 9.03616 90.7071 9.83865L91.6449 10.2601L93.055 1.68972Z" fill="#00579F"/>
<path d="M106.836 26.3479C107.69 24.0678 110.976 15.2432 110.976 15.2432C110.933 15.3279 111.828 12.921 112.34 11.4434L113.065 14.8633C113.065 14.8633 115.028 24.3636 115.455 26.3479C113.834 26.3479 108.884 26.3479 106.836 26.3479ZM119.635 0.719238H111.615C109.142 0.719238 107.263 1.43643 106.196 4.01226L90.7939 40.4078H101.674C101.674 40.4078 103.465 35.5092 103.85 34.4542C105.043 34.4542 115.627 34.4542 117.163 34.4542C117.46 35.8476 118.4 40.4078 118.4 40.4078H128.001L119.635 0.719238Z" fill="#00579F"/>
<path d="M36.4368 0.719238L26.2822 27.7834L25.1726 22.2945C23.2952 15.961 17.4074 9.07974 10.8369 5.65821L20.1381 40.3662H31.103L47.4011 0.719238H36.4368Z" fill="#00579F"/>
<path d="M16.8532 0.719238H0.170669L0 1.52117C13.0134 4.81475 21.632 12.7538 25.1729 22.2962L21.5464 4.05547C20.9493 1.52061 19.1144 0.802855 16.8532 0.719238Z" fill="#FAA61A"/>
</g>
<defs>
<clipPath id="clip0">
<rect width="128" height="41" fill="white"/>
</clipPath>
</defs>
</svg>
