<svg width="45" height="45" viewBox="0 0 45 45" fill="none" xmlns="http://www.w3.org/2000/svg">
<path d="M13.5016 25.3435C11.928 32.0119 11.7269 33.061 11.5244 34.2113H11.4906C11.222 32.6419 11.1011 31.9993 9.68359 25.3435H6.99765C5.71234 31.7096 5.52812 32.9429 5.30875 34.2113H5.27641C5.05703 32.8262 4.90234 31.981 3.34844 25.3435H0.648438L4.07687 37.471H6.44078C7.74297 31.2216 7.94266 30.3427 8.31672 28.0112H8.34906C8.75266 30.3399 8.97484 31.524 10.225 37.471H12.6564L16.0708 25.3435H13.5016Z" fill="black"/>
<path d="M11.181 43.5404C11.181 42.4618 10.9236 42.286 10.4483 42.0793C11.0193 41.8838 11.3413 41.3396 11.3413 40.7025C11.3413 40.2075 11.0614 39.0713 9.52582 39.0713H6.60645V44.8411H7.79051V42.5841H9.03504C9.92801 42.5841 9.97723 42.8879 9.97723 43.6768C9.97723 44.273 10.0236 44.5697 10.1038 44.8411H11.4383V44.6907C11.1824 44.5964 11.1824 44.3883 11.181 43.5404ZM9.20238 41.6166H7.79051V40.0697H9.29238C9.99832 40.0697 10.1361 40.5197 10.1361 40.8249C10.1361 41.3972 9.83098 41.6166 9.20238 41.6166Z" fill="black"/>
<path d="M1.19434 39.074L1.19574 40.0949H2.93949V44.8438H4.14184V40.0949H5.88699V39.074H1.19434Z" fill="black"/>
<path d="M31.4084 7.95812C31.3789 7.44905 31.3606 7.15796 31.3606 7.15796C31.3606 7.15796 31.317 7.44624 31.2341 7.95108C31.1989 8.19999 31.1469 8.50233 31.0906 8.84968C31.0499 9.19562 30.8825 9.56546 30.7686 9.97327C30.6505 10.3811 30.507 10.8142 30.2708 11.2361C30.0528 11.6636 29.8588 12.122 29.5283 12.5256C29.382 12.7323 29.2316 12.9433 29.0825 13.157C28.9236 13.3623 28.7183 13.5409 28.5383 13.735C28.191 14.1372 27.7649 14.4662 27.3416 14.7897C26.9422 15.13 26.4388 15.3648 26.0169 15.6461C25.5289 15.8584 25.1014 16.12 24.6205 16.2775C24.162 16.4603 23.7092 16.6164 23.2634 16.7303C22.8331 16.8709 22.4014 16.9384 22.0203 17.0312C21.777 17.0748 21.552 17.1114 21.3369 17.1437C21.358 17.0776 21.3847 17.0158 21.4072 16.9497C21.6111 16.3337 21.7644 15.6897 21.8656 15.0133C21.9078 14.6701 21.943 14.3228 21.9669 13.9684C21.9866 13.6098 21.9795 13.2372 21.943 12.8491C21.5816 12.9995 21.2511 13.1697 20.9403 13.3511C20.6394 13.5381 20.3497 13.7322 20.067 13.9333C19.5158 14.3397 19.0194 14.777 18.5708 15.2439C17.6638 16.1734 16.9241 17.2042 16.3081 18.3081L16.2294 18.4445C15.8497 19.1308 15.9242 20.0097 16.4783 20.6256C17.2095 21.437 18.0111 22.1922 18.942 22.8377C19.4047 23.1625 19.8997 23.462 20.4383 23.7278C20.9769 23.9908 21.5324 24.2411 22.1933 24.4014C22.1595 23.7236 22.0217 23.1287 21.8699 22.5494C21.7208 21.9855 21.5267 21.4581 21.3031 20.9519C21.7967 20.7916 22.393 20.5694 23.0666 20.2839C23.5011 20.0758 23.9778 19.8817 24.456 19.6047C24.9425 19.3544 25.4347 19.052 25.9311 18.7173C26.4388 18.4122 26.907 17.9833 27.4034 17.6106C27.8506 17.162 28.3428 16.7655 28.738 16.2592C29.1472 15.7712 29.5438 15.2847 29.8475 14.7362C30.0022 14.4691 30.1794 14.2201 30.3088 13.9459C30.4255 13.6689 30.5436 13.3961 30.6561 13.1261C30.9149 12.6058 31.0245 12.0503 31.1539 11.5441C31.3072 11.0434 31.3578 10.5526 31.3874 10.1026C31.4169 9.65265 31.4942 9.25187 31.4647 8.88905C31.4394 8.53046 31.4267 8.21546 31.4084 7.95812Z" fill="black"/>
<path d="M28.4116 3.94594C27.7043 3.11344 26.9252 2.33438 26.014 1.66078C25.5612 1.32047 25.076 1.00688 24.5458 0.725625C24.0129 0.448594 23.463 0.182813 22.8091 0C22.8218 0.679219 22.9413 1.27688 23.0777 1.86188C23.2113 2.43 23.3899 2.96297 23.598 3.47484C23.0988 3.62109 22.4941 3.82641 21.8149 4.09078C21.3733 4.28625 20.891 4.46484 20.4058 4.72781C19.9123 4.96406 19.4102 5.25094 18.904 5.57156C18.3879 5.86266 17.9069 6.27609 17.4021 6.63328C16.9408 7.06922 16.436 7.44891 16.0268 7.94531C15.6049 8.42063 15.1915 8.89453 14.8723 9.43453C14.7091 9.6975 14.5235 9.94078 14.3871 10.2094C14.2591 10.4822 14.1354 10.7536 14.013 11.018C13.7388 11.5298 13.6151 12.0811 13.4702 12.5831C13.3015 13.0795 13.2396 13.5675 13.1946 14.0175C13.1552 14.4661 13.061 14.8641 13.0835 15.2283C13.0948 15.5883 13.1046 15.9019 13.1116 16.1606C13.1285 16.6697 13.1341 16.9622 13.1341 16.9622C13.1341 16.9622 13.1876 16.6739 13.2818 16.1719C13.3282 15.9244 13.3858 15.6248 13.4505 15.2789C13.504 14.9344 13.6812 14.5688 13.8063 14.1652C13.9385 13.7602 14.0904 13.3313 14.3449 12.9178C14.5755 12.4959 14.7837 12.0431 15.1254 11.6494C15.2787 11.4483 15.4348 11.2416 15.5923 11.0334C15.7568 10.8309 15.9663 10.6594 16.1491 10.4709C16.5049 10.0814 16.9408 9.765 17.3726 9.45422C17.7846 9.12656 18.288 8.90578 18.7226 8.63719C19.2162 8.43891 19.6521 8.19 20.1387 8.04797C20.6041 7.87922 21.0612 7.73719 21.5083 7.63594C21.9429 7.50797 22.3788 7.45313 22.7613 7.37156C23.006 7.33641 23.2338 7.30688 23.4476 7.28016C23.4223 7.34484 23.3983 7.40672 23.3716 7.47141C23.1494 8.08031 22.9779 8.72016 22.8555 9.39375C22.8021 9.73547 22.7557 10.0828 22.7205 10.4358C22.6924 10.7944 22.6868 11.1656 22.7121 11.5566C23.0777 11.4173 23.411 11.257 23.7288 11.0841C24.0354 10.9055 24.3349 10.7198 24.6204 10.53C25.1857 10.1405 25.6948 9.71719 26.1588 9.26297C27.0898 8.36016 27.8618 7.35328 28.5129 6.26766L28.5944 6.13266C28.9938 5.45906 28.9474 4.57734 28.4116 3.94594Z" fill="black"/>
<path d="M36.996 35.3221V32.1806H42.9051V30.0374H36.996V27.4907H43.4296V25.3462H34.5098V37.4737H43.7151V35.3221H36.996Z" fill="black"/>
<path d="M33.3465 40.0936V39.0713H29.2402L29.2416 44.8468H30.4468V42.4182H32.9851V41.3958H30.4468V40.0936H33.3465Z" fill="black"/>
<path d="M31.9195 34.7344C31.9195 32.4703 31.3809 32.0963 30.3838 31.6575C31.5848 31.2539 32.2598 30.1022 32.2598 28.7705C32.2598 27.7214 31.6663 25.342 28.439 25.342H22.3105V37.4695H24.7968V32.7192H27.4138C29.287 32.7192 29.3882 33.3619 29.3882 35.0199C29.3868 36.2672 29.4895 36.8944 29.6596 37.4724H32.4609V37.1503C31.9195 36.9478 31.9195 36.5077 31.9195 34.7344ZM27.7654 30.6802H24.7968V27.4359H27.9524C29.4416 27.4359 29.7271 28.3809 29.7271 29.0236C29.7257 30.2217 29.083 30.6788 27.7654 30.6802Z" fill="black"/>
<path d="M35.3395 43.82V42.3294H38.152V41.307H35.3395V40.0934H38.4023V39.0725H34.1582V44.8424H38.5387V43.82H35.3395Z" fill="black"/>
<path d="M44.0942 43.5404C44.0942 42.4618 43.834 42.286 43.3615 42.0793C43.9339 41.8838 44.2573 41.3396 44.2573 40.7025C44.2573 40.2075 43.9747 39.0713 42.439 39.0713H39.5225V44.8411H40.7065V42.5841H41.9511C42.8412 42.5841 42.8932 42.8879 42.8932 43.6768C42.8932 44.273 42.9396 44.5697 43.0198 44.8411H44.3515V44.6907C44.0956 44.5964 44.0956 44.3883 44.0942 43.5404ZM42.1184 41.6166H40.7065V40.0697H42.2056C42.9143 40.0697 43.0521 40.5197 43.0521 40.8249C43.0521 41.3972 42.747 41.6166 42.1184 41.6166Z" fill="black"/>
<path d="M26.806 41.5588L25.4026 41.2129C25.1607 41.1581 24.788 41.061 24.788 40.611C24.788 40.0865 25.3393 39.9191 25.7935 39.9191C26.8482 39.9191 26.941 40.5337 26.979 40.7868H28.1307C28.1223 40.0809 27.6498 38.9221 25.8793 38.9221C24.0076 38.9221 23.6645 40.0584 23.6645 40.701C23.6645 41.9709 24.563 42.179 25.4968 42.3956L26.1127 42.5418C26.7273 42.6881 27.159 42.8062 27.159 43.2562C27.159 43.8693 26.522 44.0029 25.9552 44.0029C24.9005 44.0029 24.7388 43.3912 24.7304 43.072H23.5801C23.5801 43.7863 23.9401 44.9999 26.0466 44.9999C26.5501 44.9999 28.3205 44.8466 28.3205 43.1113C28.3191 42.0749 27.5977 41.7515 26.806 41.5588Z" fill="black"/>
<path d="M19.9438 25.3406H17.4111V37.4681H19.9438V25.3406Z" fill="black"/>
<path d="M15.2566 39.074H13.863L11.8057 44.8452H13.0769L13.4777 43.6555H15.6068L15.978 44.8452H17.2886L15.2566 39.074ZM13.8011 42.6599L14.5422 40.3776H14.5521L15.2721 42.6599H13.8011Z" fill="black"/>
<path d="M21.5859 39.074V43.0944H21.5718L19.2782 39.074H18.0098V44.8452H19.1334V40.7305H19.1502L21.5043 44.8452H22.7123V39.074H21.5859Z" fill="black"/>
</svg>
