<svg width="150" height="150" viewBox="0 0 150 150" fill="none" xmlns="http://www.w3.org/2000/svg">
<path d="M115.124 133.043L90.1766 108.148C95.3292 100.394 98.3333 91.1 98.3333 81.0989C98.3333 73.6741 96.6322 66.6665 93.6822 60.3606L82.2558 71.7603C83.1015 74.7341 83.5833 77.8601 83.5833 81.0989C83.5833 100.036 68.1401 115.45 49.1667 115.45C30.1883 115.45 14.75 100.036 14.75 81.0989C14.75 62.1567 30.1883 46.7478 49.1667 46.7478C57.6184 46.7478 65.3572 49.8198 71.3605 54.8841L81.8035 44.461C73.1158 36.7467 61.7091 32.0259 49.1667 32.0259C22.0119 32.0259 0 53.991 0 81.0989C0 108.202 22.0119 130.172 49.1667 130.172C59.1868 130.172 68.499 127.174 76.2673 122.031L101.215 146.925C105.049 150.748 111.279 150.748 115.124 146.921C118.959 143.088 118.959 136.87 115.124 133.043Z" fill="#242424"/>
<path d="M63.9167 69.2527L52.6428 58.0002C51.2317 56.5967 49.1224 56.1796 47.2836 56.9353C45.4497 57.696 44.25 59.4871 44.25 61.4697V88.8819L37.8928 82.5367C35.9703 80.618 32.863 80.618 30.9406 82.5367L21.6973 91.7625C22.9461 94.9473 24.7259 97.8622 26.9433 100.404L34.4167 92.9451L45.6906 104.198C47.0968 105.601 49.2109 106.028 51.0498 105.262C52.8837 104.507 54.0833 102.711 54.0833 100.728V73.3159L60.4406 79.661C62.363 81.5798 65.4703 81.5798 67.3928 79.661L99.3511 47.7636L104.754 53.156C106.014 54.4141 108.167 53.5213 108.167 51.7405V34.0259C108.167 32.9213 107.271 32.0259 106.167 32.0259H88.4183C86.6356 32.0259 85.7436 34.1821 87.0054 35.4414L92.3989 40.8247L63.9167 69.2527Z" fill="#333399"/>
<path d="M76.7207 7.11297L77.0762 7.27222C78.7003 8.00021 79.9999 9.29981 80.7279 10.9239L80.8874 11.2793C81.3179 12.2402 82.6821 12.2402 83.1128 11.2793L83.2721 10.9239C83.9999 9.29963 85.2997 8.00003 86.9238 7.27204L87.2793 7.11279C88.2402 6.68205 88.2402 5.31795 87.2793 4.88721L86.9238 4.72796C85.2997 4.00015 83.9999 2.70036 83.2721 1.07613L83.1128 0.720692C82.6822 -0.240231 81.3179 -0.240231 80.8874 0.720692L80.7279 1.07613C80.0001 2.70018 78.7003 3.99997 77.0762 4.72778L76.7207 4.88703C75.7598 5.31813 75.7598 6.68223 76.7207 7.11297Z" fill="#333399"/>
<path d="M138.721 69.113L139.076 69.2722C140.7 70.0002 142 71.2998 142.728 72.9239L142.887 73.2793C143.318 74.2402 144.682 74.2402 145.113 73.2793L145.272 72.9239C146 71.2996 147.3 70 148.924 69.272L149.279 69.1128C150.24 68.682 150.24 67.3179 149.279 66.8872L148.924 66.728C147.3 66.0001 146 64.7004 145.272 63.0761L145.113 62.7207C144.682 61.7598 143.318 61.7598 142.887 62.7207L142.728 63.0761C142 64.7002 140.7 66 139.076 66.7278L138.721 66.887C137.76 67.3181 137.76 68.6822 138.721 69.113Z" fill="#333399"/>
<path d="M136.347 18.7323C135.829 18.3609 134.949 18.0041 133.717 17.6675V25.448C135.403 25.3674 136.566 24.7516 137.211 23.5976C137.545 23.0049 137.711 22.3202 137.711 21.5404C137.711 20.3121 137.259 19.3741 136.347 18.7323Z" fill="#FFCD6B"/>
<path d="M129.533 8.85674C128.98 9.59601 128.707 10.3705 128.707 11.1787C128.707 12.1543 129.029 12.9167 129.683 13.4694C130.342 14.0191 131.214 14.4073 132.313 14.6234V7.67139C131.015 7.72588 130.088 8.11457 129.533 8.85674Z" fill="#FFCD6B"/>
<path d="M133 0C123.606 0 116 7.61075 116 17C116 26.3893 123.612 34 133 34C142.388 34 150 26.3893 150 17C150 7.61075 142.394 0 133 0ZM137.812 26.4124C136.868 27.0224 135.504 27.428 133.717 27.6238V30.4927H132.312V27.6238C129.449 27.4367 127.497 26.4211 126.473 24.5765C125.911 23.5778 125.635 22.2343 125.635 20.5392H128.246C128.323 21.8914 128.542 22.8756 128.891 23.4972C129.509 24.6107 130.643 25.2353 132.313 25.3732V17.3139C130.177 16.9084 128.594 16.2347 127.576 15.2851C126.557 14.3385 126.048 13.0263 126.048 11.3515C126.048 9.85221 126.598 8.50289 127.694 7.30018C128.796 6.09747 130.336 5.48743 132.313 5.46718V3.49915H133.718V5.43583C135.686 5.57376 137.186 6.14955 138.23 7.16805C139.284 8.18654 139.836 9.53055 139.882 11.2025H137.298C137.229 10.4545 137.027 9.80977 136.691 9.2658C136.066 8.26997 135.076 7.74626 133.718 7.70044V14.9027C136.009 15.5417 137.557 16.1431 138.377 16.7039C139.71 17.6303 140.371 19.0032 140.371 20.816C140.379 23.4399 139.522 25.3047 137.812 26.4124Z" fill="#FFCD6B"/>
</svg>
