<svg width="150" height="150" viewBox="0 0 150 150" fill="none" xmlns="http://www.w3.org/2000/svg">
<path d="M148.934 70.8792C147.356 69.3007 144.83 69.3007 143.252 70.8792L138.042 76.0884V74.9834C138.042 40.2557 109.787 12 75.0591 12C55.0117 12 36.0693 21.629 24.2304 37.8879C22.9675 39.6243 23.2832 42.15 25.1775 43.5706C26.9139 44.8335 29.4395 44.5177 30.8602 42.6235C41.1206 28.4167 57.8531 20.0505 75.2169 20.0505C105.525 20.0505 130.15 44.6756 130.15 74.9834V76.0884L124.941 70.8792C123.362 69.3007 120.836 69.3007 119.258 70.8792C117.679 72.4578 117.679 74.9834 119.258 76.5619L131.255 88.5588C132.044 89.348 132.991 89.6637 134.096 89.6637C135.201 89.6637 136.148 89.348 136.937 88.5588L148.934 76.5619C150.355 74.9834 150.355 72.4578 148.934 70.8792Z" fill="#242424"/>
<path d="M119.416 107.343C109.155 121.55 92.5809 129.916 75.0592 129.916C44.7514 129.916 20.1263 105.291 20.1263 74.9834V73.8784L25.3354 79.0876C26.1247 79.8768 27.0718 80.1925 28.1768 80.1925C29.2818 80.1925 30.2289 79.8768 31.0181 79.0876C32.5967 77.509 32.5967 74.9834 31.0181 73.4049L19.0213 61.408C17.4428 59.8295 14.9171 59.8295 13.3386 61.408L1.1839 73.4049C-0.394633 74.9834 -0.394633 77.509 1.1839 79.0876C2.76243 80.6661 5.28808 80.6661 6.86661 79.0876L12.0758 73.8784V74.9834C12.0758 109.711 40.3315 137.967 75.0592 137.967C95.1065 137.967 114.049 128.338 125.888 112.079C127.151 110.342 126.835 107.817 124.941 106.396C123.204 105.133 120.679 105.449 119.416 107.343Z" fill="#242424"/>
<path d="M57.4132 98.9347C56.9699 98.617 56.2163 98.3116 55.1621 98.0236V104.682C56.6055 104.613 57.6002 104.086 58.152 103.098C58.4377 102.591 58.5805 102.005 58.5805 101.338C58.5805 100.287 58.1937 99.484 57.4132 98.9347Z" fill="#FFCD6B"/>
<path d="M51.5811 90.484C51.1081 91.1166 50.8745 91.7793 50.8745 92.471C50.8745 93.3058 51.1502 93.9583 51.7095 94.4312C52.2733 94.9016 53.0195 95.2338 53.9606 95.4187V89.4696C52.8495 89.5162 52.0566 89.8489 51.5811 90.484Z" fill="#FFCD6B"/>
<path d="M54.5486 82.9049C46.51 82.9049 40.001 89.4177 40.001 97.4525C40.001 105.487 46.5149 112 54.5486 112C62.5822 112 69.0962 105.487 69.0962 97.4525C69.0962 89.4177 62.5872 82.9049 54.5486 82.9049ZM58.6665 105.507C57.8588 106.029 56.6915 106.376 55.1619 106.544V108.999H53.96V106.544C51.5095 106.384 49.8396 105.515 48.9629 103.936C48.4825 103.081 48.2464 101.932 48.2464 100.481H50.4801C50.5466 101.638 50.734 102.481 51.032 103.012C51.5615 103.965 52.5319 104.5 53.9604 104.618V97.7212C52.1332 97.3741 50.7786 96.7976 49.9068 95.985C49.0351 95.175 48.5993 94.0521 48.5993 92.6188C48.5993 91.3358 49.0698 90.1812 50.008 89.152C50.9511 88.1228 52.269 87.6007 53.9608 87.5834V85.8993H55.1627V87.5566C56.8471 87.6746 58.1304 88.1673 59.0244 89.0389C59.9258 89.9105 60.3988 91.0606 60.438 92.4913H58.2265C58.1675 91.8513 57.995 91.2995 57.7069 90.834C57.1724 89.9819 56.3254 89.5337 55.1627 89.4945V95.6578C57.1233 96.2046 58.4482 96.7192 59.1498 97.1991C60.2903 97.9919 60.8565 99.1668 60.8565 100.718C60.8631 102.963 60.1293 104.559 58.6665 105.507Z" fill="#FFCD6B"/>
<path fill-rule="evenodd" clip-rule="evenodd" d="M83.224 44.2158C82.5921 44.0025 81.9516 43.8086 81.3031 43.6351C81.6386 44.2726 81.9614 44.9469 82.2715 45.6529C82.5652 45.1572 82.8832 44.6776 83.224 44.2158ZM96.9442 71.367C99.8826 71.367 102.647 70.6233 105.06 69.314C105.456 71.3246 105.672 73.398 105.672 75.5234C105.672 78.6309 105.21 81.8264 104.4 84.6778H87.265C87.589 81.586 87.7618 78.3441 87.7618 75.5234C87.7618 73.2855 87.653 70.9079 87.4463 68.4769C90.1602 70.302 93.4278 71.367 96.9442 71.367ZM72.8362 42.488C70.3286 42.488 67.0441 50.434 65.2306 60.5978H80.4419C78.6286 50.434 75.3442 42.488 72.8362 42.488ZM58.4074 66.568H41.2729C40.4625 69.4194 40 72.4159 40 75.5234C40 78.6309 40.4625 81.8264 41.2729 84.6778H47.1769C49.4079 83.6056 51.9084 83.005 54.5492 83.005C55.8322 83.005 57.0822 83.1468 58.2843 83.4156C58.0399 80.7161 57.9107 77.9623 57.9107 75.5234C57.9107 72.7027 58.0835 69.6598 58.4074 66.568ZM72.8362 108.559C72.0562 108.559 71.201 107.809 70.3383 106.47C71.1457 104.488 71.5906 102.319 71.5906 100.046C71.5906 96.5729 70.5514 93.3421 68.7669 90.648H80.4419C78.6284 100.812 75.344 108.559 72.8362 108.559ZM81.2931 66.568H64.3786C64.0628 69.4865 63.8805 72.5048 63.8805 75.5234C63.8805 78.5419 64.0628 81.7593 64.3786 84.6778H81.2931C81.6091 81.7593 81.7912 78.5419 81.7912 75.5234C81.7912 72.5048 81.6091 69.4865 81.2931 66.568ZM86.4389 90.648C85.3655 96.9356 83.6415 102.968 81.3031 107.412C90.3476 104.991 97.8548 98.8185 102.047 90.648H86.4389ZM59.2331 60.5978H43.6247C47.817 52.4273 55.3242 46.0555 64.3689 43.6351C62.0306 48.079 60.3066 54.3101 59.2331 60.5978Z" fill="#333399"/>
<path d="M96.7776 39.7778C88.739 39.7778 82.23 46.2907 82.23 54.3254C82.23 62.3602 88.7439 68.873 96.7776 68.873C104.811 68.873 111.325 62.3577 111.325 54.3254C111.326 46.2907 104.811 39.7778 96.7776 39.7778ZM102.518 62.023C101.23 63.6853 99.4893 64.5148 97.2997 64.5148C95.413 64.5148 93.8322 63.8351 92.5416 62.4712C91.3322 61.1882 90.5493 59.4005 90.2116 57.1081H86.8919L87.4438 55.2391H90.0271C90.0073 54.8796 89.9974 54.5103 89.9974 54.1311C89.9974 53.8059 90.0073 53.4811 90.0271 53.1559H86.8944L87.4487 51.2844H90.2389C90.5418 49.6791 91.1007 48.2876 91.9134 47.1106C93.2899 45.1236 95.179 44.1311 97.5977 44.1311C99.6565 44.1311 101.245 44.7761 102.383 46.0691C103.526 47.3595 104.154 48.827 104.282 50.4694H102.132C101.893 49.2235 101.41 48.2335 100.679 47.5047C99.9524 46.776 98.935 46.4116 97.6249 46.4116C96.0194 46.4116 94.7188 47.0838 93.7385 48.4283C93.1916 49.167 92.8053 50.1199 92.5639 51.2873H99.9128L99.3585 53.1588H92.2976C92.2655 53.607 92.256 54.0824 92.256 54.5821C92.256 54.8087 92.2609 55.0303 92.2659 55.242H99.9103L99.356 57.111H92.4627C92.6745 58.2632 93.0488 59.2606 93.5858 60.1029C94.4674 61.5064 95.7948 62.2108 97.561 62.2108C99.1864 62.2108 100.427 61.4696 101.28 59.9848C101.733 59.202 102.058 58.1749 102.28 56.9018H104.43C104.233 58.935 103.6 60.6439 102.518 62.023Z" fill="#FFCD6B"/>
</svg>
