<svg width="150" height="150" viewBox="0 0 150 150" fill="none" xmlns="http://www.w3.org/2000/svg">
<g clip-path="url(#clip0)">
<rect y="28" width="150" height="101.087" rx="6" fill="#242424"/>
<rect x="10" y="39" width="130" height="81" fill="white"/>
<path d="M73.6067 121.744C74.3827 120.991 75.6172 120.991 76.3932 121.744L102.526 147.12C103.815 148.371 102.929 150.554 101.133 150.554H48.8667C47.0707 150.554 46.1849 148.371 47.4734 147.12L73.6067 121.744Z" fill="#242424"/>
<path d="M10 37H140V118H10.5L10 37Z" fill="#333399"/>
<path d="M126.654 37L22.8517 37C17.094 37 10 37 10 37L10.4943 118H22.3574C23.2162 108.582 28.9185 98.8976 36.5909 94.5C39.9129 98.6053 44.2131 101.5 49.5437 101.5C54.8724 101.5 58.8759 98.6028 62.197 94.5C69.8721 98.8985 75.8724 108.587 76.73 118H140V37C140 37 132.386 37 126.654 37ZM49.5437 97.3005C41.9613 97.3005 36.0752 88.5805 36.0752 81.095C36.0752 73.4781 42.1156 67.2797 49.5437 67.2797C56.9721 67.2797 63.0123 73.4781 63.0123 81.095C63.0123 88.5805 57.1263 97.3005 49.5437 97.3005Z" fill="white"/>
<path d="M19.3604 71.5565L19.5381 71.6361C20.3501 72.0001 21 72.6499 21.364 73.4619L21.4437 73.6397C21.659 74.1201 22.341 74.1201 22.5564 73.6397L22.636 73.4619C23 72.6498 23.6499 72 24.4619 71.636L24.6396 71.5564C25.1201 71.341 25.1201 70.659 24.6396 70.4436L24.4619 70.364C23.6499 70.0001 23 69.3502 22.636 68.5381L22.5564 68.3603C22.3411 67.8799 21.659 67.8799 21.4437 68.3603L21.364 68.5381C21 69.3501 20.3501 70 19.5381 70.3639L19.3604 70.4435C18.8799 70.6591 18.8799 71.3411 19.3604 71.5565Z" fill="#333399"/>
<path d="M17.6006 52.9275L17.8968 53.0602C19.2502 53.6668 20.3333 54.7498 20.9399 56.1032L21.0728 56.3994C21.4316 57.2002 22.5684 57.2002 22.9274 56.3994L23.0601 56.1032C23.6666 54.7497 24.7498 53.6667 26.1032 53.06L26.3994 52.9273C27.2002 52.5684 27.2002 51.4316 26.3994 51.0727L26.1032 50.94C24.7498 50.3335 23.6666 49.2503 23.0601 47.8968L22.9274 47.6006C22.5685 46.7998 21.4316 46.7998 21.0728 47.6006L20.9399 47.8968C20.3334 49.2502 19.2502 50.3333 17.8968 50.9398L17.6006 51.0725C16.7998 51.4318 16.7998 52.5685 17.6006 52.9275Z" fill="#333399"/>
<path d="M74.5 47C68.1454 47 63 52.1484 63 58.5C63 64.8516 68.1493 70 74.5 70C80.8507 70 86 64.8496 86 58.5C86.0003 52.1484 80.8507 47 74.5 47ZM79.0382 64.585C78.0199 65.8991 76.6436 66.5548 74.9127 66.5548C73.4213 66.5548 72.1717 66.0175 71.1514 64.9393C70.1954 63.9251 69.5765 62.5119 69.3096 60.6997H66.6853L67.1215 59.2223H69.1637C69.1481 58.9381 69.1402 58.6461 69.1402 58.3463C69.1402 58.0893 69.1481 57.8325 69.1637 57.5755H66.6873L67.1255 56.0961H69.3311C69.5706 54.8271 70.0124 53.727 70.6548 52.7966C71.7429 51.2259 73.2363 50.4413 75.1483 50.4413C76.7758 50.4413 78.0316 50.9512 78.9312 51.9733C79.8347 52.9934 80.3309 54.1534 80.4321 55.4518H78.7325C78.5436 54.4669 78.1621 53.6843 77.584 53.1082C77.0097 52.5321 76.2055 52.244 75.1698 52.244C73.9006 52.244 72.8725 52.7754 72.0976 53.8383C71.6653 54.4222 71.3599 55.1755 71.169 56.0983H76.9784L76.5402 57.5778H70.9586C70.9331 57.932 70.9256 58.3079 70.9256 58.7029C70.9256 58.882 70.9295 59.0572 70.9335 59.2245H76.9765L76.5383 60.702H71.0891C71.2565 61.6128 71.5524 62.4013 71.9769 63.0671C72.6738 64.1766 73.7231 64.7335 75.1193 64.7335C76.4042 64.7335 77.3853 64.1476 78.059 62.9738C78.4173 62.355 78.6744 61.543 78.8496 60.5366H80.5492C80.3932 62.1439 79.893 63.4948 79.0382 64.585Z" fill="#FFCD6B"/>
<path d="M84.2031 117.437C81.8813 117.437 80 115.556 80 113.234V88.0155C80 85.6937 81.8813 83.8124 84.2031 83.8124C86.5249 83.8124 88.4062 85.6937 88.4062 88.0155V113.234C88.4062 115.556 86.5249 117.437 84.2031 117.437Z" fill="#333399"/>
<path d="M129.176 117.437C126.854 117.437 124.973 115.556 124.973 113.234V104.828C124.973 102.506 126.854 100.625 129.176 100.625C131.498 100.625 133.379 102.506 133.379 104.828V113.234C133.379 115.556 131.498 117.437 129.176 117.437Z" fill="#FFCD6B"/>
<path d="M95.4101 117.437C93.0883 117.437 91.207 115.556 91.207 113.234V71.2031C91.207 68.8813 93.0883 67 95.4101 67C97.7319 67 99.6132 68.8813 99.6132 71.2031V113.234C99.6132 115.556 97.7319 117.437 95.4101 117.437Z" fill="#333399"/>
<path d="M106.619 117.437C104.297 117.437 102.416 115.556 102.416 113.234V88.0155C102.416 85.6937 104.297 83.8124 106.619 83.8124C108.941 83.8124 110.822 85.6937 110.822 88.0155V113.234C110.822 115.556 108.941 117.437 106.619 117.437Z" fill="#FFCD6B"/>
<path d="M117.828 117.437C115.506 117.437 113.625 115.556 113.625 113.234V79.6093C113.625 77.2875 115.506 75.4062 117.828 75.4062C120.149 75.4062 122.031 77.2875 122.031 79.6093V113.234C122.031 115.556 120.149 117.437 117.828 117.437Z" fill="#FFCD6B"/>
<path d="M127.36 50.5565L127.538 50.6361C128.35 51.0001 129 51.6499 129.364 52.4619L129.444 52.6397C129.659 53.1201 130.341 53.1201 130.556 52.6397L130.636 52.4619C131 51.6498 131.65 51 132.462 50.636L132.64 50.5564C133.12 50.341 133.12 49.659 132.64 49.4436L132.462 49.364C131.65 49.0001 131 48.3502 130.636 47.5381L130.556 47.3603C130.341 46.8799 129.659 46.8799 129.444 47.3603L129.364 47.5381C129 48.3501 128.35 49 127.538 49.3639L127.36 49.4435C126.88 49.6591 126.88 50.3411 127.36 50.5565Z" fill="#333399"/>
</g>
<defs>
<clipPath id="clip0">
<rect width="150" height="150" fill="white"/>
</clipPath>
</defs>
</svg>
