<svg width="150" height="150" viewBox="0 0 150 150" fill="none" xmlns="http://www.w3.org/2000/svg">
<path d="M82.6764 33.5665L86.1117 17.077C83.3635 14.7868 80.3862 13.6417 76.7219 13.8707L73.2866 19.5962C73.0576 20.0542 72.5995 20.2833 72.1415 20.2833C71.6834 20.2833 71.2254 19.8252 71.2254 19.3672L68.4771 9.29026C62.5226 5.3969 57.7131 4.70984 55.1939 4.70984C54.7359 4.70984 54.5069 4.70984 54.2778 4.70984L61.8355 33.7955C63.2096 39.521 81.3023 39.75 82.6764 33.5665Z" fill="#333399"/>
<path d="M15.1157 113.037H1.83252V149.909H15.1157C17.1769 149.909 18.7801 148.306 18.7801 146.245V145.329V116.701C18.7801 114.64 17.1769 113.037 15.1157 113.037Z" fill="#4C4A58"/>
<path d="M98.2501 101.357C100.54 98.3793 104.205 92.6538 104.205 92.6538C105.808 90.1346 106.495 87.1573 106.495 84.18C106.495 73.8741 96.647 47.5367 83.1347 37.2307C79.0123 41.5821 64.8131 41.1241 60.9197 37.2307C47.6365 47.7657 37.7886 74.1031 37.7886 84.18C37.7886 90.8216 41.2239 94.944 45.8043 98.8374C49.6977 98.1503 50.1557 98.6083 77.4092 98.3793C81.9896 98.3793 85.654 102.273 85.654 106.853C85.654 107.54 85.4249 108.227 85.4249 108.914L98.2501 101.357ZM82.2186 67.2325C82.2186 67.9195 81.7606 68.3776 81.0735 68.3776H75.348C74.661 68.3776 74.2029 67.9195 74.2029 67.2325V66.7744C74.2029 65.4003 72.8288 64.4842 71.4547 64.7132C70.7676 64.9422 70.0805 65.4003 70.0805 66.0874C69.8515 66.7744 70.0805 67.4615 70.5386 67.9195C70.9966 68.3776 71.4547 68.8356 72.1417 68.8356C72.3707 68.8356 72.5998 68.8356 72.8288 68.8356C75.119 68.8356 77.1802 69.5227 78.7833 70.8968C81.7606 73.8741 82.9057 77.5384 82.2186 81.2027C81.5316 84.409 79.2414 86.9283 76.2641 88.3024C76.0351 90.3636 74.4319 91.9667 72.1417 91.9667C69.8515 91.9667 68.2484 90.3636 68.0193 88.3024C64.355 86.6992 61.8358 83.0349 61.8358 78.9125V78.4545C61.8358 77.7674 62.2938 77.3094 62.9809 77.3094H68.7064C69.3935 77.3094 69.8515 77.7674 69.8515 78.4545V78.9125C69.8515 79.3706 70.0805 80.0576 70.5386 80.5157C70.9966 80.9737 71.9127 81.2027 72.5998 80.9737C73.2868 80.7447 73.9739 80.2867 73.9739 79.5996C74.2029 78.9125 73.9739 78.2255 73.5158 77.7674C73.0578 77.3094 72.5998 76.8513 71.9127 76.8513C71.6837 76.8513 71.4547 76.8513 71.2256 76.8513C68.9354 76.8513 66.8742 76.1643 65.2711 74.7901C62.2938 71.8129 61.1487 68.1485 61.8358 64.4842C62.5228 61.2779 64.813 58.7587 67.7903 57.3846C68.0193 55.3234 69.6225 53.7202 71.9127 53.7202C74.2029 53.7202 75.8061 55.3234 76.0351 57.3846C79.6994 58.9877 82.2186 62.652 82.2186 66.7744V67.2325Z" fill="#333399"/>
<path d="M74.6606 59.4458C74.2025 59.2168 73.7445 58.7587 73.7445 58.3007V57.6136C73.7445 56.6976 73.0574 56.0105 72.1413 56.0105C71.2252 56.0105 70.5382 56.6976 70.5382 57.6136V58.3007C70.5382 58.7587 70.3092 59.2168 69.6221 59.4458C67.1029 60.3619 65.0417 62.4231 64.5836 65.1713C63.8966 67.9196 64.8127 70.8969 67.3319 73.1871C68.706 74.5612 70.5382 74.7902 71.9123 74.5612C73.5155 74.5612 74.8896 75.2483 75.8057 76.3934C76.7217 77.5385 76.9508 78.9126 76.7217 80.2867C76.2637 81.8899 75.1186 83.035 73.5154 83.493C71.9123 83.9511 70.3092 83.493 69.1641 82.3479C68.477 81.6609 68.0189 80.7448 67.7899 79.8287H64.5836C64.8127 82.806 66.8738 85.5542 69.8511 86.4703C70.3092 86.6993 70.7672 87.1574 70.7672 87.6154V88.0734C70.7672 88.9895 71.4543 89.6766 72.3703 89.6766C73.2864 89.6766 73.9735 88.9895 73.9735 88.0734V87.3864C73.9735 86.9283 74.2025 86.4703 74.8896 86.2413C77.4088 85.3252 79.47 83.264 79.928 80.5157C80.6151 77.7675 79.699 74.7902 77.1798 72.5C76.0347 71.3549 74.2025 71.1259 73.0574 71.1259H72.5994C70.9962 71.1259 69.6221 70.4388 68.935 69.2937C68.0189 68.1486 67.7899 66.7745 68.0189 65.4004C68.477 63.7972 69.6221 62.6521 71.2252 62.1941C73.7445 61.507 76.4927 63.3392 76.9508 65.8584H80.1571C79.699 63.1101 77.4088 60.3619 74.6606 59.4458Z" fill="#242424"/>
<path d="M115.197 93.7989C80.3858 114.411 81.5309 115.327 77.4085 115.327H55.1935C54.5064 115.327 54.0484 114.869 54.0484 114.182C54.0484 113.495 54.5064 113.037 55.1935 113.037H77.4085C78.3246 113.037 79.2407 112.808 80.1567 112.35C80.3858 112.121 83.363 110.976 83.363 107.082C83.363 103.647 80.8438 101.128 77.4085 101.128H50.155C35.7267 101.128 33.2074 113.724 21.0693 117.846V144.184H51.5291C55.6515 144.184 60.0029 143.496 64.1253 142.351L75.8053 138.916C83.363 136.855 90.2337 132.733 95.9592 127.236L121.61 101.815C122.526 100.899 123.213 99.5245 123.213 98.1503C123.213 97.0052 122.755 95.8601 122.068 94.9441C120.464 92.6538 117.487 92.1958 115.197 93.7989Z" fill="#242424"/>
<path d="M116.035 24.6455C115.474 24.2561 114.52 23.8818 113.186 23.5288V31.6886C115.013 31.6042 116.271 30.9583 116.97 29.7481C117.331 29.1265 117.512 28.4083 117.512 27.5905C117.512 26.3024 117.023 25.3187 116.035 24.6455Z" fill="#FFCD6B"/>
<path d="M108.655 14.2887C108.057 15.064 107.761 15.8762 107.761 16.7239C107.761 17.747 108.11 18.5466 108.818 19.1262C109.531 19.7028 110.476 20.1099 111.667 20.3365V13.0455C110.261 13.1027 109.257 13.5103 108.655 14.2887Z" fill="#FFCD6B"/>
<path d="M112.41 5C102.237 5 94 12.9818 94 22.8288C94 32.6758 102.244 40.6576 112.41 40.6576C122.577 40.6576 130.821 32.6758 130.821 22.8288C130.821 12.9818 122.583 5 112.41 5ZM117.622 32.7001C116.6 33.3399 115.122 33.7652 113.187 33.9706V36.9793H111.666V33.9706C108.564 33.7743 106.451 32.7092 105.342 30.7747C104.734 29.7273 104.435 28.3183 104.435 26.5405H107.262C107.346 27.9587 107.583 28.9909 107.96 29.6428C108.63 30.8106 109.858 31.4656 111.666 31.6102V23.1581C109.354 22.7327 107.639 22.0262 106.536 21.0304C105.433 20.0376 104.881 18.6614 104.881 16.9049C104.881 15.3325 105.477 13.9174 106.664 12.6561C107.858 11.3947 109.525 10.755 111.667 10.7337V8.66975H113.188V10.7009C115.319 10.8455 116.943 11.4494 118.075 12.5175C119.215 13.5857 119.814 14.9952 119.864 16.7486H117.065C116.99 15.9642 116.772 15.288 116.407 14.7175C115.731 13.6732 114.659 13.1239 113.188 13.0759V20.6293C115.669 21.2994 117.345 21.9301 118.233 22.5183C119.677 23.4898 120.393 24.9297 120.393 26.8308C120.402 29.5826 119.473 31.5384 117.622 32.7001Z" fill="#FFCD6B"/>
<path d="M22.0349 56.6455C21.4739 56.2561 20.5201 55.8818 19.186 55.5288V63.6886C21.0127 63.6042 22.2715 62.9583 22.9699 61.7481C23.3313 61.1265 23.512 60.4083 23.512 59.5905C23.512 58.3024 23.0226 57.3187 22.0349 56.6455Z" fill="#FFCD6B"/>
<path d="M14.6555 46.2887C14.0569 47.064 13.7612 47.8762 13.7612 48.7239C13.7612 49.747 14.1102 50.5466 14.8179 51.1262C15.5314 51.7028 16.4758 52.1099 17.6668 52.3365V45.0455C16.2606 45.1027 15.2572 45.5103 14.6555 46.2887Z" fill="#FFCD6B"/>
<path d="M18.4104 37C8.23728 37 0 44.9818 0 54.8288C0 64.6758 8.24355 72.6576 18.4104 72.6576C28.5772 72.6576 36.8207 64.6758 36.8207 54.8288C36.8207 44.9818 28.5834 37 18.4104 37ZM23.6217 64.7001C22.5995 65.3399 21.1223 65.7652 19.1866 65.9706V68.9793H17.6655V65.9706C14.5644 65.7743 12.451 64.7092 11.3415 62.7747C10.7335 61.7273 10.4348 60.3183 10.4348 58.5405H13.2617C13.3458 59.9587 13.5829 60.9909 13.96 61.6428C14.6302 62.8106 15.8582 63.4656 17.666 63.6102V55.1581C15.3536 54.7327 13.6393 54.0262 12.5361 53.0304C11.433 52.0376 10.8814 50.6614 10.8814 48.9049C10.8814 47.3325 11.4768 45.9174 12.6641 44.6561C13.8577 43.3947 15.5255 42.755 17.6665 42.7337V40.6697H19.1876V42.7009C21.3193 42.8455 22.9432 43.4494 24.0746 44.5175C25.2154 45.5857 25.814 46.9952 25.8636 48.7486H23.0649C22.9902 47.9642 22.7719 47.288 22.4073 46.7175C21.7309 45.6732 20.659 45.1239 19.1876 45.0759V52.6293C21.6687 53.2994 23.3454 53.9301 24.2334 54.5183C25.6766 55.4898 26.3933 56.9297 26.3933 58.8308C26.4016 61.5826 25.4729 63.5384 23.6217 64.7001Z" fill="#FFCD6B"/>
<path d="M132.141 79.2622L132.704 79.5143C135.275 80.667 137.333 82.7247 138.486 85.2961L138.738 85.8589C139.42 87.3804 141.58 87.3804 142.262 85.8589L142.514 85.2961C143.667 82.7244 145.725 80.6667 148.296 79.5141L148.859 79.2619C150.38 78.5799 150.38 76.4201 148.859 75.7381L148.296 75.4859C145.725 74.3336 143.667 72.2756 142.514 69.7039L142.262 69.1411C141.58 67.6196 139.42 67.6196 138.738 69.1411L138.486 69.7039C137.333 72.2753 135.275 74.3333 132.704 75.4856L132.141 75.7378C130.62 76.4204 130.62 78.5802 132.141 79.2622Z" fill="#333399"/>
<path d="M138.721 10.113L139.076 10.2722C140.7 11.0002 142 12.2998 142.728 13.9239L142.887 14.2793C143.318 15.2402 144.682 15.2402 145.113 14.2793L145.272 13.9239C146 12.2996 147.3 11 148.924 10.272L149.279 10.1128C150.24 9.68205 150.24 8.31795 149.279 7.88721L148.924 7.72796C147.3 7.00015 146 5.70036 145.272 4.07613L145.113 3.72069C144.682 2.75977 143.318 2.75977 142.887 3.72069L142.728 4.07613C142 5.70018 140.7 6.99997 139.076 7.72778L138.721 7.88703C137.76 8.31813 137.76 9.68223 138.721 10.113Z" fill="#333399"/>
<path d="M0.480476 7.74198L0.71744 7.84815C1.80018 8.33347 2.66661 9.19988 3.15195 10.2826L3.25824 10.5195C3.54529 11.1602 4.45471 11.1602 4.74188 10.5195L4.84805 10.2826C5.33327 9.19976 6.19982 8.33335 7.28256 7.84803L7.51952 7.74186C8.16016 7.4547 8.16016 6.5453 7.51952 6.25814L7.28256 6.15197C6.19982 5.66677 5.33327 4.80024 4.84805 3.71742L4.74188 3.48046C4.45483 2.83985 3.54529 2.83985 3.25824 3.48046L3.15195 3.71742C2.66673 4.80012 1.80018 5.66665 0.71744 6.15185L0.480476 6.25802C-0.160159 6.54542 -0.160159 7.45482 0.480476 7.74198Z" fill="#333399"/>
</svg>
