<svg width="269" height="42" viewBox="0 0 269 42" fill="none" xmlns="http://www.w3.org/2000/svg">
<path d="M21.22 11.061C20.0196 8.02276 17.3951 6.2256 14.5095 6.2256C10.0844 6.2256 7.08689 10.0132 7.08689 14.323C7.08689 18.8226 10.1624 22.5695 14.5468 22.5695C17.3578 22.5695 19.7585 20.9962 21.22 17.8834H28.6425C26.9166 24.5566 21.1827 28.7917 14.6214 28.7917C10.7592 28.7917 7.12419 27.4422 4.27249 24.6311C1.27158 21.7082 0 18.1818 0 13.9839C0 6.63591 6.33751 0 14.2857 0C18.1105 0 21.1827 1.05116 23.9598 3.4112C26.5843 5.65933 28.1576 8.20925 28.6459 11.061H21.22Z" fill="white"/>
<path d="M47.6875 28.2693V26.0212H47.6129C46.7143 27.859 44.239 28.9814 41.5026 28.9814C35.355 28.9814 31.0791 24.146 31.0791 17.8458C31.0791 11.6982 35.5415 6.74756 41.5026 6.74756C44.0525 6.74756 46.4125 7.76142 47.6129 9.67047H47.6875V7.45964H53.9097V28.2659H47.6875V28.2693ZM47.6875 17.8492C47.6875 14.9263 45.3241 12.5629 42.4011 12.5629C39.5528 12.5629 37.3013 14.9263 37.3013 17.9238C37.3013 20.8094 39.5867 23.1728 42.4758 23.1728C45.3987 23.1728 47.6875 20.8467 47.6875 17.8492Z" fill="white"/>
<path d="M67.2986 13.3124C67.2613 12.112 66.4 11.739 65.3861 11.739C64.335 11.739 63.5856 12.3392 63.5856 13.1259C63.5856 14.2516 64.5994 14.8111 67.4851 15.5639C72.4323 16.8761 74.0464 18.8632 74.0464 21.9014C74.0464 26.2519 70.2961 28.9883 65.5726 28.9883C60.8865 28.9883 57.5499 26.3264 57.0989 22.0913H63.2838C63.4703 23.4035 64.4096 24.0037 65.6472 24.0037C66.7357 24.0037 67.8208 23.3662 67.8208 22.3931C67.8208 21.23 67.1087 20.6298 63.9959 19.6566C58.7468 18.046 57.36 15.981 57.36 13.5463C57.36 9.42304 61.2221 6.76123 65.42 6.76123C69.9197 6.76123 73.1071 9.23656 73.4055 13.3225H67.2986V13.3124Z" fill="white"/>
<path d="M78.3926 28.2698V12.187H75.3171V7.46356H78.3926V0.525879H84.6149V7.46356H87.6158V12.187H84.6149V28.2698H78.3926Z" fill="white"/>
<path d="M90.3154 28.2698V0.525879H96.5376V28.2698H90.3154Z" fill="white"/>
<path d="M106.064 19.7583C106.403 22.1217 108.386 23.695 110.936 23.695C112.625 23.695 113.71 23.0576 114.724 21.7453H121.099C119.112 26.2823 115.324 28.9441 110.94 28.9441C104.941 28.9441 99.916 24.1087 99.916 17.9204C99.916 11.922 104.714 6.74756 110.824 6.74756C117.047 6.74756 121.811 11.6575 121.811 18.1069C121.811 18.7071 121.773 19.1954 121.662 19.7549H106.064V19.7583ZM115.589 15.5604C115.1 13.4241 113.225 12 110.828 12C108.58 12 106.63 13.3495 106.142 15.5604H115.589Z" fill="white"/>
<path d="M138.795 28.2698L132.383 19.3112H132.308V28.2698H125.523V0.525879H134.597C137.483 0.525879 139.697 0.902271 141.158 1.53975C144.156 2.88931 146.258 6.15131 146.258 10.0881C146.258 14.4759 143.634 18.0735 139.361 18.8229L146.896 28.2698H138.795ZM134.933 14.4758C137.744 14.4758 139.47 13.1636 139.47 10.5018C139.47 8.10105 137.669 6.75149 135.007 6.75149H132.308V14.4758H134.933Z" fill="white"/>
<path d="M159.977 28.9066C153.64 28.9066 148.767 24.2204 148.767 17.8456C148.767 11.3962 153.755 6.78467 159.977 6.78467C166.237 6.78467 171.187 11.4708 171.187 17.771C171.187 24.295 166.24 28.9066 159.977 28.9066ZM164.965 17.849C164.965 15.0753 162.866 12.6 159.94 12.6C157.203 12.6 154.992 15.0007 154.992 17.849C154.992 20.6973 157.166 23.0981 159.98 23.0981C162.903 23.0981 164.965 20.6227 164.965 17.849Z" fill="white"/>
<path d="M189.41 15.4858C188.512 13.5361 186.898 12.5629 184.762 12.5629C181.913 12.5629 179.964 14.9263 179.964 17.8492C179.964 20.8874 182.025 23.1356 184.911 23.1356C187.01 23.1356 188.471 22.159 189.41 20.3619H195.748C194.51 25.5736 190.048 28.9475 184.724 28.9475C178.577 28.9475 173.701 23.9596 173.701 17.8119C173.701 11.5897 178.611 6.75098 184.609 6.75098C190.082 6.75098 194.544 10.1995 195.707 15.4858H189.41Z" fill="white"/>
<path d="M211.001 28.2698L205.115 18.26H205.04V28.2698H198.818V0.525879H205.04V14.998H205.115L210.889 7.46356H218.275L210.438 16.6121L218.047 28.2732H211.001V28.2698Z" fill="white"/>
<path d="M206.904 34.3257H206.267C206.155 33.8137 206.002 33.4407 205.816 33.2067C205.629 32.9727 205.419 32.8269 205.185 32.7727C204.951 32.7184 204.625 32.6913 204.212 32.6913H202.567V35.9431H203.428C203.835 35.9431 204.113 35.8719 204.256 35.7329C204.402 35.5938 204.486 35.2819 204.513 34.8038H205.137V37.8657H204.5C204.476 37.5131 204.435 37.2588 204.374 37.1062C204.313 36.9536 204.208 36.8451 204.063 36.7874C203.917 36.7298 203.696 36.6993 203.401 36.6993H202.567V39.4357C202.567 39.8053 202.642 40.0799 202.788 40.2563C202.933 40.4326 203.283 40.5207 203.835 40.5207H204.025V41.1447H199.302V40.5207C199.861 40.5207 200.224 40.4394 200.383 40.2732C200.543 40.1071 200.624 39.829 200.624 39.4357V33.6509C200.624 33.3898 200.597 33.183 200.543 33.0372C200.489 32.8913 200.366 32.7761 200.173 32.6913C199.98 32.6065 199.692 32.5658 199.302 32.5658V31.9419H206.836L206.904 34.3257Z" fill="white"/>
<path d="M219.101 41.1417H213.723V40.5178H214.15C214.384 40.5178 214.598 40.4873 214.784 40.4262C214.971 40.3652 215.065 40.2296 215.065 40.0159C215.065 39.9108 214.947 39.7006 214.706 39.3785L213.221 37.4152L211.79 39.0835C211.454 39.4632 211.288 39.7548 211.288 39.9583C211.288 40.1244 211.342 40.2499 211.454 40.3347C211.566 40.4194 211.698 40.4703 211.858 40.4873C212.017 40.5042 212.227 40.5144 212.495 40.5144V41.1383H208.45V40.5144C208.745 40.5042 209.006 40.4635 209.233 40.3855C209.46 40.3076 209.718 40.1482 210.003 39.9007C210.288 39.6531 210.661 39.2632 211.122 38.724L212.756 36.8014L210.535 33.8819C210.2 33.4479 209.959 33.1528 209.81 32.9969C209.66 32.8409 209.488 32.729 209.287 32.6612C209.087 32.5934 208.806 32.5595 208.447 32.5595V31.9355H213.468V32.5595H213.116C212.858 32.5595 212.665 32.5798 212.536 32.6171C212.407 32.6544 212.343 32.7595 212.343 32.9257C212.343 33.024 212.482 33.2681 212.756 33.6581L214.038 35.3128L215.496 33.6038C215.628 33.4309 215.713 33.3122 215.754 33.241C215.795 33.1698 215.815 33.085 215.815 32.9799C215.815 32.8307 215.757 32.7222 215.645 32.6578C215.533 32.5934 215.32 32.5595 215.008 32.5595H214.689V31.9355H218.497V32.5595C218.148 32.5595 217.849 32.6137 217.605 32.7256C217.358 32.8375 217.141 32.9833 216.954 33.163C216.768 33.3427 216.493 33.6411 216.137 34.0514L214.496 35.9401L216.737 38.8732C217.073 39.3174 217.348 39.6531 217.561 39.8769C217.775 40.1041 217.995 40.2635 218.216 40.3584C218.436 40.4534 218.731 40.5042 219.097 40.5144V41.1417H219.101Z" fill="white"/>
<path d="M234.448 41.176H223.235V29.9624L234.448 41.176Z" fill="white"/>
<path d="M234.449 18.7487L223.235 29.9623V7.53857L234.449 18.7487Z" fill="white"/>
<path d="M256.876 41.176H234.449L245.659 29.9624L256.876 41.176Z" fill="white"/>
<path d="M256.876 18.7487L245.659 29.9623L234.449 18.7487L245.659 7.53857L256.876 18.7487Z" fill="white"/>
<path d="M268.09 7.53857V29.9623L256.876 18.7487L268.09 7.53857Z" fill="white"/>
<path d="M268.09 29.9624V41.176H256.876L268.09 29.9624Z" fill="white"/>
</svg>
