<svg width="512" height="512" viewBox="0 0 512 512" fill="none" xmlns="http://www.w3.org/2000/svg">
<path fill-rule="evenodd" clip-rule="evenodd" d="M224.641 4.18317L224.643 4.18346L224.655 4.18555C235.922 6.05294 246.563 7.81677 256.237 7.82777L256.239 7.85152V7.82965H256.361C266.635 7.82965 277.648 6.09925 289.305 4.26753L289.312 4.26635C312.697 0.591039 336.879 -3.20728 359.72 6.27952C382.56 15.7663 396.933 35.579 410.834 54.7416L410.842 54.7528C417.797 64.3395 424.367 73.395 431.651 80.6878C438.486 87.5325 447.243 93.8249 456.513 100.486L456.533 100.5L456.534 100.501C475.062 113.814 496.063 128.903 505.919 152.763V152.764C515.774 176.624 511.546 202.136 507.815 224.644C505.945 235.915 504.181 246.561 504.168 256.24C504.154 266.544 505.89 277.593 507.728 289.291L507.732 289.314C511.406 312.699 515.205 336.88 505.718 359.72C496.233 382.561 476.419 396.935 457.257 410.836L457.233 410.853C447.651 417.805 438.601 424.372 431.312 431.652C424.466 438.49 418.171 447.25 411.507 456.524L411.501 456.533C398.187 475.062 383.097 496.063 359.237 505.92C348.289 510.443 336.989 512 325.795 512C312.598 512 299.544 509.836 287.367 507.817L287.357 507.816C276.269 505.978 265.791 504.249 256.239 504.18V504.153L256.237 504.178C256.178 504.178 256.119 504.176 256.06 504.175C255.959 504.171 255.858 504.167 255.76 504.167H255.635C245.362 504.167 234.349 505.898 222.692 507.73L222.685 507.731L222.676 507.732C199.295 511.405 175.116 515.203 152.279 505.718C129.439 496.232 115.065 476.418 101.164 457.258L101.164 457.257C94.2056 447.665 87.6332 438.606 80.3468 431.311C73.5085 424.464 64.7484 418.17 55.4741 411.505L55.4647 411.499L55.4624 411.497C36.9354 398.184 15.9349 383.094 6.07951 359.235C-3.77632 335.375 0.452039 309.863 4.18335 287.355C6.05251 276.083 7.81666 265.437 7.82966 255.759C7.84365 245.455 6.10787 234.406 4.27011 222.708L4.26636 222.684C0.59205 199.3 -3.20727 175.118 6.27953 152.278C15.7663 129.438 35.58 115.064 54.7406 101.164L54.7511 101.156C64.338 94.2002 73.3938 87.6298 80.6868 80.3459C87.532 73.5086 93.8266 64.7485 100.491 55.4742L100.497 55.4648C113.811 36.9362 128.901 15.9355 152.761 6.07962C176.622 -3.77695 202.133 0.451929 224.641 4.18317Z" fill="#333399"/>
<path fill-rule="evenodd" clip-rule="evenodd" d="M70.3169 256.001C70.3169 153.615 153.614 70.3181 255.999 70.3181C256.053 70.3181 256.105 70.319 256.158 70.3199C256.185 70.3203 256.212 70.3208 256.239 70.3211V70.3201C358.515 70.4501 441.682 153.694 441.682 256C441.682 358.305 358.514 441.549 256.239 441.679V441.68C256.199 441.68 256.159 441.681 256.119 441.682C256.079 441.683 256.039 441.683 255.999 441.683C153.614 441.683 70.3169 358.386 70.3169 256.001Z" fill="#7575CD"/>
<path d="M194.358 336.217H133.145V275.004L194.358 336.217Z" fill="#1F1F82"/>
<path d="M194.362 213.791L133.149 275.004V152.597L194.362 213.791Z" fill="#1F1F82"/>
<path d="M316.785 336.217H194.359L255.553 275.004L316.785 336.217Z" fill="#1F1F82"/>
<path d="M316.785 213.791L255.553 275.004L194.359 213.791L255.553 152.597L316.785 213.791Z" fill="#1F1F82"/>
<path d="M378 152.597V275.004L316.787 213.791L378 152.597Z" fill="#1F1F82"/>
<path d="M378 275.004V336.217H316.787L378 275.004Z" fill="#1F1F82"/>
</svg>
